<svg id="Capa_1" xmlns="http://www.w3.org/2000/svg" xmlns:xlink="http://www.w3.org/1999/xlink" width="31.653" height="31.653" viewBox="0 0 31.653 31.653" style="enable-background:new 0 0 31.653 31.653"><g><path d="M27.614.0c-1.146.0-2.076.93-2.076 2.076v3.011h-8.603v-1.46c0-.479-.389-.868-.868-.868h-2.051c-.479.0-.868.389-.868.868v1.46H11.85v-1.46c0-.479-.389-.868-.868-.868H8.93c-.48.0-.868.389-.868.868v1.46H6.167V2.076C6.167.929 5.238.0 4.091.0H3.594C2.206.0 1.082 1.125 1.082 2.512v27.065c0 1.146.929 2.076 2.076 2.076h.934c1.146.0 2.076-.931 2.076-2.076v-2.522h14.123v1.404c0 .479.389.868.868.868h2.051c.479.0.868-.39.868-.868v-1.404h1.46v2.522c0 1.146.929 2.076 2.076 2.076h.881c1.146.0 2.076-.931 2.076-2.076V2.076C30.571.929 29.643.0 28.495.0H27.614zM8.061 7.574v1.46c0 .479.389.868.868.868h2.052c.479.0.868-.389.868-.868v-1.46h1.299v1.46c0 .479.389.868.868.868h2.051c.479.0.868-.389.868-.868v-1.46h8.604v7.251h-1.461v-1.674c0-.479-.389-.868-.868-.868h-2.052c-.479.0-.868.389-.868.868v1.674h-1.298v-1.674c0-.479-.389-.868-.868-.868h-2.051c-.479.0-.868.389-.868.868v1.674h-1.84v-1.674c0-.479-.389-.868-.868-.868h-2.051c-.479.0-.868.389-.868.868v1.674H6.167V7.574H8.061zM24.077 24.512V23.11c0-.479-.39-.868-.868-.868h-2.052c-.479.0-.868.39-.868.868v1.402H6.166v-7.197h3.41v1.188c0 .479.389.868.868.868h2.051c.48.0.868-.389.868-.868v-1.188h1.84v1.188c0 .479.389.868.868.868h2.051c.479.0.868-.389.868-.868v-1.188h1.298v1.188c0 .479.39.868.868.868h2.052c.479.0.868-.389.868-.868v-1.188h1.461v7.197H24.077v0z"/></g><g/><g/><g/><g/><g/><g/><g/><g/><g/><g/><g/><g/><g/><g/><g/></svg>