<svg id="Capa_1" xmlns="http://www.w3.org/2000/svg" xmlns:xlink="http://www.w3.org/1999/xlink" viewBox="0 0 477.83 477.83" style="enable-background:new 0 0 477.83 477.83"><path d="M414.612 243.396c11.687-9.298 19.201-23.629 19.201-39.69.0-15.134-6.672-28.731-17.219-38.031-4.013-15.772-10.2-30.912-18.417-45.048-13.134-22.6-31.479-42.382-53.051-57.205-29.112-20.017-63.223-30.764-98.642-31.081-1.106-.021-2.173-.021-3.281.0-35.422.315-69.528 11.062-98.64 31.079-.306.21-.605.432-.911.645 1.163-4.257 1.796-8.73 1.796-13.351C145.45 22.75 122.7.0 94.736.0S44.022 22.75 44.022 50.714c0 16.06 7.512 30.39 19.198 39.688-21.645 11.379-36.448 34.08-36.448 60.184v53.62c0 11.402 7.176 21.16 17.25 24.999v74.261c0 11.784 9.587 21.37 21.37 21.37h44.879c10.048 11.71 21.601 22.149 34.278 30.861 29.11 20.027 63.241 30.776 98.603 31.082.572.011 1.132.012 1.692.012s1.12.0 1.594-.01c24.981-.221 49.763-5.774 72.35-16.126 3.066 5.242 7.858 9.356 13.597 11.544v74.263c0 11.783 9.586 21.369 21.369 21.369h58.689c11.783.0 21.369-9.586 21.369-21.369v-74.263c10.071-3.84 17.245-13.599 17.245-25.002v-53.616C451.058 277.476 436.256 254.776 414.612 243.396zM103.952 137.518c7.439 3.02 15.205 5.782 23.236 8.286-4.745 17.356-7.489 35.533-8.18 54.256H86.911C88.22 178.224 94.033 156.901 103.952 137.518zM332.531 200.06h-31.726c-.212-13.927-.886-27.554-2-40.649 15.654-1.984 30.871-4.824 45.395-8.469 1.443 5.307 2.692 10.744 3.738 16.271C339.182 175.652 333.45 187.197 332.531 200.06zM145.476 268.158c-4.277-15.688-6.771-32.134-7.448-49.098h50.849c.212 13.917.885 27.536 1.998 40.624C175.21 261.661 160.009 264.501 145.476 268.158zM270.28 319.21c-16.786-1.692-34.088-1.692-50.878.0-3.193-12.801-5.77-27.15-7.677-42.574 21.797-1.722 44.427-1.722 66.23-.001C276.05 292.061 273.473 306.409 270.28 319.21zM205.659 340.275c2.581 7.951 5.369 14.9 8.362 20.823-8.92-3.988-17.464-9.729-25.476-17.142C194.14 342.505 199.858 341.285 205.659 340.275zM244.844 367.79c-.015.0-.031.0-.046.0-3.628-.049-11.817-6.698-19.932-30.003 13.216-1.125 26.738-1.124 39.95.0-8.116 23.307-16.306 29.956-19.934 30.004C244.869 367.79 244.857 367.79 244.844 367.79zM284.023 340.274c5.805 1.01 11.525 2.231 17.119 3.682-8.012 7.413-16.556 13.154-25.478 17.142C278.657 355.177 281.442 348.224 284.023 340.274zM315.14 303.579v24.604c-8.403-2.569-17.081-4.679-25.955-6.297 3.178-13.138 5.751-27.718 7.665-43.302 7.38.94 14.671 2.082 21.82 3.421C316.393 288.789 315.14 296.038 315.14 303.579zM279.911 257.733c-23.088-1.847-47.056-1.847-70.141.001-1.047-12.441-1.684-25.405-1.891-38.674h73.924C281.596 232.329 280.958 245.292 279.911 257.733zM207.879 200.06c.207-13.274.845-26.242 1.893-38.687 11.551.937 23.274 1.417 35.073 1.417 11.796.0 23.517-.479 35.066-1.416 1.048 12.445 1.686 25.413 1.893 38.686H207.879zM244.84 51.33c0 0 0 0 0 0 3.608.0 11.828 6.613 19.972 29.996-6.583.564-13.245.865-19.968.865-6.725.0-13.39-.301-19.975-.865C233.013 57.943 241.232 51.331 244.84 51.33zM244.844 101.19c8.571.0 17.064-.44 25.433-1.289 3.193 12.8 5.771 27.148 7.678 42.572-10.896.87-21.963 1.316-33.11 1.316-11.15.0-22.219-.447-33.117-1.317 1.907-15.424 4.484-29.772 7.678-42.573C227.776 100.75 236.271 101.19 244.844 101.19zM296.848 140.519c-1.914-15.579-4.487-30.156-7.665-43.29 8.957-1.63 17.715-3.747 26.199-6.354 9.195 11.971 17.001 26.248 22.954 41.963C325.059 136.118 311.156 138.692 296.848 140.519zM284.03 78.844c-2.581-7.952-5.37-14.893-8.363-20.816 8.911 3.987 17.447 9.724 25.455 17.13C295.533 76.608 289.829 77.838 284.03 78.844zM214.021 58.029c-2.994 5.924-5.785 12.86-8.367 20.814-5.798-1.006-11.5-2.236-17.088-3.686C196.573 67.752 205.109 62.016 214.021 58.029zM200.498 97.228c-3.178 13.134-5.751 27.711-7.665 43.29-14.306-1.826-28.207-4.4-41.483-7.68 5.954-15.723 13.76-30 22.953-41.963C182.786 93.481 191.543 95.598 200.498 97.228zM190.877 159.41c-1.114 13.096-1.789 26.723-2 40.65h-50.849c.677-16.97 3.174-33.424 7.454-49.121C160.006 154.585 175.223 157.426 190.877 159.41zM103.956 281.61c-9.92-19.385-15.735-40.71-17.044-62.55h32.097c.691 18.72 3.433 36.893 8.176 54.243C119.139 275.82 111.374 278.598 103.956 281.61zM192.832 278.59c1.914 15.582 4.487 30.161 7.665 43.297-8.954 1.633-17.711 3.766-26.191 6.369-9.196-11.976-17.003-26.258-22.955-41.976C164.636 282.99 178.518 280.412 192.832 278.59zM298.807 259.682c1.112-13.087 1.786-26.705 1.998-40.622h33.962c3.089 9.7 9.025 18.136 16.819 24.336-9.55 5.021-17.759 12.246-23.959 20.998C318.235 262.492 308.591 260.917 298.807 259.682zM383.099 235.42c-17.487.0-31.714-14.227-31.714-31.714s14.227-31.714 31.714-31.714 31.714 14.227 31.714 31.714S400.586 235.42 383.099 235.42zm0-82.428c-6.34.0-12.406 1.18-18.006 3.314-.789-3.544-1.658-7.046-2.6-10.5 8.032-2.505 15.8-5.267 23.241-8.287 2.743 5.351 5.171 10.842 7.277 16.453C389.804 153.333 386.491 152.992 383.099 152.992zM375.942 120.967c-6.187 2.434-12.607 4.684-19.227 6.747-5.912-16-13.604-30.761-22.671-43.55 1.562-.646 3.118-1.301 4.655-1.982C353.168 92.87 365.846 106.087 375.942 120.967zM150.989 82.182c1.536.681 3.091 1.335 4.652 1.98-9.064 12.783-16.756 27.545-22.669 43.551-6.62-2.063-13.039-4.313-19.226-6.747C123.841 106.088 136.519 92.871 150.989 82.182zM94.736 19c17.487.0 31.714 14.227 31.714 31.714s-14.227 31.714-31.714 31.714S63.022 68.201 63.022 50.714 77.249 19 94.736 19zM63.022 303.466v-82.02c0-5.247-4.253-9.5-9.5-9.5-4.273.0-7.75-3.472-7.75-7.74v-53.62c0-26.997 21.963-48.96 48.96-48.96 3.036.0 6.018.286 8.94.824-4.425 5.813-8.502 11.88-12.161 18.177-15.634 26.896-23.897 57.649-23.897 88.934.0 26.776 6.072 53.154 17.618 77.066v19.209h-19.84C64.085 305.836 63.022 304.773 63.022 303.466zM113.747 298.156c6.168-2.427 12.59-4.683 19.223-6.756 5.91 15.998 13.6 30.76 22.665 43.552-1.569.648-3.128 1.304-4.66 1.983C136.516 326.252 123.843 313.038 113.747 298.156zM432.058 357.195c0 4.271-3.475 7.745-7.745 7.745-5.247.0-9.5 4.253-9.5 9.5v82.021c0 1.306-1.063 2.369-2.369 2.369h-19.845V386.02c0-5.247-4.253-9.5-9.5-9.5s-9.5 4.253-9.5 9.5v72.811h-19.845c-1.307.0-2.369-1.063-2.369-2.369V374.44c0-5.247-4.253-9.5-9.5-9.5-4.271.0-7.745-3.475-7.745-7.745v-53.616c0-26.996 21.963-48.959 48.959-48.959s48.959 21.963 48.959 48.959V357.195z"/><g/><g/><g/><g/><g/><g/><g/><g/><g/><g/><g/><g/><g/><g/><g/></svg>