<svg id="Capa_1" xmlns="http://www.w3.org/2000/svg" xmlns:xlink="http://www.w3.org/1999/xlink" width="124.912" height="124.912" viewBox="0 0 124.912 124.912" style="enable-background:new 0 0 124.912 124.912"><g><g><path d="M40.646 36.982c-5.746 7.14-7.302 17.178-4.164 26.493L6.858 96.539c-1.257 1.402-1.264 3.521-.021 4.934 1.244 1.413 3.349 1.669 4.896.601l14.569-10.069c.31 1.721.969 3.404 2.026 4.933 3.957 5.728 11.834 7.166 17.562 3.208 5.727-3.957 7.168-11.835 3.21-17.562-1.057-1.529-2.398-2.741-3.898-3.639l1.375-.948c3.685 2.98 7.907 4.999 12.269 5.962l3.273 4.734c-.479.974-.444 2.163.215 3.117l2.039 2.95c.971 1.404 2.895 1.755 4.298.785.669-.463 1.093-1.147 1.253-1.886.747.111 1.537-.042 2.208-.507 1.403-.969 1.755-2.893.784-4.296l-2.038-2.949c-.657-.955-1.76-1.409-2.839-1.306l-.127-.184c3.329-.406 6.579-1.464 9.57-3.215l1.662 2.406c-.594 1.208-.551 2.688.27 3.873l2.532 3.666c1.204 1.744 3.595 2.181 5.339.976 1.742-1.205 2.179-3.594.975-5.338l-2.533-3.666c-.817-1.188-2.187-1.75-3.526-1.62l-1.663-2.406c2.411-1.948 4.375-4.286 5.878-6.882-.287.881-.185 1.875.382 2.695l2.04 2.949c.97 1.403 2.894 1.756 4.296.786.672-.464 1.094-1.147 1.254-1.888.748.112 1.538-.042 2.209-.506 1.402-.969 1.754-2.894.784-4.295l-2.039-2.951c-.659-.954-1.76-1.407-2.838-1.304l-2.93-4.241c.817-4.662.473-9.626-1.107-14.408l1.374-.95c.309 1.72.971 3.404 2.026 4.933 3.957 5.727 11.836 7.166 17.563 3.208 5.727-3.958 7.166-11.836 3.207-17.563-1.056-1.529-2.396-2.742-3.896-3.639l14.569-10.069c1.547-1.069 2.051-3.129 1.17-4.792-.881-1.662-2.866-2.404-4.623-1.725l-41.402 16.02c-7.602-6.228-17.54-8.322-26.246-5.476L32.127 8.106c-.754-.784-1.963-.909-2.862-.297-.923.589-1.222 1.784-.77 2.772L40.646 36.982zM99.296 41.576c2.358-1.63 5.603-1.038 7.231 1.32 1.63 2.359 1.035 5.603-1.32 7.233-2.357 1.628-5.604 1.037-7.232-1.322C96.348 46.449 96.939 43.205 99.296 41.576zM41.671 94.035c-2.358 1.63-5.604 1.038-7.232-1.32-1.63-2.359-1.037-5.603 1.32-7.233 2.358-1.629 5.604-1.035 7.233 1.322C44.62 89.162 44.028 92.406 41.671 94.035zM65.922 33.198l7.485 7.163L43.776 60.837l-4.052-9.536L65.922 33.198z"/><path d="M0 109.878h124.826v7.612H0z"/><path d="M11.709 71.666 7.082 84.225 19.779 76.366 18.24 73.878 12.761 77.271 15.369 70.193 9.064 67.13 15.369 65.045 14.993 57.584 20.451 60.739 25.924 56.345 25.181 65.764 28.095 65.995 29.373 49.829 20.181 57.206 11.799 52.36 12.337 62.967 1.312 66.614z"/></g></g><g/><g/><g/><g/><g/><g/><g/><g/><g/><g/><g/><g/><g/><g/><g/></svg>