<svg id="Capa_1" xmlns="http://www.w3.org/2000/svg" xmlns:xlink="http://www.w3.org/1999/xlink" width="446.852" height="446.852" viewBox="0 0 446.852 446.852" style="enable-background:new 0 0 446.852 446.852"><g><path d="M403.233 288.574c13.831-15.959 20.406-30.375 15.334-36.447-3.509-4.203-11.969-3.604-22.862.714l-3.835-18.231c12.295-15.36 17.592-29.028 12.362-35.549-3.399-4.237-10.758-4.747-20.318-2.23l-10.098-47.954C433.2 78.469 457.742 19.853 442.367 4.478c-15.375-15.375-73.991 9.173-144.398 68.558l-47.953-10.098c2.516-9.561 2.006-16.918-2.23-20.318-6.515-5.229-20.183.068-35.55 12.362l-18.231-3.835c4.318-10.887 4.917-19.346.714-22.861-6.072-5.073-20.481 1.503-36.448 15.334L86.55 28.522 48.082 66.99l66.015 34.095c-5.63 12.566-6.848 22.481-2.203 26.357 5.44 4.542 17.564-.245 31.504-11.227l16.109 8.323c-5.392 13.729-6.065 24.568-.625 28.934 6.358 5.1 19.523.177 34.421-11.479l22.678 11.709c-.667.755-1.333 1.482-1.999 2.244-42.48 48.409-80.614 93.819-108.447 131.458l-76.677-8.847L.006 307.41l67.796 38.481c-9.275 18.599-11.757 31.987-5.291 38.454s19.856 3.985 38.454-5.29l38.481 67.796 28.853-28.853-8.847-76.677c37.645-27.833 83.049-65.967 131.458-108.446.761-.667 1.488-1.333 2.243-1.999l11.71 22.678c-11.655 14.898-16.578 28.063-11.479 34.422 4.366 5.439 15.205 4.767 28.935-.626l8.323 16.109c-10.982 13.939-15.77 26.064-11.228 31.504 3.876 4.645 13.798 3.421 26.357-2.203l34.095 66.015 38.468-38.468L403.233 288.574z"
		/></g><g/><g/><g/><g/><g/><g/><g/><g/><g/><g/><g/><g/><g/><g/><g/></svg>