<svg id="Capa_1" xmlns="http://www.w3.org/2000/svg" xmlns:xlink="http://www.w3.org/1999/xlink" width="31.826" height="31.826" viewBox="0 0 31.826 31.826" style="enable-background:new 0 0 31.826 31.826"><g><g><circle cx="15.994" cy="6.991" r=".862"/><circle cx="15.994" cy="24.169" r=".862"/><circle cx="24.583" cy="15.58" r=".862"/><circle cx="7.403" cy="15.58" r=".862"/><circle cx="22.068" cy="9.506" r=".86"/><circle cx="9.919" cy="21.654" r=".86"/><circle cx="22.066" cy="21.655" r=".861"/><path d="M10.529 10.116c.338-.337.337-.883.0-1.218-.337-.337-.881-.337-1.22.0-.334.335-.334.881.003 1.217C9.647 10.452 10.191 10.453 10.529 10.116z"/><path d="M3.736 24.911l-2.699 4.084c-.557.841-.326 1.973.516 2.526.309.205.658.303 1.005.303.59.0 1.171-.287 1.521-.818l2.257-3.414C5.365 26.808 4.491 25.906 3.736 24.911z"/><path d="M30.939 28.996l-2.693-4.075c-.756.995-1.631 1.896-2.602 2.681l2.252 3.406c.35.531.932.818 1.521.818.347.0.695-.098 1.007-.303C31.263 30.969 31.494 29.837 30.939 28.996z"/><path d="M1.445 10.641c1.585-4.603 5.294-8.225 9.953-9.686C10.341.349 9.12.0 7.816.0c-1.078.0-2.102.238-3.02.662C4.382.334 3.86.136 3.289.136c-1.345.0-2.433 1.089-2.433 2.432.0.544.181 1.045.482 1.45C.857 4.986.585 6.076.585 7.23.586 8.465.898 9.625 1.445 10.641z"/><path d="M26.812 4.711c1.443 1.43 2.604 3.143 3.396 5.048.295-.787.459-1.638.459-2.528.0-1.154-.271-2.245-.752-3.212.302-.405.479-.906.479-1.45.0-1.343-1.09-2.432-2.433-2.432-.569.0-1.095.197-1.509.525-.92-.423-1.939-.661-3.021-.661-1.199.0-2.33.295-3.324.813 2.17.604 4.148 1.672 5.82 3.092C26.236 4.162 26.529 4.431 26.812 4.711z"/><path d="M30.023 15.634c0-7.736-6.293-14.029-14.028-14.029-7.737.0-14.03 6.293-14.03 14.029.0 7.736 6.293 14.029 14.03 14.029C23.73 29.663 30.023 23.37 30.023 15.634zM15.994 26.014c-5.725.0-10.382-4.656-10.382-10.38.0-5.724 4.657-10.381 10.382-10.381 5.725.0 10.38 4.657 10.38 10.381C26.374 21.357 21.718 26.014 15.994 26.014z"/><path d="M21.877 14.645h-3.745c-.199-.401-.466-.799-.865-1.04v-3.237c0-.671-.598-1.216-1.27-1.216s-1.269.544-1.269 1.216v3.237c-.669.414-1.129 1.167-1.129 2.029.0 1.308 1.074 2.364 2.381 2.364.772.0 1.47-.415 1.902-.949h3.995c.673.0 1.218-.529 1.218-1.202C23.095 15.175 22.552 14.645 21.877 14.645z"/></g></g><g/><g/><g/><g/><g/><g/><g/><g/><g/><g/><g/><g/><g/><g/><g/></svg>