<svg id="Capa_1" xmlns="http://www.w3.org/2000/svg" xmlns:xlink="http://www.w3.org/1999/xlink" width="461.999" height="461.999" viewBox="0 0 461.999 461.999" style="enable-background:new 0 0 461.999 461.999"><g><g><path d="M326.471 221.985c-1.563-9.893-16.578-31.7-19.573-35.97-13.052-18.62-24.619-30.725-34.458-35.82-4.295-2.221-19.291-8.957-19.291-8.957l-8.202-6.914-12.58 12.509 12.094 80.854c.041.273-.027.552-.191.775l-12.422 17c-.197.271-.512.433-.848.433s-.65-.16-.85-.433l-12.42-17c-.162-.224-.232-.502-.191-.775l12.094-80.852-12.582-12.511-8.205 6.914c0 0-17.463 7.999-19.289 8.957-9.809 5.157-21.404 17.2-34.459 35.82-2.994 4.27-18.008 26.077-19.568 35.97-1.416 8.955 3.791 17.441 20.639 33.623 8.807 8.457 17.611 15.863 17.98 16.178 2.693 2.262 5.973 3.369 9.236 3.367.936.0 1.869-.102 2.791-.282 1.057 5.216 3.361 9.952 6.523 14.108l.008 155.707c.002 9.564 7.756 17.313 17.318 17.313s17.314-7.751 17.314-17.315l-.008-137.269c1.23.103 2.453.165 3.666.165 1.215.0 2.438-.062 3.668-.165l-.002 137.271c0 9.563 7.752 17.313 17.315 17.313s17.314-7.751 17.314-17.313l.002-155.707c3.162-4.156 5.469-8.894 6.524-14.108.923.183 1.855.282 2.791.282 3.263.0 6.544-1.105 9.236-3.367.367-.312 9.175-7.721 17.98-16.178C322.676 239.427 327.883 230.94 326.471 221.985zM165.391 223.686c3.65-7.172 11.809-19.831 20.113-30.477l.01 50.396C176.919 235.949 169.121 228.235 165.391 223.686zM276.479 243.605l.011-50.396c8.305 10.646 16.465 23.305 20.113 30.477C292.871 228.235 285.074 235.949 276.479 243.605z"/><path d="M230.996 133.743c21.027.0 36.719-19.593 37.077-52.445.229-22.797-10.632-36.439-37.077-36.439s-37.307 13.643-37.074 36.439C194.276 114.15 209.969 133.743 230.996 133.743z"/><path d="M143.062 71.228l21.848 9.316c.68.286 1.385.427 2.076.427 2.063.0 4.021-1.209 4.881-3.227 1.146-2.689-.105-5.806-2.797-6.952l-21.85-9.317c-2.691-1.149-5.807.101-6.955 2.795C139.117 66.963 140.369 70.074 143.062 71.228z"/><path d="M295.008 80.971c.691.0 1.396-.141 2.076-.427l21.848-9.316c2.693-1.153 3.945-4.265 2.798-6.958-1.148-2.694-4.265-3.944-6.955-2.795l-21.851 9.317c-2.69 1.146-3.942 4.263-2.795 6.952C290.986 79.762 292.947 80.971 295.008 80.971z"/><path d="M230.996 30.845c2.93.0 5.303-2.377 5.303-5.3V5.3c0-2.925-2.373-5.3-5.303-5.3-2.928.0-5.301 2.375-5.301 5.3v20.245C225.694 28.468 228.067 30.845 230.996 30.845z"/></g></g><g/><g/><g/><g/><g/><g/><g/><g/><g/><g/><g/><g/><g/><g/><g/></svg>