<svg id="Capa_1" xmlns="http://www.w3.org/2000/svg" xmlns:xlink="http://www.w3.org/1999/xlink" width="497.019" height="497.018" viewBox="0 0 497.019 497.018" style="enable-background:new 0 0 497.019 497.018"><g><path d="M469.819 493.309h-442v-40.8h442V493.309zM248.819 3.709.0 180.509h44.438L248.799 37.09l203.952 143.419h44.268L248.819 3.709zM272.619 380.565V211.653c7.819-3.4 14.144-9.724 17.544-17.544h-82.688c3.4 7.82 9.724 14.144 17.544 17.544v168.912c-7.82 3.4-14.144 9.725-17.544 17.544h82.688C286.763 390.29 280.438 383.965 272.619 380.565zM150.219 380.565V211.653c7.82-3.4 14.144-9.724 17.544-17.544H85.075c3.4 7.82 9.724 14.144 17.544 17.544v168.912c-7.82 3.4-14.144 9.725-17.544 17.544h82.688C164.363 390.29 158.039 383.965 150.219 380.565zm244.8.0V211.653c7.82-3.4 14.145-9.724 17.544-17.544h-82.688c3.4 7.82 9.724 14.144 17.544 17.544v168.912c-7.82 3.4-14.144 9.725-17.544 17.544h82.688C409.163 390.29 402.839 383.965 395.019 380.565zM418.819 180.509l-170-122.4-170 122.4h340zM435.819 411.709h-374v27.2h374V411.709z"/></g><g/><g/><g/><g/><g/><g/><g/><g/><g/><g/><g/><g/><g/><g/><g/></svg>