<svg id="Capa_1" xmlns="http://www.w3.org/2000/svg" xmlns:xlink="http://www.w3.org/1999/xlink" width="31.769" height="31.769" viewBox="0 0 31.769 31.769" style="enable-background:new 0 0 31.769 31.769"><g><path d="M26.42 7.542c-1.413-.911-3.054-.847-4.874-.594 2.812-1.479 3.521-3.493 3.628-4.887.033-.431-.132-.853-.449-1.146-.316-.294-.75-.426-1.177-.36-3.872.599-5.438 3.331-6.039 5.015-.282-.868-.694-1.74-1.287-2.542-1.064-1.442-2.52-2.438-4.342-2.972-.391-.114-.811-.053-1.152.168-.342.221-.571.579-.627.982l-.017.119c-.095.686.325 1.335.99 1.531 1.196.353 2.115.976 2.792 1.889.588.794.924 1.721 1.109 2.61-2.56-.542-4.411-2.142-8.197-.353C2.951 8.809.002 13.54 2.216 20.724c1.781 5.79 6.019 9.738 8.252 11.045h11.566c2.576-1.542 6.77-5.061 7.871-11.409C31.125 13.325 29.508 9.532 26.42 7.542zM9.626 11.817c-.349.191-3.283 1.929-2.213 5.728.219.775-.232 1.58-1.007 1.8-.133.035-.267.053-.397.053-.638.0-1.222-.42-1.402-1.063-1.39-4.933 1.781-8.103 3.651-9.088.709-.376 1.592-.102 1.969.608C10.603 10.562 10.333 11.439 9.626 11.817z"/></g><g/><g/><g/><g/><g/><g/><g/><g/><g/><g/><g/><g/><g/><g/><g/></svg>