<svg id="Capa_1" xmlns="http://www.w3.org/2000/svg" xmlns:xlink="http://www.w3.org/1999/xlink" width="409.998" height="409.997" viewBox="0 0 409.998 409.997" style="enable-background:new 0 0 409.998 409.997"><g><path d="M377.583 63.456c.77-.191 1.484-.592 2.049-1.157l28.979-28.978c1.254-1.256 1.629-3.145.947-4.784-.678-1.642-2.275-2.71-4.055-2.71l-21.432-.003-.004-21.433c0-1.775-1.07-3.377-2.711-4.055-1.641-.681-3.527-.305-4.783.951l-28.977 28.977c-.564.565-.965 1.275-1.158 2.051l-4.111 16.628-143.407 143.41c-2.227-.598-4.559-.924-6.973-.924-14.762.0-26.729 11.969-26.729 26.732s11.967 26.73 26.729 26.73 26.73-11.969 26.73-26.73c0-2.533-.359-4.979-1.017-7.303l38.564-38.563c9.264 12.941 14.738 28.771 14.738 45.865.0 43.57-35.443 79.021-79.019 79.021-43.572.0-79.018-35.449-79.018-79.021.0-43.572 35.445-79.02 79.018-79.02 7.039.0 13.867.932 20.363 2.67l27.323-27.324c-14.518-6.707-30.67-10.467-47.688-10.467-62.936.0-114.137 51.203-114.137 114.141s51.201 114.138 114.137 114.138c62.938.0 114.139-51.2 114.139-114.138.0-26.787-9.285-51.44-24.793-70.931l30.232-30.233c23.148 27.317 37.145 62.632 37.145 101.164.0 86.416-70.305 156.72-156.723 156.72-86.416.0-156.721-70.304-156.721-156.72.0-86.417 70.305-156.721 156.721-156.721 28.877.0 55.945 7.857 79.199 21.535l25.568-25.57c-30.883-20.221-66.99-31.085-104.769-31.085-51.24.0-99.418 19.954-135.65 56.188C20.06 118.741.103 166.915.103 218.158c0 51.242 19.957 99.417 56.191 135.65 36.232 36.232 84.41 56.188 135.65 56.188 51.242.0 99.419-19.955 135.651-56.188 36.234-36.233 56.189-84.408 56.189-135.65.0-46.878-16.709-91.184-47.297-126.133l24.459-24.458L377.583 63.456z"/></g><g/><g/><g/><g/><g/><g/><g/><g/><g/><g/><g/><g/><g/><g/><g/></svg>