<svg id="Capa_1" xmlns="http://www.w3.org/2000/svg" xmlns:xlink="http://www.w3.org/1999/xlink" width="31.52" height="31.52" viewBox="0 0 31.52 31.52" style="enable-background:new 0 0 31.52 31.52"
	><g><g><path d="M2.67 25.386c0 .58.472 1.054 1.054 1.054h1.853c.582.0 1.054-.474 1.054-1.054v-6.304l-3.207 3.22L2.67 21.533V25.386z"/><path d="M9.317 25.427c0 .56.453 1.013 1.012 1.013h1.937c.559.0 1.012-.453 1.012-1.013v-7.679l-2.643-2.655-1.318 1.333V25.427z"/><path d="M18.912 26.438c.559.0 1.012-.453 1.012-1.012V15.11l-4.031 3.986v6.33c0 .561.453 1.014 1.012 1.014L18.912 26.438v0z"/><path d="M22.541 12.454v12.973c0 .56.453 1.013 1.012 1.013h2.006c.561.0 1.014-.453 1.014-1.013V13.52l-2.545-2.53L22.541 12.454z"/><path d="M9.619 13.979c.553-.552 1.447-.552 2 0l2.385 2.385c.337.338.794.525 1.271.525.476.0.934-.188 1.271-.525l7.489-7.489 1.218 1.218c.187.186.466.242.707.144.243-.099.404-.333.408-.595L26.43 5.4c.006-.308-.113-.604-.33-.823-.215-.219-.51-.342-.814-.342h-4.312c-.266.0-.502.159-.604.403s-.045.525.145.711l1.039 1.041-5.273 5.274c-.265.265-.625.415-1 .415s-.734-.149-1-.414l-2.655-2.656c-.553-.552-1.447-.552-2 0l-7.64 7.636c-.28.279-.438.66-.438 1.057.0.397.157.775.438 1.058l.43.433c.553.551 1.447.551 2 0L9.619 13.979z"/><path d="M30 .062c-.824.0-1.52.669-1.52 1.495v26.931H1.494C.668 28.488.0 29.148.0 29.973c0 .826.668 1.484 1.494 1.484H30.01c.824.0 1.51-.67 1.51-1.494V1.558C31.52.732 30.825.062 30 .062z"/></g></g><g/><g/><g/><g/><g/><g/><g/><g/><g/><g/><g/><g/><g/><g/><g/></svg>