<svg id="Capa_1" xmlns="http://www.w3.org/2000/svg" xmlns:xlink="http://www.w3.org/1999/xlink" width="444.201" height="444.201" viewBox="0 0 444.201 444.201" style="enable-background:new 0 0 444.201 444.201"><g><path d="M101.387 444.201h-88.4c-3.74.0-6.8-3.06-6.8-6.8V315.002c0-3.74 3.06-6.801 6.8-6.801h88.4c3.74.0 6.8 3.061 6.8 6.801v122.399C108.187 441.142 105.127 444.201 101.387 444.201zM264.587 437.401v-217.6c0-3.74-3.061-6.8-6.8-6.8h-88.4c-3.74.0-6.8 3.06-6.8 6.8v217.6c0 3.74 3.06 6.8 6.8 6.8h88.4C261.526 444.201 264.587 441.142 264.587 437.401zM436.634 121.202 369.068 4.208c-3.236-5.61-8.54-5.61-11.777.0L289.74 121.202c-3.237 5.61-.592 10.2 5.889 10.2h23.357v306c0 3.74 3.061 6.8 6.801 6.8h74.8c3.74.0 6.8-3.06 6.8-6.8v-306h23.358C437.219 131.401 439.87 126.812 436.634 121.202z"/></g><g/><g/><g/><g/><g/><g/><g/><g/><g/><g/><g/><g/><g/><g/><g/></svg>