<svg id="Capa_1" xmlns="http://www.w3.org/2000/svg" xmlns:xlink="http://www.w3.org/1999/xlink" width="31.883" height="31.883" viewBox="0 0 31.883 31.883" style="enable-background:new 0 0 31.883 31.883"><g><g><path d="M25.704 15.879c3.896-3.34 5.88-6.568 4.719-8.292-.539-.801-1.69-1.182-3.27-1.182-1.684.0-3.846.434-6.262 1.247C19.871 3.064 18.037.0 15.94.0c-2.111.0-3.957 3.105-4.97 7.743C8.574 6.962 6.421 6.548 4.74 6.548c-1.643.0-2.841.394-3.384 1.224-1.138 1.739.884 4.941 4.823 8.229-3.897 3.34-5.879 6.568-4.718 8.293C2 25.098 3.152 25.477 4.733 25.477c1.68.0 3.843-.435 6.258-1.244 1.017 4.587 2.852 7.65 4.95 7.65 2.113.0 3.958-3.104 4.97-7.742 2.396.781 4.55 1.193 6.23 1.193 1.646.0 2.84-.394 3.385-1.223C31.667 22.371 29.645 19.167 25.704 15.879zM27.153 8.574c.986.0 1.39.158 1.49.21.045.75-1.307 2.997-4.623 5.773-.748-.556-1.547-1.109-2.392-1.652-.073-1.079-.188-2.12-.341-3.11C23.557 9.013 25.604 8.574 27.153 8.574zM17.979 18.719c-.662.381-1.33.746-1.999 1.088-.681-.338-1.362-.697-2.039-1.074-.572-.321-1.116-.643-1.639-.965-.025-.588-.04-1.194-.04-1.824.0-.609.014-1.196.038-1.766.511-.321 1.044-.645 1.607-.969.677-.39 1.358-.76 2.04-1.11.668.333 1.335.686 1.997 1.056.572.321 1.117.641 1.641.96.023.589.04 1.197.04 1.829.0.623-.015 1.225-.039 1.808C19.073 18.071 18.539 18.393 17.979 18.719zM19.393 20.326c-.035.328-.072.648-.115.962-.301-.121-.604-.246-.906-.376.223-.125.441-.25.666-.377C19.153 20.467 19.272 20.395 19.393 20.326zM13.592 20.949c-.325.145-.649.283-.971.416-.047-.332-.088-.675-.127-1.025.137.078.274.157.415.234C13.139 20.701 13.366 20.826 13.592 20.949zM10.15 16.37c-.182-.125-.36-.251-.535-.377.175-.127.353-.257.535-.386-.001.111-.002.222-.002.334C10.148 16.084 10.149 16.229 10.15 16.37zM12.494 11.554c.035-.328.073-.649.116-.961.301.121.603.246.907.375-.222.125-.443.25-.666.378C12.729 11.415 12.611 11.485 12.494 11.554zM18.339 10.958c.312-.138.623-.271.933-.398.045.317.084.648.121.981-.139-.078-.273-.157-.416-.234C18.766 11.189 18.553 11.072 18.339 10.958zM21.733 15.51c.189.134.381.266.562.398-.185.134-.371.27-.562.407.002-.123.002-.248.002-.373C21.735 15.797 21.735 15.654 21.733 15.51zM15.942 2.114c.633.0 2.069 2.138 2.95 6.276-.974.391-1.975.835-2.99 1.331C14.909 9.252 13.93 8.83 12.979 8.46 13.856 4.276 15.306 2.114 15.942 2.114zM3.149 8.926c.133-.075.562-.265 1.591-.265 1.55.0 3.593.428 5.847 1.187-.148.989-.263 2.027-.337 3.106-.845.559-1.646 1.127-2.393 1.697C4.508 11.92 3.126 9.685 3.149 8.926zM4.734 23.368c-.989.0-1.393-.188-1.494-.242-.044-.751 1.311-3.002 4.648-5.782.741.549 1.53 1.098 2.364 1.635.078 1.098.194 2.154.35 3.158C8.333 22.926 6.284 23.368 4.734 23.368zm11.208 6.398c-.633.0-2.07-2.137-2.949-6.275.972-.391 1.972-.835 2.987-1.33.994.473 1.974.893 2.926 1.264C18.028 27.605 16.58 29.766 15.942 29.766zM27.145 23.219c-1.549.0-3.592-.428-5.848-1.188.149-.989.264-2.027.337-3.105.847-.56 1.646-1.125 2.394-1.695 3.353 2.732 4.731 4.967 4.709 5.726C28.604 23.032 28.173 23.219 27.145 23.219z"/><circle cx="15.942" cy="15.807" r="2.069"/></g></g><g/><g/><g/><g/><g/><g/><g/><g/><g/><g/><g/><g/><g/><g/><g/></svg>