<svg id="Capa_1" xmlns="http://www.w3.org/2000/svg" xmlns:xlink="http://www.w3.org/1999/xlink" width="31.809" height="31.81" viewBox="0 0 31.809 31.81" style="enable-background:new 0 0 31.809 31.81"><g><g><path d="M11.984 31.81c-1.372.0-2.754-.447-3.906-1.371l-2.409-1.932c-1.305-1.045-2.125-2.535-2.309-4.197-.181-1.641.306-3.314 1.337-4.602l7.967-9.945c.784-.98 1.902-1.593 3.148-1.731 1.256-.133 2.472.222 3.449 1.005l.639.51c.98.787 1.597 1.905 1.73 3.152.14 1.242-.217 2.469-1 3.446l-5.75 7.176c-.6.744-1.689.863-2.433.269-.746-.599-.867-1.688-.27-2.433l5.75-7.176c.205-.257.3-.578.263-.904-.036-.33-.197-.623-.455-.828l-.638-.51c-.531-.428-1.309-.342-1.733.191l-7.968 9.945c-.461.574-.679 1.322-.598 2.055.082.744.447 1.41 1.031 1.877l2.409 1.933c1.202.962 2.967.771 3.932-.437l11.208-13.989c.965-1.205.771-2.969-.436-3.932l-6.619-5.303c-.585-.469-1.316-.687-2.056-.599-.743.081-1.409.447-1.876 1.031l-8.95 11.177c-.6.747-1.689.867-2.433.27-.746-.599-.867-1.688-.27-2.434l8.953-11.175c1.045-1.306 2.535-2.126 4.197-2.31 1.669-.185 3.295.293 4.601 1.339l6.618 5.302c2.693 2.156 3.129 6.103.974 8.797l-11.205 13.99C15.64 31.008 13.82 31.81 11.984 31.81z"/></g></g><g/><g/><g/><g/><g/><g/><g/><g/><g/><g/><g/><g/><g/><g/><g/></svg>