<svg id="Capa_1" xmlns="http://www.w3.org/2000/svg" xmlns:xlink="http://www.w3.org/1999/xlink" width="31.852" height="31.851" viewBox="0 0 31.852 31.851" style="enable-background:new 0 0 31.852 31.851"><g><g><path d="M30.702 7.689h-7.469l-4.449-4.397c0-.015.0-.023.0-.038.0-1.367-1.106-2.473-2.478-2.473-1.365.0-2.475 1.109-2.475 2.476.0.061.003.113.008.172l-4.548 4.26h-8.14C.497 7.689.0 8.238.0 8.893v20.991c0 .654.497 1.187 1.152 1.187h29.549c.656.0 1.15-.53 1.15-1.187V8.894C31.855 8.239 31.359 7.689 30.702 7.689zM15.163 5.442c.343.179.732.286 1.147.286.447.0.867-.127 1.229-.334l2.324 2.295H12.76L15.163 5.442zm14.355 23.29H2.338V10.101h27.179V28.732z"/><path d="M3.722 13.097c0 .654.529 1.168 1.185 1.168h22.04c.656.0 1.188-.514 1.188-1.168.0-.655-.529-1.169-1.188-1.169H4.907C4.251 11.927 3.722 12.442 3.722 13.097z"/><path d="M26.949 16.166H4.907c-.656.0-1.185.514-1.185 1.168s.529 1.168 1.185 1.168h22.04c.656.0 1.188-.514 1.188-1.168S27.604 16.166 26.949 16.166z"/><path d="M26.174 20.695h-9.746c-.653.0-1.186.516-1.186 1.168.0.654.531 1.17 1.186 1.17h9.746c.655.0 1.188-.514 1.188-1.17C27.361 21.21 26.829 20.695 26.174 20.695z"/><path d="M26.174 25.08h-9.746c-.653.0-1.186.514-1.186 1.168s.531 1.17 1.186 1.17h9.746c.655.0 1.188-.516 1.188-1.17S26.829 25.08 26.174 25.08z"/><path d="M11.781 22.533l-1.508-.312C9.99 22.164 9.641 21.912 9.5 21.66l-.763-1.34c-.142-.25-.375-.25-.518.0l-.762 1.34c-.143.252-.491.504-.772.561l-1.508.312c-.281.059-.355.281-.159.494l1.035 1.137c.194.213.328.623.297.908l-.17 1.529c-.033.285.156.424.419.305l1.402-.633c.262-.119.691-.119.955.0l1.402.633c.262.119.451-.02.418-.305l-.169-1.529c-.032-.285.101-.695.297-.908l1.035-1.137C12.134 22.815 12.062 22.591 11.781 22.533z"/></g></g><g/><g/><g/><g/><g/><g/><g/><g/><g/><g/><g/><g/><g/><g/><g/></svg>