<svg id="Capa_1" xmlns="http://www.w3.org/2000/svg" xmlns:xlink="http://www.w3.org/1999/xlink" width="31.512" height="31.512" viewBox="0 0 31.512 31.512" style="enable-background:new 0 0 31.512 31.512"><g><g><path d="M31.378 19.154c-.645-4.261-4.347-10.375-6.431-11.63l-.512-.306h-3.357c-1.774-2.437-3.688-3.637-5.76-3.561-2.797.102-4.783 2.602-5.445 3.561h-2.8L6.347 7.668c-2.116 1.524-5.59 7.369-6.213 11.485-.61 4.029 1.006 5.717 2.027 6.361.705.446 1.54.67 2.42.668.577.0 1.174-.096 1.766-.283.0 1.082.877 1.959 1.958 1.959h14.684c1.081.0 1.958-.877 1.958-1.959v-.072c.662.236 1.335.355 1.981.355.881.0 1.718-.223 2.42-.668C30.368 24.871 31.988 23.184 31.378 19.154zM15.4 5.721c.993-.024 1.991.474 2.991 1.496h-5.846C13.258 6.496 14.258 5.759 15.4 5.721zM3.822 22.9c-.64-.405-.872-1.633-.622-3.282.406-2.691 1.893-5.371 3.147-7.215v10.091C5.429 23.097 4.396 23.264 3.822 22.9zM22.343 24.915c.035.151.0.312-.099.436-.098.122-.243.193-.401.193h-.578c-.145.0-.28-.064-.375-.175-.092-.111-.131-.26-.104-.4l.27-1.483c-.478-.166-.82-.625-.82-1.159.0-.46.219-.86.627-1.07v-9.471H10.435v10.44c0 .285-.226.519-.511.519s-.512-.231-.512-.519V11.258c0-.286.237-.5.523-.5h11.438c.286.0.509.215.509.5v9.914c.479.174.799.622.799 1.146.0.482-.274.906-.684 1.106L22.343 24.915zM27.688 22.9c-.579.367-1.63.192-2.552-.424-.063-.041-.125-.078-.191-.108v-10.28c1.295 1.843 2.937 4.681 3.365 7.53C28.562 21.268 28.329 22.494 27.688 22.9z"/></g></g><g/><g/><g/><g/><g/><g/><g/><g/><g/><g/><g/><g/><g/><g/><g/></svg>