<svg id="Capa_1" xmlns="http://www.w3.org/2000/svg" xmlns:xlink="http://www.w3.org/1999/xlink" width="31.816" height="31.816" viewBox="0 0 31.816 31.816" style="enable-background:new 0 0 31.816 31.816"><g><path d="M30.922 9.343c.562-.525.885-1.259.895-2.028.008-.77-.301-1.51-.852-2.048L27.143 1.53c-.535-.523-1.256-.812-2.006-.803-.748.009-1.461.314-1.982.85l-7.197 7.377L8.862 1.562C8.303.979 7.537.643 6.73.627 5.923.61 5.142.916 4.561 1.475l-3.695 3.55C.31 5.558-.002 6.294.0 7.065c.002.77.318 1.505.876 2.036l7.746 7.368-6.858 7.028c-1.046 1.071-1.071 2.774-.058 3.879l2.67 2.901c.509.556 1.218.881 1.97.909.751.028 1.483-.244 2.032-.759l7.522-7.035 7.339 6.98c.545.519 1.272.797 2.024.772.752-.021 1.463-.344 1.979-.895l2.691-2.877c1.022-1.097 1.014-2.8-.023-3.88l-6.68-6.964L30.922 9.343z"/></g><g/><g/><g/><g/><g/><g/><g/><g/><g/><g/><g/><g/><g/><g/><g/></svg>