<svg id="Capa_1" xmlns="http://www.w3.org/2000/svg" xmlns:xlink="http://www.w3.org/1999/xlink" width="49" height="49" viewBox="0 0 49 49" style="enable-background:new 0 0 49 49"><g><path d="M12.767 7.643v40.31c-2.445-.223-4.365-2.253-4.365-4.755V12.399C8.401 9.896 10.323 7.865 12.767 7.643zM13.598 47.999h.435v-40.4h-.435v40.4zM32.498 7.599h1.066v40.4h-.768V49h-2.198v-1.001H18.4V49h-2.2v-1.001h-.768v-40.4H16.5V1.2c0-.662.536-1.2 1.199-1.2h13.599c.662.0 1.199.538 1.199 1.2V7.599zM28.55 18.236c1.041.0 1.884-.843 1.884-1.884s-.843-1.884-1.884-1.884-1.885.843-1.885 1.884S27.509 18.236 28.55 18.236zM25.775 16.469l-3.769 1.483 2.104 5.347 3.769-1.483L25.775 16.469zM18.901 7.599h11.194v-5.2H18.901v5.2zM18.452 21.342l2.3.512.513-2.298-2.3-.513L18.452 21.342zM19.623 26.193c0 1.533.863 2.777 1.929 2.777 1.067.0 1.93-1.244 1.93-2.777.0-1.535-.862-2.779-1.93-2.779C20.486 23.414 19.623 24.659 19.623 26.193zM25.699 31.092H20.33v1.789h5.369V31.092zM30.548 25.676h-5.369v1.789h5.369V25.676zM34.968 47.999h.435v-40.4h-.435v40.4zM36.233 7.643v40.31c2.444-.223 4.365-2.253 4.365-4.755V12.399C40.599 9.896 38.678 7.865 36.233 7.643z"/></g><g/><g/><g/><g/><g/><g/><g/><g/><g/><g/><g/><g/><g/><g/><g/></svg>