<svg id="Capa_1" xmlns="http://www.w3.org/2000/svg" xmlns:xlink="http://www.w3.org/1999/xlink" width="31.936" height="31.936" viewBox="0 0 31.936 31.936" style="enable-background:new 0 0 31.936 31.936"><g><g><g><path d="M28.199 7.863l-6.606-5.829-8.948 10.142 6.606 5.828L28.199 7.863zM16.11 11.228c-.227-.201-.249-.548-.048-.776l4.754-5.389c.096-.109.23-.176.379-.185.145-.01.289.039.396.136l.354.312c.228.201.25.548.049.776l-4.756 5.388c-.099.109-.231.176-.377.186-.146.009-.289-.04-.398-.138L16.11 11.228z"/><path d="M.193 30.813c-.087.327.018.677.271.9.254.224.613.283.927.156l6.224-2.527-5.688-5.019L.193 30.813zM5.314 28.95l-2.837 1.153c-.174.071-.372.037-.514-.087-.141-.125-.199-.317-.15-.499l.79-2.958L5.314 28.95z"/><path d="M11.833 13.099l-8.947 10.14 5.504 4.857 8.947-10.142-5.504-4.855zM6.957 23.351c-.201.228-.548.25-.776.05l-.354-.312c-.109-.099-.176-.232-.185-.38-.009-.146.04-.287.136-.396l5.572-6.315c.201-.227.548-.25.775-.049l.355.312c.109.097.176.231.185.378.009.146-.04.289-.137.398L6.957 23.351z"/><path d="M30.453 6.984 18.455 20.581l-.163-.146c-.369-.323-.931-.29-1.255.079l-1.982 2.245c-.397.45-.599 1.039-.562 1.64.038.598.312 1.157.762 1.555l.474.418c.182.16.419.242.661.229.242-.015.468-.126.628-.307l14.325-16.235c.627-.711.561-1.795-.15-2.423L30.453 6.984z"/><path d="M27.764.923c-1.526-1.349-3.856-1.201-5.206.325l5.531 4.882C29.438 4.602 29.292 2.271 27.764.923z"/></g></g></g><g/><g/><g/><g/><g/><g/><g/><g/><g/><g/><g/><g/><g/><g/><g/></svg>