<svg id="Capa_1" xmlns="http://www.w3.org/2000/svg" xmlns:xlink="http://www.w3.org/1999/xlink" width="124.334" height="124.334" viewBox="0 0 124.334 124.334" style="enable-background:new 0 0 124.334 124.334"><g><g><path d="M114.412 55.837H9.922v49.525H.915v14.627H123.42v-14.627h-9.007L114.412 55.837v0zM37.265 105.362H21.906V67.22c0-4.234 3.445-7.68 7.68-7.68 4.234.0 7.679 3.445 7.679 7.68V105.362zm32.581.0H54.488V67.22c0-4.234 3.445-7.68 7.679-7.68 4.233.0 7.679 3.445 7.679 7.68V105.362zm32.226.0H86.713V67.22c0-4.234 3.445-7.68 7.68-7.68 4.233.0 7.678 3.445 7.678 7.68v38.143H102.072z"/><path d="M120.402 45.294v-4.213L62.076 4.345 3.932 40.961v4.333H0v6.108h124.334v-6.108H120.402zM62.167 20.274c5.25.0 9.507 4.256 9.507 9.507.0 5.251-4.257 9.507-9.507 9.507s-9.507-4.256-9.507-9.507C52.66 24.53 56.917 20.274 62.167 20.274z"/></g></g><g/><g/><g/><g/><g/><g/><g/><g/><g/><g/><g/><g/><g/><g/><g/></svg>