<svg id="Capa_1" xmlns="http://www.w3.org/2000/svg" xmlns:xlink="http://www.w3.org/1999/xlink" width="496.399" height="496.4" viewBox="0 0 496.399 496.4" style="enable-background:new 0 0 496.399 496.4"><g><path d="M496.399 445.4v6.8c0 3.754-3.046 6.8-6.8 6.8H20.4C9.132 459 0 449.868.0 438.6V44.2c0-3.753 3.046-6.8 6.8-6.8h6.8c3.754.0 6.8 3.046 6.8 6.8v387.6c0 3.754 3.046 6.801 6.8 6.801h462.4C493.354 438.6 496.399 441.646 496.399 445.4zM68 418.2h81.6c3.754.0 6.8-3.047 6.8-6.8v-272c0-3.754-3.046-6.8-6.8-6.8H68c-3.754.0-6.8 3.046-6.8 6.8v272C61.2 415.153 64.246 418.2 68 418.2zm129.2.0h81.6c3.754.0 6.8-3.047 6.8-6.8V85c0-3.753-3.046-6.8-6.8-6.8h-81.6c-3.753.0-6.8 3.046-6.8 6.8v326.4C190.4 415.153 193.446 418.2 197.2 418.2zm129.199.0H408c3.753.0 6.8-3.047 6.8-6.8v-170c0-3.754-3.047-6.8-6.8-6.8h-81.601c-3.753.0-6.8 3.046-6.8 6.8v170C319.6 415.153 322.646 418.2 326.399 418.2z"/></g><g/><g/><g/><g/><g/><g/><g/><g/><g/><g/><g/><g/><g/><g/><g/></svg>