<svg id="Capa_1" xmlns="http://www.w3.org/2000/svg" xmlns:xlink="http://www.w3.org/1999/xlink" width="31.118" height="31.119" viewBox="0 0 31.118 31.119" style="enable-background:new 0 0 31.118 31.119"><g><g><path d="M11.939 8.819c-.42-.06-.834-.104-1.239-.136-.914 1.908-1.53 3.981-1.794 6.168 2.799-.01 7.457 1.146 8.943 8.518.731 3.649 2.479 5.508 5.408 5.713 2.418-1.377 4.426-3.386 5.809-5.797C26.671 15.833 20.206 10.006 11.939 8.819z"/><path d="M7.483 16.269c-2.133.324-3.621 1.168-4.422 2.504-1.134 1.89-.675 4.371-.339 5.58 2.164 3.154 5.462 5.472 9.307 6.363-2.882-3.611-4.57-8.258-4.57-13.457C7.458 16.927 7.469 16.599 7.483 16.269z"/><path d="M9.932 7.334c.589-1.104 1.269-2.152 2.038-3.134-1.835-.64-2.397-1.984-2.453-2.979C5.762 2.808 2.754 5.825 1.188 9.595 3.576 8.108 6.31 7.323 9.321 7.323 9.522 7.325 9.728 7.33 9.932 7.334z"/><path d="M7.586 14.941c.244-2.226.833-4.35 1.712-6.316-3.495.007-6.413 1.1-8.791 2.99C.175 12.874.0 14.196.0 15.562c0 1.98.37 3.879 1.045 5.625.06-1.024.309-2.098.894-3.08C2.989 16.355 4.891 15.291 7.586 14.941z"/><path d="M12.888 3.112c1.029-1.149 2.184-2.187 3.439-3.087-.256-.013-.513-.02-.767-.02-2.982.0-4.725.814-4.725.814C10.804 1.003 10.618 2.593 12.888 3.112z"/><path d="M28.184 6.471l-.027.019c-2.914-3.642-7.619-1.747-7.668-1.728-1.279.53-3.613.456-7.125-.224-.751.9-1.424 1.869-2.008 2.898.254.026.512.056.772.093 5.934.851 11.178 3.966 14.771 8.761 1.25 1.67 2.248 3.474 2.979 5.364.8-1.87 1.24-3.932 1.24-6.092C31.115 12.167 30.029 9.027 28.184 6.471z"/><path d="M19.99 3.56c1.086-.452 2.943-.836 4.865-.47-1.889-1.416-4.113-2.403-6.529-2.839-1.447.883-2.771 1.944-3.946 3.154C17.811 4.004 19.324 3.835 19.99 3.56z"/><path d="M16.574 23.626c-1.293-6.422-5.12-7.531-7.781-7.479-.021.367-.031.735-.031 1.106.0 5.353 1.922 10.207 5.259 13.783.506.047 1.02.075 1.541.075 2.023.0 3.961-.387 5.739-1.092C18.85 29.208 17.266 27.07 16.574 23.626z"/></g></g><g/><g/><g/><g/><g/><g/><g/><g/><g/><g/><g/><g/><g/><g/><g/></svg>