<svg id="Capa_1" xmlns="http://www.w3.org/2000/svg" xmlns:xlink="http://www.w3.org/1999/xlink" width="31.883" height="31.883" viewBox="0 0 31.883 31.883" style="enable-background:new 0 0 31.883 31.883"><g><g><g><path d="M30.907 1.316c-1.303-1.302-3.412-1.302-4.713-.002-.356.356-.834.992-1.307 1.749C20.076 1.19 13.308 4.948 7 7.577c-6.146 2.561-7.516 5.546-6.844 8.788.423 2.043 1.648 4.13 2.924 5.863.701-.327 1.477-.475 2.247-.438l.495-.494c-2.683-3.293-3.966-6.322-2.934-7.355 1.286-1.282 5.678 1.025 9.812 5.16 4.134 4.131 6.442 8.525 5.157 9.81-1.069 1.07-4.292-.349-7.724-3.235l-.423.422c.045.779-.107 1.566-.455 2.283 1.832 1.316 4.117 2.614 6.332 3.025 3.116.575 5.868-.479 8.646-6.594 2.565-5.646 6.138-12.448 4.688-17.335.859-.52 1.591-1.058 1.98-1.449C32.21 4.729 32.21 2.618 30.907 1.316zM20.1 7.773c-.039.009-3.867.783-8.298 3.526-.227.141-.479.207-.727.207-.463.0-.915-.233-1.179-.654-.4-.652-.2-1.506.45-1.909 4.889-3.022 9.051-3.852 9.225-3.885.757-.151 1.476.342 1.619 1.092C21.336 6.898 20.848 7.627 20.1 7.773z"/><path d="M12.576 21.276l-2.387-2.39-3.253 3.256L6.547 22.53c-1.341.026-2.908.714-3.735 1.539-1.264 1.267-1.264 3.317.0 4.582 1.267 1.269 3.318 1.269 4.582.0.828-.826 1.515-2.396 1.542-3.735l.403-.402L12.576 21.276z"/></g></g></g><g/><g/><g/><g/><g/><g/><g/><g/><g/><g/><g/><g/><g/><g/><g/></svg>