<svg id="Capa_1" xmlns="http://www.w3.org/2000/svg" xmlns:xlink="http://www.w3.org/1999/xlink" width="394.4" height="394.401" viewBox="0 0 394.4 394.401" style="enable-background:new 0 0 394.4 394.401"><g><path d="M197.2.0C88.292.0.0 88.292.0 197.201.0 306.109 88.292 394.4 197.2 394.4c108.909.0 197.2-88.291 197.2-197.199C394.4 88.292 306.109.0 197.2.0zm0 362.005c-91.018.0-164.805-73.787-164.805-164.805.0-91.019 73.787-164.805 164.805-164.805 91.019.0 164.806 73.787 164.806 164.805C362.006 288.218 288.219 362.005 197.2 362.005zM271.633 192.073c6.316-8.915 10.084-20.074 10.084-32.198.0-29.172-21.76-52.822-48.592-52.822-2.148.0-4.76.0-7.746.0V66.205c0-2.326-1.904-4.223-4.223-4.223h-14.096c-2.326.0-4.223 1.904-4.223 4.223v40.848h-22.536V66.205c0-2.326-1.904-4.223-4.223-4.223h-14.083c-2.326.0-4.223 1.904-4.223 4.223v40.848h-46.485c-2.333.0-4.223 1.89-4.223 4.223v14.226c0 2.176 1.625 4.06 3.794 4.257 15.872 1.455 24.378 12.104 24.378 25.187v87.333c0 11.771-6.073 21.113-19.346 22.392-1.884.184-3.448 1.523-3.801 3.387l-2.693 14.361c-.483 2.563 1.489 4.938 4.101 4.938h44.261v40.848c0 2.325 1.904 4.223 4.223 4.223h14.083c2.325.0 4.223-1.904 4.223-4.223v-40.848h22.536v40.848c0 2.325 1.904 4.223 4.223 4.223h14.082c2.326.0 4.223-1.904 4.223-4.223v-40.848c7.984.0 14.613.0 19.014.0 26.84.0 48.592-23.331 48.592-52.115C292.984 217.274 284.52 201.444 271.633 192.073zM180.295 140.855c0 0 21.671.0 34.509.0 12.84.0 23.242 10.404 23.242 23.243.0 12.838-10.402 23.242-23.242 23.242-12.838.0-34.509.0-34.509.0V140.855zM226.072 254.953c-12.838.0-45.777.0-45.777.0v-46.484c0 0 32.939.0 45.777.0 12.84.0 23.242 10.403 23.242 23.242C249.314 244.548 238.912 254.953 226.072 254.953z"/></g><g/><g/><g/><g/><g/><g/><g/><g/><g/><g/><g/><g/><g/><g/><g/></svg>