<svg xmlns="http://www.w3.org/2000/svg" viewBox="0 0 100 97.3"><path d="M87.5 38.6c1.4 0 2.5-1.1 2.5-2.5v-25c0-1.4-1.1-2.5-2.5-2.5h-25c-1.4 0-2.5 1.1-2.5 2.5v10H40v-10c0-1.4-1.1-2.5-2.5-2.5h-25c-1.4 0-2.5 1.1-2.5 2.5v25c0 1.4 1.1 2.5 2.5 2.5h10v20h-10c-1.4 0-2.5 1.1-2.5 2.5v25c0 1.4 1.1 2.5 2.5 2.5h25c1.4 0 2.5-1.1 2.5-2.5v-10h20v10c0 1.4 1.1 2.5 2.5 2.5h25c1.4 0 2.5-1.1 2.5-2.5v-25c0-1.4-1.1-2.5-2.5-2.5h-10v-20h10zM65 13.6h20v20H65v-7.5h10c1.4 0 2.5-1.1 2.5-2.5s-1.1-2.5-2.5-2.5H65v-7.5zm-50 20v-20h20v20h-7.5v-10c0-1.4-1.1-2.5-2.5-2.5s-2.5 1.1-2.5 2.5v10H15zm20 50H15v-20h20v7.5H25c-1.4 0-2.5 1.1-2.5 2.5s1.1 2.5 2.5 2.5h10v7.5zm50-20v20H65v-20h7.5v10c0 1.4 1.1 2.5 2.5 2.5s2.5-1.1 2.5-2.5v-10H85zm-12.5-5h-10c-1.4 0-2.5 1.1-2.5 2.5v10H40v-10c0-1.4-1.1-2.5-2.5-2.5h-10v-20h10c1.4 0 2.5-1.1 2.5-2.5v-10h20v10c0 1.4 1.1 2.5 2.5 2.5h10v20z"/></svg>