<svg id="Capa_1" xmlns="http://www.w3.org/2000/svg" xmlns:xlink="http://www.w3.org/1999/xlink" width="49" height="49" viewBox="0 0 49 49" style="enable-background:new 0 0 49 49"><g><path d="M6.15 15.361l-.539-1.433h6.642l.539 1.433H6.15zM43.957 33.592l1.15 1.48H2.291l1.186-1.549L0 26.239h2.978v-2.864l.168-.249h.751v-2.808l.143-.215h3.895l-.569-1.518h6.641l.569 1.518h21.391l2.896 3.022h1.169l2.983 3.113H49L43.957 33.592zM6.063 28.145H3.891v1.793h2.172V28.145zM8.929 28.145h-2.17v1.793h2.17V28.145zM11.797 28.145H9.626v1.793h2.171V28.145zM14.664 28.145h-2.172v1.793h2.172V28.145zM17.53 28.145h-2.17v1.793h2.17V28.145zM20.397 28.145h-2.17v1.793h2.17V28.145zM23.264 28.145h-2.17v1.793h2.17V28.145zM26.13 28.145h-2.17v1.793h2.17V28.145zM28.998 28.145h-2.171v1.793h2.171V28.145zM31.863 28.145h-2.168v1.793h2.168V28.145zM34.73 28.145h-2.17v1.793h2.17V28.145zM37.6 28.145h-2.172v1.793H37.6V28.145zM40.466 28.145h-2.172v1.793h2.172V28.145zM43.332 28.145h-2.17v1.793h2.17V28.145zM7.049 17.75h6.64l-.582-1.553H6.466L7.049 17.75z"/></g><g/><g/><g/><g/><g/><g/><g/><g/><g/><g/><g/><g/><g/><g/><g/></svg>