<svg id="Capa_1" xmlns="http://www.w3.org/2000/svg" xmlns:xlink="http://www.w3.org/1999/xlink" width="31.945" height="31.945" viewBox="0 0 31.945 31.945" style="enable-background:new 0 0 31.945 31.945"><g><g><path d="M8.155.0C6.369.0 4.921 1.448 4.921 3.234v23.214c0 1.786 1.448 3.233 3.234 3.233h.614v1.711c0 .196.106.381.278.479C9.218 31.97 9.429 31.97 9.6 31.868l2.604-1.521 2.604 1.521c.171.102.382.102.554.002.172-.101.278-.282.278-.479V29.68h8.151c1.786.0 3.233-1.449 3.233-3.234V3.234C27.022 1.448 25.576.0 23.79.0H8.155zm2.458 6.604c0-.525.425-.95.95-.95h8.782c.524.0.949.425.949.95v2.105c0 .525-.425.95-.949.95h-8.782c-.525.0-.95-.425-.95-.95V6.604zM24.708 26.303c0 .608-.492 1.103-1.104 1.103h-7.965v-.819c0-.605-.493-1.104-1.102-1.104H9.87c-.608.0-1.102.492-1.102 1.104v.819H8.299c-.608.0-1.102-.491-1.102-1.103V25.13c0-.608.493-1.103 1.102-1.103h15.305c.609.0 1.104.494 1.104 1.103V26.303z"/></g></g><g/><g/><g/><g/><g/><g/><g/><g/><g/><g/><g/><g/><g/><g/><g/></svg>