<svg id="Capa_1" xmlns="http://www.w3.org/2000/svg" xmlns:xlink="http://www.w3.org/1999/xlink" width="97.483" height="97.484" viewBox="0 0 97.483 97.484" style="enable-background:new 0 0 97.483 97.484"><g><g><circle cx="17.79" cy="32.819" r="8.653"/><path d="M15.886 52.601c.004-.021.013-.039.017-.062.325-1.827-.893-3.265-2.719-3.589-3.246-.578-4.817-1.29-5.747-1.746.272-.549.789-1.302 1.14-1.784.136-.172.267-.347.415-.511v2.178c1.008.354 2.456.75 4.53 1.12 1.044.186 1.954.768 2.561 1.637.545.781.785 1.711.695 2.646.3-.023.6-.046.905-.046h.083c.512.004 1.015.054 1.511.125-.112-.964.124-1.923.684-2.726.607-.871 1.517-1.451 2.561-1.638 1.848-.328 3.197-.68 4.183-1.002V44.62c.657.705 1.225 1.474 1.651 2.334.001.262-1.949 1.417-5.195 1.995-1.826.324-3.044 1.916-2.719 3.743.007.039.017.072.023.111 1.596.405 3.084 1.148 4.366 2.211 8.715-1.783 10.68-4.821 10.751-7.108.009-.307-.023-.797-.096-1.095-.649-2.618-1.892-4.673-3.401-6.358.0-.002.0-.005.001-.007-.059-.065-.122-.122-.18-.186-.199-.215-.401-.427-.608-.63-.101-.099-.204-.196-.306-.292-.152-.143-.306-.284-.461-.422-1.146-1.021-2.361-1.896-3.547-2.674-1.437 3.679-5.011 6.296-9.192 6.296-4.114.0-7.646-2.53-9.126-6.115-3.514 2.24-7.254 5.264-8.568 10.571-.073.297-.106.604-.097.911.071 2.271 2.012 5.288 10.594 7.077C12.086 53.759 13.903 52.925 15.886 52.601z"/><path d="M26.448 62.392c.038-4.887-3.895-8.877-8.781-8.914-4.885-.034-8.877 3.896-8.911 8.783-.037 4.887 3.896 8.877 8.777 8.914C22.423 71.209 26.412 67.277 26.448 62.392z"/><path d="M92.528 60.038 65.138 59.97c.358.519.633 1.107.755 1.76.48 2.511-1.171 4.945-3.677 5.426-.393.074-9.599 1.822-18.589 1.822-2.904.0-5.492-.187-7.734-.545.005-.047.015-.092.02-.14.01-.282.041-.56.075-.837 2.417.406 5.088.564 7.775.564 8.871.0 17.892-1.706 18.398-1.803 1.977-.379 3.271-2.289 2.896-4.263-.378-1.978-2.285-3.271-4.26-2.894-.151.027-13.997 2.639-23.059 1.296.069-.328.129-.658.173-.993 1.633.23 3.531.348 5.672.348 7.217.0 14.938-1.312 16.58-1.609-1.169-1.191-2.729-1.99-4.653-2.004L34.8 55.945c-3.84-.029-6.442 3.326-7.236 6.456.0.0-.304.987-.291 2.036.016 1.007.242 2.13.242 2.13l.004.028c.75 3.158 3.296 6.541 7.156 6.568l20.71.154c2.559.018 4.572-1.419 5.843-3.424l31.276.076c.004.0.004.0.015.0 2.733.0 4.955-2.216 4.964-4.953C97.489 62.274 95.271 60.044 92.528 60.038z"/><path d="M12.972 71.937c0 0-6.388-5.394-5.7-8.848.0.0-5.904 8.196 1.221 8.848C12.977 72.351 12.972 71.937 12.972 71.937z"/><path d="M22.691 71.937c0 0-.481.509 4.479.0.618-.062 1.133-.172 1.568-.332-.815-1.25-1.51-2.611-1.98-4.016C25.06 69.935 22.691 71.937 22.691 71.937z"/></g></g><g/><g/><g/><g/><g/><g/><g/><g/><g/><g/><g/><g/><g/><g/><g/></svg>