<svg id="Capa_1" xmlns="http://www.w3.org/2000/svg" xmlns:xlink="http://www.w3.org/1999/xlink" width="31.986" height="31.986" viewBox="0 0 31.986 31.986" style="enable-background:new 0 0 31.986 31.986"><g><g><path d="M0 18.433v8.05c0 1.354 1.1 2.453 2.455 2.453h27.077c1.356.0 2.454-1.099 2.454-2.453v-8.125l-15.989 2.252L0 18.433z"/><path d="M22.749 7.583V7.565 5.507c0-1.357-1.101-2.456-2.455-2.456h-9.123c-1.356.0-2.455 1.099-2.455 2.456v2.058.018H2.455C1.1 7.583.0 8.682.0 10.039v6.002l15.99 2.177 15.996-2.255v-5.924c0-1.356-1.1-2.456-2.454-2.456H22.749zM19.611 12.289v2.963h-7.147v-2.963V11.68h7.147v.609zM20.395 7.565v.018h-9.327V7.565 6.687c0-.708.573-1.281 1.281-1.281h6.764c.709.0 1.281.574 1.281 1.281V7.565H20.395z"/></g></g><g/><g/><g/><g/><g/><g/><g/><g/><g/><g/><g/><g/><g/><g/><g/></svg>