<svg id="Capa_1" xmlns="http://www.w3.org/2000/svg" xmlns:xlink="http://www.w3.org/1999/xlink" width="31.861" height="31.861" viewBox="0 0 31.861 31.861" style="enable-background:new 0 0 31.861 31.861"><g><g><path d="M10.423 26.927c-.009.014-.018.029-.024.043C10.405 26.957 10.415 26.94 10.423 26.927z"/><path d="M5.896 22.88c.011-.002.021-.004.03-.006C5.917 22.876 5.905 22.878 5.896 22.88z"/><path d="M10.282 27.167c.003-.002.003-.002.005-.004C10.285 27.166 10.285 27.166 10.282 27.167z"/><g><path d="M30.156.571c-1.004-.906-1.666-.462-1.666-.462L12.323 15.732l4.598 4.143L30.788 2.181C30.788 2.181 31.163 1.478 30.156.571z"/><path d="M6.879 21.771l4.597 4.145 4.629-5.153-4.625-4.117L6.879 21.771zM10.019 22.035c-.093.104-.226.17-.366.178-.142.011-.28-.039-.387-.131l-.271-.24c-.106-.094-.171-.227-.18-.365-.009-.143.039-.28.132-.387l2.11-2.393c.194-.221.531-.24.752-.047l.271.239c.106.094.171.226.18.367.009.142-.039.279-.133.386L10.019 22.035z"/><path d="M5.925 22.875c-.01.002-.02.004-.03.006-3.481.822-6.905 4.56-3.46 8.746.158.192.415.275.657.215.242-.062.426-.26.471-.506.101-.551.322-1.153.786-1.594 1.058-1 3.993.616 5.934-2.574.001-.002.217-.383.254-.459l-4.318-3.896C6.121 22.832 6.023 22.854 5.925 22.875zM6.026 28.219c-.865.032-1.762.067-2.444.713-.133.126-.252.259-.358.397-.12.156-.318.233-.514.199-.195-.031-.355-.173-.417-.359-.193-.603-.241-1.24-.054-1.901.109-.386.287-.746.514-1.076.879.957 1.644 1.503 3.062 1.375.886-.08 1.7-.043 2.455.155C7.573 28.16 6.814 28.188 6.026 28.219z"/></g></g></g><g/><g/><g/><g/><g/><g/><g/><g/><g/><g/><g/><g/><g/><g/><g/></svg>