<svg id="Capa_1" xmlns="http://www.w3.org/2000/svg" xmlns:xlink="http://www.w3.org/1999/xlink" width="31.93" height="31.93" viewBox="0 0 31.93 31.93" style="enable-background:new 0 0 31.93 31.93"
	><g><g><path d="M29.797 6.968c-.361.0-.654.293-.654.655v3.916c0 .361.293.655.654.655h1.477c.361.0.656-.293.656-.655V7.551c0-.322-.262-.584-.584-.584V6.921l-.021-1.014c.006-.048.025-1.192-.782-2.115-.575-.654-1.05-1.025-2.675-1.096.0-.463-.375-.838-.84-.838H5.141c-.467.0-.846.379-.846.846.0.0.02.0.016.001C2.795 2.793 2.389 3.156 1.834 3.789 1.031 4.704.928 5.831.928 5.831v1.136h-.05C.393 6.968.0 7.361.0 7.846v3.469c0 .485.393.878.878.878h.914c.485.0.878-.393.878-.878V7.622c0-.361-.293-.655-.655-.655L2.05 5.795C2.049 5.789 2.111 5.057 2.601 4.498 2.929 4.125 3.558 3.882 4.34 3.79L4.296 13.933H3.94c-.573.0-1.038.464-1.038 1.037v10.931c0 .572.465 1.037 1.038 1.037h1.052v-.062 2.158c0 .573.465 1.037 1.038 1.037h2.22c.573.0 1.038-.464 1.038-1.037v-2.158.062h13.353v-.062 2.158c0 .573.465 1.037 1.039 1.037h2.104c.573.0 1.038-.464 1.038-1.037v-2.158.062h1.4c.57.0 1.035-.465 1.035-1.037V14.97c0-.573-.465-1.037-1.035-1.037h-.356V3.769c.813.082 1.442.319 1.788.705.498.557.535 1.285.535 1.358v1.136H29.797zM8.299 13.933c-.608.0-1.101-.493-1.101-1.101V8.065c0-.607.491-1.099 1.097-1.101l15.678-.05c.293-.001.574.115.781.32.207.207.324.488.324.78v4.817c0 .608-.493 1.101-1.102 1.101L8.299 13.933v0zM23.105 20.437H9.288v-1.51h13.817V20.437v0zm0-2.439H9.288v-1.51h13.817V17.998v0zM4.992 22.898c0-.462.374-.837.836-.837h1.231c.461.0.836.375.836.837v.069c0 .463-.374.836-.836.836H5.828c-.461.0-.836-.373-.836-.836V22.898zM7.895 19.948c0 .462-.374.836-.836.836h-1.23c-.461.0-.836-.374-.836-.836v-2.624c0-.462.374-.836.836-.836h1.23c.461.0.836.374.836.836V19.948zM8.708 3.965c0-.329.267-.596.597-.596h13.552c.33.0.598.267.598.596v.897c0 .329-.268.596-.598.596H9.304c-.33.0-.597-.267-.597-.596L8.708 3.965v0zM9.288 22.873v-1.507h13.817v1.507H9.288zM27.285 22.968c0 .463-.374.836-.836.836h-1.232c-.461.0-.836-.373-.836-.836V22.9c0-.464.374-.839.836-.839h1.232c.461.0.836.375.836.839V22.968zM27.285 19.948c0 .462-.374.836-.836.836h-1.232c-.461.0-.836-.374-.836-.836v-2.624c0-.462.374-.836.836-.836h1.232c.461.0.836.374.836.836V19.948z"/></g></g><g/><g/><g/><g/><g/><g/><g/><g/><g/><g/><g/><g/><g/><g/><g/></svg>