<svg id="Capa_1" xmlns="http://www.w3.org/2000/svg" xmlns:xlink="http://www.w3.org/1999/xlink" width="469.182" height="469.182" viewBox="0 0 469.182 469.182" style="enable-background:new 0 0 469.182 469.182"><g><g><path d="M286.715 309.938l-50.888-23.429-24.446-20.616L172.1 304.965h-.028l16.951 113.322c.059.391-.04.789-.272 1.105l-17.725 24.26c-.282.387-.732.615-1.211.615s-.929-.229-1.211-.615l-17.724-24.26c-.232-.316-.331-.715-.272-1.105l16.95-113.324h-.026l-39.28-39.069-24.446 20.616-50.887 23.429c-7.529 3.089-14.928 7.776-18.691 15.946.0.0-55.311 131.686-25.311 131.686h321.8c30 0-25.311-131.686-25.311-131.686C302.129 318.047 294.244 313.027 286.715 309.938z"/><path d="M439.427 33.521c-18.703-14.128-43.479-21.909-69.769-21.909s-51.066 7.781-69.77 21.909c-19.188 14.495-29.756 33.918-29.756 54.692.0 17.756 7.953 34.899 22.458 48.54v52.806c0 2.124 1.16 4.078 3.026 5.095.868.473 1.821.708 2.776.708 1.097.0 2.189-.31 3.146-.926l48.289-31.137c6.495 1.007 13.153 1.516 19.829 1.516 26.288.0 51.064-7.78 69.769-21.909 19.188-14.495 29.756-33.918 29.756-54.692S458.616 48.015 439.427 33.521zM408.341 84.544c0 3.519-.471 6.928-1.354 10.167l3.748 2.165c1.561.898 2.093 2.894 1.192 4.453l-6.599 11.431c-.9 1.56-2.896 2.093-4.455 1.193l-3.753-2.169c-4.786 4.825-10.833 8.394-17.605 10.173v4.328c0 1.799-1.459 3.259-3.26 3.259h-13.197c-1.802.0-3.261-1.46-3.261-3.259v-4.328c-6.772-1.779-12.818-5.348-17.604-10.173l-3.754 2.169c-1.559.899-3.554.366-4.454-1.193l-6.599-11.431c-.899-1.56-.367-3.555 1.192-4.453l3.748-2.165c-.883-3.239-1.354-6.648-1.354-10.167s.471-6.928 1.354-10.167l-3.748-2.165c-1.561-.898-2.094-2.893-1.192-4.453l6.599-11.43c.9-1.562 2.896-2.094 4.454-1.194l3.754 2.169c4.786-4.824 10.832-8.393 17.604-10.173v-4.327c0-1.799 1.459-3.26 3.261-3.26h13.197c1.801.0 3.26 1.461 3.26 3.26v4.327c6.772 1.78 12.819 5.349 17.605 10.173l3.753-2.169c1.56-.899 3.555-.366 4.455 1.194l6.599 11.43c.899 1.561.367 3.555-1.192 4.453l-3.748 2.165C407.871 77.616 408.341 81.026 408.341 84.544z"/><path d="M369.659 63.354c-11.704.0-21.192 9.487-21.192 21.191s9.488 21.192 21.192 21.192c11.703.0 21.19-9.488 21.19-21.192S381.363 63.354 369.659 63.354zm0 30.97c-5.402.0-9.78-4.378-9.78-9.78.0-5.402 4.378-9.78 9.78-9.78 5.401.0 9.778 4.378 9.778 9.78C379.438 89.946 375.061 94.324 369.659 94.324z"/><path d="M169.813 265.15c52.043.0 90.88-48.489 91.765-129.805.565-56.427-26.309-90.195-91.765-90.195-65.458.0-92.336 33.769-91.763 90.195C78.933 216.66 117.77 265.15 169.813 265.15z"/></g></g><g/><g/><g/><g/><g/><g/><g/><g/><g/><g/><g/><g/><g/><g/><g/></svg>