<svg id="Capa_1" xmlns="http://www.w3.org/2000/svg" xmlns:xlink="http://www.w3.org/1999/xlink" width="452.193" height="452.193" viewBox="0 0 452.193 452.193" style="enable-background:new 0 0 452.193 452.193"><g><path d="M226.089 176.8c48.824.0 88.4-39.576 88.4-88.4S274.913.0 226.089.0c-48.824.0-88.4 39.576-88.4 88.4s39.583 88.4 88.4 88.4zM195.578 109.562c1.013-2.033 2.761-3.55 4.917-4.271.877-.299 1.782-.442 2.7-.442 3.665.0 6.902 2.339 8.071 5.807 1.299 3.876 6.106 8.405 15.389 8.405 7.365.0 11.724-4.835 12.212-9.615.477-4.604-2.938-10.343-13.96-12.641-22.12-4.638-28.58-19.625-27.39-31.049 1.17-11.295 9.323-20.522 20.631-23.698v-6.352c0-4.685 3.815-8.507 8.507-8.507 4.693.0 8.507 3.822 8.507 8.507v6.052c13.09 2.727 20.447 11.479 23.018 19.135 1.488 4.454-.926 9.282-5.373 10.771-.877.299-1.787.442-2.705.442-3.658.0-6.896-2.332-8.064-5.807-1.299-3.883-6.107-8.412-15.389-8.412-7.364.0-11.723 4.835-12.213 9.615-.476 4.597 2.944 10.343 13.961 12.641 22.113 4.638 28.58 19.625 27.396 31.049-1.17 11.295-9.322 20.522-20.631 23.698v6.351c0 4.685-3.814 8.507-8.507 8.507-4.692.0-8.507-3.822-8.507-8.507v-6.052c-13.097-2.727-20.455-11.485-23.018-19.149C194.401 113.907 194.564 111.595 195.578 109.562zM407.663 260.895c-4.924-21.984-22.883-38.657-45.172-41.935L283.89 207.4l-38.93 89.311-5.025-44.023c-.137-1.395-1.307-2.455-2.707-2.455h-22.243c-1.407.0-2.584 1.074-2.706 2.482l-4.563 45.111-39.419-90.433-78.602 11.56c-22.29 3.278-40.249 19.951-45.172 41.936L1.696 452.193h74.8l23.8-102 6.8 102h119 119l6.799-102 23.801 102h74.801L407.663 260.895zM273.688 329.801l40.801-27.201 13.6 27.201H273.688zM226.089 199.92c10.595.0 27.234 1.36 27.201 10.88-.035 8.16-6.768 19.04-10.848 23.12C238.364 238 231.53 238 226.089 238c-5.44.0-12.274.0-16.354-4.08s-10.812-14.96-10.846-23.12C198.855 201.28 215.495 199.92 226.089 199.92z"/></g><g/><g/><g/><g/><g/><g/><g/><g/><g/><g/><g/><g/><g/><g/><g/></svg>