<svg id="Capa_1" xmlns="http://www.w3.org/2000/svg" xmlns:xlink="http://www.w3.org/1999/xlink" width="450" height="450" viewBox="0 0 450 450" style="enable-background:new 0 0 450 450"><g><g><path d="M293.735 346.511c4.303-6.788 25.902-41.731 28.783-63.157.354-2.621.037-5.291-.916-7.758-2.994-7.74-25.236-52.669-51.643-65.336-.024-.013-20.567-9.537-20.567-9.537l-8.966-7.564-13.643 13.577 13.424 89.747c.047.307-.029.619-.213.867l-13.883 19c-.222.303-.573.482-.948.482s-.729-.18-.948-.482l-13.883-19c-.183-.248-.259-.561-.213-.867l13.43-89.782-13.604-13.54-8.966 7.564c0 0-20.434 9.342-20.945 9.586-26.403 12.667-48.646 57.596-51.64 65.334-.953 2.47-1.268 5.138-.917 7.76 2.881 21.427 24.482 56.369 28.784 63.156 2.992 4.72 8.079 7.303 13.283 7.301 2.739.0 5.505-.725 8.014-2.219 1.358 3.809 3.326 7.338 5.771 10.547L183.335 450h37.847l-.002-67.668c1.342.113 2.681.178 4.004.178 1.324.0 2.663-.064 4.007-.178L229.188 450h37.846l.004-87.812c2.414-3.168 4.365-6.653 5.717-10.41 2.427 1.371 5.074 2.035 7.695 2.035C285.655 353.812 290.743 351.229 293.735 346.511zM159.441 283.021c3.301-6.879 9.362-17.18 16.024-26.235l.012 60.687C168.763 305.609 161.903 291.825 159.441 283.021zM274.894 316.754l.009-59.511c6.519 8.931 12.419 18.976 15.653 25.727C288.14 291.598 281.489 305.038 274.894 316.754z"/><path d="M265.698 135.217c.25-24.917-11.615-39.827-40.515-39.827-28.902.0-40.768 14.91-40.521 39.827.396 35.9 17.536 57.314 40.521 57.314C248.159 192.531 265.311 171.117 265.698 135.217z"/><path d="M376.132 62.602C335.765 22.232 282.089.0 225 0 172.143.0 122.223 19.071 83.068 53.938c-1.178-.137-2.372-.215-3.589-.215-16.947.0-30.686 13.739-30.686 30.688.0 2.436.29 4.801.827 7.072-24.927 35.597-38.354 77.891-38.354 122.252v.001c0 57.09 22.23 110.763 62.599 151.132 26.898 26.896 59.706 45.73 95.493 55.312l-.003-36.256-3.223-1.055c-51.471-17.966-92.303-58.798-110.269-110.267 7.19 3.984 15.191 7.705 23.992 11.117 11.41 4.422 23.897 8.26 37.208 11.48-1.628-4.952-2.843-9.746-3.437-14.154-.663-4.943-.063-10.009 1.732-14.656.044-.113 1.109-2.611 3.071-6.637-45.977-12.326-72.52-31.232-72.52-46.019.0.0.0.0.0-.001.002-12.131 17.805-26.569 46.465-37.677 12.471-4.834 26.455-8.894 41.546-12.125-1.568 16.12-2.375 32.815-2.375 49.804.0 7.357.159 14.655.458 21.879 8.753-13.596 20.555-28.558 34.446-37.801.443-13.975 1.455-27.235 2.937-39.696.0.0-1.89-49.466 13.858-65.321C195.396 55.711 211.833 34.648 225 34.648c13.096.0 29.421 20.834 41.548 57.537 18.453 27.215 14.064 65.94 14.064 65.94 1.199 10.117 2.09 20.768 2.623 31.894-1.717 1.41-3.275 3.003-4.648 4.75 17.256 9.374 31.666 28.202 41.553 44.199 8.004-5.538 13.26-14.764 13.26-25.232.0-11.474-6.301-21.471-15.627-26.736-.396-7.779-.957-15.466-1.693-23.021 55.459 11.946 88.01 33.38 88.01 49.756.0 14.783-26.535 33.688-72.498 46.015 1.947 3.998 3.004 6.475 3.047 6.589 1.801 4.656 2.4 9.726 1.734 14.663-.594 4.421-1.816 9.234-3.453 14.204 13.316-3.222 25.811-7.06 37.225-11.483 8.803-3.412 16.803-7.134 23.992-11.117-17.965 51.467-58.797 92.299-110.268 110.266l-2.855.945-.002 36.269c35.643-9.613 68.318-28.411 95.123-55.216 40.369-40.369 62.6-94.042 62.6-151.132v-.001C438.731 156.643 416.501 102.971 376.132 62.602zM155.017 68.59c-6.771 17.47-12.177 37.447-16.089 59.072-21.624 3.912-41.603 9.317-59.07 16.088-8.801 3.41-16.801 7.131-23.991 11.116 4.968-14.234 11.692-27.651 19.9-40 1.219.148 2.457.233 3.714.233 16.951.0 30.689-13.739 30.689-30.688.0-2.499-.305-4.924-.868-7.25 16.623-14.103 35.84-25.234 56.832-32.562C162.146 51.791 158.425 59.791 155.017 68.59zm215.125 75.16c-17.469-6.771-37.445-12.177-59.068-16.088-3.912-21.625-9.318-41.602-16.09-59.072-3.408-8.799-7.131-16.799-11.117-23.991 51.471 17.967 92.303 58.797 110.27 110.268C386.942 150.881 378.942 147.161 370.142 143.75z"/></g></g><g/><g/><g/><g/><g/><g/><g/><g/><g/><g/><g/><g/><g/><g/><g/></svg>