<svg id="Capa_1" xmlns="http://www.w3.org/2000/svg" xmlns:xlink="http://www.w3.org/1999/xlink" width="537.994" height="537.995" viewBox="0 0 537.994 537.995" style="enable-background:new 0 0 537.994 537.995"><g><path d="M172.984 456.482c0 0 31.317 74.587 14.344 74.587H5.042c-16.974.0 14.344-74.587 14.344-74.587 2.032-4.901 6.335-7.292 10.638-9.085l28.807-13.268 13.865-11.714 21.755 21.635-9.802 65.145c0 .239.0.479.12.717l10.638 14.464c.12.239.479.358.717.358.239.0.598-.119.717-.358l10.638-14.464c.12-.238.239-.478.12-.717l-9.802-65.145 21.755-21.635 13.866 11.714 28.807 13.268C166.648 449.19 171.071 452.059 172.984 456.482zM96.125 422.056c29.524.0 51.518-27.492 51.996-73.512.359-31.914-14.941-51.039-51.996-51.039s-52.354 19.125-51.996 51.039C44.727 394.684 66.72 422.056 96.125 422.056zM518.549 456.482c-1.912-4.423-6.335-7.292-10.638-9.085l-28.808-13.268-13.865-11.714-21.755 21.754 9.802 65.145c0 .239.0.479-.12.718l-10.638 14.463c-.12.239-.479.358-.718.358-.238.0-.598-.119-.717-.358l-10.639-14.463c-.119-.239-.238-.479-.119-.718l9.802-65.145-21.755-21.635-13.865 11.714-28.808 13.269c-4.303 1.793-8.486 4.184-10.638 9.084.0.0-31.317 74.588-14.344 74.588h182.285C549.866 531.069 518.549 456.482 518.549 456.482zM441.81 422.056c29.524.0 51.519-27.492 51.996-73.512.359-31.914-14.941-51.039-51.996-51.039s-52.354 19.125-51.996 51.039C390.292 394.684 412.286 422.056 441.81 422.056zM330.407 359.183c4.661 18.169 1.434 35.62-9.922 54.626H217.449c-11.355-19.006-14.583-36.457-9.921-54.626 1.076.119 2.271.239 3.466.239 4.184.0 8.367-.837 12.312-2.511l17.811-7.41c9.682-3.945 16.495-12.312 19.005-21.994 5.857-.358 11.715-.358 17.691.0 2.51 9.562 9.323 17.93 19.005 21.994l17.811 7.41c3.944 1.674 8.128 2.511 12.312 2.511C328.136 359.302 329.212 359.302 330.407 359.183zM266.099 386.556c0-3.348-2.75-6.097-6.096-6.097h-4.184c-3.347.0-6.096 2.749-6.096 6.097v4.184c0 3.347 2.75 6.096 6.096 6.096h4.184c3.347.0 6.096-2.749 6.096-6.096V386.556zM266.099 365.16c0-3.347-2.75-6.096-6.096-6.096h-4.184c-3.347.0-6.096 2.749-6.096 6.096v4.184c0 3.347 2.75 6.096 6.096 6.096h4.184c3.347.0 6.096-2.749 6.096-6.096V365.16zM288.212 386.556c0-3.348-2.749-6.097-6.096-6.097h-4.184c-3.347.0-6.096 2.749-6.096 6.097v4.184c0 3.347 2.749 6.096 6.096 6.096h4.184c3.347.0 6.096-2.749 6.096-6.096V386.556zM288.212 365.16c0-3.347-2.749-6.096-6.096-6.096h-4.184c-3.347.0-6.096 2.749-6.096 6.096v4.184c0 3.347 2.749 6.096 6.096 6.096h4.184c3.347.0 6.096-2.749 6.096-6.096V365.16zM299.329 343.166l17.81 7.411c13.029 5.379 27.851-.837 33.229-13.746l.718-1.793c5.379-13.028-.837-27.851-13.746-33.229.0.0-25.341-10.279-68.492-10.279-43.151.0-68.491 10.279-68.491 10.279-13.029 5.379-19.125 20.201-13.746 33.229l.717 1.793c5.379 13.029 20.201 19.125 33.229 13.746l17.93-7.411c11.833-4.9 18.049-17.69 14.941-29.644 9.084-1.435 21.755-1.435 30.839.0C281.399 325.475 287.495 338.265 299.329 343.166zM274.944 254.833H262.99v27.134h11.954V254.833zM171.31 433.89l8.487 8.486 23.189-23.188-8.486-8.487L171.31 433.89zm195.315.0-23.189-23.189-8.486 8.487 23.188 23.188L366.625 433.89zM177.884 240.369H360.17c16.974.0-14.344-74.587-14.344-74.587-1.912-4.423-6.335-7.292-10.638-9.084l-28.808-13.268-13.865-11.714-21.755 21.635 9.802 65.145c0 .239.0.479-.12.717l-10.638 14.463c-.12.239-.479.358-.717.358-.239.0-.598-.119-.717-.358l-10.638-14.463c-.12-.239-.239-.478-.12-.717l9.802-65.145-21.755-21.635-13.866 11.714-28.807 13.268c-4.303 1.793-8.487 4.184-10.638 9.084C192.109 165.782 160.792 240.369 177.884 240.369zm91.083-109.013c29.525.0 51.518-27.492 51.997-73.512.358-31.915-14.941-51.04-51.997-51.04-37.055.0-52.354 19.125-51.996 51.04C217.449 103.984 239.443 131.356 268.967 131.356z"/></g><g/><g/><g/><g/><g/><g/><g/><g/><g/><g/><g/><g/><g/><g/><g/></svg>