<svg id="Capa_1" xmlns="http://www.w3.org/2000/svg" xmlns:xlink="http://www.w3.org/1999/xlink" width="457.319" height="457.319" viewBox="0 0 457.319 457.319" style="enable-background:new 0 0 457.319 457.319"><g><g><path d="M366.845 257.905c-1.479-10.086-2.754-20.224-3.986-30.027-6.549-52.063-12.205-97.028-44.756-112.646-.031-.015-20.635-9.566-20.635-9.566l-8.996-7.584-13.538 13.465 13.292 88.865c.047.306-.029.618-.213.867l-13.883 19c-.223.303-.573.482-.948.482s-.729-.179-.948-.482l-13.883-19c-.184-.249-.259-.561-.213-.867l13.292-88.864-13.54-13.466-8.994 7.584c0 0-19.64 8.96-21.567 10.107-15.168 7.914-22.305 27.414-29.845 48.044-3.368 9.216-8.945 24.473-12.763 27.962-14.272 4.087-31.124 2.264-31.263 2.247-8.641-1.005-16.469 5.182-17.478 13.826-1.008 8.645 5.182 16.47 13.826 17.478.443.052 5.485.619 12.819.619 8.723.0 20.687-.804 31.996-4.232 14.422-4.373 21.974-19.444 28.69-36.929l.015 60.262c0 8.57 3.012 16.209 7.869 22.588l.01 170.7c0 10.484 8.5 18.982 18.983 18.982 10.484-.001 18.983-8.5 18.981-18.984l-.008-150.487c1.35.113 2.691.179 4.021.179s2.672-.064 4.021-.179l-.002 150.488c0 10.483 8.498 18.982 18.982 18.983 10.482.0 18.982-8.5 18.982-18.983l.002-170.701c4.857-6.379 7.869-14.016 7.869-22.586l.016-66.993c3.75 15.744 6.164 34.899 8.535 53.756 1.254 9.962 2.549 20.263 4.074 30.668 1.15 7.837 7.879 13.474 15.572 13.474.76.0 1.533-.056 2.307-.169C362.151 274.52 368.106 266.516 366.845 257.905z"/><path d="M273.181 97.447c23.053.0 40.254-21.479 40.646-57.496C314.075 14.957 302.173.0 273.181.0c-28.995.0-40.898 14.957-40.646 39.951C232.926 75.969 250.126 97.447 273.181 97.447z"/><path d="M144.239 169.235v-8.605c0-.046-.004-.09-.006-.135 2.746-.361 5.134-1.086 7.132-2.174 2.954-1.66 4.451-3.819 4.451-6.414v-4.348c0-3.379-1.589-5.986-4.726-7.75l-11.392-6.331c-2.202-1.215-3.272-2.87-3.272-5.059v-5.376c0-.672.0-2.241 3.25-2.241 3.319.0 3.319 1.569 3.319 2.241v8.273c0 .489.396.886.885.886h10.78c.489.0.885-.396.885-.886v-4.843c0-2.597-1.545-4.769-4.592-6.455-1.865-1.031-4.117-1.731-6.723-2.098.002-.057.009-.113.009-.171v-8.604c0-2.444-1.981-4.426-4.426-4.426-2.445.0-4.426 1.981-4.426 4.426v8.604c0 .046.006.089.006.135-2.721.354-5.064 1.066-6.992 2.134-3.046 1.686-4.592 3.857-4.592 6.455v3.737c0 3.383 1.59 5.978 4.726 7.712l11.392 6.332c2.247 1.241 3.34 2.908 3.34 5.097v5.986c0 .672.0 2.241-3.318 2.241-3.522.0-3.522-1.569-3.522-2.241v-8.273c0-.488-.396-.886-.885-.886h-10.847c-.489.0-.885.397-.885.886v4.842c0 2.576 1.593 4.744 4.735 6.441 1.924 1.038 4.217 1.743 6.848 2.111-.002.057-.006.113-.006.17v8.605c0 2.445 1.981 4.426 4.426 4.426C142.258 173.659 144.239 171.68 144.239 169.235z"/><path d="M189.32 139.191c0-27.299-22.208-49.507-49.507-49.507-27.299.0-49.507 22.208-49.507 49.507.0 27.298 22.208 49.507 49.507 49.507C167.112 188.698 189.32 166.489 189.32 139.191zm-88.345.0c0-21.416 17.422-38.838 38.838-38.838s38.838 17.422 38.838 38.838c0 21.415-17.422 38.838-38.838 38.838S100.975 160.606 100.975 139.191z"/></g></g><g/><g/><g/><g/><g/><g/><g/><g/><g/><g/><g/><g/><g/><g/><g/></svg>