<svg id="Capa_1" xmlns="http://www.w3.org/2000/svg" xmlns:xlink="http://www.w3.org/1999/xlink" width="440" height="439.999" viewBox="0 0 440 439.999" style="enable-background:new 0 0 440 439.999"
	><g><g><path d="M200.034 149.811c-9.908-20.554-20.049-33.101-31-38.356-.026-.014-19.956-9.253-19.956-9.253l-8.7-7.337-13.242 13.169 13.494 90.215c.046.306-.03.618-.213.867l-13.883 19c-.222.303-.573.482-.948.482s-.729-.179-.948-.482l-13.883-19c-.183-.249-.259-.561-.213-.867l13.494-90.215-13.24-13.17-8.7 7.337c0 0-38.518 17.62-52.062 21.434 2.042-8.32 5.105-18.917 8.453-28.906 2.676-7.981-1.625-16.62-9.607-19.295-7.979-2.675-16.618 1.623-19.295 9.604-.162.484-4.021 12.019-7.4 24.512-6.426 23.752-6.812 33.719-1.582 41.018 3.178 4.436 8.112 6.994 13.536 7.016.037.0.072.0.107.0 8.902.0 25.684-4.41 43.096-11.026l.023 90.458c0 8.291 2.913 15.678 7.608 21.848l.01 162.766c.001 10.141 8.222 18.361 18.362 18.36 10.141.0 18.361-8.222 18.36-18.362l-.008-143.216c1.303.11 2.602.173 3.887.173 1.286.0 2.584-.062 3.891-.173l-.003 143.217c0 10.141 8.221 18.361 18.361 18.361s18.359-8.221 18.359-18.36l.003-162.768c3.809-5.002 6.444-10.801 7.303-17.236 1.916.812 3.926 1.206 5.916 1.206 5.26.0 10.377-2.728 13.203-7.606 16.98-29.326 18.849-50.795 19.005-53.147.132-1.97-.12-3.947-.744-5.822C210.707 175.738 206.585 163.403 200.034 149.811zM173.814 204.929l.012-39.23c3.206 6.931 5.653 13.306 6.99 16.963C180.121 186.591 178.299 194.517 173.814 204.929z"/><path d="M125.585 94.253c22.296.0 38.936-20.773 39.315-55.612C165.141 14.467 153.63.0 125.585.0 97.541.0 86.027 14.467 86.272 38.641 86.648 73.479 103.287 94.253 125.585 94.253z"/><path d="M415.707 65.585c-7.392-4.764-17.246-2.634-22.011 4.759-11.546 17.912-19.689 29.138-27.155 33.513-6.27 3.673-14.861 3.972-31.733 3.248l-9.63-4.435-8.628-7.274-13.107 13.039 13.483 90.151c.046.306-.029.618-.213.867l-13.883 19c-.222.303-.573.482-.948.482s-.729-.179-.948-.482l-13.883-19c-.183-.249-.259-.561-.213-.867l13.484-90.152-13.107-13.038-8.629 7.274-9.632 4.435c-16.875.726-25.463.423-31.729-3.248-7.467-4.375-15.611-15.601-27.156-33.513-4.764-7.393-14.621-9.523-22.012-4.759-7.394 4.765-9.523 14.621-4.759 22.014 14.818 22.992 24.737 36.07 37.828 43.739 10.111 5.924 20.628 7.686 32.907 7.911l.023 97.125c0 8.222 2.891 15.549 7.55 21.667l.008 163.75c0 10.055 8.152 18.208 18.21 18.208 10.057.0 18.209-8.154 18.207-18.209l-.005-144.358c1.293.109 2.581.17 3.854.17 1.278.0 2.564-.062 3.859-.17l-.002 144.359c0 10.056 8.15 18.208 18.21 18.208 10.056.0 18.208-8.153 18.208-18.208l.002-163.75c4.658-6.119 7.548-13.445 7.548-21.667l.027-97.125c12.276-.226 22.796-1.987 32.906-7.911 13.089-7.669 23.008-20.747 37.828-43.739C425.232 80.207 423.1 70.351 415.707 65.585z"/><path d="M301.879 94.787c22.113.0 38.616-20.602 38.991-55.153.238-23.976-11.178-38.323-38.991-38.323-27.812.0-39.229 14.348-38.989 38.323C263.265 74.185 279.765 94.787 301.879 94.787z"/></g></g><g/><g/><g/><g/><g/><g/><g/><g/><g/><g/><g/><g/><g/><g/><g/></svg>