<svg id="Capa_1" xmlns="http://www.w3.org/2000/svg" xmlns:xlink="http://www.w3.org/1999/xlink" width="470" height="470.001" viewBox="0 0 470 470.001" style="enable-background:new 0 0 470 470.001"
	><g><g><path d="M333.432 265.059c-1.52-10.367-2.83-20.785-4.098-30.86-6.73-53.509-12.543-99.718-45.998-115.772-.03-.014-21.205-9.83-21.205-9.83l-9.246-7.796-14.324 14.249 13.309 88.967c.045.298-.031.603-.209.847l-13.563 18.562c-.216.296-.56.471-.927.471-.365.0-.711-.175-.926-.471l-13.562-18.562c-.179-.244-.253-.548-.209-.847l13.309-88.966-14.326-14.25-9.245 7.796c0 0-21.368 9.899-22.254 10.441-32.513 16.518-38.29 62.29-44.947 115.225-1.269 10.077-2.579 20.496-4.099 30.863-1.065 7.27 2.881 14.107 9.226 17.042v11.992h-6.078c-4.231.0-7.664 3.43-7.664 7.664v86.137c0 4.234 3.433 7.665 7.664 7.665h25.75c4.233.0 7.664-3.431 7.664-7.665v-86.137c0-4.234-3.431-7.664-7.664-7.664h-6.08v-11.992c4.791-2.222 8.407-6.729 9.23-12.345 1.568-10.694 2.899-21.28 4.187-31.52 2.438-19.382 4.918-39.066 8.771-55.249l.018 68.788c0 8.809 3.096 16.658 8.086 23.213l.011 175.438c0 10.772 8.733 19.509 19.51 19.508 10.773.0 19.509-8.736 19.509-19.51l-.009-154.664c1.386.12 2.766.184 4.132.184 1.365.0 2.744-.063 4.133-.184l-.002 154.665c0 10.771 8.732 19.509 19.51 19.509 10.771.0 19.508-8.736 19.508-19.509l.004-175.438c4.988-6.554 8.084-14.403 8.084-23.212l.018-68.849c3.855 16.18 6.334 35.867 8.771 55.245 1.289 10.238 2.619 20.824 4.188 31.521 1.182 8.051 8.1 13.846 16.002 13.846.783.0 1.578-.059 2.371-.174C328.608 282.135 334.731 273.906 333.432 265.059z"/><path d="M237.17 100.149c23.691.0 41.369-22.074 41.775-59.091C279.2 15.372 266.967.0 237.17.0c-29.798.0-42.033 15.372-41.773 41.059C195.801 78.075 213.479 100.149 237.17 100.149z"/></g></g><g/><g/><g/><g/><g/><g/><g/><g/><g/><g/><g/><g/><g/><g/><g/></svg>