<svg id="Capa_1" xmlns="http://www.w3.org/2000/svg" xmlns:xlink="http://www.w3.org/1999/xlink" width="467.5" height="467.5" viewBox="0 0 467.5 467.5" style="enable-background:new 0 0 467.5 467.5"
	><g><path d="M292.4 232.528c0-3.754-3.047-6.8-6.801-6.8h-88.4c-3.753.0-6.8 3.046-6.8 6.8v217.6c0 3.754 3.046 6.8 6.8 6.8h88.4c3.754.0 6.801-3.046 6.801-6.8v-217.6zM466.119 132.228 398.555 14.384c-3.236-5.61-8.541-6.032-11.777-.422l-67.551 118.483c-3.238 5.603-.586 11.682 5.889 11.682h21.686v302.601c0 3.739 4.732 10.199 8.473 10.199h74.799c3.74.0 5.127-6.46 5.127-10.199V144.128h25.031C466.705 144.128 469.355 137.838 466.119 132.228zM29.145 138.613c0-26.819 21.74-48.559 48.559-48.559 26.819.0 48.559 21.739 48.559 48.559s-21.74 48.559-48.559 48.559C50.884 187.172 29.145 165.433 29.145 138.613zM79.227 436.528c0 13.6-8.452 22.113-21.325 20.89-11.22-1.061-17.102-11.717-17.102-22.991V322.05c0 9.234-11.057 16.633-20.407 16.633C10.064 338.683.0 329.932.0 321.159v-42.275-37.768c0-20.855 15.211-35.788 36.067-35.788H52.7l27.2 47.6 27.2-47.6h16.245c20.855.0 39.854 14.933 39.854 35.795v37.768 42.275c0 8.772-10.064 17.523-20.393 17.523-9.35.0-20.407-7.398-20.407-16.633v112.377c0 11.274-7.772 21.924-18.999 22.991-12.873 1.217-23.215-7.297-23.215-20.896H79.227z"/></g><g/><g/><g/><g/><g/><g/><g/><g/><g/><g/><g/><g/><g/><g/><g/></svg>