<svg id="Capa_1" xmlns="http://www.w3.org/2000/svg" xmlns:xlink="http://www.w3.org/1999/xlink" width="509.457" height="509.457" viewBox="0 0 509.457 509.457" style="enable-background:new 0 0 509.457 509.457"><g><path d="M80.506 57.338C80.506 25.67 106.176.0 137.843.0c31.668.0 57.338 25.67 57.338 57.338.0 31.667-25.67 57.337-57.338 57.337C106.176 114.675 80.506 89.005 80.506 57.338zM253.321 180.323c-1.761-20.373-17.292-36.863-37.529-39.841l-40.46-5.95-25.255 57.929-3.257-28.553c-.088-.904-.85-1.591-1.754-1.591h-14.43c-.911.0-1.679.701-1.754 1.612l-2.958 29.26-25.568-58.657-40.46 5.95c-20.23 2.978-35.768 19.468-37.529 39.841L9.929 324.197h39.698l6.617-97.037 8.819 66.164-4.413 66.164h8.819v149.969h52.932l8.568-149.969h9.323l8.568 149.969h52.931V359.482h13.233l-4.413-66.164 8.819-66.164 6.617 97.035h39.699L253.321 180.323zM120.197 136.734c.021 5.291 4.386 12.349 7.031 14.994 2.646 2.645 7.079 2.645 10.608 2.645 3.529.0 7.963.0 10.608-2.645 2.645-2.645 7.011-9.704 7.031-14.994.02-6.174-10.771-7.058-17.646-7.058C130.969 129.676 120.177 130.56 120.197 136.734zM336.329 123.501c-27.963.0-54.264 7.045-77.27 19.428 5.686 6.861 9.955 14.919 12.418 23.766 19.291-10.445 41.377-16.388 64.852-16.388 75.322.0 136.387 61.064 136.387 136.388.0 75.322-61.064 136.387-136.387 136.387-39.297.0-74.609-16.715-99.498-43.309l.007.102-14.641 23.426c29.431 28.812 69.694 46.594 114.132 46.594 90.133.0 163.199-73.066 163.199-163.199C499.528 196.561 426.462 123.501 336.329 123.501zM422.817 299.75c0-7.506-6.092-13.6-13.6-13.6h-61.199v-88.399c0-7.507-6.094-13.6-13.602-13.6-7.506.0-13.6 6.093-13.6 13.6v88.399c0 15.002 12.199 27.201 27.201 27.201h61.199C416.726 313.352 422.817 307.258 422.817 299.75z"/></g><g/><g/><g/><g/><g/><g/><g/><g/><g/><g/><g/><g/><g/><g/><g/></svg>