<svg id="Capa_1" xmlns="http://www.w3.org/2000/svg" xmlns:xlink="http://www.w3.org/1999/xlink" width="443.925" height="443.924" viewBox="0 0 443.925 443.924" style="enable-background:new 0 0 443.925 443.924"><g><g><path d="M152.703 178.781c5.427.0 15.681-3.352 40.723-22.396 6.036-4.59 7.208-13.205 2.618-19.241s-13.205-7.208-19.241-2.617c-11.208 8.523-19.284 13.492-23.484 15.69l-50.4-25.476-7.837-6.608-11.65 11.586 11.519 77.009c.041.268-.027.542-.187.76L82.59 224.151c-.194.266-.503.422-.832.422s-.638-.156-.832-.422l-12.174-16.663c-.16-.219-.227-.492-.187-.76l11.519-77.009-11.65-11.587-7.837 6.608c0 0-18.116 8.394-18.866 8.852-27.568 14.003-32.466 52.812-38.11 97.694-1.074 8.541-2.186 17.375-3.474 26.162-1.1 7.504 4.09 14.479 11.593 15.578.675.098 1.346.146 2.009.146 6.701.0 12.566-4.912 13.568-11.74 1.33-9.066 2.458-18.043 3.55-26.721 2.066-16.433 4.17-33.125 7.437-46.842l.014 58.318c0 7.469 2.625 14.123 6.856 19.682l.008 148.74c0 9.135 7.406 16.541 16.542 16.539 9.135.0 16.54-7.406 16.54-16.541l-.007-131.125c1.175.1 2.345.156 3.503.156 1.158.0 2.328-.057 3.504-.156l-.002 131.125c0 9.135 7.405 16.541 16.541 16.541 9.135.0 16.541-7.406 16.541-16.541l.002-148.738c4.23-5.559 6.855-12.213 6.855-19.682l.02-79.978c2.435 1.315 4.805 2.608 7 3.808 10.451 5.71 13.595 7.39 16.545 8.167C149.81 178.462 151.026 178.781 152.703 178.781z"/><path d="M81.755 117.581c20.086.0 35.076-18.714 35.417-50.098.218-21.778-10.153-34.81-35.417-34.81S46.119 45.705 46.34 67.483C46.68 98.866 61.669 117.581 81.755 117.581z"/><path d="M432.437 210.817h-9.73V54.032h9.73c6.344.0 11.487-5.144 11.487-11.487s-5.144-11.487-11.487-11.487H302.06v-6.795c0-6.344-5.143-11.487-11.486-11.487-6.345.0-11.487 5.143-11.487 11.487v6.795H148.71c-6.344.0-11.487 5.144-11.487 11.487.0 6.344 5.143 11.487 11.487 11.487h9.731v81.3c2.925-2.007 6.354-4.466 10.3-7.466 3.71-2.822 8.068-4.422 12.675-4.698V54.032h218.316v156.786H181.416v-34.721c-10.56 7.018-17.714 10.406-22.975 11.968v22.753h-9.731c-6.344.0-11.487 5.142-11.487 11.485.0 6.345 5.143 11.488 11.487 11.488h21.218 108.635V382.24l-48.051 25.957c-5.836 3.15-8.011 10.438-4.858 16.273 3.151 5.836 10.439 8.014 16.274 4.856l36.635-19.787v9.222c0 6.635 5.377 12.012 12.012 12.012 6.634.0 12.011-5.377 12.011-12.012v-9.222l36.634 19.787c1.815.982 3.771 1.447 5.698 1.447 4.271.0 8.406-2.283 10.578-6.305 3.151-5.836.977-13.123-4.859-16.273l-48.051-25.957V233.792H411.22h21.219c6.344.0 11.487-5.144 11.487-11.488C443.924 215.959 438.78 210.817 432.437 210.817z"/><path d="M303.02 199.36c2.438.0 4.416-1.977 4.416-4.416V78.185c0-2.439-1.977-4.416-4.416-4.416h-24.894c-2.438.0-4.415 1.977-4.415 4.416v116.759c0 2.438 1.977 4.416 4.415 4.416H303.02z"/><path d="M258.095 199.36c2.438.0 4.415-1.977 4.415-4.416v-73.51c0-2.438-1.977-4.415-4.415-4.415h-24.894c-2.438.0-4.416 1.976-4.416 4.415v73.51c0 2.438 1.977 4.416 4.416 4.416H258.095z"/><path d="M347.945 199.36c2.438.0 4.415-1.977 4.415-4.416v-85.148c0-2.438-1.978-4.415-4.415-4.415H323.05c-2.438.0-4.415 1.976-4.415 4.415v85.148c0 2.438 1.978 4.416 4.415 4.416H347.945z"/></g></g><g/><g/><g/><g/><g/><g/><g/><g/><g/><g/><g/><g/><g/><g/><g/></svg>