<svg id="Capa_1" xmlns="http://www.w3.org/2000/svg" xmlns:xlink="http://www.w3.org/1999/xlink" width="544" height="544" viewBox="0 0 544 544" style="enable-background:new 0 0 544 544"><g><path d="M96.968 172.924c-34.408.0-62.356 27.948-62.356 62.356.0 34.477 27.948 62.356 62.356 62.356 34.476.0 62.356-27.88 62.356-62.356C159.324 200.872 131.444 172.924 96.968 172.924zM69.292 318.444C31.008 318.444.0 349.452.0 387.736V419.9h95.064l18.292-85.204c1.292-5.78 3.468-11.288 6.324-16.252H69.292zm377.74-145.52c-34.477.0-62.356 27.948-62.356 62.356.0 34.477 27.88 62.356 62.356 62.356 34.408.0 62.355-27.88 62.355-62.356C509.388 200.872 481.44 172.924 447.032 172.924zM474.708 318.444h-43.996c2.856 4.964 5.032 10.404 6.324 16.116l18.292 85.34H544v-32.164C544 349.452 512.992 318.444 474.708 318.444zM347.555 196.425c0 39.943-32.382 72.325-72.324 72.325-39.944.0-72.325-32.382-72.325-72.325.0-39.943 32.375-72.325 72.318-72.325C315.166 124.1 347.555 156.481 347.555 196.425zM275.224 318.825c4.453.0 10.043.0 13.382-3.339s8.847-12.24 8.874-18.918c.027-7.785-13.586-8.9-22.256-8.9-8.67.0-22.284 1.115-22.257 8.9.027 6.678 5.535 15.579 8.874 18.918S270.776 318.825 275.224 318.825zM108.997 419.9l17.673-82.341c4.025-17.986 18.72-31.627 36.958-34.313l64.308-9.459 32.252 73.991 3.733-36.91c.102-1.149 1.061-2.033 2.217-2.033h18.197c1.143.0 2.102.87 2.217 2.006l4.114 36.02 31.852-73.073 64.308 9.459c18.237 2.68 32.932 16.327 36.958 34.313l17.673 82.341H108.997z"/></g><g/><g/><g/><g/><g/><g/><g/><g/><g/><g/><g/><g/><g/><g/><g/></svg>