<svg id="Capa_1" xmlns="http://www.w3.org/2000/svg" xmlns:xlink="http://www.w3.org/1999/xlink" width="459.449" height="459.449" viewBox="0 0 459.449 459.449" style="enable-background:new 0 0 459.449 459.449"><g><g><path d="M229.725 308.322c53.316.0 99.921-17.815 115.662-41.657-7.301-24.57-18.025-50.109-18.025-50.109-2.359-5.644-8.039-9.259-13.461-11.482l-36.643-16.871-17.604-14.846-28.152 28.002 12.127 81.074c.042.28-.029.57-.197.801L230.6 300.794c-.203.279-.529.446-.875.446-.347.0-.673-.167-.877-.446l-12.83-17.561c-.168-.229-.239-.521-.197-.801l12.127-81.074-28.151-28.002-17.604 14.846-36.642 16.871c-5.423 2.224-11.917 6.935-13.46 11.482.0.0-10.726 25.539-18.026 50.109C129.804 290.505 176.409 308.322 229.725 308.322z"/><path d="M229.725 172.821c37.476.0 65.441-34.916 66.078-93.471.408-40.632-18.943-64.947-66.078-64.947-47.135.0-66.489 24.315-66.076 64.947C164.284 137.905 192.249 172.821 229.725 172.821z"/><path d="M424.949 249.222c-15.361.0-28.406 10.096-32.859 24h-29.855l-3.543 4.854c-20.15 26.96-71.979 45.072-128.965 45.072-57.513.0-109.497-18.327-129.358-45.605l-3.145-4.318H67.361c-4.453-13.904-17.498-24-32.861-24-19.023.0-34.5 15.477-34.5 34.5.0 19.022 15.477 34.5 34.5 34.5 15.363.0 28.408-10.097 32.861-24h19.421c24.256 28.748 74.748 47.672 132.443 49.729v33.731c-13.904 4.453-24 17.498-24 32.861.0 19.021 15.477 34.5 34.5 34.5s34.5-15.479 34.5-34.5c0-15.363-10.096-28.408-24-32.861v-33.732c57.572-2.064 108.172-20.997 132.441-49.729h19.424c4.453 13.903 17.498 24 32.859 24 19.023.0 34.5-15.478 34.5-34.5C459.449 264.7 443.975 249.222 424.949 249.222zM34.5 297.222c-7.443.0-13.5-6.056-13.5-13.5.0-7.443 6.057-13.5 13.5-13.5 7.444.0 13.5 6.057 13.5 13.5C48 291.166 41.944 297.222 34.5 297.222zM243.225 410.546c0 7.443-6.057 13.5-13.5 13.5-7.444.0-13.5-6.057-13.5-13.5.0-7.445 6.056-13.5 13.5-13.5S243.225 403.101 243.225 410.546zM424.949 297.222c-7.441.0-13.5-6.056-13.5-13.5.0-7.443 6.059-13.5 13.5-13.5 7.445.0 13.5 6.057 13.5 13.5C438.449 291.166 432.395 297.222 424.949 297.222z"/></g></g><g/><g/><g/><g/><g/><g/><g/><g/><g/><g/><g/><g/><g/><g/><g/></svg>