<svg id="Capa_1" xmlns="http://www.w3.org/2000/svg" xmlns:xlink="http://www.w3.org/1999/xlink" width="448.166" height="448.166" viewBox="0 0 448.166 448.166" style="enable-background:new 0 0 448.166 448.166"><g><g><path d="M207.733 223.129c-6.328-50.312-11.793-93.76-43.248-108.854-.027-.013-19.938-9.243-19.938-9.243l-8.694-7.33-13.47 13.396 12.156 81.256c.041.273-.029.552-.19.775l-12.423 17c-.196.271-.514.432-.848.432-.336.0-.652-.16-.85-.432l-12.42-17c-.164-.224-.232-.502-.191-.775l12.154-81.256-13.47-13.396-8.692 7.33c0 0-20.094 9.309-20.926 9.817-30.566 15.528-36 58.566-42.261 108.337-1.191 9.474-2.422 19.27-3.854 29.016-1.219 8.321 4.537 16.057 12.857 17.276.75.109 1.492.164 2.229.164 7.43.0 13.938-5.449 15.047-13.021 1.475-10.058 2.728-20.01 3.938-29.638 2.291-18.221 4.625-36.73 8.245-51.942l.019 64.674c0 8.281 2.908 15.662 7.602 21.826l.011 164.95c0 10.13 8.215 18.344 18.346 18.342 10.129.0 18.342-8.214 18.342-18.345l-.01-145.416c1.303.108 2.6.173 3.885.173s2.584-.062 3.887-.173l-.002 145.419c0 10.13 8.211 18.342 18.341 18.342 10.133.0 18.346-8.212 18.346-18.342l.004-164.953c4.69-6.164 7.598-13.542 7.598-21.823l.019-64.729c3.623 15.211 5.957 33.722 8.248 51.943 1.211 9.625 2.463 19.577 3.938 29.633 1.109 7.572 7.615 13.02 15.047 13.02.732.0 1.48-.053 2.229-.161 8.319-1.221 14.074-8.956 12.854-17.274C210.153 242.396 208.921 232.604 207.733 223.129z"/><path d="M121.079 97.09c22.273.0 38.898-20.755 39.273-55.558.244-24.152-11.259-38.605-39.273-38.605-28.018.0-39.521 14.453-39.274 38.605C82.182 76.335 98.804 97.09 121.079 97.09z"/><path d="M357.075 239.249c5.012 10.961 16.065 18.581 28.908 18.581 17.551.0 31.776-14.229 31.776-31.777.0-17.551-14.227-31.778-31.776-31.778-12.843.0-23.896 7.621-28.908 18.582H294.68v-96.772c0-36.178 28.508-65.822 64.238-67.65 5.598 9.072 15.623 15.121 27.064 15.121 17.551.0 31.776-14.228 31.776-31.778C417.759 14.227 403.532.0 385.982.0c-14.214.0-26.242 9.33-30.306 22.197-48.77 3.469-87.391 44.251-87.391 93.888v96.772h-35.994c-7.289.0-13.194 5.908-13.194 13.196.0 7.287 5.905 13.196 13.194 13.196h35.994v96.771c0 50.177 39.463 91.306 88.979 93.99 5.103 10.733 16.041 18.156 28.718 18.156 17.551.0 31.776-14.227 31.776-31.777.0-17.55-14.227-31.776-31.776-31.776-12.97.0-24.113 7.771-29.056 18.906-34.793-2.808-62.248-31.996-62.248-67.499v-96.771H357.075z"/></g></g><g/><g/><g/><g/><g/><g/><g/><g/><g/><g/><g/><g/><g/><g/><g/></svg>