<svg id="Capa_1" xmlns="http://www.w3.org/2000/svg" xmlns:xlink="http://www.w3.org/1999/xlink" width="443.09" height="443.09" viewBox="0 0 443.09 443.09" style="enable-background:new 0 0 443.09 443.09"><g><g><path d="M438.726 394.792c-.346-1.057-8.76-26.224-22.125-53.958-20.216-41.941-40.915-67.544-63.26-78.268-.053-.024-40.718-18.881-40.718-18.881l-17.749-14.967-28.081 27.926 17.3 124.597c.06.39-.039.788-.271 1.105l-17.726 24.259c-.282.388-.731.615-1.211.615s-.93-.229-1.211-.615l-17.726-24.259c-.231-.317-.329-.716-.271-1.105L262.93 256.99l-28.417-28.271-17.751 14.967c0 0-78.601 35.955-106.227 43.736 4.165-16.975 10.416-38.6 17.245-58.98 5.455-16.284-3.316-33.913-19.604-39.368-16.281-5.461-33.916 3.306-39.373 19.59-.332.99-8.203 24.527-15.102 50.02-13.109 48.467-13.9 68.803-3.226 83.695 6.483 9.055 16.556 14.271 27.615 14.316h.224c18.168.0 52.404-8.996 87.939-22.5l.025 108.895h196.818l.023-69.835c6.541 14.139 11.539 27.148 14.263 34.609-1.183 6.678-3.968 19.021-10.146 35.226h65.68c6.027-20.646 7.164-33.898 7.328-36.416C440.517 402.652 439.999 398.616 438.726 394.792z"/><path d="M264.686 227.469c45.502.0 79.452-42.387 80.223-113.476.5-49.327-22.996-78.843-80.223-78.843-57.225.0-80.716 29.516-80.208 78.843C185.241 185.082 219.187 227.469 264.686 227.469z"/><path d="M58.809 110.044c4.413 6.466 8.98 13.145 9.26 22.195l.385 17.677c0 2.64 2.137 4.781 4.768 4.781h2.918c.902 5.026 5.294 8.837 10.579 8.837 5.283.0 9.669-3.811 10.571-8.837h2.922c2.631.0 4.772-2.141 4.772-4.781l.403-17.671c.278-9.035 4.838-15.727 9.251-22.197 5.275-7.751 10.746-15.77 10.748-29.903.0-20.261-17.345-36.741-38.668-36.741-21.325.0-38.67 16.479-38.67 36.741C48.048 94.271 53.519 102.289 58.809 110.044zM86.716 120.068l-5.931-33.74c-.136-1.018.428-1.807.681-2.103.475-.551 1.105-.897 1.615-.897.648.0 1.147.481 1.387.774.554.669 1.373 1.063 2.248 1.063.871.0 1.686-.394 2.243-1.063.242-.293.734-.774 1.379-.774.569.0 1.212.335 1.684.884.3.343.761 1.076.623 2.112L86.716 120.068zM86.718 52.958c16.057.0 29.111 12.198 29.111 27.188.0 11.185-4.21 17.362-9.093 24.535-4.055 5.953-8.974 13.154-10.466 22.648l-4.913-.001 7.028-40.035c.003-.023.007-.04.01-.061.37-2.458-.339-4.936-1.951-6.817-1.566-1.826-3.846-2.912-6.106-2.912-1.27.0-2.51.341-3.622.98-1.124-.639-2.364-.98-3.635-.98-2.239.0-4.437 1.063-6.028 2.918-1.646 1.913-2.383 4.396-2.024 6.803.006.021.01.044.013.068l7.024 40.03-4.883-.001c-1.491-9.499-6.423-16.708-10.489-22.66-4.874-7.165-9.096-13.342-9.096-24.517C57.598 65.156 70.664 52.958 86.718 52.958z"/><path d="M86.718 34.639c2.503.0 4.531-2.029 4.531-4.532L91.248 4.533C91.248 2.029 89.221.0 86.716.0c-2.503.0-4.53 2.03-4.53 4.533v.001 25.573c0 1.25.506 2.384 1.326 3.204C84.332 34.131 85.462 34.639 86.718 34.639z"/><path d="M122.106 47.52c1.294.0 2.577-.55 3.474-1.619l16.438-19.592c1.61-1.917 1.36-4.777-.558-6.386-1.918-1.608-4.78-1.357-6.385.56l-16.438 19.592c-1.61 1.917-1.359 4.776.559 6.385C120.043 47.173 121.076 47.52 122.106 47.52z"/><path d="M136.475 76.393c.389 2.199 2.301 3.746 4.458 3.746.262.0.526-.022.793-.07l25.185-4.443c2.466-.435 4.111-2.786 3.678-5.251-.436-2.465-2.791-4.109-5.252-3.676l-25.185 4.442C137.686 71.576 136.039 73.927 136.475 76.393z"/><path d="M136.664 108.77c-2.172-1.253-4.941-.508-6.191 1.659-1.251 2.167-.508 4.939 1.657 6.19l22.15 12.787c.716.412 1.494.608 2.262.608 1.565.0 3.091-.812 3.931-2.268 1.25-2.167.508-4.939-1.66-6.191L136.664 108.77z"/><path d="M42.958 110.428c-1.251-2.168-4.022-2.911-6.191-1.659l-22.146 12.787c-2.168 1.252-2.91 4.024-1.659 6.192.838 1.454 2.364 2.267 3.93 2.267.769.0 1.549-.196 2.264-.608l22.145-12.787C43.466 115.368 44.211 112.595 42.958 110.428z"/><path d="M32.499 80.137c2.159.0 4.069-1.548 4.458-3.747.436-2.465-1.212-4.815-3.678-5.25L8.094 66.7c-2.465-.434-4.814 1.212-5.249 3.677-.434 2.465 1.211 4.816 3.679 5.251l25.182 4.439C31.973 80.114 32.237 80.137 32.499 80.137z"/><path d="M47.853 45.9c.896 1.067 2.18 1.619 3.474 1.619h.003c1.028.0 2.062-.348 2.911-1.06 1.916-1.61 2.167-4.468.56-6.386l-16.44-19.591c-1.61-1.916-4.469-2.167-6.387-.558-.959.805-1.5 1.922-1.602 3.079-.103 1.155.239 2.349 1.042 3.308L47.853 45.9z"/></g></g><g/><g/><g/><g/><g/><g/><g/><g/><g/><g/><g/><g/><g/><g/><g/></svg>