<svg id="Capa_1" xmlns="http://www.w3.org/2000/svg" xmlns:xlink="http://www.w3.org/1999/xlink" width="468.307" height="468.307" viewBox="0 0 468.307 468.307" style="enable-background:new 0 0 468.307 468.307"><g><g><path d="M355.663 68.614c-7.891-5.086-18.412-2.813-23.498 5.08-12.323 19.121-21.019 31.104-28.988 35.775-6.691 3.921-15.863 4.241-33.875 3.467l-10.279-4.733-9.211-7.767-14.165 14.089 12.542 83.861c.043.283-.029.575-.198.807l-12.956 17.73c-.206.282-.535.45-.884.45-.35.0-.679-.168-.885-.45l-12.953-17.73c-.17-.231-.242-.523-.2-.807l12.544-83.864-14.162-14.086-9.212 7.767-10.281 4.733c-18.013.774-27.181.452-33.872-3.467-7.971-4.671-16.665-16.654-28.989-35.775-5.086-7.892-15.608-10.166-23.498-5.08-7.893 5.087-10.167 15.607-5.08 23.499 15.819 24.545 26.408 38.506 40.381 46.692 10.794 6.325 22.021 8.205 35.13 8.446l.025 103.683c0 8.776 3.086 16.598 8.059 23.131l.008 174.805c0 10.734 8.703 19.439 19.439 19.438 10.735.0 19.439-8.703 19.438-19.439l-.006-154.104c1.381.116 2.756.182 4.116.182 1.362.0 2.735-.064 4.118-.182l-.002 154.104c0 10.736 8.702 19.439 19.439 19.439 10.733.0 19.438-8.703 19.438-19.439l.002-174.803c4.973-6.533 8.059-14.354 8.059-23.131l.027-103.683c13.107-.241 24.336-2.122 35.13-8.446 13.973-8.187 24.562-22.147 40.381-46.692C365.83 84.221 363.555 73.701 355.663 68.614z"/><path d="M234.151 99.787c23.604.0 41.222-21.993 41.622-58.876C276.029 15.316 263.841.0 234.151.0c-29.692.0-41.88 15.316-41.624 40.911C192.927 77.794 210.543 99.787 234.151 99.787z"/></g></g><g/><g/><g/><g/><g/><g/><g/><g/><g/><g/><g/><g/><g/><g/><g/></svg>