<svg id="Capa_1" xmlns="http://www.w3.org/2000/svg" xmlns:xlink="http://www.w3.org/1999/xlink" width="470.531" height="470.531" viewBox="0 0 470.531 470.531" style="enable-background:new 0 0 470.531 470.531"><g><g><path d="M447.627 265.357c-1.521-10.379-2.832-20.809-4.102-30.895-6.736-53.569-12.553-99.833-46.047-115.904-.031-.015-21.23-9.842-21.23-9.842l-9.254-7.804-14.002 13.924 13.443 89.876c.047.308-.031.622-.215.872l-14.004 19.164c-.223.306-.578.487-.955.487-.379.0-.734-.182-.957-.487l-14.002-19.164c-.186-.25-.26-.564-.215-.872l13.441-89.872-14.002-13.928-9.256 7.804c0 0-21.27 9.851-22.115 10.355-18.417 9.326-28.247 29.66-37.754 49.341-6.77 14.016-13.278 27.49-21.936 36.046 4.996 2.364 9.104 6.235 11.785 11.187 3.232 5.967 4.018 12.806 2.246 19.331 17.838-12.598 27.947-33.503 37.104-52.46 1.436-2.972 2.881-5.963 4.344-8.883l.021 78.492c0 8.818 3.098 16.676 8.094 23.238L308.07 451c0 10.787 8.744 19.531 19.531 19.529 10.787.0 19.531-8.744 19.531-19.531l-.01-154.837c1.389.118 2.77.185 4.139.185 1.367.0 2.75-.065 4.139-.185L355.398 451c0 10.785 8.744 19.529 19.531 19.529 10.785.0 19.531-8.744 19.531-19.529l.002-175.637c4.994-6.562 8.094-14.42 8.094-23.238l.018-68.923c3.855 16.197 6.34 35.904 8.777 55.306 1.289 10.25 2.623 20.848 4.191 31.553 1.184 8.063 8.109 13.863 16.021 13.863.783.0 1.576-.057 2.373-.174C442.797 282.452 448.926 274.217 447.627 265.357z"/><path d="M351.262 100.261c23.717.0 41.416-22.099 41.82-59.157C393.34 15.388 381.094.0 351.262.0c-29.836.0-42.084 15.389-41.82 41.104C309.842 78.162 327.541 100.261 351.262 100.261z"/><path d="M239.159 212.59c-15.988-4.752-25.236-23.902-35.029-44.178-9.506-19.681-19.336-40.015-37.754-49.341-.848-.505-23.418-10.856-47.104-10.856-25.189.0-46.188 10.329-46.219 10.343-33.494 16.071-39.311 62.335-46.047 115.904-1.27 10.086-2.58 20.516-4.102 30.895-1.299 8.859 4.83 17.095 13.689 18.394.797.117 1.59.175 2.373.175 7.912.0 14.838-5.803 16.021-13.863 1.568-10.707 2.902-21.305 4.191-31.553 2.439-19.402 4.922-39.109 8.777-55.307l.018 68.923c0 8.818 3.1 16.677 8.094 23.238L76.069 451c0 10.787 8.744 19.531 19.531 19.531s19.531-8.744 19.531-19.531l-.002-154.838c1.389.118 2.771.184 4.139.184s2.75-.064 4.137-.184L123.397 451c0 10.785 8.744 19.529 19.531 19.531 10.787.0 19.531-8.744 19.531-19.529l.01-175.638c4.996-6.563 8.094-14.42 8.094-23.238l.021-78.492c1.463 2.92 2.908 5.911 4.344 8.883 11.846 24.525 25.271 52.323 54.988 61.157 1.541.457 3.096.676 4.627.676 6.988.0 13.441-4.557 15.533-11.599C252.631 224.167 247.741 215.141 239.159 212.59z"/><path d="M119.27 100.261c23.721.0 41.42-22.099 41.82-59.157C161.354 15.388 149.106.0 119.27.0 89.438.0 77.192 15.389 77.45 41.104 77.854 78.162 95.553 100.261 119.27 100.261z"/></g></g><g/><g/><g/><g/><g/><g/><g/><g/><g/><g/><g/><g/><g/><g/><g/></svg>