<svg id="Capa_1" xmlns="http://www.w3.org/2000/svg" xmlns:xlink="http://www.w3.org/1999/xlink" width="459.999" height="459.999" viewBox="0 0 459.999 459.999" style="enable-background:new 0 0 459.999 459.999"><g><g><path d="M352.909 290.266c-1.258-8.59-2.344-17.218-3.396-25.561-5.573-44.318-10.387-82.592-38.096-95.887-.025-.012-17.561-8.142-17.561-8.142l-7.658-6.456-11.879 11.813 10.077 67.367c.033.229-.023.461-.159.646l-10.348 14.16c-.164.227-.428.359-.707.359s-.541-.133-.707-.359l-10.347-14.16c-.136-.188-.192-.418-.158-.646l10.076-67.363-11.881-11.817-7.656 6.456c0 0-25.001 22.608-46.802-1.16-.963-1.266-6.354-5.528-20.299-35.159V6.52c0-3.601-2.918-6.52-6.52-6.52-2.93.0-5.406 1.933-6.227 4.594-.039.0-.076-.007-.113-.007h-59.08c-2.754.0-5.213 1.729-6.141 4.322-.926 2.591-.129 5.488 2 7.236l63.041 51.698v46.565c-1.945-.024-3.928.361-5.811 1.238-6.719 3.124-9.633 11.101-6.508 17.818 4.73 10.169 8.795 18.146 12.318 24.451v23.752c0 3.603 2.92 6.521 6.52 6.521 3.602.0 6.52-2.919 6.52-6.521v-4.532c1.969 2.12 16.961 20.467 45.316 21.983l.023 80.196c0 7.295 2.563 13.797 6.695 19.228l.008 145.299c0 8.925 7.234 16.158 16.16 16.158 8.922.0 16.154-7.235 16.154-16.16l-.007-128.092c1.15.097 2.289.149 3.422.149 1.136.0 2.275-.054 3.427-.149L276.6 443.84c0 8.925 7.237 16.159 16.159 16.159 8.924.0 16.158-7.234 16.158-16.159l.002-145.298c4.135-5.431 6.697-11.933 6.697-19.228l.014-57.022c3.189 13.401 5.244 29.708 7.264 45.757 1.068 8.479 2.168 17.247 3.47 26.104.977 6.673 6.709 11.468 13.252 11.468.649.0 1.305-.047 1.963-.144C348.913 304.404 353.983 297.593 352.909 290.266z"/><path d="M273.185 153.682c19.62.0 34.264-18.283 34.6-48.94.209-21.274-9.918-34.006-34.6-34.006-24.681.0-34.814 12.731-34.599 34.006C238.922 135.398 253.562 153.682 273.185 153.682z"/></g></g><g/><g/><g/><g/><g/><g/><g/><g/><g/><g/><g/><g/><g/><g/><g/></svg>