<svg id="Capa_1" xmlns="http://www.w3.org/2000/svg" xmlns:xlink="http://www.w3.org/1999/xlink" width="438.306" height="438.305" viewBox="0 0 438.306 438.305" style="enable-background:new 0 0 438.306 438.305"><g><g><path d="M436.669 20.458c-1.086-.699-2.464-.758-3.606-.156-17.421 9.208-35.777 13.878-54.563 13.878-31.858.0-54.275-13.619-54.494-13.754-1.152-.715-2.615-.715-3.769-.002-.223.137-22.64 13.753-54.499 13.756-.002.0-.004.0-.006.0-6.109.0-12.172-.503-18.175-1.487.653.614 1.319 1.214 1.949 1.851 16.953 17.125 25.387 42.148 25.063 74.379-.332 30.482-5.953 57.542-16.41 79.601 17.278 27.229 38.147 48.777 62.033 64.045.588.377 1.258.564 1.927.564s1.338-.188 1.926-.564c23.93-15.295 44.83-36.894 62.126-64.19 13.776-21.744 25.308-47.136 34.272-75.471 15.241-48.16 17.833-88.821 17.855-89.228C438.38 22.387 437.755 21.156 436.669 20.458zM399.993 106.435c-8.408 26.572-19.156 50.277-31.94 70.46-8.438 13.314-17.853 25.182-28.058 35.375V50.092c12.61 3.677 25.541 5.538 38.504 5.538 11.728.0 23.394-1.54 34.757-4.581C410.872 65.252 406.774 85.001 399.993 106.435z"/><path d="M275.513 276.553l-48.898-22.513-23.491-19.812-37.464 37.266 16.73 111.854c.059.39-.039.788-.271 1.105l-17.725 24.259c-.283.388-.732.615-1.211.615s-.93-.229-1.211-.615l-17.725-24.259c-.232-.317-.33-.716-.271-1.105l16.73-111.857-37.465-37.263L99.75 254.041l-48.897 22.513c-7.236 2.969-15.012 8.225-17.961 15.323.0.0-53.15 126.541-24.322 126.541h309.227c28.828.0-24.321-126.541-24.321-126.541C290.325 284.346 282.748 279.522 275.513 276.553z"/><path d="M163.181 233.516c50.01.0 87.329-46.595 88.179-124.735.544-54.221-25.279-86.671-88.179-86.671s-88.728 32.45-88.178 86.671C75.853 186.921 113.171 233.516 163.181 233.516z"/></g></g><g/><g/><g/><g/><g/><g/><g/><g/><g/><g/><g/><g/><g/><g/><g/></svg>