<svg id="Capa_1" xmlns="http://www.w3.org/2000/svg" xmlns:xlink="http://www.w3.org/1999/xlink" width="469.589" height="469.59" viewBox="0 0 469.589 469.59" style="enable-background:new 0 0 469.589 469.59"><g><g><path d="M305.46 324.479l-50.019-23.029-24.028-20.264-38.448 38.242 16.8 112.314c.059.39-.04.788-.271 1.105l-17.726 24.26c-.282.387-.731.614-1.211.614-.479.0-.929-.229-1.211-.614l-17.724-24.26c-.232-.317-.331-.716-.272-1.105l16.799-112.314-38.447-38.242-24.028 20.264-50.02 23.029c-7.399 3.035-14.533 7.316-18.372 15.674.0.0-54.367 129.438-24.878 129.438H348.71c29.489.0-24.878-129.438-24.878-129.438C320.611 332.449 312.861 327.514 305.46 324.479z"/><path d="M190.556 280.454c51.154.0 89.329-47.662 90.198-127.589.555-55.463-25.86-88.656-90.198-88.656-64.341.0-90.759 33.192-90.197 88.656C101.228 232.793 139.4 280.454 190.556 280.454z"/><path d="M328 0c-39.819.0-75.088 19.834-96.456 50.14 5.825 1.771 11.34 3.946 16.522 6.515 11.285-14.68 26.519-26.175 44.099-32.885-2.576 3.969-4.99 8.399-7.216 13.292-3.866 8.486-7.051 18.039-9.509 28.337-3.326.791-6.562 1.667-9.72 2.61 1.846 1.513 3.634 3.085 5.339 4.737 6.799 6.587 12.407 14.212 16.788 22.731.53-5.402 1.233-10.608 2.105-15.568 7.519-1.326 15.574-2.281 24.074-2.785 2.961 4.582 8.108 7.618 13.972 7.618s11.008-3.036 13.973-7.618c8.5.504 16.556 1.459 24.074 2.785 1.322 7.515 2.28 15.567 2.787 24.075-4.583 2.958-7.625 8.107-7.625 13.968.0 5.861 3.042 11.01 7.625 13.969-.507 8.508-1.465 16.559-2.787 24.075-7.519 1.325-15.574 2.281-24.074 2.786-2.965-4.583-8.109-7.619-13.973-7.619s-11.011 3.036-13.972 7.619c-5.193-.308-10.196-.804-15.036-1.43-.252 5.861-.68 11.583-1.288 17.145 5.174.651 10.456 1.146 15.822 1.458 2.853 5.044 8.265 8.449 14.474 8.449 6.208.0 11.621-3.405 14.472-8.449 6.618-.384 13.115-1.033 19.428-1.931-8.024 27.759-21.421 44.703-33.899 44.703-11.201.0-23.137-13.656-31.27-36.525-1.807 15.21-9.983 40.292-12.162 45.418 13.447 5.344 28.103 8.284 43.432 8.284 65.042.0 117.952-52.91 117.952-117.951S393.042.0 328 0zM385.999 103.479c-.379-6.622-1.03-13.117-1.928-19.43 27.758 8.029 44.708 21.423 44.708 33.903.0 12.479-16.949 25.875-44.708 33.903.897-6.313 1.548-12.807 1.928-19.429 5.044-2.856 8.454-8.265 8.454-14.474S391.042 106.335 385.999 103.479zM342.472 59.949c-2.851-5.042-8.264-8.447-14.472-8.447-6.209.0-11.621 3.405-14.474 8.447-6.617.386-13.113 1.035-19.427 1.933 8.024-27.76 21.42-44.703 33.9-44.703 12.479.0 25.875 16.943 33.9 44.703C355.587 60.983 349.09 60.335 342.472 59.949zM363.834 23.77c26.79 10.226 48.125 31.561 58.351 58.345-3.971-2.571-8.404-4.986-13.289-7.213-8.492-3.868-18.042-7.052-28.337-9.502-2.459-10.298-5.643-19.852-9.511-28.337C368.825 32.169 366.411 27.738 363.834 23.77zM363.834 212.135c2.576-3.969 4.99-8.399 7.214-13.292 3.868-8.486 7.052-18.039 9.511-28.336 10.296-2.452 19.845-5.635 28.337-9.504 4.885-2.227 9.317-4.641 13.289-7.213C411.959 180.573 390.625 201.908 363.834 212.135z"/></g></g><g/><g/><g/><g/><g/><g/><g/><g/><g/><g/><g/><g/><g/><g/><g/></svg>