<svg id="Capa_1" xmlns="http://www.w3.org/2000/svg" xmlns:xlink="http://www.w3.org/1999/xlink" width="434.16" height="434.16" viewBox="0 0 434.16 434.16" style="enable-background:new 0 0 434.16 434.16"><g><g><path d="M147.6 239.154c.671.098 1.337.145 1.994.145 6.65.0 12.471-4.875 13.464-11.648 1.319-8.998 2.439-17.904 3.523-26.518 2.05-16.305 4.138-32.867 7.379-46.479l.015 57.87c0 7.41 2.604 14.014 6.802 19.528l.01 147.595c0 9.064 7.35 16.412 16.414 16.412s16.413-7.35 16.412-16.414l-.009-130.115c1.166.098 2.327.153 3.477.153 1.149.0 2.312-.056 3.479-.153l-.004 130.117c0 9.062 7.349 16.412 16.414 16.412 9.063.0 16.412-7.35 16.412-16.412l.004-147.598c4.196-5.514 6.801-12.116 6.801-19.525l.016-57.921c3.24 13.612 5.328 30.174 7.379 46.479 1.083 8.612 2.203 17.519 3.522 26.517.992 6.774 6.812 11.647 13.464 11.647.656.0 1.323-.047 1.994-.146 7.443-1.093 12.595-8.013 11.503-15.457-1.279-8.722-2.383-17.486-3.447-25.963-5.662-45.017-10.552-83.895-38.697-97.399-.024-.012-17.84-8.271-17.84-8.271l-7.778-6.559-11.725 11.662 11.964 79.987c.041.273-.028.552-.19.775l-12.421 17c-.198.271-.513.432-.849.432s-.651-.16-.849-.432l-12.42-17c-.163-.224-.232-.502-.191-.775l11.964-79.987L203.86 85.452l-7.778 6.559c0 0-17.978 8.33-18.722 8.785-27.354 13.895-32.214 52.403-37.815 96.938-1.065 8.477-2.168 17.242-3.447 25.964C135.005 231.142 140.155 238.062 147.6 239.154z"/><path d="M217.08 84.906c19.932.0 34.805-18.571 35.143-49.712C252.439 13.583 242.148.65 217.08.65c-25.07.0-35.362 12.932-35.143 34.542C182.274 66.333 197.148 84.906 217.08 84.906z"/><path d="M281.052 339.401c-5.4-2.745-11.333-5.104-17.669-7.053v24.702c15.487 6 24.991 14.561 24.991 22.594.0 14.393-30.489 30.49-71.294 30.49-40.805.0-71.294-16.098-71.294-30.49.0-8.033 9.507-16.598 24.999-22.598l-.002-24.699c-6.338 1.947-12.272 4.309-17.676 7.054-19.795 10.062-30.697 24.354-30.697 40.243s10.902 30.182 30.697 40.242c17.283 8.785 40.002 13.623 63.973 13.623 23.971.0 46.689-4.838 63.972-13.623 19.795-10.061 30.697-24.354 30.697-40.242S300.848 349.463 281.052 339.401z"/><path d="M431.188 374.844l-42.484-21.301c-1.669-.838-3.654-.75-5.243.23-1.59.98-2.558 2.717-2.558 4.584v6.201H331.66c-2.975.0-5.387 2.412-5.387 5.389v19.418c0 2.975 2.412 5.387 5.387 5.387h49.242v6.201c0 1.869.968 3.604 2.557 4.584.865.533 1.847.803 2.83.803.825.0 1.653-.188 2.414-.57l42.484-21.295c1.822-.912 2.973-2.775 2.973-4.814S433.01 375.758 431.188 374.844z"/><path d="M102.5 364.559H53.258v-6.201c0-1.867-.968-3.604-2.558-4.584-1.589-.98-3.573-1.068-5.243-.23L2.973 374.844C1.151 375.758.0 377.621.0 379.658c0 2.039 1.15 3.902 2.973 4.814l42.484 21.297c.762.381 1.589.57 2.414.57.983.0 1.965-.27 2.83-.803 1.589-.982 2.557-2.717 2.557-4.584v-6.203H102.5c2.975.0 5.387-2.412 5.387-5.387v-19.418C107.887 366.973 105.475 364.559 102.5 364.559z"/></g></g><g/><g/><g/><g/><g/><g/><g/><g/><g/><g/><g/><g/><g/><g/><g/></svg>