<svg id="Capa_1" xmlns="http://www.w3.org/2000/svg" xmlns:xlink="http://www.w3.org/1999/xlink" width="446.064" height="446.064" viewBox="0 0 446.064 446.064" style="enable-background:new 0 0 446.064 446.064"><g><g><path d="M369.46.0c-40.651.0-73.716 31.416-73.716 70.038.0 26.926 10.43 42.211 20.515 56.996 8.41 12.324 17.12 25.057 17.648 42.308l.735 33.698c0 5.032 4.073 9.116 9.091 9.116h5.557c1.723 9.58 10.096 16.843 20.17 16.843 10.069.0 18.433-7.263 20.149-16.843h5.567c5.018.0 9.102-4.084 9.102-9.116l.768-33.685c.53-17.223 9.223-29.98 17.633-42.313 10.062-14.776 20.485-30.063 20.487-57.004C443.166 31.417 410.106.0 369.46.0zM369.454 146.142 358.15 81.825c-.254-1.941.817-3.447 1.297-4.008.9-1.049 2.108-1.71 3.084-1.71 1.231.0 2.178.917 2.637 1.475 1.058 1.276 2.619 2.027 4.287 2.027 1.657.0 3.212-.752 4.277-2.027.459-.558 1.397-1.475 2.629-1.475 1.083.0 2.312.639 3.208 1.683.571.655 1.453 2.051 1.185 4.027L369.454 146.142zM407.617 116.807c-7.726 11.349-17.101 25.076-19.948 43.174l-9.363-.003 13.396-76.313c.006-.044.011-.076.017-.117.709-4.684-.643-9.409-3.718-12.995-2.98-3.481-7.327-5.551-11.639-5.551-2.423.0-4.786.651-6.906 1.868-2.142-1.217-4.508-1.868-6.925-1.868-4.272.0-8.461 2.028-11.495 5.563-3.137 3.647-4.54 8.381-3.858 12.968.012.042.019.086.025.131l13.393 76.306-9.312-.002c-2.842-18.105-12.242-31.849-19.995-43.194-9.291-13.657-17.339-25.435-17.339-46.736.0-28.572 24.909-51.825 55.512-51.825 30.605.0 55.492 23.253 55.492 51.825C424.952 91.358 416.927 103.136 407.617 116.807z"/><path d="M289.614 298.432l-50.888-23.428-24.446-20.617-39.216 39.008 16.859 112.71c.059.39-.04.788-.272 1.105l-17.725 24.259c-.282.388-.732.615-1.211.615s-.929-.229-1.211-.615l-17.724-24.259c-.232-.317-.331-.716-.272-1.105l16.859-112.71-39.216-39.006-24.446 20.615-50.888 23.428c-7.529 3.09-15.319 8.685-18.691 15.947.0.0-55.311 131.686-25.311 131.686h321.8c30 0-25.311-131.686-25.311-131.686C305.028 306.541 297.144 301.521 289.614 298.432z"/><path d="M172.715 253.645c52.043.0 90.88-48.489 91.766-129.805.564-56.427-26.31-90.195-91.766-90.195-65.458.0-92.336 33.769-91.763 90.195C81.835 205.155 120.671 253.645 172.715 253.645z"/></g></g><g/><g/><g/><g/><g/><g/><g/><g/><g/><g/><g/><g/><g/><g/><g/></svg>