<svg id="Capa_1" xmlns="http://www.w3.org/2000/svg" xmlns:xlink="http://www.w3.org/1999/xlink" width="460" height="460" viewBox="0 0 460 460" style="enable-background:new 0 0 460 460"><g><g><path d="M298.631 250.736c4.292-6.775 25.863-41.667 28.739-63.061.352-2.617.035-5.282-.917-7.747-2.988-7.727-25.197-52.587-51.563-65.235-.022-.013-20.537-9.523-20.537-9.523l-8.949-7.553-13.808 13.743 13.543 90.546c.045.304-.031.614-.212.862l-13.806 18.896c-.221.301-.57.479-.943.479s-.725-.178-.943-.479l-13.807-18.896c-.181-.248-.257-.558-.211-.862l13.545-90.559-13.795-13.731-8.953 7.553c0 0-20.401 9.328-20.911 9.572-26.362 12.648-48.571 57.507-51.56 65.235-.952 2.466-1.267 5.128-.919 7.748 2.876 21.394 24.447 56.285 28.741 63.062 2.99 4.711 8.068 7.29 13.264 7.289 2.733.0 5.497-.725 8.003-2.217 1.263 3.545 3.061 6.845 5.275 9.873l.009 175.239c.002 10.511 8.524 19.029 19.032 19.028 10.514.0 19.032-8.52 19.03-19.03l.203-154.465c1.342.113 2.681.179 4 .179 1.272.0 2.56-.063 3.85-.17l-.004 154.457c0 10.511 8.518 19.029 19.029 19.029 10.508.0 19.029-8.519 19.029-19.028l.003-174.745c2.352-3.121 4.266-6.541 5.591-10.229 2.423 1.368 5.067 2.031 7.685 2.031C290.559 258.029 295.641 255.448 298.631 250.736z"/><path d="M230.182 96.993c22.939.0 40.064-21.381 40.453-57.225C270.883 14.888 259.037.0 230.182.0c-28.859.0-40.705 14.888-40.461 39.768C190.116 75.612 207.231 96.993 230.182 96.993z"/><path d="M429.655 230.834c-2.446-6.322-20.618-43.029-42.193-53.377-.019-.011-16.804-7.792-16.804-7.792l-7.324-6.18-11.461 11.408c.001.006.005.011.006.017l10.253 76.209c.034.222-.021.447-.153.629l-10.077 13.793c-.161.221-.418.35-.688.35-.271.0-.529-.129-.688-.35l-10.078-13.793c-.132-.182-.188-.407-.154-.629l9.553-76.21c.004-.018.015-.033.019-.05l-11.429-11.374-3.738 3.154c2.565 5.135 3.967 8.418 4.017 8.549 1.749 4.522 2.331 9.448 1.683 14.247-3.073 22.866-23.166 56.42-30.122 67.483l-2.513 3.587c-5.447 6.731-13.595 10.666-22.396 10.666-.043.0-.086.0-.131.0v1.716c4.133 7.592 7.909 13.668 9.339 15.928 2.446 3.854 6.602 5.965 10.854 5.963 2.236.0 4.497-.592 6.55-1.812 1.032 2.899 2.504 5.602 4.313 8.077l.01 143.389c0 8.601 6.975 15.57 15.571 15.569 8.604.0 15.572-6.971 15.57-15.571l.168-126.389c1.099.092 2.191.146 3.271.146 1.042.0 2.096-.052 3.149-.139l-.003 126.383c0 8.601 6.969 15.57 15.572 15.57 8.597.0 15.567-6.97 15.567-15.569l.003-142.984c1.925-2.554 3.491-5.353 4.576-8.369 1.981 1.12 4.145 1.662 6.286 1.662 4.252.0 8.409-2.112 10.854-5.966 3.513-5.545 21.162-34.094 23.516-51.6C430.694 235.033 430.436 232.852 429.655 230.834zM391.493 264.463l.006-48.621c5.325 7.298 10.147 15.503 12.79 21.02C402.314 243.909 396.881 254.891 391.493 264.463z"/><path d="M350.881 162.973c18.771.0 32.783-17.495 33.102-46.825.201-20.357-9.489-32.539-33.102-32.539-23.615.0-33.307 12.182-33.104 32.539C318.098 145.478 332.104 162.973 350.881 162.973z"/><path d="M152.204 260.518l-2.176-3.069c-6.658-10.542-27.306-44.737-30.431-67.97-.64-4.81-.057-9.728 1.688-14.237.049-.134 1.489-3.508 4.125-8.767l-3.541-2.988-11.473 11.42c0 .002.001.003.001.005l10.253 76.209c.034.222-.021.448-.154.629l-10.077 13.793c-.161.22-.417.351-.688.351-.272.0-.529-.131-.688-.351l-10.078-13.793c-.132-.181-.188-.407-.154-.629l9.553-76.21c.003-.022.016-.039.021-.061l-11.414-11.364-7.327 6.18c0 0-16.695 7.632-17.111 7.831-21.571 10.35-39.743 47.055-42.189 53.379-.778 2.018-1.036 4.196-.75 6.338 2.354 17.506 20.002 46.057 23.517 51.602 2.446 3.854 6.601 5.963 10.854 5.963 2.236.0 4.497-.594 6.548-1.813 1.033 2.899 2.502 5.601 4.315 8.077l.008 143.389c0 8.601 6.975 15.57 15.573 15.569 8.603.0 15.571-6.971 15.57-15.571l.168-126.389c1.096.092 2.192.146 3.272.146 1.042.0 2.093-.053 3.148-.14l-.003 126.383c0 8.601 6.969 15.57 15.57 15.57 8.599.0 15.571-6.97 15.571-15.569l.002-142.984c1.926-2.555 3.491-5.353 4.576-8.369 1.981 1.119 4.145 1.662 6.287 1.662 4.25.0 8.409-2.112 10.856-5.965 1.429-2.26 5.206-8.336 9.339-15.928v-1.627c-.047.0-.09.0-.135.0C165.81 271.221 157.647 267.268 152.204 260.518zM55.705 236.902c2.695-5.62 7.649-14.035 13.092-21.435l.011 49.579C63.319 255.355 57.717 244.095 55.705 236.902z"/><path d="M109.416 162.973c18.769.0 32.78-17.495 33.101-46.825.2-20.357-9.491-32.539-33.101-32.539-23.615.0-33.307 12.182-33.105 32.539C76.632 145.478 90.639 162.973 109.416 162.973z"/></g></g><g/><g/><g/><g/><g/><g/><g/><g/><g/><g/><g/><g/><g/><g/><g/></svg>