<svg id="Capa_1" xmlns="http://www.w3.org/2000/svg" xmlns:xlink="http://www.w3.org/1999/xlink" width="465.793" height="465.793" viewBox="0 0 465.793 465.793" style="enable-background:new 0 0 465.793 465.793"><g><path d="M401.322 465.793l7.222-16.993H16.993V57.25L0 64.471 27.193.0l27.193 64.471L37.393 57.25V428.4h371.151l-7.222-16.993 64.471 27.193L401.322 465.793zM71.393 401.2h68v-81.6h-68V401.2zm170 0V244.8h-68v156.4h68zM288.993 401.2h68V176.8h-68V401.2zM69.102 221.259l4.583 19.883c73.896-17.054 185.13-66.47 261.746-150.076l25.473 18.965 9.689-82.831-76.574 33.021 24.976 18.604C245.616 158.053 139.665 204.979 69.102 221.259z"/></g><g/><g/><g/><g/><g/><g/><g/><g/><g/><g/><g/><g/><g/><g/><g/></svg>