<svg id="Capa_1" xmlns="http://www.w3.org/2000/svg" xmlns:xlink="http://www.w3.org/1999/xlink" width="438.042" height="438.043" viewBox="0 0 438.042 438.043" style="enable-background:new 0 0 438.042 438.043"><g><g><path d="M221.572 182.453c8.132-1.836 13.234-9.916 11.399-18.047-1.836-8.132-9.911-13.232-18.048-11.399-10.181 2.298-21.403 4.194-26.979 4.63-2.003-2.505-4.868-6.77-7.108-10.104-8.844-13.163-19.85-29.544-35.721-37.159-.025-.012-19.765-9.163-19.765-9.163l-8.615-7.265-12.999 12.93 12.982 86.79c.044.297-.03.6-.208.842l-13.499 18.477c-.215.294-.558.469-.922.469-.364.0-.708-.175-.922-.469l-13.499-18.477c-.177-.242-.251-.545-.208-.842l12.981-86.789L87.44 93.947l-8.615 7.265c0 0-19.799 9.169-20.586 9.639-23.802 11.877-32.191 35.989-37.396 68.494-3.372 21.061 5.337 34.501 14.557 48.731 1.945 3.004 3.958 6.107 5.992 9.471 2.838 4.688 7.82 7.279 12.928 7.279.508.0 1.017-.033 1.525-.086 1.293 4.227 3.366 8.119 6.026 11.613l.01 163.508c0 10.041 8.142 18.182 18.184 18.182s18.183-8.143 18.182-18.184l-.009-144.146c1.293.109 2.578.171 3.852.171s2.56-.062 3.852-.171l-.002 144.146c-.001 10.043 8.14 18.184 18.183 18.184 10.041.0 18.183-8.141 18.183-18.184l.003-163.506c4.651-6.111 7.536-13.426 7.536-21.635l.019-78.961c2.117 2.964 4.112 5.926 5.916 8.611 6.56 9.763 11.741 17.475 18.864 21.221 1.867.981 4.367 2.297 11.105 2.297C192.401 187.885 203.186 186.603 221.572 182.453zM50.652 184.116c1.141-7.126 2.359-13.141 3.666-18.236l.009 35.419C50.72 194.806 49.641 190.43 50.652 184.116z"/><path d="M102.089 93.339c22.08.0 38.556-20.573 38.933-55.072C141.26 14.327 129.861.0 102.089.0 74.315.0 62.912 14.326 63.156 38.267 63.531 72.766 80.007 93.339 102.089 93.339z"/><path d="M322.192 270.124h-36.64c-3.588.0-6.499 2.907-6.499 6.496v153.032c0 3.592 2.911 6.5 6.499 6.5h36.64c3.59.0 6.499-2.908 6.499-6.5V276.62C328.691 273.031 325.782 270.124 322.192 270.124z"/><path d="M245.969 314.961h-36.64c-3.59.0-6.5 2.908-6.5 6.496v108.195c0 3.592 2.91 6.5 6.5 6.5h36.64c3.588.0 6.497-2.908 6.497-6.5V321.458C252.466 317.87 249.557 314.961 245.969 314.961z"/><path d="M398.417 240.232h-36.64c-3.588.0-6.499 2.906-6.499 6.496v182.924c0 3.592 2.911 6.5 6.499 6.5h36.64c3.589.0 6.498-2.908 6.498-6.5V246.729C404.915 243.139 402.004 240.232 398.417 240.232z"/><path d="M416.384 126.819c-1.827-2.323-4.879-3.31-7.723-2.496l-100.247 28.688c-2.994.857-5.111 3.524-5.267 6.635s1.688 5.975 4.581 7.124l17.25 6.852c-64.011 34.268-134.308 51.31-135.055 51.487-9.106 2.168-14.753 11.34-12.588 20.445 1.888 7.93 9.159 13.41 17.292 13.035 1.054-.049 2.114-.197 3.149-.443 3.408-.811 80.897-19.494 150.86-58.759l3.342 23.632c.436 3.082 2.786 5.547 5.845 6.129 3.057.584 6.15-.848 7.688-3.555l51.479-90.683C418.452 132.34 418.211 129.142 416.384 126.819z"/></g></g><g/><g/><g/><g/><g/><g/><g/><g/><g/><g/><g/><g/><g/><g/><g/></svg>