<svg id="Capa_1" xmlns="http://www.w3.org/2000/svg" xmlns:xlink="http://www.w3.org/1999/xlink" width="468.307" height="468.307" viewBox="0 0 468.307 468.307" style="enable-background:new 0 0 468.307 468.307"><g><g><path d="M285.234 147.251c13.106-.241 24.336-2.122 35.13-8.446 13.973-8.186 24.562-22.147 40.381-46.692 5.087-7.892 2.813-18.413-5.08-23.499-7.891-5.086-18.412-2.813-23.498 5.08-12.323 19.121-21.019 31.105-28.988 35.775-6.691 3.921-15.863 4.241-33.876 3.467l-10.278-4.734-9.211-7.766-14.021 13.945 13.403 89.608c.046.306-.03.618-.213.867l-13.883 19c-.223.303-.574.482-.949.482s-.729-.179-.948-.482l-13.883-19c-.183-.249-.259-.561-.213-.867l13.404-89.612-14.016-13.941-9.212 7.766-10.281 4.734c-18.013.775-27.181.453-33.872-3.467-7.971-4.67-16.665-16.654-28.989-35.775-5.086-7.892-15.608-10.166-23.498-5.08-7.893 5.086-10.167 15.607-5.08 23.499 15.819 24.545 26.408 38.506 40.381 46.692 10.794 6.325 22.021 8.205 35.13 8.446l.025 103.683c0 8.777 3.086 16.598 8.059 23.131l.008 174.805c0 10.734 8.703 19.439 19.439 19.438 10.735.0 19.439-8.705 19.438-19.439l-.006-154.104c1.381.117 2.756.183 4.116.183 1.363.0 2.735-.065 4.119-.183l-.002 154.104c0 10.736 8.701 19.439 19.438 19.439 10.734.0 19.438-8.703 19.438-19.439l.002-174.803c4.973-6.533 8.059-14.354 8.059-23.131L285.234 147.251z"/><path d="M234.153 99.787c23.604.0 41.222-21.994 41.623-58.876C276.031 15.316 263.843.0 234.153.0c-29.692.0-41.88 15.316-41.624 40.911C192.929 77.793 210.545 99.787 234.153 99.787z"/><g><path d="M375.77 252.615l-16.039-7.383-7.705-6.498-12.162 12.094 5.559 37.168c.021.132-.013.267-.092.373l-5.997 8.209c-.096.131-.248.207-.41.207-.161.0-.313-.076-.408-.207l-5.998-8.209c-.078-.106-.111-.241-.093-.373l5.561-37.168-12.162-12.096-7.705 6.498-16.039 7.385c-2.373.975-4.571 2.062-5.893 5.025.0.0-17.434 41.508-7.978 41.508H389.64c9.456.0-7.979-41.508-7.979-41.508C380.74 255.412 378.143 253.591 375.77 252.615z"/><path d="M338.924 238.499c16.404.0 28.646-15.283 28.924-40.914.182-17.785-8.29-28.43-28.924-28.43-20.633.0-29.104 10.645-28.924 28.43C310.278 223.216 322.519 238.499 338.924 238.499z"/><path d="M451.632 260.619c-1.048-2.535-3.242-3.735-5.432-4.633l-14.787-6.81-7.104-5.991-11.146 11.086 5.118 34.221c.02.125-.012.25-.086.351l-5.603 7.668c-.09.122-.23.194-.384.194-.15.0-.294-.072-.383-.194l-5.602-7.668c-.074-.101-.104-.226-.086-.351l5.123-34.254-11.111-11.053-7.104 5.991-8.438 3.886c2.175 1.516 4.175 3.531 5.067 5.641.163.392 4.05 9.668 7.415 19.998 3.141 9.637 4.44 15.934 4.737 20.186h57.156C467.705 298.887 451.632 260.619 451.632 260.619z"/><path d="M412.231 242.972c15.124.0 26.408-14.091 26.665-37.721.167-16.397-7.645-26.21-26.665-26.21-19.021.0-26.831 9.813-26.666 26.21C385.822 228.881 397.107 242.972 412.231 242.972z"/><path d="M166.231 252.615l-16.039-7.383-7.705-6.498-12.162 12.096 5.56 37.167c.02.132-.014.267-.092.374l-5.998 8.207c-.095.132-.247.209-.409.209s-.314-.077-.41-.209l-5.997-8.207c-.079-.107-.111-.242-.092-.374l5.559-37.167-12.162-12.096-7.705 6.498-16.039 7.385c-2.373.975-4.971 2.795-5.892 5.025.0.0-17.434 41.508-7.978 41.508h101.431c9.456.0-7.977-41.508-7.977-41.508C170.802 254.678 168.604 253.591 166.231 252.615z"/><path d="M129.384 238.499c16.405.0 28.646-15.283 28.924-40.914.18-17.785-8.291-28.43-28.924-28.43s-29.104 10.645-28.923 28.43C100.739 223.216 112.98 238.499 129.384 238.499z"/><path d="M83.698 253.064l-8.438-3.887-7.104-5.99L57.045 254.24l5.123 34.254c.019.123-.012.25-.086.35l-5.602 7.668c-.089.122-.231.194-.383.194-.152.0-.294-.072-.383-.194l-5.603-7.668c-.074-.1-.104-.227-.086-.35l5.118-34.223-11.145-11.084-7.104 5.99-14.787 6.809c-2.188.897-4.384 2.099-5.432 4.635.0.0-16.073 38.267-7.355 38.267h57.156c.297-4.252 1.598-10.549 4.738-20.187 3.365-10.328 7.251-19.605 7.415-19.996C79.523 256.595 81.523 254.578 83.698 253.064z"/><path d="M56.077 242.972c15.124.0 26.409-14.091 26.666-37.721.165-16.397-7.645-26.21-26.666-26.21s-26.832 9.813-26.665 26.21C29.669 228.881 40.953 242.972 56.077 242.972z"/></g></g></g><g/><g/><g/><g/><g/><g/><g/><g/><g/><g/><g/><g/><g/><g/><g/></svg>