<svg id="Capa_1" xmlns="http://www.w3.org/2000/svg" xmlns:xlink="http://www.w3.org/1999/xlink" width="452.2" height="452.2" viewBox="0 0 452.2 452.2" style="enable-background:new 0 0 452.2 452.2"
	><g><path d="M226.101 238c5.439.0 12.273.0 16.354-4.08s10.812-14.96 10.846-23.12c.034-9.52-16.605-10.88-27.199-10.88-10.595.0-27.234 1.36-27.2 10.88.034 8.16 6.766 19.04 10.846 23.12S220.66 238 226.101 238zM450.5 452.2h-74.8l-23.8-102-6.8 102h-119-119l-6.8-102-23.8 102H1.7l42.826-191.305c4.923-21.984 22.882-38.658 45.172-41.936L168.3 207.4l39.419 90.433 4.563-45.111c.122-1.407 1.299-2.481 2.706-2.481h22.243c1.401.0 2.57 1.061 2.707 2.454l5.024 44.023 38.931-89.311 78.601 11.56c22.291 3.277 40.25 19.951 45.173 41.936L450.5 452.2zM328.101 329.8 314.5 302.6l-40.8 27.2H328.101zM226.101.0c-48.824.0-88.4 39.576-88.4 88.4.0 48.824 39.576 88.4 88.4 88.4 48.823.0 88.399-39.576 88.399-88.4C314.5 39.576 274.924.0 226.101.0zM264.418 100.3h-30.6c-9.377.0-17-7.623-17-17v-51c0-5.63 4.569-10.2 10.2-10.2 5.63.0 10.199 4.569 10.199 10.2v47.6h27.2c5.631.0 10.2 4.57 10.2 10.2S270.049 100.3 264.418 100.3z"/></g><g/><g/><g/><g/><g/><g/><g/><g/><g/><g/><g/><g/><g/><g/><g/></svg>