<svg id="Capa_1" xmlns="http://www.w3.org/2000/svg" xmlns:xlink="http://www.w3.org/1999/xlink" width="447.686" height="447.687" viewBox="0 0 447.686 447.687" style="enable-background:new 0 0 447.686 447.687"><g><g><path d="M220.72 157.505c-9.908-20.555-20.049-33.102-31-38.356-.027-.014-19.956-9.253-19.956-9.253l-8.7-7.337L147.549 116l11.849 79.214c.04.267-.026.539-.186.756l-12.113 16.578c-.193.264-.5.42-.827.42-.328.0-.635-.156-.828-.42l-12.112-16.578c-.159-.218-.226-.49-.186-.756l11.848-79.213-13.512-13.442-8.7 7.337c0 0-38.518 17.62-52.062 21.436 2.042-8.32 5.105-18.917 8.453-28.906 2.676-7.981-1.625-16.62-9.607-19.295-7.979-2.676-16.618 1.622-19.295 9.604-.162.484-4.021 12.019-7.4 24.512-6.426 23.753-6.812 33.719-1.582 41.019 3.178 4.436 8.112 6.994 13.536 7.016.037.0.072.0.107.0 8.902.0 25.684-4.409 43.096-11.026l.023 90.459c0 8.291 2.913 15.677 7.608 21.847l.01 162.768c.001 10.141 8.222 18.359 18.362 18.358 10.141.0 18.361-8.221 18.36-18.36l-.008-143.217c1.303.11 2.602.174 3.887.174 1.286.0 2.584-.063 3.891-.174l-.004 143.218c0 10.141 8.221 18.359 18.362 18.359 10.14.0 18.358-8.22 18.358-18.358l.004-162.77c3.809-5.001 6.443-10.8 7.303-17.234 1.916.812 3.926 1.205 5.916 1.205 5.26.0 10.377-2.728 13.203-7.607 16.98-29.324 18.85-50.794 19.005-53.146.133-1.971-.119-3.947-.743-5.822C231.393 183.432 227.272 171.098 220.72 157.505zM194.5 212.623l.011-39.23c3.207 6.931 5.654 13.306 6.991 16.963C200.807 194.285 198.985 202.211 194.5 212.623z"/><path d="M146.271 101.947c22.296.0 38.936-20.773 39.315-55.612.239-24.174-11.271-38.641-39.315-38.641-28.044.0-39.558 14.467-39.313 38.641C107.334 81.174 123.973 101.947 146.271 101.947z"/><path d="M381.291.0h-112.68c-15.836.0-28.72 12.883-28.72 28.719v35.612l-32.02 33.601c-4.128 4.334-5.045 10.813-2.281 16.125 2.422 4.646 7.179 7.533 12.416 7.533.7.0 1.406-.053 2.105-.159l27.522-4.184c5.376 5.751 12.972 9.147 20.977 9.147h112.68c15.836.0 28.719-12.883 28.719-28.719V28.719C410.009 12.884 397.126.0 381.291.0zM392.009 97.676c0 5.91-4.809 10.719-10.719 10.719H268.61c-3.787.0-7.338-2.059-9.267-5.373l-3.077-5.294-27.289 4.147 28.913-30.341V28.719c0-5.91 4.81-10.719 10.72-10.719h112.68c5.91.0 10.719 4.809 10.719 10.719V97.676z"/><path d="M332.594 53.225l-6.289-10.893c-.672-1.165-2.161-1.564-3.326-.892l-4.403 2.543c-2.107-1.739-4.504-3.136-7.106-4.112v-5.078c0-1.344-1.091-2.434-2.435-2.434h-12.578c-1.348.0-2.436 1.09-2.436 2.434v5.078c-2.603.976-4.999 2.373-7.105 4.112l-4.406-2.543c-1.163-.672-2.653-.273-3.324.891l-6.288 10.893c-.674 1.165-.274 2.653.891 3.326l4.397 2.54c-.223 1.337-.345 2.708-.345 4.106.0 1.399.122 2.77.345 4.107l-4.397 2.54c-1.165.672-1.563 2.161-.891 3.326l6.288 10.893c.671 1.164 2.161 1.563 3.324.891l4.406-2.543c2.106 1.739 4.504 3.135 7.105 4.111v5.078c0 1.344 1.088 2.435 2.436 2.435h12.578c1.345.0 2.435-1.09 2.435-2.435v-5.078c2.604-.977 4.999-2.373 7.106-4.111l4.403 2.543c1.165.672 2.655.273 3.326-.891l6.289-10.893c.673-1.165.274-2.654-.891-3.326l-4.399-2.54c.224-1.337.345-2.708.345-4.107s-.121-2.77-.344-4.106l4.398-2.54C332.869 55.878 333.267 54.389 332.594 53.225zM302.745 73.429c-5.644.0-10.233-4.59-10.233-10.232s4.591-10.231 10.233-10.231c5.642.0 10.23 4.589 10.23 10.231S308.386 73.429 302.745 73.429z"/><path d="M381.09 64.111l-3.747-1.004c-.199-2.074-.739-4.121-1.615-6.051l2.739-2.739c.725-.725.725-1.901.0-2.626l-6.785-6.784c-.726-.726-1.899-.726-2.625.0l-2.739 2.738c-1.931-.877-3.978-1.417-6.052-1.615l-1.003-3.748c-.266-.99-1.283-1.578-2.273-1.313l-9.268 2.483c-.991.266-1.579 1.284-1.312 2.274l1.001 3.743c-.839.601-1.646 1.274-2.399 2.029-.754.754-1.428 1.559-2.029 2.401l-3.741-1.003c-.99-.265-2.01.323-2.273 1.313l-2.482 9.267c-.267.991.321 2.009 1.312 2.274l3.748 1.004c.198 2.074.738 4.121 1.615 6.05l-2.739 2.739c-.727.725-.727 1.901.0 2.626l6.785 6.784c.724.726 1.898.725 2.625.0l2.738-2.738c1.931.876 3.976 1.417 6.051 1.615l1.004 3.748c.267.99 1.284 1.578 2.274 1.313l9.269-2.483c.989-.265 1.577-1.284 1.312-2.274l-1.003-3.742c.842-.602 1.646-1.275 2.4-2.03.755-.754 1.43-1.56 2.03-2.4l3.74 1.002c.991.266 2.01-.322 2.273-1.313l2.484-9.268C382.669 65.394 382.081 64.376 381.09 64.111zM363.961 70.449c-3.043 3.043-7.994 3.043-11.037.0s-3.043-7.994.0-11.038c3.043-3.042 7.994-3.042 11.037.0S367.004 67.406 363.961 70.449z"/></g></g><g/><g/><g/><g/><g/><g/><g/><g/><g/><g/><g/><g/><g/><g/><g/></svg>