<svg id="Capa_1" xmlns="http://www.w3.org/2000/svg" xmlns:xlink="http://www.w3.org/1999/xlink" width="416.982" height="416.982" viewBox="0 0 416.982 416.982" style="enable-background:new 0 0 416.982 416.982"><g><g><path d="M87.892 59.101c4.443 7.698 9.974 14.928 16.916 20.542 5.491 4.44 11.952 7.854 18.966 9.014.0.0 10.089 1.73 19.493-3.08 5.305-2.713 10.484-7.556 13.502-13.271 3.285-6.218 4.451-13.345 4.201-20.322-.313-8.788-2.763-17.417-6.233-25.454-3.049-7.056-6.872-14.052-12.646-19.262-4.688-4.229-10.535-6.846-16.859-7.217-7.673-.448-15.244 2.099-22.027 5.479-6.944 3.462-13.734 8.036-18.197 14.517-3.607 5.237-5.2 11.468-4.703 17.798C80.904 45.453 84.123 52.571 87.892 59.101z"/><path d="M388.092 240.417l-35.331-62.037c-2.489-4.373-8.054-5.899-12.428-3.408l-23.055 13.129-2.996-5.264c-2.448-4.297-6.998-6.66-11.627-6.539-.42-1.482-1.006-2.939-1.813-4.333-.944-1.633-23.291-40.169-36.904-57.609-25.076-32.124-75.489-32.59-81.158-32.59-1.681.0-6.489.136-7.297.201-11.588.946-20.83-.005-22.523-.753l-1.555 19.255 34.501 59.6c.117.2.132.47.044.749l-6.723 21.249c-.107.339-.354.656-.667.852-.313.197-.653.25-.915.143l-16.435-6.7c-.216-.088-.359-.277-.399-.526l-11.891-73.945-13.328-11.124c0 0-29.182 56.487-91.502 67.062-10.294 1.747-17.613 10.9-16.227 21.25 1.273 9.496 9.389 16.396 18.714 16.396.836.0 1.683-.057 2.535-.17 35.444-4.75 61.769-23.018 78.356-38.605l26.707 90.026c.76 2.56 1.777 4.992 3.006 7.287l-40.71 49.849c-3.426 4.192-5.297 9.44-5.297 14.856v74.775c0 12.973 10.517 23.488 23.488 23.488 12.971.0 23.488-10.517 23.488-23.488v-66.403l41.222-50.471c2.338-.129 4.691-.439 7.045-.922l35.182 63.408c2.466 4.44 6.306 7.967 10.943 10.043.0.0 14.615 6.539 29.242 13.078 7.319 3.27 14.644 6.541 20.144 8.989 2.764 1.234 5.069 2.261 6.688 2.978 3.379 1.5 7.107 3.152 12.016 3.152 1.396.0 2.893-.136 4.499-.443 12.737-2.457 21.071-14.775 18.614-27.513-1.562-8.104-7.116-14.426-14.229-17.317-3.529-1.543-29.81-13.287-50.64-22.605L240.722 240.7c.636-5.019.269-10.228-1.266-15.398l-30.309-102.168c9.677 2.783 19.384 7.313 24.982 14.488 12.009 15.383 33.77 52.907 33.987 53.286.791 1.367 1.734 2.59 2.785 3.678-2.292 3.877-2.512 8.84-.127 13.027l2.998 5.264-23.056 13.129c-4.374 2.49-5.898 8.055-3.41 12.426l35.331 62.039c2.491 4.373 8.056 5.9 12.429 3.408l89.612-51.035C389.056 250.355 390.582 244.79 388.092 240.417zM283.792 207.171l-2.998-5.264c-.364-.645-.164-1.436.421-1.861 1.081.191 2.18.295 3.284.295 3.213.0 6.473-.818 9.453-2.545 3.941-2.281 6.749-5.77 8.23-9.726l.118-.067c.689-.394 1.571-.152 1.966.539l2.997 5.263L283.792 207.171z"/></g></g><g/><g/><g/><g/><g/><g/><g/><g/><g/><g/><g/><g/><g/><g/><g/></svg>