<svg id="Capa_1" xmlns="http://www.w3.org/2000/svg" xmlns:xlink="http://www.w3.org/1999/xlink" width="452.2" height="452.2" viewBox="0 0 452.2 452.2" style="enable-background:new 0 0 452.2 452.2"
	><g><path d="M314.5 88.4c0 48.824-39.576 88.4-88.4 88.4-48.824.0-88.4-39.576-88.4-88.4.0-48.824 39.576-88.4 88.4-88.4C274.924.0 314.5 39.576 314.5 88.4zM226.1 238c5.44.0 12.274.0 16.354-4.08s10.812-14.96 10.846-23.12c.034-9.52-16.605-10.88-27.2-10.88s-27.234 1.36-27.2 10.88c.034 8.16 6.766 19.04 10.846 23.12S220.66 238 226.1 238zM450.5 452.2h-74.8l-23.8-102-6.801 102h-119-119l-6.8-102-23.8 102H1.7l42.826-191.305c4.923-21.984 22.882-38.658 45.172-41.936L168.3 207.4l39.42 90.433 4.562-45.111c.123-1.407 1.299-2.481 2.707-2.481h22.243c1.401.0 2.57 1.061 2.707 2.454l5.024 44.023L283.9 207.4l78.601 11.56c22.291 3.277 40.249 19.951 45.173 41.936L450.5 452.2zM328.1 329.8l-13.6-27.2-40.8 27.2H328.1z"/></g><g/><g/><g/><g/><g/><g/><g/><g/><g/><g/><g/><g/><g/><g/><g/></svg>