<svg id="Capa_1" xmlns="http://www.w3.org/2000/svg" xmlns:xlink="http://www.w3.org/1999/xlink" width="457.317" height="457.317" viewBox="0 0 457.317 457.317" style="enable-background:new 0 0 457.317 457.317"><g><g><path d="M425.966 257.905c-1.479-10.086-2.754-20.226-3.985-30.027-6.549-52.065-12.203-97.029-44.756-112.648-.031-.015-20.634-9.566-20.634-9.566l-8.997-7.584-13.812 13.737 11.983 80.112c.041.273-.028.552-.191.775l-12.421 17c-.198.271-.513.432-.85.432-.336.0-.65-.16-.849-.432l-12.42-17c-.163-.224-.232-.502-.191-.775l11.983-80.11L317.014 98.08l-8.994 7.584c0 0-19.643 8.96-21.568 10.107-15.168 7.914-22.305 27.414-29.846 48.044-3.367 9.216-8.946 24.473-12.762 27.961-14.273 4.088-31.125 2.264-31.265 2.248-8.641-1.006-16.47 5.182-17.479 13.826-1.009 8.644 5.184 16.469 13.826 17.477.443.053 5.486.619 12.82.619 8.724.0 20.687-.803 31.995-4.232 14.423-4.373 21.975-19.443 28.69-36.928l.016 60.261c0 8.57 3.012 16.207 7.869 22.586l.008 170.701c.001 10.484 8.5 18.982 18.983 18.982 10.484.0 18.982-8.5 18.982-18.984l-.008-150.486c1.348.113 2.691.179 4.02.179 1.33.0 2.673-.064 4.021-.179l-.004 150.488c0 10.482 8.5 18.982 18.981 18.982 10.484.0 18.984-8.5 18.984-18.982l.002-170.701c4.857-6.379 7.868-14.016 7.868-22.586l.017-66.993c3.748 15.744 6.164 34.9 8.535 53.756 1.254 9.962 2.549 20.263 4.074 30.668 1.148 7.837 7.879 13.474 15.572 13.474.76.0 1.53-.056 2.304-.17C421.273 274.52 427.23 266.516 425.966 257.905z"/><path d="M332.305 97.447c23.051.0 40.253-21.479 40.646-57.496C373.199 14.957 361.296.0 332.305.0c-28.996.0-40.898 14.957-40.646 39.951C292.048 75.969 309.25 97.447 332.305 97.447z"/><path d="M170.781 343.159l-24.363-13.541c-4.709-2.601-6.998-6.142-6.998-10.819v-11.5c0-1.438.0-4.796 6.953-4.796 7.097.0 7.097 3.357 7.097 4.796v17.696c0 1.047.849 1.896 1.893 1.896h23.057c1.046.0 1.896-.849 1.896-1.896v-10.358c0-5.556-3.307-10.201-9.824-13.81-3.99-2.205-8.807-3.703-14.381-4.485.006-.121.018-.242.018-.365v-18.404c0-5.229-4.234-9.467-9.468-9.467-5.225.0-9.466 4.238-9.466 9.467v18.404c0 .098.012.188.016.289-5.822.756-10.832 2.278-14.955 4.562-6.518 3.607-9.822 8.252-9.822 13.809v7.994c0 7.238 3.399 12.787 10.104 16.496l24.37 13.545c4.805 2.654 7.145 6.221 7.145 10.902v12.805c0 1.437.0 4.795-7.098 4.795-7.533.0-7.533-3.358-7.533-4.795v-17.697c0-1.043-.848-1.895-1.896-1.895h-23.201c-1.047.0-1.891.852-1.891 1.895v10.355c0 5.512 3.404 10.148 10.126 13.781 4.115 2.219 9.021 3.727 14.647 4.516-.005.119-.012.242-.012.363v18.408c0 5.229 4.241 9.465 9.466 9.465 5.233.0 9.468-4.236 9.468-9.465v-18.408c0-.101-.008-.193-.012-.289 5.873-.773 10.983-2.322 15.256-4.65 6.318-3.551 9.521-8.17 9.521-13.721v-9.299C180.892 352.512 177.496 346.93 170.781 343.159z"/><path d="M204.724 241.987c-55.055-32.015-125.895-13.271-157.91 41.789-32.016 55.055-13.271 125.896 41.783 157.91 55.059 32.016 125.897 13.271 157.914-41.785C278.528 344.844 259.782 274.006 204.724 241.987zM214.258 344.477c.733.427 1.587.67 2.496.675l20.439.063c-.459 12.862-3.667 25.788-9.861 37.887l-5.751-3.318c-1.058-.611-2.29-.773-3.473-.455-1.179.314-2.166 1.074-2.776 2.133-.814 1.412-.813 3.17.003 4.584.394.685.97 1.258 1.66 1.658l.014.01 5.745 3.316c-6.763 10.475-15.381 19.121-25.174 25.752l-11.159-19.467c-1.373-2.4-4.431-3.228-6.826-1.854-2.394 1.373-3.224 4.431-1.849 6.826l11.252 19.631c-11.672 6.146-24.573 9.691-37.734 10.385l-.001-6.608c-.002-1.623-.874-3.142-2.279-3.959-.693-.404-1.489-.615-2.3-.615-1.223.0-2.372.475-3.236 1.34-.864.867-1.34 2.015-1.339 3.236l.002 6.625c-12.44-.605-24.909-3.787-36.604-9.758l11.898-20.463c1.389-2.39.579-5.449-1.809-6.837-2.388-1.389-5.446-.579-6.835 1.808l-11.899 20.465c-10.797-7.094-19.617-16.172-26.26-26.471l5.742-3.316c1.057-.608 1.814-1.598 2.131-2.777.316-1.182.152-2.415-.459-3.475-.4-.691-.973-1.268-1.656-1.666-1.418-.822-3.179-.824-4.597-.008l-5.726 3.311c-6.085-11.926-9.477-25.092-9.914-38.479l22.631.067c2.761.01 5.007-2.221 5.015-4.981.01-2.763-2.22-5.011-4.983-5.017l-22.442-.069c.903-11.601 4.063-23.177 9.647-34.078l5.754 3.319c1.059.611 2.291.773 3.472.457 1.181-.315 2.167-1.075 2.779-2.135 1.255-2.18.513-4.977-1.657-6.238l-5.771-3.329c7.492-11.605 17.265-20.962 28.385-27.822l10.164 17.733c.453.789 1.09 1.408 1.822 1.834 1.493.869 3.398.939 5.004.019 2.396-1.373 3.225-4.43 1.852-6.823l-10.055-17.539c10.754-5.097 22.433-8.052 34.325-8.675l.001 6.609c-.002.801.209 1.59.61 2.284.399.691.978 1.271 1.67 1.675.694.401 1.489.616 2.3.616 2.521-.002 4.573-2.055 4.572-4.577l-.002-6.627c12.439.604 24.908 3.788 36.604 9.76l-9.687 16.66c-1.389 2.387-.579 5.446 1.81 6.836 2.386 1.389 5.447.578 6.833-1.81l9.69-16.66c10.795 7.095 19.617 16.173 26.258 26.472l-5.738 3.315c-1.06.611-1.814 1.599-2.131 2.779-.316 1.18-.154 2.412.456 3.471.399.693.974 1.269 1.659 1.668 1.416.822 3.178.826 4.593.009l5.728-3.31c5.505 10.791 8.807 22.601 9.709 34.668l-20.213-.062c-2.762-.01-5.008 2.221-5.018 4.984C211.761 341.987 212.764 343.605 214.258 344.477z"/></g></g><g/><g/><g/><g/><g/><g/><g/><g/><g/><g/><g/><g/><g/><g/><g/></svg>