<svg id="Capa_1" xmlns="http://www.w3.org/2000/svg" xmlns:xlink="http://www.w3.org/1999/xlink" width="98.666" height="98.666" viewBox="0 0 98.666 98.666" style="enable-background:new 0 0 98.666 98.666"><g><g><path d="M58.645 37.137c-.491-.506-.957-1.046-1.421-1.587-1.035.796-2.108 1.493-3.303 2.033 1.205 1.672 2.447 3.301 4.071 4.449 1.639 1.192 3.604 1.833 5.622 1.995 1.639.167 3.34-.085 4.596-.937-1.008-.235-1.994-.554-2.944-.975C62.679 40.997 60.489 39.161 58.645 37.137z"/><path d="M71.372 38.908c-2.894-1.161-5.446-2.948-7.802-4.875-.896-.724-1.765-1.471-2.637-2.208-.945 1.205-1.993 2.324-3.17 3.294.472.506.942 1.012 1.424 1.501 1.872 1.932 4.006 3.6 6.463 4.58 2.449.995 5.13 1.303 7.774 1.162 1.34-.088 2.675-.142 3.79-.624.86-.337 1.587-.881 2.013-1.585C76.55 40.359 73.834 39.901 71.372 38.908z"/><path d="M77.136 34.443c-3.265-.924-6.314-2.388-9.239-3.998-1.474-.775-2.898-1.665-4.331-2.517-.056.092-.109.185-.164.276-.636 1.055-1.32 2.098-2.064 3.094.901.721 1.791 1.45 2.699 2.146 2.379 1.842 4.912 3.506 7.692 4.534 2.771 1.03 5.777 1.342 8.656.792 1.506-.229 2.87-.584 3.985-1.388.854-.593 1.468-1.434 1.854-2.393C83.184 35.626 80.033 35.265 77.136 34.443z"/><path d="M81.27 29.04c-3.472-.627-6.812-1.701-10.088-2.887-1.83-.638-3.633-1.383-5.441-2.066-.594 1.122-1.216 2.223-1.853 3.302 1.45.815 2.873 1.661 4.362 2.396 2.938 1.526 5.972 2.886 9.144 3.7 3.15.812 6.501 1.03 9.546.056 1.517-.479 2.93-1.245 4.177-2.231.882-.76 1.574-1.92 1.664-3.056-.3.137-.605.262-.913.375C88.396 29.852 84.713 29.641 81.27 29.04z"/><path d="M98.615 13.696c-1.438 2.083-3.649 3.443-5.853 4.398-.423.105-.87.207-1.345.305-1.216.247-2.604.423-4.116.495-1.513.067-3.15.016-4.862-.185-1.712-.206-3.497-.562-5.3-1.086-1.803-.525-3.626-1.207-5.421-2.038l-.676-.308-.667-.333C69.918 14.713 69.46 14.482 69 14.25c-.975-.487-1.979-.922-3.104-1.246-.564-.157-1.159-.288-1.82-.323-.654-.029-1.405.035-2.142.372-.364.168-.709.401-.998.672-.288.273-.521.577-.705.881-.373.611-.564 1.216-.709 1.787-.274 1.145-.363 2.202-.434 3.226-.062 1.022-.099 2.008-.149 2.966-.089 1.913-.241 3.721-.583 5.38-.334 1.658-.866 3.161-1.586 4.429-.357.635-.755 1.215-1.186 1.728-.422.521-.873.98-1.327 1.381-.915.798-1.824 1.389-2.605 1.821-.532.292-.999.52-1.386.698V24.633c2.566-.443 4.522-2.675 4.522-5.369.0-3.012-2.441-5.455-5.455-5.455-3.013.0-5.455 2.443-5.455 5.455.0 2.694 1.955 4.926 4.523 5.369v13.387c-.387-.178-.854-.406-1.385-.698-.782-.433-1.692-1.023-2.606-1.821-.455-.401-.906-.859-1.327-1.381-.431-.513-.828-1.093-1.185-1.728-.72-1.268-1.251-2.771-1.586-4.429-.342-1.659-.493-3.467-.583-5.38-.05-.958-.087-1.944-.149-2.966-.07-1.024-.16-2.081-.433-3.226-.146-.571-.338-1.176-.709-1.787-.185-.304-.417-.608-.705-.881-.289-.271-.634-.504-.998-.672-.737-.337-1.489-.401-2.143-.372-.661.035-1.256.166-1.82.323-1.127.324-2.131.759-3.106 1.246-.46.232-.918.463-1.376.694l-.667.333-.676.308c-1.793.831-3.617 1.513-5.42 2.038-1.803.524-3.588.88-5.3 1.086-1.712.201-3.35.252-4.862.185-1.513-.072-2.9-.248-4.117-.495-.473-.098-.921-.199-1.343-.305-2.204-.955-4.415-2.316-5.854-4.398-.119 1.07-.027 2.182.24 3.243.376 1.523 1.718 2.908 3.159 3.801 3.029 1.821 6.812 2.246 10.438 2.307 5.804-.005 11.622-.899 17.293-2.312-.056-.104-.108-.32-.157-.599-.431-1-.821-2.015-1.169-3.041.324-.155.648-.31.974-.464.882-.409 1.79-.801 2.661-1.037.863-.245 1.721-.297 2.125-.097.205.094.367.234.539.506.166.266.313.642.427 1.055.228.836.337 1.803.437 2.77.092.993.182 1.974.27 2.939.101.979.217 1.954.374 2.91.163.954.366 1.889.623 2.791.26.899.58 1.763.954 2.571.378.807.817 1.556 1.299 2.229.487.671 1.014 1.268 1.559 1.782.549.511 1.113.942 1.664 1.305 1.101.731 2.153 1.177 3.026 1.479.633.225 1.178.364 1.613.463v.561c-.675-.203-1.424-.442-1.574-.479-.463-.106-.931-.289-1.381-.483-.002.002-.004.004-.005.007-1.065 1.604-2.205 3.271-3.743 4.579 2.329.505 4.822.43 6.35-1.433.123-.138.24-.282.354-.431v2.327c-.366-.076-.879-.049-1.388.018-1.141.151-1.546 1.255-1.881 1.537-2.346 1.969-5.904 3.841-5.05 7.011.769 2.854 4.107 3.662 6.67 4.641-1.739.811-4.853 1.942-4.813 3.974.043 2.223 2.451 3.188 4.333 4.074-1.461.674-3.158 1.586-3.13 3.028.032 1.652 1.508 2.507 2.953 3.201-1.16.576-2.326 1.34-2.304 2.492.027 1.408 1.193 2.157 2.399 2.757-.861.47-1.641 1.082-1.624 1.985.025 1.318 1.167 1.949 2.266 2.486-.714.562-1.4 1.294-1.334 2.005.099 1.659 2.818 2.964 2.901 2.99v.841l1.864.009v-.853c.077-.025 2.739-1.281 2.887-2.987.065-.711-.62-1.444-1.334-2.005 1.099-.537 2.241-1.168 2.266-2.486.019-.903-.762-1.516-1.624-1.985 1.206-.601 2.373-1.35 2.399-2.757.021-1.152-1.145-1.917-2.305-2.492 1.445-.694 2.922-1.549 2.953-3.201.028-1.441-1.668-2.354-3.13-3.028 1.882-.887 4.29-1.852 4.333-4.074.039-2.031-3.074-3.164-4.812-3.974 2.562-.979 5.9-1.787 6.67-4.641.854-3.17-2.704-5.042-5.05-7.011-.335-.282-.74-1.386-1.882-1.537-.501-.066-1.008-.093-1.373-.021v-2.323c.113.149.231.293.354.431 1.527 1.862 4.021 1.938 6.35 1.433-1.54-1.309-2.679-2.975-3.743-4.579-.002-.003-.004-.005-.005-.007-.451.194-.919.377-1.382.483-.149.036-.898.276-1.574.478v-.561c.437-.099.979-.239 1.613-.463.874-.301 1.926-.748 3.026-1.479.551-.363 1.115-.794 1.664-1.305.546-.514 1.071-1.111 1.559-1.782.482-.673.92-1.422 1.299-2.229.375-.808.694-1.671.955-2.571.256-.901.459-1.836.622-2.791.156-.957.273-1.931.374-2.91.088-.965.179-1.946.271-2.939.1-.967.209-1.934.437-2.77.113-.413.261-.789.427-1.055.171-.272.333-.412.539-.506.404-.2 1.263-.148 2.125.097.872.236 1.778.628 2.661 1.037.325.155.65.31.976.464-.35 1.026-.739 2.04-1.17 3.041-.049.279-.101.495-.156.599 5.67 1.412 11.488 2.306 17.293 2.312 3.626-.061 7.41-.485 10.438-2.307 1.441-.893 2.783-2.277 3.16-3.801C98.644 15.878 98.733 14.767 98.615 13.696zM41.922 50.445c.742-2.714 4.702-3.937 6.48-6.15v10.518C46.549 54.078 41.269 52.834 41.922 50.445zM43.833 60.129c.268-.667 1.607-1.204 2.196-1.508.718-.372 2.314-1.187 2.374-1.243v5.833C48.354 63.169 43.422 61.155 43.833 60.129zM45.03 67.269c.205-.512 1.35-.963 1.801-1.197.52-.271 1.05-.52 1.571-.787v4.187C47.414 69.014 44.778 67.896 45.03 67.269zM45.675 72.993c.119-.296 1.113-.755 1.481-.946.412-.214.832-.414 1.246-.623v3.257C47.525 74.273 45.523 73.372 45.675 72.993zM48.042 82.693c-.186-.136-.374-.28-.528-.451-.024-.027-.042-.048-.058-.067.171-.179.545-.484.7-.612.081-.066.165-.126.247-.189v1.562C48.281 82.856 48.159 82.779 48.042 82.693zM51.14 82.243c-.155.171-.344.315-.528.451-.112.082-.229.156-.345.231v-1.542c.076.06.155.116.231.179.155.128.529.435.7.612C51.182 82.195 51.164 82.216 51.14 82.243zM50.267 78.82v-2.116c.28.14 1.838.63 1.858 1.042C52.146 78.158 50.591 78.659 50.267 78.82zM46.516 77.703c.021-.412 1.578-.902 1.859-1.042v2.117C48.05 78.616 46.495 78.115 46.516 77.703zM52.979 72.993c.15.377-1.828 1.271-2.713 1.681v-3.241c.409.207.823.404 1.23.615C51.866 72.238 52.86 72.697 52.979 72.993zM53.623 67.269c.251.625-2.357 1.734-3.356 2.195v-4.173c.517.266 1.042.513 1.557.779C52.273 66.304 53.418 66.757 53.623 67.269zM52.625 58.621c.588.305 1.929.841 2.196 1.508.411 1.025-4.51 3.033-4.555 3.071V57.39C50.322 57.441 51.906 58.25 52.625 58.621zM56.731 50.445c.651 2.382-4.599 3.626-6.465 4.362V44.314C52.051 46.516 55.991 47.738 56.731 50.445z"/><path d="M95.855 21.799c-3.446 1.95-7.358 2.248-11.078 2.242-5.987-.142-11.865-1.188-17.594-2.759-.103.186-.209.369-.314.553-.271.571-.554 1.137-.844 1.699 1.807.636 3.585 1.324 5.404 1.909 3.281 1.104 6.61 2.085 10.004 2.614 3.365.515 6.892.598 10-.591 1.538-.599 2.922-1.535 4.01-2.753.982-.904 1.215-2.071.971-3.277C96.23 21.562 96.043 21.685 95.855 21.799z"/><path d="M44.747 37.584c-1.194-.541-2.268-1.237-3.302-2.033-.464.541-.931 1.081-1.421 1.587-1.845 2.023-4.034 3.858-6.62 4.979-.951.42-1.938.74-2.945.975 1.255.851 2.957 1.104 4.596.937 2.017-.162 3.983-.802 5.623-1.995C42.299 40.884 43.542 39.255 44.747 37.584z"/><path d="M39.48 36.622c.481-.49.952-.995 1.424-1.501-1.177-.971-2.225-2.089-3.17-3.294-.873.737-1.743 1.484-2.637 2.208-2.356 1.926-4.909 3.714-7.802 4.875-2.461.994-5.179 1.452-7.856 1.246.426.704 1.152 1.248 2.012 1.585 1.116.482 2.452.535 3.79.624 2.646.142 5.327-.167 7.775-1.162C35.475 40.222 37.609 38.553 39.48 36.622z"/><path d="M26.938 37.98c2.781-1.028 5.313-2.692 7.693-4.534.908-.697 1.798-1.425 2.699-2.146-.745-.997-1.429-2.04-2.064-3.094-.055-.091-.109-.184-.164-.276-1.432.852-2.857 1.742-4.33 2.517-2.926 1.61-5.976 3.074-9.241 3.998-2.897.821-6.048 1.183-9.089.548.386.959 1 1.8 1.854 2.393 1.115.804 2.48 1.16 3.985 1.388C21.161 39.322 24.167 39.009 26.938 37.98z"/><path d="M21.274 33.483c3.172-.814 6.207-2.174 9.144-3.7 1.489-.735 2.913-1.58 4.363-2.396-.636-1.079-1.259-2.18-1.853-3.302-1.809.683-3.61 1.428-5.441 2.066-3.276 1.187-6.618 2.26-10.088 2.887-3.445.602-7.126.813-10.599-.413-.308-.113-.613-.237-.913-.375.089 1.136.782 2.296 1.664 3.056 1.247.986 2.661 1.752 4.177 2.231C14.773 34.514 18.123 34.295 21.274 33.483z"/><path d="M17.235 28.058c3.393-.529 6.722-1.511 10.003-2.614 1.818-.585 3.597-1.272 5.404-1.909-.291-.562-.572-1.128-.844-1.699-.105-.185-.212-.368-.314-.553-5.729 1.571-11.606 2.617-17.594 2.759-3.719.006-7.632-.292-11.078-2.242-.189-.116-.375-.237-.56-.363-.245 1.206-.011 2.373.97 3.277 1.09 1.218 2.473 2.154 4.011 2.753C10.343 28.655 13.869 28.572 17.235 28.058z"/></g></g><g/><g/><g/><g/><g/><g/><g/><g/><g/><g/><g/><g/><g/><g/><g/></svg>