<svg id="Capa_1" xmlns="http://www.w3.org/2000/svg" xmlns:xlink="http://www.w3.org/1999/xlink" width="31.714" height="31.714" viewBox="0 0 31.714 31.714" style="enable-background:new 0 0 31.714 31.714"><g><g><path d="M5.521.0C4.257.0 3.232 1.025 3.232 2.29v27.133c0 1.267 1.025 2.291 2.289 2.291h20.672c1.264.0 2.289-1.024 2.289-2.291V2.29c0-1.265-1.025-2.29-2.289-2.29H5.521zM15.084 27.242c0 .736-.597 1.332-1.332 1.332H8.453c-.735.0-1.332-.596-1.332-1.332v-1.363c0-.734.597-1.332 1.332-1.332h5.299c.735.0 1.332.598 1.332 1.332V27.242zm0-7.026c0 .735-.597 1.332-1.332 1.332H8.453c-.735.0-1.332-.597-1.332-1.332v-1.131c0-.733.597-1.332 1.332-1.332h5.299c.735.0 1.332.597 1.332 1.332V20.216zM24.687 27.242c0 .736-.598 1.332-1.332 1.332h-4.878c-.735.0-1.332-.596-1.332-1.332v-1.363c0-.734.597-1.332 1.332-1.332h4.878c.734.0 1.332.598 1.332 1.332V27.242zm0-7.026c0 .735-.598 1.332-1.332 1.332h-4.878c-.735.0-1.332-.597-1.332-1.332v-1.131c0-.735.597-1.332 1.332-1.332h4.878c.734.0 1.332.597 1.332 1.332V20.216zM24.687 13.33c0 .735-.598 1.332-1.332 1.332H8.36c-.735.0-1.332-.596-1.332-1.332V5.407c0-.735.597-1.332 1.332-1.332h14.995c.734.0 1.332.596 1.332 1.332V13.33z"/><path d="M11.209 7.542H11.244v5.013h1.404V6.23H11.433L9.761 7.016 10.005 8.121z"/><path d="M15.552 12.555H16.49V10.447H18.503V9.51H16.49V7.401H15.552V9.51H13.491V10.447h2.061z"/><path d="M20.366 7.326c.728.0 1.039.409 1.039.924-.021.738-.694 1.448-2.077 2.684l-.824.74v.881h4.498v-1.218h-2.391v-.006l.588-.484c.915-.817 1.686-1.664 1.686-2.724.0-1.148-.789-1.984-2.217-1.984-.854.0-1.598.292-2.072.651l.42 1.061C19.343 7.598 19.82 7.326 20.366 7.326z"/></g></g><g/><g/><g/><g/><g/><g/><g/><g/><g/><g/><g/><g/><g/><g/><g/></svg>