<svg id="Capa_1" xmlns="http://www.w3.org/2000/svg" xmlns:xlink="http://www.w3.org/1999/xlink" width="428.4" height="428.4" viewBox="0 0 428.4 428.4" style="enable-background:new 0 0 428.4 428.4"
	><g><path d="M329.8.0H98.6C76.092.0 57.8 18.292 57.8 40.8V387.6c0 22.508 18.292 40.801 40.8 40.801h231.2c22.508.0 40.801-18.293 40.801-40.801V40.8C370.601 18.292 352.308.0 329.8.0zM139.4 374c0 3.74-3.06 6.801-6.8 6.801h-20.4c-3.74.0-6.8-3.061-6.8-6.801v-20.4c0-3.74 3.06-6.799 6.8-6.799h20.4c3.74.0 6.8 3.059 6.8 6.799V374zM139.4 312.801c0 3.74-3.06 6.799-6.8 6.799h-20.4c-3.74.0-6.8-3.059-6.8-6.799v-20.4c0-3.74 3.06-6.801 6.8-6.801h20.4c3.74.0 6.8 3.061 6.8 6.801V312.801zM139.4 251.6c0 3.74-3.06 6.801-6.8 6.801h-20.4c-3.74.0-6.8-3.061-6.8-6.801v-20.4c0-3.738 3.06-6.799 6.8-6.799h20.4c3.74.0 6.8 3.061 6.8 6.799V251.6zM139.4 190.4c0 3.74-3.06 6.8-6.8 6.8h-20.4c-3.74.0-6.8-3.06-6.8-6.8V170c0-3.74 3.06-6.8 6.8-6.8h20.4c3.74.0 6.8 3.06 6.8 6.8V190.4zM200.6 374c0 3.74-3.06 6.801-6.8 6.801h-20.4c-3.74.0-6.8-3.061-6.8-6.801v-20.4c0-3.74 3.06-6.799 6.8-6.799h20.4c3.74.0 6.8 3.059 6.8 6.799V374zM200.6 312.801c0 3.74-3.06 6.799-6.8 6.799h-20.4c-3.74.0-6.8-3.059-6.8-6.799v-20.4c0-3.74 3.06-6.801 6.8-6.801h20.4c3.74.0 6.8 3.061 6.8 6.801V312.801zM200.6 251.6c0 3.74-3.06 6.801-6.8 6.801h-20.4c-3.74.0-6.8-3.061-6.8-6.801v-20.4c0-3.738 3.06-6.799 6.8-6.799h20.4c3.74.0 6.8 3.061 6.8 6.799V251.6zM200.6 190.4c0 3.74-3.06 6.8-6.8 6.8h-20.4c-3.74.0-6.8-3.06-6.8-6.8V170c0-3.74 3.06-6.8 6.8-6.8h20.4c3.74.0 6.8 3.06 6.8 6.8V190.4zM261.8 374c0 3.74-3.061 6.801-6.801 6.801h-20.398c-3.74.0-6.801-3.061-6.801-6.801v-20.4c0-3.74 3.061-6.799 6.801-6.799h20.398c3.74.0 6.801 3.059 6.801 6.799V374zM261.8 312.801c0 3.74-3.061 6.799-6.801 6.799h-20.398c-3.74.0-6.801-3.059-6.801-6.799v-20.4c0-3.74 3.061-6.801 6.801-6.801h20.398c3.74.0 6.801 3.061 6.801 6.801V312.801zM261.8 251.6c0 3.74-3.061 6.801-6.801 6.801h-20.398c-3.74.0-6.801-3.061-6.801-6.801v-20.4c0-3.738 3.061-6.799 6.801-6.799h20.398c3.74.0 6.801 3.061 6.801 6.799V251.6zM261.8 190.4c0 3.74-3.061 6.8-6.801 6.8h-20.398c-3.74.0-6.801-3.06-6.801-6.8V170c0-3.74 3.061-6.8 6.801-6.8h20.398c3.74.0 6.801 3.06 6.801 6.8V190.4zM322.999 374c0 3.74-3.059 6.801-6.799 6.801h-20.4c-3.74.0-6.801-3.061-6.801-6.801v-81.6c0-3.74 3.061-6.801 6.801-6.801h20.4c3.74.0 6.799 3.061 6.799 6.801V374zm0-122.4c0 3.74-3.059 6.801-6.799 6.801h-20.4c-3.74.0-6.801-3.061-6.801-6.801v-20.4c0-3.738 3.061-6.799 6.801-6.799h20.4c3.74.0 6.799 3.061 6.799 6.799V251.6zM322.999 190.4c0 3.74-3.059 6.8-6.799 6.8h-20.4c-3.74.0-6.801-3.06-6.801-6.8V170c0-3.74 3.061-6.8 6.801-6.8h20.4c3.74.0 6.799 3.06 6.799 6.8V190.4zM336.601 102c0 7.48-6.121 13.6-13.602 13.6H105.4c-7.48.0-13.6-6.12-13.6-13.6V54.4c0-7.48 6.12-13.6 13.6-13.6h217.599c7.48.0 13.602 6.12 13.602 13.6V102z"/></g><g/><g/><g/><g/><g/><g/><g/><g/><g/><g/><g/><g/><g/><g/><g/></svg>