<svg id="Capa_1" xmlns="http://www.w3.org/2000/svg" xmlns:xlink="http://www.w3.org/1999/xlink" width="31.622" height="31.621" viewBox="0 0 31.622 31.621" style="enable-background:new 0 0 31.622 31.621"><g><g><path d="M31.43 4.945c0-1.194-.968-2.162-2.162-2.162h-3.656V.882C25.612.395 25.217.0 24.73.0h-1.905c-.485.0-.883.395-.883.882v1.902H9.802V.882C9.802.395 9.407.0 8.92.0H7.142C6.655.0 6.26.395 6.26.882v1.902H2.35c-1.194.0-2.162.968-2.162 2.162v7.704h1.139v16.749c0 1.229.995 2.223 2.223 2.223h24.394c1.229.0 2.223-.994 2.223-2.223v-16.75h1.267L31.43 4.945v0zM26.624 25.73c0 1.229-.994 2.223-2.223 2.223H7.218c-1.228.0-2.223-.994-2.223-2.223V12.649h21.628V25.73H26.624z"/><path d="M8.031 15.051h3.541v3.669H8.031z"/><path d="M14.102 15.051h3.541v3.669H14.102z"/><path d="M20.172 15.051h3.542v3.669H20.172z"/><path d="M8.031 21.502h3.541v3.668H8.031z"/><path d="M14.102 21.502h3.541v3.668H14.102z"/><path d="M20.172 21.502h3.542v3.668H20.172z"/></g></g><g/><g/><g/><g/><g/><g/><g/><g/><g/><g/><g/><g/><g/><g/><g/></svg>