<svg id="Capa_1" xmlns="http://www.w3.org/2000/svg" xmlns:xlink="http://www.w3.org/1999/xlink" width="387.6" height="387.6" viewBox="0 0 387.6 387.6" style="enable-background:new 0 0 387.6 387.6"
	><g><path d="M353.6 61.2H326.4v13.6c0 18.768-15.232 34-34 34s-34-15.232-34-34V61.2H129.2v13.6c0 18.768-15.232 34-34 34-18.768.0-34-15.232-34-34V61.2H34c-18.768.0-34 15.232-34 34v251.6c0 18.768 15.232 34 34 34h319.6c18.768.0 34-15.232 34-34V95.2C387.6 76.432 372.367 61.2 353.6 61.2zM360.4 346.8c0 3.74-3.061 6.801-6.801 6.801H34c-3.74.0-6.8-3.061-6.8-6.801V149.6c0-3.74 3.06-6.8 6.8-6.8h319.6c3.74.0 6.801 3.06 6.801 6.8V346.8zM115.6 237.999H68c-7.514.0-13.6-6.086-13.6-13.6v-47.6c0-7.514 6.086-13.6 13.6-13.6h47.6c7.514.0 13.6 6.086 13.6 13.6v47.6C129.2 231.913 123.114 237.999 115.6 237.999zm0 95.201H68c-7.514.0-13.6-6.086-13.6-13.6v-47.602c0-7.514 6.086-13.6 13.6-13.6h47.6c7.514.0 13.6 6.086 13.6 13.6v47.602C129.2 327.114 123.114 333.2 115.6 333.2zm102-95.201H170c-7.514.0-13.6-6.086-13.6-13.6v-47.6c0-7.514 6.086-13.6 13.6-13.6h47.6c7.514.0 13.6 6.086 13.6 13.6v47.6C231.199 231.913 225.113 237.999 217.6 237.999zm0 95.201H170c-7.514.0-13.6-6.086-13.6-13.6v-47.602c0-7.514 6.086-13.6 13.6-13.6h47.6c7.514.0 13.6 6.086 13.6 13.6v47.602C231.199 327.114 225.113 333.2 217.6 333.2zM319.6 237.999H272c-7.514.0-13.6-6.086-13.6-13.6v-47.6c0-7.514 6.086-13.6 13.6-13.6h47.6c7.514.0 13.6 6.086 13.6 13.6v47.6C333.199 231.913 327.113 237.999 319.6 237.999zm0 95.201H272c-7.514.0-13.6-6.086-13.6-13.6v-47.602c0-7.514 6.086-13.6 13.6-13.6h47.6c7.514.0 13.6 6.086 13.6 13.6v47.602C333.199 327.114 327.113 333.2 319.6 333.2zM115.6 27.2v47.6c0 11.288-9.112 20.4-20.4 20.4-11.288.0-20.4-9.112-20.4-20.4V27.2c0-11.288 9.112-20.4 20.4-20.4C106.488 6.8 115.6 15.912 115.6 27.2zm197.201.0v47.6c0 11.288-9.113 20.4-20.4 20.4-11.289.0-20.4-9.112-20.4-20.4V27.2c0-11.288 9.111-20.4 20.4-20.4C303.688 6.8 312.801 15.912 312.801 27.2z"/></g><g/><g/><g/><g/><g/><g/><g/><g/><g/><g/><g/><g/><g/><g/><g/></svg>