<svg id="Capa_1" xmlns="http://www.w3.org/2000/svg" xmlns:xlink="http://www.w3.org/1999/xlink" viewBox="0 0 478.291 478.291" style="enable-background:new 0 0 478.291 478.291"><g><path d="M477.204 356.772c-6.569-19.342-19.504-75.348-83.626-88.898l8.805-2.33c20.779-5.505 35.284-24.357 35.284-45.859v-8.805c3.184-1.646 5.451-4.566 6.351-8.121 17.316-.358 31.276-14.442 31.276-31.844.0-17.4-13.961-31.485-31.276-31.842-.87-3.386-2.966-6.149-5.932-7.835 1.056-12.594-1.569-29.436-8.837-45.485-3.51-7.277-7.843-15.056-13.946-22.192-51.618-65.806-167.127-45.649-186.461 42.985-.032.132-.032.24-.062.364 5.466 4.713 10.419 9.521 14.209 14.38.172.202.296.404.466.606 27.922-95.483 163.711-90.7 180.577 10.499-2.874 2.33-4.815 5.738-4.815 9.721v57.613c0 3.821 1.786 7.145 4.457 9.473.404.334.854.576 1.289.862v9.621c0 34.492-37.457 36.658-70.845 45.502-8.277-8.939-22.891-3.052-22.891 8.921.0 15.102 21.587 18.566 25.779 3.456 16.446-4.357 11.958-3.168 22.223-5.885-2.951 1.994-5.995 3.781-9.115 5.404-2.982 25.553-37.225 31.641-48.764 8.525-10.885-1.536-21.198-5.373-30.717-10.995-5.87 5.219-13.014 9.031-20.887 10.871-.186.242-.372.474-.574.708.0 15.878-4.597 29.459-14.21 41.347 21.587 13.075 39.119 32.316 50.036 55.975h153.042C471.925 383.515 481.646 369.864 477.204 356.772z"/><path d="M322.718 260.093c4.628-7.151 12.625-11.919 21.741-11.919 5.994.0 11.445 2.12 15.824 5.537 26.431-14.552 45.019-49.174 45.019-89.605.0-53.554-32.596-96.959-72.818-96.959-36.648.0-66.9 36.13-71.962 83.106 2.842 6.779 5.202 13.79 6.801 21.058 1.74 8.231 2.128 13.41 2.47 21.183 21.12 4.969 37.006 24.077 37.006 46.487.0 5.086-.916 9.955-2.422 14.574C310.139 256.771 316.305 258.945 322.718 260.093z"/><path d="M235.348 343.573c-10.979 5.807-15.032 5.869-57.008 16.996-12.502 12.377-33.388 9.131-41.387-6.895-16.026-2.276-30.903-9.309-43.653-20.034-38.808 5.351-71.964 32.022-84.822 69.899-6.009 17.68-12.967 28.829-4.658 40.4 10.001 13.992 9.301 8.587 271.842 8.587 14.07.0 23.977-13.891 19.474-27.169C287.388 402.538 278.801 365.291 235.348 343.573z"
		/><path d="M138.321 328.151c5.979-9.217 17.144-14.248 29.071-10.731l22.549-5.979c33.932-31.819 28.993-71.746 28.993-101.368-17.036-97.051-124.158-99.66-141.66.0.0 159.022.016-114.747.016 44.275C84.108 293.055 108.287 322.77 138.321 328.151z"/><path d="M36.619 270.824c1.382 5.499 6.133 9.661 12.067 9.661 7.019.0 12.702-5.685 12.702-12.688v-57.613c0-3.992-1.958-7.401-4.829-9.729 3.184-19.832 13.821-39.461 27.053-52.475 19.426-20.684 51.946-32.626 88.998-23.619 14.256 4.644 28.295 11.127 39.989 23.619 13.013 12.766 23.589 31.922 27.037 52.482-7.501 6.081-4.815 11.329-4.815 67.336.0 4.379 2.361 8.061 5.747 10.335v9.629c0 33.356-32.908 35.438-70.83 45.493-8.277-8.937-22.907-3.052-22.907 8.923.0 15.102 21.601 18.572 25.795 3.454 39.259-10.397 80.645-14.325 80.645-57.87v-8.813c3.184-1.646 5.451-4.566 6.335-8.129 17.348-.35 31.292-14.442 31.292-31.836.0-17.392-13.945-31.478-31.292-31.835-.854-3.385-2.95-6.159-5.916-7.851.652-7.633-.296-16.996-1.926-24.683-1.398-6.337-3.572-13.41-6.895-20.795-3.525-7.275-7.859-15.055-13.962-22.184-5.776-7.391-13.231-14.132-21.648-20.064-73.346-50.82-174.628 9.295-166.755 87.742-2.951 1.692-5.031 4.457-5.885 7.827-17.362.34-31.324 14.434-31.324 31.842S19.257 270.492 36.619 270.824z"/></g><g/><g/><g/><g/><g/><g/><g/><g/><g/><g/><g/><g/><g/><g/><g/></svg>