<svg id="Capa_1" xmlns="http://www.w3.org/2000/svg" xmlns:xlink="http://www.w3.org/1999/xlink" width="31.348" height="31.348" viewBox="0 0 31.348 31.348" style="enable-background:new 0 0 31.348 31.348"><g><g><path d="M13.99 14.589h3.417v-1.17h-3.466v1.004l-1.629-5.262H7.807L3.166 24.355h3.56l1.081-3.881h4.348l1.17 3.881h3.694L13.99 14.589zM8.302 17.887l.902-3.215c.248-.878.473-2.044.697-2.92h.045c.226.876.496 2.019.767 2.92l.946 3.215H8.302z"/><path d="M27.006 17.842c0-1.974-.68-3.701-2.629-4.41v-.013h-.062c-.596-.207-1.307-.325-2.149-.325-2.004.0-3.515.537-4.276.966l.629 2.207c.723-.451 1.905-.834 3.03-.834 1.691.0 1.996.833 1.996 1.418v.156c-3.883-.021-6.455 1.352-6.455 4.215.0 1.756 1.332 3.368 3.562 3.368 1.308.0 2.438-.442 3.158-1.36h.068l.203 1.125h3.086c-.111-.625-.16-1.625-.16-2.684V17.842H27.006zM23.666 20.343c0 .202-.02.405-.064.585-.227.698-.922 1.262-1.776 1.262-.767.0-1.354-.428-1.354-1.307.0-1.328 1.4-1.758 3.195-1.734V20.343H23.666z"/><path d="M6.971 5.406h3.465v1.168H6.971z"/><path d="M0 5.406h3.464v1.168H0z"/><path d="M20.913 5.406h3.465v1.168H20.913z"/><path d="M13.941 5.406h3.466v1.168H13.941z"/><path d="M27.883 5.406h3.465v1.168H27.883z"/><path d="M0 24.773h3.464v1.168H0z"/><path d="M27.883 24.773h3.465v1.168H27.883z"/><path d="M13.941 24.773h3.466v1.168H13.941z"/><path d="M6.971 24.773h3.465v1.168H6.971z"/><path d="M20.913 24.773h3.465v1.168H20.913z"/><path d="M0 13.419h3.464v1.169H0z"/><path d="M27.883 13.419h3.465v1.169H27.883z"/></g></g><g/><g/><g/><g/><g/><g/><g/><g/><g/><g/><g/><g/><g/><g/><g/></svg>