<svg id="Capa_1" xmlns="http://www.w3.org/2000/svg" xmlns:xlink="http://www.w3.org/1999/xlink" width="124.953" height="124.953" viewBox="0 0 124.953 124.953" style="enable-background:new 0 0 124.953 124.953"><g><g><path d="M101.597 90.602v4.693c3.883.0 7.041-3.158 7.041-7.041v-8.763c0-3.884-3.158-7.042-7.041-7.042H27.113c-3.883.0-7.041 3.158-7.041 7.042v8.763c0 3.883 3.158 7.041 7.041 7.041v-4.693c-1.294.0-2.347-1.054-2.347-2.348v-8.763c0-1.294 1.053-2.347 2.347-2.347h74.483c1.294.0 2.347 1.053 2.347 2.347v8.763C103.943 89.548 102.891 90.602 101.597 90.602z"
			/><path d="M112.079.0H12.874c-4.4.0-7.98 3.58-7.98 7.98v99.206c0 4.4 3.58 7.98 7.98 7.98h14.005v-4.07-1.498-1.004H12.874c-.777.0-1.409-.632-1.409-1.408V7.981c0-.777.632-1.409 1.409-1.409h99.206c.777.0 1.41.632 1.41 1.409v99.207c0 .776-.633 1.408-1.41 1.408h-10.248v1.004 1.498 4.07h10.248c4.4.0 7.98-3.58 7.98-7.98V7.981C120.06 3.581 116.479.0 112.079.0z"/><path d="M19.29 16.9h71.042v42.249H19.29z"/><path d="M95.023 16.9h11.267v11.266H95.023z"/><path d="M95.023 32.391h11.267v11.266H95.023z"/><path d="M95.023 47.882h11.267v11.266H95.023z"/><path d="M28.755 110.863h71.197V82.305H28.755V110.863zM32.742 89.271c2.607-.418 4.693-1.928 5.424-3.887h52.908c.68 1.824 2.538 3.256 4.896 3.783V104c-2.356.526-4.214 1.958-4.896 3.78H38.167c-.731-1.959-2.817-3.475-5.425-3.891V89.271z"/><ellipse cx="64.354" cy="96.583" rx="9.83" ry="9.708"/><path d="M91.073 114.699H38.167c-.213-.571-.554-1.098-.977-1.578h-8.434v4.66h71.197v-4.66h-7.899C91.628 113.6 91.288 114.127 91.073 114.699z"/><path d="M91.073 121.872H38.167c-.213-.571-.554-1.099-.977-1.579h-8.434v4.66h71.197v-4.66h-7.899C91.628 120.771 91.288 121.301 91.073 121.872z"/></g></g><g/><g/><g/><g/><g/><g/><g/><g/><g/><g/><g/><g/><g/><g/><g/></svg>