<svg id="Capa_1" xmlns="http://www.w3.org/2000/svg" xmlns:xlink="http://www.w3.org/1999/xlink" width="31.96" height="31.96" viewBox="0 0 31.96 31.96" style="enable-background:new 0 0 31.96 31.96"
	><g><path d="M31.824 8.995c-.371-1.17-1.566-1.851-2.742-1.598l-2.797-2.49c-.001-.233-.037-.47-.111-.704-.394-1.242-1.721-1.935-2.965-1.539-.76.241-1.311.831-1.535 1.535l-2.922.926c-.604-.593-1.508-.844-2.372-.57-.21.067-.401.162-.578.276l-2.38-2.119c.052-.345.03-.708-.082-1.062-.394-1.244-1.722-1.934-2.966-1.538-.847.267-1.435.968-1.6 1.782L5.349 2.979C4.768 2.576 4.014 2.434 3.287 2.664 2.042 3.059 1.354 4.387 1.748 5.631c.104.33.277.621.494.863L1.464 9.819c-1.109.47-1.699 1.716-1.328 2.887.375 1.181 1.59 1.858 2.775 1.589l2.749 2.446c-.084.388-.073.803.056 1.209.138.434.392.8.714 1.075l-.763 3.263c-.006.003-.012.003-.018.004-1.245.395-1.933 1.723-1.539 2.965.394 1.244 1.722 1.934 2.966 1.541.005-.001.011-.005.017-.007l2.501 2.226C9.49 29.431 9.492 29.874 9.63 30.31c.394 1.244 1.722 1.935 2.965 1.539.829-.265 1.41-.939 1.589-1.729l3.428-1.086c.603.542 1.466.763 2.295.501 1.245-.396 1.933-1.725 1.54-2.971-.107-.338-.288-.635-.514-.881l.827-3.539c.008-.002.013-.004.019-.006 1.055-.334 1.706-1.338 1.643-2.394l3.231-1.024c.577.387 1.314.521 2.029.291 1.242-.394 1.933-1.723 1.537-2.966-.1-.315-.26-.593-.461-.828l.785-3.358C31.623 11.374 32.189 10.149 31.824 8.995zM27.255 14.505c-.938.3-1.56 1.125-1.643 2.046l-3.646 1.154c-.43-.18-.912-.233-1.394-.131l-2.938-2.614c.005-.249-.028-.503-.107-.755-.146-.459-.42-.843-.771-1.125l.936-3.99c.038-.011.075-.018.111-.029.796-.252 1.361-.886 1.564-1.634l2.827-.896c.603.643 1.539.923 2.437.638.146-.045.281-.105.41-.175l2.27 2.019c-.139.445-.146.934.005 1.408.155.49.457.891.839 1.176l-.665 2.846C27.414 14.461 27.334 14.48 27.255 14.505zM18.65 24.98c-.058.014-.113.024-.169.045-.829.263-1.409.938-1.589 1.73l-3.426 1.088c-.579-.521-1.4-.746-2.199-.529l-2.589-2.306c.076-.38.061-.783-.064-1.179-.125-.396-.347-.733-.627-1.002l.789-3.375c.778-.285 1.322-.938 1.494-1.698l3.425-1.087c.603.546 1.469.769 2.298.504.056-.02.109-.04.163-.062l2.594 2.312c-.076.383-.062.782.063 1.18.125.396.346.733.627 1L18.65 24.98zM4.641 11.278c-.15-.475-.436-.865-.802-1.149l.68-2.909c.066-.015.13-.029.195-.051.924-.293 1.541-1.1 1.635-2.008l3.198-1.013c.6.518 1.445.723 2.256.466.042-.013.082-.029.122-.044l2.825 2.515c.018.147.048.293.093.437.1.315.26.594.463.829l-1.039 4.438c-.582.275-1.009.77-1.213 1.35l-3.714 1.175C8.757 14.902 8 14.753 7.268 14.982l-2.611-2.325C4.784 12.221 4.789 11.744 4.641 11.278z"/></g><g/><g/><g/><g/><g/><g/><g/><g/><g/><g/><g/><g/><g/><g/><g/></svg>