<svg id="Capa_1" xmlns="http://www.w3.org/2000/svg" xmlns:xlink="http://www.w3.org/1999/xlink" width="31.962" height="31.961" viewBox="0 0 31.962 31.961" style="enable-background:new 0 0 31.962 31.961"><g><path d="M27.705 2.756c-2.354.0-4.258 1.906-4.258 4.256.0.411.059.806.166 1.182l-4.219 2.71c-1.143-1.195-2.75-1.939-4.535-1.939-1.347.0-2.593.424-3.614 1.146L7.936 6.59c.367-.628.576-1.359.576-2.138.002-2.353-1.904-4.258-4.256-4.258C1.907.194.0 2.099.0 4.452c0 2.35 1.907 4.255 4.256 4.255.686.0 1.334-.161 1.906-.449l3.404 3.621C8.951 12.849 8.593 14 8.593 15.233c0 1.493.524 2.863 1.394 3.939l-3.283 4.349c-.461-.175-.962-.267-1.484-.267-2.351.0-4.257 1.902-4.257 4.254s1.906 4.26 4.257 4.26c2.351.0 4.257-1.907 4.257-4.26.0-.942-.308-1.815-.828-2.521l3.21-4.252c.893.488 1.916.766 3.004.766 3.463.0 6.269-2.808 6.269-6.269.0-.802-.151-1.569-.427-2.274l4.227-2.716c.745.64 1.715 1.027 2.774 1.027 2.349.0 4.256-1.905 4.256-4.258C31.961 4.663 30.055 2.756 27.705 2.756z"/></g><g/><g/><g/><g/><g/><g/><g/><g/><g/><g/><g/><g/><g/><g/><g/></svg>