<svg id="Capa_1" xmlns="http://www.w3.org/2000/svg" xmlns:xlink="http://www.w3.org/1999/xlink" width="32.028" height="32.027" viewBox="0 0 32.028 32.027" style="enable-background:new 0 0 32.028 32.027"><g><g><path d="M16.386 15.224c4.203.0 7.611-.925 7.611-5.129S21.375.0 16.386.0c-4.199.0-7.612 5.323-7.612 9.527C8.774 13.73 12.183 15.224 16.386 15.224z"/><path d="M17.524 25.67v-2.004h-2.997v2.016c-5.542.549-7.887 3.457-7.994 3.593-.359.454-.275 1.116.181 1.475.192.152.423.228.651.228.311.0.608-.137.815-.398.021-.023 1.894-2.275 6.347-2.781v.324h.364v2.855c0 .58.463 1.051 1.044 1.051.579.0 1.044-.471 1.044-1.051v-2.855h.545v-.339c4.543.496 6.486 2.926 6.584 3.049.354.455 1.021.541 1.479.188.461-.354.531-1.012.178-1.473C25.652 29.401 23.157 26.207 17.524 25.67z"/><path d="M27.924 11.024c-.579.0-1.043.47-1.043 1.05v4.015c0 1.229-.746 1.598-1.117 1.698-.557-.899-1.551-1.481-2.686-1.481H9.43c-1.025.0-1.935.474-2.51 1.231l-1.812-5.771c-.174-.552-.76-.865-1.316-.69-.555.175-.861.762-.687 1.315l2.128 6.762c.142.446.555.733 1.001.733.027.0.054.0.081-.004.223 1.521 1.533 2.691 3.116 2.691H23.08c1.603.0 2.922-1.199 3.119-2.748 1.084-.26 2.771-1.285 2.771-3.738v-4.015C28.971 11.494 28.506 11.024 27.924 11.024z"/></g></g><g/><g/><g/><g/><g/><g/><g/><g/><g/><g/><g/><g/><g/><g/><g/></svg>