<svg id="Capa_1" xmlns="http://www.w3.org/2000/svg" xmlns:xlink="http://www.w3.org/1999/xlink" width="31.759" height="31.759" viewBox="0 0 31.759 31.759" style="enable-background:new 0 0 31.759 31.759"><g><g><path d="M30.667 3.272h-9.814V2.726c0-.903-.729-1.634-1.633-1.634h-6.682c-.903.0-1.634.731-1.634 1.634v.546H1.09C.485 3.272.0 3.772.0 4.377v19.718c0 .604.485 1.121 1.09 1.121h5.597l-1.994 5.451h3.806l1.994-5.451h2.592v3.271h5.587v-3.271h2.592l1.994 5.451h3.807l-1.994-5.451h5.599c.604.0 1.09-.517 1.09-1.121V4.378C31.759 3.772 31.271 3.272 30.667 3.272zM29.576 23.035H2.18V5.453h27.396V23.035v0z"/><path d="M3.816 6.953h23.989v14.584H3.816z"/></g></g><g/><g/><g/><g/><g/><g/><g/><g/><g/><g/><g/><g/><g/><g/><g/></svg>