<svg id="Capa_1" xmlns="http://www.w3.org/2000/svg" xmlns:xlink="http://www.w3.org/1999/xlink" viewBox="0 0 466.42 466.42" style="enable-background:new 0 0 466.42 466.42"><g><path d="M330.447 114.793v0c-45.684-45.683-120.016-45.684-165.699.0-22.129 22.129-34.317 51.553-34.317 82.849s12.188 60.72 34.317 82.849c22.13 22.13 51.553 34.318 82.85 34.318s60.72-12.188 82.85-34.318C376.131 234.808 376.131 160.476 330.447 114.793zM197.728 173.378c0-8.793 7.154-15.947 15.947-15.947s15.947 7.154 15.947 15.947c0 8.778-7.13 15.92-15.903 15.944-.016.0-.031-.001-.047-.001-.015.0-.029.001-.043.001C204.857 189.298 197.728 182.156 197.728 173.378zM213.606 208.323c.023.0.046.002.069.002.022.0.044-.001.066-.001 13.622.035 24.866 10.364 26.355 23.603-7.505 7.407-16.61 11.765-26.423 11.765s-18.918-4.357-26.423-11.765C188.738 218.687 199.983 208.357 213.606 208.323zM253.214 212.258c-3.464-6.022-8.255-11.188-13.983-15.079 5.82-6.245 9.39-14.612 9.39-23.801.0-19.27-15.677-34.947-34.947-34.947s-34.947 15.677-34.947 34.947c0 9.188 3.57 17.554 9.388 23.798-5.729 3.892-10.52 9.059-13.985 15.082-4.354-10.032-6.872-21.833-6.872-34.456.0-36.331 20.821-65.889 46.413-65.889s46.413 29.558 46.413 65.889C260.085 190.426 257.568 202.226 253.214 212.258zM199.515 283.274h96.166c-14.517 8.181-30.965 12.535-48.083 12.535S214.031 291.454 199.515 283.274zm120.142-19H175.538c-18.076-19.532-26.736-44.671-25.991-69.592 2.426 15.771 8.235 30.326 16.958 42.088 12.397 16.716 29.148 25.922 47.167 25.922s34.77-9.206 47.167-25.922c11.766-15.865 18.246-36.806 18.246-58.967.0-22.161-6.48-43.103-18.246-58.967-6.088-8.209-13.23-14.594-21.053-18.98 2.6-.206 5.205-.334 7.811-.334 25.139.0 50.277 9.569 69.415 28.707C354.378 165.593 355.246 225.821 319.657 264.274z"/><path d="M456.347 357.76l-82.839-82.839c14.185-23.016 21.779-49.562 21.779-77.278.0-38.363-14.532-74.491-40.986-102.105v-23.49c0-5.247-4.253-9.5-9.5-9.5h-37.329c-18.607-8.254-38.907-12.594-59.873-12.594-20.967.0-41.267 4.34-59.874 12.594H9.5c-5.247.0-9.5 4.253-9.5 9.5v167.17c0 5.247 4.253 9.5 9.5 9.5h99.449c7.287 19.814 18.844 37.983 34.217 53.356 27.895 27.895 64.982 43.257 104.432 43.257 27.715.0 54.259-7.592 77.274-21.776l82.839 82.84c6.496 6.496 15.132 10.073 24.318 10.073s17.822-3.577 24.317-10.073c6.496-6.496 10.073-15.132 10.073-24.318S462.843 364.255 456.347 357.76zM39.353 81.547C36.275 91.193 28.646 98.823 19 101.902V81.547H39.353zM19 209.354c9.649 3.079 17.28 10.712 20.355 20.363H19V209.354zm39.92 20.363c-3.864-20.149-19.772-36.061-39.92-39.929v-68.321c20.145-3.868 36.052-19.775 39.918-39.92h97.367c-4.562 3.603-8.945 7.49-13.119 11.663-27.895 27.895-43.257 64.982-43.257 104.432.0 10.921 1.183 21.661 3.478 32.075H58.92zM156.601 288.638c-50.176-50.176-50.176-131.817.0-181.993 25.088-25.088 58.042-37.632 90.997-37.632 32.955.0 65.909 12.544 90.997 37.632 50.176 50.176 50.176 131.817.0 181.993C288.42 338.814 206.777 338.815 156.601 288.638zM442.912 392.96c-2.907 2.907-6.771 4.508-10.882 4.508s-7.976-1.601-10.883-4.508l-80.564-80.563c3.962-3.223 7.785-6.662 11.446-10.323 3.66-3.66 7.098-7.482 10.32-11.443l80.563 80.564c2.907 2.907 4.508 6.771 4.508 10.882S445.819 390.052 442.912 392.96z"/></g><g/><g/><g/><g/><g/><g/><g/><g/><g/><g/><g/><g/><g/><g/><g/></svg>