<svg id="Capa_1" xmlns="http://www.w3.org/2000/svg" xmlns:xlink="http://www.w3.org/1999/xlink" width="31.941" height="31.941" viewBox="0 0 31.941 31.941" style="enable-background:new 0 0 31.941 31.941"><g><g><path d="M15.969.0c0 0-2.357.494-3.07.695l.826 2.903c1.025-.291 1.832-.445 2.224-.507l-.083 12.848L3.149 15.954c-.002-.537.02-1.061.071-1.563L.2 14.109c-.06.599-.187 1.901-.187 1.901.0 8.695 7.144 15.932 15.957 15.932 8.814.0 15.958-7.156 15.958-15.969S24.783.0 15.969.0z"/><path d="M10.041 5.007 8.662 2.303C7.798 2.745 6.921 3.268 6.077 3.887l1.794 2.448C8.527 5.854 9.257 5.406 10.041 5.007z"/><path d="M5.285 8.874l-2.44-1.805c-.58.785-1.096 1.656-1.517 2.622l2.781 1.214C4.423 10.19 4.817 9.506 5.285 8.874z"/></g></g><g/><g/><g/><g/><g/><g/><g/><g/><g/><g/><g/><g/><g/><g/><g/></svg>