<svg id="Capa_1" xmlns="http://www.w3.org/2000/svg" xmlns:xlink="http://www.w3.org/1999/xlink" width="31.658" height="31.658" viewBox="0 0 31.658 31.658" style="enable-background:new 0 0 31.658 31.658"><g><g><path d="M20.586 8.729c-.448.0-.881.061-1.291.174.759.327 1.29 1.082 1.29 1.961.0 1.18-.956 2.135-2.136 2.135-1.063.0-1.945-.778-2.108-1.795-.402.709-.633 1.529-.633 2.401.0 2.692 2.184 4.876 4.878 4.876 2.692.0 4.875-2.184 4.875-4.876C25.461 10.914 23.278 8.729 20.586 8.729z"/><path d="M25.441 23.556c3.679-1.805 6.217-5.585 6.217-9.949.0-6.106-4.969-11.074-11.072-11.074C14.48 2.532 9.512 7.5 9.512 13.606c0 4.501 2.699 8.382 6.564 10.113l-.004.001-5.867 2.715v2.69h21.351v-2.69l-6.104-2.878L25.441 23.556zm-4.855-3.122c-3.765.0-6.827-3.062-6.827-6.827.0-3.765 3.062-6.827 6.827-6.827 3.763.0 6.823 3.062 6.823 6.827C27.409 17.372 24.349 20.434 20.586 20.434z"/><path d="M11.553 23.425c.481-.736.272-1.723-.466-2.201-.735-.479-1.723-.271-2.204.465-.019.032-2.164 3.236-7.495 3.93-.873.111-1.486.911-1.375 1.784.103.804.789 1.39 1.577 1.39.068.0.137-.004.206-.016C8.569 27.897 11.435 23.608 11.553 23.425z"/></g></g><g/><g/><g/><g/><g/><g/><g/><g/><g/><g/><g/><g/><g/><g/><g/></svg>