<svg id="Capa_1" xmlns="http://www.w3.org/2000/svg" xmlns:xlink="http://www.w3.org/1999/xlink" width="31.93" height="31.93" viewBox="0 0 31.93 31.93" style="enable-background:new 0 0 31.93 31.93"
	><g><g><path d="M15.966.0C7.162.0.0 7.162.0 15.965S7.162 31.93 15.966 31.93c8.802.0 15.964-7.162 15.964-15.965S24.768.0 15.966.0zm0 28.184c-6.74.0-12.222-5.479-12.222-12.219.0-6.738 5.482-12.22 12.222-12.22 6.737.0 12.22 5.481 12.22 12.22C28.186 22.702 22.703 28.184 15.966 28.184z"/><circle cx="15.966" cy="5.984" r=".995"/><circle cx="15.966" cy="25.821" r=".996"/><circle cx="25.883" cy="15.903" r=".996"/><circle cx="6.045" cy="15.903" r=".996"/><circle cx="22.977" cy="8.89" r=".994"/><circle cx="8.951" cy="22.916" r=".995"/><circle cx="22.977" cy="22.916" r=".995"/><circle cx="8.951" cy="8.89" r=".995"/><path d="M22.76 14.994h-4.256c-.245-.662-.719-1.16-1.297-1.461V9.885c0-.69-.553-1.249-1.242-1.249-.691.0-1.243.559-1.243 1.249v3.646c-.91.454-1.488 1.373-1.488 2.433.0 1.509 1.223 2.748 2.733 2.748.96.0 1.805-.489 2.292-1.235h4.503c.688.0 1.247-.551 1.247-1.242C24.008 15.547 23.449 14.994 22.76 14.994z"/></g></g><g/><g/><g/><g/><g/><g/><g/><g/><g/><g/><g/><g/><g/><g/><g/></svg>