<svg id="Capa_1" xmlns="http://www.w3.org/2000/svg" xmlns:xlink="http://www.w3.org/1999/xlink" width="97.396" height="97.396" viewBox="0 0 97.396 97.396" style="enable-background:new 0 0 97.396 97.396"><g><g><path d="M79.247 16.472h-6.5v-9.18c0-2.419-1.969-4.388-4.387-4.388H54.344V1.95c0-1.077-.873-1.95-1.95-1.95h-18.28c-1.077.0-1.95.873-1.95 1.95v.954H18.148c-2.419.0-4.387 1.968-4.387 4.388V79.44c0 2.419 1.968 4.387 4.387 4.387h6.501v9.181c0 2.42 1.968 4.388 4.387 4.388h50.211c2.42.0 4.388-1.968 4.388-4.388V20.86C83.635 18.441 81.667 16.472 79.247 16.472zM24.649 20.86v58.093h-6.013V7.78h13.527v.583c0 1.077.873 1.95 1.95 1.95h18.28c1.077.0 1.95-.873 1.95-1.95V7.78H67.87v8.693h-2.641v-.955c0-1.077-.873-1.95-1.949-1.95H45c-1.077.0-1.95.873-1.95 1.95v.954H29.036C26.617 16.472 24.649 18.441 24.649 20.86zM78.76 92.521H29.523V21.347h13.528v.583c0 1.077.873 1.95 1.95 1.95H63.28c1.078.0 1.951-.874 1.951-1.95v-.583h13.526v71.173H78.76z"/><path d="M37.242 59.707h33.798v6.825H37.242z"/><path d="M37.242 73.682h33.798v6.826H37.242z"/><path d="M51.136 52.396H57.147V44.757H64.786V38.745H57.147V31.108H51.136V38.745H43.499V44.757H51.136z"/></g></g><g/><g/><g/><g/><g/><g/><g/><g/><g/><g/><g/><g/><g/><g/><g/></svg>