<svg id="Capa_1" xmlns="http://www.w3.org/2000/svg" xmlns:xlink="http://www.w3.org/1999/xlink" width="97.873" height="97.873" viewBox="0 0 97.873 97.873" style="enable-background:new 0 0 97.873 97.873"><g><g><path d="M78.25 3.39H61.887V2.276C61.887 1.019 60.866.0 59.609.0H38.265c-1.257.0-2.276 1.02-2.276 2.276V3.39H19.625c-2.825.0-5.123 2.298-5.123 5.123V92.75c0 2.825 2.298 5.123 5.123 5.123h58.624c2.824.0 5.122-2.298 5.122-5.123V8.513C83.372 5.688 81.074 3.39 78.25 3.39zM77.68 92.182H20.194v-83.1h15.795v.681c0 1.257 1.02 2.277 2.276 2.277h21.344c1.258.0 2.277-1.02 2.277-2.277V9.082H77.68v83.1z"/><path d="M29.206 53.869h39.462v7.968H29.206z"/><path d="M29.206 70.186h39.462v7.969H29.206z"/><path d="M45.427 45.332H52.448V36.414H61.365V29.394H52.448V20.477H45.427V29.394H36.51V36.414H45.427z"/></g></g><g/><g/><g/><g/><g/><g/><g/><g/><g/><g/><g/><g/><g/><g/><g/></svg>