<svg id="Capa_1" xmlns="http://www.w3.org/2000/svg" xmlns:xlink="http://www.w3.org/1999/xlink" width="440.783" height="440.783" viewBox="0 0 440.783 440.783" style="enable-background:new 0 0 440.783 440.783"><g><g><path d="M293.984 181.425H212.75V80.392c0-7.197-5.83-13.028-13.023-13.028-7.197.0-13.027 5.831-13.027 13.028v114.061c0 7.193 5.83 13.025 13.027 13.025h94.258c7.197.0 13.027-5.832 13.027-13.025C307.011 187.257 301.181 181.425 293.984 181.425z"/><path d="M418.16 306.539c5.668-4.755 9.279-11.887 9.279-19.848v-14.978c0-9.614-3.397-27.629-26.152-40.229-2.771-1.532-5.711-2.897-8.807-4.096v-9.248c0-4.892-.967-9.561-2.705-13.836.408-5.067.625-10.188.625-15.359C390.4 84.76 305.64.0 201.455.0S12.507 84.762 12.507 188.948c0 104.187 84.762 188.946 188.947 188.946 29.538.0 57.51-6.82 82.436-18.955 2.07 9.738 8.4 22.268 25.902 31.723 2.838 1.529 5.838 2.895 8.989 4.088v9.188c0 20.316 16.529 36.846 36.849 36.846 20.318.0 36.85-16.527 36.85-36.846v-8.914c3.5-1.289 6.82-2.787 9.945-4.49l.272-.15c22.254-12.508 25.578-30.443 25.578-40.023v-13.443C428.277 325.37 424.773 315.025 418.16 306.539zM282.984 271.715v11.559c0 10.515 2.902 20.011 8.394 27.998-25.191 18.568-56.298 29.562-89.922 29.562-83.75.0-151.885-68.136-151.885-151.885S117.705 37.063 201.455 37.063c81.215.0 147.742 64.074 151.695 144.325-19.164 1.28-34.367 17.271-34.367 36.755v8.928c-3.403 1.271-6.627 2.745-9.653 4.419C286.38 244.078 282.984 262.096 282.984 271.715zM405.976 350.357c0 8.021-4.629 14.697-13.762 19.832-6.181 3.363-13.563 5.605-22.054 6.723.007.139.019.271.019.416v26.607c0 7.562-6.129 13.684-13.684 13.684-7.563.0-13.687-6.121-13.687-13.684v-26.607c0-.176.01-.352.018-.525-8.133-1.143-15.227-3.32-21.174-6.527-9.715-5.248-14.643-11.951-14.643-19.916v-14.973c0-1.511 1.227-2.74 2.733-2.74h33.541c1.511.0 2.738 1.229 2.738 2.74v25.582c0 2.078.0 6.926 10.887 6.926 10.261.0 10.261-4.848 10.261-6.926v-18.511c0-6.769-3.379-11.921-10.328-15.762l-35.219-19.58c-9.697-5.362-14.613-13.382-14.613-23.843v-11.559c0-8.031 4.774-14.746 14.197-19.959 5.961-3.296 13.209-5.501 21.618-6.595.0-.146-.018-.276-.018-.416v-26.603c0-7.561 6.123-13.685 13.686-13.685 7.556.0 13.685 6.124 13.685 13.685v26.603c0 .175-.023.351-.031.524 8.064 1.137 15.025 3.297 20.791 6.485 9.424 5.218 14.201 11.935 14.201 19.96v14.977c0 1.51-1.228 2.736-2.74 2.736h-33.327c-1.514.0-2.735-1.228-2.735-2.736v-25.579c0-2.078.0-6.933-10.265-6.933-10.047.0-10.047 4.854-10.047 6.933v16.618c0 6.771 3.308 11.886 10.113 15.642l35.227 19.579c9.697 5.453 14.611 13.516 14.611 23.963V350.357H405.976z"/></g></g><g/><g/><g/><g/><g/><g/><g/><g/><g/><g/><g/><g/><g/><g/><g/></svg>