<svg id="Capa_1" xmlns="http://www.w3.org/2000/svg" xmlns:xlink="http://www.w3.org/1999/xlink" width="462.4" height="462.4" viewBox="0 0 462.4 462.4" style="enable-background:new 0 0 462.4 462.4"
	><g><path d="M415.072 54.4H47.328C32.457 54.4 20.4 42.344 20.4 27.472v-.544C20.4 12.057 32.457.0 47.328.0h367.744C429.943.0 442 12.057 442 26.928v.544C442 42.344 429.943 54.4 415.072 54.4zM421.601 68v224.4c0 18.774-15.226 34-34 34H238v62.961l91.909 36.761c6.97 2.795 10.363 10.703 7.575 17.687-2.788 6.964-10.676 10.35-17.687 7.575L238 418.656V448.8c0 7.508-6.093 13.601-13.6 13.601-7.507.0-13.6-6.093-13.6-13.601v-30.008l-81.729 33.259c-1.679.687-3.414 1.006-5.12 1.006-5.372.0-10.452-3.202-12.607-8.479-2.829-6.956.51-14.892 7.473-17.721l91.984-37.434V326.4h-136c-18.775.0-34-15.226-34-34V68H421.601zM163.2 210.8h-40.8v68h40.8v-68zM251.601 115.6h-40.8v163.2h40.8V115.6zM340 156.4h-40.8V278.8H340V156.4z"/></g><g/><g/><g/><g/><g/><g/><g/><g/><g/><g/><g/><g/><g/><g/><g/></svg>