<svg id="Capa_1" xmlns="http://www.w3.org/2000/svg" xmlns:xlink="http://www.w3.org/1999/xlink" viewBox="0 0 470.107 470.107" style="enable-background:new 0 0 470.107 470.107"><g><path d="M423.489 169.785c4.364-12.338 6.863-25.555 6.863-39.391.0-65.316-52.956-118.272-118.272-118.272-44.445.0-83.129 24.553-103.332 60.799-15.39-9.675-33.56-15.36-53.08-15.36-55.239.0-100.01 44.773-100.01 100.002.0 3.828.264 7.593.684 11.313h-.684C24.925 168.875.0 193.792.0 224.533c0 30.74 24.925 55.658 55.658 55.658h20.204c-2.408-3.866-3.742-8.299-3.742-12.959.0-6.561 2.546-12.742 7.205-17.416l14.085-14.07 8.325-8.323c4.643-4.635 10.823-7.183 17.392-7.183 6.569.0 12.765 2.556 17.424 7.213l.046.048v-.07c0-13.58 11.042-24.631 24.631-24.631h31.633c13.572.0 24.615 11.05 24.615 24.631v.084l.062-.062c11.064-11.064 26.972-7.89 34.848-.014l10.327 10.327 12.035 12.035c4.659 4.651 7.221 10.839 7.221 17.424.0 4.675-1.35 9.115-3.758 12.967h33.404c23.03-36.052 91.469-52.504 110.523-6.685.776 1.864.932 3.836 1.18 5.793 26.493-4.271 46.79-27.061 46.79-54.765C470.107 196.892 449.904 174.125 423.489 169.785z"/><path d="M146.195 372.11c-15.282-10.071-25.407-27.331-25.407-46.953.0-31.02 25.235-56.255 56.247-56.255 31.028.0 56.263 25.235 56.263 56.255.0 3.804-.404 7.523-1.118 11.119l51.324-21.4v-5.543c0-4.823-3.913-8.737-8.727-8.737h-17.936c-1.554-5.054-3.604-9.899-6.041-14.496l12.703-12.703c1.646-1.638 2.562-3.859 2.562-6.173.0-2.314-.916-4.534-2.562-6.181l-22.362-22.362c-1.71-1.708-3.945-2.556-6.181-2.556-2.236.0-4.457.848-6.165 2.556l-12.719 12.711c-4.597-2.438-9.427-4.48-14.504-6.025V227.43c0-4.823-3.898-8.729-8.713-8.729h-31.633c-4.815.0-8.729 3.906-8.729 8.729v17.936c-5.062 1.546-9.907 3.588-14.504 6.025l-12.687-12.695c-1.708-1.71-3.945-2.556-6.181-2.556-2.236.0-4.472.846-6.181 2.548l-22.378 22.37c-1.63 1.638-2.546 3.859-2.546 6.173.0 2.322.916 4.542 2.546 6.181l12.703 12.695c-2.438 4.597-4.472 9.435-6.025 14.488H79.309c-4.813.0-8.727 3.914-8.727 8.737v31.641c0 4.814 3.914 8.727 8.727 8.727H97.23c1.568 5.055 3.602 9.901 6.04 14.498l-12.703 12.703c-3.401 3.4-3.401 8.937.0 12.345l7.517 7.509c4.332-4.69 9.627-8.603 15.902-11.221L146.195 372.11z"/><path d="M177.035 284.804c-22.253.0-40.345 18.1-40.345 40.353.0 18.434 12.486 33.854 29.397 38.66l46.092-19.21c3.214-5.791 5.217-12.361 5.217-19.45C217.397 302.904 199.289 284.804 177.035 284.804z"/><path d="M425.305 332.572c-.822.0-1.662.162-2.47.496l-32.984 13.736c-1.428.598-2.904.878-4.364.878-4.442.0-8.665-2.633-10.483-7.005l-10.063-24.124c-1.148-2.788-1.18-5.909-.016-8.697 1.134-2.796 3.34-5.009 6.119-6.165l32.984-13.744c3.262-1.358 4.783-5.078 3.432-8.315-5.652-13.58-20.25-20.763-34.102-17.564l-16.368 3.735c-15.576 3.556-28.651 14.046-35.516 28.457L308.4 321.732 120.104 400.21c-15.312 6.383-22.548 23.953-16.166 39.281 6.321 15.15 23.807 22.611 39.289 16.174l188.31-78.471 28.683 10.049c5.623 1.972 11.461 2.942 17.27 2.942 9.783.0 19.49-2.748 27.953-8.113l14.194-8.999c12.237-7.765 17.098-23.201 11.523-36.58C430.15 334.048 427.79 332.572 425.305 332.572z"/></g><g/><g/><g/><g/><g/><g/><g/><g/><g/><g/><g/><g/><g/><g/><g/></svg>