<svg id="Capa_1" xmlns="http://www.w3.org/2000/svg" xmlns:xlink="http://www.w3.org/1999/xlink" width="48.999" height="49" viewBox="0 0 48.999 49" style="enable-background:new 0 0 48.999 49"><g><path d="M26.658 34.659l-7.349-1.443c.106-.816.184-1.604.227-2.359l5.038-3.383C25.443 29.894 26.127 32.353 26.658 34.659zM20.624 19.308l-2.485 1.668c.227.572.442 1.175.626 1.829l4.242.833c-.679-1.456-1.437-2.854-2.289-4.141C20.704 19.472 20.668 19.4 20.624 19.308zM24.336 26.818c-.305-.817-.635-1.627-.987-2.425l-4.404-.865c.451 1.843.705 3.991.63 6.487L24.336 26.818zM11.658 15.357c-.083.225-.135.464-.135.719.0.809.462 1.503 1.134 1.856-.071.24-.121.489-.121.75.0 1.479 1.199 2.68 2.679 2.68 1.073.0 1.991-.635 2.418-1.544.082.17.166.339.245.52l2.464-1.657c-.054-.121-.098-.219-.115-.253-.158-.323-.289-.647-.402-.972.307.175.657.284 1.036.284 1.16.0 2.1-.941 2.1-2.1.0-1.158-.94-2.1-2.1-2.1-.584.0-1.112.24-1.493.625.227-3.068 2.264-5.823 5.435-7.37 2.932-1.428 6.241-1.167 8.841.397-2.582-3.604-7.457-4.938-11.581-2.926-2.413 1.176-4.078 3.264-4.799 5.647-.01-1.783.478-3.339 1.85-4.787.216-.225.444-.445.686-.652 2.473-2.127 5.744-2.713 8.656-1.858-3.415-2.833-8.469-2.884-11.946.107-2 1.716-3.079 4.103-3.207 6.541-1.642-2.459-4.688-3.769-7.731-3.041-3.498.835-5.789 4.071-5.557 7.542.796-2.243 2.671-4.052 5.16-4.646 3.017-.72 6.035.558 7.686 2.975-2.344-.919-5.049-.895-7.484.309-4.112 2.031-6.041 6.7-4.769 10.95.354-3.013 2.172-5.793 5.096-7.236C7.626 15.173 9.711 14.958 11.658 15.357zM30.145 40.626l3.407-.67c-.05-.379-.086-.744-.105-1.095l-2.337-1.568C30.706 38.417 30.392 39.557 30.145 40.626zM34.098 34.276l-1.154-.773c-.021.043-.036.075-.044.087-.396.599-.749 1.246-1.063 1.922l1.968-.388C33.891 34.823 33.988 34.543 34.098 34.276zM31.677 35.865c-.162.368-.313.746-.456 1.127l2.208 1.48c-.035-1.158.08-2.153.293-3.011L31.677 35.865zM29.309 25.762c1.351-.396 2.87-.124 4.017.861.112.098.219.198.318.305.635.671.861 1.391.856 2.218-.335-1.104-1.106-2.073-2.227-2.62-1.911-.934-4.174-.312-5.375 1.358 1.208-.726 2.744-.846 4.104-.184 1.473.717 2.418 1.996 2.521 3.419-.175-.18-.422-.291-.693-.291-.538.0-.975.437-.975.975s.437.975.975.975c.175.0.337-.05.479-.13-.053.15-.112.302-.187.451-.006.017-.025.062-.054.118l1.145.767c.036-.081.075-.16.113-.239.197.421.624.715 1.123.715.688.0 1.241-.554 1.241-1.241.0-.12-.022-.238-.055-.349.312-.164.526-.484.526-.86.0-.119-.023-.229-.062-.334.902-.185 1.871-.085 2.763.354 1.354.671 2.199 1.961 2.364 3.355.591-1.971-.307-4.136-2.213-5.079-1.132-.559-2.387-.57-3.474-.143.766-1.122 2.168-1.714 3.565-1.384 1.153.276 2.024 1.118 2.393 2.156.107-1.609-.954-3.11-2.58-3.499-1.412-.337-2.822.27-3.586 1.411-.059-1.134-.559-2.24-1.485-3.035C33.238 24.423 30.895 24.445 29.309 25.762zM34.647 44.304c-.532-1.491-.875-2.838-1.056-4.036l-3.523.694c-.08.359-.151.703-.216 1.038l3.357 2.256c-.191-.006-.39-.01-.584-.016l-2.837-1.907c-.127.7-.221 1.323-.292 1.85-.402-.006-.812-.006-1.22-.008-.149-1.342-.414-3.398-.859-5.834l-8.944 6.007c-.443.021-.874.041-1.302.063l10.11-6.788c-.138-.723-.29-1.472-.46-2.242l-7.601-1.493c-.462 3.082-1.405 6.598-2.973 10.573C9.694 44.836 5.27 45.538 5.27 46.341c0 1.199 9.79 2.172 21.865 2.172 12.076.0 21.864-.973 21.864-2.172C49 45.403 43.017 44.606 34.647 44.304z"/></g><g/><g/><g/><g/><g/><g/><g/><g/><g/><g/><g/><g/><g/><g/><g/></svg>