<svg id="Capa_1" xmlns="http://www.w3.org/2000/svg" xmlns:xlink="http://www.w3.org/1999/xlink" width="31.943" height="31.943" viewBox="0 0 31.943 31.943" style="enable-background:new 0 0 31.943 31.943"><g><g><path d="M10.709 19.175 6.101 15.3l4.627-3.974c1.005-.863 1.12-2.377.258-3.381-.863-1.003-2.379-1.12-3.383-.256l-6.768 5.812c-.533.46-.839 1.13-.835 1.833.004.704.316 1.37.854 1.823l6.769 5.689c.449.377.997.562 1.541.562.684.0 1.362-.291 1.836-.854C11.852 21.542 11.723 20.029 10.709 19.175z"/><path d="M31.105 13.502 24.337 7.69c-1.005-.863-2.52-.746-3.382.258-.859 1.004-.747 2.517.258 3.381l4.627 3.974-4.605 3.875c-1.014.854-1.146 2.363-.291 3.379.474.562 1.148.854 1.836.854.544.0 1.092-.188 1.541-.562l6.769-5.689c.538-.453.852-1.12.854-1.823C31.945 14.631 31.642 13.961 31.105 13.502z"/><path d="M18.104 3.406c-1.299-.25-2.56.6-2.811 1.899l-3.951 20.421c-.252 1.301.598 2.56 1.898 2.811.153.029.307.044.458.044 1.126.0 2.129-.796 2.352-1.941l3.951-20.42C20.255 4.917 19.404 3.658 18.104 3.406z"/></g></g><g/><g/><g/><g/><g/><g/><g/><g/><g/><g/><g/><g/><g/><g/><g/></svg>