<svg id="Capa_1" xmlns="http://www.w3.org/2000/svg" xmlns:xlink="http://www.w3.org/1999/xlink" width="31.775" height="31.775" viewBox="0 0 31.775 31.775" style="enable-background:new 0 0 31.775 31.775"><g><g><path d="M21.24 4.071c-5.818.0-10.535-4.406-10.535 1.489.0 1.1.164 2.375.468 3.722 1.55-.095 3.046-.513 4.386-.885 1.302-.363 2.427-.676 3.47-.676 1.266.0 2.713.461 3.354 2.348.002-.006.004-.019.004-.019h4.682c.045.183.076.29.076.443.0 1.027-1.082 1.86-2.416 1.86-.869.0-1.629-.352-2.056-.88.03.299.046.62.046.967.0 1.059-.134 2.261-.388 3.536 1.342.433 2.392 1.566 2.671 3.006l-1.044-.364c-.325-.823-.998-1.461-1.821-1.753-.421 1.775-1.061 3.65-1.89 5.436.327.067.657.106.993.106 5.818.0 10.535-10.952 10.535-16.848S27.059 4.071 21.24 4.071z"/><path d="M15.747 10.056c-.142.039-.286.079-.432.119-1.435.39-3.059.774-4.779.774C4.717 10.95.0 6.547.0 12.442c0 5.894 4.717 16.846 10.536 16.846 5.817.0 10.534-10.952 10.534-16.846C21.07 8.467 18.926 9.173 15.747 10.056zM4.643 18.054c-.044-.092-.076-.271-.076-.426.0-1.025 1.082-1.845 2.417-1.845s2.417.815 2.417 1.845c0 .151-.031.334-.076.426H4.643zM10.536 25.505c-2.076.0-3.801-1.537-4.182-3.447h8.364C14.335 23.968 12.611 25.505 10.536 25.505zM16.363 18.054h-4.68c-.045-.092-.076-.271-.076-.426.0-1.025 1.082-1.845 2.417-1.845s2.417.815 2.417 1.845C16.439 17.783 16.409 17.964 16.363 18.054z"/></g></g><g/><g/><g/><g/><g/><g/><g/><g/><g/><g/><g/><g/><g/><g/><g/></svg>