<svg id="Capa_1" xmlns="http://www.w3.org/2000/svg" xmlns:xlink="http://www.w3.org/1999/xlink" width="125.413" height="125.414" viewBox="0 0 125.413 125.414" style="enable-background:new 0 0 125.413 125.414"><g><g><path d="M32.832 67.833C5.964 67.468.0 74.215.0 74.215s5.663 7.164 1.826 9.671c-3.841 2.508 10.431 2.188 10.431 2.188-.154-.713-.248-1.449-.248-2.205.0-5.5 4.457-9.957 9.955-9.957s9.957 4.457 9.957 9.957c0 .756-.092 1.492-.253 2.205h7.546 48.337H89.1c-.162-.713-.252-1.449-.252-2.205.0-5.5 4.455-9.957 9.957-9.957 5.496.0 9.957 4.457 9.957 9.957.0.756-.096 1.492-.255 2.205.046.0.693.0 7.319.0 5.333-5.331.041-14.877.041-14.877C59.926 41.935 32.832 67.833 32.832 67.833zM65.135 68.287H37.686c0 0 10.779-8.297 27.449-8.252V68.287v0zM68.148 68.287v-8.313c0 0 18.572.165 27.183 8.313H68.148z"/><path d="M99.029 75.797c-4.415.0-7.995 3.579-7.995 7.995.0 4.414 3.58 7.994 7.995 7.994 4.414.0 7.994-3.58 7.994-7.994C107.023 79.376 103.443 75.797 99.029 75.797zM99.029 86.865c-1.695.0-3.074-1.376-3.074-3.072.0-1.695 1.379-3.074 3.074-3.074 1.693.0 3.076 1.379 3.076 3.074C102.105 85.489 100.723 86.865 99.029 86.865z"/><path d="M22.121 75.797c-4.415.0-7.995 3.579-7.995 7.995.0 4.414 3.58 7.994 7.995 7.994s7.995-3.58 7.995-7.994C30.115 79.376 26.535 75.797 22.121 75.797zM22.121 86.865c-1.695.0-3.073-1.376-3.073-3.072.0-1.695 1.378-3.074 3.073-3.074 1.694.0 3.076 1.379 3.076 3.074C25.197 85.489 23.814 86.865 22.121 86.865z"/><path d="M106.232 64.597h.127c-.043-.017-.084-.035-.127-.053V64.597z"/><path d="M107.673 33.626c-9.796.0-17.737 7.941-17.737 17.738.0 2.889.707 5.607 1.931 8.018 4.692 1.354 9.485 3.077 14.368 5.162v-3.087c-2.038-.064-4.076-.646-5.241-1.422l.875-3.041c1.261.743 3.071 1.423 5.046 1.423 2.039.0 3.43-1.002 3.43-2.556.0-1.456-1.133-2.396-3.527-3.268-3.397-1.229-5.598-2.784-5.598-5.791.0-2.783 1.941-4.918 5.209-5.5V38.13h2.654v3.01c2.038.064 3.43.549 4.463 1.068l-.872 2.977c-.776-.356-2.2-1.101-4.401-1.101-2.264.0-3.071 1.165-3.071 2.263.0 1.328 1.165 2.071 3.914 3.172 3.624 1.359 5.241 3.106 5.241 5.984.0 2.751-1.908 5.179-5.467 5.761v3.333h-2.527c2.447 1.047 4.914 2.178 7.406 3.407 6.791-2.487 11.646-8.988 11.646-16.641C125.412 41.567 117.471 33.626 107.673 33.626z"/></g></g><g/><g/><g/><g/><g/><g/><g/><g/><g/><g/><g/><g/><g/><g/><g/></svg>