<svg id="Capa_1" xmlns="http://www.w3.org/2000/svg" xmlns:xlink="http://www.w3.org/1999/xlink" width="31.704" height="31.704" viewBox="0 0 31.704 31.704" style="enable-background:new 0 0 31.704 31.704"><g><g><path d="M15.851.0C7.11.0.0 7.11.0 15.852c0 8.741 7.11 15.852 15.851 15.852 8.743.0 15.853-7.109 15.853-15.852C31.704 7.109 24.594.0 15.851.0zm0 28.044c-6.722.0-12.19-5.471-12.19-12.192.0-6.723 5.469-12.193 12.19-12.193 6.724.0 12.192 5.47 12.192 12.193C28.043 22.575 22.575 28.044 15.851 28.044z"/><path d="M13.573 21.786l1.42 5.09h1.726l1.57-5.057c-.703.338-1.492.525-2.325.525C15.106 22.344 14.293 22.143 13.573 21.786z"/><path d="M18.977 12.5 16.717 5.1h-1.725l-2.106 7.447c.875-.608 1.935-.965 3.079-.965C17.081 11.582 18.118 11.92 18.977 12.5z"/><circle cx="15.874" cy="16.464" r="4.224"/></g></g><g/><g/><g/><g/><g/><g/><g/><g/><g/><g/><g/><g/><g/><g/><g/></svg>