<svg id="Capa_1" xmlns="http://www.w3.org/2000/svg" xmlns:xlink="http://www.w3.org/1999/xlink" width="31.604" height="31.604" viewBox="0 0 31.604 31.604" style="enable-background:new 0 0 31.604 31.604"><g><g><path d="M18.615 7.229H.873C.33 7.229.0 7.641.0 8.186v11.828c0 .545.33 1.015.873 1.015h7.698v1.409.062H5.852c-.865.0-1.567.703-1.567 1.566v.311h10.581v-.311c0-.865-.702-1.566-1.567-1.566H10.58v-.062-1.409h8.035c.545.0.938-.468.938-1.015V8.185C19.552 7.641 19.16 7.229 18.615 7.229zM17.543 17.883c0 .7-.564 1.269-1.268 1.269H3.142c-.7.0-1.268-.566-1.268-1.269v-7.376c0-.7.567-1.267 1.268-1.267h13.133c.701.0 1.27.567 1.27 1.267v7.376H17.543z"/><path d="M23.171 7.097c-1.11.0-2.012.9-2.012 2.011v15.399h10.444V8.664c0-.866-.701-1.567-1.565-1.567H23.171zM26.41 22.603c-.477.0-.859-.375-.859-.836s.387-.836.859-.836.857.375.857.836S26.882 22.603 26.41 22.603zM29.332 13.124h-5.895v-.938h5.895V13.124zM29.332 11.115h-5.895v-.938h5.895V11.115z"/></g></g><g/><g/><g/><g/><g/><g/><g/><g/><g/><g/><g/><g/><g/><g/><g/></svg>