<svg id="Capa_1" xmlns="http://www.w3.org/2000/svg" xmlns:xlink="http://www.w3.org/1999/xlink" width="442" height="442" viewBox="0 0 442 442" style="enable-background:new 0 0 442 442"><g><path d="M299.2.0H142.8c-33.803.0-61.2 27.397-61.2 61.2v319.601c0 33.803 27.397 61.199 61.2 61.199H299.2c33.803.0 61.2-27.396 61.2-61.199V61.2C360.4 27.397 333.002.0 299.2.0zM221 414.801c-9.391.0-17-7.609-17-17 0-9.393 7.609-17 17-17 9.391.0 17 7.607 17 17C238 407.191 230.391 414.801 221 414.801zM326.4 360.4H115.6V81.6h210.8V360.4z"
		/></g><g/><g/><g/><g/><g/><g/><g/><g/><g/><g/><g/><g/><g/><g/><g/></svg>