<svg id="Capa_1" xmlns="http://www.w3.org/2000/svg" xmlns:xlink="http://www.w3.org/1999/xlink" width="31.833" height="31.833" viewBox="0 0 31.833 31.833" style="enable-background:new 0 0 31.833 31.833"><g><g><path d="M27.356 28.314l.94-.496-7.639-14.523c1.017-1.132 1.646-2.629 1.646-4.267.0-2.998-2.154-5.519-4.854-6.209V1.346C17.451.602 16.848.0 16.105.0h-.197c-.744.0-1.346.602-1.346 1.346v1.443c-2.89.643-5.027 3.195-5.027 6.239.0 1.56.544 2.991 1.475 4.102L3.53 27.848l.944.48-1.049 2.062c-.104.205-.123.442-.052.66.071.221.227.4.431.506l.359.184c.205.104.443.121.662.051.218-.07.4-.227.504-.434l1.046-2.062.956.485 5.69-11.203v.882h5.973v-.318l5.564 10.668.926-.498 1.029 2.041c.104.207.283.361.504.436.219.07.459.053.664-.053l.348-.178c.426-.219.595-.738.379-1.164L27.356 28.314zM15.962 15.414c-.868.0-1.573-.704-1.573-1.573.0-.868.705-1.573 1.573-1.573.868.0 1.572.705 1.572 1.573C17.534 14.71 16.83 15.414 15.962 15.414zM18.995 12.044V9.655c0-.756-.613-1.37-1.37-1.37h-3.233c-.756.0-1.37.613-1.37 1.37v2.512c-.771-.779-1.384-1.898-1.384-3.139.0-2.35 1.91-4.26 4.259-4.26 2.35.0 4.306 1.91 4.306 4.26C20.203 10.205 19.767 11.272 18.995 12.044z"/></g></g><g/><g/><g/><g/><g/><g/><g/><g/><g/><g/><g/><g/><g/><g/><g/></svg>