<svg id="Capa_1" xmlns="http://www.w3.org/2000/svg" xmlns:xlink="http://www.w3.org/1999/xlink" width="49" height="49" viewBox="0 0 49 49" style="enable-background:new 0 0 49 49"><g><path d="M27.926 7.052c.583-.743.945-1.666.945-2.682.0-2.41-1.96-4.37-4.371-4.37-2.41.0-4.371 1.96-4.371 4.371.0 1.016.362 1.938.945 2.682-10.034 1.64-17.7 10.325-17.7 20.823C3.375 39.543 12.833 49 24.5 49s21.125-9.457 21.125-21.125C45.625 17.378 37.959 8.692 27.926 7.052zM24.5 2.33c1.125.0 2.04.915 2.04 2.04s-.915 2.04-2.04 2.04-2.04-.915-2.04-2.04S23.375 2.33 24.5 2.33zM24.501 47.396h-.162c-10.763-.088-19.449-8.918-19.36-19.684C5.066 17.038 13.821 8.351 24.499 8.351l.163.001c10.762.089 19.449 8.918 19.361 19.683C43.933 38.711 35.179 47.396 24.501 47.396zM24.65 9.518l-.153-.001c-10.037.0-18.271 8.168-18.354 18.208C6.062 37.848 14.229 46.15 24.35 46.23h.152c10.038.0 18.271-8.166 18.354-18.205C42.937 17.903 34.771 9.6 24.65 9.518zM22.774 11.882h1.197l.967 1.886c.085.168.185.369.297.608l.143.302.143.306h.024l-.009-.24-.01-.24-.006-.478v-2.143h.705v3.72H25.03l-1.063-2.041c-.052-.103-.135-.28-.248-.535l-.12-.268-.118-.267h-.027l.01.246.008.242.005.487v2.134h-.705L22.774 11.882v0zM13 29.734h-1.044l-.518-1.909c-.046-.171-.103-.404-.167-.693l-.051-.227h-.024l-.055.231-.051.227c-.039.154-.08.312-.123.464l-.531 1.903H9.404l-.964-3.72H9.16l.537 2.042c.033.131.073.313.123.543l.057.271.055.271h.024c.029-.121.051-.212.067-.271l.064-.27c.036-.142.083-.322.145-.543l.572-2.045h.829l.558 2.045c.047.176.094.355.139.543l.063.27.065.271h.022l.06-.271.058-.271c.048-.219.089-.402.128-.546l.55-2.039h.722L13 29.734zM25.781 43.443h-2.56v-3.719h2.544v.596h-1.839v.957h1.744v.521h-1.744v1.054h1.854V43.443H25.781zM26.702 29.336l-10.126 10.48 5.729-13.403 10.125-10.478L26.702 29.336zM39.015 29.77c-.586.0-.975-.072-1.166-.215-.191-.141-.287-.428-.287-.859l-.002-.137h.687l.002.08c0 .258.046.416.137.476.091.059.339.086.744.086.315.0.519-.031.604-.101.086-.068.131-.224.131-.467.0-.178-.031-.298-.098-.357-.067-.062-.211-.096-.432-.108l-.389-.022c-.59-.033-.965-.117-1.129-.246s-.246-.406-.246-.832c0-.435.099-.724.296-.866.198-.146.592-.22 1.182-.22.56.0.938.068 1.134.199.194.133.291.393.291.776v.142h-.691c-.004-.033-.008-.062-.008-.074-.016-.211-.062-.342-.139-.394-.074-.057-.255-.082-.539-.082-.332.0-.553.031-.656.093-.103.063-.152.191-.152.391.0.234.042.375.124.423.083.048.36.083.829.108.555.028.912.11 1.076.237.162.126.244.392.244.792.0.495-.097.814-.287.958C40.084 29.695 39.667 29.77 39.015 29.77z"/></g><g/><g/><g/><g/><g/><g/><g/><g/><g/><g/><g/><g/><g/><g/><g/></svg>