<svg id="Capa_1" xmlns="http://www.w3.org/2000/svg" xmlns:xlink="http://www.w3.org/1999/xlink" viewBox="0 0 424.761 424.761" style="enable-background:new 0 0 424.761 424.761"><path d="M384.811.0H39.95c-5.247.0-9.5 4.253-9.5 9.5v217.27c0 5.247 4.253 9.5 9.5 9.5h13.054c1.609 7.508 5.402 14.213 10.683 19.417-14.255 9.022-23.748 24.919-23.748 43.001v37.938c0 8.562 4.983 15.981 12.202 19.51v50.727c0 9.869 8.029 17.898 17.898 17.898h41.526c9.869.0 17.898-8.029 17.898-17.898v-50.727c7.219-3.529 12.202-10.949 12.202-19.51v-37.938c0-18.082-9.492-33.979-23.748-43.001 5.281-5.204 9.074-11.909 10.683-19.417h44.609c1.609 7.508 5.402 14.213 10.683 19.417-14.255 9.022-23.748 24.919-23.748 43.001v37.938c0 8.562 4.983 15.981 12.202 19.51v50.727c0 9.869 8.029 17.898 17.898 17.898h41.526c9.869.0 17.898-8.029 17.898-17.898v-50.727c7.219-3.529 12.202-10.949 12.202-19.51v-37.938c0-18.082-9.492-33.979-23.748-43.001 5.281-5.204 9.074-11.909 10.683-19.417h44.609c1.609 7.508 5.402 14.213 10.683 19.417-14.255 9.022-23.748 24.919-23.748 43.001v37.938c0 8.562 4.983 15.981 12.202 19.51v50.727c0 9.869 8.029 17.898 17.898 17.898h41.526c9.869.0 17.898-8.029 17.898-17.898v-50.727c7.219-3.529 12.202-10.949 12.202-19.51v-37.938c0-18.082-9.492-33.979-23.748-43.001 5.281-5.204 9.074-11.909 10.683-19.417h15.792c5.247.0 9.5-4.253 9.5-9.5V9.5C394.311 4.253 390.058.0 384.811.0zM122.667 298.688v37.938c0 1.49-1.212 2.702-2.702 2.702-5.247.0-9.5 4.253-9.5 9.5v56.934h-10.162v-48.74c0-5.247-4.253-9.5-9.5-9.5s-9.5 4.253-9.5 9.5v48.74H71.142v-56.934c0-5.247-4.253-9.5-9.5-9.5-1.49.0-2.702-1.212-2.702-2.702v-37.938c0-17.57 14.294-31.864 31.863-31.864C108.373 266.824 122.667 281.118 122.667 298.688zM71.142 228.163c0-10.841 8.82-19.662 19.661-19.662 10.842.0 19.662 8.82 19.662 19.662s-8.82 19.662-19.662 19.662C79.962 247.824 71.142 239.004 71.142 228.163zM242.875 298.688v37.938c0 1.49-1.212 2.702-2.702 2.702-5.247.0-9.5 4.253-9.5 9.5v56.934h-10.162v-48.74c0-5.247-4.253-9.5-9.5-9.5s-9.5 4.253-9.5 9.5v48.74H191.35v-56.934c0-5.247-4.253-9.5-9.5-9.5-1.49.0-2.702-1.212-2.702-2.702v-37.938c0-17.57 14.294-31.864 31.863-31.864C228.581 266.824 242.875 281.118 242.875 298.688zM191.35 228.163c0-10.841 8.82-19.662 19.661-19.662 10.842.0 19.662 8.82 19.662 19.662s-8.82 19.662-19.662 19.662C200.17 247.824 191.35 239.004 191.35 228.163zM211.011 189.501c-17.535.0-32.372 11.74-37.088 27.769h-20.831c7.397-26.071 31.259-44.653 59.289-44.653 28.029.0 51.891 18.582 59.288 44.653H248.1C243.384 201.24 228.547 189.501 211.011 189.501zM212.378 71.767c22.43.0 40.678 18.248 40.678 40.677s-18.248 40.677-40.678 40.677-40.677-18.248-40.677-40.677S189.948 71.767 212.378 71.767zM363.083 298.688v37.938c0 1.49-1.212 2.702-2.702 2.702-5.247.0-9.5 4.253-9.5 9.5v56.934h-10.162v-48.74c0-5.247-4.253-9.5-9.5-9.5s-9.5 4.253-9.5 9.5v48.74h-10.161v-56.934c0-5.247-4.253-9.5-9.5-9.5-1.49.0-2.702-1.212-2.702-2.702v-37.938c0-17.57 14.294-31.864 31.863-31.864C348.789 266.824 363.083 281.118 363.083 298.688zM311.558 228.163c0-10.841 8.82-19.662 19.661-19.662 10.842.0 19.662 8.82 19.662 19.662s-8.82 19.662-19.662 19.662C320.378 247.824 311.558 239.004 311.558 228.163zM375.311 217.27h-7.002c-4.716-16.03-19.553-27.769-37.089-27.769-17.535.0-32.372 11.74-37.088 27.769h-2.895c-5.35-25.119-22.172-45.569-44.549-56.041 15.328-10.812 25.369-28.642 25.369-48.784.0-32.906-26.771-59.677-59.678-59.677s-59.677 26.771-59.677 59.677c0 20.143 10.041 37.974 25.37 48.786-22.376 10.473-39.196 30.922-44.546 56.04h-5.633c-4.716-16.03-19.553-27.769-37.089-27.769-17.535.0-32.372 11.74-37.088 27.769H49.45V19h325.86V217.27z"/><g/><g/><g/><g/><g/><g/><g/><g/><g/><g/><g/><g/><g/><g/><g/></svg>