<svg id="Capa_1" xmlns="http://www.w3.org/2000/svg" xmlns:xlink="http://www.w3.org/1999/xlink" width="394.4" height="394.4" viewBox="0 0 394.4 394.4" style="enable-background:new 0 0 394.4 394.4"
	><g><path d="M197.2.0C88.292.0.0 88.292.0 197.2c0 108.909 88.292 197.2 197.2 197.2 108.909.0 197.2-88.291 197.2-197.2C394.4 88.292 306.109.0 197.2.0zm0 362.005c-91.018.0-164.805-73.787-164.805-164.805.0-91.018 73.787-164.805 164.805-164.805 91.018.0 164.805 73.787 164.805 164.805C362.005 288.218 288.218 362.005 197.2 362.005zM264.812 241.557c5.25 5.365 5.168 13.98-.19 19.237-14.361 14.076-32.504 22.896-52.074 25.731v15.564c0 7.508-6.093 13.601-13.6 13.601-7.508.0-13.601-6.093-13.601-13.601v-15.578c-45.288-6.623-80.213-45.614-80.213-92.711.0-47.097 34.925-86.088 80.213-92.711V85.51c0-7.507 6.093-13.6 13.601-13.6 7.507.0 13.6 6.093 13.6 13.6v15.558c20.203 2.917 38.814 12.193 53.38 27.037 5.257 5.365 5.182 13.974-.184 19.23s-13.967 5.182-19.23-.184c-12.628-12.879-29.519-19.972-47.56-19.972-36.727.0-66.612 29.886-66.612 66.613s29.886 66.613 66.612 66.613c17.545.0 34.109-6.759 46.628-19.047C250.947 236.109 259.543 236.191 264.812 241.557z"/></g><g/><g/><g/><g/><g/><g/><g/><g/><g/><g/><g/><g/><g/><g/><g/></svg>