<svg id="Capa_1" xmlns="http://www.w3.org/2000/svg" xmlns:xlink="http://www.w3.org/1999/xlink" viewBox="0 0 459.62 459.62" style="enable-background:new 0 0 459.62 459.62"><g><path d="M261.309 215.644v-9.845c0-15.104 5.026-29.979 14.534-43.018 7.132-9.781 10.902-21.365 10.902-33.5.0-15.619-6.198-30.188-17.453-41.022-11.25-10.831-26.059-16.46-41.696-15.872-28.377 1.08-53.411 25.956-54.666 54.321-.583 13.187 3.442 26.232 11.335 36.733 9.056 12.05 14.043 27.092 14.043 42.353v9.849c-23.03 11.579-38.878 35.421-38.878 62.907v55.835c0 11.803 7.486 21.89 17.959 25.765v77.609c0 12.054 9.806 21.86 21.86 21.86h61.119c12.054.0 21.86-9.806 21.86-21.86V360.15c10.473-3.874 17.958-13.961 17.958-25.764v-55.835C300.188 251.064 284.339 227.223 261.309 215.644zM199.454 152.027c-5.329-7.09-7.937-15.554-7.542-24.478.821-18.564 17.834-35.468 36.407-36.175 10.416-.402 20.301 3.358 27.796 10.573 7.5 7.22 11.63 16.927 11.63 27.334.0 8.084-2.508 15.797-7.254 22.305-11.895 16.312-18.182 35.058-18.182 54.213v3.508c-.993-.179-1.993-.339-3-.475V170.68l13.366-23.15c2.624-4.544 1.067-10.354-3.477-12.977-4.544-2.625-10.354-1.066-12.977 3.477l-6.412 11.105-6.412-11.105c-2.624-4.544-8.434-6.101-12.977-3.477-4.544 2.623-6.101 8.433-3.477 12.977l13.366 23.15v38.152c-1.007.137-2.007.296-3 .475v-3.511C217.309 186.443 210.968 167.348 199.454 152.027zM281.188 334.387c0 4.609-3.705 8.369-8.294 8.457-5.311.102-9.665 4.19-9.665 9.502v85.415c0 1.58-1.281 2.86-2.86 2.86h-18.219c-1.569.0-2.84-1.272-2.84-2.84v-73.051c0-5.06-3.818-9.478-8.867-9.805-5.533-.358-10.133 4.024-10.133 9.479v73.377c0 1.569-1.272 2.84-2.84 2.84H199.25c-1.579.0-2.86-1.28-2.86-2.86v-85.415c0-5.312-4.354-9.4-9.665-9.502-4.588-.088-8.294-3.848-8.294-8.457v-54.973c0-28.134 22.257-51.698 50.386-52.231 28.782-.546 52.371 22.709 52.371 51.369V334.387z"/><path d="M229.805 55.042c5.247.0 9.5-4.253 9.5-9.5V9.5c0-5.247-4.253-9.5-9.5-9.5s-9.5 4.253-9.5 9.5v36.042c0 5.247 4.252999999999986 9.5 9.5 9.5z"/><path d="M290.105 80.034c2.431.0 4.863-.928 6.717-2.782l25.496-25.496c3.71-3.71 3.71-9.725.0-13.435-3.711-3.711-9.726-3.71-13.435.0l-25.496 25.496c-3.71 3.71-3.71 9.725.0 13.435C285.243 79.107 287.673 80.034 290.105 80.034z"
		/><path d="M351.128 121.324h-36.042c-5.247.0-9.5 4.253-9.5 9.5s4.253 9.5 9.5 9.5h36.042c5.247.0 9.5-4.253 9.5-9.5S356.375 121.324 351.128 121.324z"/><path d="M296.822 184.407c-3.71-3.711-9.725-3.711-13.435.0-3.71 3.71-3.71 9.725.0 13.435l25.485 25.485c1.855 1.855 4.286 2.783 6.717 2.783s4.862-.928 6.717-2.783c3.71-3.71 3.71-9.725.0-13.435L296.822 184.407z"/><path d="M176.221 184.406c-3.71-3.71-9.725-3.709-13.435.0l-25.484 25.485c-3.71 3.71-3.709 9.725.0 13.435 1.855 1.855 4.286 2.782 6.717 2.782s4.863-.928 6.718-2.783l25.484-25.485C179.932 194.131 179.931 188.116 176.221 184.406z"/><path d="M154.034 130.824c0-5.247-4.253-9.5-9.5-9.5h-36.042c-5.247.0-9.5 4.253-9.5 9.5s4.253 9.5 9.5 9.5h36.042C149.781 140.324 154.034 136.07 154.034 130.824z"/><path d="M162.786 77.241c1.855 1.855 4.286 2.783 6.718 2.783 2.431.0 4.863-.928 6.717-2.782 3.71-3.71 3.71-9.725.0-13.435l-25.484-25.485c-3.711-3.711-9.726-3.71-13.435.0-3.71 3.71-3.71 9.725.0 13.435L162.786 77.241z"/></g><g/><g/><g/><g/><g/><g/><g/><g/><g/><g/><g/><g/><g/><g/><g/></svg>