<svg id="Capa_1" xmlns="http://www.w3.org/2000/svg" xmlns:xlink="http://www.w3.org/1999/xlink" viewBox="0 0 511 511" style="enable-background:new 0 0 511 511"><path d="M455.5 56h-4e2C24.897 56 0 80.897.0 111.5v288C0 430.103 24.897 455 55.5 455h4e2c30.603.0 55.5-24.897 55.5-55.5v-288C511 80.897 486.103 56 455.5 56zM464 248H343v-56.5c0-4.687 3.813-8.5 8.5-8.5H464v65zM343 263h121v65H343V263zm136-40h17v65h-17V223zm0-15v-65h17v65H479zm-15-40H351.5c-12.958.0-23.5 10.542-23.5 23.5V408H183V103h272.5c4.687.0 8.5 3.813 8.5 8.5V168zM168 248H47v-65h121v65zM32 288H15v-65h17v65zm15-25h121v65H47V263zM263 88V71h137v17H263zm-15 0H111V71h137V88zm-80 15v65H47v-56.5c0-4.687 3.813-8.5 8.5-8.5H168zM32 208H15v-65h17v65zM15 303h17v65H15V303zm32 40h121v65H55.5c-4.687.0-8.5-3.813-8.5-8.5V343zm201 80v17H111v-17H248zm15 0h137v17H263V423zm80-15v-65h121v56.5c0 4.687-3.813 8.5-8.5 8.5H343zM479 303h17v65h-17V303zm17-191.5V128h-17v-16.5c0-12.958-10.542-23.5-23.5-23.5H415V71h40.5C477.832 71 496 89.168 496 111.5zM55.5 71H96v17H55.5C42.542 88 32 98.542 32 111.5V128H15v-16.5C15 89.168 33.168 71 55.5 71zM15 399.5V383h17v16.5c0 12.958 10.542 23.5 23.5 23.5H96v17H55.5C33.168 440 15 421.832 15 399.5zM455.5 440H415v-17h40.5c12.958.0 23.5-10.542 23.5-23.5V383h17v16.5C496 421.832 477.832 440 455.5 440z"/><g/><g/><g/><g/><g/><g/><g/><g/><g/><g/><g/><g/><g/><g/><g/></svg>