<svg id="Capa_1" xmlns="http://www.w3.org/2000/svg" xmlns:xlink="http://www.w3.org/1999/xlink" viewBox="0 0 511 511" style="enable-background:new 0 0 511 511"><g><path d="M151.5 264c-4.142.0-7.5 3.358-7.5 7.5v72c0 4.142 3.358 7.5 7.5 7.5s7.5-3.358 7.5-7.5v-72C159 267.358 155.642 264 151.5 264z"/><path d="M215.5 80h-16c-4.142.0-7.5 3.358-7.5 7.5s3.358 7.5 7.5 7.5h16c4.142.0 7.5-3.358 7.5-7.5S219.642 80 215.5 80z"/><path d="M215.5 104h-16c-4.142.0-7.5 3.358-7.5 7.5s3.358 7.5 7.5 7.5h16c4.142.0 7.5-3.358 7.5-7.5S219.642 104 215.5 104z"/><path d="M215.5 128h-16c-4.142.0-7.5 3.358-7.5 7.5s3.358 7.5 7.5 7.5h16c4.142.0 7.5-3.358 7.5-7.5S219.642 128 215.5 128z"/><path d="M215.5 160h-16c-4.142.0-7.5 3.358-7.5 7.5s3.358 7.5 7.5 7.5h16c4.142.0 7.5-3.358 7.5-7.5S219.642 160 215.5 160z"/><path d="M215.5 184h-16c-4.142.0-7.5 3.358-7.5 7.5s3.358 7.5 7.5 7.5h16c4.142.0 7.5-3.358 7.5-7.5S219.642 184 215.5 184z"/><path d="M215.5 208h-16c-4.142.0-7.5 3.358-7.5 7.5s3.358 7.5 7.5 7.5h16c4.142.0 7.5-3.358 7.5-7.5S219.642 208 215.5 208z"/><path d="M215.5 232h-16c-4.142.0-7.5 3.358-7.5 7.5s3.358 7.5 7.5 7.5h16c4.142.0 7.5-3.358 7.5-7.5S219.642 232 215.5 232z"/><path d="M215.5 264h-16c-4.142.0-7.5 3.358-7.5 7.5s3.358 7.5 7.5 7.5h16c4.142.0 7.5-3.358 7.5-7.5S219.642 264 215.5 264z"/><path d="M215.5 288h-16c-4.142.0-7.5 3.358-7.5 7.5s3.358 7.5 7.5 7.5h16c4.142.0 7.5-3.358 7.5-7.5S219.642 288 215.5 288z"/><path d="M215.5 312h-16c-4.142.0-7.5 3.358-7.5 7.5s3.358 7.5 7.5 7.5h16c4.142.0 7.5-3.358 7.5-7.5S219.642 312 215.5 312z"/><path d="M215.5 336h-16c-4.142.0-7.5 3.358-7.5 7.5s3.358 7.5 7.5 7.5h16c4.142.0 7.5-3.358 7.5-7.5S219.642 336 215.5 336z"/><path d="M215.5 368h-16c-4.142.0-7.5 3.358-7.5 7.5s3.358 7.5 7.5 7.5h16c4.142.0 7.5-3.358 7.5-7.5S219.642 368 215.5 368z"/><path d="M215.5 392h-16c-4.142.0-7.5 3.358-7.5 7.5s3.358 7.5 7.5 7.5h16c4.142.0 7.5-3.358 7.5-7.5S219.642 392 215.5 392z"/><path d="M215.5 416h-16c-4.142.0-7.5 3.358-7.5 7.5s3.358 7.5 7.5 7.5h16c4.142.0 7.5-3.358 7.5-7.5S219.642 416 215.5 416z"/><path d="M215.5 440h-16c-4.142.0-7.5 3.358-7.5 7.5s3.358 7.5 7.5 7.5h16c4.142.0 7.5-3.358 7.5-7.5S219.642 440 215.5 440z"/><path d="M311.5 328c-21.78.0-39.5 17.72-39.5 39.5v48c0 21.78 17.72 39.5 39.5 39.5s39.5-17.72 39.5-39.5v-48C351 345.72 333.28 328 311.5 328zM336 415.5c0 13.509-10.991 24.5-24.5 24.5S287 429.009 287 415.5v-48c0-13.509 10.991-24.5 24.5-24.5s24.5 10.991 24.5 24.5v48z"/><path d="M479.5.0h-448C14.131.0.0 14.131.0 31.5v104C0 152.869 14.131 167 31.5 167H88v304.5c0 21.78 17.72 39.5 39.5 39.5h256c21.78.0 39.5-17.72 39.5-39.5V167h56.5c17.369.0 31.5-14.131 31.5-31.5v-104C511 14.131 496.869.0 479.5.0zm-96 496h-256c-13.509.0-24.5-10.991-24.5-24.5V159.529c0-.01.001-.02.001-.029S103 159.48 103 159.471V71h41v168.5c0 4.142 3.358 7.5 7.5 7.5s7.5-3.358 7.5-7.5V71h40.5 16 58.097C272.57 73.638 272 76.503 272 79.5v48c0 12.958 10.542 23.5 23.5 23.5h32c12.958.0 23.5-10.542 23.5-23.5v-48c0-2.997-.57-5.862-1.597-8.5H408v88.452c0 .016-.002.032-.002.048s.002.032.002.048V471.5C408 485.009 397.009 496 383.5 496zm-72-409c4.142.0 7.5-3.358 7.5-7.5V71h8.5c4.687.0 8.5 3.813 8.5 8.5V96h-49V79.5c0-4.687 3.813-8.5 8.5-8.5h8.5v8.5C304 83.642 307.358 87 311.5 87zm0 33c-4.142.0-7.5 3.358-7.5 7.5v8.5h-8.5c-4.687.0-8.5-3.813-8.5-8.5V111h49v16.5c0 4.687-3.813 8.5-8.5 8.5H319v-8.5C319 123.358 315.642 120 311.5 120zM496 135.5c0 9.098-7.402 16.5-16.5 16.5H423V71h24.5c4.142.0 7.5-3.358 7.5-7.5s-3.358-7.5-7.5-7.5h-384c-4.142.0-7.5 3.358-7.5 7.5s3.358 7.5 7.5 7.5H88v81H31.5c-9.098.0-16.5-7.402-16.5-16.5v-104C15 22.402 22.402 15 31.5 15h448c9.098.0 16.5 7.402 16.5 16.5v104z"/></g><g/><g/><g/><g/><g/><g/><g/><g/><g/><g/><g/><g/><g/><g/><g/></svg>