<svg id="Capa_1" xmlns="http://www.w3.org/2000/svg" xmlns:xlink="http://www.w3.org/1999/xlink" width="121.915" height="121.914" viewBox="0 0 121.915 121.914" style="enable-background:new 0 0 121.915 121.914"><g><g><path d="M82.323 35.52v16.446H39.591V35.52c-3.749.631-6.608 3.883-6.608 7.811v70.653c0 4.38 3.55 7.93 7.93 7.93H81c4.381.0 7.931-3.55 7.931-7.93V43.331C88.93 39.402 86.07 36.151 82.323 35.52zM52.052 114.143h-7.544V106.6h7.544V114.143zM52.052 100.482h-7.544v-7.541h7.544V100.482zM52.052 87.427h-7.544v-7.542h7.544V87.427zM64.622 114.143H57.08V106.6h7.542V114.143zM64.622 100.482H57.08v-7.541h7.542V100.482zM64.622 87.427H57.08v-7.542h7.542V87.427zM77.403 114.143h-7.544V106.6h7.544V114.143zM77.403 100.482h-7.544v-7.541h7.544V100.482zM77.403 87.427h-7.544v-7.542h7.544V87.427zM81.808 75.133H39.224V58.1h42.584V75.133z"/><path d="M63.602.785c0-.269.027-.531.078-.784H47.139c-2.165.0-3.919 1.755-3.919 3.92v45.221h20.383L63.602.785v0z"/><path d="M71.833 49.142h6.859V3.92c0-2.165-1.754-3.92-3.919-3.92h-3.019c.051.253.078.515.078.784V49.142H71.833z"/></g></g><g/><g/><g/><g/><g/><g/><g/><g/><g/><g/><g/><g/><g/><g/><g/></svg>