<svg id="Capa_1" xmlns="http://www.w3.org/2000/svg" xmlns:xlink="http://www.w3.org/1999/xlink" viewBox="0 0 511.016 511.016" style="enable-background:new 0 0 511.016 511.016"><g><path d="M167.508 308.004c-4.142.0-7.5 3.358-7.5 7.5v40c0 4.142 3.358 7.5 7.5 7.5s7.5-3.358 7.5-7.5v-40C175.008 311.362 171.65 308.004 167.508 308.004z"/><path d="M167.508 244.004c-4.142.0-7.5 3.358-7.5 7.5v40c0 4.142 3.358 7.5 7.5 7.5s7.5-3.358 7.5-7.5v-40C175.008 247.362 171.65 244.004 167.508 244.004z"/><path d="M118.508 300.004h-38c-4.687.0-8.5 3.813-8.5 8.5v46c0 4.687 3.813 8.5 8.5 8.5h38c4.687.0 8.5-3.813 8.5-8.5v-46C127.008 303.817 123.195 300.004 118.508 300.004zm-6.5 15v9h-25v-9h25zm-25 33v-9h25v9h-25z"/><path d="M439.516 324.012c-21.78.0-39.5 17.72-39.5 39.5s17.72 39.5 39.5 39.5 39.5-17.72 39.5-39.5S461.296 324.012 439.516 324.012zm0 64c-13.509.0-24.5-10.991-24.5-24.5s10.991-24.5 24.5-24.5 24.5 10.991 24.5 24.5S453.025 388.012 439.516 388.012z"/><path d="M439.516 227.012c21.78.0 39.5-17.72 39.5-39.5s-17.72-39.5-39.5-39.5-39.5 17.72-39.5 39.5S417.736 227.012 439.516 227.012zm0-64c13.509.0 24.5 10.991 24.5 24.5s-10.991 24.5-24.5 24.5-24.5-10.991-24.5-24.5S426.007 163.012 439.516 163.012z"/><path d="M295.521 268.012c-1.98.0-3.91.8-5.31 2.2-1.39 1.39-2.19 3.33-2.19 5.3s.8 3.91 2.19 5.3c1.4 1.4 3.33 2.2 5.31 2.2 1.97.0 3.9-.8 5.3-2.2 1.39-1.39 2.2-3.33 2.2-5.3s-.81-3.91-2.2-5.3C299.42 268.812 297.49 268.012 295.521 268.012z"/><path d="M439.516 292.012c-12.769.0-25.138 3.36-36.06 9.757l-44.043-26.257 44.043-26.256c10.922 6.397 23.291 9.757 36.06 9.757 39.425.0 71.5-32.075 71.5-71.5s-32.075-71.5-71.5-71.5-71.5 32.075-71.5 71.5c0 3.065.197 6.135.589 9.178l-66.814 39.832c-2.051-.326-4.144-.51-6.275-.51-.771.0-1.497.049-2.164.117l-46.344-27.628V107.504c0-17.369-14.131-31.5-31.5-31.5h-160c-17.369.0-31.5 14.131-31.5 31.5v15.323H7.501c-3.375.0-6.334 2.254-7.23 5.508-.896 3.254.491 6.706 3.39 8.434L24.008 148.9v222.604c0 9.602 4.323 18.208 11.12 23.99L3.66 414.254c-2.899 1.728-4.287 5.18-3.39 8.434.896 3.254 3.855 5.508 7.23 5.508h49.658c30.185.0 59.844-8.17 85.771-23.626l2.627-1.566h69.951c17.369.0 31.5-14.131 31.5-31.5v-28.981l46.268-27.583c.743.042 1.489.071 2.24.071 1.999.0 4.048-.182 6.203-.553l66.886 39.875c-.392 3.043-.589 6.113-.589 9.178.0 39.425 32.075 71.5 71.5 71.5s71.5-32.075 71.5-71.5S478.941 292.012 439.516 292.012zM380.683 206.953c2.744-1.636 4.15-4.829 3.505-7.958-.777-3.767-1.171-7.631-1.171-11.483.0-31.154 25.346-56.5 56.5-56.5s56.5 25.346 56.5 56.5-25.346 56.5-56.5 56.5c-11.377.0-22.349-3.373-31.73-9.755-2.411-1.64-5.555-1.734-8.059-.241l-54.96 32.764-13.586-8.099c-2.841-6.049-7.058-11.136-12.192-14.949L380.683 206.953zM39.008 107.504c0-9.098 7.402-16.5 16.5-16.5h160c9.098.0 16.5 7.402 16.5 16.5v92.054l-57.257-34.134c.162-.614.257-1.255.257-1.92v-40c0-4.142-3.358-7.5-7.5-7.5s-7.5 3.358-7.5 7.5v33.131l-17.079-10.182c-25.927-15.457-55.586-23.626-85.771-23.626h-18.15V107.504zM57.159 413.197H34.728l17.404-10.376c1.11.119 2.236.183 3.376.183h56.45C94.539 409.71 75.962 413.197 57.159 413.197zM215.508 388.004h-160c-9.098.0-16.5-7.402-16.5-16.5V157.843l153 91.212v106.449c0 4.142 3.358 7.5 7.5 7.5s7.5-3.358 7.5-7.5v-97.507l25 14.904v98.603C232.008 380.602 224.607 388.004 215.508 388.004zM247.008 325.06v-43.217l11.37 6.778c2.982 8.475 8.688 15.49 15.946 20.153L247.008 325.06zm192.508 94.952c-31.154.0-56.5-25.346-56.5-56.5.0-3.853.394-7.716 1.171-11.483.646-3.128-.761-6.322-3.505-7.958l-73.788-43.989c-1.171-.698-2.499-1.058-3.841-1.058-.591.0-1.185.07-1.768.211-2.184.53-4.018.777-5.77.777-.952.0-1.889-.076-2.818-.185-.022-.004-.044-.005-.067-.009-9.808-1.18-18.099-8.271-20.689-18.08-.501-1.897-1.726-3.522-3.411-4.527L39.008 140.379v-2.552h18.15c27.482.0 54.485 7.438 78.09 21.51l152.641 90.998c1.422.848 3.087 1.201 4.729 1.005.371-.044.74-.094 1.108-.145.72-.098 1.341-.184 1.789-.184 1.977.0 3.905.241 5.762.688.018.005.036.01.055.015 7.617 1.854 13.963 7.292 16.941 14.9.607 1.551 1.713 2.855 3.144 3.708l78.31 46.685c2.505 1.494 5.648 1.399 8.059-.241 9.381-6.382 20.353-9.755 31.73-9.755 31.154.0 56.5 25.346 56.5 56.5S470.67 420.012 439.516 420.012z"/></g><g/><g/><g/><g/><g/><g/><g/><g/><g/><g/><g/><g/><g/><g/><g/></svg>