<svg id="Capa_1" xmlns="http://www.w3.org/2000/svg" xmlns:xlink="http://www.w3.org/1999/xlink" viewBox="0 0 458.037 458.037" style="enable-background:new 0 0 458.037 458.037"><path d="M416.659 109.581c-4.794-8.283-12.526-14.203-21.772-16.67l-102.23-27.278-5.818-33.253c-3.716-21.245-24.019-35.506-45.259-31.79L68.927 30.798c-10.291 1.8-19.266 7.501-25.27 16.052-6.004 8.551-8.319 18.927-6.519 29.218L88.57 370.015c1.341 7.661 4.891 14.644 10.165 20.188.477 1.041 1.004 2.065 1.585 3.069 4.794 8.283 12.526 14.203 21.772 16.67l175.69 46.88c3.082.823 6.18 1.215 9.229 1.215 15.831.0 30.354-10.589 34.624-26.595l78.63-294.678C422.734 127.518 421.453 117.864 416.659 109.581zM283.998 82.986l-87.307 327.196-43.584-11.629 87.307-327.196L283.998 82.986zM244.854 19.305c10.915-1.914 21.357 5.424 23.269 16.348l4.301 24.58L219.196 46.03c-9.243-2.467-18.899-1.187-27.183 3.607-8.283 4.794-14.203 12.526-16.671 21.772l-6.11 22.9-10.488-59.938L244.854 19.305zM129.925 241.622 95.595 45.421l44.435-7.775 17.553 100.32L129.925 241.622zM55.854 72.794c-.926-5.292.266-10.627 3.354-15.025 3.087-4.397 7.702-7.329 12.994-8.255l4.679-.819 41.395 236.584-15.246 57.137L55.854 72.794zM115.07 370.986 193.7 76.308c1.159-4.343 3.939-7.975 7.83-10.226 2.597-1.502 5.479-2.271 8.401-2.271 1.456.0 2.922.191 4.366.576l7.759 2.07L134.75 393.654l-7.759-2.07C118.025 389.191 112.678 379.952 115.07 370.986zM401.909 131.865l-78.63 294.678c-1.159 4.343-3.939 7.975-7.83 10.226-3.891 2.251-8.425 2.853-12.768 1.694l-87.633-23.383 87.307-327.196 87.633 23.383c4.343 1.159 7.975 3.94 10.227 7.831C402.466 122.988 403.068 127.523 401.909 131.865z"/><g/><g/><g/><g/><g/><g/><g/><g/><g/><g/><g/><g/><g/><g/><g/></svg>