<svg id="Capa_1" xmlns="http://www.w3.org/2000/svg" xmlns:xlink="http://www.w3.org/1999/xlink" width="49" height="49" viewBox="0 0 49 49" style="enable-background:new 0 0 49 49"><g><path d="M47.116 7.037H9.103c-1.041.0-1.883.843-1.883 1.883v3.846H2.511C1.125 12.766.0 13.891.0 15.276v24.175c0 1.386 1.125 2.512 2.511 2.512h38.012c1.388.0 2.512-1.126 2.512-2.512v-4.476h4.081c1.041.0 1.884-.844 1.884-1.883V8.919C49 7.88 48.157 7.037 47.116 7.037zM9.433 38.667H3.468v-3.14h5.964L9.433 38.667v0zM16.966 38.667h-5.964v-3.14h5.964V38.667zM24.5 38.667h-5.964v-3.14H24.5V38.667zM28.247 25.326c0 1.662.677 3.173 1.767 4.27-.714.403-1.531.655-2.408.655-2.722.0-4.927-2.205-4.927-4.925.0-2.721 2.206-4.928 4.927-4.928.877.0 1.694.249 2.408.654C28.924 22.149 28.247 23.661 28.247 25.326zM34.316 20.397c2.721.0 4.927 2.205 4.927 4.928.0 2.72-2.206 4.925-4.927 4.925-2.723.0-4.926-2.205-4.926-4.925C29.391 22.604 31.596 20.397 34.316 20.397zM32.034 38.667h-5.966v-3.14h5.966V38.667zM39.566 38.667h-5.963v-3.14h5.963V38.667zM45.232 31.213h-2.197v-9.025h2.197V31.213zm0-16.717h-2.334c-.33-1.001-1.265-1.729-2.375-1.729H10.987v-1.964h34.246V14.496H45.232z"/></g><g/><g/><g/><g/><g/><g/><g/><g/><g/><g/><g/><g/><g/><g/><g/></svg>