<svg id="Capa_1" xmlns="http://www.w3.org/2000/svg" xmlns:xlink="http://www.w3.org/1999/xlink" width="124.447" height="124.447" viewBox="0 0 124.447 124.447" style="enable-background:new 0 0 124.447 124.447"><g><g><path d="M25.656 6.732h-1.617c-1.933.0-3.502 1.568-3.502 3.503v9.516h9.47L25.656 6.732z"/><path d="M58.073 50.116l5.083 10.101.867 1.726-1.145 2.274L55.801 50.15 36.383 9.104 25.762.0l18.713 56.013 11.829 21.273-4.835 9.606c-1.613-.674-3.387-1.023-5.248-1.023-6.133.0-12.744 3.792-17.254 9.896-3.128 4.232-4.938 9.121-5.097 13.769-.178 5.218 1.792 9.741 5.406 12.41 2.215 1.639 4.935 2.503 7.863 2.503 6.134.0 12.745-3.792 17.255-9.896 4.467-6.05 5.992-12.949 4.633-18.516l3.852-6.928 2.862 5.148c-2.218 5.816-.884 13.58 4.077 20.293 4.51 6.104 11.119 9.897 17.254 9.897v0c2.93.0 5.648-.864 7.861-2.501 3.615-2.67 5.584-7.194 5.408-12.412-.158-4.646-1.97-9.535-5.097-13.768-4.511-6.104-11.123-9.896-17.255-9.896-1.368.0-2.688.193-3.936.562l-4.602-9.146 7.869-14.153h23.085c1.937.0 3.502-1.567 3.502-3.502V29.793H48.458L58.073 50.116zM46.875 108.995c-3.114 4.216-7.135 6.104-9.736 6.104-.929.0-1.704-.228-2.309-.672-1.507-1.113-1.661-3.346-1.619-4.576.094-2.734 1.286-5.846 3.272-8.532 3.114-4.218 7.135-6.106 9.736-6.106.929.0 1.705.227 2.309.672C50.982 97.698 50.797 103.689 46.875 108.995zM75.681 95.887c.604-.447 1.381-.674 2.311-.674 2.602.0 6.62 1.889 9.736 6.105 1.984 2.688 3.179 5.798 3.271 8.533.042 1.229-.111 3.463-1.619 4.576-.604.443-1.38.67-2.309.67-2.604.0-6.622-1.888-9.736-6.104C73.416 103.689 73.228 97.698 75.681 95.887zM63.251 78.691l-4.462-5.377 2.405-1.996 4.464 5.377L63.251 78.691z"/><path d="M45.71 63.133l-3.053-5.512-9.296-27.828H20.537v29.836c0 1.936 1.569 3.503 3.502 3.503H45.71z"/><path d="M100.41 6.732H36.221l2.231 1.912 5.255 11.106h60.204v-9.516C103.912 8.3 102.345 6.732 100.41 6.732z"/><path d="M99.995.0 94.614 4.614H98.454z"/></g></g><g/><g/><g/><g/><g/><g/><g/><g/><g/><g/><g/><g/><g/><g/><g/></svg>