<svg id="Capa_1" xmlns="http://www.w3.org/2000/svg" xmlns:xlink="http://www.w3.org/1999/xlink" viewBox="0 0 511 511" style="enable-background:new 0 0 511 511"><g><path d="M471.5 88h-432C17.72 88 0 105.72.0 127.5v256C0 405.28 17.72 423 39.5 423h432c21.78.0 39.5-17.72 39.5-39.5v-256C511 105.72 493.28 88 471.5 88zM496 383.5c0 13.509-10.991 24.5-24.5 24.5h-432C25.991 408 15 397.009 15 383.5v-256c0-13.509 10.991-24.5 24.5-24.5h432c13.509.0 24.5 10.991 24.5 24.5v256z"/><path d="M239.5 352h-176c-4.142.0-7.5 3.358-7.5 7.5s3.358 7.5 7.5 7.5h176c4.142.0 7.5-3.358 7.5-7.5S243.642 352 239.5 352z"/><path d="M343.5 352h-72c-4.142.0-7.5 3.358-7.5 7.5s3.358 7.5 7.5 7.5h72c4.142.0 7.5-3.358 7.5-7.5S347.642 352 343.5 352z"/><path d="M79.5 239h48c12.958.0 23.5-10.542 23.5-23.5v-32c0-12.958-10.542-23.5-23.5-23.5h-48C66.542 160 56 170.542 56 183.5v32C56 228.458 66.542 239 79.5 239zM136 183.5v8.5h-8.5c-4.142.0-7.5 3.358-7.5 7.5s3.358 7.5 7.5 7.5h8.5v8.5c0 4.687-3.813 8.5-8.5 8.5H111v-49h16.5C132.187 175 136 178.813 136 183.5zM79.5 175H96v49H79.5c-4.687.0-8.5-3.813-8.5-8.5V207h8.5c4.142.0 7.5-3.358 7.5-7.5s-3.358-7.5-7.5-7.5H71v-8.5C71 178.813 74.813 175 79.5 175z"/><path d="M63.5 319c4.142.0 7.5-3.358 7.5-7.5v-16c0-4.142-3.358-7.5-7.5-7.5s-7.5 3.358-7.5 7.5v16C56 315.642 59.358 319 63.5 319z"/><path d="M80 295.5v16c0 4.142 3.358 7.5 7.5 7.5s7.5-3.358 7.5-7.5v-16c0-4.142-3.358-7.5-7.5-7.5S80 291.358 80 295.5z"/><path d="M104 295.5v16c0 4.142 3.358 7.5 7.5 7.5s7.5-3.358 7.5-7.5v-16c0-4.142-3.358-7.5-7.5-7.5S104 291.358 104 295.5z"/><path d="M128 295.5v16c0 4.142 3.358 7.5 7.5 7.5s7.5-3.358 7.5-7.5v-16c0-4.142-3.358-7.5-7.5-7.5S128 291.358 128 295.5z"/><path d="M167.5 319c4.142.0 7.5-3.358 7.5-7.5v-16c0-4.142-3.358-7.5-7.5-7.5s-7.5 3.358-7.5 7.5v16C160 315.642 163.358 319 167.5 319z"/><path d="M191.5 319c4.142.0 7.5-3.358 7.5-7.5v-16c0-4.142-3.358-7.5-7.5-7.5s-7.5 3.358-7.5 7.5v16C184 315.642 187.358 319 191.5 319z"/><path d="M215.5 319c4.142.0 7.5-3.358 7.5-7.5v-16c0-4.142-3.358-7.5-7.5-7.5s-7.5 3.358-7.5 7.5v16C208 315.642 211.358 319 215.5 319z"/><path d="M239.5 288c-4.142.0-7.5 3.358-7.5 7.5v16c0 4.142 3.358 7.5 7.5 7.5s7.5-3.358 7.5-7.5v-16C247 291.358 243.642 288 239.5 288z"/><path d="M271.5 319c4.142.0 7.5-3.358 7.5-7.5v-16c0-4.142-3.358-7.5-7.5-7.5s-7.5 3.358-7.5 7.5v16C264 315.642 267.358 319 271.5 319z"/><path d="M295.5 319c4.142.0 7.5-3.358 7.5-7.5v-16c0-4.142-3.358-7.5-7.5-7.5s-7.5 3.358-7.5 7.5v16C288 315.642 291.358 319 295.5 319z"/><path d="M319.5 319c4.142.0 7.5-3.358 7.5-7.5v-16c0-4.142-3.358-7.5-7.5-7.5s-7.5 3.358-7.5 7.5v16C312 315.642 315.358 319 319.5 319z"/><path d="M343.5 288c-4.142.0-7.5 3.358-7.5 7.5v16c0 4.142 3.358 7.5 7.5 7.5s7.5-3.358 7.5-7.5v-16C351 291.358 347.642 288 343.5 288z"/><path d="M375.5 288c-4.142.0-7.5 3.358-7.5 7.5v16c0 4.142 3.358 7.5 7.5 7.5s7.5-3.358 7.5-7.5v-16C383 291.358 379.642 288 375.5 288z"/><path d="M399.5 288c-4.142.0-7.5 3.358-7.5 7.5v16c0 4.142 3.358 7.5 7.5 7.5s7.5-3.358 7.5-7.5v-16C407 291.358 403.642 288 399.5 288z"/><path d="M423.5 288c-4.142.0-7.5 3.358-7.5 7.5v16c0 4.142 3.358 7.5 7.5 7.5s7.5-3.358 7.5-7.5v-16C431 291.358 427.642 288 423.5 288z"/><path d="M447.5 288c-4.142.0-7.5 3.358-7.5 7.5v16c0 4.142 3.358 7.5 7.5 7.5s7.5-3.358 7.5-7.5v-16C455 291.358 451.642 288 447.5 288z"/><path d="M415.5 160h-48c-21.78.0-39.5 17.72-39.5 39.5s17.72 39.5 39.5 39.5h48c21.78.0 39.5-17.72 39.5-39.5S437.28 160 415.5 160zm0 64h-48c-13.509.0-24.5-10.991-24.5-24.5s10.991-24.5 24.5-24.5h48c13.509.0 24.5 10.991 24.5 24.5S429.009 224 415.5 224z"/></g><g/><g/><g/><g/><g/><g/><g/><g/><g/><g/><g/><g/><g/><g/><g/></svg>