<svg enable-background="new 0 0 512 512" viewBox="0 0 512 512" xmlns="http://www.w3.org/2000/svg"><path d="m382.996 170.703-120.022-63.012c-4.366-2.292-9.582-2.292-13.948 0l-120.022 63.012c-.067.035-.131.076-.197.112-.073.04-.148.074-.221.115-4.502 2.554-7.53 7.385-7.603 12.847-.001.07-.007.139-.007.208v132.025h-.001c0 5.173 2.664 9.981 7.051 12.722l120.022 75.014c.106.066.216.123.323.186 4.922 2.905 10.916 2.729 15.58-.186l120.022-75.014c4.387-2.741 7.051-7.549 7.051-12.722v-132.023c.001-5.457-3.028-10.647-8.028-13.284zm-141.999 193.253-90.017-56.26v-97.211l90.017 54.01zm15.003-125.451-89.408-53.645 89.408-46.94 89.408 46.94zm105.019 69.19-90.017 56.26v-99.461l90.017-54.01z"/><path d="m466.185 360.666h-45.155c-8.481 0-15.356 6.875-15.356 15.356s6.874 15.356 15.356 15.356h14.318c-42.308 56.04-108.802 89.91-179.348 89.91-124.224 0-225.288-101.063-225.288-225.288 0-17.735 2.512-36.113 7.678-56.183 2.114-8.213-2.83-16.585-11.043-18.698-8.215-2.113-16.585 2.83-18.698 11.043-5.82 22.604-8.648 43.486-8.648 63.838 0 141.159 114.84 256 255.999 256 45.575 0 90.376-12.295 129.559-35.557 24.652-14.635 46.659-33.344 65.126-55.133.022 8.462 6.886 15.316 15.354 15.316 8.481 0 15.356-6.875 15.356-15.356v-43.126c1.284-9.209-5.868-17.478-15.21-17.478z"/><path d="m256 0c-45.575 0-90.376 12.295-129.559 35.557-24.657 14.638-46.668 33.352-65.138 55.146-.144-8.356-6.95-15.089-15.342-15.089-8.481 0-15.356 6.875-15.356 15.356v45.154c0 9.273 8.182 16.493 17.478 15.211h43.031c8.481 0 15.356-6.875 15.356-15.356s-6.874-15.357-15.355-15.357h-14.463c42.308-56.04 108.802-89.91 179.348-89.91 124.224 0 225.288 101.064 225.288 225.288 0 17.735-2.512 36.113-7.678 56.183-2.114 8.212 2.83 16.585 11.043 18.698 8.214 2.114 16.585-2.832 18.698-11.043 5.819-22.605 8.648-43.487 8.648-63.839 0-141.158-114.84-255.999-255.999-255.999z"/></svg>