<svg id="Capa_1" xmlns="http://www.w3.org/2000/svg" xmlns:xlink="http://www.w3.org/1999/xlink" width="438.625" height="438.625" viewBox="0 0 438.625 438.625" style="enable-background:new 0 0 438.625 438.625"><g><g><path d="M393.625 22.502H45c-24.813.0-45 20.187-45 45v211.195c0 24.814 20.188 45 45 45h134.789v21.968h-33.752c-9.178.0-16.617 7.438-16.617 16.616v37.225c0 9.178 7.439 16.617 16.617 16.617H292.59c9.176.0 16.617-7.439 16.617-16.617v-37.223c0-9.178-7.441-16.617-16.617-16.617h-33.752v-21.967h134.787c24.812.0 45-20.188 45-45V67.502C438.625 42.689 418.438 22.502 393.625 22.502zm5 256.197c0 2.757-2.244 5-5 5h-83.586c-4.338-11.963-8.111-20.954-8.111-20.954-1.998-4.776-6.801-7.835-11.389-9.716l-31.006-14.274-14.896-12.563L220.701 250l5.043 33.698h-12.863l5.041-33.699-23.934-23.807-14.896 12.562-31.006 14.273c-4.588 1.881-9.473 5.097-11.389 9.717.0.0-3.775 8.992-8.111 20.953H45c-2.756.0-5-2.242-5-5V67.502c0-2.757 2.244-5 5-5h348.625c2.756.0 5 2.243 5 5V278.699z"/><path d="M296.43 138.302c-1.803-18.208-8.678-33.492-20.18-44.637-12.212-11.833-29.507-18.859-50.286-20.494.0.0-2.233-.191-6.652-.191-4.418.0-6.65.191-6.65.191-20.779 1.635-38.072 8.661-50.285 20.494-11.504 11.145-18.381 26.429-20.184 44.637-3.547.673-6.236 3.792-6.236 7.527v29.516c0 4.229 3.439 7.667 7.664 7.667h8.922c4.229.0 7.666-3.438 7.666-7.667v-29.516c0-3.377-2.197-6.243-5.236-7.264 3.648-32.712 26.4-51.825 63.799-52.962h1.133c37.371 1.152 60.103 20.264 63.746 52.962-3.039 1.021-5.232 3.887-5.232 7.264v29.516c0 4.229 3.436 7.667 7.664 7.667h8.922c4.225.0 7.666-3.438 7.666-7.667v-29.516C302.668 142.093 299.979 138.975 296.43 138.302z"/><path d="M219.31 93.965c-39.883.0-56.26 20.576-55.908 54.958.535 49.545 24.199 79.089 55.908 79.089 31.711.0 55.374-29.544 55.913-79.089C275.568 114.542 259.193 93.965 219.31 93.965z"/></g></g><g/><g/><g/><g/><g/><g/><g/><g/><g/><g/><g/><g/><g/><g/><g/></svg>