<svg id="Capa_1" xmlns="http://www.w3.org/2000/svg" xmlns:xlink="http://www.w3.org/1999/xlink" viewBox="0 0 480.377 480.377" style="enable-background:new 0 0 480.377 480.377"><g><path d="M325.735.864c-72.189.0-132.638 41.657-149.681 97.898 14.302.194 27.579 2.958 39.468 8.035h190.546c4.395.0 7.951 3.557 7.951 7.951.0 4.395-3.556 7.951-7.951 7.951H240.727c9.673 8.527 17.632 19.126 23.619 31.37h141.722c4.395.0 7.951 3.556 7.951 7.951.0 4.394-3.556 7.951-7.951 7.951H270.62c3.953 12.517 6.165 26.259 6.165 41.075.0 13.798-1.802 27.899-5.039 41.641 5.521 1.732 11.174 3.199 16.974 4.403l-3.284 38.226c-.948 10.971 12.439 17.02 20.056 9.061l42.985-44.941c74.595-9.273 131.9-63.19 131.9-128.507C480.377 59.1 411.146.864 325.735.864z"/><path d="M339.058 421.782c-12.617-37.146-41.851-64.983-77.669-76.971-4.225-1.414-8.845.552-10.755 4.573l-50.408 106.245 9.923-54.959c1.056-5.863-.42-11.903-4.061-16.616l-26.321-34.034c-1.251-1.622-3.184-2.57-5.227-2.57-2.042.0-3.976.948-5.225 2.57l-26.321 34.034c-3.642 4.713-5.117 10.753-4.062 16.616l9.915 54.912-50.4-106.206c-1.91-4.03-6.523-5.986-10.755-4.565-35.81 11.989-65.052 39.825-77.671 76.971l-8.735 25.717c-2.508 7.393-1.304 15.546 3.246 21.897 4.551 6.351 11.888 10.117 19.7 10.117h300.619c7.811.0 15.148-3.766 19.7-10.117 4.55-6.351 5.753-14.504 3.246-21.897L339.058 421.782z"/><path d="M174.539 331.354c43.297.0 78.393-62.645 78.393-120.306s-35.096-88.502-78.393-88.502c-43.279.0-78.377 30.841-78.377 88.502S131.26 331.354 174.539 331.354z"/></g><g/><g/><g/><g/><g/><g/><g/><g/><g/><g/><g/><g/><g/><g/><g/></svg>