<svg id="Capa_1" xmlns="http://www.w3.org/2000/svg" xmlns:xlink="http://www.w3.org/1999/xlink" width="31.932" height="31.932" viewBox="0 0 31.932 31.932" style="enable-background:new 0 0 31.932 31.932"><g><path d="M15.965.0c-8.504.0-15.4 6.178-15.4 13.793.0 3.835 1.747 7.303 4.564 9.803l1.794-3.349v7.735c0 .939.535 1.805 1.379 2.223 1.5.74 4.185 1.727 7.869 1.727 3.307.0 5.736-.795 7.251-1.492 1.062-.487 1.738-1.551 1.738-2.719v-7.474l.088.171 1.648 3.098c2.766-2.494 4.469-5.93 4.469-9.723C31.366 6.178 24.472.0 15.965.0zM10.752 19.796c-1.992.0-3.61-1.944-3.61-4.327.0-.473.383-.854.855-.854h5.508c.474.0.857.384.857.858.0-.001.0.0.0.0C14.362 17.854 12.745 19.796 10.752 19.796zM17.778 23.137l-1.201-.611c-.374-.188-.814-.188-1.187.008l-1.142.599-1.061-.915 2.093-2.43c.173-.201.425-.317.69-.319.266-.002.519.11.695.312l2.161 2.434L17.778 23.137zM21.528 19.796c-1.992.0-3.605-1.944-3.605-4.327.0-.473.383-.854.854-.854h5.508c.473.0.854.383.854.854.0.0.0.001.0.002C25.14 17.854 23.523 19.796 21.528 19.796z"/></g><g/><g/><g/><g/><g/><g/><g/><g/><g/><g/><g/><g/><g/><g/><g/></svg>