<svg id="Capa_1" xmlns="http://www.w3.org/2000/svg" xmlns:xlink="http://www.w3.org/1999/xlink" width="31.344" height="31.344" viewBox="0 0 31.344 31.344" style="enable-background:new 0 0 31.344 31.344"><g><g><path d="M14.512 16.491c-1.044-1.062-3.715-3.402-6.129-2.517l-7.339 7.238c.038-.006.076-.013.114-.017 1.682-.221 4.117.041 6.459 2.414 1.89 1.918 2.702 3.679 2.285 4.955-.233.707-.825 1.188-1.628 1.319-.141.021-.296.034-.458.034-1.351.0-3.353-.84-5.176-3.298l1.128-.84c1.484 1.998 3.281 2.888 4.28 2.716.421-.07.492-.295.518-.37.175-.536-.23-1.785-1.952-3.526-2.78-2.82-5.592-2.089-6.569-1.701-.265 1.611.65 3.861 2.489 5.728 2.377 2.412 5.423 3.289 6.929 2.04.011-.002.015-.003.015-.003l8.174-8.06c.125-.328.252-1.062-.352-2.27C16.644 19.021 15.628 17.622 14.512 16.491z"/><path d="M28.811 2.715c-2.452-2.486-5.618-3.342-7.069-1.912C21.7.843 15.845 6.61 15.845 6.61c1.791.721 3.709 2.043 5.274 3.63 1.811 1.835 2.945 3.762 3.365 5.624.0.0 6.102-6.015 6.139-6.052C32.074 8.38 31.264 5.203 28.811 2.715z"/><path d="M24.449 19.137c-.752-.176-1.311-.238-1.395-.244.172-.59.229-1.193.186-1.8-.148-2.06-1.437-4.151-3.121-5.86-1.484-1.506-3.277-2.716-4.875-3.342-.183-.072-.36-.12-.536-.151l-4.719 4.653c1.953.186 3.908 1.473 5.526 3.112 1.283 1.304 2.356 2.831 3.043 4.201.277.551.44 1.048.524 1.486.328 1.67-.461 2.521-.461 2.521l2.617-2.58c.111-.021.229-.051.34-.094.121.562.146 1.104.1 1.633-.254 2.887-2.604 5.102-2.604 5.102l2.781 1.201c3.491-2.803 2.368-6.197 1.447-7.904-.215-.396-.418-.699-.55-.887-.006-.01-.014-.021-.02-.035.008.008.012.017.02.024.336.146.644.326.927.521 2.791 1.945 2.977 5.982 2.977 5.982l2.724-1.326C29.524 20.977 26.362 19.58 24.449 19.137z"/></g></g><g/><g/><g/><g/><g/><g/><g/><g/><g/><g/><g/><g/><g/><g/><g/></svg>