<svg id="Capa_1" xmlns="http://www.w3.org/2000/svg" xmlns:xlink="http://www.w3.org/1999/xlink" width="31.825" height="31.826" viewBox="0 0 31.825 31.826" style="enable-background:new 0 0 31.825 31.826"><g><g><path d="M2.635.466C1.18.466.0 1.646.0 3.101v25.623c0 1.456 1.18 2.635 2.635 2.635h26.554c1.455.0 2.636-1.18 2.636-2.635V3.101c0-1.456-1.181-2.635-2.636-2.635H2.635zM29.708 29.244H14.135v0V2.583 2.582h15.573V29.244z"/><path d="M27.803 15.913c0-6.292-5.097-11.391-11.388-11.391-.142.0-.334.003-.417.008v6.587c.083-.012.273-.02.416-.02 2.655.0 4.812 2.16 4.812 4.815.0 2.654-2.154 4.814-4.812 4.814-.143.0-.334-.007-.417-.02v6.588c.083.005.274.008.416.008C22.704 27.304 27.803 22.205 27.803 15.913z"/><path d="M20.155 15.913c0-2.068-1.675-3.749-3.741-3.749-.143.0-.333.009-.416.025v2.034c.083-.034.27-.054.416-.054.964.0 1.739.78 1.739 1.744.0.961-.774 1.743-1.738 1.743-.146.0-.334-.02-.417-.054v2.034c.083.016.273.025.416.025C18.48 19.662 20.155 17.979 20.155 15.913z"/></g></g><g/><g/><g/><g/><g/><g/><g/><g/><g/><g/><g/><g/><g/><g/><g/></svg>