<svg id="Capa_1" xmlns="http://www.w3.org/2000/svg" xmlns:xlink="http://www.w3.org/1999/xlink" width="31.895" height="31.894" viewBox="0 0 31.895 31.894" style="enable-background:new 0 0 31.895 31.894"><g><path d="M31.821 4.074C31.511 2.9 30.31 2.199 29.136 2.508c-1.176.309-1.877 1.511-1.568 2.686.146.551.488.996.933 1.284-.107 1.614-.588 3.58-2.009 5.299-4.005-4.569-5.696-6.434-6.479-7.189.418-.265.771-.43 1.004-.523.529.44 1.254.629 1.97.44 1.173-.309 1.875-1.512 1.565-2.685-.311-1.175-1.514-1.877-2.687-1.569-.881.232-1.495.966-1.618 1.813-1.656.703-7.309 3.832-6.466 13.582-6.191.18-9.447 1.819-10.928 2.889-.381-.12-.798-.139-1.213-.03-1.174.312-1.875 1.512-1.567 2.688.31 1.175 1.512 1.877 2.686 1.565.968-.254 1.614-1.117 1.637-2.069l6.472 6.794c-.152.094-.301.181-.446.257-.516-.376-1.19-.525-1.856-.353-1.174.31-1.876 1.513-1.567 2.688.31 1.175 1.512 1.877 2.687 1.566.916-.24 1.541-1.026 1.627-1.918 3.028-1.504 5.535-5.198 4.881-11.935 1.943-.009 3.734-.228 5.343-.651 2.406-.633 4.406-1.716 5.921-3.229 1.911-1.911 3.002-4.414 3.188-7.291C31.578 6.169 32.095 5.111 31.821 4.074zM11.73 26.823l-6.753-7.088c.433-.235.97-.487 1.632-.729l6.326 6.303C12.573 25.932 12.158 26.428 11.73 26.823zM13.431 24.284l-5.667-5.647c.871-.244 1.902-.461 3.11-.612l3.242 3.094C14.021 22.38 13.774 23.423 13.431 24.284zM12.283 17.878c.552-.043 1.135-.072 1.751-.086.073.666.111 1.289.121 1.872L12.283 17.878zM15.943 15.639c-.141-1.48-.119-2.781.019-3.92l3.165 3.712C18.131 15.575 17.067 15.645 15.943 15.639zM20.354 15.212l-4.154-4.87c.222-.963.531-1.787.892-2.491 1.349 1.457 3.855 4.284 5.838 6.54C22.142 14.735 21.281 15.009 20.354 15.212zM23.926 13.896c-3.516-4.011-5.31-6.012-6.267-7.007.479-.703.997-1.25 1.491-1.667.847.837 4.134 4.537 6.602 7.345C25.217 13.069 24.604 13.513 23.926 13.896z"/></g><g/><g/><g/><g/><g/><g/><g/><g/><g/><g/><g/><g/><g/><g/><g/></svg>