<svg id="Capa_1" xmlns="http://www.w3.org/2000/svg" xmlns:xlink="http://www.w3.org/1999/xlink" width="32" height="32" viewBox="0 0 32 32" style="enable-background:new 0 0 32 32"><g><g><path d="M3.145 2.765h11.058v4.962c0 .448.195.879.514 1.194.318.317.758.503 1.207.501L20.96 9.4h.017v9.538h2.626V9.29c0-1.117-.439-2.191-1.227-2.985L17.39 1.262C16.593.457 15.507.0 14.375.0H2.813C1.547.0.519 1.033.519 2.299v24.577c0 1.267 1.029 2.29 2.295 2.29h6.068V26.54H3.145V2.765zM16.829 4.55l2.315 2.224H19.14l-2.312.04L16.829 4.55v0z"/><path d="M6.296 8.362h3.63c.722.0 1.309-.59 1.309-1.313.0-.723-.586-1.312-1.309-1.312h-3.63c-.725.0-1.309.589-1.309 1.312C4.987 7.772 5.571 8.362 6.296 8.362z"/><path d="M17.862 10.782H6.296c-.725.0-1.309.555-1.309 1.277.0.725.584 1.28 1.309 1.28h11.566c.723.0 1.311-.556 1.311-1.28C19.173 11.337 18.587 10.782 17.862 10.782z"/><path d="M17.862 15.62H6.296c-.725.0-1.309.659-1.309 1.382s.584 1.383 1.309 1.383h11.566c.723.0 1.311-.66 1.311-1.383S18.587 15.62 17.862 15.62z"/><path d="M4.987 21.979c0 .723.584 1.313 1.309 1.313h2.585v-2.628H6.296C5.571 20.664 4.987 21.257 4.987 21.979z"/><path d="M21.733 24.469c-.826.0-1.307.786-1.307 1.838.0 1.059.496 1.805 1.314 1.805.826.0 1.301-.786 1.301-1.838C23.042 25.303 22.575 24.469 21.733 24.469z"/><path d="M12.626 20.596c-1.038.0-1.878.842-1.878 1.879v7.646c0 1.038.841 1.879 1.878 1.879h16.977c1.038.0 1.878-.841 1.878-1.879v-7.646c0-1.037-.842-1.879-1.878-1.879H12.626zM17.677 28.35c-.567.475-1.438.698-2.498.698-.634.0-1.046-.039-1.392-.079v-5.311c.484-.072 1.039-.112 1.657-.112 1.026.0 1.695.185 2.216.576.562.419.916 1.084.916 2.039C18.576 27.195 18.2 27.91 17.677 28.35zM21.677 29.08c-1.604.0-2.543-1.211-2.543-2.752.0-1.62 1.035-2.83 2.631-2.83 1.66.0 2.566 1.242 2.566 2.732C24.333 28.006 23.257 29.08 21.677 29.08zM27.904 28.062c.37.0.778-.08 1.021-.177l.185.954c-.226.112-.731.232-1.39.232-1.868.0-2.83-1.162-2.83-2.702.0-1.849 1.314-2.872 2.951-2.872.635.0 1.115.128 1.332.241l-.25.969c-.248-.103-.592-.2-1.026-.2-.97.0-1.726.586-1.726 1.789C26.173 27.38 26.815 28.062 27.904 28.062z"/><path d="M15.583 24.482c-.273.0-.481.024-.55.05v3.536c.069.025.269.025.42.025 1.107.008 1.828-.604 1.828-1.894C17.288 25.077 16.634 24.482 15.583 24.482z"/></g></g><g/><g/><g/><g/><g/><g/><g/><g/><g/><g/><g/><g/><g/><g/><g/></svg>