<svg id="Capa_1" xmlns="http://www.w3.org/2000/svg" xmlns:xlink="http://www.w3.org/1999/xlink" width="31.092" height="31.092" viewBox="0 0 31.092 31.092" style="enable-background:new 0 0 31.092 31.092"><g><g><path d="M19.382 17.764h-8.391c-.525.0-.949.413-.949.938.0.525.424.94.949.94h8.391c.524.0.95-.415.95-.94C20.333 18.177 19.907 17.764 19.382 17.764z"/><path d="M28.301 12.078 13.856.389c-.36-.291-.82-.428-1.281-.379-.46.048-.882.276-1.173.638L2.539 11.6C1.933 12.349 2.05 13.447 2.8 14.053l2.643 2.139v-2.55l-1.211-.979 1.247-1.543c.171-1.071.908-1.958 1.895-2.342l5.421-6.701 14.076 11.391-2.025 2.489c.037.234.047.474.047.715v2.364l3.657-4.505C29.154 13.782 29.05 12.685 28.301 12.078z"/><path d="M17.862 8.684c.094-.364-.022-.755-.336-1.006-.428-.349-1.051-.288-1.396.141l-.604.735h1.326C17.194 8.554 17.532 8.605 17.862 8.684z"/><path d="M14.547 5.267C14.12 4.92 13.498 4.98 13.151 5.408l-2.554 3.146h2.55l1.545-1.898C15.038 6.227 14.977 5.613 14.547 5.267z"/><path d="M10.992 16.006h2.632c.524.0.95-.444.95-.97.0-.524-.426-.97-.95-.97h-.015-2.55-.067c-.471.0-.886.364-.945.812v.317C10.107 15.644 10.522 16.006 10.992 16.006z"/><path d="M19.382 21.277h-8.391c-.471.0-.886.381-.945.84v.32c.06.457.475.839.945.839h8.391c.438.0.782-.326.902-.74v-.519C20.165 21.604 19.819 21.277 19.382 21.277z"/><path d="M19.382 24.912h-8.391c-.471.0-.886.349-.945.795v.316c.06.447.475.768.945.768h8.391c.438.0.782-.271.902-.672v-.508C20.165 25.211 19.819 24.912 19.382 24.912z"/><path d="M19.042 10.855c-.577-.583-1.367-.907-2.188-.907H8.465c-.918.0-1.69.735-1.69 1.652v17.827c0 .918.772 1.664 1.69 1.664h13.422c.918.0 1.67-.746 1.67-1.664V16.672c0-.812-.324-1.591-.896-2.166L19.042 10.855zM18.65 13.234l1.662 1.621h-.004l-1.658.02V13.234zm3.029 15.981H8.713V11.947h8.059v3.59c0 .326.119.639.35.868.231.229.539.354.864.354l3.644-.024h.051L21.679 29.215v0z"/></g></g><g/><g/><g/><g/><g/><g/><g/><g/><g/><g/><g/><g/><g/><g/><g/></svg>