<svg id="Capa_1" xmlns="http://www.w3.org/2000/svg" xmlns:xlink="http://www.w3.org/1999/xlink" width="31.974" height="31.975" viewBox="0 0 31.974 31.975" style="enable-background:new 0 0 31.974 31.975"><g><g><path d="M13.869.0c-1.009.0-1.827.818-1.827 1.827V7.06h2.076V2.077h14.259V21.04h-6.922v2.077h7.17c1.01.0 1.827-.818 1.827-1.827V1.827C30.452.818 29.634.0 28.625.0H13.869z"/><path d="M25.718 16.609h-4.264v2.076h4.264c.578.0 1.045-.461 1.045-1.039C26.763 17.07 26.296 16.609 25.718 16.609z"/><path d="M21.455 14.671h4.44c.577.0 1.044-.461 1.044-1.038.0-.577-.467-1.038-1.044-1.038h-5.509l1.067 1.081L21.455 14.671v0z"/><path d="M25.896 8.581h-9.224c-.103.0-.2.01-.292.037l2.073 2.04h7.442c.577.0 1.044-.462 1.044-1.038C26.94 9.043 26.472 8.581 25.896 8.581z"/><path d="M25.896 4.567h-9.224c-.579.0-1.045.462-1.045 1.038.0.577.466 1.039 1.045 1.039h9.224c.576.0 1.044-.462 1.044-1.039C26.94 5.029 26.472 4.567 25.896 4.567z"/><path d="M3.35 8.72c-1.009.0-1.827.818-1.827 1.827v19.6c0 1.01.818 1.828 1.827 1.828h14.756c1.009.0 1.827-.818 1.827-1.828V16.122c0-.892-.352-1.748-.979-2.381l-3.979-4.018c-.636-.642-1.501-1.003-2.406-1.003H3.35zM3.6 29.896V10.935h8.858v3.94c0 .358.143.701.396.954.254.252.598.394.956.392l4.01-.025h.036v13.703H3.6V29.896zM16.369 14.119l-1.834.028v-1.803l1.838 1.775H16.369z"/><path d="M6.127 15.364h2.895c.576.0 1.044-.461 1.044-1.038.0-.577-.468-1.038-1.044-1.038H6.127c-.577.0-1.043.461-1.043 1.038C5.084 14.902 5.55 15.364 6.127 15.364z"/><path d="M15.352 17.303H6.127c-.577.0-1.043.461-1.043 1.037.0.577.466 1.038 1.043 1.038h9.225c.577.0 1.044-.461 1.044-1.038C16.396 17.764 15.929 17.303 15.352 17.303z"/><path d="M15.352 21.178H6.127c-.577.0-1.043.53-1.043 1.106.0.575.466 1.108 1.043 1.108h9.225c.577.0 1.044-.533 1.044-1.108C16.396 21.708 15.929 21.178 15.352 21.178z"/><path d="M15.352 25.191H6.127c-.577.0-1.043.463-1.043 1.039s.466 1.037 1.043 1.037h9.225c.577.0 1.044-.461 1.044-1.037S15.929 25.191 15.352 25.191z"/><path d="M2.647 7.091C2.686 7.24 2.819 7.336 2.976 7.336h.001c0 0 .025-.087.088-.245.2-.511.753-1.637 2.045-2.056 1.688-.548 2.366-.174 2.366-.174v1.148c0 .122.095.232.207.28.112.049.255.026.344-.056l2.494-2.311c.152-.142.241-.342.237-.551-.007-.209-.099-.405-.256-.541L7.997.698C7.906.621 7.778.603 7.672.654 7.563.703 7.494.812 7.494.932L7.495 1.83c0 0-2.633.461-3.995 2.216-1.017 1.31-.956 2.511-.86 3.037C2.643 7.09 2.646 7.084 2.647 7.091z"/><path d="M29.419 24.775h-.002c0 0-.447 1.793-2.134 2.341-1.69.548-2.368.202-2.368.202V26.17c0-.122-.096-.232-.207-.279-.111-.05-.252-.027-.342.055l-2.492 2.311c-.152.143-.242.344-.236.553.004.207.097.404.256.539l2.501 2.133c.092.076.22.095.329.045.105-.051.178-.159.177-.278l-.002-.897c0 0 2.632-.461 3.994-2.215 1.017-1.311.954-2.533.858-3.058C29.722 24.915 29.582 24.775 29.419 24.775z"/></g></g><g/><g/><g/><g/><g/><g/><g/><g/><g/><g/><g/><g/><g/><g/><g/></svg>