<svg id="Capa_1" xmlns="http://www.w3.org/2000/svg" xmlns:xlink="http://www.w3.org/1999/xlink" width="31.273" height="31.273" viewBox="0 0 31.273 31.273" style="enable-background:new 0 0 31.273 31.273"><g><path d="M26.228 1.102H14.042l-.036-.094C13.772.401 13.188.0 12.537.0H5.324C3.957.0 2.808 1.085 2.808 2.452V28.82c0 1.365 1.148 2.453 2.516 2.453h18.761c.295.0.57-.146.736-.387.166-.242.203-.551.1-.824h1.308c1.265.0 2.236-1.021 2.236-2.285V3.395C28.464 2.131 27.492 1.102 26.228 1.102zM25.933 27.42h-1.99l-1.115-2.947c.609-.111 1.068-.629 1.068-1.27.0-.723-.584-1.289-1.309-1.289h-.729l-.912-2.422h1.863c.723.0 1.307-.6 1.307-1.322s-.584-1.32-1.307-1.32h-2.84l-.912-2.423h3.752c.723.0 1.307-.545 1.307-1.266.0-.723-.584-1.268-1.307-1.268h-4.729l-.912-2.421h5.641c.723.0 1.307-.6 1.307-1.322.0-.721-.584-1.32-1.307-1.32h-6.617l-1.174-3.084h10.914V27.42z"/></g><g/><g/><g/><g/><g/><g/><g/><g/><g/><g/><g/><g/><g/><g/><g/></svg>