<svg id="Capa_1" xmlns="http://www.w3.org/2000/svg" xmlns:xlink="http://www.w3.org/1999/xlink" width="31.706" height="31.706" viewBox="0 0 31.706 31.706" style="enable-background:new 0 0 31.706 31.706"><g><g><path d="M29.918 2.09H1.787C.792 2.09.0 2.888.0 3.882v23.929c0 .995.792 1.805 1.787 1.805h28.131c.995.0 1.788-.81 1.788-1.805V3.882C31.706 2.888 30.913 2.09 29.918 2.09zM29.654 27.565H2.051V4.22h27.603V27.565z"/><path d="M22.951 21.886H22.398V23.938H24.923V21.334H22.951z"/><path d="M16.643 21.886h2.918v2.052H16.643z"/><path d="M10.884 21.886h2.918v2.052H10.884z"/><path d="M5.521 14.235h1.972v3.55H5.521z"/><path d="M7.493 10.135H8.045V8.084H5.521V10.688H7.493z"/><path d="M16.643 8.084h2.918v2.051H16.643z"/><path d="M10.884 8.084h2.918v2.051H10.884z"/><path d="M22.951 14.235h1.972v3.55H22.951z"/><path d="M4.022 20.545h5.126v5.127H4.022z"/><circle cx="24.134" cy="9.604" r="3.548"/></g></g><g/><g/><g/><g/><g/><g/><g/><g/><g/><g/><g/><g/><g/><g/><g/></svg>