<svg id="Capa_1" xmlns="http://www.w3.org/2000/svg" xmlns:xlink="http://www.w3.org/1999/xlink" width="31.119" height="31.119" viewBox="0 0 31.119 31.119" style="enable-background:new 0 0 31.119 31.119"><g><g><path d="M26.065 14.984c-.1-.666-.671-1.146-1.343-1.146H13.836l-1.977-2.34c-.419-.492-1.034-.802-1.681-.802H3.105c-.504.0-.983.236-1.309.622-.325.387-.464.917-.379 1.414l.188 1.106H1.481c-.396.0-.771.161-1.027.461-.26.301-.373.693-.312 1.084l2.196 14.248c.133.857.871 1.488 1.738 1.488h22.797c.396.0.771-.174 1.027-.471.257-.3.373-.689.314-1.08L26.065 14.984z"/><path d="M20.645 4.351H12.13c-.587.0-1.063.53-1.063 1.118s.477 1.118 1.063 1.118h8.515c.589.0 1.064-.53 1.064-1.118S21.232 4.351 20.645 4.351z"/><path d="M30.677 12.186c-.245-.285-.604-.464-.981-.464h-2.416l.55 5.095 1.313 8.901 1.838-12.492C31.032 12.854 30.924 12.472 30.677 12.186z"/><path d="M9.024 2.055h14.864v10.091h2.056V1.307C25.943.591 25.345.0 24.629.0H8.191C7.405.0 6.789.647 6.789 1.433v7.812h2.235V2.055z"/><path d="M20.645 8.46H12.13c-.511.0-.937.404-1.04.899.729.186 1.392.583 1.891 1.168l.155.168h7.509c.589.0 1.064-.53 1.064-1.118C21.709 8.989 21.232 8.46 20.645 8.46z"/></g></g><g/><g/><g/><g/><g/><g/><g/><g/><g/><g/><g/><g/><g/><g/><g/></svg>