<svg id="Capa_1" xmlns="http://www.w3.org/2000/svg" xmlns:xlink="http://www.w3.org/1999/xlink" width="32.001" height="32.001" viewBox="0 0 32.001 32.001" style="enable-background:new 0 0 32.001 32.001"><g><g><path d="M9.26 6.904h14.687v1.753h1.973V6.346c0-.781-.633-1.415-1.415-1.415H8.702c-.781.0-1.415.633-1.415 1.415V27.15c0 .681.552 1.231 1.232 1.231h3.7V26.41H9.26V6.904z"/><path d="M10.938 10.412c0 .539.438.984.979.984h.303v-1.97h-.303C11.375 9.426 10.938 9.871 10.938 10.412z"/><path d="M10.938 14.521c0 .539.438.93.979.93h.303V13.59h-.303C11.375 13.59 10.938 13.98 10.938 14.521z"/><path d="M10.938 18.631c0 .539.438.986.979.986h.303v-1.973h-.303C11.375 17.645 10.938 18.09 10.938 18.631z"/><path d="M10.938 22.686c0 .539.438.986.979.986h.303v-1.973h-.303C11.375 21.699 10.938 22.145 10.938 22.686z"/><path d="M2.904 1.973h14.685v1.753h1.973V1.415C19.562.633 18.927.0 18.146.0H2.163c-.68.0-1.232.552-1.232 1.232v20.987c0 .682.552 1.232 1.232 1.232h3.701v-1.973h-2.96V1.973z"/><path d="M4.583 5.48c0 .539.438.986.978.986h.304V4.494H5.56C5.021 4.494 4.583 4.939 4.583 5.48z"/><path d="M4.583 9.59c0 .539.438.932.978.932h.304V8.658H5.56C5.021 8.658 4.583 9.049 4.583 9.59z"/><path d="M4.583 13.699c0 .539.438.986.978.986h.304v-1.973H5.56C5.021 12.713 4.583 13.158 4.583 13.699z"/><path d="M4.583 17.754c0 .539.438.986.978.986h.304v-1.973H5.56C5.021 16.768 4.583 17.213 4.583 17.754z"/><path d="M26.507 11.279c-.625-.626-1.473-.978-2.357-.978h-8.873c-.781.0-1.415.633-1.415 1.415v18.87c0 .781.633 1.415 1.415 1.415h14.376c.781.0 1.416-.634 1.416-1.415V17.229c0-.884-.351-1.73-.975-2.354L26.507 11.279zM26.246 13.773v.006l1.271 1.258-1.271-.002V13.773zM29.096 16.992v13.035h-13.26V12.273h8.478l-.012 3.333c-.001.366.145.717.4.976.259.259.609.405.976.406L29.096 16.992z"/><path d="M18.174 16.438h2.711c.54.0.978-.445.978-.986.0-.539-.438-.984-.978-.984h-2.711c-.54.0-.978.445-.978.984C17.197 15.992 17.634 16.438 18.174 16.438z"/><path d="M26.814 18.191h-8.64c-.54.0-.978.447-.978.985.0.541.438.986.978.986h8.64c.541.0.979-.445.979-.986C27.792 18.639 27.355 18.191 26.814 18.191z"/><path d="M26.814 21.918h-8.64c-.54.0-.978.447-.978.986s.438.986.978.986h8.64c.541.0.979-.447.979-.986S27.355 21.918 26.814 21.918z"/><path d="M26.814 25.645h-8.64c-.54.0-.978.445-.978.986.0.539.438.984.978.984h8.64c.541.0.979-.445.979-.984C27.792 26.09 27.355 25.645 26.814 25.645z"/></g></g><g/><g/><g/><g/><g/><g/><g/><g/><g/><g/><g/><g/><g/><g/><g/></svg>