<svg id="Capa_1" xmlns="http://www.w3.org/2000/svg" xmlns:xlink="http://www.w3.org/1999/xlink" width="408" height="408" viewBox="0 0 408 408" style="enable-background:new 0 0 408 408"><g><path d="M346.8.0H61.2C49.933.0 40.8 9.132 40.8 20.4v367.2c0 11.268 9.133 20.4 20.4 20.4h285.6c11.268.0 20.4-9.133 20.4-20.4V20.4C367.2 9.132 358.067.0 346.8.0zm-204 61.132c0-3.719 3.013-6.732 6.732-6.732h108.936c3.72.0 6.732 3.013 6.732 6.732v6.936c0 3.72-3.013 6.732-6.732 6.732H149.532c-3.72.0-6.732-3.012-6.732-6.732V61.132zM95.2 122.332c0-3.72 3.012-6.732 6.732-6.732h204.136c3.72.0 6.731 3.012 6.731 6.732v.136c0 3.72-3.012 6.732-6.731 6.732H101.932c-3.72.0-6.732-3.013-6.732-6.732V122.332zM95.2 169.932c0-3.72 3.012-6.732 6.732-6.732h204.136c3.72.0 6.731 3.012 6.731 6.732v.136c0 3.72-3.012 6.732-6.731 6.732H101.932c-3.72.0-6.732-3.012-6.732-6.732V169.932zM95.2 210.732c0-3.72 3.012-6.732 6.732-6.732h204.136c3.72.0 6.731 3.013 6.731 6.732v.136c0 3.72-3.012 6.731-6.731 6.731H101.932c-3.72.0-6.732-3.012-6.732-6.731V210.732zM95.2 251.532c0-3.72 3.012-6.732 6.732-6.732h204.136c3.72.0 6.731 3.013 6.731 6.732v.136c0 3.72-3.012 6.732-6.731 6.732H101.932c-3.72.0-6.732-3.013-6.732-6.732V251.532zM95.2 299.268v-.136c0-3.72 3.012-6.731 6.732-6.731h204.136c3.72.0 6.731 3.012 6.731 6.731v.136c0 3.72-3.012 6.732-6.731 6.732H101.932C98.212 306 95.2 302.987 95.2 299.268zM307.992 351.607c-4.808-4.808-4.808-4.808-15.592-4.808-5.699.0-9.942 1.415-14.852 3.047-5.27 1.761-11.247 3.753-19.148 3.753-11.003.0-14.437-6.867-16.286-10.56-1.489-2.979-1.517-3.04-4.114-3.04-6.419.0-6.8 13.484-6.8 13.62L217.6 353.6c0-9.411 4.264-27.199 20.4-27.199 11.002.0 14.437 6.867 16.286 10.56 1.489 2.979 1.517 3.04 4.114 3.04 5.698.0 9.941-1.414 14.851-3.047 5.271-1.761 11.247-3.753 19.149-3.753 14.797.0 16.7.285 25.207 8.792L307.992 351.607z"/></g><g/><g/><g/><g/><g/><g/><g/><g/><g/><g/><g/><g/><g/><g/><g/></svg>