<svg id="Capa_1" xmlns="http://www.w3.org/2000/svg" xmlns:xlink="http://www.w3.org/1999/xlink" width="31.867" height="31.867" viewBox="0 0 31.867 31.867" style="enable-background:new 0 0 31.867 31.867"><g><g><path d="M24.963 2.609C24.963 1.168 23.795.0 22.356.0H4.421C3.038.0 1.917 1.121 1.917 2.504v21.762c0 1.441 1.168 2.609 2.609 2.609h17.827c1.441.0 2.609-1.168 2.609-2.609L24.963 2.609v0zM22.364 22.294c0 1.095-.889 1.983-1.983 1.983H6.498c-1.095.0-1.983-.889-1.983-1.983V4.514c0-1.095.888-1.983 1.983-1.983h13.883c1.094.0 1.981.888 1.981 1.983L22.364 22.294v0z"/><path d="M25.989 4.993v2.599c.791.0 1.435.643 1.435 1.435v18.875c0 .792-.644 1.435-1.435 1.435H10.876c-.755.0-1.368-.612-1.368-1.368H6.977v1.289c0 1.441 1.168 2.609 2.609 2.609h17.757c1.439.0 2.607-1.169 2.607-2.609V7.602c0-1.441-1.168-2.609-2.607-2.609H25.989z"/><path d="M7.799 8.411H19.31c.707.0 1.279-.558 1.279-1.265S20.017 5.88 19.31 5.88H7.799c-.707.0-1.279.559-1.279 1.266C6.521 7.853 7.092 8.411 7.799 8.411z"/><path d="M7.799 12.651H19.31c.707.0 1.279-.561 1.279-1.265.0-.707-.572-1.265-1.279-1.265H7.799c-.707.0-1.279.558-1.279 1.265C6.521 12.09 7.092 12.651 7.799 12.651z"/><path d="M7.799 16.891H19.31c.707.0 1.279-.56 1.279-1.265.0-.706-.572-1.265-1.279-1.265H7.799c-.707.0-1.279.559-1.279 1.265C6.521 16.331 7.092 16.891 7.799 16.891z"/><path d="M7.799 20.994H19.31c.707.0 1.279-.559 1.279-1.266.0-.705-.572-1.267-1.279-1.267H7.799c-.707.0-1.279.562-1.279 1.267C6.521 20.436 7.092 20.994 7.799 20.994z"/></g></g><g/><g/><g/><g/><g/><g/><g/><g/><g/><g/><g/><g/><g/><g/><g/></svg>