<svg id="Capa_1" xmlns="http://www.w3.org/2000/svg" xmlns:xlink="http://www.w3.org/1999/xlink" width="122.807" height="122.807" viewBox="0 0 122.807 122.807" style="enable-background:new 0 0 122.807 122.807"><g><g><path d="M101.597 106.887c-.354-1.224-.752-2.621-1.11-4.217-.546-2.043-.937-4.427-1.458-6.994-.348-2.609-.893-5.409-1.12-8.434-.136-1.507-.325-3.05-.448-4.636-.021-.383-.041-.786-.061-1.174h2.191c1.11.0 2.013-.901 2.013-2.013V75.07c0-1.11-.901-2.013-2.013-2.013h-2.496c0-.123.0-.243.0-.365.002-1.707.004-3.436.006-5.177.047-1.743.181-3.499.266-5.263.121-1.763.139-3.538.344-5.302.194-1.767.391-3.532.584-5.291.209-1.757.334-3.52.67-5.241.608-3.448 1.078-6.868 1.764-10.138.736-3.263 1.449-6.414 2.123-9.404.766-2.969 1.623-5.744 2.343-8.326.369-1.288.722-2.523 1.058-3.697.329-1.179.764-2.257 1.106-3.29.718-2.061 1.344-3.854 1.858-5.333 1.463-4.585 1.072-4.896.76-5.063-.312-.168-4.021-2.188-5.069-.502-.124.159-.251.346-.378.548l-2.557-.783-5.576 18.215 1.601.49c-.597 1.899-1.225 3.889-1.815 5.981-.768 3.077-1.576 6.319-2.414 9.675-.784 3.369-1.356 6.908-2.065 10.476-.386 1.781-.562 3.611-.821 5.437-.242 1.828-.485 3.663-.729 5.498-.161 1.169-.246 2.349-.33 3.525-.081.006-.155.018-.235.022-.656.042-1.322.084-1.996.127-.678.011-1.365-.012-2.059-.014-.693-.012-1.393-.005-2.1-.031-.707-.048-1.422-.096-2.144-.146-1.438-.077-2.901-.275-4.376-.483-1.477-.166-2.965-.438-4.461-.73-.747-.138-1.497-.277-2.249-.418l-2.255-.51c-1.504-.346-3.018-.646-4.514-1.08-1.498-.417-3-.787-4.479-1.242-1.472-.487-2.938-.974-4.392-1.455-.749-.252-1.495-.501-2.237-.75-.736-.25-1.458-.499-2.203-.724-1.55-.461-3.105-.875-4.62-1.198-3.049-.63-6.077-1.013-9.008-1.044-2.927-.057-5.75.173-8.348.732-2.596.548-4.959 1.447-6.886 2.601-.952.613-1.81 1.225-2.527 1.903-.712.681-1.292 1.377-1.737 2.058-.903 1.354-1.258 2.59-1.387 3.416-.065.417-.083.739-.081.958.007.231.012.352.012.352l.82.116c-.012.08.699-1.47 2.789-2.764 1.031-.643 2.389-1.193 4.016-1.543.955-.19 2.009-.313 3.133-.38.532 5.559.757 10.753.758 15.557h-2.794c-1.111.0-2.013.901-2.013 2.013v4.349c0 1.11.901 2.013 2.013 2.013h2.566c-.699 12.586-2.844 21.688-4.316 26.655-2.915-.847-3.797-1.244-6.568-2.299l-3.405 8.958c15.045 5.72 30.298 8.059 47.542 8.059 17.24.0 34.487-2.859 49.529-8.577l-3.404-8.958C104.696 105.846 103.152 106.374 101.597 106.887zM89.66 88.045c0 .006.001.012.001.018-5.223-3.513-11.658-5.607-18.064-6.628h17.64c.017.559.033 1.137.048 1.688C89.38 84.802 89.533 86.445 89.66 88.045zM35.851 58.112c2.505.408 5.168.896 7.95 1.438 1.384.256 2.792.517 4.217.78.75.147 1.504.297 2.263.447.754.142 1.514.285 2.276.429 1.568.301 3.149.603 4.736.904 1.595.271 3.197.541 4.797.813 1.59.301 3.217.473 4.821.687.804.1 1.604.2 2.404.299.808.061 1.61.119 2.413.18 1.598.133 3.184.238 4.764.254 1.575.056 3.127.088 4.665.024.767-.013 1.524-.022 2.276-.033.753-.034 1.5-.102 2.236-.149 1.308-.07 2.582-.21 3.832-.365-.092 1.143-.181 2.281-.236 3.416-.043 1.829-.088 3.645-.131 5.437-.002.131-.006.258-.008.39H34.526c-.008-4.721-.226-9.805-.714-15.226C34.48 57.918 35.158 58.008 35.851 58.112zM34.32 81.434h17.937c-6.569 1.046-13.162 3.23-18.452 6.908C34.02 86.16 34.196 83.858 34.32 81.434zM29.758 109.965c.819-2.758 1.781-6.532 2.629-11.272 4.955-7.056 16.27-11.528 29.54-11.528 12.783.0 23.734 4.156 28.953 10.767.437 2.426.799 4.679 1.295 6.677.365 1.736.779 3.29 1.151 4.65C73.08 114.312 50.241 114.559 29.758 109.965z"/><path d="M62.091 47.388c11.494.0 20.812-9.317 20.812-20.813S73.585 5.762 62.091 5.762c-11.495.0-20.813 9.318-20.813 20.813S50.595 47.388 62.091 47.388zM60.712 29.036c-3.999-1.447-8.092-3.602-8.092-8.595.0-4.021 2.665-7.07 7.004-8.096V7.924h5.285v4.089c2.053.154 3.826.631 5.528 1.482l.643.322-1.657 5.644-1.147-.527c-1.03-.481-2.759-1.287-5.313-1.287-2.048.0-3.271.816-3.271 2.187.0 1.192 1.147 2.034 4.724 3.465 5.312 1.992 7.588 4.641 7.588 8.846.0 4.197-2.861 7.45-7.354 8.453v4.631h-5.285v-4.268c-2.547-.204-5.096-.964-6.665-2.011l-.523-.35 1.655-5.758.956.564c1.935 1.141 4.25 1.795 6.351 1.795 2.279.0 3.753-1.012 3.753-2.578C64.89 31.55 64.384 30.375 60.712 29.036z"/></g></g><g/><g/><g/><g/><g/><g/><g/><g/><g/><g/><g/><g/><g/><g/><g/></svg>