<svg id="Capa_1" xmlns="http://www.w3.org/2000/svg" xmlns:xlink="http://www.w3.org/1999/xlink" width="125.146" height="125.146" viewBox="0 0 125.146 125.146" style="enable-background:new 0 0 125.146 125.146"><g><g><path d="M109.37.001H92.753L59.142 54.102 59.087 125.146H72.49V92.995H102.72V81.251H72.49V68.16H102.72V56.417H73.212z"/><path d="M50.198 28.152c2.205.0 2.002.181 3.883.445L54.082.0H41.479v14.994C26.03 17.745 16.85 27.844 16.85 41c0 14.223 10.4 21.572 26.465 27.389 4.82 1.757 7.875 3.584 10.568 5.623V53.989c-.111-.047.096-.095-.023-.14-13.002-5.203-18.191-8.714-18.191-14.996C35.669 33.661 39.491 28.152 50.198 28.152z"/><path d="M43.776 95.917c-9.334.0-17.898-3.214-23.863-6.726l-4.137 14.383c5.51 3.669 15.15 6.418 24.785 6.727v14.846h12.547l-.014-31.174C50.544 95.215 47.397 95.917 43.776 95.917z"/></g></g><g/><g/><g/><g/><g/><g/><g/><g/><g/><g/><g/><g/><g/><g/><g/></svg>