<svg id="Capa_1" xmlns="http://www.w3.org/2000/svg" xmlns:xlink="http://www.w3.org/1999/xlink" width="462.399" height="462.399" viewBox="0 0 462.399 462.399" style="enable-background:new 0 0 462.399 462.399"><g><path d="M342.682 203.721c-13.484-23.46-34.374-50.014-64.518-64.314h4.48c5.631.0 10.2-4.57 10.2-10.2s-4.569-10.2-10.2-10.2h-15.089c22.794-13.525 44.411-32.368 44.411-51.129.0-15.79-11.234-29.383-26.534-32.626C282.128 14.987 264.795.0 244.103.0c-11.914.0-23.086 5.052-31.09 13.96-6.276-3.522-13.294-5.365-20.488-5.365-23.208.0-42.085 18.876-42.085 42.085.0 21.413 26.275 50.035 50.857 68.32h-21.536c-5.637.0-10.2 4.569-10.2 10.2s4.563 10.2 10.2 10.2h4.481c-30.145 14.3-51.034 40.854-64.519 64.314-24.188 42.072-38.06 97.519-38.06 152.129.0 62.744 61.492 106.556 149.539 106.556 88.039.0 149.531-43.812 149.531-106.556C380.742 301.24 366.87 245.793 342.682 203.721zM269.807 271c-5.358 1.789-11.125-1.102-12.913-6.433-2.23-6.671-10.303-14.464-25.677-14.464-12.655.0-20.156 8.473-21.026 16.851-1.082 10.452 7.555 18.632 23.113 21.896 31.62 6.623 40.896 27.818 39.223 43.955-1.728 16.741-14.471 29.899-31.11 33.83v11.743c0 5.631-4.569 10.2-10.199 10.2-5.631.0-10.2-4.569-10.2-10.2v-11.322c-19.781-3.365-31.049-16.218-34.83-27.485-1.788-5.345 1.095-11.125 6.433-12.913 5.372-1.781 11.125 1.102 12.913 6.433 2.23 6.671 10.302 14.464 25.677 14.464 12.654.0 20.154-8.473 21.025-16.851 1.081-10.451-7.555-18.632-23.113-21.896-31.62-6.623-40.896-27.819-39.223-43.955 1.728-16.742 14.471-29.9 31.11-33.83v-11.744c0-5.63 4.569-10.2 10.2-10.2 5.63.0 10.199 4.569 10.199 10.2v11.322c19.781 3.366 31.049 16.218 34.83 27.485C278.028 263.425 275.145 269.205 269.807 271z"/></g><g/><g/><g/><g/><g/><g/><g/><g/><g/><g/><g/><g/><g/><g/><g/></svg>