<svg id="Capa_1" xmlns="http://www.w3.org/2000/svg" xmlns:xlink="http://www.w3.org/1999/xlink" width="124.538" height="124.538" viewBox="0 0 124.538 124.538" style="enable-background:new 0 0 124.538 124.538"><g><g><path d="M49.801 37.654c0 0-52.831 69.334 15.949 70.773.0.0 67.483.0 1.677-74.055C55.183 33.267 49.801 37.654 49.801 37.654zM66.808 71.308c7.379 2.607 10.357 6.017 10.357 11.603.0 5.52-3.909 10.229-11.041 11.473v6.322h-6.08v-5.888c-4.155-.188-8.184-1.305-10.543-2.666l1.862-7.258c2.605 1.426 6.264 2.728 10.299 2.728 3.533.0 5.952-1.363 5.952-3.845.0-2.356-1.983-3.848-6.574-5.397-6.636-2.23-11.165-5.33-11.165-11.349.0-5.457 3.849-9.734 10.483-11.037v-5.895h6.074v5.461c4.155.186 6.948 1.049 8.993 2.043l-1.797 7.01c-1.611-.682-4.464-2.108-8.933-2.108-4.031.0-5.334 1.736-5.334 3.473C59.364 68.023 61.537 69.327 66.808 71.308z"/><path d="M66.351 31.074c0 0 4.582-14.154-.799-14.752-4.532-.504-11.468-.4-18.544 4.471 2.209 2.826 4.688 5.598 4.688 5.598l-6.018-4.623c-.887.688-1.773 1.447-2.656 2.299L50 34.194C50.001 34.193 58.102 29.878 66.351 31.074z"/><path d="M13.009 78.228V73.98c2.779-1.151 5.876-4.143 5.876-7.707.0-.731-.052-1.36-.157-2.096h-5.141v-5.4h4.195c-.26-1.311-.419-2.834-.419-4.25.0-6.607 4.826-10.957 11.849-10.957 2.887.0 5.035.627 6.188 1.258l-1.311 6.027c-.997-.574-2.464-.941-4.401-.941-3.723.0-4.877 2.412-4.877 4.932.0 1.361.154 2.621.47 3.932h7.188v.168c2.389-5.504 5.182-10.564 7.668-14.656-3.011-4.221-6.716-8.846-11.223-13.918-9.567-.863-13.774 2.564-13.774 2.564s-40.785 53.535 11.53 55.269c-.458-3.222-.398-6.578.043-9.976L13.009 78.228v0z"/><path d="M25.49 67.9c-.469 1.313-1.312 2.623-2.565 3.726v.102h5.062c.646-2.514 1.453-5.014 2.364-7.457.01-.031.021-.061.029-.092h-4.414C26.014 65.488 25.914 66.693 25.49 67.9z"/><path d="M28.069 27.794c0 0 3.582-11.061-.623-11.527-3.541-.393-8.96-.311-14.49 3.494 1.727 2.207 3.663 4.373 3.663 4.373l-4.699-3.611c-.693.537-1.387 1.131-2.076 1.797l5.451 7.912C15.295 30.232 21.626 26.859 28.069 27.794z"/><path d="M102.04 30.371c-9.567-.863-13.774 2.564-13.774 2.564s-3.538 4.645-7.194 11.242c1.176 1.521 2.299 3.02 3.367 4.496h7.074l3.67 8.389c.944 2.096 1.521 3.881 2.204 5.717h.104c.684-1.729 1.365-3.723 2.258-5.768l3.723-8.338h8.392l-8.971 14.891h6.239v3.726h-8.229v3.354h8.229v3.724h-8.229v8.391h-.613l-.006 5.465c.125.004.249.01.378.012C100.659 88.232 153.454 88.232 102.04 30.371z"/><path d="M101.194 27.794c0 0 3.581-11.061-.624-11.527-3.541-.393-8.957-.311-14.488 3.494 1.726 2.207 3.664 4.373 3.664 4.373l-4.702-3.611c-.69.537-1.385 1.131-2.075 1.797l5.453 7.912C88.422 30.232 94.748 26.859 101.194 27.794z"/></g></g><g/><g/><g/><g/><g/><g/><g/><g/><g/><g/><g/><g/><g/><g/><g/></svg>