<svg id="Capa_1" xmlns="http://www.w3.org/2000/svg" xmlns:xlink="http://www.w3.org/1999/xlink" width="125.653" height="125.653" viewBox="0 0 125.653 125.653" style="enable-background:new 0 0 125.653 125.653"><g><g><path d="M57.625 67.201h44.277v11.385H57.625z"/><path d="M84.909 18.264c8.41.0 16.065 2.434 20.92 5.045l4.668-17.369c-6.164-2.992-15.5-5.795-26.711-5.795-9.799.0-18.555 2.225-26.162 6.336v26.881c1.06-1.809 2.242-3.443 3.564-4.828C67.348 21.627 75.573 18.264 84.909 18.264z"/><path d="M57.625 45.906h44.277v11.584H57.625z"/><path d="M107.505 101.381c-4.299 2.424-12.887 5.592-22.036 5.592-9.712.0-18.681-3.168-25.021-10.073-1.021-1.117-1.962-2.355-2.823-3.705v26.819c7.553 3.701 16.146 5.64 25.229 5.64 11.95.0 22.411-3.729 28.574-7.474L107.505 101.381z"/><path d="M48.648 28.15c2.204.0 2 .182 3.881.445L52.508.0H39.93v14.994C24.479 17.744 15.3 27.844 15.3 41c0 14.223 10.401 21.572 26.465 27.387 4.82 1.758 7.875 3.586 10.567 5.625V53.988c-.111-.047.096-.096-.023-.141-13.002-5.203-18.19-8.713-18.19-14.996C34.119 33.66 37.941 28.15 48.648 28.15z"/><path d="M42.225 95.916c-9.333.0-17.898-3.215-23.863-6.727l-4.136 14.383c5.51 3.67 15.149 6.418 24.784 6.727v14.846h12.547l-.013-31.174C48.994 95.213 45.848 95.916 42.225 95.916z"/></g></g><g/><g/><g/><g/><g/><g/><g/><g/><g/><g/><g/><g/><g/><g/><g/></svg>