<svg id="Capa_1" xmlns="http://www.w3.org/2000/svg" xmlns:xlink="http://www.w3.org/1999/xlink" width="125.146" height="125.146" viewBox="0 0 125.146 125.146" style="enable-background:new 0 0 125.146 125.146"><g><g><path d="M68.963 72.104h24.364V56.053H66.892c-1.137-5.468-2.082-10.569-2.082-16.988.0-10.957 5.102-20.396 19.072-20.396 7.363.0 12.838 1.703 16.422 3.778l4.158-17.556c-4.158-2.459-11.328-4.722-21.525-4.722-9.27.0-17.438 2.378-23.934 6.683v96.441c4.08-4.195 7.041-8.947 8.635-14.388C69.155 83.618 69.155 77.958 68.963 72.104z"/><path d="M59.004 105.896h50.748v19.077H59.004z"/><path d="M49.816 28.151c2.205.0 2.002.181 3.883.445L53.695.0H41.097v14.994C25.648 17.745 16.468 27.844 16.468 41c0 14.223 10.4 21.572 26.465 27.389 4.82 1.757 7.875 3.584 10.568 5.623V53.988c-.111-.047.096-.095-.023-.14-13.002-5.203-18.191-8.714-18.191-14.996C35.287 33.66 39.109 28.151 49.816 28.151z"/><path d="M43.394 95.916c-9.334.0-17.898-3.214-23.863-6.726l-4.137 14.383c5.51 3.669 15.15 6.418 24.785 6.726v14.847h12.547l-.014-31.173C50.162 95.213 47.015 95.916 43.394 95.916z"/></g></g><g/><g/><g/><g/><g/><g/><g/><g/><g/><g/><g/><g/><g/><g/><g/></svg>