<svg id="Capa_1" xmlns="http://www.w3.org/2000/svg" xmlns:xlink="http://www.w3.org/1999/xlink" width="462.4" height="462.4" viewBox="0 0 462.4 462.4" style="enable-background:new 0 0 462.4 462.4"
	><g><path d="M428.4 95.2H34c-18.775.0-34 15.225-34 34v204c0 18.774 15.225 34 34 34h394.4c18.773.0 34-15.226 34-34v-204C462.4 110.425 447.174 95.2 428.4 95.2zM448.801 333.2c0 11.247-9.154 20.4-20.4 20.4H34c-11.247.0-20.4-9.153-20.4-20.4v-204c0-11.247 9.153-20.4 20.4-20.4h394.4c11.246.0 20.4 9.153 20.4 20.4v204zM428.4 122.4H34c-3.747.0-6.8 3.046-6.8 6.8v204c0 3.754 3.053 6.8 6.8 6.8h394.4c3.746.0 6.799-3.046 6.799-6.8v-204C435.199 125.447 432.146 122.4 428.4 122.4zM269.885 199.655c-5.338 1.775-11.125-1.095-12.906-6.439-2.475-7.398-11.369-16.041-28.281-16.041-14.029.0-22.352 9.438-23.317 18.761-1.19 11.478 8.547 20.794 25.404 24.323 33.456 6.998 43.276 29.355 41.514 46.376-1.869 18.088-15.891 32.327-34.109 36.067V323c0 5.631-4.562 10.2-10.199 10.2-5.638.0-10.2-4.569-10.2-10.2v-20.277c-20.87-3.584-32.749-17.115-36.727-28.995-1.789-5.338 1.095-11.118 6.433-12.906 5.358-1.782 11.118 1.095 12.907 6.439 2.475 7.398 11.37 16.034 28.281 16.034 14.029.0 22.351-9.438 23.318-18.761 1.182-11.472-8.549-20.788-25.406-24.317-33.463-7.004-43.282-29.362-41.514-46.383 1.822-17.619 15.177-31.586 32.708-35.754V139.4c0-5.63 4.562-10.2 10.2-10.2 5.636.0 10.199 4.57 10.199 10.2v18.067c21.768 3.196 34.062 17.116 38.129 29.281C278.105 192.086 275.23 197.867 269.885 199.655z"/></g><g/><g/><g/><g/><g/><g/><g/><g/><g/><g/><g/><g/><g/><g/><g/></svg>