<svg id="Capa_1" xmlns="http://www.w3.org/2000/svg" xmlns:xlink="http://www.w3.org/1999/xlink" viewBox="0 0 459 459" style="enable-background:new 0 0 459 459"><g><path d="M396.5.0h-264c-2.52.0-4.936 1.001-6.717 2.782l-70 70C54.001 74.564 53 76.98 53 79.5v370c0 5.247 4.253 9.5 9.5 9.5h334c5.247.0 9.5-4.253 9.5-9.5V9.5C406 4.253 401.747.0 396.5.0zM123 32.435V70H85.435L123 32.435zM387 440H72V89h60.5c5.247.0 9.5-4.253 9.5-9.5V19h245V440z"/><path d="M131.425 214.353h45.377c5.247.0 9.5-4.253 9.5-9.5v-20.541c0-8.844-3.586-16.865-9.38-22.688 5.793-5.824 9.38-13.845 9.38-22.688.0-17.749-14.44-32.188-32.188-32.188-17.749.0-32.189 14.439-32.189 32.188.0 8.844 3.586 16.865 9.38 22.688-5.793 5.823-9.38 13.845-9.38 22.688v20.541C121.925 210.1 126.178 214.353 131.425 214.353zM167.302 195.353h-26.377v-11.041c0-7.272 5.917-13.188 13.189-13.188 7.272.0 13.188 5.917 13.188 13.188V195.353zM154.114 125.747c7.272.0 13.188 5.917 13.188 13.188s-5.917 13.188-13.188 13.188c-7.272.0-13.189-5.917-13.189-13.188S146.842 125.747 154.114 125.747z"/><path d="M164.5 69h130c5.247.0 9.5-4.253 9.5-9.5s-4.253-9.5-9.5-9.5h-130c-5.247.0-9.5 4.253-9.5 9.5S159.253 69 164.5 69z"/><path d="M227 109.5c0 5.247 4.253 9.5 9.5 9.5h104c5.247.0 9.5-4.253 9.5-9.5s-4.253-9.5-9.5-9.5h-104C231.253 1e2 227 104.253 227 109.5z"/><path d="M340.5 128.512h-104c-5.247.0-9.5 4.253-9.5 9.5s4.253 9.5 9.5 9.5h104c5.247.0 9.5-4.253 9.5-9.5S345.747 128.512 340.5 128.512z"/><path d="M340.5 157.023h-104c-5.247.0-9.5 4.253-9.5 9.5s4.253 9.5 9.5 9.5h104c5.247.0 9.5-4.253 9.5-9.5S345.747 157.023 340.5 157.023z"/><path d="M340.5 185.535h-104c-5.247.0-9.5 4.253-9.5 9.5s4.253 9.5 9.5 9.5h104c5.247.0 9.5-4.253 9.5-9.5S345.747 185.535 340.5 185.535z"/><path d="M340.5 214.046h-104c-5.247.0-9.5 4.253-9.5 9.5s4.253 9.5 9.5 9.5h104c5.247.0 9.5-4.253 9.5-9.5S345.747 214.046 340.5 214.046z"/><path d="M340.5 262h-222c-5.247.0-9.5 4.253-9.5 9.5s4.253 9.5 9.5 9.5h222c5.247.0 9.5-4.253 9.5-9.5S345.747 262 340.5 262z"/><path d="M340.5 290.512h-222c-5.247.0-9.5 4.253-9.5 9.5s4.253 9.5 9.5 9.5h222c5.247.0 9.5-4.253 9.5-9.5S345.747 290.512 340.5 290.512z"/><path d="M340.5 319.023h-222c-5.247.0-9.5 4.253-9.5 9.5s4.253 9.5 9.5 9.5h222c5.247.0 9.5-4.253 9.5-9.5S345.747 319.023 340.5 319.023z"/><path d="M340.5 347.535h-222c-5.247.0-9.5 4.253-9.5 9.5s4.253 9.5 9.5 9.5h222c5.247.0 9.5-4.253 9.5-9.5S345.747 347.535 340.5 347.535z"/><path d="M340.5 376.046h-222c-5.247.0-9.5 4.253-9.5 9.5s4.253 9.5 9.5 9.5h222c5.247.0 9.5-4.253 9.5-9.5S345.747 376.046 340.5 376.046z"/></g><g/><g/><g/><g/><g/><g/><g/><g/><g/><g/><g/><g/><g/><g/><g/></svg>