<svg id="Capa_1" xmlns="http://www.w3.org/2000/svg" xmlns:xlink="http://www.w3.org/1999/xlink" width="31.854" height="31.854" viewBox="0 0 31.854 31.854" style="enable-background:new 0 0 31.854 31.854"><g><path d="M15.94 11.735c0 .588-.476 1.064-1.065 1.064H5.298c-.588.0-1.065-.476-1.065-1.064.0-.587.477-1.063 1.065-1.063h9.577C15.465 10.672 15.94 11.148 15.94 11.735zM21.52 11.087l5.342 4.791L15.535 28.505l-5.34-4.791L21.52 11.087zM20.008 16.188l-.033-.029c-.127-.114-.293-.172-.461-.163-.168.009-.328.085-.439.211l-6.079 6.776c-.253.281-.229.713.052.965.126.115.291.174.461.164.168-.01.327-.086.44-.213l6.108-6.81C20.293 16.828 20.27 16.423 20.008 16.188zM21.27 13.751l-.301.336c-.111.126-.17.292-.162.461.01.169.086.328.211.441l.035.031c.127.113.293.171.461.162.17-.009.328-.085.44-.211l.728-.811-.51-.457C21.91 13.467 21.506 13.489 21.27 13.751zM22.035 10.51l5.341 4.791 1.312-1.462-5.34-4.791L22.035 10.51zM31.047 11.21l-1.877 2.093-5.341-4.79 1.88-2.093c.247-.28.6-.448.975-.468.375-.021.742.109 1.021.359l3.234 2.903C31.52 9.735 31.569 10.629 31.047 11.21zM29.996 10.264l-3.233-2.902-.937 1.042 3.233 2.903L29.996 10.264zM9.557 24.428l5.339 4.791-6.31 2.586c-.243.098-.521.051-.716-.125-.196-.177-.273-.447-.201-.699L9.557 24.428zM10.045 26.13l-.722 2.507 1.411 1.268 2.412-.986L10.045 26.13zM8.215 24.285l-.623 2.162H2.859c-1.332.0-2.413-1.08-2.413-2.412V6.493c0-1.332 1.08-2.413 2.413-2.413h2.94V3.906c0-.492.399-.89.89-.89h.74C7.414 2.909 7.406 2.781 7.406 2.661 7.406 1.194 8.599.0 10.067.0c1.469.0 2.661 1.194 2.661 2.661.0.12-.01.248-.023.354h.749c.492.0.89.399.89.89v.174h2.87c1.332.0 2.412 1.081 2.412 2.413v4.63l-2.128 2.372V7.506c0-.699-.565-1.265-1.264-1.265h-1.891v1.201c0 .491-.399.89-.89.89H6.69c-.492.0-.89-.399-.89-.89V6.241H3.874c-.699.0-1.265.567-1.265 1.265V23.02c0 .701.567 1.266 1.265 1.266H8.215zM9.003 2.661c0 .124.023.248.061.355h2.005c.04-.107.062-.23.062-.355.0-.587-.477-1.065-1.064-1.065C9.479 1.596 9.003 2.074 9.003 2.661zM14.949 16.341l.991-1.105c-.014-.576-.484-1.054-1.064-1.054H5.298c-.588.0-1.065.493-1.065 1.082.0.587.477 1.082 1.065 1.082h9.577C14.9 16.344 14.925 16.342 14.949 16.341zM4.233 18.791c0 .588.477 1.062 1.065 1.062H11.8l1.907-2.127H5.298C4.71 17.727 4.233 18.203 4.233 18.791z"/></g><g/><g/><g/><g/><g/><g/><g/><g/><g/><g/><g/><g/><g/><g/><g/></svg>