<svg id="Capa_1" xmlns="http://www.w3.org/2000/svg" xmlns:xlink="http://www.w3.org/1999/xlink" width="31.668" height="31.668" viewBox="0 0 31.668 31.668" style="enable-background:new 0 0 31.668 31.668"><g><g><path d="M5.788 26.889H5.327c-.598.0-1.087-.461-1.087-1.06v-1.151c0-.599.489-1.074 1.087-1.074h12.877l-.604-2.81c-.125-.577.062-1.181.496-1.583s1.062-.549 1.629-.384L23.765 20V3.153C23.765 1.398 22.31.0 20.554.0H5.185c-1.756.0-3.18 1.397-3.18 3.153V25.97c0 1.756 1.424 3.153 3.18 3.153H19.4l-.482-2.235H5.788V26.889zM7.593 6.457c0-.516.417-.934.933-.934h8.651c.516.0.934.418.934.934v2.077c0 .515-.418.934-.934.934H8.526c-.516.0-.933-.418-.933-.934V6.457z"/><path d="M26.019 24.582l.877-.814c.184-.172.262-.428.203-.67-.061-.244-.242-.438-.482-.509l-6.289-1.834c-.229-.065-.477-.008-.649.154-.172.162-.25.403-.199.637l1.379 6.402c.054.245.234.442.474.519.24.074.5.016.686-.156l.643-.597 3.267 3.509c.252.271.601.434.971.444.369.013.729-.121 1-.373l1.322-1.231c.563-.523.596-1.404.071-1.971L26.019 24.582z"/></g></g><g/><g/><g/><g/><g/><g/><g/><g/><g/><g/><g/><g/><g/><g/><g/></svg>