<svg id="Capa_1" xmlns="http://www.w3.org/2000/svg" xmlns:xlink="http://www.w3.org/1999/xlink" width="31.716" height="31.717" viewBox="0 0 31.716 31.717" style="enable-background:new 0 0 31.716 31.717"><g><g><path d="M27.437 14.717c0-6.784-5.037-12.413-11.574-13.339V1.171C15.863.525 15.306.0 14.606.0c-.701.0-1.259.525-1.259 1.171v1.488c0 .625.507 1.132 1.132 1.132h.118c5.74.325 10.312 5.104 10.312 10.923.0 6.032-4.908 10.94-10.941 10.94-2.935.0-5.601-1.167-7.566-3.059-.416-.399-1.067-.424-1.51-.054-.069.058-.138.113-.207.173-.246.207-.394.508-.405.827-.011.32.114.632.345.854 2.278 2.208 5.315 3.621 8.723 3.779v.985h-2.044c-.979.0-1.773.793-1.773 1.771v.785h10.15v-.779c0-.979-.793-1.772-1.771-1.772h-2.043v-1.106C22.401 27.131 27.437 21.502 27.437 14.717z"/><path d="M13.967 24.122c5.194.0 9.405-4.211 9.405-9.405.0-5.193-4.211-9.404-9.405-9.404-5.192.0-9.404 4.211-9.404 9.404C4.563 19.911 8.774 24.122 13.967 24.122zM21.708 14.717c0 .615-.071 1.212-.207 1.785-.07-.111-.562-.832-.652-1.068-.091-.236-1.25 1.369-1.358 1.461-.111.092-.09-1.99-.09-2.263s-.382-.639-.598-.821c-.22-.183-1.48-1.379-1.845-1.241-.404.153.795 1.058.706 1.15-.092.092-1.036.346-1.42.418-.387.074-.664-.456-.791-.693-.128-.236-.49-1.076-.561-1.295-.072-.22-.326.316-.29.552.036.238.382.926.544 1.182.164.255.236.564.236.803.0.237.343.401.703.51.366.11.0.347-.125.493-.128.146-.65.438-1.196.711-.543.273-1.122 1.205-1.319 1.588-.2.383-.653 1.076-1.033 1.386s-2.281.968-2.95.802c-.668-.162-.777-2.535-.723-2.988.055-.456.362-1.188.325-1.606-.034-.42.142-1.114.234-1.278.094-.165.526.017.726-.001.199-.019-.2-.514-.308-.496-.108.018-.361-.149-.511-.224-.142-.072-.303-.518-.864-.645-.563-.128-.635-.837-.708-1.184-.072-.348.381-1.254.473-1.436.091-.183 1.23-1.178 1.23-1.178s.607-.312.78-.302c.506.031.998.515.998.515s.724.445 1.189 1.188c.389.621 1.208.733 1.208.733.455-.039.75-.388.772-.515.082-.417-.236-.767-.677-.745-.092.005-.127.183-.271.183-.145.0-.11-.183-.164-.367-.054-.181-.068-.398-.155-.617-.09-.219-.162-.488-.342-.688-.182-.202-.434-.05-.669-.104-.235-.056-.589.134-.842.115-.255-.019-.381-.218-.363-.401.018-.183.639-.411.945-.448.309-.036.586-.07.675-.198.092-.128.528-.197.673-.179.145.019.377.117.517.298.189.25.199.643.639.585.17-.022.62-.277.278-.479-.192-.114-.452-.291-.269-.62.025-.046.078-.08.153-.106C18.475 7.223 21.708 10.599 21.708 14.717zM13.302 19.393c.144-.254.453-.312.795-.383.36-.078.0.785-.185.896-.179.108-.758.364-.92.299C12.828 20.139 13.154 19.648 13.302 19.393z"/></g></g><g/><g/><g/><g/><g/><g/><g/><g/><g/><g/><g/><g/><g/><g/><g/></svg>