<svg id="Capa_1" xmlns="http://www.w3.org/2000/svg" xmlns:xlink="http://www.w3.org/1999/xlink" width="31.914" height="31.914" viewBox="0 0 31.914 31.914" style="enable-background:new 0 0 31.914 31.914"><g><g><path d="M3.635 13.542H26.61v-3.088h-1.461c-.979-2.377-.572-4.831-.156-6.257h1.617V1.108H3.635C1.632 1.108.0 2.729.0 4.733v5.193C0 11.93 1.632 13.542 3.635 13.542zM3.087 4.733c0-.286.262-.537.548-.537h18.926c-.387 1.584-.625 3.88.104 6.257H3.635c-.286.0-.548-.241-.548-.527V4.733z"/><path d="M27.779 19.958H5.543v3.088H6.29c.684 2.217.146 3.881-.224 4.672H5.543v3.088h22.236c2.006.0 3.66-1.455 3.66-3.269V23.21C31.439 21.397 29.785 19.958 27.779 19.958zM27.779 27.718H8.57c.358-1.107.596-2.771.148-4.674H27.78c.324.0.5.149.521.17l.008 4.297C28.279 27.565 28.104 27.718 27.779 27.718z"/><path d="M27.919 14.414l-2.181 1.333v-1.333H.157v4.593h25.581v-1.308l2.181 1.308h2.508c.821.0 1.487-.666 1.487-1.488v-1.864c0-.685-.557-1.241-1.24-1.241H27.919z"/></g></g><g/><g/><g/><g/><g/><g/><g/><g/><g/><g/><g/><g/><g/><g/><g/></svg>