<svg id="Capa_1" xmlns="http://www.w3.org/2000/svg" xmlns:xlink="http://www.w3.org/1999/xlink" width="31.672" height="31.672" viewBox="0 0 31.672 31.672" style="enable-background:new 0 0 31.672 31.672"><g><g><path d="M5.606 11.308h20.518c.607.0 1.104-.498 1.104-1.107s-.494-1.107-1.104-1.107H5.606c-.609.0-1.104.498-1.104 1.107C4.502 10.809 4.998 11.308 5.606 11.308z"/><path d="M5.606 15.215h20.518c.607.0 1.104-.465 1.104-1.074s-.494-1.075-1.104-1.075H5.606c-.609.0-1.104.466-1.104 1.075S4.998 15.215 5.606 15.215z"/><path d="M15.398 17.234H6.328c-.609.0-1.103.498-1.103 1.108.0.609.494 1.107 1.103 1.107h9.071c.609.0 1.104-.498 1.104-1.107C16.502 17.732 16.008 17.234 15.398 17.234z"/><path d="M15.398 21.337H6.328c-.609.0-1.103.498-1.103 1.109.0.606.494 1.104 1.103 1.104h9.071c.609.0 1.104-.498 1.104-1.104C16.502 21.835 16.008 21.337 15.398 21.337z"/><circle cx="22.893" cy="19.976" r="3.232"/><path d="M31.643 12.039l-.541-1.622.541-1.622c.039-.113.039-.235.0-.348l-.551-1.654L31.531 4.9c.043-.183-.012-.375-.144-.51-.13-.135-.319-.19-.505-.156l-2.556.52-2.386-.57c-.084-.021-.172-.021-.256.0l-2.371.568-2.369-.568c-.086-.021-.172-.021-.258.0l-2.369.568-2.365-.568c-.084-.021-.174-.021-.258.0l-2.364.568-2.367-.568c-.085-.021-.174-.021-.257.0L8.337 4.753 5.971 4.185c-.084-.021-.173-.021-.258.0L3.336 4.754.786 4.236C.604 4.201.413 4.259.281 4.393.149 4.527.096 4.72.138 4.901l.44 1.9-.55 1.661c-.038.113-.038.234.0.348l.541 1.631-.541 1.627c-.038.113-.038.235.0.349l.541 1.63-.541 1.627c-.038.113-.038.235.0.349l.541 1.624-.541 1.628c-.038.113-.038.235.0.351l.541 1.621-.541 1.623c-.038.111-.038.233.0.349l.55 1.651L.14 26.763c-.043.184.011.375.142.51.131.137.322.197.505.162l2.46-.493h.182l2.301.546c.084.021.171.022.258.004l2.295-.551h.149l2.295.545c.043.012.086.016.129.016s.087-.002.13-.014l2.295-.547h.148l2.292.545c.084.021.174.023.259.004l2.289-.55h.148l2.292.545c.086.021.174.023.258.003l2.294-.549h.147l2.294.545c.083.021.173.023.257.002l2.294-.548h.182l2.45.492c.04.008.08.006.122.008.305-.01.562-.244.562-.553.0-.098-.024-.191-.068-.271l-.407-1.742.551-1.676c.037-.113.037-.234.0-.348l-.541-1.631.541-1.627c.039-.113.039-.235.0-.349l-.541-1.629.541-1.631c.039-.112.039-.234.0-.348l-.541-1.625.541-1.628C31.682 12.273 31.682 12.151 31.643 12.039zM28.54 7.399v17.326H3.202V7.399H28.54z"/></g></g><g/><g/><g/><g/><g/><g/><g/><g/><g/><g/><g/><g/><g/><g/><g/></svg>