<svg id="Capa_1" xmlns="http://www.w3.org/2000/svg" xmlns:xlink="http://www.w3.org/1999/xlink" width="31.66" height="31.66" viewBox="0 0 31.66 31.66" style="enable-background:new 0 0 31.66 31.66"
	><g><g><path d="M19.832 16.722v-2.09l-3.396 1.984c-.243.143-.542.149-.793.024l-3.681-1.848v1.928c0 0 1.638 1.808 3.936 1.808C18.788 18.529 19.832 16.722 19.832 16.722z"/><path d="M8.899 18.72l1.852-.516c-.023-.334-.096-.635-.156-.838.138-.136.22-.322.22-.531.0-.322-.206-.602-.494-.707l.012-2.851 4.431-1.535c.039-.188.228-.361.228-.361-.015.051.014.67.951.67.538.0.974-.172.974-.523.0-.064-.014-.134-.041-.206.151.187.243.398.243.57.0.408-.508.607-1.134.607-.424.0-.848-.088-1.075-.273l-4.081 1.414 4.842 2.425c.251.125.549.116.79-.025l5.645-3.29c.267-.153.425-.439.412-.743-.01-.305-.185-.58-.457-.716l-5.846-2.925c-.251-.126-.547-.116-.789.025l-5.646 3.29c-.263.153-.422.424-.411.73.01.305.185.629.458.702v0l-.012 3.001c-.292.104-.503.388-.503.714.0.244.115.461.293.6-.057.414-.249.711-.476.924C9.019 18.453 8.941 18.58 8.899 18.72z"/><path d="M31.66 17.615c-.059-4.934-2.848-8.27-6.957-8.358-.489-4.014-3.816-7.026-7.975-7.026-3.417.0-6.497 2.154-8.036 5.552C8.518 7.766 8.331 7.757 8.127 7.755 3.114 7.755.0 11.544.0 17.637c0 .573.047.896.122 1.422.056.375.129.894.221 1.742.056.51.485.909.999.909h1.277c-.01-.153.003-.312.041-.467.132-.524.536-.938 1.059-1.086l1.76-.488H2.236c-.048-.362-.091-.672-.125-.907C2.04 18.266 2.01 18.063 2.01 17.636c0-2.368.596-7.874 6.188-7.873C8.51 9.766 8.839 9.818 9.146 9.874 9.63 9.96 10.102 9.691 10.27 9.231c1.112-3.033 3.648-4.993 6.458-4.993 2.963.0 6.024 2.261 6.024 6.044.0.271.107.53.305.719.191.189.445.301.727.286l.749-.025c3.063.0 5.071 2.502 5.116 6.375.006.409-.029.604-.114 1.082-.045.246-.099.515-.161.95h-3.594c-.289.0-.565.128-.756.347-.19.218-.278.509-.239.795l.288 2.17-4.303-3.116c-.172-.125-.379-.193-.59-.193h-6.854c-.006.045-.013.09-.023.133l-.437 1.908h6.983l5.936 4.059c.501.309 1.668.684 1.613-.82-.004-.115-.477-3.233-.477-3.233h3.32c.505.0.934-.392.998-.894C31.354 19.972 31.666 18.214 31.66 17.615z"/><path d="M5.488 22.917l-3.233 3.389c-.334.352-.321.904.029 1.24l1.718 1.641c.351.334.906.322 1.241-.027l3.234-3.389.329.314c.255.244.619.332.956.229s.594-.375.672-.719l1.048-4.58c.074-.323-.027-.664-.269-.896-.241-.229-.586-.314-.907-.229l-4.527 1.261c-.339.094-.602.362-.687.702-.086.343.019.703.273.945L5.488 22.917z"/></g></g><g/><g/><g/><g/><g/><g/><g/><g/><g/><g/><g/><g/><g/><g/><g/></svg>