<svg id="Capa_1" xmlns="http://www.w3.org/2000/svg" xmlns:xlink="http://www.w3.org/1999/xlink" width="31.92" height="31.921" viewBox="0 0 31.92 31.921" style="enable-background:new 0 0 31.92 31.921"><g><g><path d="M6.856 4.67c0-1.127.878-2.048 2.005-2.048h14.287c1.127.0 2.068.919 2.068 2.048v9.9l2.619-1.899V2.71C27.836 1.229 26.66.0 25.18.0H6.724C5.301.0 4.159 1.18 4.159 2.602v10.17l2.699 1.951L6.856 4.67v0z"/><path d="M22.047 6.07H10.202c-.729.0-1.317.584-1.317 1.312.0.726.588 1.311 1.317 1.311h11.846c.729.0 1.315-.585 1.315-1.311C23.363 6.654 22.774 6.07 22.047 6.07z"/><path d="M22.047 10.416H10.202c-.729.0-1.317.584-1.317 1.312.0.725.588 1.312 1.317 1.312h11.846c.729.0 1.315-.588 1.315-1.312C23.363 11 22.774 10.416 22.047 10.416z"/><path d="M23.342 15.887c-.104-.617-.645-1.048-1.295-1.048H10.202c-.729.0-1.317.56-1.317 1.286.0.042.002.062.006.105l1.612 1.156h10.694L23.342 15.887z"/><path d="M15.277 20.771c.339.229.782.228 1.12-.004l2.52-1.733h-6.196L15.277 20.771z"/><path d="M2.633 13.112c-.21-.153-.489-.175-.72-.058-.231.118-.377.356-.377.616v15.831c0 .328.183.629.472.78.291.15.642.128.91-.062l11.006-7.738c.183-.129.292-.338.293-.561.002-.225-.104-.436-.283-.562L2.633 13.112z"/><path d="M3.884 31c-.182.125-.26.355-.193.566.066.211.262.354.484.354h22.966c.303.0.565-.194.66-.483.088-.289-.021-.603-.27-.771l-11.121-7.703c-.312-.215-.724-.215-1.034.002L3.884 31z"/><path d="M17.719 21.311c-.183.131-.291.34-.291.564.002.227.112.438.299.562l11.576 8.006c.211.146.486.164.713.043.229-.115.369-.354.369-.607V13.648c0-.258-.144-.495-.373-.614-.229-.119-.506-.099-.716.051L17.719 21.311z"/></g></g><g/><g/><g/><g/><g/><g/><g/><g/><g/><g/><g/><g/><g/><g/><g/></svg>