<svg id="Capa_1" xmlns="http://www.w3.org/2000/svg" xmlns:xlink="http://www.w3.org/1999/xlink" viewBox="0 0 5705.204 5705.204" style="enable-background:new 0 0 5705.204 5705.204"><path d="M4122.417 4033.001c0 108.59-88.156 196.732-196.746 196.732H1672.215c-108.59.0-196.746-88.135-196.746-196.732.0-108.604 88.156-196.747 196.746-196.747h304.051v-858.544h-178.82c-108.59.0-196.732-88.121-196.732-196.732.0-108.59 88.135-196.732 196.732-196.732h178.82v-366.617c0-626.198 509.549-1135.73 1135.748-1135.73 376.435.0 727.719 186.099 939.679 497.831 61.076 89.798 37.753 212.183-52.134 273.266-89.816 60.984-212.067 37.668-273.27-52.134-138.496-203.718-368.072-325.488-614.191-325.488-409.301.0-742.254 332.968-742.254 742.255v366.617h804.821c108.604.0 196.747 88.135 196.747 196.732.0 108.604-88.135 196.747-196.747 196.747h-804.821v858.53h1555.939C4034.359 3836.255 4122.417 3924.39 4122.417 4033.001zM5705.204 2852.6c0 1575.427-1277.175 2852.602-2852.588 2852.602C1277.189 5705.202.0 4428.027.0 2852.6.0 1277.191 1277.189.002 2852.616.002 4428.029.002 5705.204 1277.191 5705.204 2852.6zM5236.607 2852.6c0-1316.623-1067.369-2383.988-2383.991-2383.988-1316.637.0-2384.005 1067.368-2384.005 2383.988.0 1316.637 1067.368 2383.991 2384.005 2383.991C4169.239 5236.591 5236.607 4169.237 5236.607 2852.6z"/><g/><g/><g/><g/><g/><g/><g/><g/><g/><g/><g/><g/><g/><g/><g/></svg>