<svg id="Capa_1" xmlns="http://www.w3.org/2000/svg" xmlns:xlink="http://www.w3.org/1999/xlink" width="394.4" height="394.4" viewBox="0 0 394.4 394.4" style="enable-background:new 0 0 394.4 394.4"
	><g><path d="M271.32 266.961c4.365 6.113 2.944 14.606-3.176 18.966-17.789 12.688-38.692 19.4-60.459 19.4-46.695.0-86.353-31.124-100.333-74.12H88.4c-7.507.0-13.6-6.093-13.6-13.6.0-7.508 6.093-13.601 13.6-13.601h13.858c-.136-2.258-.34-4.501-.34-6.8.0-2.298.197-4.542.34-6.8H88.4c-7.507.0-13.6-6.093-13.6-13.6s6.093-13.6 13.6-13.6h18.958c13.981-42.997 53.639-74.12 100.334-74.12 21.76.0 42.663 6.705 60.459 19.4 6.113 4.359 7.534 12.852 3.176 18.965-4.359 6.1-12.859 7.548-18.966 3.175-13.157-9.377-28.601-14.334-44.662-14.334-31.524.0-58.697 19.264-71.203 46.92H197.2c7.507.0 13.6 6.093 13.6 13.6.0 7.507-6.093 13.6-13.6 13.6h-67.749c-.184 2.251-.333 4.502-.333 6.8.0 2.299.149 4.549.333 6.8H197.2c7.507.0 13.6 6.093 13.6 13.601.0 7.507-6.093 13.6-13.6 13.6h-60.71c12.505 27.655 39.678 46.92 71.203 46.92 16.062.0 31.512-4.957 44.663-14.334C258.475 259.399 266.968 260.849 271.32 266.961zM394.4 197.2c0 108.909-88.291 197.2-197.2 197.2C88.292 394.4.0 306.109.0 197.2.0 88.292 88.292.0 197.2.0 306.109.0 394.4 88.292 394.4 197.2zM362.005 197.2c0-91.018-73.787-164.805-164.805-164.805-91.018.0-164.805 73.787-164.805 164.805.0 91.018 73.787 164.805 164.805 164.805C288.218 362.005 362.005 288.218 362.005 197.2z"/></g><g/><g/><g/><g/><g/><g/><g/><g/><g/><g/><g/><g/><g/><g/><g/></svg>