<svg id="Capa_1" xmlns="http://www.w3.org/2000/svg" xmlns:xlink="http://www.w3.org/1999/xlink" viewBox="0 0 450.968 450.968" style="enable-background:new 0 0 450.968 450.968"><g><path d="M307.049 147.619c0-31.296-12.188-60.719-34.317-82.849s-51.553-34.317-82.85-34.317c-31.296.0-60.72 12.188-82.85 34.317-45.683 45.683-45.683 120.015.0 165.699 22.13 22.13 51.554 34.317 82.85 34.317 31.297.0 60.72-12.188 82.85-34.317S307.049 178.916 307.049 147.619zM120.468 78.205c18.541-18.541 43.193-28.752 69.414-28.752 26.222.0 50.873 10.211 69.414 28.752 18.542 18.541 28.753 43.193 28.753 69.414s-10.211 50.873-28.753 69.414c-1.024 1.024-2.07 2.019-3.131 2.992-8.346-8.351-18.084-14.971-28.71-19.611 18.861-12.313 31.362-33.592 31.362-57.748.0-38.008-30.922-68.93-68.931-68.93s-68.931 30.922-68.931 68.93c0 24.156 12.5 45.435 31.361 57.748-10.627 4.641-20.366 11.261-28.714 19.614-1.062-.974-2.109-1.97-3.135-2.995C82.193 178.758 82.193 116.48 120.468 78.205zM189.886 192.597c-27.532.0-49.931-22.399-49.931-49.93s22.398-49.93 49.931-49.93 49.931 22.399 49.931 49.93S217.418 192.597 189.886 192.597zM138.971 231.591c13.757-12.809 31.82-19.993 50.921-19.993 19.09.0 37.15 7.183 50.906 19.99-15.194 9.251-32.673 14.198-50.916 14.198C171.642 245.786 154.164 240.84 138.971 231.591z"/><path d="M398.632 307.737l-82.867-82.867c34.907-56.882 27.762-132.469-21.451-181.682-57.586-57.583-151.28-57.583-208.864.0-57.583 57.584-57.583 151.28.0 208.863 11.515 11.515 24.477 20.721 38.302 27.63-.021.692-.036 1.386-.036 2.08v51.977c0 11.108 6.943 20.625 16.718 24.438v69.731c0 12.713 10.343 23.055 23.056 23.055h26.285c.036.0.071.005.106.005s.071-.005.106-.005h26.293c12.712.0 23.055-10.343 23.055-23.055v-69.715c3.354-1.302 6.426-3.3 9.034-5.918 4.956-4.955 7.685-11.537 7.685-18.535v-51.977c0-.696-.014-1.39-.036-2.084 3.772-1.885 7.479-3.945 11.11-6.173l82.867 82.867c6.496 6.496 15.132 10.073 24.318 10.073s17.822-3.577 24.317-10.073c6.495-6.496 10.072-15.132 10.072-24.318S405.127 314.232 398.632 307.737zM98.886 56.623c25.088-25.088 58.042-37.632 90.996-37.632 32.955.0 65.909 12.544 90.997 37.632 50.176 50.176 50.176 131.818.0 181.993-50.175 50.175-131.818 50.176-181.993.0C48.71 188.44 48.71 106.798 98.886 56.623zM237.055 333.739c0 1.922-.752 3.733-2.131 5.112-1.354 1.358-3.16 2.106-5.088 2.106-5.247.0-9.5 4.253-9.5 9.5v77.45c0 2.236-1.819 4.055-4.055 4.055h-16.899v-70.285c0-5.247-4.253-9.5-9.5-9.5s-9.5 4.253-9.5 9.5v70.285H163.49c-2.236.0-4.056-1.819-4.056-4.055v-77.45c0-5.247-4.253-9.5-9.5-9.5-3.979.0-7.218-3.238-7.218-7.218v-46.19c15.271 5.12 31.217 7.69 47.165 7.69 15.951.0 31.899-2.571 47.173-7.693V333.739zM385.197 342.937c-2.906 2.907-6.771 4.508-10.882 4.508-4.111.0-7.977-1.601-10.883-4.508l-80.567-80.567c3.951-3.206 7.775-6.643 11.45-10.319 3.674-3.674 7.11-7.497 10.315-11.446l80.567 80.567c2.907 2.907 4.508 6.771 4.508 10.882S388.104 340.03 385.197 342.937z"/></g><g/><g/><g/><g/><g/><g/><g/><g/><g/><g/><g/><g/><g/><g/><g/></svg>