<svg id="Capa_1" xmlns="http://www.w3.org/2000/svg" xmlns:xlink="http://www.w3.org/1999/xlink" viewBox="0 0 398.216 398.216" style="enable-background:new 0 0 398.216 398.216"><g><path d="M83.623 142.362c8.234-7.633 13.4-18.531 13.4-30.617.0-23.028-18.734-41.762-41.762-41.762-23.028.0-41.762 18.734-41.762 41.762.0 12.086 5.166 22.984 13.4 30.617C10.799 152.03.0 169.659.0 189.767v41.971c0 9.296 5.544 17.322 13.499 20.944v56.76c0 10.361 8.43 18.791 18.791 18.791h45.942c10.361.0 18.791-8.43 18.791-18.791v-56.76c7.956-3.623 13.5-11.648 13.5-20.944v-41.971C110.522 169.659 99.723 152.03 83.623 142.362zM32.499 111.744c0-12.551 10.211-22.762 22.762-22.762 12.551.0 22.762 10.211 22.762 22.762s-10.211 22.762-22.762 22.762C42.71 134.506 32.499 124.295 32.499 111.744zM91.522 231.738c0 2.205-1.794 3.999-4 3.999-5.247.0-9.5 4.253-9.5 9.5v63.997H64.761v-54.932c0-5.247-4.253-9.5-9.5-9.5s-9.5 4.253-9.5 9.5v54.932H32.499v-63.997c0-5.247-4.253-9.5-9.5-9.5-2.205.0-3.999-1.794-3.999-3.999v-41.971c0-19.994 16.267-36.261 36.261-36.261s36.261 16.267 36.261 36.261V231.738z"/><path d="M371.317 142.362c8.234-7.633 13.4-18.531 13.4-30.617.0-23.028-18.734-41.762-41.762-41.762-23.027.0-41.762 18.734-41.762 41.762.0 12.086 5.166 22.984 13.4 30.617-16.1 9.669-26.9 27.297-26.9 47.406v41.971c0 9.296 5.544 17.322 13.5 20.944v56.76c0 10.361 8.43 18.791 18.791 18.791h45.942c10.361.0 18.791-8.43 18.791-18.791v-56.76c7.955-3.623 13.499-11.648 13.499-20.944v-41.971C398.216 169.659 387.417 152.03 371.317 142.362zM320.193 111.744c0-12.551 10.211-22.762 22.762-22.762 12.551.0 22.762 10.211 22.762 22.762s-10.211 22.762-22.762 22.762C330.404 134.506 320.193 124.295 320.193 111.744zM379.216 231.738c0 2.205-1.794 3.999-3.999 3.999-5.247.0-9.5 4.253-9.5 9.5v63.997h-13.262v-54.932c0-5.247-4.253-9.5-9.5-9.5s-9.5 4.253-9.5 9.5v54.932h-13.262v-63.997c0-5.247-4.253-9.5-9.5-9.5-2.206.0-4-1.794-4-3.999v-41.971c0-19.994 16.267-36.261 36.261-36.261s36.261 16.267 36.261 36.261V231.738z"/><path d="M266.132 142.737l-66.818-38.578c-2.939-1.697-6.561-1.697-9.5.0-2.939 1.697-4.75 4.833-4.75 8.227v14.67h-48.23c-5.247.0-9.5 4.253-9.5 9.5v28.815c0 5.247 4.253 9.5 9.5 9.5h48.23v14.67c0 3.394 1.811 6.53 4.75 8.227 1.47.849 3.11 1.273 4.75 1.273s3.28-.424 4.75-1.273l66.818-38.577c2.939-1.697 4.75-4.833 4.75-8.227S269.072 144.434 266.132 142.737zM204.064 173.088v-7.716c0-5.247-4.253-9.5-9.5-9.5h-48.23v-9.815h48.23c5.247.0 9.5-4.253 9.5-9.5v-7.716l38.318 22.123L204.064 173.088z"/><path d="M261.382 223.344h-48.23v-14.67c0-3.394-1.811-6.53-4.75-8.227-2.939-1.697-6.561-1.697-9.5.0l-66.818 38.577c-2.939 1.697-4.75 4.833-4.75 8.227s1.811 6.53 4.75 8.227l66.818 38.578c1.47.849 3.11 1.273 4.75 1.273s3.28-.424 4.75-1.273c2.939-1.697 4.75-4.833 4.75-8.227v-14.67h48.23c5.247.0 9.5-4.253 9.5-9.5v-28.815C270.882 227.598 266.629 223.344 261.382 223.344zM251.882 252.159h-48.23c-5.247.0-9.5 4.253-9.5 9.5v7.716l-38.318-22.123 38.318-22.123v7.716c0 5.247 4.253 9.5 9.5 9.5h48.23V252.159z"/></g><g/><g/><g/><g/><g/><g/><g/><g/><g/><g/><g/><g/><g/><g/><g/></svg>