<svg id="Capa_1" xmlns="http://www.w3.org/2000/svg" xmlns:xlink="http://www.w3.org/1999/xlink" width="31.826" height="31.826" viewBox="0 0 31.826 31.826" style="enable-background:new 0 0 31.826 31.826"><g><g><path d="M30.664 16.534h-1.008c-.186-.084-.395-.169-.614-.169h-9.731c-.363.0-.711.15-.96.416-1.771-.733-3.503-.493-4.839.039-.01-.011-.017-.021-.026-.031-.249-.271-.601-.424-.968-.424H2.786c-.223.0-.432.085-.615.169H1.163C.52 16.534.0 17.032.0 17.676c0 .644.521 1.142 1.163 1.142h.278v6.438c0 .727.617 1.34 1.345 1.34h9.124c.686.0 1.256-.539 1.311-1.223l.455-5.68c.717-.468 2.553-1.382 4.475-.021l.457 5.699c.055.685.625 1.221 1.312 1.221h9.124c.729.0 1.303-.612 1.303-1.34v-6.437h.318c.644.0 1.162-.498 1.162-1.141C31.826 17.032 31.308 16.534 30.664 16.534zM10.797 22.686c-.058.727-.664 1.285-1.392 1.285H5.457c-.771.0-1.396-.625-1.396-1.396v-2.193c0-.771.625-1.396 1.396-1.396H9.58c.39.0.762.163 1.025.449.265.287.398.67.366 1.058L10.797 22.686zM27.725 22.575c0 .771-.625 1.396-1.396 1.396h-3.905c-.729.0-1.334-.56-1.394-1.285l-.174-2.194c-.031-.389.103-.771.364-1.058.265-.287.638-.449 1.024-.449h4.08c.771.0 1.396.625 1.396 1.396L27.725 22.575v0z"/><path d="M8.782 9.3c.013-.023 1.284-2.297 2.773-1.59.695.329.705 1.204.484 2.701l-.058.4c-.081.636.369 1.22 1.007 1.302.639.083 1.22-.369 1.301-1.006l.051-.353c.193-1.303.595-4.014-1.788-5.144C9.787 4.301 7.544 6.717 6.794 8.095l-5.01 7.509h2.795L8.782 9.3z"/><path d="M17.205 11.107c.082.637.66 1.091 1.303 1.005.637-.082 1.088-.665 1.005-1.302l-.058-.398c-.223-1.497-.209-2.371.484-2.7 1.477-.703 2.725 1.498 2.824 1.672l4.148 6.219h2.797l-4.956-7.424c-.804-1.462-3.058-3.881-5.812-2.573-2.385 1.13-1.981 3.842-1.789 5.146L17.205 11.107z"/></g></g><g/><g/><g/><g/><g/><g/><g/><g/><g/><g/><g/><g/><g/><g/><g/></svg>