<svg id="Capa_1" xmlns="http://www.w3.org/2000/svg" xmlns:xlink="http://www.w3.org/1999/xlink" width="435.2" height="435.2" viewBox="0 0 435.2 435.2" style="enable-background:new 0 0 435.2 435.2"
	><g><path d="M414.8 408V170 20.4C414.8 9.133 405.668.0 394.4.0H319.6C308.332.0 299.2 9.133 299.2 20.4V170H88.4l-68 68v170H0V435.2h435.2V408H414.8zM142.8 380.801H81.6V319.6h61.2V380.801zM142.8 285.6H81.6v-61.199h61.2V285.6zM244.8 380.801h-61.2V319.6h61.2V380.801zM244.8 285.6h-61.2v-61.199h61.2V285.6zM353.6 380.801H292.4V319.6H353.6V380.801zM353.6 285.6H292.4v-61.199H353.6V285.6z"/></g><g/><g/><g/><g/><g/><g/><g/><g/><g/><g/><g/><g/><g/><g/><g/></svg>