<svg id="Capa_1" xmlns="http://www.w3.org/2000/svg" xmlns:xlink="http://www.w3.org/1999/xlink" width="123.167" height="123.168" viewBox="0 0 123.167 123.168" style="enable-background:new 0 0 123.167 123.168"><g><g><path d="M58.384 6.328C49.422 5.984 22 15.498 17.717 18.974c-1.39 1.128-.826 3.253-.196 3.967 2.564 3.268 21.2-2.714 22.596-3.078 4.378-1.089 17.617-3.965 18.122.706-9.781.486-14.084 3.228-14.153 4.741-.094 2.043 2.26 2.431 4.147 2.607 4.086.384 9.5-.46 14.289.217 10.77 1.524 14.72.753 22.419-3.997 1.521-.938 5.502-1.618 9.261-1.929V4.325c-8.047 1.35-17.456 2.076-21.4 2.058C67.994 6.357 63.182 6.512 58.384 6.328z"/><path d="M96.092.0v24.709h10.22V0H96.092zM101.468 6.353c-1.246.0-2.258-1.01-2.258-2.257.0-1.248 1.012-2.258 2.258-2.258 1.247.0 2.259 1.01 2.259 2.258C103.727 5.343 102.715 6.353 101.468 6.353z"/><g><circle cx="44.162" cy="41.578" r="9.413"/><circle cx="66.896" cy="43.834" r="9.152"/><path d="M86.295 80.755c-2.125-14.494-5.342-20.698-13.24-25.54-.154-.094-2.639-1.411-3.807-1.698l-2.281 2.295-2.21-2.321c-.008.001-.016.003-.022.004-1.691.405-5.777 3.044-7.917 5.086-1.711-2.048-3.781-3.743-6.321-5.301-.157-.097-2.715-1.45-3.915-1.746l-2.345 2.361-2.273-2.387c-.008.002-.015.003-.023.005-1.616.556-3.051 1.39-4.752 2.537-7.256 4.88-10.348 11.349-12.423 25.498-.292 1.996 1.089 3.853 3.086 4.146.18.025.358.039.535.039 1.783.0 3.345-1.308 3.611-3.125.747-5.088 1.61-8.809 2.606-11.619v11.508c0 .982.19 1.9.526 2.742-.026.19-.044.383-.044.578l3.352 34.994c0 2.385 1.933 4.317 4.319 4.317h5.828.811l.011-24.805-.411-1.739v-9.096c-.757 1.324-1.463 5.158-1.463 8.179.0 1.251-1.014 2.265-2.266 2.265-.362.0-.7-.092-1.003-.242l-.541-.439c-.4-.409-.647-.966-.647-1.583.0-2.286.239-4.271.646-5.993l.232-.883c2.443-8.574 9.198-10.113 10.082-10.324.005.0.011-.001.016-.004l1.478 1.553 1.477-1.553c.006.003.013.004.017.004 1.08.258 10.96 2.498 10.96 17.2.0 1.251-1.014 2.265-2.267 2.265-1.251.0-2.265-1.014-2.265-2.265.0-3.021-.706-6.854-1.465-8.179v9.179l-.406 1.657.002 24.805h.688 6.468.001c2.318.0 4.197-1.879 4.197-4.199l2.525-18.199 4.64.004-3.77-25.948v-5.349c1.138 2.836 2.105 6.737 2.93 12.347.26 1.767 1.776 3.04 3.511 3.04.172.0.345-.014.52-.04C85.238 84.5 86.58 82.695 86.295 80.755zM55.528 78.107c-3.491-.033-6.31-2.873-6.31-6.369.0-3.498 2.819-6.336 6.31-6.369 3.491.033 6.31 2.871 6.31 6.369S59.02 78.074 55.528 78.107z"/><path d="M55.396 99.691l-.124-.004c-.012-.002-.023-.002-.034-.002-.229.0-.447.088-.614.25-.173.166-.271.396-.271.635l.003 22.598h2.415l.001-22.598c0-.239-.097-.469-.27-.635-.166-.162-.386-.25-.615-.25-.011.0-.021.0-.034.002"/></g></g></g><g/><g/><g/><g/><g/><g/><g/><g/><g/><g/><g/><g/><g/><g/><g/></svg>