<svg id="Capa_1" xmlns="http://www.w3.org/2000/svg" xmlns:xlink="http://www.w3.org/1999/xlink" width="125.041" height="125.041" viewBox="0 0 125.041 125.041" style="enable-background:new 0 0 125.041 125.041"><g><g><path d="M46.864 72.252c-.546-.424-4.877-3.7-16.893-4.498-.661-.055-1.327-.523-1.914-.916-.747-.498-1.523-1.02-2.089-1.692-.92-1.099-1.959-2.022-2.832-3.241-5.842-8.144-11.567-9.779-12.423-10.102-1.14-.55-5.507.127-3.409 3.039.133.022 6.68 9.219 7.105 9.954.752 1.299 1.603 1.83 2.402 2.74.73.832 1.538 1.598 2.284 2.416.0.0-4.187-2.479-5.19-3.565-.447-.487-.662-1.185-1.018-1.763-.412-.666-.85-1.314-1.297-1.957-.56-.801-1.123-1.6-1.717-2.375-.758-.987-1.545-1.953-2.326-2.923-.486-.604-1.035-1.187-1.436-1.818-1.98-3.128.281-4.999 2.433-5.235-.104-.36-1.094-9.819-1.267-11.407-.494-4.56-.982-7.938-3.596-8.857-.674-.238-1.15-.158-1.652.372-.594.624-.948 3.936-1.119 6.03.0.0-1.143 11.236-.868 16.479.147 2.812 8.882 22.155 11.392 25.146 2.508 2.987 22.139 14.303 22.139 14.303.656.547 4.291 3.346 4.291 7.016v7.967l21.164.025.018-7.311c.049-1.352.279-2.695.441-4.041.461-1.537.092-4.442-.123-5.57C56.906 79.498 47.854 73.018 46.864 72.252z"/><path d="M124.132 36.454c-.172-2.095-.525-5.406-1.119-6.03-.502-.53-.979-.61-1.653-.372-2.611.92-3.102 4.298-3.595 8.857-.174 1.588-1.163 11.047-1.268 11.407 2.151.236 4.414 2.107 2.433 5.235-.4.632-.948 1.214-1.435 1.818-.781.97-1.569 1.936-2.327 2.923-.595.775-1.157 1.574-1.716 2.375-.447.643-.887 1.291-1.298 1.957-.354.578-.569 1.274-1.019 1.763-1.004 1.087-5.19 3.565-5.19 3.565.746-.818 1.556-1.584 2.285-2.416.799-.91 1.649-1.441 2.401-2.74.427-.734 6.974-9.932 7.105-9.954 2.099-2.912-2.27-3.589-3.409-3.039-.855.322-6.58 1.958-12.423 10.102-.872 1.219-1.912 2.145-2.832 3.241-.565.674-1.343 1.194-2.09 1.692-.587.393-1.253.861-1.914.916-12.016.798-16.346 4.074-16.893 4.498-.989.766-10.041 7.244-12.5 18.213-.216 1.129-.584 4.033-.123 5.57.162 1.346.393 2.69.441 4.041l.018 7.312 21.164-.025v-7.967c0-3.67 3.635-6.469 4.291-7.015.0.0 19.63-11.315 22.139-14.305 2.51-2.988 11.243-22.333 11.392-25.145C125.274 47.689 124.132 36.454 124.132 36.454z"/><circle cx="51.154" cy="27.065" r="9.413"/><circle cx="73.888" cy="29.322" r="9.152"/><path d="M73.229 71.881c1.083-.998 2.106-1.84 2.981-2.502l.133-.102c1.02-.79 3.366-2.262 7.791-3.455l-.806-5.549v-5.348c1.004 2.505 1.876 5.844 2.634 10.453 1.979-.439 4.306-.813 7.022-1.065C90.854 51.2 87.582 45.322 80.047 40.703c-.154-.095-2.639-1.411-3.806-1.698l-2.281 2.296-2.21-2.321c-.008.002-.017.004-.023.005-1.69.405-5.776 3.044-7.918 5.087-1.711-2.049-3.781-3.743-6.32-5.302-.158-.097-2.715-1.45-3.916-1.745l-2.344 2.36-2.273-2.387C48.947 37 48.939 37 48.933 37.002c-1.617.557-3.051 1.391-4.753 2.537-7.126 4.792-10.232 11.133-12.307 24.757 2.804.252 5.198.633 7.227 1.082.721-4.716 1.548-8.229 2.495-10.901v11.507c0 .012.002.021.002.033 3.976 1.154 6.143 2.514 7.108 3.263l.13.099c.878.666 1.904 1.511 2.99 2.511 2.889-6.468 8.41-7.744 9.203-7.935.006.0.012-.002.017-.004l1.477 1.551 1.478-1.553c.006.004.013.004.018.004C64.809 64.145 70.341 65.41 73.229 71.881zM62.521 63.597c-3.491-.034-6.311-2.873-6.311-6.369.0-3.498 2.819-6.336 6.311-6.369 3.49.033 6.312 2.871 6.312 6.369C68.833 60.724 66.012 63.562 62.521 63.597z"/></g></g><g/><g/><g/><g/><g/><g/><g/><g/><g/><g/><g/><g/><g/><g/><g/></svg>