<?xml version="1.0" encoding="UTF-8" standalone="no"?> <svg id="Layer_1" data-name="Layer 1" xmlns="http://www.w3.org/2000/svg" viewBox="0 0 24 24"><title>Artboard 22</title><path d="M21.81,5.28l.77-2.38a1.44,1.44,0,0,0-.48-1.59,1.42,1.42,0,0,0-1.63-.1l-6.6,4.07H1V23H23V5.28ZM21,21H3V7.28H14.44l5.77-3.56L19.06,7.28H21Z"/><path d="M6.4,13a1.4,1.4,0,1,0,1.4,1.4A1.4,1.4,0,0,0,6.4,13Z"/><path d="M12,13a1.4,1.4,0,1,0,1.4,1.4A1.4,1.4,0,0,0,12,13Z"/><path d="M17.6,13A1.4,1.4,0,1,0,19,14.4,1.4,1.4,0,0,0,17.6,13Z"/></svg>