<svg id="Capa_1" xmlns="http://www.w3.org/2000/svg" xmlns:xlink="http://www.w3.org/1999/xlink" width="31.868" height="31.868" viewBox="0 0 31.868 31.868" style="enable-background:new 0 0 31.868 31.868"><g><g><path d="M27.177.0H4.637c-1.292.0-2.31 1.059-2.31 2.352v27.166c0 1.293 1.018 2.351 2.31 2.351h22.54c1.295.0 2.364-1.058 2.364-2.351V2.352C29.541 1.059 28.472.0 27.177.0zM26.79 28.977H5.078V2.821H26.79V28.977z"/><path d="M15.44 8.458c0-.583-.472-1.055-1.055-1.055H9.586c-.583.0-1.055.472-1.055 1.055v4.094c0 .583.472 1.055 1.055 1.055h4.799c.583.0 1.055-.472 1.055-1.055V8.458zM13.396 11.633h-2.82V9.377h2.82V11.633z"/><path d="M11.983 24.454c2.099.0 3.891-1.328 4.605-3.161h6.827c.387.0.741-.21.926-.549.186-.338.17-.751-.037-1.075l-4.854-7.572c-.194-.303-.529-.486-.89-.485-.358.0-.693.183-.888.486l-2.398 3.746c-.872-.781-2.026-1.257-3.291-1.257-2.724.0-4.936 2.21-4.936 4.937C7.048 22.247 9.26 24.454 11.983 24.454zM18.562 14.43l3.088 4.816h-4.737c-.031-.562-.163-1.135-.38-1.646L18.562 14.43z"/></g></g><g/><g/><g/><g/><g/><g/><g/><g/><g/><g/><g/><g/><g/><g/><g/></svg>