<svg id="Capa_1" xmlns="http://www.w3.org/2000/svg" xmlns:xlink="http://www.w3.org/1999/xlink" width="124.654" height="124.654" viewBox="0 0 124.654 124.654" style="enable-background:new 0 0 124.654 124.654"><g><g><path d="M62.319 100.444v.004l.008-.001.008.001v-.004c.377-.047 23.159-3.084 23.159-27.613V55.016c0-4.05-18.672-3.41-22.881-11.162h-.572c-4.209 7.752-22.882 7.112-22.882 11.162V72.83C39.159 97.36 61.942 100.397 62.319 100.444zM42.924 56.37c1.192-.463 3.375-.997 5.065-1.41 4.41-1.082 9.532-2.337 13.309-4.94l1.029-.706 1.028.705c3.777 2.604 8.9 3.858 13.31 4.94 1.69.413 3.874.947 5.065 1.41V72.83c0 8.797-3.244 15.45-9.643 19.774-4.128 2.791-8.376 3.768-9.761 4.025-1.39-.261-5.636-1.236-9.762-4.025-6.397-4.324-9.642-10.979-9.642-19.774L42.924 56.37v0z"/><path d="M79.131 72.673V58.124c-.99-.274-2.137-.556-3.076-.785-4.517-1.107-9.627-2.356-13.728-5.021l-.011 41.493c1.514-.332 4.993-1.273 8.323-3.524C76.273 86.476 79.131 80.55 79.131 72.673z"/><path d="M117.531 13.743H7.123C3.195 13.743.0 16.938.0 20.867v82.921c0 3.928 3.195 7.123 7.123 7.123h110.408c3.928.0 7.123-3.195 7.123-7.123V20.867C124.654 16.938 121.459 13.743 117.531 13.743zM116.436 102.005c0 1.207-.983 2.192-2.192 2.192H10.41c-1.209.0-2.192-.985-2.192-2.192V42.51h108.217v59.495zM80.547 37.214v-6.575h6.574v6.575H80.547zM95.342 37.214v-6.575h6.574v6.575H95.342zM109.77 37.214v-6.575h6.574v6.575H109.77zM121.367 25.25H3.287v-4.383c0-2.115 1.721-3.836 3.836-3.836h110.408c2.115.0 3.836 1.721 3.836 3.836V25.25z"/></g></g><g/><g/><g/><g/><g/><g/><g/><g/><g/><g/><g/><g/><g/><g/><g/></svg>