<svg id="Capa_1" xmlns="http://www.w3.org/2000/svg" xmlns:xlink="http://www.w3.org/1999/xlink" width="124.029" height="124.029" viewBox="0 0 124.029 124.029" style="enable-background:new 0 0 124.029 124.029"><g><g><path d="M46.163 71.234c9.877.0 17.884-8.008 17.884-17.884.0-9.877-8.006-17.884-17.884-17.884S28.279 43.473 28.279 53.35C28.279 63.226 36.286 71.234 46.163 71.234zM45.299 54.589c-3.425-1.24-5.643-2.806-5.643-5.839.0-2.805 1.957-4.958 5.251-5.545v-3.197h2.676v3.034c2.054.065 3.457.554 4.5 1.076l-.88 3.001c-.782-.359-2.218-1.109-4.437-1.109-2.283.0-3.098 1.174-3.098 2.283.0 1.337 1.173 2.088 3.946 3.197 3.654 1.37 5.286 3.131 5.286 6.034.0 2.772-1.924 5.219-5.513 5.806v3.359h-2.675v-3.166c-2.055-.062-4.11-.65-5.285-1.432l.882-3.067c1.271.75 3.098 1.435 5.088 1.435 2.056.0 3.458-1.011 3.458-2.576C48.854 56.415 47.712 55.47 45.299 54.589z"/><path d="M72.838 39.089c9.909.0 17.941-8.033 17.941-17.942.0-9.909-8.032-17.942-17.941-17.942-9.909.0-17.941 8.033-17.941 17.942C54.897 31.056 62.929 39.089 72.838 39.089zM63.415 21.899h1.833c0-.164.0-.36.0-.524.0-.393.033-.817.066-1.177h-1.899v-2.029h2.192c.394-1.997 1.277-3.698 2.455-4.941 1.767-1.963 4.156-3.076 7.068-3.076 1.963.0 3.6.491 4.68 1.015l-.818 3.043c-.85-.457-2.191-.884-3.665-.884-1.638.0-3.078.589-4.155 1.8-.689.72-1.18 1.8-1.441 3.043h8.574v2.029h-8.967c-.064.36-.064.752-.064 1.145.0.196.0.36.0.557h9.033v1.995h-8.674c.23 1.408.721 2.455 1.41 3.208 1.11 1.21 2.682 1.766 4.385 1.766 1.603.0 3.106-.556 3.86-.98l.688 2.944c-1.08.655-2.914 1.31-5.008 1.31-2.978.0-5.66-1.179-7.395-3.371-1.047-1.211-1.768-2.848-2.062-4.877h-2.097V21.899z"/><path d="M108.582 47.367c8.531.0 15.447-6.916 15.447-15.447.0-8.531-6.916-15.447-15.447-15.447s-15.447 6.916-15.447 15.447C93.135 40.451 100.051 47.367 108.582 47.367zM105.004 22.763l2.367 5.1c.507 1.042.816 1.916 1.184 2.817h.057c.339-.845.703-1.831 1.184-2.874l2.452-5.043h3.662l-4.931 8.255h3.494v1.719h-4.424v1.916h4.424v1.719h-4.424v4.705h-3.24v-4.705h-4.395v-1.719h4.395v-1.916h-4.395v-1.719h3.521l-4.676-8.255H105.004z"/><path d="M74.703 60.601c0 8.813 7.145 15.958 15.957 15.958 8.814.0 15.958-7.145 15.958-15.958.0-8.814-7.144-15.958-15.958-15.958S74.703 51.787 74.703 60.601zM96.219 51.708l-.64 2.707c-.554-.321-1.397-.583-2.532-.583-2.154.0-2.941 1.455-2.941 3.144.0.989.146 1.776.322 2.619h4.074v2.474h-3.755c.03.902.03 1.775-.204 2.59-.291.99-.873 1.834-1.688 2.562v.058h8.179v2.94H84.285v-1.951c1.748-.813 3.29-2.562 3.29-4.627.0-.553-.028-1.02-.116-1.571h-2.91v-2.474h2.502c-.146-.815-.291-1.775-.291-2.707.0-3.58 2.533-5.908 6.142-5.908C94.473 50.981 95.578 51.33 96.219 51.708z"/><path d="M116.212 81.589c-2.056-1.637-6.036-3.549-10.499-3.549-3.775.0-9.246 1.369-13.893 7.879-4.18 5.336-9.419 7.496-13.674 8.314.382-.953.63-2.098.637-3.717.038-9.051-7.176-15.855-17.151-15.9l-35.608.031c-3.342.0-6.631.986-9.404 2.771v-4.633H0v48.039h16.619v-5.104c.628.311 1.493.938 1.493.938 2.861 1.578 7.295 3.515 11.818 3.515h32.713c28.179.0 47.634-15.787 54.69-23.607 2.108-2.338 4.292-4.756 4.041-7.801C121.152 86.044 119.15 83.929 116.212 81.589zM11.053 83.398H5.244v-5.809h5.809V83.398zM113.021 92.675c-6.535 7.244-24.528 21.69-50.377 21.69H29.931c-5.531.0-11.487-4.326-11.541-4.368-.51-.376-1.117-.568-1.729-.568-.013.0-.027.004-.042.004V83.835c.636.012 1.27-.171 1.795-.57l.635-.479c1.976-1.501 4.452-2.328 6.961-2.328l35.595-.032c5.68.025 11.399 3.286 11.37 10.068.0 3.916-2.611 4.117-2.752 4.152H44.13c-1.604.0-2.904 1.301-2.904 2.904.0 1.603 1.3 2.902 2.904 2.902h27.693l1.543-.004c4.347-.001 15.295-1.027 23.073-11.008.025-.034.053-.069.076-.104 2.586-3.641 5.68-5.487 9.196-5.487 3.175.0 5.89 1.494 6.88 2.283 2.91 2.317 2.991 3.077 2.993 3.108C115.596 89.825 113.727 91.896 113.021 92.675z"/></g></g><g/><g/><g/><g/><g/><g/><g/><g/><g/><g/><g/><g/><g/><g/><g/></svg>