<svg id="Capa_1" xmlns="http://www.w3.org/2000/svg" xmlns:xlink="http://www.w3.org/1999/xlink" width="124.771" height="124.771" viewBox="0 0 124.771 124.771" style="enable-background:new 0 0 124.771 124.771"><g><g><path d="M114.225 98.902l-2.891 1.047c-.328-1.576-.189-2.347.02-3.517.193-1.09.436-2.442.445-4.666.028-5.965-4.015-14.682-4.205-15.086l-.072-.135c-2.787-4.724-6.564-4.218-8.82-3.912-.638.086-1.354.181-1.729.101-2.629-1.496-7.149-1.893-11.215-.078-.694.035-2.084.174-3.607.727-1.319.479-2.448 1.154-3.366 2.018-1.834-5.031-4.563-12.521-4.921-13.506-.781-2.158-3.678-3.139-4.021-3.25-1.365-.402-2.793-.363-4.123.119-3.438 1.244-5.222 5.055-3.978 8.49l8.696 24.016c.15.42.259.795.337 1.121-6.349-.744-10.566.121-12.592 2.557-2.022 2.435-1.016 5.306-.972 5.427 1.66 4.581 7.69 4.661 8.297 4.651 9.101.795 12.06 4.349 13.008 6.81l-3.146 1.139 4.271 11.797 38.854-14.069L114.225 98.902zM81.234 119.328l-1.288-3.562 3.562-1.288 1.287 3.561L81.234 119.328zM107.557 101.318l-25.312 9.164c-.449-1.199-1.1-2.314-1.938-3.324-2.889-3.474-7.771-5.527-14.561-6.107l-.173-.006c-.038.0-3.887-.008-4.61-2.002-.011-.035-.273-.881.281-1.547.191-.23.587-.566 1.37-.853 1.403-.508 4.265-.916 9.935.021l1.771.295.478-1.736c.094-.348.5-2.233-.615-5.312l-8.696-24.014c-.496-1.373.216-2.894 1.588-3.392 1.374-.498 2.896.215 3.394 1.588l6.375 17.75c.375 1.033 1.52 1.567 2.551 1.195.943-.343 1.472-1.324 1.271-2.277l-.246-.883c-.439-1.449 1.568-2.203 3.098-2.756 1.393-.505 2.676-.5 2.688-.5.064.0.127-.005.191-.013.367.029.699-.02 1.085-.221.002.0.239-.127.672-.283 1.387-.502 4.177-1.129 7.336.324l.16.061c1.212.406 2.469.236 3.581.086 2.035-.272 3.386-.452 4.812 1.906.317.697 3.798 8.445 3.774 13.26-.01 1.886-.21 3.005-.387 3.99C107.111 97.507 106.957 98.82 107.557 101.318z"/><path d="M64.943 110.382c-4.73-.054-10.926-2.22-13.087-8.187-.22-.6-.391-1.291-.497-2.035H12.703V8.572c0-1.182.962-2.143 2.143-2.143h66.169c1.183.0 2.145.961 2.145 2.143v58.956l6.43-1.263V8.572C89.59 3.845 85.744.0 81.018.0h-66.17C10.12.0 6.275 3.846 6.275 8.572v99.594c0 4.729 3.846 8.574 8.572 8.574h55.874l-2.08-5.744C67.605 110.73 66.379 110.517 64.943 110.382zM51.742 111.97H44.12v-6.297l3.862-2.854 3.76 2.86V111.97z"/><path d="M26.112 70.058 19.657 67.417 17.813 71.925 29.214 76.589 34.354 59.703 41.089 67.857 55.781 49.385 79.266 40.29 77.508 35.749 52.791 45.322 41.018 60.124 32.334 49.613z"/><path d="M58.967 29.825c0-6.864-5.564-12.429-12.429-12.429-6.865.0-12.428 5.564-12.428 12.429.0 6.865 5.564 12.429 12.428 12.429C53.402 42.254 58.967 36.69 58.967 29.825zM40.865 37.223l.715-2.489c1.033.607 2.516 1.164 4.13 1.164 1.668.0 2.807-.82 2.807-2.092.0-1.191-.927-1.959-2.886-2.674-2.781-1.006-4.581-2.278-4.581-4.74.0-2.276 1.589-4.024 4.263-4.501v-2.595h2.172v2.463c1.668.053 2.807.45 3.652.873l-.714 2.437c-.635-.292-1.799-.9-3.601-.9-1.854.0-2.515.954-2.515 1.853.0 1.086.952 1.695 3.203 2.596 2.966 1.112 4.29 2.542 4.29 4.897.0 2.251-1.563 4.237-4.476 4.714v2.728h-2.172v-2.569C43.487 38.333 41.819 37.857 40.865 37.223z"/></g></g><g/><g/><g/><g/><g/><g/><g/><g/><g/><g/><g/><g/><g/><g/><g/></svg>