<svg id="Capa_1" xmlns="http://www.w3.org/2000/svg" xmlns:xlink="http://www.w3.org/1999/xlink" width="31.682" height="31.682" viewBox="0 0 31.682 31.682" style="enable-background:new 0 0 31.682 31.682"><g><g><path d="M7.042 23.229H5.705c-.553.0-.984.459-.984 1.015v.708H4.276c-.555.0-.932-.41-.932-.964v-1.063c0-.557.377-1.07.932-1.07h2.118c-.513-1.202-.798-2.604-.798-4.045.0-5.979 4.805-10.806 10.779-10.806 1.768.0 3.489.442 4.866 1.193V2.992C21.241 1.368 20.002.0 18.375.0H4.143C2.518.0 1.279 1.368 1.279 2.992V24.12c0 1.626 1.239 2.896 2.864 2.896h.578v1.604c0 .183.087.349.244.438.156.091.343.088.5-.002l2.367-1.379 2.368 1.379c.156.09.328.093.484.002.156-.09.232-.256.232-.438v-1.44C9.367 26.225 7.983 24.951 7.042 23.229z"/><path d="M15.641 21.18c-2.418-.439-3.024-2.772-3.05-2.881-.119-.498-.616-.804-1.118-.689-.5.117-.812.617-.694 1.117.034.147.888 3.625 4.53 4.285.057.013.112.017.167.017.442.0.835-.315.917-.767C16.484 21.756 16.146 21.27 15.641 21.18z"/><path d="M29.965 27.291l-3.556-3.554c-.19-.193-.435-.322-.694-.379-.095-.021-.191-.032-.291-.032-.371.0-.728.146-.988.411l-.967-.97c2.578-3.527 2.274-8.521-.91-11.708-1.705-1.707-3.975-2.646-6.387-2.646-2.412.0-4.68.939-6.387 2.646-1.706 1.706-2.645 3.975-2.645 6.387-.001 2.411.939 4.68 2.645 6.386 1.707 1.707 3.974 2.646 6.387 2.646 1.939.0 3.788-.606 5.322-1.732l.968.966v.003c-.361.357-.482.868-.365 1.327.061.236.182.461.365.646l3.555 3.556c.279.28.658.438 1.053.438.396.0.775-.155 1.057-.438l1.844-1.845C30.547 28.815 30.547 27.872 29.965 27.291zM20.582 21.86c-1.179 1.176-2.746 1.825-4.412 1.825-1.666.0-3.233-.649-4.41-1.825-1.178-1.183-1.827-2.746-1.827-4.411.0-1.668.649-3.232 1.827-4.413 1.177-1.176 2.745-1.826 4.41-1.826 1.666.0 3.233.65 4.412 1.826C23.014 15.47 23.014 19.43 20.582 21.86z"/><circle cx="11.879" cy="15.722" r=".912"/></g></g><g/><g/><g/><g/><g/><g/><g/><g/><g/><g/><g/><g/><g/><g/><g/></svg>