<svg id="Capa_1" xmlns="http://www.w3.org/2000/svg" xmlns:xlink="http://www.w3.org/1999/xlink" width="123.369" height="123.368" viewBox="0 0 123.369 123.368" style="enable-background:new 0 0 123.369 123.368"><g><g><path d="M95.27 108.497c-.032-.304-.052-.606-.119-.909-.42-1.929-.837-3.316-1.36-4.529l-.063-.141c-.2-.438-.399-.878-.573-1.318-.034-.082-.066-.162-.098-.244l-.198-.33c-.034-.055-.065-.111-.098-.168l-.748-1.35c-.038-.066-.073-.137-.109-.205l-.138-.277c-.043-.057-.08-.106-.116-.156l-.026 15.445-18.198-.028.047-25.737-11.506-.018v-.004l-1.214.002-1.217-.002v.004L48.13 88.549l-.054 25.737-18.199.028-.075-45.006 30.949-30.533 17.934 17.692c.646-1.999 1.508-4.013 2.647-6.063.837-1.441 1.66-2.566 2.387-3.56l.097-.131c.093-.126.188-.247.292-.364.871-1.009 1.664-1.911 2.529-2.766.086-.085.174-.166.266-.245l.045-.04L66.07 22.701c-1.123-1.105-2.562-1.818-4.106-2.085v-.022c-.372-.054-.744-.108-1.126-.108-.03.0-.06.009-.088.009-.03.0-.059-.009-.09-.009-.381.0-.754.055-1.127.108v.021c-1.544.267-2.982.979-4.104 2.085L3.569 73.867c-2.982 2.941-2.973 7.706.02 10.643 1.494 1.463 3.457 2.195 5.415 2.192 1.96-.003 3.918-.744 5.409-2.211l5.204-5.134.074 44.011 41.059-.069 32.988.057c.176-.652.417-1.59.681-2.742.311-1.413.556-2.74.736-4.008.074-.517.126-1.043.18-1.578l.074-.719c.035-.498.053-1.006.072-1.518l.031-.764-.084-2.258C95.362 109.342 95.315 108.918 95.27 108.497z"/><path d="M113.79 84.372c-.429-.858-.895-1.704-1.358-2.558l-.712-1.273-.369-.629c-.125-.217-.214-.312-.324-.477-.826-1.182-1.697-2.338-2.559-3.498l-1.476-1.912c-.351-.463-.729-.906-1.097-1.357-.341-.457-.802-.88-1.078-1.342-.298-.457-.591-.917-.913-1.359l-.964-1.334c-.249-.451-.498-.9-.745-1.346-.27-.445-.537-.887-.803-1.324-.235-.445-.396-.888-.607-1.33-.196-.445-.424-.885-.647-1.328-.15-.449-.301-.896-.447-1.336-.14-.447-.353-.896-.479-1.347-.088-.45-.188-.902-.313-1.357-.47-1.823-.598-3.686-.651-5.529-.048-.931.094-1.81.088-2.719.104-.907.204-1.768.298-2.576.152-.838.297-1.624.43-2.351.174-.748.333-1.437.477-2.057.331-1.252.625-2.281.842-2.988.218-.699.357-1.101.357-1.101s-.392.088-1.121.363c-.717.275-1.745.731-2.979 1.473-.627.363-1.258.83-1.981 1.34-.708.521-1.39 1.164-2.175 1.846-.729.72-1.451 1.546-2.229 2.441-.689.944-1.439 1.958-2.105 3.105-1.284 2.306-2.479 5.076-3.023 8.231-.15.787-.277 1.595-.396 2.42-.093.821-.071 1.653-.086 2.504-.001.849-.017 1.722.036 2.591.113.846.229 1.706.378 2.573.158.86.264 1.769.494 2.616.266.832.532 1.671.803 2.515.293.837.577 1.697.899 2.531.392.776.782 1.56 1.179 2.343.804 1.571 1.634 3.165 2.683 4.501.503.697.997 1.404 1.521 2.093l.779 1.034.194.259.099.129.024.033c-.668-.837-.174-.217-.317-.396l.04.054.323.438c.881 1.146 1.753 2.302 2.665 3.42.098.131.255.303.305.4l.171.305.363.594c.253.39.5.781.783 1.158.137.191.29.367.42.574l.345.688c.252.453.501.903.75 1.353l.401.67c.115.226.186.453.283.681.177.456.39.903.596 1.356.778 1.81 1.271 3.646 1.683 5.53.212.944.22 1.886.396 2.843.036.982.072 1.93.105 2.842-.044.931-.062 1.86-.128 2.763-.097.892-.17 1.774-.292 2.608-.239 1.67-.54 3.183-.819 4.463-.581 2.545-1.067 4.14-1.067 4.14s1.62-.414 4.043-1.951c1.214-.765 2.606-1.823 4.076-3.239.759-.693 1.413-1.548 2.197-2.425.737-.903 1.372-1.955 2.115-3.045.643-1.135 1.228-2.383 1.842-3.702.469-1.359.981-2.802 1.338-4.335.666-3.077.905-6.522.459-10C116.372 91.135 115.388 87.791 113.79 84.372z"/><path d="M121.919 39.462c-.235-2.406-.824-4.734-1.791-7.126-.541-1.167-1.149-2.484-1.749-3.521-.536-.858-1.106-1.701-1.671-2.549l-.958-1.385-.729-1.008c-.537-.656-.904-1.342-1.319-2.012l-.643-.996-.508-1.004-.527-.999c-.139-.337-.275-.671-.412-1.003-.145-.335-.288-.67-.431-1.001-.085-.337-.188-.67-.303-1.005-.103-.336-.239-.672-.321-1.008-.058-.338-.121-.674-.208-1.013-.21-.68-.225-1.349-.33-2.027-.15-.685-.073-1.338-.145-2.009-.042-1.325.055-2.6.171-3.78.084-.597.163-1.153.236-1.67.102-.53.193-1.018.277-1.456.204-.879.351-1.63.5-2.116C111.204.269 111.281.0 111.281.0s-.271.079-.761.31c-.468.24-1.188.588-2.009 1.165-.826.573-1.764 1.361-2.751 2.4-.471.531-.961 1.119-1.447 1.776-.445.674-.947 1.393-1.359 2.206-.83 1.616-1.586 3.53-1.943 5.676-.104.536-.187 1.086-.261 1.646-.057.558-.051 1.122-.072 1.701-.015.578-.029 1.168-.007 1.76.072.582.146 1.169.221 1.761.087.591.144 1.206.271 1.798.165.577.331 1.157.5 1.74.176.587.354 1.176.531 1.769.244.551.491 1.104.738 1.658.51 1.106 1.021 2.244 1.706 3.213l1.737 2.651c.575.838 1.147 1.681 1.743 2.501.423.71.676 1.225 1.073 1.825.207.263.354.619.509.963l.519 1.011c.196.332.337.674.439 1.019.113.346.269.68.408 1.02.502 1.364.862 2.74 1.119 4.13.149.694.157 1.384.277 2.078.06.691.054 1.369.105 2.052-.017.688-.032 1.349-.047 1.976-.053.653-.104 1.273-.15 1.854-.135 1.184-.302 2.255-.463 3.159-.18.891-.306 1.645-.438 2.139-.126.512-.192.783-.192.783s1.093-.378 2.725-1.549c.812-.589 1.729-1.388 2.699-2.428.487-.518.924-1.125 1.438-1.762.466-.656.889-1.394 1.368-2.167.396-.804.797-1.665 1.178-2.585.302-.938.637-1.929.865-2.978C121.979 44.168 122.167 41.84 121.919 39.462z"/><path d="M84.891 16.059c.085.29.167.582.252.875.089.296.178.594.268.893.123.277.248.555.373.835.257.557.516 1.13.858 1.618l.876 1.335c.29.423.578.847.879 1.26.213.357.34.617.54.92.104.132.178.312.256.485l.261.509c.101.168.17.339.224.514.057.174.135.342.205.514.253.688.434 1.381.562 2.08.076.35.079.696.141 1.047.029.349.026.69.054 1.033-.009.348-.016.681-.023.995-.026.33-.053.643-.076.936-.066.596-.15 1.136-.232 1.592-.09.447-.153.827-.221 1.077-.062.257-.096.394-.096.394s.549-.19 1.372-.78c.407-.296.871-.699 1.358-1.222.246-.262.466-.568.724-.889.236-.331.449-.701.69-1.092.199-.404.399-.838.593-1.303.152-.472.319-.971.437-1.499.214-1.061.31-2.232.186-3.43-.119-1.213-.417-2.387-.903-3.591-.271-.588-.578-1.252-.881-1.773-.271-.433-.558-.857-.842-1.284l-.482-.697-.367-.509c-.271-.33-.455-.677-.664-1.014l-.322-.501-.258-.505-.265-.504c-.07-.17-.14-.339-.207-.506-.073-.168-.146-.337-.219-.504-.043-.17-.095-.337-.151-.507-.052-.169-.122-.338-.162-.508-.027-.169-.062-.339-.104-.51-.106-.343-.113-.68-.167-1.021-.076-.346-.036-.674-.072-1.012-.021-.669.026-1.311.086-1.906.043-.299.083-.58.118-.841.052-.267.099-.512.142-.733.103-.442.178-.821.251-1.065.071-.254.112-.39.112-.39s-.137.039-.385.154c-.235.122-.599.297-1.012.589-.416.288-.889.685-1.386 1.208-.236.268-.483.564-.729.895-.226.34-.479.702-.687 1.111-.417.815-.799 1.779-.979 2.86-.053.269-.093.547-.131.828-.028.282-.025.566-.036.857-.007.292-.016.589-.003.887.036.293.073.59.11.888C84.797 15.45 84.827 15.759 84.891 16.059z"/></g></g><g/><g/><g/><g/><g/><g/><g/><g/><g/><g/><g/><g/><g/><g/><g/></svg>