<svg id="Capa_1" xmlns="http://www.w3.org/2000/svg" xmlns:xlink="http://www.w3.org/1999/xlink" width="31.701" height="31.701" viewBox="0 0 31.701 31.701" style="enable-background:new 0 0 31.701 31.701"><g><g><path d="M6.492 21.25 3.768 28.967 8.705 27.32l2.808 4.381L14.271 23.889 11.651 21.607z"/><path d="M25.21 21.25 20.052 21.607 17.431 23.889 20.188 31.701l2.808-4.381L27.934 28.967z"/><path d="M23.957 19.572l.32-4.617 3.039-3.489-3.039-3.49-.32-4.617-4.615-.32L15.852.0l-3.491 3.039-4.616.32-.32 4.618-3.038 3.49 3.038 3.489.32 4.616 4.617.319 3.491 3.037 3.49-3.037L23.957 19.572zM15.791 17.826c-3.546.0-6.422-2.875-6.422-6.42s2.875-6.422 6.422-6.422c3.547.0 6.422 2.876 6.422 6.422C22.213 14.952 19.337 17.826 15.791 17.826z"/><path d="M13.667 8.691 13.943 9.954 15.31 9.311H15.326v5.651H16.957V7.797H15.562z"/></g></g><g/><g/><g/><g/><g/><g/><g/><g/><g/><g/><g/><g/><g/><g/><g/></svg>