<svg id="Capa_1" xmlns="http://www.w3.org/2000/svg" xmlns:xlink="http://www.w3.org/1999/xlink" width="31.631" height="31.631" viewBox="0 0 31.631 31.631" style="enable-background:new 0 0 31.631 31.631"><g><g><path d="M9.865 28.527c2.242 1.949 4.542 3.104 5.948 3.104 1.806.0 4.354-1.305 6.678-3.484-2.445.685-4.835.918-6.971.918C13.277 29.062 11.316 28.803 9.865 28.527z"/><path d="M21.751 3.062C19.527 1.138 17.246.0 15.813.0c-1.338.0-3.484 1.045-5.622 2.826C12.903 2.34 17.194 1.956 21.751 3.062z"
			/><path d="M24.333 26.16c2.241-2.771 3.933-6.389 3.933-10.344.0-4.185-2.037-7.988-4.554-10.816-6.586-2.375-13.269-.985-15.36-.441-2.707 2.868-4.987 6.852-4.987 11.257.0 4.26 2.132 8.125 4.72 10.969C9.91 27.285 17.265 28.982 24.333 26.16zM12.682 15.169c.357.0.646.285.646.644.0.356-.289.643-.646.643h-1.591c.06 1.18.347 2.463.978 3.854h1.865c.357.0.646.285.646.645.0.355-.29.643-.646.643h-1.149c.28.428.6.863.963 1.303.455.55.378 1.357-.172 1.812-.241.199-.533.293-.823.293-.372.0-.741-.148-.997-.457-.82-.99-1.454-1.988-1.936-2.953H8.103c-.357.0-.646-.285-.646-.643.0-.355.289-.643.646-.643h1.163c-.485-1.394-.708-2.679-.748-3.854H6.852c-.357.0-.646-.286-.646-.644s.289-.643.646-.643h1.69c.098-1.499.426-2.783.837-3.961H8.103c-.357.0-.646-.285-.646-.643.0-.357.289-.642.646-.642h1.8c.868-1.927 1.825-3.11 1.852-3.143.456-.55 1.269-.632 1.819-.177.55.454.628 1.275.174 1.825-.063.077-.492.639-.987 1.495h1.171c.357.0.646.285.646.642.0.358-.29.643-.646.643h-1.819c-.474 1.07-.893 2.462-1.005 3.961L12.682 15.169v0z"/></g></g><g/><g/><g/><g/><g/><g/><g/><g/><g/><g/><g/><g/><g/><g/><g/></svg>