<svg id="Capa_1" xmlns="http://www.w3.org/2000/svg" xmlns:xlink="http://www.w3.org/1999/xlink" width="31.763" height="31.763" viewBox="0 0 31.763 31.763" style="enable-background:new 0 0 31.763 31.763"><g><path d="M31.61 11.021c-.567-1.893-2.562-2.969-4.457-2.399-1.895.57-2.967 2.566-2.396 4.459.021.078.049.154.078.229l-2.129 1.858c-.527-.046-1.1-.055-1.688-.035L20.3 9.149c1.787-.634 2.777-2.565 2.229-4.399-.57-1.894-2.564-2.97-4.459-2.4-1.895.57-2.965 2.565-2.396 4.459.291.973.961 1.728 1.799 2.155l-.299 6.674c-.298.068-.59.14-.873.218L11.65 7.472c.693-.886.96-2.081.613-3.239-.57-1.893-2.564-2.968-4.457-2.4C5.912 2.405 4.839 4.402 5.408 6.294c.498 1.658 2.094 2.689 3.756 2.533l3.322 8.177c-.517.18-1.008.375-1.454.594l-4.091-2.323c.258-.702.298-1.49.067-2.26-.569-1.892-2.564-2.968-4.458-2.397-1.893.569-2.966 2.564-2.398 4.457.569 1.893 2.564 2.969 4.458 2.397.314-.094.606-.229.871-.396l3.286 3.229c-.082 1.048.394 2.396 1.689 4.185 2.305 3.186 5.818 7.044 12.252 5.04 5.474-1.705.621-7.639 2.719-11.315.113-.197.197-.386.26-.561l1.572-2.144c.621.165 1.294.168 1.954-.032C31.106 14.908 32.178 12.913 31.61 11.021z"/></g><g/><g/><g/><g/><g/><g/><g/><g/><g/><g/><g/><g/><g/><g/><g/></svg>