<svg id="Capa_1" xmlns="http://www.w3.org/2000/svg" xmlns:xlink="http://www.w3.org/1999/xlink" width="388.437" height="388.437" viewBox="0 0 388.437 388.437" style="enable-background:new 0 0 388.437 388.437"><g><path d="M95.615 252.437c44.996.0 81.6-36.604 81.6-81.601.0-44.996-36.604-81.6-81.6-81.6s-81.6 36.604-81.6 81.6C14.015 215.832 50.62 252.437 95.615 252.437zM95.615 123.236c26.241.0 47.6 21.358 47.6 47.6s-21.359 47.601-47.6 47.601-47.6-21.359-47.6-47.601S69.374 123.236 95.615 123.236zM278.868 91.011c-2.672 65.559-22.236 129.833-54.65 178.378-46.064 68.986-116.403 105.447-203.402 105.447-9.391.0-17-7.609-17-17s7.609-17 17-17c168.239.0 219.287-150.328 223.998-249.825h-35.148L262.222.0l52.545 91.011H278.868v0zM379.638 359.414c6.645 6.644 6.645 17.401.0 24.038-3.324 3.325-7.67 4.984-12.021 4.984-4.354.0-8.697-1.659-12.023-4.978l-35.578-35.578-35.576 35.578c-3.326 3.318-7.672 4.978-12.023 4.978s-8.697-1.659-12.021-4.978c-6.645-6.644-6.645-17.401.0-24.038l35.576-35.578-35.576-35.577c-6.645-6.644-6.645-17.401.0-24.038 6.643-6.637 17.4-6.644 24.037.0l35.578 35.577 35.578-35.577c6.643-6.644 17.4-6.644 24.037.0s6.645 17.401.0 24.038l-35.57 35.57L379.638 359.414z"/></g><g/><g/><g/><g/><g/><g/><g/><g/><g/><g/><g/><g/><g/><g/><g/></svg>