<svg id="Capa_1" xmlns="http://www.w3.org/2000/svg" xmlns:xlink="http://www.w3.org/1999/xlink" width="31.493" height="31.492" viewBox="0 0 31.493 31.492" style="enable-background:new 0 0 31.493 31.492"><g><path d="M29.93 18.891c.859.0 1.56-.696 1.56-1.561v-3.176c0-.861-.697-1.56-1.56-1.56h-1.756c0-.001.0-.002-.004-.006-.307-1.215-.789-2.361-1.418-3.41l1.223-1.225c.607-.609.607-1.596.0-2.205l-2.246-2.246c-.293-.293-.69-.457-1.104-.457-.412.0-.812.165-1.103.458l-1.223 1.223c-1.039-.623-2.176-1.104-3.381-1.412-.004-.001-.012-.903-.02-1.765C18.895.692 18.2.0 17.34.0h-3.175c-.416.0-.814.166-1.107.461-.293.295-.456.696-.452 1.111l.015 1.706c-1.244.264-2.417.8-3.491 1.442L7.915 3.502C7.623 3.209 7.226 3.045 6.812 3.045c-.414.0-.811.165-1.103.457L3.46 5.75c-.608.609-.609 1.596.0 2.205l1.223 1.223c-.626 1.05-1.108 2.195-1.416 3.41-.001.004-.001.005-.003.006H1.562c-.861.0-1.56.698-1.56 1.56v3.179c0 .861.698 1.562 1.56 1.562h1.694c-.015-.062-.027-.119-.042-.184.015.059.027.118.042.176.308 1.231.793 2.394 1.429 3.455l-1.222 1.221c-.293.291-.457.688-.457 1.104s.164.811.457 1.104l2.247 2.248c.292.291.688.457 1.102.457.413.0.811-.166 1.103-.457l1.221-1.223c1.071.641 2.245 1.131 3.488 1.438L12.61 29.92c-.004.416.159.816.452 1.111s.691.461 1.107.461h3.176c.855.0 1.553-.691 1.56-1.55.006-.851.012-1.732.019-1.733 1.204-.31 2.34-.789 3.379-1.41l1.223 1.221c.609.608 1.598.608 2.205.0l2.246-2.243c.606-.609.608-1.597.0-2.207l-1.224-1.224c.638-1.062 1.121-2.224 1.433-3.455.016-.059.016-.055.0.008h1.748L29.93 18.891v0zM15.72 20.143c-2.421.0-4.384-1.965-4.384-4.385.0-2.419 1.963-4.385 4.384-4.385 2.421.0 4.384 1.964 4.384 4.385C20.104 18.18 18.141 20.143 15.72 20.143z"/></g><g/><g/><g/><g/><g/><g/><g/><g/><g/><g/><g/><g/><g/><g/><g/></svg>