<svg id="Capa_1" xmlns="http://www.w3.org/2000/svg" xmlns:xlink="http://www.w3.org/1999/xlink" width="573.846" height="573.845" viewBox="0 0 573.846 573.845" style="enable-background:new 0 0 573.846 573.845"><g><path d="M306 195.235v-40.8l-52.612-11.689c-1.795-5.61-4.08-10.989-6.746-16.15L275.61 81.07l-28.853-28.852-45.526 28.968c-5.161-2.666-10.54-4.95-16.15-6.746L173.4 21.835h-40.8l-11.689 52.611c-5.61 1.795-10.989 4.08-16.15 6.746L59.235 52.225 30.382 81.077l28.968 45.526c-2.666 5.161-4.951 10.54-6.746 16.15L0 154.435v40.8l52.612 11.689c1.795 5.61 4.08 10.989 6.746 16.15l-28.968 45.526 28.853 28.852 45.526-28.968c5.161 2.666 10.54 4.95 16.15 6.746l11.683 52.605h40.8l11.689-52.612c5.61-1.795 10.989-4.08 16.15-6.746l45.526 28.968 28.853-28.852-28.968-45.526c2.666-5.162 4.951-10.54 6.746-16.15L306 195.235zM153 225.835c-28.166.0-51-22.834-51-51 0-28.166 22.834-51 51-51s51 22.834 51 51C204 203.001 181.166 225.835 153 225.835zM371.77 491.729l12.859-31.402-36.815-25.582c.388-4.882.319-9.744-.103-14.552l36.646-25.915-13.117-31.3-44.173 7.956c-3.135-3.673-6.549-7.134-10.302-10.282l7.582-44.18-31.402-12.858-25.582 36.815c-4.882-.388-9.744-.32-14.552.102l-25.915-36.646-31.3 13.117 7.956 44.173c-3.672 3.135-7.133 6.549-10.282 10.303l-44.18-7.582-12.858 31.402 36.815 25.581c-.388 4.883-.32 9.744.102 14.552l-36.645 25.915 13.117 31.301 44.172-7.956c3.135 3.672 6.549 7.133 10.302 10.281l-7.582 44.18 31.402 12.858 25.582-36.814c4.882.388 9.745.319 14.552-.103l25.915 36.646 31.301-13.117-7.956-44.173c3.672-3.128 7.133-6.549 10.281-10.302L371.77 491.729zM244.351 467.065c-21.678-8.874-32.062-33.646-23.188-55.331 8.874-21.686 33.646-32.062 55.332-23.188 21.678 8.874 32.062 33.646 23.188 55.332C290.809 465.562 266.037 475.946 244.351 467.065zM573.846 166.614l-10.819-33.361-46.124 4.393c-2.951-4.114-6.256-7.901-9.799-11.417l11.614-44.907-31.246-15.939-29.546 35.761c-4.924-.809-9.928-1.258-14.994-1.231L419.417 59.99l-33.36 10.819 4.393 46.124c-4.114 2.951-7.901 6.256-11.417 9.799l-44.907-11.614-15.939 31.246 35.761 29.546c-.809 4.923-1.258 9.928-1.23 14.994L312.8 214.411l10.819 33.361 46.124-4.393c2.951 4.114 6.249 7.901 9.799 11.417l-11.614 44.907 31.246 15.939 29.546-35.761c4.923.809 9.928 1.258 14.994 1.23l23.515 39.923 33.36-10.819-4.393-46.124c4.114-2.951 7.901-6.256 11.417-9.799l44.907 11.614 15.939-31.246-35.762-29.546c.81-4.923 1.258-9.928 1.231-14.994L573.846 166.614zM456.852 232.214c-23.032 7.473-47.764-5.148-55.23-28.179-7.473-23.032 5.148-47.764 28.18-55.23 23.031-7.473 47.764 5.148 55.229 28.179C492.497 200.016 479.883 224.747 456.852 232.214z"/></g><g/><g/><g/><g/><g/><g/><g/><g/><g/><g/><g/><g/><g/><g/><g/></svg>