<svg id="Capa_1" xmlns="http://www.w3.org/2000/svg" xmlns:xlink="http://www.w3.org/1999/xlink" width="31.762" height="31.761" viewBox="0 0 31.762 31.761" style="enable-background:new 0 0 31.762 31.761"><g><g><path d="M13.639 14.357c.001.005.002.011.004.015h.004C13.644 14.372 13.641 14.366 13.639 14.357z"/><path d="M13.639 14.357c-.004-.021-.008-.045-.015-.063C13.63 14.314 13.634 14.34 13.639 14.357z"/><path d="M25.92 14.372H25.922V14.371z"/><path d="M25.922 14.371C25.926 14.368 25.926 14.358 25.922 14.371v0z"/><path d="M29.375 4.982c-2.68-3.214-10.233-5.485-16.611-3.666C6.049 3.23 2.674 7.44 2.231 14.882c-.033.554-.176 1.101-.42 1.599L.107 19.96c-.134.272-.143.594-.025.875.119.28.353.498.643.594l.556.187c.482.16.801.614.789 1.122-.15 6.657.194 8.354 7.237 8.354 7.507.0 6.544-5.521 15.615-6.599C31.629 23.695 33.972 10.499 29.375 4.982zM27.544 13.627c0 .424-.339.745-.765.745h-.857c-.001.003-.002.005-.002.008-.153.606-.393 1.183-.704 1.707l.6.605c.303.299.303.787.0 1.087l-1.104 1.106c-.3.3-.785.3-1.086.0l-.603-.604c-.512.309-1.07.542-1.666.694-.002.0-.004.437-.01.854-.002.422-.345.76-.767.76h-1.563c-.205.0-.397-.08-.545-.227-.145-.146-.226-.342-.223-.546l.009-.828c-.614-.151-1.19-.393-1.72-.708l-.599.604c-.145.145-.34.226-.544.226s-.399-.081-.543-.226l-1.109-1.105c-.143-.145-.223-.339-.223-.543s.08-.397.223-.543l.602-.601c-.312-.523-.551-1.094-.702-1.701-.002-.006-.003-.012-.004-.019h-.83c-.423.0-.76-.322-.76-.745v-1.566c0-.424.341-.768.764-.768h.838c0 0-.001.0.001-.002.15-.598.387-1.163.695-1.679L13.744 9.01c-.298-.3-.298-.785.0-1.086l1.108-1.107c.145-.144.34-.224.544-.224s.399.081.544.224l.6.601c.53-.317 1.106-.581 1.722-.711l-.011-.839c-.001-.206.079-.4.226-.546.146-.145.338-.225.545-.225h1.562c.422.0.766.339.768.761.004.425.006.867.01.868.595.151 1.152.388 1.664.695l.604-.603c.146-.144.34-.225.544-.225s.397.081.543.224l1.108 1.107c.297.3.298.785.0 1.085L25.22 9.612c.309.516.547 1.091.697 1.689.001.002.001.014.002.014h.865c.424.0.763.323.763.747v1.565H27.544z"/><circle cx="19.781" cy="12.851" r="2.159"/></g></g><g/><g/><g/><g/><g/><g/><g/><g/><g/><g/><g/><g/><g/><g/><g/></svg>