<svg id="Capa_1" xmlns="http://www.w3.org/2000/svg" xmlns:xlink="http://www.w3.org/1999/xlink" width="31.735" height="31.736" viewBox="0 0 31.735 31.736" style="enable-background:new 0 0 31.735 31.736"><g><g><path d="M13.963 17.012c0-.742-.604-1.346-1.345-1.346-.743.0-1.346.604-1.346 1.346.0.74.602 1.346 1.346 1.346C13.359 18.358 13.963 17.752 13.963 17.012z"/><circle cx="20.18" cy="17.011" r="1.345"/><path d="M16.393 22.421c1.593.0 2.92-1.11 3.342-2.528h-6.681C13.473 21.311 14.803 22.421 16.393 22.421z"/><path d="M31.735 4.968c-3.339-3.595-6.71-.339-8.037 1.275-2.095-1.624-4.72-2.592-7.567-2.592-2.996.0-5.746 1.07-7.888 2.849C7.091 5.02 3.525 1.17.0 4.968c0 0 1.169 4.101 6.311 3.541-1.6 2.085-2.551 4.689-2.551 7.515.0 6.82 5.55 12.369 12.371 12.369 6.821.0 12.37-5.549 12.37-12.369.0-2.805-.938-5.395-2.516-7.472C30.652 8.769 31.735 4.968 31.735 4.968zM16.131 25.378c-5.158.0-9.355-4.197-9.355-9.354.0-.684.074-1.35.214-1.992h5.976l-.024-2.518 2.574 2.518h9.76c.139.643.214 1.309.214 1.992C25.487 21.181 21.29 25.378 16.131 25.378z"/></g></g><g/><g/><g/><g/><g/><g/><g/><g/><g/><g/><g/><g/><g/><g/><g/></svg>