<svg id="Capa_1" xmlns="http://www.w3.org/2000/svg" xmlns:xlink="http://www.w3.org/1999/xlink" width="125.824" height="125.824" viewBox="0 0 125.824 125.824" style="enable-background:new 0 0 125.824 125.824"><g><path d="M109.329 54.844l-11.477-7.127-.3-.186-.651-.061-2.205-.201 6.205-11.514L90.801 46.91l-8.212-.752-3.338-2.033-4.924-3.453 8.754-12.207.57-.797-.045-.588-.775-9.926L97.066 1.039 80.778 16.002l-.229.227-.068.516-1.261 9.225L68.299 37.21l-7.622 3.695-3.578-3.91-2.39 2.186-.845-8.769 2.76-15.473.181-1.018-.518-.568L42.552.0l10.143 14.783-4.298 14.871-.038.131-.033.543-.649 10.545-16.372-7.908-.608-.291-.294.002L10.171 32.91l19.082 4.123 11.751 7.945-1.816 11.381L7.231 78.449l33.245-15.617 5.811.355-1.728 9.037-13.202 3.91 12.566-.584-4.457 23.317 11.513-29.401.927 3.342 9.16-2.539 18.613 55.555-7.87-40.451 6.408-11.885-7.229 7.977-2.177-10.389 8.907 1.832 31.744 28.166L81.052 66.443l-2.965-10.695 11.433-3.613 6.901-.174 12.484 5.16.783.322.449-.494 8.455-9.361L109.329 54.844zM62.913 62.537l-6.858 2.938-2.158-7.789-6.763-.418-.345-3.063-2.917-3.417 5.39-7.994 5.026 3.682 4.688-2.875 7.25 3.625 3.271-4.979 6.416 8.332-5.334 4.75 2.459 11.708L62.913 62.537z"/></g><g/><g/><g/><g/><g/><g/><g/><g/><g/><g/><g/><g/><g/><g/><g/></svg>