<svg id="Capa_1" xmlns="http://www.w3.org/2000/svg" xmlns:xlink="http://www.w3.org/1999/xlink" width="31.695" height="31.695" viewBox="0 0 31.695 31.695" style="enable-background:new 0 0 31.695 31.695"><g><path d="M28.632 11.107h-7.884c-.372-.863-.422-1.771-.148-2.663.486-1.582 1.396-4.524-1.235-6.451-.842-.617-1.836-.941-2.877-.941-1.552.0-3.022.748-3.938 1.999-1.604 2.193-1.884 4.05-1.827 6.517.025 1.07-.177 1.49-.24 1.545l-4.436.006c-3.344.0-5.683 1.889-5.958 4.81-.149 1.574-.111 3.041.128 4.896.285 2.196.647 4.09.994 5.184.73 2.299 2.926 4.635 5.708 4.635l21.707-.021c.814.002 1.595-.317 2.174-.896.578-.578.896-1.359.896-2.176V14.032C31.696 12.333 30.332 11.107 28.632 11.107zM19.438 26.077c-.387 1.018-1.354 2.108-2.175 2.108H6.917c-.744.0-1.453-.329-2.038-.823.001.0.001.0.001.0-1.265-1.318.135-1.767.827-1.916.203-.043.35-.222.363-.427l.005-.09c.006-.104-.028-.203-.098-.276-.069-.076-.165-.123-.268-.125-1.824-.062-2.749-.322-2.641-1.445.264-.547 1.196-.898 1.771-1.066.279-.084.477-.34.477-.631V21.21c0-.283-.24-.514-.525-.514H4.691c-1.383-.041-1.922-.427-2.127-.763-.076-.252-.205-.317-.081-.752.225-1.062 1.532-1.312 2.287-1.362.306-.021.547-.273.547-.58v-.084c0-.307-.241-.561-.548-.582-2.374-.162-1.91-1.542-1.888-1.604h.004c0 0 .005.0.005-.002v0L2.884 14.96c.785-1.296 2.542-1.426 3.16-1.426h4.207c.021.0.134.013.154.013.713.0 1.338-.248 1.811-.732.67-.686.978-1.768.942-3.309-.05-2.077.14-3.357 1.356-5.019.773-1.053 2.352-1.3 3.41-.526.814.597.656 1.25.344 3.771-.614 5.001 1.784 7.392 2.263 12.225C20.763 22.312 19.964 24.669 19.438 26.077zM29.082 15.635h-5.237c-.726.0-1.31-.593-1.31-1.317.0-.725.586-1.316 1.31-1.316h5.237c.725.0 1.31.592 1.31 1.316C30.393 15.042 29.807 15.635 29.082 15.635z"/></g><g/><g/><g/><g/><g/><g/><g/><g/><g/><g/><g/><g/><g/><g/><g/></svg>