<svg id="Capa_1" xmlns="http://www.w3.org/2000/svg" xmlns:xlink="http://www.w3.org/1999/xlink" width="31.963" height="31.963" viewBox="0 0 31.963 31.963" style="enable-background:new 0 0 31.963 31.963"><g><path d="M31.453 9.17c.372-.439.554-1.011.501-1.585-.055-.574-.338-1.102-.785-1.466l-3.811-3.084c-.92-.744-2.27-.602-3.014.317L12.675 17.773l-5.536-4.667c-1.054-.889-2.61-.822-3.585.151l-2.927 2.926c-.421.421-.647.999-.626 1.594.022.596.291 1.152.742 1.542l11.108 9.565c.432.373.994.558 1.562.513.568-.044 1.096-.312 1.465-.747L31.453 9.17z"/></g><g/><g/><g/><g/><g/><g/><g/><g/><g/><g/><g/><g/><g/><g/><g/></svg>