<svg id="Capa_1" xmlns="http://www.w3.org/2000/svg" xmlns:xlink="http://www.w3.org/1999/xlink" width="31.89" height="31.89" viewBox="0 0 31.89 31.89" style="enable-background:new 0 0 31.89 31.89"
	><g><g><path d="M7.247 17.634v4.5c0 0 3.816 4.219 9.185 4.219 6.753.0 9.184-4.219 9.184-4.219v-4.882l-7.929 4.634c-.566.331-1.265.354-1.852.059L7.247 17.634z"/><path d="M16.63 12.277c-.991.0-1.978-.207-2.511-.637l-9.533 3.302 11.313 5.663c.585.293 1.281.271 1.844-.06l13.183-7.685c.615-.358.984-1.025.963-1.737s-.435-1.354-1.07-1.672L17.166 2.619c-.585-.293-1.279-.271-1.844.059L2.139 10.362c-.615.358-.984 1.025-.962 1.737.023.711.434 1.353 1.071 1.672l-.029 6.977c-.682.239-1.17.892-1.17 1.653.0.565.266 1.067.682 1.391-.132.963-.581 1.656-1.113 2.152-.426.396-.651.963-.614 1.545.037.58.333 1.115.807 1.453l.242.174c.449.32 1.013.436 1.552.312s1-.465 1.269-.945c.928-1.658.478-3.811.171-4.844.317-.316.514-.755.514-1.238.0-.758-.482-1.405-1.157-1.649L3.43 14.09l10.349-3.584c.09-.439.533-.843.533-.843-.034.119.033 1.564 2.222 1.564 1.258.0 2.275-.401 2.275-1.221.0-.15-.035-.313-.1-.481.354.436.565.928.565 1.331C19.276 11.81 18.091 12.277 16.63 12.277z"/></g></g><g/><g/><g/><g/><g/><g/><g/><g/><g/><g/><g/><g/><g/><g/><g/></svg>