<svg id="Capa_1" xmlns="http://www.w3.org/2000/svg" xmlns:xlink="http://www.w3.org/1999/xlink" width="496.399" height="496.4" viewBox="0 0 496.399 496.4" style="enable-background:new 0 0 496.399 496.4"><g><path d="M496.399 445.4v6.8c0 3.754-3.046 6.8-6.8 6.8H27.2C12.179 459 0 446.821.0 431.799V44.2c0-3.753 3.046-6.8 6.8-6.8h6.8c3.754.0 6.8 3.046 6.8 6.8v387.6c0 3.754 3.046 6.801 6.8 6.801h462.4C493.354 438.6 496.399 441.646 496.399 445.4zM308.421 125.358l-79.948 68.646c-2.224 1.904-5.413 2.176-7.922.673l-86.924-52.074c-2.625-1.571-5.984-1.197-8.194.918L42.901 222.53c-1.346 1.278-2.101 3.053-2.101 4.91v77.071c0 5.998 7.194 9.058 11.512 4.903l72.781-70c2.203-2.122 5.549-2.509 8.18-.952l100.008 59.262c2.285 1.354 5.147 1.251 7.33-.259l81.247-56.134c.659-.456 1.394-.789 2.162-.993l160.474-41.425c3.006-.762 5.106-3.475 5.106-6.576V83.463c0-4.495-4.284-7.752-8.615-6.555l-169.952 47.056C310.066 124.236 309.176 124.712 308.421 125.358zM322.163 267.873l-80.233 56.031c-2.176 1.523-5.045 1.633-7.337.293L133.6 264.948c-2.625-1.536-5.95-1.148-8.146.952l-82.552 79.03c-1.346 1.278-2.101 3.053-2.101 4.909V411.4c0 3.753 3.046 6.8 6.8 6.8h435.2c3.754.0 6.8-3.047 6.8-6.8V232.907c0-4.447-4.195-7.698-8.5-6.583l-156.74 40.542C323.571 267.07 322.83 267.41 322.163 267.873z"/></g><g/><g/><g/><g/><g/><g/><g/><g/><g/><g/><g/><g/><g/><g/><g/></svg>