<svg id="Capa_1" xmlns="http://www.w3.org/2000/svg" xmlns:xlink="http://www.w3.org/1999/xlink" width="476" height="476" viewBox="0 0 476 476" style="enable-background:new 0 0 476 476"><g><path d="M414.801 299.2V102c0-15.021-12.18-27.2-27.201-27.2H88.4c-15.021.0-27.2 12.179-27.2 27.2v197.2L0 374v6.8c0 11.268 9.132 20.4 20.4 20.4h435.2c11.268.0 20.4-9.133 20.4-20.4V374L414.801 299.2zM190.4 360.4 204 340h68l13.6 20.4H190.4zM394.4 272c0 3.754-3.047 6.8-6.801 6.8H88.4c-3.753.0-6.8-3.046-6.8-6.8V102c0-3.753 3.046-6.8 6.8-6.8h299.2c3.754.0 6.801 3.046 6.801 6.8V272zM340 159.8c0 9.391-7.609 17-17 17-1.258.0-2.475-.156-3.652-.415l-36.127 49.674c1.475 2.516 2.379 5.413 2.379 8.541.0 9.391-7.609 17-17 17s-17-7.608-17-17c0-2.747.715-5.304 1.871-7.603l-42.018-50.735c-1.306.32-2.645.537-4.053.537-1.088.0-2.142-.122-3.176-.319l-36.557 49.667c1.441 2.502 2.333 5.358 2.333 8.453.0 9.391-7.609 17-17 17-9.391.0-17-7.608-17-17s7.609-17 17-17c1.292.0 2.536.17 3.747.442l36.271-49.273c-1.632-2.611-2.611-5.671-2.611-8.969.0-9.391 7.609-17 17-17s17 7.609 17 17c0 2.965-.83 5.719-2.163 8.146l41.719 50.381c1.475-.428 3.012-.728 4.637-.728 1.258.0 2.475.156 3.652.415l36.129-49.674c-1.477-2.516-2.381-5.413-2.381-8.541.0-9.391 7.609-17 17-17S340 150.409 340 159.8z"/></g><g/><g/><g/><g/><g/><g/><g/><g/><g/><g/><g/><g/><g/><g/><g/></svg>