<svg id="Capa_1" xmlns="http://www.w3.org/2000/svg" xmlns:xlink="http://www.w3.org/1999/xlink" width="31.577" height="31.577" viewBox="0 0 31.577 31.577" style="enable-background:new 0 0 31.577 31.577"><g><g><path d="M29.308 2.322C29.308 1.04 28.268.0 26.984.0H4.592C3.31.0 2.27 1.04 2.27 2.322v26.932c0 1.283 1.04 2.323 2.323 2.323h22.392c1.283.0 2.323-1.04 2.323-2.323V2.322zM26.575 28.725H5.002V2.852h21.573V28.725z"/><path d="M24.948 4.62H6.628v22.337h18.319L24.948 4.62v0zM23.943 7.794h-1.809v-2.17h1.809v2.17zM16.311 14.984h1.928v2.13h-1.928V14.984zM15.307 17.114h-1.928v-2.13h1.928V17.114zM16.311 14.02v-2.129h1.928v2.129H16.311zM16.311 10.888V8.799h1.928v2.089H16.311zM15.307 10.888h-1.928V8.799h1.928V10.888zM15.307 11.892v2.129h-1.928v-2.129H15.307zM12.374 14.02h-1.928v-2.129h1.928V14.02zM12.374 14.984v2.13h-1.928v-2.13H12.374zM12.374 18.078v2.13h-1.928v-2.13H12.374zM13.378 18.078h1.928v2.13h-1.928V18.078zM15.307 21.172v2.129h-1.928v-2.129H15.307zM16.311 21.172h1.928v2.129h-1.928V21.172zM16.311 20.208v-2.13h1.928v2.13H16.311zM19.203 18.078h1.928v2.13h-1.928V18.078zM19.203 17.114v-2.13h1.928v2.13H19.203zM19.203 14.02v-2.129h1.928v2.129H19.203zM19.203 10.888V8.799h1.928v2.089H19.203zM19.203 7.794v-2.17h1.928v2.17H19.203zM18.238 7.794H16.31v-2.17h1.928v2.17zM15.307 7.794h-1.928v-2.17h1.928v2.17zm-2.933.0h-1.928v-2.17h1.928v2.17zm0 1.005v2.089h-1.928V8.799H12.374zM9.44 10.888H7.633V8.799h1.808L9.44 10.888v0zM9.44 11.892v2.129H7.633v-2.129H9.44zM9.44 14.984v2.13H7.633v-2.13H9.44zM9.44 18.078v2.13H7.633v-2.13H9.44zM9.44 21.172v2.129H7.633v-2.129H9.44zM10.445 21.172h1.928v2.129h-1.928V21.172zM12.374 24.305v1.647h-1.928v-1.647H12.374zM13.378 24.305h1.928v1.647h-1.928V24.305zm2.933.0h1.928v1.647h-1.928V24.305zM19.203 24.305h1.928v1.647h-1.928V24.305zM19.203 23.301v-2.129h1.928v2.129H19.203zM22.135 21.172h1.809v2.129h-1.809V21.172zM22.135 20.208v-2.13h1.809v2.13H22.135zM22.135 17.114v-2.13h1.809v2.13H22.135zM22.135 14.02v-2.129h1.809v2.129H22.135zM22.135 10.888V8.799h1.809v2.089H22.135zM9.44 5.624v2.17H7.633v-2.17H9.44zM7.633 24.305h1.808v1.647H7.633V24.305zM22.135 25.952v-1.647h1.809v1.647H22.135z"/></g></g><g/><g/><g/><g/><g/><g/><g/><g/><g/><g/><g/><g/><g/><g/><g/></svg>