<svg id="Capa_1" xmlns="http://www.w3.org/2000/svg" xmlns:xlink="http://www.w3.org/1999/xlink" viewBox="0 0 439.45 439.45" style="enable-background:new 0 0 439.45 439.45"><g><path d="M406.675 153.338c10.333-8.703 16.914-21.724 16.914-36.259.0-26.14-21.266-47.406-47.406-47.406-26.139.0-47.405 21.266-47.405 47.406.0 14.535 6.581 27.557 16.914 36.259-19.521 10.785-32.775 31.576-32.775 55.412v49.313c0 10.626 6.57 19.747 15.861 23.514v67.783c0 11.257 9.159 20.416 20.417 20.416h53.978c11.258.0 20.417-9.159 20.417-20.416v-67.783c9.291-3.767 15.861-12.888 15.861-23.514V208.75C439.45 184.915 426.196 164.123 406.675 153.338zM347.778 117.079c0-15.663 12.743-28.406 28.405-28.406 15.663.0 28.406 12.743 28.406 28.406.0 15.663-12.743 28.405-28.406 28.405C360.521 145.484 347.778 132.741 347.778 117.079zM420.45 258.063c0 3.527-2.885 6.392-6.419 6.36-5.268-.047-9.442 4.499-9.442 9.768v75.169c0 .782-.634 1.417-1.417 1.417h-15.716c-.979.0-1.773-.794-1.773-1.773V284.9c0-5.06-3.818-9.478-8.867-9.805-5.533-.358-10.133 4.024-10.133 9.479v64.43c0 .979-.794 1.773-1.773 1.773h-15.716c-.782.0-1.417-.634-1.417-1.417v-75.169c0-5.269-4.173-9.815-9.442-9.768-3.534.032-6.419-2.833-6.419-6.36v-48.528c0-24.769 20.27-45.469 45.035-45.045 24.055.412 43.497 20.108 43.497 44.26V258.063z"/><path d="M229.959 123.188c-1.697-2.939-4.833-4.75-8.227-4.75s-6.53 1.811-8.227 4.75l-57.781 100.08c-1.697 2.939-1.697 6.561.0 9.5 1.697 2.939 4.833 4.75 8.227 4.75h26.702v122.758c0 5.247 4.253 9.5 9.5 9.5h43.159c5.247.0 9.5-4.253 9.5-9.5V237.518h26.702c3.394.0 6.53-1.811 8.227-4.75 1.697-2.939 1.697-6.561.0-9.5L229.959 123.188zM243.312 218.518c-5.247.0-9.5 4.253-9.5 9.5v122.758h-24.159V228.018c0-5.247-4.253-9.5-9.5-9.5h-19.747l41.327-71.58 41.327 71.58H243.312z"/><path d="M75.508 181.685c-1.697-2.939-4.833-4.75-8.227-4.75s-6.53 1.811-8.227 4.75L1.273 281.765c-1.697 2.939-1.697 6.561.0 9.5 1.697 2.939 4.833 4.75 8.227 4.75h26.702v64.261c0 5.247 4.253 9.5 9.5 9.5h43.159c5.247.0 9.5-4.253 9.5-9.5v-64.261h26.702c3.394.0 6.53-1.811 8.227-4.75 1.697-2.939 1.697-6.561.0-9.5L75.508 181.685zM88.861 277.015c-5.247.0-9.5 4.253-9.5 9.5v64.261H55.202v-64.261c0-5.247-4.253-9.5-9.5-9.5H25.955l41.327-71.58 41.327 71.58H88.861z"/></g><g/><g/><g/><g/><g/><g/><g/><g/><g/><g/><g/><g/><g/><g/><g/></svg>