<svg id="Capa_1" xmlns="http://www.w3.org/2000/svg" xmlns:xlink="http://www.w3.org/1999/xlink" width="477.393" height="477.393" viewBox="0 0 477.393 477.393" style="enable-background:new 0 0 477.393 477.393"><g><path d="M273.249 287.626l-14.423-14.423c-7.969-7.97-7.969-20.883.0-28.853l67.313-67.313c7.97-7.97 20.883-7.97 28.853.0l14.423 14.423c7.97 7.97 7.97 20.883.0 28.853l-67.313 67.313C294.132 295.589 281.219 295.589 273.249 287.626zM244.403 239.543l76.929-76.936L249.211 90.48l-76.935 76.935 19.23 19.23L47.258 330.901c-5.311-5.312-13.92-5.312-19.23.0L3.983 354.946c-5.311 5.311-5.311 13.919.0 19.229l33.66 33.66c5.311 5.312 13.919 5.312 19.23.0l24.044-24.045c5.311-5.311 5.311-13.919.0-19.23l144.249-144.255L244.403 239.543zM234.782 56.827l-14.423-14.423c-7.969-7.97-20.883-7.97-28.852.0l-67.313 67.312c-7.97 7.97-7.97 20.883.0 28.853l14.423 14.423c7.97 7.97 20.883 7.97 28.853.0l67.313-67.312C242.751 77.71 242.751 64.79 234.782 56.827zM436.592 386.702v-.272c0-7.439-6.024-13.464-13.464-13.464H252.856c-7.439.0-13.464 6.024-13.464 13.464v.272c0 7.438-6.025 13.464-13.464 13.464h-13.872c-7.439.0-13.464 6.024-13.464 13.464v13.872c0 7.439 6.025 13.464 13.464 13.464h251.872c7.439.0 13.465-6.024 13.465-13.464V413.63c0-7.439-6.025-13.464-13.465-13.464h-13.871C442.617 400.166 436.592 394.141 436.592 386.702z"/></g><g/><g/><g/><g/><g/><g/><g/><g/><g/><g/><g/><g/><g/><g/><g/></svg>