<svg id="Capa_1" xmlns="http://www.w3.org/2000/svg" xmlns:xlink="http://www.w3.org/1999/xlink" viewBox="0 0 470.424 470.424" style="enable-background:new 0 0 470.424 470.424"><g><path d="M447.023 84.672c-49.74 49.679-39.366 48.716-79.121 8.945-5.933-5.932-5.887-15.374-.016-21.26l33.418-33.412c11.678-11.678-23.573-35.275-50.532-16.213-47.163 33.295-45.735 36.719-49.414 105.693l-19.598 19.606c2.624 4.884 4.938 9.985 6.569 15.498 5.963 20.236 12.517 34.258 1.862 52.366 4.597 3.09 14.24 13.231 18.543 17.532l48.824-48.816c69.26-3.712 72.492-2.492 105.678-49.399C482.322 108.183 458.655 73.017 447.023 84.672z"/><path d="M168.721 303.932c2.64-16.126 15.312-28.729 31.307-31.338 2.656-16.034 15.296-28.707 31.354-31.346.606-3.696 1.832-7.221 3.478-10.551-7.997-4.567-13.789-11.065-17.392-19.42L115.393 313.35l.512.512-73.175 73.175c-15.528 15.522-15.528 40.663.016 56.193 15.514 15.53 40.655 15.522 56.186.008l61.931-61.932-12.873-12.881C125.984 346.405 138.484 308.847 168.721 303.932zM73.882 432.757c-28.233.0-28.279-42.737.0-42.737 11.803.0 21.369 9.567 21.369 21.369C95.251 423.19 85.684 432.757 73.882 432.757z"/><path d="M278.932 228.016c-8.619 6.265-16.958 8.991-28.295 7.757-5.465 8.565-4.845 19.878 2.641 27.371-20.671-20.678-52.072 10.669-31.354 31.338-20.763-20.724-52.04 10.629-31.354 31.354-20.468-20.546-52.35 10.311-31.338 31.346L212 409.951c20.671 20.632 52.056-10.637 31.34-31.354 20.622 20.616 52.302-10.411 31.353-31.346 4.333 4.333 10.017 6.493 15.686 6.493 19.566.0 29.661-23.815 15.668-37.837 20.468 20.538 52.35-10.297 31.338-31.346C332.338 279.512 285.253 231.246 278.932 228.016z"/><path d="M50.976 223.645c-6.973 6.973-6.973 18.31.0 25.281l49.834 49.826C228.4 171.171 208.32 191.235 222.328 177.242c1.164 1.438 2.158 3.029 2.718 4.907 5.202 17.65 7.919 38.079 29.909 38.079 6.601.0 12.982-2.594 17.704-7.323 12.921-12.897 5.622-27.215.42-44.887-8.589-29.165-35.78-47.909-65.736-45.952l-58.561 3.782C147.709 126.912 52.048 222.565 50.976 223.645z"/><path d="M107.55 136.819c15.172-15.172-3.246-28.535-18.232-43.521-6.973-6.973-18.31-6.973-25.281.0L5.242 152.101c-6.989 6.979-6.989 18.302.0 25.281C42.637 214.8 31.051 213.318 107.55 136.819z"/></g><g/><g/><g/><g/><g/><g/><g/><g/><g/><g/><g/><g/><g/><g/><g/></svg>