<svg id="Capa_1" xmlns="http://www.w3.org/2000/svg" xmlns:xlink="http://www.w3.org/1999/xlink" width="32.067" height="32.067" viewBox="0 0 32.067 32.067" style="enable-background:new 0 0 32.067 32.067"><g><g><path d="M20.259 23.557v-3.063c-.104-.063-.236-.125-.356-.19l-1.886-.793v3.745H2.319V2.451h9.699v4.328c0 .393.168.77.445 1.047.28.277.664.433 1.057.43l2.229-.015c.836-.913 1.914-1.545 3.127-1.827.256-.06.51-.103.762-.129.028-.014.058-.026.088-.039-.153-.256-.338-.497-.551-.713L14.806 1.11C14.107.406 13.156.0 12.163.0H2.035C.927.0.077.916.077 2.026v21.53c0 1.104.85 1.994 1.958 1.994h16.208C19.353 25.551 20.259 24.662 20.259 23.557zM14.365 4l1.976 1.996h-.004L14.365 5.98V4z"/><path d="M12.122 11.732h2.051c.088-.782.326-1.564.707-2.295h-.178-2.58-.336c-.634.0-1.146.515-1.146 1.147.0.634.513 1.147 1.146 1.147h.336V11.732z"/><path d="M3.94 14.912c0 .633.512 1.252 1.145 1.252h10.071c-.351-.677-.646-1.459-.86-2.382-.01-.04-.019-.067-.027-.12H5.085C4.452 13.662 3.94 14.28 3.94 14.912z"/><path d="M5.085 20.389H15.22c.633.0 1.146-.516 1.146-1.147s-.514-1.146-1.146-1.146H5.085c-.633.0-1.145.514-1.145 1.146S4.452 20.389 5.085 20.389z"/><path d="M30.989 18.486l1.001.322v-1.681c0 0-3.104-.89-3.185-.858-1.008-2.791-3.306-3.791-4.115-4.479-.205-.189-.387-.409-.543-.655-.745-1.183-2.133-3.384-4.813-2.76-.86.202-1.614.659-2.188 1.326-.854.994-1.187 2.349-.887 3.625.479 2.054 1.397 3.235 2.793 4.44l3.271 1.369c.005-.074.019-.146.011-.222-.07-.807-.594-1.603-1.6-2.426-1.359-1.112-2.074-1.938-2.471-3.631-.248-1.076.461-2.223 1.541-2.475.83-.194 1.162.268 2.604 1.855.411.452.824.834 1.236 1.162.482.518 2.527 1.348 3.216 3.975-.05 1.812.141 3.596-.349 5.838-.424 1.955-1.679 3.641-2.47 4.635-.573.717-1.634 1.361-2.294 1.148l-6.195-1.988h-4.678c.512.574 1.146 1.012 1.918 1.262l11.842 3.798h7.354V21.146l-1.687-.545c-.582-.188-.898-.815-.711-1.397C29.782 18.621 30.406 18.299 30.989 18.486z"/><path d="M9.359 5.295c0-.506-.41-.916-.915-.916H4.85c-.505.0-.914.41-.914.916v4.792c0 .506.409.916.914.916h3.594c.505.0.915-.41.915-.916V5.295z"/></g></g><g/><g/><g/><g/><g/><g/><g/><g/><g/><g/><g/><g/><g/><g/><g/></svg>