<svg id="Capa_1" xmlns="http://www.w3.org/2000/svg" xmlns:xlink="http://www.w3.org/1999/xlink" width="122.793" height="122.793" viewBox="0 0 122.793 122.793" style="enable-background:new 0 0 122.793 122.793"><g><g><path d="M66.193 96.796c0-4.174-3.041-7.631-7.023-8.319l-.002-.021-1.559-3.984 1.696-2.252L71.827 46.34c-.994-.367-1.997-.707-3.013-.959l-5.967 6.008-5.789-6.072c-.015.006-.033.005-.057.012-6.982 2.047-15.615 8.113-15.615 8.113-3.124 2.23-6.135 4.684-8.896 7.529-7.979 7.833-13.623 16.843-17.338 28.841-1.009 3.252-1.154 7.851.957 10.521 2.624 3.314 4.098 5.045 21.094 5.045.0-.039 20.521-.117 20.521-.117C62.397 105.262 66.193 101.464 66.193 96.796zM47.454 102.746c-2.567.012-5.133.025-7.058.037-.968.008-1.771.014-2.335.02-.204.002-.51.006-.856.045v-.027c-15.86.0-17.006-1.446-19.085-4.073-1.439-1.824-1.353-5.492-.521-8.177 3.456-11.161 8.758-19.987 16.729-27.815 2.396-2.471 5.192-4.832 8.515-7.205l.557-.385 13.328 34.08c.281.897 1.045 1.588 2.006 1.754 2.839.491 4.9 2.933 4.9 5.799.0 3.259-2.65 5.904-5.918 5.904C57.716 102.701 52.585 102.721 47.454 102.746z"/><path d="M93.637 64.234c-4.229-5.432-10.439-12.273-19.456-16.859l-6.908 43.904c0 0 1.134 3.461 1.134 5.518.0 5.887-4.79 10.678-10.68 10.678H38.338c0 0 0 4.041.0 11.588.0 1.461.069 2.689.179 3.73H87.19c.104-1.041.172-2.27.172-3.73V89.175c2.19 7.275 3.917 17.556 3.917 31.91.0.584.062 1.155.173 1.707h16.729c.11-.552.17-1.123.17-1.707C108.351 88.294 99.993 71.936 93.637 64.234z"/><circle cx="62.9" cy="22.399" r="22.399"/></g></g><g/><g/><g/><g/><g/><g/><g/><g/><g/><g/><g/><g/><g/><g/><g/></svg>