<svg id="Capa_1" xmlns="http://www.w3.org/2000/svg" xmlns:xlink="http://www.w3.org/1999/xlink" width="125.041" height="125.041" viewBox="0 0 125.041 125.041" style="enable-background:new 0 0 125.041 125.041"><g><g><path d="M46.864 79.32c-.546-.424-4.877-3.699-16.893-4.496-.661-.055-1.327-.523-1.914-.917-.747-.497-1.523-1.019-2.089-1.692-.92-1.098-1.959-2.021-2.832-3.24-5.842-8.145-11.567-9.78-12.423-10.103-1.14-.55-5.507.127-3.409 3.039.133.022 6.68 9.219 7.105 9.954.752 1.298 1.603 1.828 2.402 2.74.73.832 1.538 1.597 2.284 2.414.0.0-4.187-2.479-5.19-3.564-.447-.486-.662-1.184-1.018-1.762-.412-.666-.85-1.315-1.297-1.957-.56-.801-1.123-1.6-1.717-2.375-.758-.987-1.545-1.953-2.326-2.924-.486-.604-1.035-1.187-1.436-1.817-1.98-3.128.281-4.999 2.433-5.235-.104-.36-1.094-9.819-1.267-11.407-.494-4.56-.982-7.938-3.596-8.857-.674-.238-1.15-.158-1.652.372-.594.624-.948 3.936-1.119 6.03.0.0-1.143 11.236-.868 16.479.147 2.812 8.882 22.156 11.392 25.145 2.508 2.988 22.139 14.305 22.139 14.305.656.546 4.291 3.345 4.291 7.015v7.968l21.164.024.018-7.312c.049-1.351.279-2.694.441-4.041.461-1.537.092-4.441-.123-5.569C56.906 86.566 47.854 80.085 46.864 79.32z"/><path d="M124.132 43.521c-.172-2.095-.525-5.406-1.119-6.03-.502-.53-.979-.61-1.653-.372-2.611.92-3.102 4.298-3.595 8.857-.174 1.588-1.163 11.047-1.268 11.407 2.151.236 4.414 2.107 2.433 5.235-.4.632-.948 1.214-1.435 1.818-.781.97-1.569 1.936-2.327 2.922-.595.775-1.157 1.574-1.716 2.375-.447.643-.887 1.291-1.298 1.957-.354.578-.569 1.274-1.019 1.763-1.004 1.087-5.19 3.565-5.19 3.565.746-.818 1.556-1.584 2.285-2.416.799-.91 1.649-1.441 2.401-2.74.427-.734 6.974-9.931 7.105-9.953 2.099-2.912-2.27-3.589-3.409-3.039-.855.322-6.58 1.958-12.423 10.102-.872 1.219-1.912 2.145-2.832 3.241-.565.675-1.343 1.195-2.09 1.692-.587.393-1.253.861-1.914.916-12.016.798-16.346 4.074-16.893 4.498-.989.766-10.041 7.244-12.5 18.214-.216 1.128-.584 4.032-.123 5.569.162 1.347.393 2.69.441 4.041l.018 7.312 21.164-.024v-7.968c0-3.67 3.635-6.469 4.291-7.015.0.0 19.63-11.314 22.139-14.305 2.51-2.988 11.243-22.332 11.392-25.145C125.274 54.757 124.132 43.521 124.132 43.521z"/><path d="M75.276 68.515c10.04-9.445 22.504-21.171 24.217-31.607 1.201-7.38.026-13.463-3.492-18.081-3.553-4.662-8.956-7.323-16.523-8.136-.729-.073-1.393-.107-2.053-.107-5.353.0-10.756 1.994-14.903 5.361-4.146-3.367-9.551-5.361-14.902-5.361-.66.0-1.323.034-2.053.107C38 11.503 32.594 14.165 29.043 18.827c-3.52 4.618-4.694 10.701-3.492 18.081 1.712 10.437 14.176 22.163 24.216 31.607.0.0 5.008 5.025 6.513 6.315 1.131.972 3.585 2.929 6.242 2.929 2.658.0 5.112-1.957 6.243-2.929C70.269 73.541 75.276 68.515 75.276 68.515zM49.773 23.035c-6.396.0-11.601 4.629-11.601 10.319.0 1.727-1.399 3.126-3.127 3.126-1.727.0-3.125-1.399-3.125-3.126.0-9.138 8.008-16.571 17.853-16.571 1.727.0 3.126 1.399 3.126 3.126S51.5 23.035 49.773 23.035z"/></g></g><g/><g/><g/><g/><g/><g/><g/><g/><g/><g/><g/><g/><g/><g/><g/></svg>