<svg id="Capa_1" xmlns="http://www.w3.org/2000/svg" xmlns:xlink="http://www.w3.org/1999/xlink" viewBox="0 0 399.583 399.583" style="enable-background:new 0 0 399.583 399.583"><g><path d="M167.53 144.994h64.524c5.247.0 9.5-4.253 9.5-9.5v-29.208c0-12.981-5.954-24.596-15.274-32.262 9.32-7.666 15.274-19.281 15.274-32.262C241.554 18.734 222.819.0 199.792.0c-23.027.0-41.762 18.734-41.762 41.762.0 12.981 5.954 24.596 15.274 32.262-9.32 7.666-15.274 19.281-15.274 32.262v29.208C158.03 140.74 162.283 144.994 167.53 144.994zm55.024-19H177.03v-19.708c0-12.551 10.211-22.762 22.762-22.762 12.551.0 22.762 10.211 22.762 22.762v19.708zM177.03 41.762C177.03 29.211 187.241 19 199.792 19c12.551.0 22.762 10.211 22.762 22.762s-10.211 22.762-22.762 22.762C187.241 64.524 177.03 54.313 177.03 41.762z"/><path d="M241.554 296.352c0-23.028-18.734-41.762-41.762-41.762-23.027.0-41.762 18.734-41.762 41.762.0 12.981 5.954 24.597 15.274 32.262-9.32 7.666-15.274 19.281-15.274 32.262v29.208c0 5.247 4.253 9.5 9.5 9.5h64.524c5.247.0 9.5-4.253 9.5-9.5v-29.208c0-12.981-5.954-24.596-15.274-32.262C235.599 320.948 241.554 309.333 241.554 296.352zM222.554 380.583H177.03v-19.708c0-12.551 10.211-22.762 22.762-22.762 12.551.0 22.762 10.211 22.762 22.762V380.583zM177.03 296.352c0-12.551 10.211-22.762 22.762-22.762 12.551.0 22.762 10.211 22.762 22.762s-10.211 22.762-22.762 22.762C187.241 319.114 177.03 308.903 177.03 296.352z"/><path d="M84.062 296.352c0-23.028-18.734-41.762-41.762-41.762-23.028.0-41.762 18.734-41.762 41.762.0 12.981 5.954 24.597 15.274 32.262-9.32 7.666-15.274 19.281-15.274 32.262v29.208c0 5.247 4.253 9.5 9.5 9.5h64.524c5.247.0 9.5-4.253 9.5-9.5v-29.208c0-12.981-5.954-24.596-15.274-32.262C78.107 320.948 84.062 309.333 84.062 296.352zm-19 64.524v19.708H19.538v-19.708c0-12.551 10.211-22.762 22.762-22.762C54.851 338.114 65.062 348.325 65.062 360.876zM19.538 296.352c0-12.551 10.211-22.762 22.762-22.762 12.551.0 22.762 10.211 22.762 22.762S54.851 319.114 42.3 319.114C29.749 319.114 19.538 308.903 19.538 296.352z"/><path d="M383.772 328.614c9.32-7.666 15.274-19.281 15.274-32.262.0-23.028-18.734-41.762-41.762-41.762-23.027.0-41.762 18.734-41.762 41.762.0 12.981 5.954 24.597 15.274 32.262-9.32 7.666-15.274 19.281-15.274 32.262v29.208c0 5.247 4.253 9.5 9.5 9.5h64.524c5.247.0 9.5-4.253 9.5-9.5v-29.208C399.046 347.895 393.091 336.28 383.772 328.614zm-49.25-32.262c0-12.551 10.211-22.762 22.762-22.762 12.551.0 22.762 10.211 22.762 22.762s-10.211 22.762-22.762 22.762C344.733 319.114 334.522 308.903 334.522 296.352zM380.046 380.583h-45.524v-19.708c0-12.551 10.211-22.762 22.762-22.762 12.551.0 22.762 10.211 22.762 22.762V380.583z"/><path d="M42.3 246.989c5.247.0 9.5-4.253 9.5-9.5V210.99h138.492v26.498c0 5.247 4.253 9.5 9.5 9.5s9.5-4.253 9.5-9.5V210.99h138.492v26.498c0 5.247 4.253 9.5 9.5 9.5s9.5-4.253 9.5-9.5V201.49c0-5.247-4.253-9.5-9.5-9.5H209.292v-24.999c0-5.247-4.253-9.5-9.5-9.5s-9.5 4.253-9.5 9.5v24.999H42.3c-5.247.0-9.5 4.253-9.5 9.5v35.998C32.8 242.736 37.053 246.989 42.3 246.989z"/></g><g/><g/><g/><g/><g/><g/><g/><g/><g/><g/><g/><g/><g/><g/><g/></svg>