<svg id="Capa_1" xmlns="http://www.w3.org/2000/svg" xmlns:xlink="http://www.w3.org/1999/xlink" width="125.041" height="125.041" viewBox="0 0 125.041 125.041" style="enable-background:new 0 0 125.041 125.041"><g><g><path d="M46.864 84.521c-.546-.424-4.877-3.7-16.893-4.497-.661-.055-1.327-.524-1.914-.917-.747-.497-1.523-1.02-2.089-1.691-.92-1.099-1.959-2.022-2.832-3.242-5.842-8.144-11.567-9.778-12.423-10.102-1.14-.55-5.507.127-3.409 3.039.133.022 6.68 9.219 7.105 9.954.752 1.298 1.603 1.829 2.402 2.74.73.832 1.538 1.597 2.284 2.415.0.0-4.187-2.479-5.19-3.565-.447-.487-.662-1.184-1.018-1.762-.412-.666-.85-1.315-1.297-1.957-.56-.801-1.123-1.601-1.717-2.375-.758-.987-1.545-1.953-2.326-2.923-.486-.604-1.035-1.188-1.436-1.818-1.98-3.128.281-4.999 2.433-5.235-.104-.36-1.094-9.819-1.267-11.407-.494-4.56-.982-7.938-3.596-8.857-.674-.238-1.15-.158-1.652.372-.594.624-.948 3.936-1.119 6.03.0.0-1.143 11.236-.868 16.479.147 2.812 8.882 22.155 11.392 25.145 2.508 2.988 22.139 14.304 22.139 14.304.656.546 4.291 3.345 4.291 7.015v7.968l21.164.024.018-7.311c.049-1.352.279-2.695.441-4.041.461-1.537.092-4.442-.123-5.57C56.906 91.766 47.854 85.286 46.864 84.521z"/><path d="M124.132 48.722c-.172-2.095-.525-5.406-1.119-6.03-.502-.53-.979-.61-1.653-.372-2.611.92-3.102 4.298-3.595 8.857-.174 1.588-1.163 11.047-1.268 11.407 2.151.236 4.414 2.107 2.433 5.235-.4.632-.948 1.214-1.435 1.818-.781.97-1.569 1.936-2.327 2.923-.595.775-1.157 1.574-1.716 2.375-.447.643-.887 1.291-1.298 1.957-.354.578-.569 1.273-1.019 1.762-1.004 1.088-5.19 3.565-5.19 3.565.746-.818 1.556-1.583 2.285-2.415.799-.911 1.649-1.442 2.401-2.74.427-.734 6.974-9.932 7.105-9.954 2.099-2.912-2.27-3.589-3.409-3.039-.855.322-6.58 1.958-12.423 10.103-.872 1.219-1.912 2.144-2.832 3.24-.565.674-1.343 1.195-2.09 1.692-.587.394-1.253.862-1.914.917-12.016.797-16.346 4.073-16.893 4.497-.989.767-10.041 7.245-12.5 18.214-.216 1.128-.584 4.033-.123 5.57.162 1.346.393 2.689.441 4.041l.018 7.311 21.164-.025v-7.967c0-3.67 3.635-6.469 4.291-7.015.0.0 19.63-11.315 22.139-14.304 2.51-2.989 11.243-22.333 11.392-25.145C125.274 59.958 124.132 48.722 124.132 48.722z"/><path d="M90.201 45.001l3.5 3.453c1.003.985 2.32 1.483 3.642 1.487 1.315.001 2.638-.492 3.642-1.478 2.02-1.977 2.024-5.18.017-7.16L66.102 6.875c-.755-.744-1.726-1.223-2.763-1.403V5.457c-.25-.037-.501-.073-.758-.073-.02.0-.041.006-.059.006-.023.0-.04-.006-.063-.006-.259.0-.508.037-.759.073v.016c-1.036.18-2.007.66-2.763 1.403L24.043 41.305c-2.009 1.98-2.001 5.183.012 7.16 1.004.986 2.327 1.479 3.646 1.478 1.316-.004 2.637-.502 3.639-1.487l3.501-3.453.019 29.614 27.663-.047 27.689.047L90.201 45.001zM71.05 68.503l-.033-17.32-7.742-.013v-.001h-.816-.82v.001l-7.672.013.025 17.32-12.278-.016-.018-30.253 20.827-20.545 20.823 20.545.013 30.253L71.05 68.503z"/></g></g><g/><g/><g/><g/><g/><g/><g/><g/><g/><g/><g/><g/><g/><g/><g/></svg>