<svg id="Capa_1" xmlns="http://www.w3.org/2000/svg" xmlns:xlink="http://www.w3.org/1999/xlink" width="125.054" height="125.054" viewBox="0 0 125.054 125.054" style="enable-background:new 0 0 125.054 125.054"><g><g><path d="M.744 105.833h124.019v9.445H.744z"/><path d="M13.302 65.833l6.589-4.713-6.936 41.768h26.627l-14.852-2.467 8.059-48.527 11.068-7.914-3.333-2.917-1.502-1.313.628-1.365 3.135-6.815-2.075-6.019L3.518 52.15c-3.776 2.701-4.649 7.955-1.948 11.733C4.271 67.658 9.525 68.532 13.302 65.833z"/><path d="M50.642 32.465l-.293.708-2.278 5.501 3.876 3.135L77.67 29.414l20.995 43.569-10.401 29.749h11.878l5.407-15.466 3.518 7.3c1.009 2.089 2.769 3.575 4.801 4.286 2.03.71 4.334.646 6.426-.361 4.184-2.017 5.94-7.043 3.926-11.227l-35.046-72.73c-.967-2.008-2.694-3.552-4.8-4.289-2.104-.735-4.417-.604-6.427.363l-30.15 14.528 2.684 6.911L50.642 32.465z"/><path d="M57.193 102.833 58.011 99.408 62.075 99.367 67.389 99.314 67.542 95.088 68.198 76.813 72.77 82.614 76.952 87.921 76.533 81.443 74.469 49.581 72.842 74.7 67.962 66.525 63.747 59.462 62.327 67.971 58.908 88.476 53.918 86.971 49.502 85.64 47.047 91.203 41.916 102.833z"/></g></g><g/><g/><g/><g/><g/><g/><g/><g/><g/><g/><g/><g/><g/><g/><g/></svg>