<svg id="Capa_1" xmlns="http://www.w3.org/2000/svg" xmlns:xlink="http://www.w3.org/1999/xlink" width="476" height="476" viewBox="0 0 476 476" style="enable-background:new 0 0 476 476"><g><path d="M384.2 40.8H397.8c7.514.0 13.6-6.086 13.6-13.6V13.6c0-7.514-6.086-13.6-13.6-13.6H78.2c-7.514.0-13.6 6.086-13.6 13.6v13.6c0 7.514 6.086 13.6 13.6 13.6h13.6c0 121.04 96.485 125.759 102 197.2-5.515 71.44-102 76.16-102 197.2H78.2c-7.514.0-13.6 6.086-13.6 13.6V462.4c0 7.514 6.086 13.6 13.6 13.6h319.6c7.514.0 13.6-6.086 13.6-13.6V448.8c0-7.514-6.086-13.6-13.6-13.6H384.2c0-121.04-96.484-125.76-102-197.2C287.715 166.559 384.2 161.84 384.2 40.8zM342.972 423.912c3.135 4.488-.123 10.655-5.604 10.655H238 137.57c-5.263.0-8.588-5.767-5.875-10.274 26.595-44.159 58.983-77.303 101.742-109.718 2.618-1.986 6.378-1.782 8.813.428C285.668 354.491 316.506 386.009 342.972 423.912zM237.463 204.802l-72.516-72.27c0 0 36.448 14.824 66.096 14.824 29.648.0 54.979-21.005 77.221-21.005C330.507 126.351 237.463 204.802 237.463 204.802z"/></g><g/><g/><g/><g/><g/><g/><g/><g/><g/><g/><g/><g/><g/><g/><g/></svg>