<svg id="Capa_1" xmlns="http://www.w3.org/2000/svg" xmlns:xlink="http://www.w3.org/1999/xlink" width="125.29" height="125.291" viewBox="0 0 125.29 125.291" style="enable-background:new 0 0 125.29 125.291"><g><g><path d="M65.835 2.46 62.404.05 58.901 2.458 31.431 21.261V11.691H16.031V31.804L0 42.78 6.914 52.875 62.328 14.948l56.056 38.268L125.29 43.118z"/><path d="M60.715 29.557c-26.42.0-47.841 21.419-47.841 47.842.0 26.422 21.421 47.841 47.841 47.841 26.422.0 47.842-21.419 47.842-47.841C108.557 50.976 87.137 29.557 60.715 29.557zM66.602 109.626v10.646H54.452v-9.81c-5.854-.471-11.712-2.217-15.318-4.623l-1.204-.803 3.804-13.235 2.196 1.297c4.448 2.622 9.77 4.129 14.598 4.129 5.238.0 8.626-2.328 8.626-5.929.0-2.465-1.165-5.166-9.604-8.244-9.193-3.328-18.6-8.278-18.6-19.758.0-9.242 6.126-16.25 16.101-18.606V34.525h12.148v9.399c4.716.354 8.795 1.449 12.707 3.408l1.479.74-3.81 12.971-2.64-1.211c-2.369-1.107-6.34-2.958-12.212-2.958-4.708.0-7.521 1.875-7.521 5.024.0 2.741 2.637 4.68 10.858 7.966C78.269 74.443 83.5 80.53 83.5 90.196 83.501 99.844 76.924 107.323 66.602 109.626z"/></g></g><g/><g/><g/><g/><g/><g/><g/><g/><g/><g/><g/><g/><g/><g/><g/></svg>