<svg id="Capa_1" xmlns="http://www.w3.org/2000/svg" xmlns:xlink="http://www.w3.org/1999/xlink" width="122.386" height="122.386" viewBox="0 0 122.386 122.386" style="enable-background:new 0 0 122.386 122.386"><g><g><path d="M86.51 72.041v39.673H69.357V71.469H39.686v40.244H21.867V55.126l29.649-20.388c.128-5.292 1.379-10.31 3.54-14.817l-.438-.308-3.064 2.106-24.043 16.46V29.8H14.03v17.606L0 57.011l6.051 8.836 5.106-3.496v49.362 9.956h86.042l.02-50.793c-2.963.781-6.07 1.199-9.273 1.199C87.463 72.078 86.986 72.06 86.51 72.041z"/><path d="M89.271.716c-18.287.0-33.113 14.826-33.113 33.114.0 18.289 14.826 33.114 33.113 33.114 18.289.0 33.114-14.826 33.114-33.115C122.386 15.542 107.561.716 89.271.716zM93.346 56.138v7.368h-8.408v-6.79c-4.054-.326-8.107-1.534-10.604-3.2L73.5 52.961l2.633-9.162 1.521.898c3.078 1.814 6.762 2.857 10.104 2.857 3.626.0 5.971-1.611 5.971-4.103.0-1.705-.807-3.576-6.646-5.707-6.362-2.303-12.874-5.73-12.874-13.675.0-6.397 4.239-11.249 11.146-12.879V4.155h8.407v6.506c3.265.245 6.088 1.003 8.796 2.359l1.023.512-2.637 8.979-1.828-.838c-1.639-.766-4.389-2.047-8.452-2.047-3.259.0-5.205 1.298-5.205 3.478.0 1.897 1.825 3.238 7.516 5.514 8.451 3.17 12.073 7.383 12.073 14.073C105.046 49.367 100.492 54.543 93.346 56.138z"/></g></g><g/><g/><g/><g/><g/><g/><g/><g/><g/><g/><g/><g/><g/><g/><g/></svg>