<svg id="Capa_1" xmlns="http://www.w3.org/2000/svg" xmlns:xlink="http://www.w3.org/1999/xlink" width="122.578" height="122.578" viewBox="0 0 122.578 122.578" style="enable-background:new 0 0 122.578 122.578"><g><g><path d="M30.131 33.465v38.649h8.385V27.806L64.11 10.21l25.024 17.57v54.497c2.137-1.768 4.254-3.559 6.299-5.436.705-.647 1.398-1.303 2.087-1.959V33.012l5.007 3.425 4.733-6.921L66.516 1.652 64.162.0l-2.399 1.65L42.937 14.536V7.977H32.384v13.785l-10.987 7.522 4.737 6.918L30.131 33.465z"/><path d="M65.832 71.18v-5.023c4.871-1.088 7.976-4.616 7.976-9.167.0-4.562-2.47-7.433-8.229-9.594-3.879-1.551-5.124-2.465-5.124-3.758.0-1.486 1.327-2.37 3.549-2.37 2.77.0 4.644.872 5.762 1.394l1.245.572 1.797-6.121-.696-.348c-1.848-.923-3.771-1.441-5.994-1.607v-4.435h-5.731v4.796c-4.707 1.111-7.598 4.419-7.598 8.779.0 5.416 4.438 7.751 8.775 9.321 3.98 1.454 4.53 2.729 4.53 3.891.0 1.698-1.599 2.796-4.07 2.796-2.277.0-4.787-.71-6.886-1.947l-1.036-.612-1.796 6.246.567.378c1.703 1.136 4.467 1.96 7.229 2.181v4.629H65.832V71.18z"/><path d="M121.967 90.518c-.225-2.721-2.227-4.836-5.163-7.176-2.056-1.637-6.037-3.547-10.499-3.547-3.775.0-9.246 1.368-13.893 7.877-4.18 5.336-9.42 7.498-13.674 8.315.381-.954.629-2.099.637-3.716.037-9.053-7.176-15.856-17.151-15.901L26.615 76.4c-3.342.0-6.631.986-9.404 2.771v-4.633H.592v48.039H17.21v-5.104c.628.31 1.493.938 1.493.938 2.861 1.578 7.295 3.516 11.818 3.516h32.713c28.18.0 47.635-15.787 54.69-23.607C120.035 95.981 122.218 93.562 121.967 90.518zM11.644 85.149H5.835v-5.81h5.809V85.149v0zM113.613 94.428c-6.537 7.246-24.529 21.69-50.379 21.69H30.521c-5.531.0-11.487-4.326-11.541-4.368-.51-.376-1.117-.568-1.729-.568-.013.0-.027.004-.042.004V85.588c.636.01 1.27-.171 1.795-.57l.635-.479c1.976-1.501 4.452-2.329 6.961-2.329l35.595-.031c5.679.024 11.399 3.287 11.369 10.068.0 3.916-2.611 4.118-2.751 4.152H44.722c-1.604.0-2.904 1.301-2.904 2.904s1.3 2.903 2.904 2.903h27.692l1.543-.004c4.348-.001 15.295-1.028 23.074-11.008.025-.034.053-.069.076-.104 2.585-3.642 5.68-5.488 9.196-5.488 3.175.0 5.889 1.494 6.88 2.283 2.91 2.318 2.991 3.078 2.993 3.108C116.186 91.576 114.316 93.648 113.613 94.428z"/></g></g><g/><g/><g/><g/><g/><g/><g/><g/><g/><g/><g/><g/><g/><g/><g/></svg>