<svg id="Capa_1" xmlns="http://www.w3.org/2000/svg" xmlns:xlink="http://www.w3.org/1999/xlink" width="124.882" height="124.882" viewBox="0 0 124.882 124.882" style="enable-background:new 0 0 124.882 124.882"><g><g><path d="M3.493 77.432 3.639 83.549 122.746 69.619 122.6 63.501z"/><path d="M48.875 96.092 76.294 96.093 62.586 77.708z"/><path d="M3.495 71.922h27.561V53.333l1.601 1.096 1.897-2.771-17.331-12.23v-.036l-.025.018-.025-.018v.036l-8.549 6.329v-2.626H4.396v5.517L0 51.658l1.896 2.771 1.599-1.096V71.922zM6.853 51.068l10.344-7.409v-.052l.002.052L27.7 51.068v17.735h-5.584V56.19h-9.835v12.613H6.853V51.068z"/><path d="M107.973 62.611c9.338.0 16.909-7.571 16.909-16.912.0-9.34-7.571-16.911-16.909-16.911-9.341.0-16.91 7.571-16.91 16.911C91.062 55.04 98.632 62.611 107.973 62.611zM106.855 47.699c-3.252-1.176-6.576-2.926-6.576-6.983.0-3.267 2.166-5.744 5.689-6.578v-3.593h4.295v3.322c1.668.125 3.109.513 4.493 1.204l.521.262-1.348 4.584-.934-.428c-.836-.391-2.241-1.045-4.314-1.045-1.666.0-2.658.663-2.658 1.776.0.969.931 1.654 3.838 2.816 4.314 1.619 6.166 3.771 6.166 7.188.0 3.41-2.326 6.054-5.976 6.869v3.763h-4.294v-3.468c-2.07-.166-4.141-.783-5.416-1.634l-.426-.283 1.345-4.679.776.459c1.572.926 3.453 1.458 5.16 1.458 1.854.0 3.049-.822 3.049-2.095C110.248 49.743 109.837 48.787 106.855 47.699z"/></g></g><g/><g/><g/><g/><g/><g/><g/><g/><g/><g/><g/><g/><g/><g/><g/></svg>