<svg id="Capa_1" xmlns="http://www.w3.org/2000/svg" xmlns:xlink="http://www.w3.org/1999/xlink" width="123.726" height="123.726" viewBox="0 0 123.726 123.726" style="enable-background:new 0 0 123.726 123.726"><g><g><path d="M121.4 63.882 109.06 51.683 94.057 76.063l-.001 29.885-18.997.021.048-26.805-11.979-.02h-1.264-1.27l-11.872.02-.059 26.806-19-.022-.027-46.815 32.227-31.788 8.751 8.634 3.651-18.685-6.863-6.784c-1.168-1.153-2.67-1.794-4.275-2.072V8.41c-.387-.054-.774-.108-1.173-.108-.029.0-.063.009-.091.009-.036.0-.061-.009-.096-.009-.399.0-.786.055-1.174.108v.027c-1.604.278-3.106 1.019-4.276 2.172L2.324 63.882c-3.108 3.066-3.097 8.023.018 11.082 1.554 1.525 3.601 2.285 5.641 2.285 2.038-.004 4.081-.777 5.63-2.305l5.418-5.344.027 45.823 42.805-.071 42.797.071.03-45.823 5.416 5.344c1.552 1.526 3.592 2.301 5.635 2.305 2.036.0 4.083-.76 5.637-2.285C124.5 71.905 124.509 66.948 121.4 63.882z"/><path d="M71.484 50.34 82.669 48.105 96.879 45.265 86.214 79.862 110.73 40.022 115.847 31.707 104.776 31.727 93.62 31.749 99.799 15.113H78.366L73.95 37.716z"/></g></g><g/><g/><g/><g/><g/><g/><g/><g/><g/><g/><g/><g/><g/><g/><g/></svg>