<svg id="Capa_1" xmlns="http://www.w3.org/2000/svg" xmlns:xlink="http://www.w3.org/1999/xlink" width="469.199" height="469.2" viewBox="0 0 469.199 469.2" style="enable-background:new 0 0 469.199 469.2"><g><path d="M68 292.4c-24.14.0-43.717 19.57-43.717 43.717.0 24.14 19.571 43.717 43.717 43.717 24.147.0 43.717-19.57 43.717-43.717S92.14 292.4 68 292.4zm68 150.572c0-26.826-21.746-48.572-48.572-48.572H48.572C21.747 394.4.0 416.146.0 442.972V462.4h136V442.972zM68 292.4c-24.14.0-43.717 19.57-43.717 43.717.0 24.14 19.571 43.717 43.717 43.717 24.147.0 43.717-19.57 43.717-43.717S92.14 292.4 68 292.4zm68 150.572c0-26.826-21.746-48.572-48.572-48.572H48.572C21.747 394.4.0 416.146.0 442.972V462.4h136V442.972zM231.2 6.799c-24.14.0-43.717 19.571-43.717 43.717.0 24.147 19.57 43.717 43.717 43.717 24.148.0 43.718-19.57 43.718-43.717C274.918 26.37 255.34 6.799 231.2 6.799zM299.199 157.372c0-26.826-21.746-48.573-48.572-48.573h-38.854c-26.826.0-48.572 21.747-48.572 48.573v19.427h135.999V157.372H299.199zM231.2 6.799c-24.14.0-43.717 19.571-43.717 43.717.0 24.147 19.57 43.717 43.717 43.717 24.148.0 43.718-19.57 43.718-43.717C274.918 26.37 255.34 6.799 231.2 6.799zM299.199 157.372c0-26.826-21.746-48.573-48.572-48.573h-38.854c-26.826.0-48.572 21.747-48.572 48.573v19.427h135.999V157.372H299.199zM401.199 292.4c-24.139.0-43.717 19.57-43.717 43.717.0 24.14 19.57 43.717 43.717 43.717 24.148.0 43.719-19.57 43.719-43.717S425.34 292.4 401.199 292.4zm68 150.572c0-26.826-21.746-48.572-48.572-48.572h-38.854c-26.826.0-48.574 21.746-48.574 48.572V462.4h136V442.972zm-68-150.572c-24.139.0-43.717 19.57-43.717 43.717.0 24.14 19.57 43.717 43.717 43.717 24.148.0 43.719-19.57 43.719-43.717S425.34 292.4 401.199 292.4zm68 150.572c0-26.826-21.746-48.572-48.572-48.572h-38.854c-26.826.0-48.574 21.746-48.574 48.572V462.4h136V442.972zM325.883 351.9c-3.148 5.453-8.867 8.5-14.734 8.5-2.891.0-5.809-.728-8.486-2.278l-68.062-39.29-68.061 39.29c-2.672 1.551-5.597 2.278-8.486 2.278-5.869.0-11.587-3.047-14.736-8.5-4.692-8.126-1.904-18.53 6.222-23.223l68.061-39.29v-78.588c0-9.391 7.609-17 17-17 9.39.0 17 7.609 17 17v78.588l68.062 39.29C327.787 333.37 330.576 343.774 325.883 351.9z"/></g><g/><g/><g/><g/><g/><g/><g/><g/><g/><g/><g/><g/><g/><g/><g/></svg>