<svg id="Capa_1" xmlns="http://www.w3.org/2000/svg" xmlns:xlink="http://www.w3.org/1999/xlink" width="31.816" height="31.816" viewBox="0 0 31.816 31.816" style="enable-background:new 0 0 31.816 31.816"><g><g><path d="M16.367 5.137h-1.141c-4.852.307-8.721 4.364-8.721 9.322.0 3.408 1.504 6.131 4.102 7.74v2.683c0 .783.291 1.086.745 1.388.113.073.185.198.193.336.008.135.021.312-.151.354-.703.0-.701.771-.701.771.0.312.0 1.729.0 1.729.0.387.313.699.701.699h.469c.375.0.648.311.648.311s1.649 1.348 3.286 1.348c1.66.0 3.285-1.348 3.285-1.348s.273-.311.648-.311h.469c.39.0.701-.312.701-.699.0.0.0-1.416.0-1.729.0.0.002-.771-.701-.771-.172-.041-.158-.221-.149-.354.01-.138.08-.263.192-.336.453-.302.744-.604.744-1.388v-2.683c2.598-1.608 4.103-4.332 4.103-7.74C25.089 9.501 21.222 5.443 16.367 5.137zM19.037 20.171l-.522.271v2.49c0 .426-.295.788-.709.879l-1.103.231c-.186.041-1.074.188-1.812.0l-1.102-.231c-.414-.091-.709-.453-.709-.879v-2.49l-.523-.271c-2.626-1.35-3.177-3.762-3.177-5.542.0-3.571 2.875-6.476 6.417-6.488 3.542.012 6.417 2.917 6.417 6.488C22.214 16.41 21.662 18.82 19.037 20.171z"/><path d="M27.568 6.199c.035-.229-.029-.462-.176-.645-.086-.108-.174-.214-.262-.321-.15-.177-.365-.285-.6-.298-.229-.013-.458.071-.626.23L24.4 6.596c-.316.305-.345.804-.067 1.143.02.02.033.04.053.061.275.342.771.412 1.133.158l1.699-1.192C27.406 6.633 27.533 6.428 27.568 6.199z"/><path d="M15.71 3.753c.025-.001.051-.001.076-.001.44-.003.805-.346.832-.786l.133-2.072c.016-.231-.064-.458-.226-.627C16.369.097 16.146.001 15.916.0c-.14.0-.278.001-.417.004-.231.006-.451.107-.605.28-.154.173-.231.403-.211.633l.179 2.069C14.9 3.424 15.27 3.759 15.71 3.753z"/><path d="M5.223 17.219c-.101-.43-.516-.703-.951-.635l-2.051.337c-.229.037-.432.166-.562.358-.129.189-.175.429-.125.654.03.135.063.27.098.402.057.227.204.416.407.525.203.11.443.139.664.062l1.978-.635c.418-.136.664-.57.56-.998C5.235 17.271 5.229 17.244 5.223 17.219z"/><path d="M7.215 8.008c.017-.021.032-.042.049-.062.272-.348.229-.845-.097-1.141L5.63 5.41c-.172-.156-.4-.234-.631-.216C4.769 5.213 4.555 5.325 4.41 5.505 4.322 5.614 4.237 5.723 4.153 5.834 4.013 6.02 3.956 6.253 3.995 6.482c.039.228.17.429.362.559l1.729 1.151C6.452 8.436 6.946 8.355 7.215 8.008z"/><path d="M30.15 16.986c-.135-.188-.34-.313-.569-.346l-2.054-.291c-.436-.062-.846.225-.938.654-.011.021-.016.055-.021.078-.101.43.155.855.579.982l1.988.59c.226.065.463.037.662-.074.198-.117.344-.312.396-.537.031-.139.062-.271.088-.404C30.333 17.41 30.283 17.176 30.15 16.986z"/></g></g><g/><g/><g/><g/><g/><g/><g/><g/><g/><g/><g/><g/><g/><g/><g/></svg>