<svg id="Capa_1" xmlns="http://www.w3.org/2000/svg" xmlns:xlink="http://www.w3.org/1999/xlink" width="494.285" height="494.286" viewBox="0 0 494.285 494.286" style="enable-background:new 0 0 494.285 494.286"><g><path d="M477.469 175.201l.149-.088L408.312 54.311l1.496-.32c6.263-1.353 10.73-6.895 10.73-13.301v-6.174c0-8.663-7.997-15.123-16.47-13.294L84.47 90.154c-6.263 1.353-10.73 6.895-10.73 13.301v6.174c0 8.412 7.541 14.674 15.729 13.369L16.66 249.913l.149.089H0c0 43.159 45.451 78.146 101.517 78.146s101.518-34.986 101.518-78.146h-14.416l.149-.089-75.684-131.926 117.055-25.249v350.887c-56.841 4.393-70.604 29.75-70.604 29.75h175.563c0 0-13.818-25.466-70.958-29.784V85.407l105.95-22.854-64.565 112.56.149.088h-14.423c0 43.16 45.451 78.146 101.518 78.146 56.065.0 101.517-34.986 101.517-78.146H477.469zM40.127 250.001l62.58-109.092 62.581 109.092H40.127zM328.984 175.201l62.58-109.099 62.587 109.099H328.984z"/></g><g/><g/><g/><g/><g/><g/><g/><g/><g/><g/><g/><g/><g/><g/><g/></svg>