<svg id="Capa_1" xmlns="http://www.w3.org/2000/svg" xmlns:xlink="http://www.w3.org/1999/xlink" width="32.031" height="32.031" viewBox="0 0 32.031 32.031" style="enable-background:new 0 0 32.031 32.031"><g><g><path d="M14.705 11.476c.337.0.608-.271.608-.607.0-.337-.271-.608-.608-.608-.066.0-.129.013-.191.033.046.05.074.113.074.185.0.156-.127.282-.283.282-.066.0-.129-.028-.178-.069-.017.057-.029.115-.029.178C14.098 11.205 14.371 11.476 14.705 11.476z"/><path d="M17.57 11.424c.338.0.609-.271.609-.608.0-.335-.271-.608-.609-.608-.068.0-.131.015-.19.035.043.049.072.112.072.185.0.154-.126.281-.28.281-.07.0-.131-.027-.18-.068-.017.055-.029.114-.029.176C16.963 11.152 17.234 11.424 17.57 11.424z"/><path d="M16.151 13.481c.637.0.933-.71.933-.71h-1.879C15.205 12.771 15.514 13.481 16.151 13.481z"/><path d="M12.033 8.65c-.065.627-.245 3.324 1.173 4.945.706.806 1.69 1.215 2.931 1.215.011.0.021-.001.03-.001.013.0.021.001.034.001 1.236.0 2.224-.409 2.929-1.215 1.417-1.621 1.238-4.318 1.175-4.945.334-.082.555-.055.618-.111.128-.111.144-.965.017-1.153-.127-.19-.65-.104-.746-.276-.078-.144-.543-2.495-2.598-3.328v2.961H16.86V3.565c-.217-.04-.446-.064-.688-.072v0c-.001.0-.002.0-.005.0.0.0.0.0-.001.0v0c-.244.008-.474.032-.687.072v3.177H14.74V3.781c-2.053.833-2.519 3.185-2.598 3.328-.095.173-.619.086-.746.276-.125.188-.109 1.042.017 1.153C11.479 8.596 11.697 8.568 12.033 8.65zM12.525 8.832c.212.104.447.257.704.479.43.0 2.047.007 2.817.01v.002c0 0 .045.0.12-.001.077.001.122.001.122.001V9.321c.771-.003 2.389-.01 2.817-.01.256-.223.492-.375.705-.479.057.752.127 3.073-1.064 4.433-.604.689-1.462 1.04-2.546 1.04-.013.0-.021-.002-.029-.002v0c-.001.0-.002.0-.005.0.0.0.0.0-.001.0v0c-.011.0-.02.002-.029.002-1.086.0-1.944-.351-2.549-1.04C12.397 11.905 12.467 9.583 12.525 8.832z"/><path d="M11.172 27.265h9.991v1.313H11.172z"/><path d="M24.514 20.058c-.621-3.396-4.055-5.745-5.256-5.62-.378.054-.9 1.573-3.235 1.573-2.334.0-2.634-1.52-3.01-1.573-1.202-.125-5.171 2.661-5.792 6.058-.096.526-.356 1.181 1.718 3.392H0v.955h9.881c.341.329.724.688 1.152 1.074l.139.893h10.014l.078-1.016c.385-.336.729-.652 1.034-.951H32v-.955h-8.794C25.204 21.595 24.617 20.636 24.514 20.058zm-3.035 2.968.16-2.062H10.264l.24 1.549c-.841-.979-.842-1.467-.812-2.018.037-.682 1.496-1.708 1.496-1.708l.008 1.724h9.883c.001-.988.001-1.724.001-1.724s.971.996 1.426 1.742C22.58 20.651 22.73 21.179 21.479 23.026z"/><path d="M25.047 4.657v6.787l6.984-.778V3.453L25.047 4.657zM31.473 9.936l-5.926.699V5.323l5.926-.98V9.936z"/><path d="M30.994 5.019 29.508 5.257V5.646L30.994 5.414z"/><path d="M30.984 5.674 29.499 5.903V6.293L30.984 6.068z"/><path d="M29.512 6.992 30.999 6.776V6.382L29.512 6.601z"/><path d="M26.247 7.54l.012.004L26.3 7.685l-.004.016c-.128.443-.119.454-.097.482l.168.222c.006.009.02.014.029.014.008-.002.037-.006.287-.209l.01-.008.104.048.004.015c.12.417.131.415.16.411l.241-.032c.03-.004.044-.006.153-.456l.004-.018.104-.076.013.005c.17.083.271.124.297.12.012-.001.023-.01.031-.021l.174-.272c.021-.035.03-.05-.105-.452l-.005-.016.042-.155.011-.008c.306-.218.306-.234.306-.279V6.662c0-.045.0-.064-.306-.178L27.91 6.479l-.044-.144.006-.017c.13-.451.119-.463.099-.49l-.173-.221c-.008-.009-.021-.015-.03-.013-.011.001-.039.006-.295.217L27.464 5.82l-.104-.045-.004-.016c-.119-.415-.133-.413-.162-.408l-.24.04c-.029.005-.042.006-.151.458l-.004.016-.104.078-.01-.004c-.168-.079-.269-.117-.293-.113-.011.003-.021.012-.029.021l-.168.272c-.021.035-.031.049.102.444L26.3 6.579l-.042.154L26.249 6.74c-.296.214-.296.231-.296.275v.348C25.951 7.407 25.951 7.426 26.247 7.54zM27.076 6.451c.217-.033.393.193.393.506.0.314-.176.594-.393.624-.215.031-.389-.196-.389-.508C26.688 6.764 26.861 6.483 27.076 6.451z"/><path d="M28.509 8.848l.007.003.022.078-.003.009c-.07.244-.064.251-.053.267l.094.123c.004.006.012.009.017.008.005.0.021-.003.162-.112L28.76 9.22l.059.026.002.007c.066.231.072.229.089.229l.136-.017c.016-.002.021-.003.085-.251l.003-.009.057-.041.008.002c.096.048.15.07.166.068.005-.001.013-.006.017-.012l.097-.149c.012-.019.018-.026-.06-.249l-.003-.009.023-.085.006-.004c.17-.117.17-.126.17-.151V8.382c0-.025.0-.035-.17-.101l-.006-.003-.023-.079.003-.009c.071-.247.067-.254.056-.269l-.097-.124c-.004-.005-.013-.008-.017-.007-.008.0-.023.003-.164.115l-.006.004-.06-.024-.001-.008c-.066-.23-.074-.229-.091-.229l-.134.02c-.018.002-.024.003-.086.251l-.002.009L28.758 7.97l-.005-.003c-.095-.045-.149-.067-.166-.065-.004.001-.012.005-.017.011l-.094.149c-.014.02-.019.027.058.248l.003.008-.023.085-.006.004c-.166.116-.166.125-.166.149v.191C28.343 8.771 28.343 8.781 28.509 8.848zM28.975 8.252c.119-.015.219.111.219.284s-.1.325-.219.34c-.119.016-.219-.112-.219-.283C28.756 8.421 28.854 8.269 28.975 8.252z"/><path d="M30.643 8.378l-.004-.001-.017-.051.002-.005c.046-.158.043-.162.035-.173l-.062-.078c-.004-.003-.008-.005-.012-.005-.004.002-.014.003-.104.076l-.004.002-.037-.017-.002-.004c-.043-.146-.047-.146-.058-.145l-.087.014c-.011.002-.016.002-.055.161v.005l-.037.027-.004-.001c-.061-.028-.096-.042-.105-.041-.004.001-.008.004-.011.008l-.062.096c-.008.013-.01.018.037.158l.002.005-.016.055-.003.003c-.106.076-.106.081-.106.097v.123c0 .016.0.022.106.063l.004.001.015.05v.005c-.047.157-.043.161-.035.171l.062.078c.002.004.007.005.011.005C30.1 9.06 30.109 9.059 30.2 8.987l.004-.002.037.017.001.005c.042.146.047.145.058.144l.087-.012c.012-.002.016-.003.055-.162l.002-.005.037-.027.002.002c.063.029.099.042.107.042.003-.001.008-.004.012-.008l.062-.096c.008-.013.011-.018-.038-.159L30.624 8.72l.015-.055.004-.002c.108-.076.108-.083.108-.099V8.442C30.75 8.427 30.75 8.419 30.643 8.378zM30.341 8.765c-.075.011-.14-.069-.14-.18.0-.109.062-.208.14-.22.078-.011.142.07.142.18C30.48 8.655 30.419 8.753 30.341 8.765z"/><path d="M7.052 12.511l-6.985-.716v7.213l6.984.29L7.052 12.511v0zM6.551 18.525l-5.924-.286v-5.595l5.924.567v5.314z"/><path d="M6.193 13.988 4.801 13.864V14.246L6.193 14.364z"/><path d="M6.186 14.612 4.792 14.497V14.877L6.186 14.989z"/><path d="M4.805 15.564 6.197 15.668V15.291L4.805 15.184z"/><path d="M4.11 14.636 1.044 14.387V15.126L4.11 15.355z"/><path d="M3.4 15.678 1.044 15.509V16.248L3.4 16.403z"/><path d="M5.601 16.914 1.044 16.63V17.371L5.601 17.625z"/><path d="M31.952 11.731l-6.976.716v6.782l6.976-.291V11.731zM31.393 18.172l-5.916.286v-5.311l5.916-.567V18.172z"/><path d="M31.001 13.268 29.518 13.402V13.792L31.001 13.663z"/><path d="M30.99 13.922 29.508 14.047V14.437L30.99 14.315z"/><path d="M29.521 15.136 31.005 15.025V14.63L29.521 14.747z"/><path d="M27.775 17.338c.111-.17.287-1.03.287-1.03s-.578.298-.688.466c-.111.169-.111.432.0.587C27.484 17.517 27.664 17.507 27.775 17.338z"/><path d="M25.843 18.064l3.536-.184v-.367l.004-.028c.001-.039.004-.404.004-.444.0-1.297-.636-1.96-.636-1.96-.315-.369-.724-.575-1.166-.539-.972.08-1.746 1.291-1.746 2.709.0.038.004.392.004.431V18.064zM26.259 17.267l.354-.021v-.171l-.329.02c0-.002-.025.002-.025.002.015-.441.128-.892.343-1.254l.008-.016.018.02.238.337.074-.116-.254-.357c.23-.327.523-.527.836-.572l.019-.002c0 0 .009-.001.008.007v.526l.099-.007v-.534c.047-.001.095.004.143.012.271.032.525.186.732.445l-.262.398.072.101.25-.382.016-.018.012.021c.218.331.343.761.355 1.229l-.371.021v.174l.372-.021c0 0 .002.375.0.396l-2.706.15C26.258 17.634 26.259 17.292 26.259 17.267z"/><path d="M30.342 16.556c-.236.015-.426.299-.426.638.0.337.189.601.426.588.237-.013.43-.298.43-.638S30.579 16.541 30.342 16.556z"/><path d="M26.309 14.098c.152-.014.279-.211.279-.44s-.127-.403-.279-.389c-.154.015-.277.211-.277.439C26.029 13.935 26.154 14.11 26.309 14.098z"/><path d="M27.221 14.035c.156-.014.284-.212.284-.443s-.128-.406-.284-.392c-.156.015-.281.212-.281.443C26.938 13.873 27.062 14.047 27.221 14.035z"/><path d="M28.146 13.987c.158-.014.287-.214.287-.447s-.129-.409-.287-.396c-.158.016-.287.216-.287.447S27.986 14 28.146 13.987z"/><path d="M7.052 4.751.067 3.551v7.212l6.984.776L7.052 4.751v0zM6.551 10.73l-5.922-.699V4.438l5.922.979V10.73z"/><path d="M3.351 7.488c0 .176-.04.33-.107.451l.628.791c.17-.303.271-.691.271-1.13.0-.856-.387-1.644-.924-1.978L2.972 6.688C3.191 6.819 3.351 7.14 3.351 7.488z"/><path d="M2.681 9.389c.436.055.82-.197 1.062-.627l-.63-.791C3.015 8.146 2.859 8.25 2.681 8.226c-.3-.041-.543-.428-.543-.861.0-.433.243-.751.543-.706.057.009.111.028.162.06l.245-1.066C2.96 5.573 2.824 5.519 2.681 5.497 1.935 5.377 1.318 6.164 1.318 7.249 1.318 8.334 1.935 9.294 2.681 9.389z"/><path d="M4.808 8.68 6.2 8.894V8.517L4.808 8.296z"/><path d="M6.192 9.141 4.799 8.928V9.31L6.192 9.518z"/><path d="M4.812 9.999 6.204 10.198V9.821L4.812 9.617z"/><path d="M5.425 7.5c.348.043.63-.342.63-.856.0-.511-.278-.966-.621-1.021v.562C5.568 6.209 5.68 6.391 5.68 6.594c0 .208-.115.363-.255.346C5.284 6.92 5.168 6.736 5.168 6.527c0-.005.0-.009.002-.014l-.383-.05c0 .005.0.01.0.015C4.787 6.998 5.074 7.457 5.425 7.5z"/></g></g><g/><g/><g/><g/><g/><g/><g/><g/><g/><g/><g/><g/><g/><g/><g/></svg>