<svg id="Capa_1" xmlns="http://www.w3.org/2000/svg" xmlns:xlink="http://www.w3.org/1999/xlink" width="32" height="32" viewBox="0 0 32 32" style="enable-background:new 0 0 32 32"><g><g><path d="M31.977 5.003H16.659v10.525h15.315V5.003H31.977zM30.814 14.366H17.82V6.164h12.994v8.202z"/><path d="M26.834 7.174h3.157v.582H26.834z"/><path d="M26.814 8.137h3.158v.58H26.814z"/><path d="M26.843 9.18h3.158v.581H26.843z"/><path d="M19.426 9.743l.024.009.095.226-.01.023c-.288.652-.27.67-.221.719l.383.375c.017.016.044.026.066.026.021.0.088.0.654-.256l.021-.011.234.095.01.023c.267.659.293.659.359.659h.542c.067.0.097.0.345-.661l.01-.024.231-.094.022.009c.384.162.606.244.664.244.024.0.053-.011.068-.026l.387-.376c.049-.049.068-.068-.234-.707l-.012-.023.096-.226.021-.009c.678-.263.678-.288.678-.356v-.53c0-.068.0-.097-.678-.339L23.16 8.504l-.096-.226.011-.024c.288-.651.268-.672.221-.719l-.385-.374c-.017-.016-.043-.026-.065-.026-.021.0-.088.0-.654.256l-.022.011-.233-.094-.01-.024c-.267-.659-.294-.659-.359-.659h-.543c-.065.0-.096.0-.344.661l-.01.023-.232.094-.021-.009C20.032 7.232 19.809 7.15 19.75 7.15c-.023.0-.051.011-.066.026l-.386.377c-.049.048-.069.067.233.707l.012.023L19.447 8.51l-.022.009c-.676.261-.676.287-.676.354v.531C18.749 9.473 18.749 9.501 19.426 9.743zM21.305 8.267c.484.0.879.387.879.861.0.476-.395.861-.879.861s-.878-.386-.878-.861S20.82 8.267 21.305 8.267z"/><path d="M23.79 11.378l-.127.051-.013-.005c-.209-.088-.332-.133-.363-.133-.014.0-.028.006-.036.014l-.21.206c-.025.025-.038.037.128.386l.006.013-.053.123-.013.004c-.368.143-.368.157-.368.194v.29c0 .037.0.053.368.185l.015.005.052.123-.006.013c-.156.356-.146.366-.12.392l.209.205c.009.009.024.014.037.014s.047.0.356-.14l.013-.006.128.052.005.013c.146.36.16.36.197.36h.296c.037.0.053.0.188-.361l.006-.014.127-.051.013.005c.209.089.331.133.362.133.014.0.027-.005.037-.014l.209-.206c.027-.026.039-.036-.129-.384l-.006-.014.053-.123.013-.005c.369-.143.369-.157.369-.194V12.22c0-.037.0-.054-.37-.185l-.014-.006-.051-.123.006-.013c.155-.356.146-.366.119-.393l-.209-.205c-.01-.008-.023-.014-.037-.014-.012.0-.047.0-.356.14l-.013.006-.127-.05-.004-.014c-.147-.36-.162-.36-.199-.36h-.295c-.037.0-.053.0-.188.361L23.79 11.378zM24.137 11.9c.266.0.479.211.479.47.0.259-.216.471-.479.471s-.479-.212-.479-.471C23.658 12.111 23.872 11.9 24.137 11.9z"/><path d="M24.309 10.128l.008.004.033.078-.004.008c-.101.228-.094.233-.076.251l.133.13c.006.005.017.009.023.009.008.0.03.0.229-.089l.008-.003.081.032.003.009c.093.229.104.229.126.229h.188c.022.0.032.0.119-.231l.004-.008.08-.032.008.002c.133.057.211.086.23.086.01.0.02-.004.023-.009l.135-.132c.017-.017.023-.023-.082-.246l-.004-.008.033-.078.008-.003c.236-.092.236-.101.236-.124V9.818c0-.023.0-.033-.235-.118l-.009-.002-.033-.079.004-.009c.1-.227.093-.233.076-.25l-.133-.131c-.006-.005-.017-.009-.023-.009s-.03.0-.229.09l-.008.004-.08-.033-.005-.008c-.093-.229-.102-.229-.125-.229h-.188c-.022.0-.032.0-.119.229L24.74 9.282l-.081.032L24.65 9.311c-.133-.056-.211-.085-.23-.085-.009.0-.018.004-.023.01l-.133.13c-.018.017-.023.024.082.246L24.35 9.62l-.033.079-.008.004c-.235.091-.235.1-.235.122v.186C24.072 10.034 24.072 10.044 24.309 10.128zM24.961 9.615c.169.0.307.134.307.3.0.164-.138.299-.307.299-.168.0-.307-.135-.307-.299C24.654 9.749 24.793 9.615 24.961 9.615z"/><path d="M0 26.997h15.316V16.472H0V26.997zm1.161-9.364h12.994v8.203H1.161V17.633z"/><path d="M10.175 18.879h3.157v.581H10.175z"/><path d="M10.156 19.841h3.157v.581H10.156z"/><path d="M10.184 20.885h3.157v.581H10.184z"/><path d="M2.032 20.138h6.605v1.09H2.032z"/><path d="M2.032 21.789h5.045v1.089H2.032z"/><path d="M2.032 23.44h9.945v1.09H2.032z"/><path d="M16.684 16.437v10.524H32V16.437H16.684zM30.839 25.8H17.846v-8.202h12.993V25.8z"/><path d="M26.857 18.553h3.158v.581H26.857z"/><path d="M26.84 19.515h3.157v.58H26.84z"/><path d="M26.867 20.558h3.156v.581H26.867z"/><path d="M23.053 24.274c.246-.246.641-1.531.641-1.531s-1.285.395-1.531.64c-.246.246-.246.646.001.892C22.407 24.521 22.807 24.521 23.053 24.274z"/><path d="M18.688 25.221h7.875v-.548l.008-.044c.003-.06.009-.604.009-.662.0-1.937-1.382-2.998-1.382-2.998-.69-.592-1.588-.952-2.568-.952-2.181.0-3.949 1.77-3.949 3.95.0.06.006.604.01.662v.592H18.688zM19.641 24.033h.81v-.263h-.753c0-.002-.057.0-.057.0.03-.678.289-1.354.776-1.888l.021-.022.037.033.539.539.17-.171-.574-.571c.52-.475 1.178-.746 1.879-.776h.041c0 0 .018-.002.016.01v.799h.217v-.809c.105.004.213.019.317.032.603.08 1.162.34 1.614.755l-.57.571.159.16.549-.55.03-.024.025.035c.475.519.746 1.176.777 1.877h-.809v.263l.812-.001c0 0 .001.562-.002.596l-6.025.001C19.637 24.594 19.643 24.069 19.641 24.033z"/><circle cx="28.625" cy="24.239" r=".907"/><circle cx="19.751" cy="18.613" r=".635"/><circle cx="21.812" cy="18.614" r=".635"/><circle cx="23.87" cy="18.614" r=".635"/><path d="M.036 15.565h15.316V5.039H.036V15.565zM1.198 6.2h12.993v8.203H1.198V6.2z"/><path d="M6.368 7.427 5.836 9.074c.476.149.822.592.822 1.117.0.263-.088.504-.234.699l1.371 1.059c.373-.489.595-1.098.595-1.758C8.39 8.898 7.539 7.8 6.368 7.427z"/><path d="M5.209 11.432c-.644.0-1.167-.524-1.167-1.168.0-.644.523-1.168 1.167-1.168.12.0.236.019.346.053l.532-1.648C5.81 7.412 5.515 7.364 5.209 7.364c-1.599.0-2.899 1.301-2.899 2.899.0 1.598 1.3 2.9 2.899 2.9.938.0 1.774-.448 2.305-1.143l-1.372-1.057C5.929 11.246 5.591 11.432 5.209 11.432z"/><path d="M10.211 7.447h3.157v.58H10.211z"/><path d="M10.192 8.408h3.158v.581H10.192z"/><path d="M10.22 9.452h3.158v.58H10.22z"/><path d="M11.634 10.694v.857c.31.01.559.265.559.577.0.318-.259.578-.578.578-.318.0-.578-.26-.578-.578.0-.008.001-.015.002-.021H10.18c0 .007.0.014.0.021.0.791.644 1.436 1.435 1.436.792.0 1.436-.645 1.436-1.436C13.05 11.344 12.416 10.704 11.634 10.694z"/></g></g><g/><g/><g/><g/><g/><g/><g/><g/><g/><g/><g/><g/><g/><g/><g/></svg>