<svg id="Capa_1" xmlns="http://www.w3.org/2000/svg" xmlns:xlink="http://www.w3.org/1999/xlink" width="32" height="32" viewBox="0 0 32 32" style="enable-background:new 0 0 32 32"><g><g><path d="M28.393 6.062 14.065 5.764 20.395 6.561 24.906 9.435z"/><path d="M19.912 6.815 5.534 4.842 1.94 7.873 16.409 11.733z"/><path d="M16.753 23.762l14.075-7.326V8.183l-2.057-2.121-3.816 3.764-4.622-2.915-3.58 5.182V23.762zM26.316 13.281l3.523-1.358v.494l-3.523 1.41V13.281zM26.316 14.223l3.523-1.443v.494l-3.523 1.496V14.223zM26.316 15.107l3.523-1.529v.494l-3.523 1.58V15.107zm0 .843 3.523-1.609v.495l-3.523 1.66V15.95zM18.455 16.204l5.07-1.943v.588l-5.07 2.019V16.204zM18.455 17.346l5.07-2.067v.588l-5.07 2.141V17.346zM18.455 18.416l5.07-2.188v.587l-5.07 2.263V18.416zM18.455 19.439l5.07-2.305v.587l-5.07 2.378V19.439z"/><path d="M16.223 12.118 1.856 8.241v8.149l14.365 7.365V12.118H16.223zM3.927 11.948l-1.485-.537V9.318l1.484.443L3.927 11.948v0zM6.279 12.837 4.59 12.224v-2.23L6.279 10.5V12.837zM8.886 13.736l-1.931-.7v-2.381l1.931.577V13.736zM11.905 14.838l-2.228-.807v-2.553l2.229.665L11.905 14.838v0zM15.403 16.043l-2.601-.939v-2.751l2.601.772V16.043z"/><path d="M32 16.273 16.428 24.598.0 15.808V17.459L16.434 27.14V27.154L16.445 27.146 16.465 27.158V27.135L32 17.99z"/></g></g><g/><g/><g/><g/><g/><g/><g/><g/><g/><g/><g/><g/><g/><g/><g/></svg>