<svg id="Capa_1" xmlns="http://www.w3.org/2000/svg" xmlns:xlink="http://www.w3.org/1999/xlink" width="32" height="32" viewBox="0 0 32 32" style="enable-background:new 0 0 32 32"><g><g><path d="M13.885 25.765.002 18.356.0 20.249 13.885 28.23 32 17.818V16.119L13.885 25.758z"/><path d="M13.256 24.774l-.017-14.23L.674 7.141.69 18.229 13.256 24.774zM9.179 11.736l3.229 1.02v.987l-3.229-1.077V11.736zM9.179 13.487l3.229 1.126V15.6l-3.229-1.183V13.487zM9.179 15.063l3.229 1.222v.988l-3.229-1.278V15.063zM5.179 10.472l3.112.983v.915l-3.112-1.037V10.472zM5.179 12.091l3.112 1.086v.915l-3.112-1.14V12.091zM5.179 13.55l3.112 1.178v.915l-3.112-1.231V13.55zM1.738 9.385l2.369.749v.842l-2.369-.79V9.385zM1.738 10.892l2.369.826v.843l-2.369-.868V10.892zM1.738 12.249l2.369.896v.843l-2.369-.939V12.249z"/><path d="M23.553 6.395v1.6l-9.668 2.619v14.488l15.139-7.885v-4.093L32 11.857v-7.47L23.553 6.395zM18.591 20.32l-3.383 1.614v-1.945l3.383-1.498V20.32zM18.591 17.825l-3.383 1.455v-1.945l3.383-1.339V17.825zM18.591 15.281l-3.383 1.294V14.63l3.383-1.178V15.281zm0-2.615-3.383 1.128v-1.945l3.383-1.012V12.666zM26.031 17.838l-1.658.828v-1.407l1.658-.78V17.838zM26.031 15.584l-1.658.748v-1.408l1.658-.699V15.584zm0-2.535-1.658.656v-1.408l1.658-.606V13.049zM26.031 10.795l-1.658.575V9.962l1.658-.525V10.795zM26.031 8.682l-1.658.499V7.773l1.658-.449V8.682zM27.941 16.881l-1.521.762v-1.348l1.521-.716V16.881zM27.941 14.722l-1.521.686v-1.347l1.521-.641V14.722zM27.941 12.293l-1.521.602v-1.348l1.521-.557V12.293zm0-2.16-1.521.527V9.313l1.521-.481V10.133zM27.941 8.109l-1.521.456V7.218l1.521-.412V8.109zM29.673 11.608l-1.401.555v-1.292l1.401-.514V11.608zm0-2.074-1.401.485V8.727l1.401-.444V9.534zM29.673 7.588l-1.401.421V6.717l1.401-.38V7.588zM31.301 10.964l-1.294.512v-1.241l1.294-.474V10.964zM31.301 8.969l-1.294.448v-1.24l1.294-.41V8.969zM31.301 7.099l-1.294.389v-1.24l1.294-.351V7.099z"/><path d="M19.65 8.683V8.7L21.072 8.324 21.076 8.323v0L23.287 7.739V7.201L19.65 6.537V6.544L11.299 5.041.883 6.778 13.662 10.197z"/><path d="M31.648 4.273 27.577 3.77 19.654 5.354V5.589L23.343 6.207z"/><path d="M23.303 7.004 23.299 6.434 19.65 5.813 19.654 6.35z"/></g></g><g/><g/><g/><g/><g/><g/><g/><g/><g/><g/><g/><g/><g/><g/><g/></svg>