<svg id="Capa_1" xmlns="http://www.w3.org/2000/svg" xmlns:xlink="http://www.w3.org/1999/xlink" width="32.046" height="32.045" viewBox="0 0 32.046 32.045" style="enable-background:new 0 0 32.046 32.045"><g><g><path d="M18.812 12.025l-.55 1.798c.491.157.85.639.85 1.21.0.286-.091.549-.242.761l1.433 1.17c.396-.533.63-1.203.63-1.932C20.932 13.606 20.033 12.41 18.812 12.025z"/><path d="M17.622 16.374c-.652-.006-1.179-.572-1.179-1.262.0-.689.526-1.255 1.179-1.26.123-.001.24.018.353.054l.547-1.795c-.285-.09-.587-.136-.898-.129-1.61.033-2.895 1.436-2.895 3.129.0 1.694 1.284 3.099 2.895 3.132.963.021 1.828-.451 2.383-1.202l-1.427-1.169C18.358 16.179 18.013 16.377 17.622 16.374z"/><path d="M30.155 12.956c1.891-.733 1.891-.804 1.891-.994V10.48c0-.19.0-.27-1.892-.944l-.066-.024-.267-.633.028-.064c.805-1.823.749-1.877.615-2.009l-1.07-1.047c-.044-.043-.121-.074-.188-.074-.062.0-.242.0-1.826.717L27.317 6.43l-.651-.263L26.64 6.102c-.745-1.844-.823-1.844-1.007-1.844h-1.514c-.187.0-.27.0-.959 1.847l-.026.067-.649.265-.062-.026c-1.071-.452-1.696-.681-1.859-.681-.065.0-.144.03-.188.073l-1.073 1.049c-.136.134-.192.19.653 1.975l.03.066L19.72 9.525 19.654 9.55c-.215.083-.401.157-.57.224-.063.025-.438.269-.673.417l-4.931-.27-1.696 8.13h-.001l-.033.005c-.41-.696-1.174-1.092-2.239-1.092H9.045c-.625.61-1.718 1.019-2.97 1.019s-2.345-.408-2.97-1.019H2.639c-1.643.0-2.584.928-2.584 2.476.0 1.549-.05 5.781-.05 6.625s-.101 1.723.627 1.723c.269.0 1.125.0 2.235.0 1.059.0 2.076.0 3.009.0.129.0.272.0.397.0 1.196.0 2.19.0 2.762.0.102.0.173.0.247.0.032.0.08.0.106.0.93.0 1.644.0 1.882.0.099.0.192.0.247.0.729.0.627-.879.627-1.723.0-.13-.002-.349-.003-.617h19.881v-1.345H12.13c-.004-.379-.008-.784-.012-1.196l1.895.725 9.375-1.491.939-3.896h1.367c.19.0.27.0.959-1.848l.026-.066.65-.263.062.025c1.07.453 1.695.682 1.857.682.064.0.145-.029.188-.072l1.073-1.051c.136-.135.191-.19-.655-1.973l-.03-.067.265-.63L30.155 12.956zM13.951 10.681l9.806.655-2.146 9.061-9.188-2.6L13.951 10.681zM12.095 19.44c0-.277-.04-.527-.1-.764l.035-.006 7.777 2.221-3.552.503-4.159-1.354C12.096 19.815 12.095 19.61 12.095 19.44zM12.1 20.589l1.073.358-1.069.16C12.102 20.929 12.101 20.755 12.1 20.589zM25.451 13.591l.565-2.347-.568-.396L22.91 21.676l-8.834 1.292v-.004l-1.963-.718c-.002-.188-.004-.371-.005-.555l1.999.717 8.259-1.108 2.547-10.756-2.273-.123c.027-.101.056-.201.063-.216.396-.802 1.234-1.357 2.204-1.357 1.353.0 2.451 1.078 2.451 2.404C27.358 12.393 26.542 13.348 25.451 13.591z"/><path d="M1.618 11.909c-.009.058-.021.116-.028.175-.273 2.544 1.526 4.833 4.012 5.102 2.487.27 4.734-1.583 5.01-4.127.041-.393.029-.778-.023-1.152.292-.002.473-.006.513-.012.317-.04.57-.063.596-.413.005-.467-.008-.392-.001-.461.008-.404-.229-.357-.491-.385-.262-.028-.583.012-.583.012S9.868 5.572 5.172 6.401C3.768 6.649 2.843 7.242 2.235 7.95c1.199-.596 2.613-.882 3.843-.713 1.173.162 2.093.706 2.686 1.571C8.369 8.515 7.926 8.285 7.442 8.135 6.959 7.85 6.446 7.712 6.019 7.653 4.601 7.451 2.93 7.899 1.693 8.749.9 10.26 1.13 11.907 1.13 11.907S1.313 11.907 1.618 11.909zM2.425 12.174c.009-.089.025-.176.042-.263 1.897.003 5.361.009 7.275.001.059.341.074.695.034 1.056-.226 2.084-2.059 3.603-4.084 3.383C3.664 16.132 2.2 14.258 2.425 12.174z"/></g></g><g/><g/><g/><g/><g/><g/><g/><g/><g/><g/><g/><g/><g/><g/><g/></svg>