<svg id="Capa_1" xmlns="http://www.w3.org/2000/svg" xmlns:xlink="http://www.w3.org/1999/xlink" viewBox="0 0 299 299" style="enable-background:new 0 0 299 299"><g><path d="M148.5 185.5c4.143.0 7.5 3.357 7.5 7.5v19.086c19-2.842 33.32-17.572 35.912-36.086h-18.579c-4.143.0-7.5-3.357-7.5-7.5s3.357-7.5 7.5-7.5h18.013C187.627 143.992 174 130.758 156 128.08V144c0 4.143-3.357 7.5-7.5 7.5s-7.5-3.357-7.5-7.5v-15.561c-16 3.349-29.104 16.212-32.68 32.561h16.013c4.143.0 7.5 3.357 7.5 7.5s-3.357 7.5-7.5 7.5h-16.579C110.251 193.839 124 208.166 141 211.727V193C141 188.857 144.357 185.5 148.5 185.5z"/><path style="fill:none;stroke:#000;stroke-width:0;stroke-linecap:round;stroke-linejoin:round" d="M108.333 34v0z"/><path d="M274.19 72H133V59c0-13.785-10.738-25-24.523-25H25.476C11.69 34 0 45.215.0 59v181c0 13.785 11.69 25 25.476 25H274.19c13.785.0 24.81-11.215 24.81-25V96.857C299 83.072 287.976 72 274.19 72zM92.637 176H82.333c-4.143.0-7.5-3.357-7.5-7.5s3.357-7.5 7.5-7.5h10.725C96.984 136.361 117 116.895 141 113.216V102c0-4.143 3.357-7.5 7.5-7.5s7.5 3.357 7.5 7.5v10.961c26 2.9 46.576 22.74 50.608 48.039h8.725c4.143.0 7.5 3.357 7.5 7.5s-3.357 7.5-7.5 7.5h-8.304C204.278 202.795 183 224.185 156 227.205V235c0 4.143-3.357 7.5-7.5 7.5s-7.5-3.357-7.5-7.5v-8.05C116 223.115 95.318 202.123 92.637 176z"/></g><g/><g/><g/><g/><g/><g/><g/><g/><g/><g/><g/><g/><g/><g/><g/></svg>