<svg id="Capa_1" xmlns="http://www.w3.org/2000/svg" xmlns:xlink="http://www.w3.org/1999/xlink" width="30.893" height="30.893" viewBox="0 0 30.893 30.893" style="enable-background:new 0 0 30.893 30.893"><g><path d="M21.268 5.819c-2.263.0-4.345.784-5.991 2.095-.203.161-.33.4-.353.659-.022.259.063.516.236.709.427.479.861 1.035 1.244 1.651.123.201.33.339.562.376.234.037.474-.03.653-.183.984-.832 2.258-1.333 3.646-1.333 3.116.0 5.652 2.537 5.652 5.655.0 3.121-2.536 5.656-5.652 5.656-3.119.0-5.66-2.537-5.66-5.656.0-.164-.016-.665-.016-.758.0-1.816-1.302-3.491-2.357-4.551-.265-.265-.513-.493-.723-.672-1.318-1.066-2.995-1.706-4.82-1.706C3.45 7.761.0 11.208.0 15.449c0 4.241 3.45 7.688 7.69 7.688 1.088.0 2.124-.228 3.063-.64.275-.118.485-.354.575-.639.09-.285.055-.599-.102-.854-.205-.339-.392-.668-.536-.966-.148-.303-.269-.608-.37-.92-.06-.183-.197-.328-.375-.399-.178-.072-.379-.062-.549.024-.512.269-1.092.418-1.708.418-2.05.0-3.717-1.668-3.717-3.715.0-2.048 1.667-3.715 3.717-3.715 1.766.0 3.246 1.239 3.622 2.893.143.401.244.815.33 1.233.056.271.104.541.153.812.152.852.309 1.729.683 2.498.49 1.008 1.62 2.575 2.022 3.127 1.736 1.719 4.13 2.778 6.766 2.778 5.309.0 9.629-4.317 9.629-9.627C30.896 10.139 26.576 5.819 21.268 5.819z"/></g><g/><g/><g/><g/><g/><g/><g/><g/><g/><g/><g/><g/><g/><g/><g/></svg>