<svg id="Capa_1" xmlns="http://www.w3.org/2000/svg" xmlns:xlink="http://www.w3.org/1999/xlink" width="99.368" height="99.368" viewBox="0 0 99.368 99.368" style="enable-background:new 0 0 99.368 99.368"><g><g><circle cx="29.484" cy="41.129" r="4.605"/><path d="M34.354 42.376c.368 1.551 1.617 3.211 3.513 3.225l10.164.075c1.257.009 2.245-.697 2.869-1.681l15.351.038c.002.0.002.0.008.0 1.342.0 2.433-1.088 2.438-2.432.002-1.347-1.086-2.441-2.433-2.444l-13.444-.033c.176.254.312.543.371.864.236 1.232-.575 2.426-1.806 2.663-.192.036-4.711.894-9.124.894-1.425.0-2.695-.091-3.796-.268.003-.021.008-.045.01-.068.005-.138.021-.274.037-.41 1.187.199 2.497.276 3.816.276 4.354.0 8.782-.837 9.03-.884.971-.186 1.605-1.123 1.421-2.092-.186-.97-1.122-1.605-2.091-1.42-.074.014-6.87 1.295-11.317.636.033-.161.063-.323.085-.487.802.113 1.733.171 2.783.171 3.542.0 7.332-.644 8.139-.79-.575-.585-1.341-.978-2.284-.985l-10.165-.075c-1.885-.014-3.162 1.633-3.552 3.168.0.0-.149.484-.143 1 .008.494.119 1.045.119 1.045L34.354 42.376z"/><circle cx="13.649" cy="30.632" r="5.212"/><circle cx="87.286" cy="31.553" r="5.212"/><path d="M97.618 44.643c-5.427-.742-7.83-3.399-9.038-4.991-1.117-1.591-1.6-2.251-2.547-2.688.0.0-.502-.275-1.075-.385-.549-.104-1.187-.108-1.187-.108h-.017c-.271.008-6.182.04-11.557 7.013-.588.782-1.196 1.591-1.911 2.481-.354.444-.49.992-.427 1.516-.41.266-.93.453-1.504.577v-.397c0-.94-.762-1.703-1.701-1.703H27.221c-.94.0-1.702.762-1.702 1.703v.468c-.876-.141-1.681-.397-2.197-.843-.396-.341-.58-.762-.58-1.328.0-.575-.465-1.042-1.041-1.042-.575.0-1.04.467-1.04 1.042.0.25.025.49.065.724-2.136-.399-3.364-.912-3.996-1.642-.77-.89-1.531-5.619-1.638-5.819-.314-1.428-1.481-2.588-2.694-3.176.0.0-.502-.276-1.075-.385-.549-.105-1.185-.108-1.185-.108l-.016-.001c-1.805.053-3.931 1.059-4.38 3.155l-2.409 11.25c-.24 1.115.071 2.144.691 2.979L3.5 60.918.174 69.52c-.512 1.326.147 2.818 1.473 3.33.307.119.62.176.929.176 1.033.0 2.008-.627 2.403-1.647l3.469-8.97c.096-.244.151-.5.169-.76l.304-4.647 3.061 4.837 2.377 8.911c.308 1.151 1.349 1.913 2.486 1.913.221.0.443-.027.667-.087 1.374-.366 2.189-1.778 1.823-3.151l-2.477-9.293c-.068-.252-.173-.492-.313-.714l-4.167-6.585c.132-.266.24-.554.309-.871l.93-4.347c1.444 1.75 3.85 2.746 8.198 3.34.094.013.187.019.277.019.764.0 1.448-.435 1.791-1.093.539.171 1.106.291 1.673.366.161.772.845 1.353 1.665 1.353h.142v2.695h3.535l9.539 3.758-.002.006 5.043 1.987-4.813 1.892.006.011-13.446 5.297h-1.033v1.134h.319v.619c-.587.309-.992.918-.992 1.627.0 1.018.826 1.844 1.844 1.844 1.019.0 1.845-.826 1.845-1.844.0-.709-.407-1.318-.994-1.627v-.619h36.883v.619c-.589.309-.994.918-.994 1.627.0 1.018.825 1.844 1.845 1.844 1.019.0 1.844-.826 1.844-1.844.0-.709-.404-1.318-.992-1.627v-.619h.889v-1.134h-1.033L54.61 62.498v-.002l-6.216-2.449 6.656-2.617-.005-.011 7.936-3.125h3.533V51.6h.144c.843.0 1.537-.615 1.672-1.418 1.023-.176 2.031-.494 2.832-1.054.229.085.467.132.705.132.594.0 1.182-.259 1.58-.757.754-.94 1.411-1.813 1.99-2.582 1.342-1.786 2.279-3.027 3.425-3.874l-1.894 8.833c-.238 1.116.073 2.143.693 2.979l-.522 7.984-3.328 8.602c-.512 1.326.146 2.818 1.473 3.33.308.119.62.175.929.175 1.033.0 2.009-.625 2.403-1.647l3.47-8.97c.096-.243.15-.5.168-.761l.306-4.646 3.061 4.836 2.376 8.912c.307 1.152 1.35 1.913 2.486 1.913.221.0.444-.028.665-.087 1.376-.367 2.19-1.777 1.825-3.152l-2.479-9.293c-.064-.252-.171-.492-.31-.713l-4.17-6.586c.134-.266.243-.554.311-.871l1.667-7.782c1.803 1.804 3.818 2.836 9.08 3.555.093.013.188.019.275.019.996.0 1.863-.735 2.004-1.75C99.497 45.815 98.725 44.794 97.618 44.643zM54.217 63.487l.004-.009 9.551 3.763H30.104l10.952-4.313v0l5.879-2.311L54.217 63.487zM54.659 56.434v0l-7.724 3.035-6.109-2.408-.002.006-7.049-2.775h19.606 3.324H60.1L54.659 56.434zM65.378 53.156h-8.672-3.324H28.498v-1.561H53.16h4.177 8.042v1.561z"/></g></g><g/><g/><g/><g/><g/><g/><g/><g/><g/><g/><g/><g/><g/><g/><g/></svg>