<svg id="Capa_1" xmlns="http://www.w3.org/2000/svg" xmlns:xlink="http://www.w3.org/1999/xlink" width="96.427" height="96.428" viewBox="0 0 96.427 96.428" style="enable-background:new 0 0 96.427 96.428"><g><g><path d="M27.228 3.624l7.335-3.446C31.631.236 29.014 1.558 27.228 3.624z"/><path d="M39.605 1.428 31.601 5.19l9.695-2.567C40.774 2.169 40.211 1.767 39.605 1.428z"/><path d="M22.376 9.48c-.098.212-.182.416-.259.603-.408.991-.546 1.325-1.916 1.576l.532 2.9c2.95-.541 3.621-2.167 4.109-3.354.011-.025.019-.042.026-.063.512 5.023 4.734 8.947 9.892 8.947 5.502.0 9.96-4.46 9.96-9.962.0-1.703-.431-3.307-1.182-4.709l-17.512 4.636-.2-2.151 5.773-2.713-5.881 1.557h-.002l-.35.093c-.004.011-.006.021-.01.03-.393.116-1.002.251-1.321.136-.918-.337-1.967-1.484-2.288-2.507l-2.811.884C19.462 7.045 20.848 8.67 22.376 9.48z"/><path d="M29.852 96.428c2.523.0 4.568-2.047 4.568-4.57v-1.507l-9.133 1.572C25.323 94.416 27.35 96.428 29.852 96.428z"/><path d="M34.419 76.631 25.279 80.471V81.597L34.419 80.312z"/><path d="M61.904 38.65l-2.947-1.244c-6.285-2.284-8.707-5.417-11.251-8.722-1.76-2.285-5.849-6.922-10.463-8.018l-2.481 2.498-2.407-2.525c-.006.003-.014.003-.023.005-1.27.304-4.042 1.748-4.237 1.869-7.35 4.507-13.905 11.108-12.143 28.741.021.21.066.41.119.607l-1.008.043.599 1.98 2.108.275c.553.341 1.196.535 1.875.562v35.5H19.3v1.893c-.571.433-.946 1.11-.946 1.883v1.857h4.738v-1.857c0-.771-.375-1.45-.946-1.883v-1.893h-.432V54.225c1.284-.734 2.091-2.172 1.934-3.738-.584-5.851-.163-9.943.92-12.978.0.0.0 10.812.0 13.803s.71 3.668.71 3.668l.002 23.688 9.141-3.841-.002-14.748.651-.031v31.811c0 2.523 2.045 4.57 4.568 4.57 2.523.0 4.571-2.047 4.571-4.57V55.055c0 0 .748-1.193.748-3.743s0-13.856.0-13.856c2.778 2.916 6.688 5.852 13.409 7.911 2.262.458 3.565-.704 3.538-.682.591-.47 1.056-1.108 1.292-1.884C63.369 42.24 63.96 40.032 61.904 38.65z"/><path d="M25.28 90.117 34.42 88.545V87.379L25.279 86.24z"/><path d="M25.279 83.402V84.436L34.42 85.572 34.419 82.117z"/><circle cx="60.593" cy="9.904" r="9.904"/><path d="M62.201 46.984c-1.554.507-3.453-.002-3.453-.002-.273-.039-.545-.098-.816-.18-2.799-.858-5.27-1.904-7.489-3.174-.843 3.649-3.638 15.858-4.934 22.789v5.815c1.033.959 3.182 1.771 5.892 2.348l.001 17.089c0 2.51 2.034 4.545 4.544 4.544 2.51.0 4.544-2.034 4.544-4.544l-.001-16.171c.217.002.432-.004.646-.004l-.002 16.175c0 2.51 2.035 4.544 4.545 4.544s4.544-2.034 4.544-4.543l.001-17.365c2.705-.824 4.765-2.104 5.521-3.956.02-4.062-2.178-14.792-3.738-21.651C72.005 48.697 63.917 47.44 62.201 46.984z"/><path d="M63.011 20.36c-.01-.002-.018-.002-.025-.004l-2.393 2.511-2.467-2.483c-1.345.329-6.041 2.482-9.817 6.629.193.249.386.498.577.746 2.521 3.276 4.692 6.097 10.584 8.238l1.066.449c.922-.6 2.008-.957 3.164-.957.508.0 1.018.066 1.51.198.681.182 4.219.914 5.521 1.178v-1.558c1.222 1.365 2.39 3.053 2.853 4.006l-8.887-1.693c-.333-.089-.667-.131-.996-.131-.257.0-.509.034-.756.084.771.649 1.346 1.488 1.656 2.445l.037.137.164.763c.113.801.056 1.582-.172 2.323-.229.748-.621 1.428-1.146 2.007 1.9.47 5.362 1.218 8.414 1.433v.001c.002.0.004.0.006-.001.029.002.059.005.087.007l-.002-.01c.058.002.112.003.171.003 3.361.0 7.467-.8 8.842-4.683C83.726 34.309 70.498 22.761 63.011 20.36z"/></g></g><g/><g/><g/><g/><g/><g/><g/><g/><g/><g/><g/><g/><g/><g/><g/></svg>