<svg id="Capa_1" xmlns="http://www.w3.org/2000/svg" xmlns:xlink="http://www.w3.org/1999/xlink" width="124.888" height="124.887" viewBox="0 0 124.888 124.887" style="enable-background:new 0 0 124.888 124.887"><g><g><path d="M122.148 88.708l-21.168-30.34c-.584-.838-1.479-1.41-2.485-1.589-1.006-.18-2.043.049-2.881.634L65.275 78.583c-.144.101-.264.219-.39.335.226-1.789-.346-3.715-1.952-5.513-1.384-1.551-3.192-2.586-5.246-3.225 2.993-.866 5.602-2.302 6.986-4.657 2.798-4.757-3.892-7.153-7.237-7.813-6.752-1.333-13.97-1.11-20.746-.102-4.056.604-8.587 1.54-12.399 3.548-1.425-.609-2.803-1.281-4.108-2.032-4.161-2.396-3.358-4.868-.719-7.011.8.246 1.585.476 2.34.689 9.779 2.781 20.298 3.656 30.427 3.332 8.729-.28 20.298-1.438 27.323-7.052 5.406-4.319-1.216-7.947-5.604-9.432 12.279-2.104 26.054-6.427 18.184-14.369-3.508-3.54-12.622-5.829-23.755-6.767-17.507-2.397-35.231-7.136-52.944-5.581-6.014.527-12.743 2.299-14.971 8.56C-1.04 25.717 1.328 29.271 4.5 31.753c-2.005 2.846-2.412 6.148-.638 9.933 1.766 3.761 5.319 6.266 9.235 8.065-4.981 7.292-.914 12.315 5.878 15.669-6.257 7.76.615 13.244 8.557 16.566-.04 1.173.25 2.39 1.002 3.607 2.067 3.354 6.158 5.294 10.521 6.551-.38 1.543.352 2.992.985 4.354 1.154 2.481 1.804 5.036 2.175 7.746.534 3.896 6.433 2.231 5.903-1.629-.376-2.741-1.13-5.269-2.176-7.771 1.752-.152 3.521-.215 5.271-.33 3.252-.212 4.4-5.396.812-6.013-.981-.168-7.368-1.424-12.362-2.968.111.02.23.042.337.061 6.239 1.044 13.643 1.769 19.657-.688 1.708-.696 3.064-1.739 3.979-2.977.034.699.249 1.397.679 2.016 1.218 1.745 3.62 2.172 5.366.954l3.044-2.123-3.951 22.19 40.974 7.294 3.95-22.189 2.125 3.045c.609.871 1.515 1.415 2.485 1.587.971.174 2.008-.024 2.881-.633C122.938 92.856 123.366 90.454 122.148 88.708zM58.111 49.571C48.008 50.812 37.479 50 27.539 47.89c2.219-.843 4.215-1.441 5.265-1.696 11.295-2.752 23.767-3.236 35.272-1.603 1.83.26 3.635.656 5.405 1.178C68.998 48.143 62.919 48.981 58.111 49.571zM60.851 24.288c2.28.052 4.654.127 7.054.283l5.216.489c4.628.589 9.181 1.642 13.188 3.61.3.147 1.454.602 1.403.854-.052.252-.719.548-1.324.883-4.456 2.462-10.303 3.055-15.237 3.79-16.302 2.431-34.034 1.299-50.062-2.308-1.408-.317-3.468-.729-5.611-1.331 4.427-2.105 10.059-3.113 13.25-3.787C39.22 24.553 50.15 24.045 60.851 24.288zM6.214 24.536c-1.624-5.254 10.771-5.636 13.22-5.713 5.172-.165 10.327.14 15.47.691-10.646 1.52-20.216 4.229-26.098 8.201C7.556 26.843 6.604 25.801 6.214 24.536zM9.107 37.356c.137-.893.455-1.707.917-2.454 6.566 2.868 14.053 4.01 21.038 4.919.388.051.777.093 1.165.141-5.061.986-10.372 2.52-14.479 5.29C13.032 43.537 8.555 40.965 9.107 37.356zM34.796 64.123c6.721-1.464 14.229-1.702 21.014-.509.454.08.902.186 1.348.296-2.837 1.145-6.912 1.217-9.198 1.313-4.338.187-8.982-.142-13.524-1.019C34.571 64.172 34.697 64.144 34.796 64.123zM29.871 76.923c-2.836-1.106-5.339-2.625-6.742-4.774-1.073-1.645.004-3.119 1.88-4.346 5.633 1.796 11.78 2.809 16.063 3.264-3.388 1.021-6.445 2.381-8.622 3.745C31.508 75.404 30.624 76.118 29.871 76.923zM59.006 78.112c-.883 4.008-14.958 1.948-17.374 1.581-1.345-.205-2.936-.454-4.616-.785 3.105-1.582 7.361-2.275 9.82-2.689C48.397 75.956 59.56 75.592 59.006 78.112zM105.595 106.305l-9.021-1.604 2.222-12.474-12.814-2.28-2.221 12.472-9.021-1.605 3.951-22.19 18.175-12.682 12.682 18.175L105.595 106.305z"/><path d="M124.888 47.688 113.989 45.481 113.15 33.354 105.329 42.59 93.792 34.637 98.47 49.555 101.391 48.637 99.373 42.202 105.876 46.682 110.617 41.083 111.097 48.019 118.763 49.57 114.146 54.288 117.183 60.98 107.822 57.781 106.833 60.677 122.897 66.168 117.8 54.931z"/></g></g><g/><g/><g/><g/><g/><g/><g/><g/><g/><g/><g/><g/><g/><g/><g/></svg>