<svg id="Capa_1" xmlns="http://www.w3.org/2000/svg" xmlns:xlink="http://www.w3.org/1999/xlink" width="125.003" height="125.003" viewBox="0 0 125.003 125.003" style="enable-background:new 0 0 125.003 125.003"><g><g><path d="M122.653 64.541l-12.188-12.024c1.079 1.445 1.723 3.231 1.723 5.169.0 2.525-1.103 4.814-2.854 6.404.016 1.109.016 2.111.016 2.193.0.994-.102 3.55-.932 6.65l2.824 2.785c1.567 1.54 3.629 2.319 5.691 2.325 2.058.002 4.125-.769 5.695-2.312C125.785 72.645 125.794 67.637 122.653 64.541z"/><path d="M57.23 108.126 57.228 108l.003-.125c.018-.693.496-17.094 6.104-25.418l.229-.316c.29-.369 1.041-1.23 2.265-2.172l-2.149-.004v-.002h-1.276-1.283v.002l-11.993.02.04 27.078-19.245-.022.021-47.296 32.56-32.118 19.207 18.95c2.388-1.658 5.25-2.621 8.243-2.621h4.493c4.373.0 8.496 2.02 11.214 5.333 1.074.273 2.066.755 2.939 1.389L68.098 10.718c-1.18-1.163-2.697-1.912-4.319-2.194V8.499c-.391-.057-.783-.114-1.185-.114-.03.0-.064.01-.092.01-.037.0-.062-.01-.097-.01-.404.0-.794.058-1.187.114v.024c-1.621.282-3.137 1.031-4.319 2.194L2.348 64.541c-3.14 3.096-3.128 8.104.019 11.193 1.57 1.541 3.638 2.312 5.699 2.311 2.059-.006 4.122-.785 5.688-2.325l5.474-5.397-.021 46.296 43.295-.073.409.001c-.52-.214-1.039-.433-1.555-.662C60.029 115.289 57.337 113.432 57.23 108.126z"/><path d="M112.771 82.535c-1.027-.318-3.521-.637-6.158-1.162l-3.974-.998c-1.323-.43-2.49-.951-3.291-1.6.756-.774 1.447-1.696 2.068-2.758 1.995-3.42 2.707-7.416 2.707-10.014.0-.037-.021-3.852-.083-4.354-.046-.366-.111-.728-.194-1.083 1.725-.026 3.114-1.43 3.114-3.16.0-1.747-1.416-3.164-3.164-3.164h-.999c-1.452-2.997-4.523-5.066-8.078-5.066h-4.494c-3.555.0-6.627 2.069-8.078 5.066h-1c-1.747.0-3.163 1.417-3.163 3.164.0 1.729 1.392 3.135 3.116 3.16-.057.244-.107.488-.146.736-.104.646-.132 4.662-.132 4.701.0 2.598.711 6.594 2.706 10.014.621 1.062 1.312 1.982 2.067 2.758-.801.647-1.968 1.17-3.291 1.6l-3.974.998c-2.638.525-5.13.844-6.158 1.162-2.521.961-3.781 2.427-4.007 2.716-4.638 6.885-5.163 22.332-5.167 22.485.042 2.055.652 2.758.863 2.844 10.322 4.594 22.474 5.759 28.434 5.759.057.0.118-.001.175-.001s.119.001.175.001c5.96.0 18.112-1.165 28.436-5.759.211-.086.82-.789.862-2.844-.004-.153-.529-15.602-5.167-22.485C116.553 84.962 115.293 83.496 112.771 82.535zM102.118 66.105c0 1.931-.854 2.791-2.764 2.791-2.746.0-5.427-1.767-5.427-2.791.0-1.515 1.875-2.792 4.095-2.792C100.243 63.314 102.118 64.592 102.118 66.105zM86.925 63.314c2.219.0 4.095 1.278 4.095 2.792.0 1.025-2.682 2.793-5.427 2.793-1.911.0-2.764-.861-2.764-2.793C82.829 64.592 84.704 63.314 86.925 63.314zM92.474 80.157c-3.85.0-6.229-2.693-7.549-4.954-.908-1.557-1.526-3.242-1.919-4.838.747.463 1.71.729 2.911.729 2.39.0 5.024-1.347 6.624-1.347 1.599.0 4.101 1.347 6.489 1.347 1.202.0 2.165-.267 2.911-.729-.393 1.596-1.011 3.281-1.919 4.838C98.704 77.464 96.324 80.157 92.474 80.157z"/></g></g><g/><g/><g/><g/><g/><g/><g/><g/><g/><g/><g/><g/><g/><g/><g/></svg>