<svg id="Capa_1" xmlns="http://www.w3.org/2000/svg" xmlns:xlink="http://www.w3.org/1999/xlink" width="125.368" height="125.368" viewBox="0 0 125.368 125.368" style="enable-background:new 0 0 125.368 125.368"><g><g><path d="M125.368 89.18 110.766 92.309 111.378 95.167 117.68 93.817 112.842 99.604 117.748 104.61 111.109 104.453 108.954 111.604 104.875 106.797 98.243 109.092 102.113 100.473 99.446 99.274 92.801 114.069 103.941 110.215 110.203 117.598 113.266 107.43 124.874 107.706 116.784 99.449z"/><path d="M23.653 105.858c0 3.584 2.917 6.498 6.5 6.498 3.582.0 6.497-2.914 6.497-6.498.0-4.299 3.499-7.797 7.798-7.797 4.301.0 7.798 3.498 7.798 7.797.0 3.584 2.917 6.498 6.5 6.498s6.497-2.914 6.497-6.498c0-4.299 3.499-7.797 7.798-7.797 4.301.0 7.798 3.498 7.798 7.797.0.01.003.019.003.027l21.709-13.973c0 0-3.582-42.425-14.261-52.021l.015-.016c-.027-.019-.059-.034-.082-.054-.024-.02-.047-.047-.07-.068l-.014.017c-11.692-8.329-53.878-2.572-53.878-2.572L11.375 99.487c1.27-.896 2.812-1.426 4.479-1.426C20.156 98.061 23.653 101.559 23.653 105.858z"/><path d="M87.729 115.692c-6.809.0-12.349-5.539-12.349-12.348.0-1.076-.872-1.949-1.948-1.949s-1.951.873-1.951 1.949c0 6.809-5.537 12.348-12.345 12.348s-12.348-5.539-12.348-12.348c0-1.076-.872-1.949-1.949-1.949-1.076.0-1.949.873-1.949 1.949.0 6.809-5.538 12.348-12.347 12.348-6.808.0-12.348-5.539-12.348-12.348.0-1.076-.872-1.949-1.949-1.949-1.076.0-1.949.873-1.949 1.949.0 6.809-5.538 12.348-12.347 12.348-1.077.0-1.949.873-1.949 1.949s.872 1.949 1.949 1.949c6.17.0 11.547-3.459 14.296-8.537 2.751 5.078 8.127 8.537 14.297 8.537s11.547-3.459 14.296-8.537c2.751 5.078 8.127 8.537 14.297 8.537 6.169.0 11.546-3.459 14.296-8.537 2.75 5.078 8.127 8.537 14.297 8.537 1.076.0 1.949-.873 1.949-1.949S88.805 115.692 87.729 115.692z"/><path d="M117.814 15.27l-5.547-4.444c-.028-.028-.062-.058-.103-.092l-5.659-4.525c-.859-.685-2.21-.536-2.9.324-.709.889-.563 2.189.322 2.897l3.578 2.867-6.119 7.37-3.869-3.1c-2.461-1.972-4.555-.486-6.777 1.439-4.854-3.691-8.746 1.653-13.471 5.33-5.479-.345-11.26-.279-16.588-.032l-11.337 7.766c15.977-1.538 36.366-.928 42.909 3.72 5.964 5.372 11.007 25.139 12.987 41.064l5.109-12.756c-.922-5.255-2.119-10.912-3.648-16.183 2.41-5.105 6.443-9.813 2.979-13.632 1.416-2.62 2.448-5.012-.035-7.003l-4.135-3.313 6.118-7.369 3.604 2.888c.365.292.822.454 1.289.454.632.0 1.219-.282 1.611-.774C118.846 17.281 118.702 15.98 117.814 15.27z"/></g></g><g/><g/><g/><g/><g/><g/><g/><g/><g/><g/><g/><g/><g/><g/><g/></svg>