<svg id="Capa_1" xmlns="http://www.w3.org/2000/svg" xmlns:xlink="http://www.w3.org/1999/xlink" viewBox="0 0 297 297" style="enable-background:new 0 0 297 297"><g><path d="M214.002 246c-4.143.0-7.5-3.357-7.5-7.5s3.357-7.5 7.5-7.5h16.416v-18c0-8.284-6.133-15-14.416-15h-37.584v81h37.584c8.283.0 14.416-6.716 14.416-15v-18H214.002z"/><path d="M163.418 118c0-.338.555-.668.533-1H172c32.258.0 58.5-26.243 58.5-58.5S204.258.0 172 0h-47C92.744.0 66.5 26.243 66.5 58.5S92.744 117 125 117h9.053c-.023.332-.635.662-.635 1v164c0 8.284 6.715 15 15 15 8.283.0 15-6.716 15-15V118zM96.5 58.5C96.5 42.785 109.285 30 125 30h47c15.715.0 28.5 12.785 28.5 28.5S187.715 87 172 87h-47C109.285 87 96.5 74.215 96.5 58.5z"/></g><g/><g/><g/><g/><g/><g/><g/><g/><g/><g/><g/><g/><g/><g/><g/></svg>