<svg id="Capa_1" xmlns="http://www.w3.org/2000/svg" xmlns:xlink="http://www.w3.org/1999/xlink" width="31.996" height="31.995" viewBox="0 0 31.996 31.995" style="enable-background:new 0 0 31.996 31.995"><g><path d="M31.101 4.893c-.846-1.003-2.238-.533-2.633-.418-2.275-2.118-5.297-2.872-7.822-2.126l-1.557-1.668c-.391-.415-.924-.66-1.492-.679-.568-.02-1.121.188-1.537.575l-.966.902c-.415.388-.66.924-.679 1.492s.188 1.121.576 1.536l.188.202L9.293 5.222C9.126 5.237 8.981 5.346 8.922 5.502 8.863 5.66 8.899 5.836 9.017 5.958l-6.568 6.287-.123-.06c-.413-.201-.9-.175-1.29.068-.39.244-.626.671-.626 1.13v5.237c0 .354.179.685.475.876.296.192.67.225.993.08l3.898 7.186c-.23.226-.444.459-.641.719h-.83c-1.959.0-3.547 1.588-3.547 3.547v.968h18.666v-.968c0-1.959-1.588-3.547-3.547-3.547h-.093c-.787-1.041-1.859-1.806-3.098-2.237l-4.567-8.417.475-.209c.269-.119.444-.382.449-.675.006-.293-.16-.564-.424-.692l4.839-4.633c.213.223.534.307.829.216.295-.09.513-.34.564-.644l.829-4.941.867.93c-.917 2.466-.374 5.532 1.581 7.947-.793 2.291.961 3.255 1.75 3.255 2.017.0 5.006-2.119 7.131-4.104 1.563-1.461 2.875-3.026 3.688-4.41C31.752 7.071 31.841 5.774 31.101 4.893zM10.049 24.879c-.893.055-1.74.28-2.505.647L3.847 18.71l2.305-1.018L10.049 24.879zM6.563 14.248l-2.058-1.001 5.992-5.736 1.481 1.552L6.563 14.248zm18.981-2.542c-1.564 1.463-3.068 2.496-4.188 3.051-.229.114-.506.064-.682-.123-.176-.186-.207-.466-.078-.688.584-1.003 1.639-2.404 3.324-3.979 1.555-1.451 3.045-2.479 4.184-3.037.229-.113.506-.062.681.125.174.188.204.467.075.688C28.275 8.747 27.222 10.141 25.544 11.706z"/></g><g/><g/><g/><g/><g/><g/><g/><g/><g/><g/><g/><g/><g/><g/><g/></svg>