<svg id="Capa_1" xmlns="http://www.w3.org/2000/svg" xmlns:xlink="http://www.w3.org/1999/xlink" width="31.622" height="31.623" viewBox="0 0 31.622 31.623" style="enable-background:new 0 0 31.622 31.623"><g><g><path d="M31.622 5.663c0-.84-.683-1.521-1.521-1.521H1.521C.681 4.142.0 4.823.0 5.663v20.295C0 26.8.681 27.48 1.521 27.48h28.581c.84.0 1.521-.682 1.521-1.521V5.663H31.622zM28.559 24.417H3.062V7.153h25.497V24.417z"/><path d="M15.528 23.014h11.777V18.32c-1.656-.56-3.481-.887-5.451-.887-1.033.0-2.026.087-2.981.251v-2.911c0-.56-.47-1.014-1.026-1.014-.559.0-1.029.454-1.029 1.014v3.393c-.4.121-.762.254-1.132.401-.364-1.459-1.127-2.764-2.13-3.795v-3.258c0-.56-.469-1.014-1.029-1.014s-1.029.454-1.029 1.014v1.769c-.853-.456-1.857-.757-2.861-.87v-1.435c0-.56-.444-1.014-1.004-1.014s-1.004.454-1.004 1.014v1.464c-.853.118-1.606.359-2.359.697v9.874h6.051L15.528 23.014v0z"/><circle cx="23.454" cy="12.073" r="3.712"/></g></g><g/><g/><g/><g/><g/><g/><g/><g/><g/><g/><g/><g/><g/><g/><g/></svg>