<svg id="Capa_1" xmlns="http://www.w3.org/2000/svg" xmlns:xlink="http://www.w3.org/1999/xlink" width="32.004" height="32.004" viewBox="0 0 32.004 32.004" style="enable-background:new 0 0 32.004 32.004"><g><g><path d="M26.966 18.233h-1.784v-.744h.731c.614.0 1.13-.555 1.13-1.171V2.954c0-.615-.516-1.094-1.13-1.094H5.865c-.614.0-.903.479-.903 1.094v13.364c0 .617.289 1.171.903 1.171h.958v.744h-1.95L0 27.829v1.475c0 .464.376.841.84.841h30.324c.464.0.84-.377.84-.841v-1.475L26.966 18.233zM24.811 13.825c0 .791-.642 1.433-1.433 1.433H8.503c-.791.0-1.432-.642-1.432-1.433v-8.3c0-.791.641-1.432 1.432-1.432h14.875c.791.0 1.433.641 1.433 1.432v8.3zM19.352 17.491v.744H12.53v-.744H19.352zM13.226 27.042c-.163.0-.315-.084-.403-.221-.089-.135-.103-.311-.036-.457l.289-.648c.077-.174.25-.287.439-.287h4.749c.186.0.35.105.432.269l.322.65c.074.147.066.325-.021.467-.087.144-.242.229-.409.229L13.226 27.042v0zM6.47 24.562c-.264.0-.51-.136-.653-.354-.144-.222-.165-.5-.058-.74l1.524-3.404c.125-.281.403-.461.71-.461h15.624c.295.0.564.168.695.43l1.705 3.406c.121.24.104.527-.035.758-.143.229-.394.369-.662.369H6.47V24.562z"/></g></g><g/><g/><g/><g/><g/><g/><g/><g/><g/><g/><g/><g/><g/><g/><g/></svg>