<svg id="Capa_1" xmlns="http://www.w3.org/2000/svg" xmlns:xlink="http://www.w3.org/1999/xlink" width="31.666" height="31.666" viewBox="0 0 31.666 31.666" style="enable-background:new 0 0 31.666 31.666"><g><g><path d="M27.31 26.339v-1.265c0-1.239-1.004-2.243-2.244-2.243h-.051v-7.389c-1.49-.097-3.014-.7-4.139-1.795-1.98-1.928-1.992-3.884-1.841-4.885.085-.552.253-1.049.474-1.492.139-.28.123-.612-.041-.878-.166-.266-.455-.427-.77-.427h-5.737c-.312.0-.603.161-.767.427C12.03 6.658 12.014 6.99 12.152 7.27c.22.443.389.94.473 1.492.153 1.001.087 2.957-1.893 4.885-1.096 1.067-2.466 1.667-4.072 1.787v7.398H6.501c-1.116.0-2.021.904-2.021 2.021v1.485.048H3.803c-1.336.0-2.419 1.083-2.419 2.419v2.058h29.025v-2.491c0-1.095-.89-1.983-1.982-1.983h-1.115L27.31 26.339v0zM19.51 16.216c0-.883.723-1.598 1.605-1.598.882.0 1.606.715 1.606 1.598v6.615h-3.158-.055L19.51 16.216v0zM14.232 16.216c0-.883.723-1.598 1.606-1.598s1.607.715 1.607 1.598v6.615h-.013-3.194-.006V16.216v0zM8.955 16.216c0-.883.666-1.598 1.549-1.598.883.0 1.549.715 1.549 1.598v6.615H8.955V16.216z"/><path d="M30.037 3.274c-1.522-1.632-3.999-2.471-7.358-2.471h-3.271-3.641-3.508H8.987c-3.359.0-5.835.839-7.358 2.471C.441 4.545-.115 6.256.02 8.209c.165 2.399 1.796 4.494 4.154 5.33.676.241 1.358.36 2.013.36 1.363-.001 2.619-.505 3.515-1.466 1.048-1.122 1.186-2.269 1.118-3.031-.183-2.02-1.973-3.405-2.176-3.556C7.938 5.321 6.948 5.468 6.419 6.169c-.529.701-.389 1.7.309 2.235.345.265.873.858.909 1.29.006.068.02.247-.273.56-.532.57-1.445.516-2.123.277-.879-.312-1.94-1.164-2.034-2.536C3.135 6.933 3.39 6.08 3.964 5.462c.882-.945 2.619-1.447 5.022-1.447h3.271 3.508 3.641 3.271c2.401.0 4.139.502 5.021 1.447.572.618.83 1.469.757 2.531-.099 1.393-1.183 2.251-2.082 2.562-.666.23-1.556.275-2.058-.281-.312-.347-.295-.544-.284-.618.041-.424.553-.99.886-1.24.709-.517.867-1.512.353-2.224-.517-.715-1.515-.875-2.229-.36-.201.146-1.971 1.478-2.185 3.482-.082.771.039 1.936 1.09 3.1.885.982 2.146 1.5 3.521 1.5.637.0 1.295-.11 1.954-.338 2.4-.829 4.06-2.933 4.226-5.362C31.781 6.261 31.223 4.545 30.037 3.274z"/></g></g><g/><g/><g/><g/><g/><g/><g/><g/><g/><g/><g/><g/><g/><g/><g/></svg>