<svg id="Capa_1" xmlns="http://www.w3.org/2000/svg" xmlns:xlink="http://www.w3.org/1999/xlink" width="31.82" height="31.82" viewBox="0 0 31.82 31.82" style="enable-background:new 0 0 31.82 31.82"
	><g><path d="M19.427 15.983c-.697.667-1.432 1.57-2.1 2.781-.66-2.383-1.492-4.13-2.333-5.409C18.853.462.046.0.046.0s.549 16.114 10.371 15.744c-.02-1.079-.187-2.17-.421-3.193-.153-.667-.335-1.303-.523-1.89C8.845 8.714 8.136 7.332 8.136 7.332c.716.962 1.35 1.88 1.91 2.743 1.927 2.965 2.979 5.271 3.468 6.489 1.207 2.593 2.291 6.858 2.291 13.828.0.789.641 1.428 1.427 1.428.788.0 1.428-.639 1.428-1.428.0-2.259-.109-4.269-.306-6.062.455-2.188 1.142-3.741 1.853-4.841.467-.891 1.328-2.417 2.488-3.975 1.033-1.386 2.307-2.798 3.748-3.806.0.0-2.955 3.271-3.146 6.473 8.162.426 8.479-12.415 8.479-12.415S16.839 6.276 19.427 15.983z"/></g><g/><g/><g/><g/><g/><g/><g/><g/><g/><g/><g/><g/><g/><g/><g/></svg>