<svg id="Capa_1" xmlns="http://www.w3.org/2000/svg" xmlns:xlink="http://www.w3.org/1999/xlink" width="31.814" height="31.814" viewBox="0 0 31.814 31.814" style="enable-background:new 0 0 31.814 31.814"><g><g><path d="M26.459.0H5.246C3.609.0 2.273 1.333 2.273 2.969v25.743c0 1.703 1.393 3.103 3.098 3.103H26.46c1.703.0 3.082-1.396 3.082-3.103V3.094C29.542 1.389 28.163.0 26.459.0zM26.455 26.381c0 1.297-1.051 2.348-2.345 2.348H7.705c-1.294.0-2.345-1.051-2.345-2.348V5.348c0-1.297 1.051-2.347 2.345-2.347H24.11c1.294.0 2.345 1.05 2.345 2.347V26.381z"/><path d="M9.875 16.757c.858.0 1.6-.292 2.073-.892h.045l.133.729h2.032c-.075-.385-.094-1.063-.094-1.759v-2.521c0-1.705-.778-3.127-3.193-3.127-1.321.0-2.315.354-2.821.637l.417 1.452c.474-.297 1.26-.547 2.001-.547 1.111.0 1.323.547 1.323.934v.102c-2.571-.014-4.257.891-4.257 2.773C7.534 15.691 8.405 16.757 9.875 16.757zM11.877 13.172v.784c0 .137-.024.27-.053.39-.15.458-.612.828-1.176.828-.505.0-.884-.28-.884-.858C9.764 13.439 10.677 13.157 11.877 13.172z"/><path d="M18.236 14.021h2.861l.771 2.572h2.431l-3.098-9.99h-2.966l-3.052 9.99h2.34L18.236 14.021zM19.156 10.215c.162-.578.312-1.34.459-1.939h.029c.146.6.324 1.348.505 1.939l.622 2.134H18.56L19.156 10.215z"/><path d="M23.191 18.521H8.208c-.69.0-1.248.554-1.248 1.244.0.688.559 1.241 1.248 1.241h14.982c.689.0 1.248-.553 1.248-1.241C24.439 19.075 23.882 18.521 23.191 18.521z"/><path d="M23.191 22.295H8.208c-.69.0-1.248.555-1.248 1.244s.559 1.242 1.248 1.242h14.982c.689.0 1.248-.553 1.248-1.242S23.882 22.295 23.191 22.295z"/></g></g><g/><g/><g/><g/><g/><g/><g/><g/><g/><g/><g/><g/><g/><g/><g/></svg>