<svg id="Capa_1" xmlns="http://www.w3.org/2000/svg" xmlns:xlink="http://www.w3.org/1999/xlink" viewBox="0 0 296 296" style="enable-background:new 0 0 296 296"><g><path d="M289.068 128.114c-.719-.718-1.395-1.38-2.185-1.994C277.491 66.137 230.15 18.755 170.165 9.366c-.443-.573-.888-1.131-1.385-1.664C164.217 2.807 157.74.0 150.973.0h-5.279c-6.768.0-13.266 2.807-17.828 7.702-.497.533-.963 1.091-1.406 1.664C66.475 18.756 19.093 66.137 9.701 126.119c-.79.615-1.717 1.276-2.436 1.995C2.687 132.689.0 138.814.0 145.36v5.279c0 6.546 2.687 12.671 7.264 17.246.719.719 1.564 1.38 2.354 1.995 9.392 59.982 56.816 107.363 116.799 116.753.443.573.93 1.131 1.427 1.664 4.563 4.895 11.081 7.702 17.849 7.702h5.279c6.768.0 13.266-2.807 17.828-7.702.497-.533.963-1.091 1.406-1.664 59.984-9.389 107.367-56.77 116.759-116.753.79-.615 1.384-1.276 2.103-1.995 4.577-4.575 6.931-10.7 6.931-17.246v-5.279C296 138.814 293.646 132.689 289.068 128.114zM281 145.36v5.279c0 5.265-3.947 9.325-9.111 9.325-.231.0-.381-.008-.615-.024l-21.245-1.491c-5.486-.385-9.955-5.087-9.955-10.449s4.5-10.064 9.986-10.449l21.292-1.491c.234-.017.303-.024.534-.024C277.05 136.035 281 140.096 281 145.36zM160.363 24.976l-1.536 21.287c-.385 5.486-5.109 9.976-10.472 9.976-5.362.0-10.076-4.489-10.461-9.976l-1.496-21.287c-.385-5.486 3.795-9.976 9.295-9.976h5.459C156.652 15 160.748 19.489 160.363 24.976zM56.571 148c0 5.362-4.489 10.064-9.976 10.449l-21.287 1.491c-.234.017-.634.024-.865.024-5.164.0-9.444-4.061-9.444-9.325v-5.279c0-5.265 4.281-9.325 9.444-9.325.232.0.547.008.782.024l21.329 1.491C52.04 137.936 56.571 142.638 56.571 148zM145.693 281c-5.5.0-9.686-4.489-9.301-9.976l1.491-21.287c.385-5.486 5.087-9.976 10.449-9.976 5.362.0 10.064 4.489 10.449 9.976l1.491 21.287c.385 5.486-3.801 9.976-9.301 9.976H145.693zM148.334 208c-33.083.0-60-26.917-60-60s26.917-60 60-60c33.084.0 60 26.917 60 60S181.418 208 148.334 208z"/></g><g/><g/><g/><g/><g/><g/><g/><g/><g/><g/><g/><g/><g/><g/><g/></svg>