<svg id="Capa_1" xmlns="http://www.w3.org/2000/svg" xmlns:xlink="http://www.w3.org/1999/xlink" width="455.6" height="455.6" viewBox="0 0 455.6 455.6" style="enable-background:new 0 0 455.6 455.6"
	><g><path d="M414.801 44.2H40.8C18.265 44.2.0 62.465.0 85v231.2c0 22.535 18.265 40.801 40.8 40.801h149.6V384.2H136c-11.268.0-20.4 9.133-20.4 20.4v6.799H340v-6.799c0-11.268-9.133-20.4-20.4-20.4h-54.4v-27.199h149.602c22.535.0 40.799-18.266 40.799-40.801V85C455.6 62.465 437.336 44.2 414.801 44.2zM127.983 218.28l33.123 15.898 13.974-51.456 53.237 31.872 36.693-62.179 87.346-40.712 5.752 12.322-83.531 38.937-41.506 70.332-49.572-29.674-13.546 49.899-39.284-18.85-25.554 24.914-9.493-9.736L127.983 218.28zM374 309.312V295.8H61.2v-170H45.152l21.699-37.577L88.549 125.8H74.8v156.4H374v-16.279l37.576 21.699L374 309.312z"/></g><g/><g/><g/><g/><g/><g/><g/><g/><g/><g/><g/><g/><g/><g/><g/></svg>