<svg id="Capa_1" xmlns="http://www.w3.org/2000/svg" xmlns:xlink="http://www.w3.org/1999/xlink" width="31.843" height="31.842" viewBox="0 0 31.843 31.842" style="enable-background:new 0 0 31.843 31.842"><g><path d="M31.843 7.546c.006-.389-.146-.764-.418-1.042-.271-.277-.646-.433-1.035-.433h-6.396c-.181.0-.344.109-.413.276-.067.167-.028.359.099.487l1.233 1.232c.195.194.306.457.306.732.0.274-.108.538-.305.732l-6.26 6.257c-.536.537-1.405.537-1.939.0l-4.039-4.039c-.239-.239-.562-.373-.9-.373s-.662.134-.901.373L.372 22.245c-.496.498-.496 1.305.0 1.803L1.726 25.4c.239.239.562.372.9.372.338.0.661-.133.9-.37l7.277-7.276c.536-.535 1.405-.535 1.94.0l3.968 3.969c.258.256.605.399.971.399s.715-.146.973-.399l9.416-9.417c.193-.194.457-.303.73-.303.274.0.539.109.731.304l1.453 1.457c.127.127.316.166.484.099.166-.067.273-.228.279-.407L31.843 7.546z"/></g><g/><g/><g/><g/><g/><g/><g/><g/><g/><g/><g/><g/><g/><g/><g/></svg>