<svg id="Capa_1" xmlns="http://www.w3.org/2000/svg" xmlns:xlink="http://www.w3.org/1999/xlink" width="120.742" height="120.741" viewBox="0 0 120.742 120.741" style="enable-background:new 0 0 120.742 120.741"><g><path d="M97.386 47.166H91.72V31.35C91.72 14.064 77.657.0 60.37.0 43.084.0 29.021 14.064 29.021 31.35v15.816h-5.667c-3.028.0-5.484 2.456-5.484 5.484v62.607c0 3.029 2.456 5.484 5.484 5.484h74.032c3.028.0 5.484-2.455 5.484-5.484V52.65C102.871 49.622 100.415 47.166 97.386 47.166zM41.778 31.35c0-10.253 8.34-18.594 18.592-18.594 10.253.0 18.594 8.341 18.594 18.594v15.816H41.778V31.35zM66.871 105.371c0 3.59-2.91 6.5-6.5 6.5s-6.5-2.91-6.5-6.5v-15c0-3.59 2.91-6.5 6.5-6.5s6.5 2.91 6.5 6.5v15zm27-40.75h-67v-8.5h67v8.5z"/></g><g/><g/><g/><g/><g/><g/><g/><g/><g/><g/><g/><g/><g/><g/><g/></svg>