<svg id="Capa_1" xmlns="http://www.w3.org/2000/svg" xmlns:xlink="http://www.w3.org/1999/xlink" viewBox="0 0 296 296" style="enable-background:new 0 0 296 296"><g><path d="M296 73.851C296 60.126 284.733 49 270.834 49H25.166C11.267 49 0 60.126.0 73.851V222.15C0 235.874 11.267 247 25.166 247h245.668C284.733 247 296 235.874 296 222.149V73.851zM23.864 74.552c2.734-3.111 7.47-3.419 10.585-.687l66.294 58.221c-2.856 4.634-4.515 9.979-4.835 15.717L24.551 85.137C21.438 82.403 21.132 77.664 23.864 74.552zM110 150.361c0-5.487 2-10.552 6-14.259v-14.188C116 104.363 130.674 90 148.227 90h.213C165.992 90 180 104.363 180 121.914v14.777c3 3.647 5 8.462 5 13.67v35C185 196.39 176.861 205 165.833 205h-35C119.805 205 110 196.39 110 185.361v-35zM200.318 147.314c-.4-5.484-2.318-10.793-5.318-15.503v-.21l66.267-58.539c3.097-2.753 8.045-2.473 10.797.622 2.752 3.096 2.369 7.837-.726 10.589L200.318 147.314z"/><path d="M131 121.914V130h34v-8.086c0-9.28-7.279-16.914-16.561-16.914h-.213C138.945 105 131 112.634 131 121.914z"/><path d="M155 172.311c5-2.462 7.578-7.177 7.578-12.592.0-7.959-6.37-14.412-14.329-14.412-7.957.0-14.535 6.453-14.535 14.412.0 4.997 2.286 9.399 6.286 11.984v11.566c0 3.949 3.553 7.146 7.502 7.146 3.947.0 7.498-3.197 7.498-7.146V172.311z"/></g><g/><g/><g/><g/><g/><g/><g/><g/><g/><g/><g/><g/><g/><g/><g/></svg>