<svg id="Capa_1" xmlns="http://www.w3.org/2000/svg" xmlns:xlink="http://www.w3.org/1999/xlink" width="393.333" height="393.333" viewBox="0 0 393.333 393.333" style="enable-background:new 0 0 393.333 393.333"><g><g><path d="M363.967 297.689c-.192-.883-4.84-21.865-14.451-45.248-13.891-33.793-31.048-56.599-52.104-66.662-3.387-1.619-33.855-16.264-33.855-16.264l-14.431-12.168-18.343 18.244-11.427.948-19.296-19.191-14.43 12.168-26.014 11.978L34.791 191.848c-2.26.188-4.268 1.519-5.318 3.529-1.051 2.01-.999 4.418.137 6.381 10.109 17.473 18.418 33.645 25.258 48.499-1.091.968-2.101 1.897-2.979 2.761-23.656 23.252-22.507 46.557-14.336 59.449 5.305 8.37 14.331 12.949 23.558 12.948 5.1.0 10.262-1.399 14.888-4.332 1.271-.806 2.446-1.702 3.538-2.666 2.004 7.994 3.421 15.089 4.412 21.257 4.784 29.787.981 44.966.895 45.301-.552 2.027-.108 4.197 1.196 5.847 1.258 1.59 3.171 2.512 5.189 2.512.085.0.171-.002.257-.005l198.567-7.712c3.524-.138 6.322-3.015 6.361-6.541.055-4.963-.055-9.994-.294-15.066 1.316.191 2.646.297 3.978.297 6.61.0 13.248-2.341 18.563-7.095l36.667-32.798C362.815 317.715 366.117 307.503 363.967 297.689zM99.053 379.788c1.212-11.646 1.433-34.916-8.028-70.05 10.259-8.957 14.898-21.198 12.298-32.807.675.387 1.473.596 2.239.533l7.301-.602c2.749-.229 4.805-1.291 6.112-3.159s1.497-4.015.566-6.38l-19.6-49.771c-.526-1.334-2.206-2.311-3.753-2.183l-4.499.371c-1.549.127-2.378 1.312-1.853 2.646l17.894 45.438c.478 1.213.388 2.288-.268 3.202-.652.91-1.695 1.434-3.104 1.549l-2.225.186c-.678.055-1.207.321-1.556.707-.217-.414-.442-.826-.68-1.234-6.162-10.612-20.114-9.461-26.267-8.354-7.121-16.881-16.102-35.438-27.418-55.698l191.274-15.865c6.715 16.009 30.012 74.18 40.505 134.142-3.106 8.659-3.964 23.608 4.294 32.854.476 5.842.775 11.63.87 17.324L99.053 379.788zM290.243 307.875l5.05-40.421c3.927 8.646 7.405 17.985 10.141 26.833L290.243 307.875z"/><path d="M224.593 156.334c36.981.0 64.579-34.458 65.209-92.241C290.201 23.996 271.107.0 224.593.0c-46.517.0-65.614 23.996-65.208 64.093C160.013 121.876 187.609 156.334 224.593 156.334z"/><path d="M129.664 315.591l96-6c5.512-.344 9.701-5.092 9.355-10.604-.344-5.512-5.087-9.692-10.604-9.355l-96 6c-5.512.344-9.701 5.092-9.356 10.604.331 5.301 4.733 9.377 9.971 9.377C129.24 315.611 129.452 315.605 129.664 315.591z"/><path d="M230.416 330.334l-96 6c-5.512.344-9.701 5.092-9.356 10.604.331 5.3 4.733 9.376 9.971 9.376.21.0.421-.008.634-.021l96-6c5.512-.344 9.701-5.092 9.355-10.604C240.676 334.178 235.926 330 230.416 330.334z"/><path d="M134.923 271.093c3.941 2.293 8.047 3.282 12.201 2.939 4.155-.343 7.246-1.927 9.191-4.704 1.945-2.779 2.217-6.001.808-9.581l-13.694-34.774c-1.411-3.578-4.125-6.562-8.076-8.869-3.947-2.307-8.055-3.303-12.208-2.959-4.154.342-7.244 1.934-9.184 4.727-1.938 2.793-2.208 6.023-.799 9.602l13.695 34.774C128.265 265.825 130.979 268.803 134.923 271.093zM123.502 223.417c.63-.925 1.665-1.453 3.071-1.569 1.405-.115 2.784.213 4.098.978 1.315.764 2.224 1.767 2.701 2.978l13.694 34.774c.478 1.211.389 2.289-.266 3.2-.654.914-1.697 1.436-3.104 1.552-1.407.116-2.775-.206-4.071-.961-1.289-.749-2.186-1.745-2.664-2.956l-13.694-34.773C122.79 225.425 122.869 224.343 123.502 223.417z"/><path d="M170.374 269.619c.526 1.334 2.207 2.312 3.754 2.183l17.407-1.437c2.749-.229 4.794-1.273 6.078-3.111 1.287-1.836 1.466-3.969.534-6.335l-7.29-18.512c-.344-.875-1.02-1.61-1.997-2.177-.987-.575-2.004-.825-3.019-.741l-.033-.085c1.013-.084 1.775-.479 2.259-1.172.486-.694.559-1.489.215-2.365l-7.256-18.428c-.955-2.422-2.761-4.418-5.366-5.934-2.607-1.516-5.322-2.17-8.068-1.943L150.184 211c-1.548.128-2.377 1.312-1.853 2.646L170.374 269.619zM180.526 245.318c.98.562 1.665 1.314 2.031 2.246l4.281 10.869c.365.928.304 1.752-.183 2.449-.485.693-1.278 1.092-2.358 1.18l-6.358.524-6.872-17.45 6.358-.525C178.505 244.521 179.549 244.761 180.526 245.318zM167.141 218.499c1.077-.089 2.124.156 3.11.729s1.673 1.334 2.038 2.264l4.281 10.871c.366.929.305 1.753-.182 2.447-.485.694-1.28 1.092-2.358 1.183l-6.358.524-6.89-17.494L167.141 218.499z"/><path d="M193.716 229.764c1.297 3.295 3.744 6.117 7.294 8.399 4.125 2.616 8.512 3.769 13.058 3.422 1.395-.114 2.755.208 4.044.958 1.292.752 2.193 1.749 2.67 2.96l3.428 8.704c.477 1.212.396 2.289-.243 3.199-.636.912-1.673 1.433-3.079 1.549-1.406.115-2.783-.205-4.093-.958-1.309-.75-2.213-1.744-2.689-2.955l-.771-1.959c-.524-1.334-2.204-2.312-3.753-2.183l-4.501.371c-1.549.127-2.377 1.312-1.852 2.646l.771 1.958c1.41 3.579 4.131 6.555 8.09 8.846 3.958 2.29 8.072 3.279 12.227 2.937s7.246-1.927 9.193-4.706c1.943-2.779 2.215-6.001.806-9.58l-3.428-8.704c-1.298-3.296-3.744-6.117-7.295-8.401-4.127-2.615-8.49-3.754-12.97-3.384-1.406.116-2.785-.213-4.1-.977-1.314-.765-2.225-1.769-2.702-2.979l-3.41-8.662c-.478-1.211-.392-2.295.258-3.22.649-.928 1.691-1.457 3.097-1.573 1.405-.115 2.776.215 4.073.979 1.299.768 2.202 1.771 2.678 2.98l.755 1.916c.525 1.334 2.204 2.312 3.753 2.184l4.499-.371c1.549-.129 2.377-1.312 1.853-2.647l-.754-1.915c-1.408-3.578-4.125-6.562-8.074-8.869-3.948-2.307-8.056-3.303-12.208-2.959-4.154.342-7.252 1.934-9.211 4.728-1.954 2.795-2.231 6.026-.822 9.604L193.716 229.764z"/></g></g><g/><g/><g/><g/><g/><g/><g/><g/><g/><g/><g/><g/><g/><g/><g/></svg>