<svg id="Capa_1" xmlns="http://www.w3.org/2000/svg" xmlns:xlink="http://www.w3.org/1999/xlink" viewBox="0 0 296.244 296.244" style="enable-background:new 0 0 296.244 296.244"><g><path d="M189.91.0C131.279.0 83.577 47.701 83.577 106.334c0 21.192 6.234 40.954 16.962 57.554l-97.622 97.62c-3.89 3.89-3.89 10.253.0 14.143l17.678 17.677c3.89 3.89 10.253 3.89 14.143.0l97.62-97.621c16.6 10.727 36.361 16.961 57.553 16.961 58.633.0 106.334-47.701 106.334-106.333C296.244 47.701 248.543.0 189.91.0zm0 182.667c-42.09.0-76.333-34.243-76.333-76.333C113.577 64.243 147.821 30 189.91 30c42.091.0 76.334 34.243 76.334 76.334C266.244 148.424 232.001 182.667 189.91 182.667z"/><path d="M189.91 45c-33.819.0-61.333 27.515-61.333 61.334.0 33.819 27.514 61.333 61.333 61.333 33.819.0 61.334-27.514 61.334-61.333C251.244 72.515 223.73 45 189.91 45zm-38.833 68.834c-4.143.0-7.5-3.357-7.5-7.5C143.577 80.785 164.363 60 189.91 60c4.143.0 7.5 3.357 7.5 7.5s-3.357 7.5-7.5 7.5c-17.277.0-31.333 14.057-31.333 31.334C158.577 110.477 155.22 113.834 151.077 113.834z"/></g><g/><g/><g/><g/><g/><g/><g/><g/><g/><g/><g/><g/><g/><g/><g/></svg>