<svg id="Capa_1" xmlns="http://www.w3.org/2000/svg" xmlns:xlink="http://www.w3.org/1999/xlink" width="31.425" height="31.424" viewBox="0 0 31.425 31.424" style="enable-background:new 0 0 31.425 31.424"><g><g><path d="M31.078 8.604c-.006-.005-.014-.009-.018-.014-.27-.266-.644-.371-.99-.314l-4.002.052c-.633.009-1.139.528-1.131 1.161.008.631.487 1.102 1.16 1.13l1.34-.017-1.961 1.961c-1.166-.86-2.57-1.325-4.047-1.325-1.826.0-3.543.711-4.834 2.002-2.664 2.665-2.664 7.002.0 9.667 1.291 1.291 3.008 2.002 4.834 2.002 1.825.0 3.543-.711 4.834-2.002 2.36-2.362 2.633-6.035.811-8.696l2.059-2.053v1.499c0 .633.514 1.145 1.146 1.145.635.0 1.146-.513 1.146-1.145V9.417C31.425 9.113 31.296 8.819 31.078 8.604zM24.643 21.287c-1.716 1.716-4.709 1.716-6.427.0-1.772-1.771-1.772-4.655.0-6.427.859-.858 2-1.331 3.214-1.331 1.215.0 2.354.473 3.215 1.331C26.416 16.631 26.416 19.516 24.643 21.287z"/><path d="M6.839 5.538C3.069 5.538.0 8.604.0 12.374c0 3.34 2.415 6.128 5.576 6.721v2.066H3.784c-.633.0-1.145.514-1.145 1.146s.512 1.146 1.145 1.146h1.792v1.287c0 .633.514 1.146 1.147 1.146.633.0 1.148-.515 1.148-1.146v-1.287h1.882c.633.0 1.146-.516 1.146-1.146.0-.635-.513-1.146-1.146-1.146H7.871v-2.029c3.291-.5 5.803-3.34 5.803-6.758C13.674 8.604 10.609 5.538 6.839 5.538zM6.839 16.917c-2.507.0-4.545-2.039-4.545-4.545s2.038-4.545 4.545-4.545c2.505.0 4.544 2.039 4.544 4.545S9.345 16.917 6.839 16.917z"/></g></g><g/><g/><g/><g/><g/><g/><g/><g/><g/><g/><g/><g/><g/><g/><g/></svg>