<svg id="Capa_1" xmlns="http://www.w3.org/2000/svg" xmlns:xlink="http://www.w3.org/1999/xlink" width="484.337" height="484.337" viewBox="0 0 484.337 484.337" style="enable-background:new 0 0 484.337 484.337"><g><path d="M322 247.146c0 44.091-35.74 79.832-79.832 79.832s-79.832-35.741-79.832-79.832c0-44.091 35.741-79.832 79.832-79.832S322 203.055 322 247.146zM366.356 442.292c0-48.987-39.712-88.706-88.706-88.706h-70.964c-48.987.0-88.706 39.712-88.706 88.706v35.482h248.37v-35.482H366.356zM300.417 65.552l-54.862-58.99-54.849 58.99 9.826 9.153 31.62-34.027v99.688h26.826V40.698l31.613 34.007L300.417 65.552zM425.347 302.001l58.99-54.862-58.99-54.849-9.152 9.826 34.027 31.62h-99.688v26.826h99.675l-34.007 31.613L425.347 302.001zM68.143 292.175l-34.007-31.613h99.668v-26.826H34.116l34.027-31.62-9.153-9.826L0 247.139l58.99 54.862L68.143 292.175z"/></g><g/><g/><g/><g/><g/><g/><g/><g/><g/><g/><g/><g/><g/><g/><g/></svg>