<svg id="Capa_1" xmlns="http://www.w3.org/2000/svg" xmlns:xlink="http://www.w3.org/1999/xlink" width="95.235" height="95.234" viewBox="0 0 95.235 95.234" style="enable-background:new 0 0 95.235 95.234"><g><path d="M84.953 4.602c.002.006.015.035.021.048h-.062C84.926 4.637 84.941 4.608 84.953 4.602z"/><g><path d="M65.203 23.357v-2.916h.631c1.181.0 2.136-.956 2.136-2.135V8.029c0-1.179-.955-2.135-2.136-2.135H64.15c.018-.162.027-.332.027-.509.0-.13-.011-.254-.019-.376h.445c1.539.0 2.791-1.252 2.791-2.79h-.951c0 1.015-.826 1.84-1.84 1.84h-.631c-.217-.614-.599-.989-1.066-.989s-.848.375-1.065.989h-7.125V.278h-2.851v3.781h-1.972V4.034h-5.099c-.219-.614-.598-.989-1.065-.989s-.85.375-1.066.989h-.631c-.632.0-1.19-.321-1.521-.81-.19-.289-.304-.635-.304-1.006h-.012c0-.009-.002-.017-.002-.024h-.951c0 .579.178 1.117.481 1.563.5.753 1.354 1.251 2.324 1.251h.43C42.47 5.122 42.46 5.237 42.46 5.36c0 .177.011.347.027.509h-1.684c-1.181.0-2.136.956-2.136 2.135v10.277c0 1.179.955 2.135 2.136 2.135h.631v2.916h.674c.049 1.511-.184 3.721-.543 5.022-.015.055-.035.107-.051.161-.174-.225-.349-.449-.522-.676-1.701-2.209-4.415-5.541-10.112-7.749l-2.398 2.414-2.326-2.44c-.006.002-.014.002-.022.004-1.228.294-2.431.813-3.505 1.521-.2.079-13.175 8.126-12.327 28.065.192 1.929 1.819 3.367 3.717 3.367.123.0.25-.008.377-.021 2.053-.205 3.551-2.037 3.346-4.091-.563-5.653-.158-9.61.89-12.542.0.0.0 10.242.0 13.341.0 3.099.69 3.548.69 3.548L19.325 88.9c0 2.438 1.979 4.416 4.418 4.416 2.439.0 4.416-1.979 4.416-4.418l-.002-30.717c.174.01.351.021.525.021.035.0.067-.004.104-.004V88.9c0 2.439 1.978 4.418 4.416 4.418 2.439.0 4.418-1.979 4.418-4.418V53.328c0 0 .72-.967.72-3.617.0-2.651.0-13.393.0-13.393.174.182.353.364.535.547.002.137-.002.271.009.411.106 1.659.721 2.912 1.771 3.621.658.445 1.48.669 2.412.67.554.0 1.156-.107 1.777-.271 1.804.983 3.921 1.891 6.457 2.667.188.058.379.099.569.126v42.854h-1.334c-2.524.0-4.685 1.575-5.563 3.793-.944.287-1.638 1.154-1.638 2.193.0 1.271 1.031 2.305 2.304 2.305s2.304-1.033 2.304-2.305c0-.611-.242-1.164-.628-1.574.586-1.195 1.803-2.027 3.223-2.027h4.518.849c1.419.0 2.636.832 3.223 2.027-.387.411-.629.963-.629 1.574.0 1.271 1.031 2.305 2.305 2.305 1.272.0 2.303-1.033 2.303-2.305.0-1.039-.692-1.906-1.637-2.193-.879-2.218-3.039-3.793-5.564-3.793h-.747-.435v-43.64c.569-.454 1.02-1.071 1.248-1.821.166-.542.19-1.092.116-1.619 2.009.423 4.228 1.021 5.166 1.321.822.271 1.607.405 2.326.405.933-.001 1.754-.225 2.412-.67 1.051-.709 1.664-1.962 1.771-3.621.164-2.314-.681-4.142-1.494-5.909-.443-.959-.9-1.952-1.191-3.013-.358-1.302-.592-3.512-.543-5.022h.67V23.357zM43.435 5.009h.588c.011.111.025.22.025.352.0.188-.015.357-.035.509h-.568c-.021-.151-.035-.32-.035-.509C43.41 5.229 43.424 5.12 43.435 5.009zM41.015 13.854v-1.688h1.875v-1.875h1.688v1.875h1.875v1.688h-1.875v1.875H42.89v-1.875H41.015zM40.978 40.409c-.854-.577-1.343-1.575-1.479-2.942 1.264 1.177 2.757 2.335 4.601 3.413C42.853 41.099 41.77 40.943 40.978 40.409zM51.868 36.27c-5.284-1.92-7.743-4.462-9.912-7.192.062-.188.125-.374.179-.566.368-1.342.608-3.614.562-5.179h.361v-2.916h1.383v1.286h1.621v-1.286h.592c1.18.0 2.135-.956 2.135-2.135V8.004c0-1.179-.955-2.135-2.135-2.135h-1.682c.018-.162.026-.332.026-.509.0-.122-.009-.237-.018-.352h6.886L51.868 36.27v0zM62.953 4.011c.002.006.015.034.021.048h-.062C62.926 4.045 62.942 4.017 62.953 4.011zM62.618 5.009h.584c.013.12.027.235.027.376.0.188-.014.357-.035.509h-.568c-.021-.151-.034-.32-.034-.509C62.59 5.244 62.606 5.129 62.618 5.009zM65.729 31.639c.82 1.777 1.596 3.457 1.443 5.622-.099 1.494-.607 2.562-1.513 3.173-1.02.688-2.52.756-4.231.193-.697-.223-3.22-.921-5.484-1.385-.225-.692-.65-1.31-1.227-1.771V5.009h6.94c-.01.122-.02.246-.02.376.0.177.01.347.026.509h-1.682c-1.18.0-2.135.956-2.135 2.135v10.277c0 1.179.955 2.135 2.135 2.135h.592v1.286h1.621v-1.286h1.383v2.916h.361c-.047 1.564.193 3.837.562 5.179C64.809 29.642 65.276 30.657 65.729 31.639zM62.969 15.497c-1.24.0-2.245-1.005-2.245-2.245.0-1.24 2.245-4.755 2.245-4.755s2.245 3.515 2.245 4.755C65.214 14.492 64.208 15.497 62.969 15.497z"/><circle cx="28.376" cy="9.775" r="9.775"/></g></g><g/><g/><g/><g/><g/><g/><g/><g/><g/><g/><g/><g/><g/><g/><g/></svg>