<svg id="Capa_1" xmlns="http://www.w3.org/2000/svg" xmlns:xlink="http://www.w3.org/1999/xlink" width="588.052" height="588.052" viewBox="0 0 588.052 588.052" style="enable-background:new 0 0 588.052 588.052"><g><path d="M107.213 176.678c0-34.66 28.098-62.75 62.75-62.75s62.75 28.098 62.75 62.75c0 34.66-28.098 62.75-62.75 62.75S107.213 211.337 107.213 176.678zM337.326 401.473c-5.195 8.479-17.893 9.492-27.072 5.283l-56.167-26.826c-7.473-3.57-12.974-10.275-15.014-18.307l-11.336-44.668-.02 242.018c0 14.574-10.663 27.574-25.167 28.949-16.633 1.576-30.614-11.451-30.614-27.758.0 16.307-13.98 29.334-30.62 27.758-14.504-1.375-25.16-14.383-25.16-28.949V413.738c0 11.936-12.328 21.502-24.412 21.502-13.348.0-24.392-11.314-24.392-22.65v-54.631-48.811c0-26.955 21.855-48.811 48.811-48.811h115.709c18.809.0 41.12 9.541 44.71 32.857 2.373 15.389 5.93 54.039 5.93 54.039.258 2.34 1.686 4.387 3.781 5.447l45.404 22.951C338.861 379.291 343.812 390.891 337.326 401.473zM449.832 301.594h-87.83c-7.221.0-12.818 6.977-10.41 14.559 1.449 4.576 6.08 7.398 10.881 7.398h.17c6.344.0 12.137 3.584 14.973 9.254l.115.232c3.822 7.643 11.635 12.471 20.184 12.471h16.027c8.547.0 16.359-4.828 20.182-12.471l.115-.232c2.836-5.67 8.637-9.254 14.975-9.254h.17c4.801.0 9.424-2.828 10.879-7.398C462.648 308.57 457.06 301.594 449.832 301.594zM460.316 274.475c0 6.065-4.916 10.982-10.982 10.982h-87.828c-6.064.0-10.982-4.917-10.982-10.982.0-5.848 4.584-10.581 10.35-10.914-6.834-61.778-70.733-75.534-70.733-148.281C290.14 51.612 341.751.0 405.419.0S520.7 51.612 520.7 115.28c0 72.747-63.9 86.503-70.734 148.281C455.726 263.895 460.316 268.627 460.316 274.475zM380.117 30.797c-1.707-4.209-6.494-6.236-10.723-4.542-28.057 11.37-49.328 35.673-56.896 65.008-1.135 4.406 1.518 8.895 5.916 10.03.688.184 1.381.266 2.061.266 3.666.0 7.012-2.469 7.971-6.175 6.27-24.303 23.887-44.438 47.137-53.856C379.791 39.814 381.824 35.02 380.117 30.797z"/></g><g/><g/><g/><g/><g/><g/><g/><g/><g/><g/><g/><g/><g/><g/><g/></svg>