<svg id="Capa_1" xmlns="http://www.w3.org/2000/svg" xmlns:xlink="http://www.w3.org/1999/xlink" viewBox="0 0 475.492 475.492" style="enable-background:new 0 0 475.492 475.492"><g><path d="M177.268 233.351c12.159-9.556 19.991-24.381 19.991-41.009.0-28.757-23.395-52.152-52.152-52.152s-52.152 23.396-52.152 52.152c0 16.629 7.832 31.453 19.991 41.009-22.455 11.669-37.838 35.135-37.838 62.141v55.487c0 11.74 7.437 21.776 17.847 25.645v77.084c0 12.011 9.772 21.783 21.783 21.783h60.737c12.011.0 21.783-9.772 21.783-21.783v-77.084c10.41-3.869 17.847-13.905 17.847-25.645v-55.487C215.106 268.486 199.723 245.02 177.268 233.351zM111.956 192.341c0-18.28 14.872-33.152 33.152-33.152s33.152 14.872 33.152 33.152c0 18.28-14.872 33.152-33.152 33.152S111.956 210.621 111.956 192.341zM196.106 350.979c0 4.556-3.668 8.27-8.206 8.346-5.284.087-9.64 4.108-9.64 9.393v84.991c0 1.537-1.246 2.783-2.783 2.783h-16.912c-2.185.0-3.956-1.771-3.956-3.956v-71.401c0-5.06-3.818-9.478-8.867-9.805-5.533-.358-10.133 4.024-10.133 9.479v71.727c0 2.185-1.771 3.956-3.956 3.956h-16.912c-1.537.0-2.783-1.246-2.783-2.783v-84.991c0-5.285-4.356-9.306-9.64-9.393-4.538-.075-8.206-3.79-8.206-8.346v-54.632c0-27.925 22.092-51.315 50.013-51.845 28.57-.542 51.984 22.541 51.984 50.989V350.979z"/><path d="M305.387.0c-52.381.0-94.996 42.615-94.996 94.996.0 19.298 5.666 37.632 16.446 53.406l-15.252 27.479c-1.783 3.211-1.554 7.163.587 10.147 1.804 2.515 4.692 3.963 7.718 3.963.566.0 1.137-.051 1.707-.155l44.853-8.182c12.272 5.534 25.354 8.336 38.938 8.336 52.381.0 94.996-42.615 94.996-94.996S357.768.0 305.387.0zm0 170.991c-11.728.0-22.985-2.609-33.458-7.755-1.311-.644-2.744-.974-4.189-.974-.569.0-1.14.051-1.705.154l-28.09 5.124 8.455-15.233c1.854-3.34 1.527-7.467-.831-10.473-10.583-13.494-16.177-29.691-16.177-46.839.0-41.904 34.091-75.996 75.996-75.996s75.996 34.091 75.996 75.996S347.292 170.991 305.387 170.991z"/><path d="M347.11 53.273c-3.71-3.711-9.725-3.711-13.435.0l-28.288 28.288-28.288-28.288c-3.71-3.711-9.725-3.711-13.435.0-3.71 3.71-3.71 9.725.0 13.435l28.288 28.288-28.288 28.288c-3.71 3.71-3.71 9.725.0 13.435 1.855 1.855 4.286 2.783 6.717 2.783s4.862-.927 6.717-2.783l28.288-28.288 28.288 28.288c1.855 1.855 4.286 2.783 6.717 2.783s4.862-.927 6.717-2.783c3.71-3.71 3.71-9.725.0-13.435l-28.288-28.288 28.288-28.288C350.82 62.998 350.82 56.983 347.11 53.273z"/></g><g/><g/><g/><g/><g/><g/><g/><g/><g/><g/><g/><g/><g/><g/><g/></svg>