<svg id="Capa_1" xmlns="http://www.w3.org/2000/svg" xmlns:xlink="http://www.w3.org/1999/xlink" viewBox="0 0 429 429" style="enable-background:new 0 0 429 429"><path d="M425.253 168.092 281.712 58.861C275.405 27.524 247.668 3.848 214.5 3.848s-60.905 23.676-67.212 55.013L3.747 168.092C1.386 169.889.0 172.685.0 175.652v240c0 5.247 4.253 9.5 9.5 9.5h410c5.247.0 9.5-4.253 9.5-9.5v-240C429 172.685 427.614 169.889 425.253 168.092zM214.5 140.972c.003.0.006.0.01.0 40.953.005 74.27 33.325 74.27 74.28v25.267l-47.508 27.567-21.018-15.994c-3.398-2.587-8.107-2.587-11.506.0l-21.019 15.995-47.509-27.567v-25.267c0-40.955 33.317-74.275 74.271-74.28C214.494 140.972 214.497 140.972 214.5 140.972zM251.92 129.816c15.888-10.392 27.225-27.183 30.299-46.693l120.191 91.462-94.631 54.91v-14.243C307.779 177.119 284.776 144.263 251.92 129.816zm-130.7 85.436v14.242l-94.63-54.909L146.78 83.123c3.075 19.51 14.412 36.301 30.299 46.693C144.223 144.263 121.22 177.119 121.22 215.252zm50.131 65.298L19 396.485V192.148L171.351 280.55zM214.5 271.59l176.828 134.562H37.672L214.5 271.59zM257.649 280.549 410 192.148v204.337L257.649 280.549zM214.5 22.848c27.329.0 49.563 22.233 49.563 49.562.0 27.325-22.227 49.555-49.55 49.562-.004.0-.008.0-.013.0s-.009.0-.013.0c-27.323-.007-49.55-22.237-49.55-49.562C164.938 45.081 187.171 22.848 214.5 22.848z"/><g/><g/><g/><g/><g/><g/><g/><g/><g/><g/><g/><g/><g/><g/><g/></svg>