<svg id="Capa_1" xmlns="http://www.w3.org/2000/svg" xmlns:xlink="http://www.w3.org/1999/xlink" width="97.594" height="97.594" viewBox="0 0 97.594 97.594" style="enable-background:new 0 0 97.594 97.594"><g><g><circle cx="48.194" cy="10.099" r="10.099"/><path d="M50.708 20.784l-2.515 2.532c0 0-2.474-2.552-2.465-2.556-.011.004-20.023 6.825-16.406 30.535.202 2.021 1.708 4.031 3.697 4.031.131.0.263-.006.396-.02 2.154-.216 3.726-2.138 3.511-4.291-.593-5.93-.166-10.081.931-13.155.0.0.0 10.928.0 13.993.0 3.463.717 3.813.717 3.813l.002 37.294c.001 2.559 2.075 4.633 4.634 4.633 2.56.0 4.634-2.074 4.634-4.633L47.842 60.74c.184.009.367.023.552.023.036.0.071-.005.107-.005L48.5 92.96c0 2.56 2.075 4.633 4.634 4.633 2.56.0 4.634-2.073 4.634-4.633l.001-37.312c0 0 .763-1.023.763-3.795.0-2.373.0-4.715.0-4.715 3.321-.638 8.882-2.425 10.082-7.347C69.917 34.442 57.647 22.777 50.708 20.784zM58.53 34.812c1.87 1.756 2.318 2.772 2.421 3.11-.354.367-1.284.803-2.421 1.151V34.812zM54.205 50.818h-12.02c-.583.0-1.057-.473-1.057-1.057V31.931c0-.583.474-1.056 1.057-1.056h2.675v-.462c0-.583.473-1.057 1.056-1.057h4.559c.583.0 1.057.473 1.057 1.057v.462h2.675c.583.0 1.057.473 1.057 1.056v7.797c-.932.224-1.759.333-2.188.364-2.159.156-3.784 2.033-3.628 4.192.148 2.064 1.869 3.639 3.905 3.639.096.0.189-.003.286-.01.452-.033 1.008-.098 1.623-.196v2.045C55.261 50.346 54.788 50.818 54.205 50.818z"/></g></g><g/><g/><g/><g/><g/><g/><g/><g/><g/><g/><g/><g/><g/><g/><g/></svg>