<svg id="Capa_1" xmlns="http://www.w3.org/2000/svg" xmlns:xlink="http://www.w3.org/1999/xlink" width="97.539" height="97.538" viewBox="0 0 97.539 97.538" style="enable-background:new 0 0 97.539 97.538"><g><g><path d="M52.439 89.465l-8.914 3.459c.547 2.514 3.009 4.133 5.538 3.621 2.553-.518 4.201-3.006 3.685-5.559L52.439 89.465z"/><path d="M49.629 75.59 41.173 81.344 41.403 82.482 50.383 79.312z"/><path d="M51.831 86.457 42.354 87.18 43.149 91.1 52.069 87.639z"/><path d="M50.751 81.139 41.774 84.309 41.984 85.354 51.46 84.631z"/><path d="M70.48 49.946c.407-.54.696-1.182.794-1.9.305-2.235-1.26-4.295-3.495-4.601-12.383-1.693-12.777-3.921-14.246-14.262-.022-.167-.074-.32-.117-.478-.314-3.266-2.885-5.957-5.568-7.259.0.0-1.016-.556-2.173-.778-1.108-.211-2.392-.218-2.392-.218l-.031-.002c-3.644.105-7.933 2.137-8.84 6.368l-4.867 22.711c-.63 2.947.638 5.593 2.723 7.457l-5.961 34.302c-.506 2.903 1.44 5.667 4.345 6.172.31.054.617.08.92.08 2.546.0 4.802-1.83 5.252-4.425l3.11-17.893.87 4.299 8.457-5.756-3.259-16.154c1.168-.986 2.06-2.318 2.427-4.035l1.843-8.599c2.402 2.806 6.088 4.63 12.097 5.848l.193.64 2.175.285c.57.352 1.234.553 1.935.58v38.176h-.354v1.952c-.589.446-.978 1.147-.978 1.942v1.916h4.891v-1.916c0-.795-.387-1.496-.978-1.942v-1.952h-.444V51.812C69.551 51.385 70.137 50.727 70.48 49.946z"/><circle cx="50.188" cy="10.522" r="10.522"/></g></g><g/><g/><g/><g/><g/><g/><g/><g/><g/><g/><g/><g/><g/><g/><g/></svg>