<svg id="Capa_1" xmlns="http://www.w3.org/2000/svg" xmlns:xlink="http://www.w3.org/1999/xlink" viewBox="0 0 456.266 456.266" style="enable-background:new 0 0 456.266 456.266"><path d="M297.165 152.715c16.804-11.43 27.864-30.703 27.864-52.512.0-34.997-28.473-63.47-63.47-63.47s-63.47 28.473-63.47 63.47c0 19.571 8.909 37.097 22.879 48.749-14.363 2.853-28.405 7.225-42.021 13.122l-6.28-13.844c-3.991-8.797-11.338-15.03-19.844-17.89v-4.525c13.067-1.569 23.232-12.716 23.232-26.2V86.942c0-13.484-10.165-24.631-23.232-26.2v-26.94c2.498 1.188 4.232 3.73 4.232 6.675v7.041c0 5.247 4.253 9.5 9.5 9.5s9.5-4.253 9.5-9.5v-7.041c0-13.484-10.165-24.631-23.232-26.2V9.5c0-5.247-4.253-9.5-9.5-9.5s-9.5 4.253-9.5 9.5v4.776c-13.068 1.568-23.233 12.716-23.233 26.2v12.672c0 13.484 10.166 24.632 23.233 26.2v26.941c-2.498-1.188-4.233-3.73-4.233-6.676.0-5.247-4.253-9.5-9.5-9.5s-9.5 4.253-9.5 9.5c0 13.484 10.166 24.632 23.233 26.2v3.823c-1.854.478-3.692 1.111-5.494 1.928-8.147 3.696-14.367 10.344-17.515 18.718s-2.846 17.473.851 25.62l20.624 45.46c7.347 16.19 26.493 23.386 42.683 16.041l23.118-10.488v204.306c0 13.809 11.234 25.042 25.043 25.042h38.417c.003.0.007.0.01.0s.006.0.01.0h38.417c13.809.0 25.043-11.234 25.043-25.042v-99.342c13.066-4.059 22.582-16.263 22.582-30.646v-70.211C347.611 196.271 326.891 166.286 297.165 152.715zM261.559 55.733c24.521.0 44.47 19.949 44.47 44.47s-19.949 44.47-44.47 44.47-44.47-19.949-44.47-44.47S237.039 55.733 261.559 55.733zM157.055 86.942v12.672c0 2.945-1.735 5.487-4.232 6.675V80.267C155.321 81.455 157.055 83.997 157.055 86.942zM129.59 53.149V40.477c0-2.946 1.735-5.487 4.233-6.676v26.024C131.325 58.636 129.59 56.095 129.59 53.149zM328.611 301.235c0 7.212-5.866 13.08-13.078 13.082-5.249.001-9.504 4.251-9.504 9.5v107.405c0 3.337-2.706 6.043-6.043 6.043h-22.695c-3.442.0-6.232-2.79-6.232-6.232v-91.729c0-5.06-3.819-9.478-8.869-9.805-5.533-.358-10.131 4.024-10.131 9.48v92.054c0 3.442-2.79 6.232-6.232 6.232h-22.695c-3.337.0-6.043-2.706-6.043-6.043V221.773c0-4.515-1.036-8.865-3.08-12.929-1.664-3.308-5.008-5.233-8.493-5.233-1.313.0-2.647.274-3.919.851l-34.476 15.641c-6.646 3.016-14.515.061-17.53-6.588l-20.624-45.46c-2.208-4.866-1.618-10.517 1.836-15.045.41-.537.869-1.037 1.369-1.49 7.768-7.046 19.254-4.119 23.191 4.56l10.131 22.33c.492 1.083 1.14 2.101 1.988 2.935 2.945 2.898 7.17 3.511 10.659 1.929l5.153-2.343c24.887-11.316 51.376-17.023 78.724-16.958 36.851.087 66.593 30.2 66.593 67.051V301.235z"/><g/><g/><g/><g/><g/><g/><g/><g/><g/><g/><g/><g/><g/><g/><g/></svg>