<svg id="Capa_1" xmlns="http://www.w3.org/2000/svg" xmlns:xlink="http://www.w3.org/1999/xlink" width="97.13" height="97.131" viewBox="0 0 97.13 97.131" style="enable-background:new 0 0 97.13 97.131"><g><g><g><path d="M43.787 97.131c2.577.0 4.665-2.09 4.665-4.667v-1.537l-9.172 1.604C39.315 95.078 41.232 97.131 43.787 97.131z"/><path d="M48.449 76.92 39.271 80.84V81.99L48.449 80.679z"/><path d="M39.272 90.689 48.452 89.084V87.893L39.271 86.732z"/><path d="M39.271 83.834V84.889L48.452 86.049 48.449 82.523z"/></g><g><path d="M51.371 20.466l-2.511 2.526-2.436-2.555c-.006.003-.014.003-.023.005-1.284.308-4.089 1.769-4.287 1.892-7.436 4.56-14.068 11.238-12.284 29.078.021.212.066.414.12.613l-1.02.045.605 2.004 2.133.277c.56.346 1.211.543 1.897.569v35.916h-.349v1.914c-.578.438-.957 1.124-.957 1.905v1.879h4.793v-1.879c0-.78-.379-1.469-.957-1.905v-1.914h-.437V54.418c1.299-.744 2.115-2.197 1.956-3.783-.591-5.918-.165-10.06.931-13.128.0.0.0 10.892.0 13.964.0 3.073.716 3.709.716 3.709l.002 23.967 9.248-3.887-.001-14.92c.182.01.366.023.551.023.036.0.071-.004.108-.004v32.133c0 2.553 2.067 4.623 4.622 4.623 2.553.0 4.625-2.07 4.625-4.623V55.257c0 0 .759-.579.759-3.787.0-3.206.0-14.019.0-14.019 1.246 4.114 1.104 8.32 1.056 11.765-.326 4.729.891 5.813 3.26 6.046.127.014.254.02.38.02 1.96.0 3.567-1.402 3.831-3.48.07-.561.121-1.125.187-1.689C68.628 43.769 69.57 26.812 51.371 20.466z"/><circle cx="48.658" cy="9.945" r="9.945"/></g></g></g><g/><g/><g/><g/><g/><g/><g/><g/><g/><g/><g/><g/><g/><g/><g/></svg>