<svg id="Capa_1" xmlns="http://www.w3.org/2000/svg" xmlns:xlink="http://www.w3.org/1999/xlink" width="98.062" height="98.062" viewBox="0 0 98.062 98.062" style="enable-background:new 0 0 98.062 98.062"><g><g><path d="M52.14 19.426l-2.575 2.593-2.498-2.621c-.006.003-.014.003-.023.005-1.318.315-4.196 1.873-4.398 1.999-.021.012-.04.026-.061.038l5.451 13.889 5.405-15.487C53.012 19.681 52.58 19.534 52.14 19.426z"/><path d="M47.979 38.029l-.001-.009-6.283-16.065c-.083.053-.167.106-.251.161L38.95 37.989l-.933-.007 2.284-15.077c-.974.696-8.38 6.102-11.324 15.701-.436 1.403-.5 3.389.413 4.542.969 1.225 1.902 1.825 9.106 2.179.0-.019 8.857-.052 8.857-.052 2.017.0 3.656-1.639 3.656-3.653C51.01 39.819 49.695 38.328 47.979 38.029z"/><path d="M52.602 25.393 48.493 37.17c.793.203 1.507.601 2.074 1.155L52.602 25.393z"/><path d="M54.458 20.286l-2.983 18.953c0 0 .717 1.479.591 2.632-.275 2.525-2.169 4.359-4.71 4.359h-8.371c0 0 0 1.957.0 5.004s.779 3.648.779 3.648l.002 38.877.051-.004c.224 2.41 2.226 4.306 4.695 4.306 2.619.0 4.741-2.125 4.741-4.745v-1.562H49.25v-1.873h.001V88.67H49.25v-1.875h.001l-.001-3.586v-1.873-3.822V60.333c.187.009.376.023.563.023.038.0.072-.005.112-.005v32.966c0 2.619 2.122 4.744 4.741 4.744 2.618.0 4.744-2.125 4.744-4.744V55.119c0 0 .735-.869.735-3.885.0-3.016.0-14.901.0-14.901.284.298 2.318 9.104 1.821 14.251-.193 1.996 1.256 3.775 3.253 3.977.123.014.245.02.366.02 1.843.0 3.423-1.398 3.609-3.271C70.597 37.324 64.388 24.203 54.458 20.286z"/><circle cx="49.443" cy="9.329" r="9.329"/></g></g><g/><g/><g/><g/><g/><g/><g/><g/><g/><g/><g/><g/><g/><g/><g/></svg>