<svg id="Capa_1" xmlns="http://www.w3.org/2000/svg" xmlns:xlink="http://www.w3.org/1999/xlink" viewBox="0 0 442.469 442.469" style="enable-background:new 0 0 442.469 442.469"><g><path d="M432.969 4.901h-331c-5.247.0-9.5 4.253-9.5 9.5v54.602c-4.986-1.432-10.244-2.215-15.685-2.215-31.395.0-56.937 25.542-56.937 56.936.0 18.752 9.117 35.411 23.147 45.791C17.554 182.038.0 208.225.0 238.444v61.711c0 12.86 8.313 23.814 19.849 27.771v86.481c0 12.771 10.39 23.161 23.16 23.161h67.55c12.771.0 23.161-10.39 23.161-23.161V300.901h299.249c5.247.0 9.5-4.253 9.5-9.5v-277C442.469 9.155 438.216 4.901 432.969 4.901zm-321.5 19h312v233H133.72v-26.588c0-4.123 3.354-7.477 7.477-7.477h63.343c16.866.0 30.588-13.722 30.588-30.588.0-14.838-10.621-27.237-24.658-30.006v-24.221c0-5.247-4.253-9.5-9.5-9.5h-43c-5.247.0-9.5 4.253-9.5 9.5v23.639h-29.274c9.024-10.078 14.525-23.375 14.525-37.936.0-18.348-8.733-34.687-22.251-45.106V23.901zm80 137.759h-24v-14.139h24V161.66zM38.848 123.725c0-20.918 17.019-37.936 37.937-37.936s37.936 17.018 37.936 37.936S97.702 161.66 76.784 161.66 38.848 144.643 38.848 123.725zM114.72 230.313v184.093c0 2.294-1.866 4.161-4.161 4.161H86.284v-85.237c0-5.247-4.253-9.5-9.5-9.5s-9.5 4.253-9.5 9.5v85.237H43.009c-2.294.0-4.16-1.866-4.16-4.161l-.001-94.403c0-5.247-4.253-9.5-9.5-9.5-5.706.0-10.348-4.642-10.348-10.348v-61.711c0-31.862 25.922-57.784 57.784-57.784h127.755c6.39.0 11.588 5.199 11.588 11.588s-5.198 11.588-11.588 11.588h-63.343C126.597 203.837 114.72 215.714 114.72 230.313zM133.72 281.901v-6h289.749v6H133.72z"/><path d="M338.969 206.683h43c5.247.0 9.5-4.253 9.5-9.5V60.401c0-5.247-4.253-9.5-9.5-9.5h-43c-5.247.0-9.5 4.253-9.5 9.5v136.781C329.469 202.429 333.722 206.683 338.969 206.683zM348.469 69.901h24v117.781h-24V69.901z"/><path d="M248.469 206.683h43c5.247.0 9.5-4.253 9.5-9.5V96.315c0-5.247-4.253-9.5-9.5-9.5h-43c-5.247.0-9.5 4.253-9.5 9.5v100.867C238.969 202.429 243.222 206.683 248.469 206.683zm9.5-100.868h24v81.867h-24V105.815z"/></g><g/><g/><g/><g/><g/><g/><g/><g/><g/><g/><g/><g/><g/><g/><g/></svg>