<svg id="Capa_1" xmlns="http://www.w3.org/2000/svg" xmlns:xlink="http://www.w3.org/1999/xlink" width="98.602" height="98.602" viewBox="0 0 98.602 98.602" style="enable-background:new 0 0 98.602 98.602"><g><g><circle cx="30.841" cy="10.4" r="10.4"/><circle cx="68.523" cy="23.709" r="9.798"/><path d="M94.844 93.066l-.375-1.396-8.09 3.736c.659 2.308 3.041 3.67 5.362 3.043C94.086 97.82 95.475 95.41 94.844 93.066z"
			/><path d="M93.725 88.91 84.956 90.136 85.926 93.734 94.016 89.992z"/><path d="M92.409 84.027l-7.696 3.275c.012-.021.021-.046.032-.068.017-.221.025-.442.046-.662.034-.426.104-.844.196-1.252l6.976-2.969-4.509-17.199c-.155-.59-.438-1.115-.791-1.578.048.0.095.004.146.004 2.098.0 3.801-1.703 3.801-3.805.0-2.1-1.703-3.804-3.801-3.804-5.734.0-9.428-2.364-11.342-14.452-.045-.274-.117-.536-.215-.785-.476-3.521-3.709-5.879-6.732-6.62.0.0-1.029-.31-2.127-.285-1.051.024-2.223.268-2.223.268L64.143 34.1c-3.295.808-6.807 3.493-6.807 7.523v19.604l-2.875-20.389c-.228-1.704-1.8-2.899-3.496-2.673-1.705.227-2.902 1.792-2.672 3.496l.146 1.07c-.072-.014-.139-.043-.213-.054-6.328-.866-10.197-1.374-12.09-3.744-1.463-1.833-2.207-11.001-2.418-11.4-.627-2.847-2.957-5.162-5.377-6.335.0.0-1.004-.55-2.148-.769-1.094-.208-2.363-.215-2.363-.215l-.031-.002c-3.6.104-7.842 2.112-8.738 6.294l-4.809 22.446c-.477 2.226.146 4.277 1.383 5.943l-1.045 15.93L3.953 87.988c-1.023 2.646.293 5.623 2.939 6.646.609.235 1.236.349 1.854.349 2.059.0 4.006-1.25 4.793-3.287l6.92-17.896c.189-.484.303-.997.336-1.518l.607-9.271 6.105 9.649 4.744 17.781c.611 2.299 2.689 3.816 4.961 3.816.438.0.883-.057 1.328-.175 2.742-.731 4.371-3.546 3.641-6.289l-4.945-18.54c-.133-.503-.342-.984-.621-1.424l-8.313-13.139c.264-.531.48-1.105.613-1.74l1.49-7.617c2.18 2.647 12.924 5.555 18.033 5.572.383-.019.756-.086 1.107-.205l2.551 18.328c-1.685 2.812-2.654 6.099-2.654 9.607.0 10.344 8.414 18.76 18.757 18.76 6.836.0 12.828-3.676 16.105-9.154l.002.006c.024-.072.057-.143.082-.215l.117.427 8.766-1.226L92.409 84.027zM73.143 57.712c1.953 1.735 4.158 3.241 6.646 4.476l-6.646-.031V57.712zM68.2 90.997c-6.813.0-12.36-5.546-12.36-12.361.0-1.55.299-3.026.823-4.396.222.033.443.057.673.057H79.76c.512 1.354.805 2.812.805 4.339C80.564 85.451 75.018 90.997 68.2 90.997z"/></g></g><g/><g/><g/><g/><g/><g/><g/><g/><g/><g/><g/><g/><g/><g/><g/></svg>