<svg id="Capa_1" xmlns="http://www.w3.org/2000/svg" xmlns:xlink="http://www.w3.org/1999/xlink" width="546.57" height="546.57" viewBox="0 0 546.57 546.57" style="enable-background:new 0 0 546.57 546.57"><g><path d="M208.06 62.75c0-34.66 28.098-62.75 62.75-62.75 34.653.0 62.751 28.098 62.751 62.75.0 34.66-28.098 62.75-62.751 62.75C236.157 125.501 208.06 97.403 208.06 62.75zM406.926 500.351l-83.423-37.066c3.774-4.896 6.065-10.996 6.229-17.49l77.193-34.299 33.517 14.892 36.85-61.111-137.537 16.368 33.518 14.892L329.8 415.854V299.812c0 11.935 12.328 21.502 24.412 21.502 13.349.0 24.392-11.315 24.392-22.65v-54.631-48.811c0-26.955-21.855-48.811-48.811-48.811H217.001c-26.955.0-48.81 21.855-48.81 48.811v48.811 54.631c0 11.335 11.05 22.65 24.392 22.65 12.083.0 24.412-9.567 24.412-21.502v116.145l-43.704-19.421 33.518-14.892L69.292 365.275l36.842 61.111 33.517-14.892 77.432 34.408c.184 6.419 2.441 12.443 6.161 17.299l-83.599 37.148-33.518-14.892L69.278 546.57l137.537-16.367-33.518-14.893 99.98-44.424 99.98 44.424-33.518 14.893 137.544 16.367-36.843-61.111L406.926 500.351z"/></g><g/><g/><g/><g/><g/><g/><g/><g/><g/><g/><g/><g/><g/><g/><g/></svg>