<svg id="Capa_1" xmlns="http://www.w3.org/2000/svg" xmlns:xlink="http://www.w3.org/1999/xlink" viewBox="0 0 419.232 419.232" style="enable-background:new 0 0 419.232 419.232"><path d="M361.926 76.873c0-8.941-3.455-17.272-9.601-23.521V28.249c0-3.399-1.816-6.539-4.762-8.234-2.946-1.695-6.574-1.688-9.512.021L298.17 43.214h-43.251c-18.56.0-33.66 15.1-33.66 33.66.0 11.593 5.891 21.834 14.836 27.891-1.487 1.956-2.787 4.1-3.844 6.43l-6.28 13.844c-13.527-5.858-27.474-10.212-41.739-13.066 13.805-11.652 22.596-29.067 22.596-48.504.0-34.998-28.473-63.47-63.47-63.47s-63.47 28.472-63.47 63.47c0 21.697 10.949 40.878 27.606 52.329-29.588 13.625-50.188 43.539-50.188 78.192v70.211c0 14.384 9.516 26.587 22.583 30.646v99.342c0 13.808 11.234 25.042 25.042 25.042h76.854c13.809.0 25.042-11.234 25.042-25.042V189.884l23.118 10.488c7.842 3.558 16.602 3.849 24.664.819s14.46-9.018 18.019-16.86l20.624-45.46c3.696-8.147 3.999-17.246.851-25.62-.349-.928-.742-1.832-1.165-2.716h5.231l39.882 23.179c1.476.858 3.124 1.287 4.773 1.287 1.635.0 3.271-.422 4.738-1.266 2.946-1.695 4.762-4.835 4.762-8.234v-25.095C358.516 94.087 361.926 85.749 361.926 76.873zM254.918 62.214h36.311v29.32h-36.311c-8.083.0-14.66-6.576-14.66-14.66S246.835 62.214 254.918 62.214zM98.888 63.47c0-24.521 19.949-44.47 44.47-44.47s44.47 19.949 44.47 44.47-19.949 44.469-44.47 44.469S98.888 87.99 98.888 63.47zM275.949 131.021l-20.624 45.46c-3.017 6.65-10.881 9.604-17.53 6.588l-34.475-15.641c-4.663-2.116-10.147-.141-12.439 4.438-2.026 4.047-3.054 8.378-3.054 12.874v209.45c0 3.337-2.705 6.042-6.042 6.042h-23.223c-3.15.0-5.704-2.554-5.704-5.704v-92.256c0-5.06-3.818-9.478-8.867-9.805-5.533-.358-10.133 4.024-10.133 9.479v92.582c0 3.15-2.554 5.704-5.704 5.704h-23.223c-3.337.0-6.042-2.705-6.042-6.042v-107.407c0-5.249-4.255-9.498-9.504-9.5-7.211-.002-13.078-5.87-13.078-13.082v-70.211c0-36.852 29.742-66.964 66.594-67.051 27.348-.064 53.837 5.642 78.722 16.957l5.039 2.291c1.079.491 2.233.826 3.416.893 4.115.234 7.7-2.08 9.281-5.565l10.049-22.15c1.479-3.26 4.004-5.991 7.256-7.487 5.003-2.301 10.758-1.647 15.252 1.895 1.027.809 1.931 1.776 2.671 2.854C277.617 121.038 278.053 126.386 275.949 131.021zM333.325 108.991l-23.096-13.423V58.181l23.096-13.423v64.233z"/><g/><g/><g/><g/><g/><g/><g/><g/><g/><g/><g/><g/><g/><g/><g/></svg>