<svg id="Capa_1" xmlns="http://www.w3.org/2000/svg" xmlns:xlink="http://www.w3.org/1999/xlink" width="96.275" height="96.275" viewBox="0 0 96.275 96.275" style="enable-background:new 0 0 96.275 96.275"><g><g><path d="M32.925 96.249c2.523.0 4.568-2.047 4.568-4.571v-1.506l-9.133 1.572C28.397 94.238 30.423 96.249 32.925 96.249z"/><path d="M37.493 76.453 28.353 80.292V81.418L37.493 80.135z"/><path d="M28.354 89.939 37.494 88.367V87.201L28.353 86.062z"/><path d="M28.353 83.225V84.257L37.494 85.395 37.493 81.939z"/><path d="M75.855 24.552v-2.916h.632c1.18.0 2.135-.956 2.135-2.135V9.224c0-1.179-.955-2.135-2.135-2.135h-1.685c.019-.162.027-.332.027-.509.0-.13-.01-.254-.019-.376h.445c1.539.0 2.791-1.252 2.791-2.79h-.95c0 1.015-.826 1.84-1.84 1.84h-.631C74.41 4.64 74.029 4.265 73.56 4.265c-.468.0-.848.375-1.065.989H65.37V1.473h-2.851v3.781H52.7c-1.017.0-1.84-.825-1.84-1.84h-.951c0 1.538 1.252 2.79 2.791 2.79h9.819v31.249l-.535-.227c-6.285-2.284-8.708-5.417-11.252-8.722-1.761-2.285-4.386-5.233-8.231-7.188l-2.874 18.261c0 0 .472 1.439.472 2.295.0 2.448-1.991 4.44-4.44 4.44h-8.064c0 0 0 1.681.0 4.82.0 3.14.758 3.767.758 3.767l.002 23.588 9.142-3.84-.001-14.748c.18.01.361.022.544.022.036.0.07-.004.106-.004v31.761c0 2.523 2.045 4.57 4.568 4.57s4.571-2.047 4.571-4.57V54.876c0 0 .7-.674.7-3.743.0-3.068.0-13.856.0-13.856 2.777 2.916 6.696 5.825 13.408 7.911.809.251 1.127.231 1.127.231v40.947h-1.862c-3.021.0-5.603 1.882-6.652 4.532-1.129.344-1.957 1.381-1.957 2.623.0 1.521 1.232 2.754 2.754 2.754 1.522.0 2.754-1.232 2.754-2.754.0-.73-.289-1.392-.752-1.885.701-1.428 2.156-2.423 3.854-2.423h5.399 1.016c1.696.0 3.151.995 3.854 2.423-.463.493-.752 1.153-.752 1.885.0 1.521 1.232 2.754 2.754 2.754 1.522.0 2.754-1.232 2.754-2.754.0-1.242-.828-2.279-1.957-2.623-1.051-2.65-3.633-4.532-6.651-4.532H66.18h-.809V44.501c.57-.454 1.02-1.071 1.248-1.821.166-.542.19-1.092.117-1.619 2.008.423 4.227 1.021 5.166 1.321.821.271 1.606.405 2.325.405.933-.001 1.755-.225 2.412-.67 1.052-.709 1.664-1.962 1.771-3.621.164-2.314-.68-4.142-1.494-5.909-.443-.959-.9-1.952-1.191-3.013-.358-1.302-.592-3.512-.543-5.022H75.855zM73.269 6.205h.584c.013.12.027.235.027.376.0.188-.014.357-.035.509h-.567c-.021-.151-.035-.32-.035-.509C73.242 6.44 73.257 6.325 73.269 6.205zM76.38 32.834c.82 1.777 1.596 3.457 1.443 5.622-.099 1.494-.607 2.562-1.513 3.173-1.02.687-2.52.756-4.231.193-.697-.223-3.219-.921-5.484-1.385-.225-.692-.649-1.31-1.227-1.771V6.205h6.94c-.01.122-.02.246-.02.376.0.177.01.347.027.509h-1.683c-1.18.0-2.135.956-2.135 2.135v10.277c0 1.179.955 2.135 2.135 2.135h.592v1.286h1.621v-1.286h1.383v2.916h.361c-.047 1.564.193 3.837.563 5.179C75.46 30.837 75.927 31.853 76.38 32.834zM73.652 16.693c-1.24.0-2.245-1.005-2.245-2.245.0-1.24 2.245-4.755 2.245-4.755s2.244 3.515 2.244 4.755C75.896 15.688 74.891 16.693 73.652 16.693z"/><path d="M30.253 3.446 37.588.0C34.658.057 32.04 1.379 30.253 3.446z"/><path d="M42.63 1.249l-8.004 3.762 9.695-2.567C43.8 1.991 43.238 1.588 42.63 1.249z"/><path d="M25.403 9.302c-.099.212-.183.416-.26.602-.407.991-.546 1.325-1.916 1.576l.532 2.9c2.95-.541 3.621-2.167 4.109-3.354.011-.025.019-.042.025-.063.513 5.023 4.734 8.947 9.893 8.947 5.502.0 9.96-4.46 9.96-9.962.0-1.703-.431-3.307-1.183-4.709L29.053 9.875l-.2-2.151 5.773-2.713-5.881 1.557h-.002l-.351.093c-.004.011-.006.021-.01.03-.393.116-1.002.251-1.321.136-.918-.337-1.967-1.484-2.287-2.507l-2.812.884C22.489 6.867 23.874 8.492 25.403 9.302z"/><path d="M40.268 20.488l-2.48 2.498-2.407-2.525c-.006.003-.014.003-.022.005-1.271.304-4.042 1.748-4.237 1.869-.021.012-.038.025-.059.037l5.252 13.438 5.208-14.922C41.109 20.734 40.692 20.592 40.268 20.488z"/><path d="M39.178 41.873c0-1.736-1.266-3.174-2.921-3.461l-.001-.009-6.053-15.479c-.08.052-.161.103-.241.155l-2.403 15.293c-.697.013-.922-.007-.922-.007l.451-2.853 1.773-11.673c-1.3.928-2.552 1.948-3.701 3.131-3.201 2.782-5.666 7.006-7.211 11.996-.419 1.353-.48 3.265.397 4.376.936 1.181 1.833 1.759 8.773 2.099.0-.017 8.535-.049 8.535-.049C37.598 45.393 39.178 43.814 39.178 41.873z"/><path d="M40.713 26.238l-3.96 11.347c.763.195 1.451.578 1.999 1.112L40.713 26.238z"/></g></g><g/><g/><g/><g/><g/><g/><g/><g/><g/><g/><g/><g/><g/><g/><g/></svg>