<svg id="Capa_1" xmlns="http://www.w3.org/2000/svg" xmlns:xlink="http://www.w3.org/1999/xlink" width="31.895" height="31.895" viewBox="0 0 31.895 31.895" style="enable-background:new 0 0 31.895 31.895"><g><path d="M31.375 4.772c-.316-.24-.746-.321-1.128-.211l-8.593 2.402-9.865-2.414c-.199-.049-.41-.049-.609.0L.986 7.043C.416 7.183.0 7.692.0 8.281v17.828c0 .393.196.762.504 1.001.226.179.518.272.798.272.103.0.209-.016.311-.041l9.879-2.469 9.88 2.469c.215.056.448.054.663-.008l8.921-2.549c.546-.156.938-.656.938-1.225V5.788C31.895 5.389 31.693 5.014 31.375 4.772zM12.744 9.249c0-.444.204-.864.553-1.138.35-.275.805-.373 1.237-.268l4.753 1.162c.648.158 1.104.739 1.104 1.405v12.208c0 .444-.205.864-.557 1.139-.352.275-.809.371-1.241.264l-4.753-1.188c-.644-.16-1.096-.74-1.096-1.402V9.249zM2.549 10.415c0-.667.456-1.247 1.103-1.405l4.753-1.16c.431-.105.887-.007 1.236.268.349.274.553.693.553 1.138V21.44c0 .664-.452 1.244-1.096 1.402L4.345 24.03c-.432.107-.89.012-1.241-.264-.351-.273-.556-.695-.556-1.141L2.549 10.415v0zM29.346 21.509c0 .646-.43 1.215-1.051 1.393l-3.512 1c-.436.125-.906.037-1.268-.234-.363-.271-.576-.701-.576-1.154v-12.16c0-.649.434-1.219 1.059-1.394l3.514-.981c.438-.122.902-.033 1.264.241.359.274.572.7.572 1.152v12.138H29.346z"/></g><g/><g/><g/><g/><g/><g/><g/><g/><g/><g/><g/><g/><g/><g/><g/></svg>