<svg id="Capa_1" xmlns="http://www.w3.org/2000/svg" xmlns:xlink="http://www.w3.org/1999/xlink" width="31.389" height="31.389" viewBox="0 0 31.389 31.389" style="enable-background:new 0 0 31.389 31.389"><g><g><path d="M.221 28.42c-.18.19-.257.455-.204.713.052.256.227.471.467.574l2.63 1.135c.308.135.667.061.898-.184l.585-.615-3.11-2.955L.221 28.42z"/><path d="M29.414 9.554l.063-.068c.388-.414.364-1.063-.05-1.449l.763-.819L22.979.48l-.762.818-.163-.152c-.481-.449-1.235-.423-1.688.058L10.48 11.786c-.202.216-.31.504-.299.799.01.295.137.575.353.776L3.24 21.039c0 0-.139 1.285.44 2.787l-1.899 2 4.058 3.854 1.943-2.045c1.508.482 2.763.342 2.763.342l7.351-7.74.009.01c.45.418 1.154.396 1.573-.057l5.351-5.729 1.035.967-7.64 8.18.771.721c.23.215.535.328.851.318.312-.014.608-.146.821-.375l10.269-10.99c.305-.327.469-.762.453-1.21-.017-.447-.207-.87-.535-1.176L29.414 9.554zM22.021 5.105l-6.566 6.996c-.232.247-.545.372-.86.372-.287.0-.577-.106-.805-.32-.475-.445-.499-1.19-.053-1.665l6.566-6.996c.445-.476 1.188-.5 1.666-.053C22.441 3.885 22.466 4.631 22.021 5.105z"/></g></g><g/><g/><g/><g/><g/><g/><g/><g/><g/><g/><g/><g/><g/><g/><g/></svg>