<svg id="Capa_1" xmlns="http://www.w3.org/2000/svg" xmlns:xlink="http://www.w3.org/1999/xlink" width="31.592" height="31.592" viewBox="0 0 31.592 31.592" style="enable-background:new 0 0 31.592 31.592"><g><g><path d="M8.007 7.953 8.198 8.82 9.666 8.122H9.703v6.093H11.396V6.542H9.941L7.899 7.468 7.901 7.475H7.899z"/><path d="M30.467.111H2.196c-.601.0-1.068.508-1.068 1.108v18.246c.476-.889 1.23-1.604 2.144-2.031V2.255h26.063v15.931c.957.858 1.56 2.104 1.56 3.487.0.043-.004.086-.004.129.403-.168.701-.559.701-1.012V1.219C31.592.62 31.066.111 30.467.111z"/><path d="M9.528 19.746c.267.588.417 1.239.417 1.93.0.07-.002.144-.005.216h1.113c-.003-.072-.006-.146-.006-.216.0-.688.151-1.342.418-1.93H9.528z"/><path d="M20.003 19.746c.267.588.417 1.239.417 1.93.0.07-.003.144-.005.216h1.113c-.003-.072-.005-.146-.005-.216.0-.688.15-1.342.416-1.93H20.003z"/><path d="M14.893 7.897V10.492H12.411V11.621H14.893V14.215H16.134V11.621H18.616V10.492H16.134V7.897z"/><path d="M19.598 12.211l-.979.904v1.1h5.416v-1.467H21.1v-.051l.736-.592c1.115-.996 2.076-2.052 2.076-3.344.0-1.402-.961-2.444-2.704-2.444-.001.0-.002.0-.003.0h-.002c-1.046.0-1.947.378-2.527.817l.512 1.306c.002.0.002.006.004.005V8.45c.404-.311.984-.639 1.65-.64.887.001 1.269.499 1.269 1.127C22.085 9.839 21.283 10.706 19.598 12.211z"/><circle cx="5.259" cy="21.672" r="3.054"/><circle cx="15.734" cy="21.672" r="3.054"/><path d="M29.393 25.948h-1.295-3.779-1.295c-.981.0-1.815.67-2.062 1.572.0.002.0.003.0.003-.169-.609-.597-1.116-1.165-1.376-.269-.122-.563-.199-.878-.199h-1.294-3.78H12.55c-.98.0-1.824.669-2.072 1.572.0.0.0.002.0.003-.169-.611-.592-1.116-1.16-1.376-.27-.123-.558-.199-.874-.199H7.149 3.37 2.076C.898 25.948.0 26.916.0 28.092v3.389h8.788 1.593.195 8.688 1.61.177 10.43V28.09C31.48 26.916 30.569 25.948 29.393 25.948z"/><circle cx="26.209" cy="21.672" r="3.054"/></g></g><g/><g/><g/><g/><g/><g/><g/><g/><g/><g/><g/><g/><g/><g/><g/></svg>