<svg id="Capa_1" xmlns="http://www.w3.org/2000/svg" xmlns:xlink="http://www.w3.org/1999/xlink" width="31.712" height="31.713" viewBox="0 0 31.712 31.713" style="enable-background:new 0 0 31.712 31.713"><g><path d="M31.414 9.898l-6.517 6.284-1.337-1.417 4.932-4.756c.477-.46.49-1.219.03-1.696l-4.403-4.566c-.223-.23-.523-.361-.843-.366-.317-.007-.624.114-.854.335l-3.887 3.747 3.375 3.495c.276.289.254.765-.035 1.046-.203.194-.5.255-.752.173l-4.896-5.191 6.406-6.183c.389-.371 1.013-.35 1.386.037l7.405 7.676C31.797 8.902 31.797 9.525 31.414 9.898zM9.29 28.528c-.227.221-.535.342-.852.334-.319-.006-.622-.137-.844-.364L3.191 23.93c-.459-.477-.447-1.229.03-1.693l2.025 2.104c.279.289.737.297 1.026.021s.295-.733.015-1.023l-2.022-2.107.539-.521 2.025 2.104c.277.287.735.297 1.026.021C8.143 22.555 8.15 22.1 7.87 21.809l-2.024-2.101.54-.521 2.023 2.102c.279.287.739.297 1.026.021.291-.278.296-.734.018-1.025l-2.025-2.102.539-.521 2.025 2.1c.278.291.736.3 1.026.021.107-.104.177-.234.205-.368l-3.749-3.98L.3 22.348c-.384.373-.384.998-.013 1.383l7.405 7.681c.372.386.998.407 1.382.032l7.067-6.812-1.336-1.417L9.29 28.528zM22.229 9.655c-.934-.965-.906-2.511.062-3.442.963-.933 2.508-.905 3.439.061.934.967.901 2.513-.062 3.442C24.707 10.649 23.162 10.621 22.229 9.655zM23.274 8.647c.376.386.996.397 1.388.023.387-.375.398-.997.022-1.385-.375-.388-.997-.401-1.385-.026S22.899 8.256 23.274 8.647zm3.933 12.469-6.373 6.005L6.631 12.051l6.375-6.005 14.201 15.07zM14.075 10.248c.003-.144-.049-.286-.151-.392L13.23 9.122c-.206-.219-.553-.23-.774-.023L12.08 9.452c-.221.206-.23.556-.024.774l.69.739c.103.106.239.17.386.171.145.006.769-.503.769-.503C14.007 10.532 14.069 10.394 14.075 10.248zm9.866 11.039c.223-.208.231-.556.022-.776l-7.979-8.465c-.1-.108-.236-.17-.384-.173-.143-.005-.286.05-.391.148l-.377.356c-.221.207-.231.553-.023.774l7.978 8.466c.104.106.238.17.387.174.146.005.287-.05.394-.15L23.941 21.287zM5.986 11.364l6.373-6.007-1.646-1.746L4.341 9.619 5.986 11.364zM1.5 6.601C1.153 6.233.969 5.748.983 5.244c.016-.503.229-.977.596-1.322l3.612-3.403c.76-.722 1.96-.685 2.679.077l2.239 2.375L3.736 8.976 1.5 6.601zM2.637 5.294l1.17 1.244 3.863-3.64L6.497 1.656 2.637 5.294zm27.803 24.4c.109.346.01.723-.252.971-.264.249-.646.322-.983.193l-7.564-2.886 6.366-6.007L30.44 29.694zM28.419 27.1l-.957-3.039-3.701 3.491 2.978 1.136L28.419 27.1z"/></g><g/><g/><g/><g/><g/><g/><g/><g/><g/><g/><g/><g/><g/><g/><g/></svg>