<svg id="Capa_1" xmlns="http://www.w3.org/2000/svg" xmlns:xlink="http://www.w3.org/1999/xlink" width="32" height="32" viewBox="0 0 32 32" style="enable-background:new 0 0 32 32"><g><g><path d="M2.438 19.004c-.214-.809-.521-4.987.334-6.8l.236.11c-.286.607-.438 1.54-.503 2.521l1.845-2.704.067-.002c.067-.002.229-.007.452-.014.002-.452-.083-2.626-1.953-3.736C2.645 8.41 2.412 8.455 2.236 8.513-.54 9.801-.146 17.479.364 19.63c.406.608.871.846 1.325.658C2.209 20.074 2.541 19.393 2.438 19.004z"/><path d="M5.646 12.095c.63-.016 1.369-.031 1.911-.034-.142-.932-.6-2.903-1.452-3.645C5.512 8.347 4.791 8.308 4.113 8.314 5.512 9.655 5.64 11.567 5.646 12.095z"/><path d="M9.051 15.745c-.183-1.848-.628-3.306-.813-3.416-.205-.033-2.331.016-3.749.059l-2.012 2.948c-.059 1.535.071 3.077.211 3.601.147.557-.298 1.346-.899 1.594-.016.007-.034.013-.052.019v9.188H1.736v1.239h2.736c.342.0.619-.278.619-.62.0-.29-.201-.532-.471-.599V21.52l.901.146v8.757h.002v.538h2.735c.342.0.62-.277.62-.619.0-.298-.21-.546-.49-.604V21.85C8.492 20.795 8.856 17.098 9.051 15.745zM5.637 13.726c-.234.0-.423-.181-.423-.402.0-.221.189-.401.423-.401.234.0.423.18.423.401C6.06 13.545 5.871 13.726 5.637 13.726zM8.068 13.682c-.234.0-.423-.18-.423-.401.0-.221.189-.402.423-.402s.423.181.423.402C8.492 13.502 8.302 13.682 8.068 13.682z"/><path d="M13.917 16.153v-1.307c.374-.183.634-.563.634-1.008s-.26-.825-.634-1.007v-.76c.651-.303 1.103-.96 1.103-1.726.0-.742-.397-1.367-1.017-1.682-.082-.04-.196.02-.138.135.041.091.06.097.111.233.052.138.155.729.083 1.039-.072.31-.504.84-.969.84-.005.0-.023-.001-.023-.001-.005.001-.012.001-.018.001-.464.0-.896-.529-.969-.84-.071-.311.032-.901.083-1.039.052-.137.071-.143.11-.233.059-.115-.056-.175-.137-.135-.62.314-1.018.939-1.018 1.682.0.779.468 1.447 1.139 1.742v.821c-.899.0-2.014.0-2.203.0-.325.0-2.077-3.86-2.765-4.231.75 1.294 1.021 3.119 1.062 3.426.346.194.704 1.593.896 3.08.411-.159 1.912-.206 3.009-.219v1.188c0 .458.371.829.829.829C13.544 16.982 13.917 16.611 13.917 16.153zM13.104 16.565c-.211.0-.381-.171-.381-.381s.17-.381.381-.381c.21.0.38.171.38.381S13.314 16.565 13.104 16.565z"/><path d="M2.633 4.804C2.631 4.839 2.628 4.876 2.628 4.913c0 1.59 1.264 2.884 2.818 2.884 1.554.0 2.818-1.294 2.818-2.884.0-.245-.034-.482-.091-.71.179-.021.292-.036.315-.042C8.683 4.115 8.836 4.084 8.83 3.866c-.028-.288-.032-.24-.032-.284-.022-.25-.166-.205-.329-.205-.165.0-.359.046-.359.046S7.307.339 4.46 1.165C3.609 1.411 3.079 1.839 2.75 2.317c.7-.449 1.555-.719 2.326-.697.735.022 1.34.296 1.764.791C6.577 2.257 6.288 2.144 5.979 2.084 5.661 1.94 5.335 1.889 5.067 1.881c-.89-.03-1.892.358-2.599.965C2.081 3.833 2.333 4.834 2.333 4.834S2.444 4.822 2.633 4.804zM3.158 4.747c1.173-.123 3.311-.35 4.494-.484C7.71 4.47 7.744 4.688 7.744 4.913c0 1.303-1.031 2.362-2.297 2.362-1.267.0-2.297-1.06-2.297-2.362C3.149 4.857 3.153 4.803 3.158 4.747z"/><path d="M25.784 18.729V17.987H25.439V17.738H23.07V17.987H22.567V18.729H21.958V18.486H20.556V18.729H20.233V17.832H19.531V17.257H16.313V17.832H15.611V18.729H13.21V21.146H14.583v9.829H16.559V21.146H28.697v9.829H30.671V21.146H32V18.729z"/></g></g><g/><g/><g/><g/><g/><g/><g/><g/><g/><g/><g/><g/><g/><g/><g/></svg>