<svg id="Capa_1" xmlns="http://www.w3.org/2000/svg" xmlns:xlink="http://www.w3.org/1999/xlink" width="31.941" height="31.941" viewBox="0 0 31.941 31.941" style="enable-background:new 0 0 31.941 31.941"><g><g><path d="M5.963 22.063l-2.211 6.265c-.131.372-.039.785.237 1.066.275.281.688.38 1.062.255l3.278-1.094 1.867 2.911c.213.33.596.513.987.468s.722-.31.853-.681l2.247-6.369-2.803-2.439L5.963 22.063z"/><path d="M25.982 22.063l-5.517.381-2.803 2.442 2.246 6.365c.131.373.463.637.854.683.391.045.772-.136.985-.468l1.864-2.911 3.279 1.094c.373.125.784.026 1.062-.255.274-.281.366-.695.235-1.066L25.982 22.063z"/><path d="M22.875 20.392c1.018-.071 1.822-.88 1.896-1.896l.219-3.167 2.082-2.393c.671-.768.671-1.912.002-2.68L24.99 7.862l-.219-3.165c-.069-1.016-.879-1.825-1.896-1.895l-3.166-.219-2.395-2.082c-.767-.669-1.911-.669-2.68.001l-2.393 2.083L9.075 2.803c-1.016.07-1.824.878-1.894 1.895l-.22 3.166-2.083 2.394c-.668.768-.668 1.911.0 2.679l2.083 2.393.219 3.167c.07 1.016.879 1.821 1.895 1.894l3.169.22 2.393 2.083c.767.669 1.911.669 2.679.0l2.393-2.083L22.875 20.392zM18.908 13.83l.23 2.104c.043.395-.218.584-.576.421l-1.931-.873c-.362-.163-.954-.163-1.316.0l-1.928.873c-.362.163-.623-.026-.577-.421l.231-2.104c.046-.394-.138-.959-.405-1.252l-1.427-1.565c-.267-.292-.167-.599.221-.68l2.074-.428c.389-.08.869-.428 1.065-.773l1.047-1.839c.196-.346.517-.346.712.0l1.049 1.839c.194.346.677.694 1.063.773l2.074.428c.389.081.486.387.221.68l-1.426 1.565C19.044 12.871 18.861 13.435 18.908 13.83z"/></g></g><g/><g/><g/><g/><g/><g/><g/><g/><g/><g/><g/><g/><g/><g/><g/></svg>