<svg id="Capa_1" xmlns="http://www.w3.org/2000/svg" xmlns:xlink="http://www.w3.org/1999/xlink" width="96.879" height="96.879" viewBox="0 0 96.879 96.879" style="enable-background:new 0 0 96.879 96.879"><g><g><circle cx="48.439" cy="10.035" r="10.035"/><path d="M45.966 20.529c-.008.002-.017.002-.024.004-.839.2-1.663.512-2.449.904.312 4.077 2.647 7.955 4.946 7.955 2.285.0 4.606-3.835 4.938-7.888-.799-.406-1.634-.739-2.487-.948l-2.5 2.517L45.966 20.529z"/><path d="M67.45 51.018c1.753-17.525-5.014-24.239-12.586-28.884-.024-.016-.053-.024-.078-.039-.475 4.13-2.745 8.211-5.746 8.7-.426 2.082.313 2.921 1.177 3.863 1.576 1.719 2.478 3.35-.261 7.855.193.289.307.637.307 1.011.0 1.008-.816 1.823-1.823 1.823s-1.823-.815-1.823-1.823c0-1.007.816-1.823 1.823-1.823.1.0.195.014.291.029 2.386-3.911 1.508-4.891.411-6.086-.926-1.009-2.052-2.248-1.582-4.912-2.834-.683-4.97-4.564-5.457-8.524-.146.063-.292.123-.431.208-7.402 4.54-14.008 11.19-12.23 28.955.201 2.01 1.896 3.509 3.872 3.509.13.0.261-.007.393-.021 2.142-.215 3.703-2.123 3.489-4.265-.59-5.893-.165-10.017.925-13.072.0.0.0 13.317.0 13.905.0 3.039.085 2.948.713 3.692l.002 37.155c0 2.543 2.161 4.604 4.704 4.604s4.505-2.062 4.505-4.604l-.002-32.018c.183.01.364.023.548.023.036.0.072-.006.108-.006l-.002 31.998c0 2.543 2.162 4.604 4.705 4.604s4.504-2.062 4.504-4.604l.003-37.178c.579-.722.755-.892.755-3.67.0-.328.0-14.145.0-14.145 1.15 3.048 1.617 7.137 1.033 12.958-.182 1.832.938 3.484 2.604 4.061v3.861h-2.228v19.75h6.75V58.16h-2.229v-3.79C66.104 53.96 67.285 52.669 67.45 51.018z"/></g></g><g/><g/><g/><g/><g/><g/><g/><g/><g/><g/><g/><g/><g/><g/><g/></svg>