<svg id="Capa_1" xmlns="http://www.w3.org/2000/svg" xmlns:xlink="http://www.w3.org/1999/xlink" width="98.051" height="98.051" viewBox="0 0 98.051 98.051" style="enable-background:new 0 0 98.051 98.051"><g><g><path d="M49.003 22.741c5.757.0 10.427-4.668 10.427-10.427.0-2.409-.836-4.609-2.209-6.371h-3.373V4.359H55.7c-.648-.544-1.354-1.025-2.121-1.401C52.786 1.218 51.04.0 49.006.0c-2.032.0-3.776 1.216-4.57 2.954-.771.377-1.478.858-2.128 1.405h2.117v1.583h-3.637c-1.374 1.762-2.209 3.962-2.209 6.371C38.577 18.072 43.244 22.741 49.003 22.741zM49.006 2.201c1.562.0 2.833 1.271 2.833 2.833s-1.271 2.833-2.833 2.833-2.833-1.271-2.833-2.833S47.444 2.201 49.006 2.201z"/><path d="M46.485 23.316c-.009.003-.019.006-.027.007-1.055.252-2.08.68-3.039 1.226.572 4.377 3.098 8.342 5.586 8.342 2.492.0 5.022-3.98 5.587-8.367-.945-.526-1.961-.924-2.99-1.178l-2.598 2.615L46.485 23.316z"/><path d="M56.14 25.454c-.752 4.4-3.234 8.521-6.447 9.045-.489 2.384.358 3.345 1.348 4.424 1.805 1.968 2.836 3.836-.299 8.997.221.331.352.729.352 1.156.0 1.154-.936 2.089-2.088 2.089-1.154.0-2.088-.935-2.088-2.089.0-1.152.935-2.087 2.088-2.087.114.0.224.016.333.034 2.732-4.479 1.728-5.601.471-6.97-1.06-1.155-2.35-2.574-1.812-5.625-3.034-.73-5.368-4.662-6.116-8.875-.092.044-.186.083-.274.14-.51.329-12.486 8.276-12.486 27.866.0 2.047 1.66 3.707 3.707 3.707 2.047.0 3.707-1.66 3.707-3.707.0-4.451.744-9.598 1.795-12.569v9.112l-3.792 21.43h4.327l.003 21.736c0 2.643 2.142 4.785 4.783 4.783 2.643.0 4.783-2.143 4.783-4.783l-.001-21.736h.681l-.001 21.736c0 2.643 2.143 4.783 4.783 4.783 2.645.0 4.785-2.143 4.785-4.783l.002-21.736h4.255l-3.261-21.25v-9.4c1.41 3.245 1.84 7.811 1.84 13.193.0 2.047 1.66 3.707 3.707 3.707 2.048.0 3.707-1.66 3.707-3.707C68.933 34.093 58.653 26.839 56.14 25.454z"/></g></g><g/><g/><g/><g/><g/><g/><g/><g/><g/><g/><g/><g/><g/><g/><g/></svg>