<svg id="Capa_1" xmlns="http://www.w3.org/2000/svg" xmlns:xlink="http://www.w3.org/1999/xlink" width="98.048" height="98.048" viewBox="0 0 98.048 98.048" style="enable-background:new 0 0 98.048 98.048"><g><g><path d="M49.022 22.74c5.758.0 10.428-4.668 10.428-10.427.0-2.409-.836-4.609-2.21-6.371h-3.373V4.359h1.852c-.647-.545-1.353-1.025-2.12-1.401C52.806 1.219 51.059.0 49.025.0c-2.032.0-3.776 1.217-4.57 2.954-.771.377-1.478.858-2.128 1.405h2.117v1.583h-3.637c-1.374 1.762-2.209 3.962-2.209 6.371C38.597 18.072 43.264 22.74 49.022 22.74zM49.024 2.2c1.562.0 2.833 1.271 2.833 2.833.0 1.562-1.271 2.832-2.833 2.832-1.562.0-2.833-1.271-2.833-2.832C46.192 3.47 47.462 2.2 49.024 2.2z"/><path d="M46.502 23.315c-.009.003-.019.006-.027.007-1.055.252-2.08.68-3.039 1.226.572 4.378 3.098 8.343 5.586 8.343 2.492.0 5.022-3.98 5.588-8.367-.946-.526-1.961-.924-2.991-1.178l-2.598 2.615L46.502 23.315z"/><path d="M66.615 60.26V57.5c1.35-.555 2.303-1.878 2.303-3.428.0-19.98-10.279-27.234-12.793-28.621-.754 4.4-3.234 8.521-6.448 9.045-.488 2.384.358 3.346 1.348 4.424 1.807 1.968 2.836 3.836-.299 8.997.222.331.352.729.352 1.156.0 1.154-.935 2.089-2.088 2.089-1.154.0-2.089-.935-2.089-2.089.0-1.152.935-2.087 2.089-2.087.114.0.224.016.333.033 2.732-4.479 1.728-5.601.471-6.97-1.06-1.155-2.35-2.574-1.812-5.625-3.034-.73-5.368-4.662-6.115-8.876-.093.044-.186.084-.274.141-.51.328-12.486 8.276-12.486 27.865.0 2.049 1.66 3.707 3.707 3.707 2.048.0 3.707-1.658 3.707-3.707.0-4.451.744-9.598 1.796-12.568v9.111l-3.793 21.43h4.327l.003 21.736c0 2.643 2.142 4.784 4.783 4.783 2.643.0 4.783-2.143 4.783-4.783l-.001-21.736h.681l-.003 21.736c0 2.643 2.142 4.784 4.783 4.784 2.644.0 4.785-2.142 4.785-4.784V71.529h3.107v9.621h7.167V60.26H66.615zM61.774 60.26v3.79l-2.112-13.772v-9.396c1.409 3.245 1.842 7.811 1.842 13.193.0 1.658 1.096 3.045 2.597 3.519v2.668L61.774 60.26v0z"/></g></g><g/><g/><g/><g/><g/><g/><g/><g/><g/><g/><g/><g/><g/><g/><g/></svg>