<svg id="Capa_1" xmlns="http://www.w3.org/2000/svg" xmlns:xlink="http://www.w3.org/1999/xlink" width="97.301" height="97.302" viewBox="0 0 97.301 97.302" style="enable-background:new 0 0 97.301 97.302"><g><g><path d="M51.583 45.473c-10.849 2.372-16.271-2.68-16.553-2.95-1.37-1.367-3.587-1.379-4.97-.021-1.393 1.366-1.414 3.604-.048 4.996.271.276 5.706 5.671 16.019 5.671 2.144.0 4.499-.231 7.062-.793 1.906-.417 3.112-2.302 2.695-4.206C55.372 46.263 53.488 45.058 51.583 45.473z"/><circle cx="19.542" cy="36.266" r="7.948"/><path d="M93.032 68.812l-14.885-6.012c-.516-.207-1.066-.314-1.621-.314h-3.793v-.824c0-.422-.109-.814-.291-1.165l14.032 3.829c.371.101.744.15 1.111.15 1.85.0 3.545-1.23 4.056-3.102.612-2.242-.709-4.557-2.951-5.167l-18.484-5.046c-.367-.1-.728-.1-1.13-.098l-12.601.012c-.587 1.387-1.812 2.48-3.391 2.826-2.079.455-4.195.686-6.292.686-10.229.0-17.198-5.469-17.489-5.702-1.002-.799-1.634-1.941-1.777-3.215-.145-1.275.216-2.53 1.017-3.534.916-1.15 2.286-1.809 3.757-1.809 1.074.0 2.131.367 2.976 1.034.142.11 2.877 2.199 7.226 3.151l-7.761-5.004c-2.736-1.766-6.12-.547-8.106 1.332.0.0-.664.567-1.13 1.326-.446.726-.794 1.631-.794 1.631L24.7 43.819c-.899 2.602-.61 6.175 2.136 7.947l14.744 9.508c.175.113.354.215.532.305.0.027-.008.055-.008.082v.824h-4.193l-19.614-13.61c.097-.106.19-.22.27-.347.72-1.15.371-2.667-.78-3.389l-6.677-4.182c-1.121-.703-2.584-.384-3.327.698-1.888-.923-4.214-.372-5.449 1.407-1.363 1.964-.876 4.662 1.089 6.025l30.665 21.285c.724.504 1.586.772 2.468.772h5.717c.364.981 1.302 1.684 2.407 1.684h5.439V93.15H47.47c-1.146.0-2.074.93-2.074 2.076s.929 2.075 2.074 2.075h20.232c1.146.0 2.075-.929 2.075-2.075s-.93-2.076-2.075-2.076h-2.983V72.828h5.438c1.106.0 2.043-.702 2.408-1.684h3.119l14.105 5.697c.53.215 1.079.316 1.618.316 1.716.0 3.336-1.024 4.017-2.709C96.32 72.23 95.25 69.708 93.032 68.812z"/><path d="M37.083 37.846c7.871.0 12.233-2.105 15.077-4.597v5.456c-.254 1.096-.72 3.132-1.27 5.574.211-.042.419-.076.63-.122.342-.075.688-.112 1.033-.112 2.246.0 4.227 1.594 4.708 3.791.14.643.144 1.283.032 1.893l11.989-.06c.527.0.989.062 1.475.192l1.756.48c-.998-4.874-2.133-9.672-2.601-11.613v-6.485c1.287 2.681 2.091 6.522 2.009 12.41-.026 1.858 1.46 3.387 3.318 3.413.018.0.032.0.049.0 1.837.0 3.34-1.476 3.363-3.319.225-16.004-7.793-23.512-15.5-26.364-.008-.002-.016-.002-.021-.004l-2.097 2.199-2.159-2.175c-1.202.295-2.378.833-3.404 1.565-.029.016-2.987 2.183-5.058 5.072-2.41 3.259-4.491 6.072-13.332 6.072-1.858.0-3.366 1.508-3.366 3.367C33.716 36.339 35.224 37.846 37.083 37.846z"/><path d="M61.164 17.722c4.487.0 8.128-3.638 8.128-8.127.0-1.877-.651-3.592-1.725-4.965h-2.628V3.397h1.444c-.506-.425-1.056-.799-1.654-1.092C64.113.949 62.75.0 61.166.0c-1.582.0-2.941.947-3.562 2.302-.601.293-1.152.669-1.659 1.095h1.65V4.63H54.76c-1.068 1.373-1.722 3.088-1.722 4.965C53.04 14.084 56.676 17.722 61.164 17.722zM61.166 1.714c1.219.0 2.208.99 2.208 2.208S62.384 6.13 61.166 6.13c-1.217.0-2.206-.99-2.206-2.208S59.949 1.714 61.166 1.714z"/></g></g><g/><g/><g/><g/><g/><g/><g/><g/><g/><g/><g/><g/><g/><g/><g/></svg>