<svg id="Capa_1" xmlns="http://www.w3.org/2000/svg" xmlns:xlink="http://www.w3.org/1999/xlink" width="97.883" height="97.884" viewBox="0 0 97.883 97.884" style="enable-background:new 0 0 97.883 97.884"><g><g><path d="M52.069 21.863c-.009-.002-.02-.002-.028-.004l-2.578 2.706-2.658-2.676c-3.793 1.324-18.541 10.224-20.633 33.896-.312 2.266 1.271 4.354 3.537 4.668.192.027.383.039.573.039 2.036.0 3.811-1.5 4.1-3.573.605-4.351 2.034-10.287 4.158-15.408v5.36l-6.476 28.736c0 0 .715 2.346 7.334 3.576v14.092c0 2.545 2.064 4.608 4.608 4.608 2.545.0 4.61-2.063 4.609-4.608V79.914c.094.0.182.002.277.002.129.0.25-.002.377-.003v13.362c0 2.543 2.062 4.608 4.607 4.608.001.0.001.0.001.0 2.545.0 4.608-2.063 4.608-4.608l.001-14.104c6.604-1.231 7.409-3.562 7.409-3.562L61.18 50.253c0 0 .66-.024.746-.024 3.625.0 8.049-.863 9.531-5.046C73.891 38.314 60.648 23.936 52.069 21.863zM57.536 41.633c-.684-.136-1.468-.317-2.405-.565-2.214-.592-4.481.726-5.071 2.937s.726 4.481 2.937 5.071c1.715.457 3.192.771 4.539.963v6.982c0 .666-.542 1.209-1.208 1.209H42.596c-.666.0-1.206-.543-1.206-1.209v-20.37c0-.667.54-1.208 1.206-1.208h3.057v-.528c0-.667.54-1.208 1.207-1.208h5.207c.667.0 1.208.541 1.208 1.208v.528h3.055c.667.0 1.208.541 1.208 1.208v4.981H57.536zM60.387 41.857v-3.885c1.317 1.471 2.36 2.859 2.859 3.888C62.65 41.928 61.731 41.961 60.387 41.857z"/><path d="M49.261 21.113c5.346.0 9.682-4.334 9.682-9.681.0-2.237-.776-4.28-2.051-5.916h-3.133V4.048h1.72c-.602-.506-1.257-.952-1.97-1.301C52.773 1.131 51.153.0 49.265.0c-1.886.0-3.507 1.129-4.243 2.743-.716.35-1.372.797-1.976 1.305h1.965v1.469h-3.376c-1.276 1.635-2.051 3.679-2.051 5.916C39.583 16.779 43.916 21.113 49.261 21.113zM49.263 2.044c1.45.0 2.631 1.18 2.631 2.629.0 1.45-1.181 2.63-2.631 2.63-1.45.0-2.63-1.18-2.63-2.63C46.633 3.223 47.813 2.044 49.263 2.044z"/></g></g><g/><g/><g/><g/><g/><g/><g/><g/><g/><g/><g/><g/><g/><g/><g/></svg>