<svg id="Capa_1" xmlns="http://www.w3.org/2000/svg" xmlns:xlink="http://www.w3.org/1999/xlink" width="125.041" height="125.042" viewBox="0 0 125.041 125.042" style="enable-background:new 0 0 125.041 125.042"><g><g><path d="M46.864 84.302c-.546-.425-4.877-3.7-16.893-4.497-.661-.055-1.327-.524-1.914-.917-.747-.497-1.523-1.019-2.089-1.692-.919-1.098-1.959-2.021-2.832-3.24-5.842-8.145-11.567-9.779-12.423-10.103-1.14-.55-5.507.127-3.41 3.039.133.022 6.68 9.219 7.106 9.954.752 1.298 1.602 1.829 2.402 2.74.73.832 1.538 1.597 2.284 2.414.0.0-4.186-2.479-5.19-3.564-.448-.486-.663-1.184-1.019-1.762-.411-.666-.85-1.315-1.296-1.957-.56-.801-1.123-1.6-1.716-2.375-.758-.987-1.546-1.953-2.327-2.924-.486-.604-1.034-1.187-1.435-1.817-1.981-3.128.28-4.999 2.432-5.235-.104-.36-1.094-9.819-1.267-11.407-.493-4.56-.982-7.938-3.595-8.857-.675-.238-1.151-.158-1.653.372-.593.624-.948 3.936-1.119 6.03.0.0-1.143 11.236-.868 16.479.148 2.812 8.882 22.156 11.391 25.145 2.509 2.99 22.139 14.305 22.139 14.305.656.546 4.291 3.345 4.291 7.015v7.968l21.165.024.017-7.312c.049-1.351.279-2.694.441-4.041.461-1.536.093-4.441-.123-5.569C56.905 91.547 47.854 85.067 46.864 84.302z"/><path d="M124.132 48.503c-.172-2.095-.525-5.406-1.119-6.03-.502-.53-.979-.61-1.653-.372-2.611.92-3.102 4.298-3.595 8.857-.174 1.588-1.163 11.047-1.268 11.407 2.151.236 4.414 2.107 2.433 5.235-.4.632-.948 1.214-1.435 1.818-.781.97-1.569 1.936-2.327 2.922-.595.775-1.157 1.574-1.716 2.375-.447.643-.887 1.291-1.298 1.957-.354.578-.569 1.274-1.019 1.763-1.004 1.087-5.19 3.565-5.19 3.565.746-.818 1.556-1.584 2.285-2.416.799-.91 1.649-1.441 2.401-2.739.427-.735 6.974-9.933 7.105-9.954 2.099-2.912-2.27-3.589-3.409-3.039-.855.322-6.58 1.958-12.423 10.102-.872 1.219-1.912 2.145-2.832 3.241-.565.675-1.343 1.195-2.09 1.692-.587.393-1.253.861-1.914.917-12.016.797-16.346 4.073-16.893 4.497-.989.766-10.041 7.244-12.5 18.214-.216 1.128-.584 4.032-.123 5.569.162 1.347.393 2.69.441 4.041l.018 7.312 21.164-.024v-7.968c0-3.67 3.635-6.469 4.291-7.015.0.0 19.63-11.315 22.139-14.305 2.51-2.988 11.243-22.332 11.392-25.145C125.274 59.739 124.132 48.503 124.132 48.503z"/><path d="M71.559 65.881c.183 2.604-1.283 5.59-4.127 8.41-1.59 1.574-1.601 4.14-.023 5.729.792.799 1.834 1.199 2.877 1.199 1.031.0 2.062-.391 2.853-1.174 4.609-4.571 6.859-9.666 6.504-14.73-.193-2.755-1.779-6.055-4.852-10.088-.154-.203-.301-.39-.446-.58l-1.777-11.191v-4.062l-.019-.581c2.233 2.283 4.333 5.1 5.708 8.467.619 1.517 2.082 2.436 3.626 2.436.491.0.994-.094 1.478-.292 2.002-.818 2.961-3.103 2.145-5.104-4.021-9.846-12.42-15.799-17.07-18.473 2.812-2.031 4.648-5.328 4.648-9.062.0-6.176-5.009-11.183-11.185-11.183s-11.183 5.007-11.183 11.183c0 3.733 1.836 7.03 4.648 9.062-4.651 2.674-13.051 8.628-17.072 18.473-.817 2 .143 4.285 2.144 5.104.484.198.985.292 1.478.292 1.543.0 3.006-.918 3.625-2.436 1.375-3.367 3.474-6.184 5.708-8.467l-.019.581v4.062l-1.778 11.191c-.146.19-.291.376-.445.58-3.072 4.034-4.659 7.333-4.852 10.088-.355 5.064 1.895 10.159 6.505 14.73.79.783 1.821 1.174 2.853 1.174 1.042.0 2.084-.4 2.876-1.199 1.575-1.589 1.565-4.154-.024-5.729-2.844-2.82-4.31-5.808-4.127-8.41.076-1.078 1.309-3.172 2.925-5.356 2.096-1.361 4.325-1.957 6.736-1.957s4.642.596 6.736 1.957C70.25 62.709 71.481 64.803 71.559 65.881zM54.908 57.372l-2.703-3.029 1.028-8.418h7.546 2.236 7.546l1.028 8.418-2.703 3.029c0 0-2.796-1.538-6.989-1.538C57.703 55.834 54.908 57.372 54.908 57.372z"/></g></g><g/><g/><g/><g/><g/><g/><g/><g/><g/><g/><g/><g/><g/><g/><g/></svg>