<svg id="Capa_1" xmlns="http://www.w3.org/2000/svg" xmlns:xlink="http://www.w3.org/1999/xlink" width="97.302" height="97.302" viewBox="0 0 97.302 97.302" style="enable-background:new 0 0 97.302 97.302"><g><g><path d="M51.581 45.473c-10.848 2.372-16.271-2.68-16.552-2.95-1.37-1.367-3.587-1.379-4.97-.021-1.393 1.366-1.414 3.604-.048 4.996.271.276 5.706 5.671 16.019 5.671 2.144.0 4.499-.231 7.061-.793 1.906-.417 3.113-2.302 2.695-4.206C55.37 46.263 53.487 45.058 51.581 45.473z"/><path d="M93.031 68.812 78.147 62.8c-.516-.207-1.066-.314-1.621-.314h-3.793v-.824c0-.422-.109-.814-.291-1.165l14.032 3.829c.37.101.743.15 1.11.15 1.851.0 3.545-1.23 4.057-3.102.611-2.242-.709-4.557-2.951-5.167l-18.484-5.046c-.367-.1-.728-.149-1.13-.148l-12.601.062c-.588 1.387-1.812 2.48-3.391 2.826-2.08.455-4.194.686-6.292.686-10.229.0-17.198-5.469-17.489-5.702-1.002-.799-1.634-1.941-1.777-3.215-.145-1.275.216-2.53 1.017-3.534.916-1.15 2.286-1.809 3.757-1.809 1.074.0 2.131.367 2.976 1.034.142.11 2.877 2.199 7.226 3.151l-7.761-5.004c-.208-.134-.513-.488-.513-.488-.821-.704-2.216-2.47-3.335-3.889-.414-.524-.794-1.006-1.111-1.391-1.118-1.297-1.505-3.236-.938-4.716.306-.8.865-1.399 1.641-1.781h7.786v-4.269h-2.203V4.401H7.417v18.575H5.415v2.005c-1.697.148-3.052.921-3.416 2.071-.184.578-.339 2.071 2.171 3.459.83.435 1.872.608 2.88.775 1.223.204 2.488.414 3.264 1.066.597.552.923 1.31 1.237 2.042.06.14.121.271.182.406-.576 3.08.707 6.34 3.503 8.145 3.688 2.377 8.607 1.317 10.985-2.373 2.38-3.689 1.317-8.607-2.371-10.986s-8.608-1.317-10.987 2.371c-.282.438-.513.894-.699 1.36-.282-.595-.634-1.203-1.188-1.715-1.002-.844-2.404-1.077-3.761-1.303-.974-.162-1.892-.314-2.569-.669-1.306-.722-1.922-1.552-1.692-2.276.207-.653 1.133-1.241 2.463-1.376v1.267h23.398c-.387.403-.695.876-.905 1.424-.691 1.808-.232 4.162 1.108 5.717.307.372.682.849 1.091 1.366.761.965 1.644 2.08 2.414 2.949-2.175-.279-4.415.747-5.888 2.14.0.0-.664.567-1.13 1.326-.446.726-.794 1.631-.794 1.631l-.011.021c-.899 2.602-.61 6.175 2.136 7.947l14.744 9.508c.175.113.354.215.532.305.0.027-.008.055-.008.082v.824H37.91l-19.613-13.61c.097-.106.19-.22.27-.347.72-1.15.371-2.667-.78-3.389l-6.677-4.182c-1.121-.703-2.584-.384-3.327.698-1.888-.923-4.214-.372-5.449 1.407-1.363 1.964-.876 4.662 1.089 6.025l30.665 21.285c.724.504 1.586.772 2.468.772h5.717c.364.981 1.302 1.684 2.407 1.684h5.439V93.15H47.47c-1.146.0-2.074.93-2.074 2.076s.929 2.075 2.074 2.075h19.927c1.146.0 2.074-.929 2.074-2.075s-.93-2.076-2.074-2.076h-2.68V72.828h5.439c1.105.0 2.043-.702 2.408-1.684h3.119l14.105 5.697c.53.215 1.08.316 1.618.316 1.716.0 3.337-1.024 4.017-2.709C96.319 72.23 95.249 69.708 93.031 68.812zM9.814 6.797h23.855v8.25.822 6.307H9.814V6.797z"
			/><path d="M33.716 34.479c0 1.86 1.508 3.367 3.366 3.367 7.871.0 12.233-2.105 15.077-4.597v5.456c-.254 1.096-.72 3.132-1.27 5.574.211-.042.419-.076.63-.122.342-.075.688-.112 1.032-.112 2.246.0 4.228 1.594 4.709 3.791.14.643.144 1.283.031 1.893l11.99-.06c.527.0.989.062 1.475.192l1.756.48c-.998-4.874-2.133-9.672-2.602-11.613v-6.485c1.288 2.681 2.092 6.522 2.01 12.41-.026 1.858 1.459 3.387 3.318 3.413.018.0.032.0.049.0 1.836.0 3.34-1.476 3.363-3.319.225-16.004-5.669-22.637-15.5-26.364-.008-.002-.016-.002-.021-.004l-2.096 2.199-2.16-2.175c-1.201.295-3.464 1.591-3.492 1.607-2.289 1.404-3.715 3.33-4.969 5.03-2.409 3.259-4.49 6.072-13.331 6.072C35.225 31.112 33.716 32.62 33.716 34.479z"/><path d="M61.163 17.722c4.487.0 8.127-3.638 8.127-8.127.0-1.877-.65-3.592-1.724-4.965h-2.628V3.397h1.443c-.506-.425-1.055-.799-1.653-1.092C64.112.949 62.749.0 61.165.0c-1.582.0-2.941.947-3.562 2.302-.601.293-1.152.669-1.659 1.095h1.65V4.63H54.76c-1.068 1.373-1.723 3.088-1.723 4.965C53.038 14.084 56.677 17.722 61.163 17.722zM61.165 1.714c1.219.0 2.207.99 2.207 2.208S62.384 6.13 61.165 6.13c-1.217.0-2.207-.99-2.207-2.208S59.948 1.714 61.165 1.714z"/><path d="M23.913 9.611c-.816.0-1.551.344-2.071.893-.521-.549-1.255-.893-2.071-.893-1.578.0-2.857 1.279-2.857 2.858.0 3.963 4.929 6.476 4.929 6.476s4.929-2.512 4.929-6.476C26.771 10.89 25.49 9.611 23.913 9.611z"/></g></g><g/><g/><g/><g/><g/><g/><g/><g/><g/><g/><g/><g/><g/><g/><g/></svg>