<svg id="Capa_1" xmlns="http://www.w3.org/2000/svg" xmlns:xlink="http://www.w3.org/1999/xlink" width="97.183" height="97.183" viewBox="0 0 97.183 97.183" style="enable-background:new 0 0 97.183 97.183"><g><g><path d="M48.581 20.575c5.208.0 9.433-4.224 9.433-9.434.0-2.18-.756-4.171-1.998-5.765h-3.053V3.945h1.676c-.586-.493-1.225-.928-1.92-1.268C52.002 1.103 50.422.0 48.583.0c-1.838.0-3.416 1.101-4.135 2.673-.697.341-1.337.776-1.926 1.271h1.915v1.432h-3.29c-1.242 1.594-1.999 3.585-1.999 5.765C39.148 16.351 43.37 20.575 48.581 20.575zM48.583 1.992c1.413.0 2.563 1.149 2.563 2.563s-1.149 2.563-2.563 2.563c-1.414.0-2.562-1.151-2.562-2.564S47.169 1.992 48.583 1.992z"/><g><path d="M48.59 29.694c2.285.0 4.606-3.834 4.938-7.887-.799-.406-1.634-.739-2.487-.949l-2.5 2.517-2.424-2.544c-.008.002-.017.002-.024.004-.839.2-1.663.512-2.449.904C43.956 25.817 46.292 29.694 48.59 29.694z"/><path d="M55.016 22.437c-.024-.016-.053-.024-.078-.039-.475 4.129-2.745 8.211-5.746 8.7-.426 2.082.313 2.921 1.177 3.863 1.576 1.718 2.478 3.349-.261 7.855.193.289.307.637.307 1.011.0 1.007-.816 1.823-1.823 1.823s-1.823-.816-1.823-1.823c0-1.007.816-1.824 1.823-1.824.1.0.195.014.291.029 2.386-3.911 1.508-4.89.411-6.086-.926-1.009-2.052-2.248-1.582-4.912-2.834-.683-4.97-4.564-5.457-8.524-.146.063-.292.123-.431.208-7.402 4.54-14.008 11.19-12.23 28.955.201 2.009 1.896 3.508 3.872 3.508.13.0.261-.006.393-.021 2.142-.213 3.703-2.123 3.489-4.264-.59-5.893-.165-10.017.925-13.073.0.0.0 13.317.0 13.907.0 3.038.085 2.947.713 3.691l.002 37.156c0 2.543 2.161 4.604 4.704 4.604s4.505-2.062 4.505-4.604l-.002-32.017c.183.009.364.023.548.023.036.0.072-.004.108-.004l-.002 31.997c0 2.543 2.162 4.604 4.705 4.604s4.504-2.062 4.504-4.604L58.06 55.4c.579-.722.755-.891.755-3.668.0-.328.0-14.146.0-14.146 1.15 3.047 1.617 7.136 1.033 12.958-.213 2.141 1.35 4.05 3.49 4.264.131.014.262.02.393.02 1.977.0 3.671-1.498 3.872-3.508C69.354 33.795 62.588 27.081 55.016 22.437z"/></g></g></g><g/><g/><g/><g/><g/><g/><g/><g/><g/><g/><g/><g/><g/><g/><g/></svg>