<svg id="Capa_1" xmlns="http://www.w3.org/2000/svg" xmlns:xlink="http://www.w3.org/1999/xlink" width="96.976" height="96.977" viewBox="0 0 96.976 96.977" style="enable-background:new 0 0 96.976 96.977"><g><g><circle cx="48.392" cy="10.035" r="10.035"/><path d="M48.441 29.488c2.285.0 4.606-3.834 4.938-7.887-.799-.406-1.634-.739-2.487-.949l-2.5 2.517-2.424-2.544c-.008.002-.017.002-.024.004-.839.2-1.663.512-2.449.904C43.806 25.611 46.142 29.488 48.441 29.488z"/><path d="M54.867 22.231c-.024-.016-.053-.024-.078-.039-.476 4.129-2.745 8.211-5.747 8.7-.426 2.082.313 2.921 1.177 3.863 1.577 1.718 2.477 3.349-.261 7.855.193.289.307.637.307 1.011.0 1.007-.816 1.823-1.823 1.823s-1.823-.816-1.823-1.823c0-1.007.816-1.824 1.823-1.824.1.0.195.014.291.029 2.387-3.911 1.509-4.89.411-6.086-.926-1.009-2.052-2.248-1.582-4.912-2.834-.683-4.97-4.564-5.457-8.524-.146.063-14.726 7.747-12.661 29.163.201 2.01 1.896 3.508 3.872 3.508.13.0.261-.006.393-.02 2.142-.214 3.703-2.124 3.489-4.264-.59-5.893-.165-10.017.925-13.073.0.0.0 13.317.0 13.906.0 3.039.085 2.948.713 3.692l.002 37.155c0 2.543 2.161 4.604 4.704 4.604s4.505-2.062 4.505-4.604l-.002-32.016c.183.008.364.022.548.022.036.0.072-.004.108-.004l-.002 31.998c0 2.543 2.161 4.604 4.704 4.604s4.505-2.061 4.505-4.604l.003-37.178c.578-.723.755-.891.755-3.669.0-.328.0-14.145.0-14.145.941 2.495 1.562 7.69 1.033 12.958-.214 2.141 1.35 4.049 3.489 4.264.132.013.263.02.394.02 1.977.0 3.671-1.499 3.872-3.508C69.206 33.589 62.439 26.875 54.867 22.231z"/></g></g><g/><g/><g/><g/><g/><g/><g/><g/><g/><g/><g/><g/><g/><g/><g/></svg>