<svg id="Capa_1" xmlns="http://www.w3.org/2000/svg" xmlns:xlink="http://www.w3.org/1999/xlink" width="96.961" height="96.961" viewBox="0 0 96.961 96.961" style="enable-background:new 0 0 96.961 96.961"><g><g><circle cx="48.997" cy="10.564" r="10.564"/><path d="M51.575 21.716c-.009-.002-.019-.002-.027-.004l-2.551 2.678-2.63-2.648c-3.754 1.31-18.352 10.119-20.422 33.549-.309 2.243 1.258 4.311 3.501 4.62.19.026.379.04.567.04 2.015.0 3.772-1.486 4.058-3.537.599-4.307 2.013-10.182 4.115-15.25v5.305l-6.41 28.442c0 0 .707 2.323 7.259 3.541v13.946c0 2.521 2.042 4.562 4.561 4.562 2.52.0 4.563-2.043 4.562-4.562V79.175c.093.0.18.003.274.003.128.0.247-.003.373-.004v13.225c0 2.52 2.041 4.562 4.561 4.562.001.0.001.0.001.0 2.52.0 4.561-2.042 4.561-4.562l.001-13.959c6.537-1.219 7.333-3.523 7.333-3.523l-4.665-25.1c0 0 .652-.023.737-.023 3.587.0 7.966-.853 9.434-4.995C73.172 37.999 60.066 23.768 51.575 21.716zM41.006 36.353c0-.66.535-1.195 1.194-1.195h3.025v-.522c0-.66.535-1.195 1.194-1.195h5.152c.661.0 1.195.536 1.195 1.195v.522h3.023c.66.0 1.195.536 1.195 1.195v4.931c-.676-.135-1.452-.313-2.38-.56-2.191-.586-4.438.718-5.02 2.906-.583 2.189.718 4.436 2.907 5.02 1.698.452 3.159.762 4.492.954v6.912c0 .658-.535 1.194-1.195 1.194H42.2c-.659.0-1.194-.536-1.194-1.194V36.353zM59.809 41.506V37.66c1.303 1.456 2.336 2.83 2.831 3.848C62.047 41.576 61.138 41.608 59.809 41.506z"/></g></g><g/><g/><g/><g/><g/><g/><g/><g/><g/><g/><g/><g/><g/><g/><g/></svg>