<svg id="Capa_1" xmlns="http://www.w3.org/2000/svg" xmlns:xlink="http://www.w3.org/1999/xlink" width="97.429" height="97.429" viewBox="0 0 97.429 97.429" style="enable-background:new 0 0 97.429 97.429"><g><g><path d="M18.286 30.6c-.383-2.645-.677-5.304-1.017-7.956-.09-.694-.08-1.298.66-1.689.19-.1.385-.541.311-.708-.097-.219-.445-.412-.707-.445-.215-.027-.461.197-.693.31-.265.128-.52.329-.797.37-.771.114-.896.425-.535 1.132.303.592.567 1.238.673 1.889.267 1.644.503 3.299.62 4.959.115 1.65.583 5.835-.404 7.57-.16.206.116.528.282.717.098.111.484.144.579.049.4-.396.795-.675 1.38-.413.047.021.12-.016.206-.031.499-.174.352-.521.222-.892C18.81 34.729 18.396 31.358 18.286 30.6z"/><path d="M41.291 20.481c-.277-.041-.532-.242-.797-.37-.232-.113-.479-.337-.693-.31-.262.033-.611.226-.707.445-.074.167.12.608.311.708.739.392.75.996.66 1.689-.34 2.652-.634 5.311-1.018 7.956-.109.758-.384 4.129-.64 4.862-.13.371-.277.718.221.892.087.015.16.052.207.031.585-.262.979.017 1.38.413.095.095.481.063.579-.049.166-.188.442-.511.282-.717-.987-1.735-.658-5.92-.543-7.57.117-1.66.354-3.315.62-4.959.105-.651.37-1.297.672-1.889C42.186 20.906 42.062 20.595 41.291 20.481z"/><path d="M66.826 21.075c-.009.002-.017.002-.024.004-.839.2-1.662.512-2.449.904.312 4.077 2.647 7.955 4.946 7.955 2.285.0 4.606-3.834 4.938-7.887-.799-.406-1.635-.739-2.487-.949l-2.5 2.517L66.826 21.075z"/><path d="M75.726 22.681c-.025-.016-.054-.024-.08-.039-.475 4.129-2.744 8.211-5.746 8.7-.426 2.082.313 2.921 1.178 3.863 1.576 1.718 2.477 3.349-.262 7.855.193.289.308.637.308 1.011.0 1.007-.815 1.823-1.823 1.823-1.007.0-1.822-.816-1.822-1.823.0-1.007.815-1.824 1.822-1.824.1.0.195.014.291.029 2.387-3.911 1.51-4.89.411-6.086-.926-1.009-2.052-2.248-1.582-4.912-2.834-.683-4.97-4.564-5.457-8.524-.146.063-.292.123-.431.208-1.076.66-2.129 1.377-3.146 2.154-3.836-.957-5.443-3.069-8.767-7.488-.642-.854-1.348-1.792-2.125-2.79V1.755c0-.967-.787-1.754-1.755-1.754H10.596c-.968.0-1.755.787-1.755 1.754v36.144c0 .967.787 1.754 1.755 1.754h36.143c.968.0 1.755-.787 1.755-1.754V26.941c2.586 2.791 5.546 4.825 10.473 5.75v5.423c.005-.014.009-.03.015-.043.0.0.0 10.125.0 13.906.0 3.176.763 3.744.763 3.744l.002 37.104c0 2.543 2.062 4.604 4.604 4.604s4.604-2.062 4.604-4.604l-.002-32.016c.184.008.363.023.548.023.036.0.072-.004.108-.004l-.004 31.994c0 2.543 2.062 4.604 4.604 4.604s4.604-2.062 4.604-4.604l.002-37.078c0 0 .705-1.424.705-3.77.0-2.345.0-14.145.0-14.145 1.15 3.047 1.617 7.136 1.033 12.958-.214 2.141 1.35 4.05 3.489 4.264.132.013.263.021.394.021 1.977.0 3.67-1.5 3.871-3.508C90.062 34.039 83.297 27.325 75.726 22.681zM46.738 1.755l.001 11.155c-1.329-.917-3.145-.915-4.468.147-.695.558-1.123 1.316-1.3 2.125-.03-.319-.06-.64-.101-.963-.209-1.651-.298-3.32-.356-4.985-.023-.659.11-1.344.292-1.984.217-.764.035-1.045-.744-1.006-.28.014-.569-.134-.854-.208-.239-.063-.51-.221-.713-.174.273-.749.25-1.362-.07-1.821C37.98 3.4 37.117 3.305 36.644 3.305c-.15.0-.246.009-.246.009-.018.002-.037.005-.055.009-.311.072-3.052.741-3.702 2.149-.095.206-.135.453-.135.727-.151-.014-.301-.022-.445-.022-.524.0-.971.092-1.317.265V6.024c0-.376-.176-.711-.448-.928.06-.122.096-.257.096-.402v-.48c0-.08-.019-.155-.051-.223.28-.203.466-.53.466-.902V2.921c0-.153.047-.903-.563-1.166H46.738zM37.107 15.852c-.11.309-.553.542-1.184.622-.775.099-1.765-.041-2.713-.38-1.934-.693-3.103-1.978-2.856-2.663.086-.24.308-.39.555-.485.527.361 1.154.682 1.86.935.879.315 1.771.479 2.578.479.23.0.454-.013.668-.041.072-.009.141-.024.211-.036C36.898 14.843 37.25 15.457 37.107 15.852zM37.107 19.188c-.11.309-.553.542-1.184.621-.775.099-1.765-.04-2.713-.38-1.934-.693-3.103-1.978-2.856-2.663.075-.21.306-.386.646-.501.52.351 1.133.662 1.822.909.879.315 1.771.479 2.578.479.23.0.454-.013.668-.041.043-.005.082-.015.125-.021C36.885 18.158 37.253 18.783 37.107 19.188zM37.055 12.558c-.11.309-.553.542-1.184.622-.775.099-1.765-.041-2.713-.381-1.934-.693-3.102-1.978-2.856-2.663.093-.26.454-.502.905-.613.407.289.89.537 1.414.725.486.174.979.286 1.45.33.044.078.081.145.11.194.075.131.214.214.366.217.003.0.006.0.01.0.148.0.286-.076.366-.2l.15-.235c.129-.021.252-.046.369-.079C36.707 11.224 37.217 12.106 37.055 12.558zM30.809 7.499c.104-.292.596-.479 1.253-.479.177.0.362.018.552.043.19.873.606 1.84.971 2.583-.225-.049-.452-.11-.679-.192-.696-.25-1.322-.633-1.716-1.05C30.869 8.065 30.727 7.726 30.809 7.499zM30.259 19.01c.632.591 1.508 1.12 2.563 1.499.625.224 1.257.371 1.86.438.525.674.73 1.316.516 1.669-.171.281-.65.419-1.285.372-.779-.06-1.72-.394-2.582-.917-.608-.371-1.149-.82-1.562-1.287C30.156 20.152 30.318 19.545 30.259 19.01zM26.046 35.742c.337-.002.735.408 1.269.73-.358.274-.596.546-.679.505-.378-.187-.712-.46-1.062-.704C25.736 36.087 25.709 35.745 26.046 35.742zM26.12 32.214c.483-.357.903-.439 1.302.201.341.545.793 1.037 1.27 1.472.153.14.643.144.8.007.462-.402.812-.929 1.249-1.361.238-.235.66-.593.836-.517.371.16.885.565.89.875.009.569-.14 1.355-.528 1.67-1.475 1.776-5.136.933-5.935-.205C25.39 33.605 25.452 32.708 26.12 32.214zM26.877 37.899c.266-.078.544-.208.834-.395.939-.603 1.796-.613 2.737-.015.308.195.598.329.87.409L26.877 37.899v0zM31.118 36.559c.311-.283.53-.761.948-.821s.402.212.879.484c-.576.354-.906.617-1.282.75C31.545 37.014 31.303 36.706 31.118 36.559zM32.372 37.899c.558-.201.986-.753 1.259-1.636.158-.515.213-1.865 1.021-2.182 1.2-1.035 2.989-2.498 2.592-3.958-.184-.458-.351-1.196-.738-1.791-1.138-1.747-3.084-2.012-4.618-.681-.559.483-1.085 1.011-1.579 1.56-.884.981-1.538.986-2.419.014-.496-.547-1.019-1.078-1.578-1.559-1.598-1.375-3.631-1.018-4.756.81-.9 1.462-.75 2.596.425 3.886.365.401.589.932.877 1.404 1.259.859 1.503 1.724 1.695 2.466.232.899.673 1.462 1.249 1.666H10.596V1.755h17.305c-.148.093-.252.25-.252.438.0.21.123.39.301.475.098.117 1.743.035 1.743.035.033.0.061.027.061.06v.325c0 .033-.027.061-.061.061h-1.339c-.291.0-.526.236-.526.527s.235.527.526.527h.985c0 .003-.001.007-.001.011v.348h-.764c-.229.0-.422.147-.494.352-.452.167-.774.601-.774 1.111v.392c-.338-.154-.761-.239-1.255-.239-.335.0-.688.042-1.047.116.01-.311-.027-.592-.133-.821-.65-1.408-3.392-2.077-3.702-2.149-.018-.004-.037-.007-.056-.009.0.0-.095-.009-.244-.009-.475.0-1.338.095-1.783.736-.322.462-.344 1.081-.064 1.836.012.031.028.06.046.087-.067-.042-.137-.076-.202-.098-.205-.068-.49.104-.74.169-.285.074-.573.222-.854.208-.779-.039-.961.243-.744 1.006.182.64.315 1.325.292 1.984-.059 1.665-.147 3.334-.356 4.985-.207 1.641-.116 3.229-1.422 4.738-.197.17.011.541.138.758.073.128.446.235.559.16.47-.311.91-.508 1.434-.137.042.03.12.008.208.01.523-.074.446-.444.391-.833-.108-.769-.305-1.547-.266-2.311.14-2.67.368-5.335.55-8.002.046-.698.172-1.288.974-1.528.206-.062.482-.456.442-.635-.001-.005-.004-.012-.006-.018l1.16 1.306.856 1.336c-.009.169.01.337.068.498.025.072.059.141.098.207-1.382.958-2.035 2.169-1.674 3.176.129.36.373.658.713.888-.749.795-1.034 1.658-.766 2.407.136.38.4.691.771.926-.746.794-1.039 1.662-.771 2.41.268.746 1.021 1.233 2.12 1.373.006.0.01.0.015.001-.445.841-.5 1.646-.126 2.263.37.607 1.08.933 2.021.933.108.0.219-.004.333-.013.968-.074 2.065-.458 3.092-1.081.245-.149.476-.311.698-.479.007.0.013.002.021.002h1.921c.009.0.018.002.026.002.088.066.174.132.266.195.016.037.023.076.023.118v.24c0 .174-.142.315-.315.315h-1.921c-.291.0-.527.236-.527.527.0.15.063.284.164.38.084.179.264.303.475.303h1.697c.119.0.217.098.217.218v.212c0 .12-.098.217-.217.217h-1.697c-.291.0-.526.236-.526.527.0.21.124.39.302.475.097.117.24.192.404.192h1.338c.033.0.062.027.062.061v.167c0 .033-.028.061-.062.061h-1.338c-.291.0-.526.236-.526.527s.235.527.526.527h.985c0 .003-.001.007-.001.011v.347h-.764c-.291.0-.527.236-.527.527s.236.526.527.526h.896c.508.0.921-.413.921-.92v-.48c0-.08-.02-.155-.052-.223.281-.202.466-.53.466-.902v-.167c0-.179-.046-.346-.121-.496.279-.233.458-.584.458-.976v-.212c0-.274-.089-.527-.236-.735.212-.194.363-.453.42-.746.837.419 1.693.68 2.467.738.114.009.225.013.334.013.939.0 1.65-.325 2.02-.933.374-.616.319-1.422-.126-2.263.005-.001.01-.001.015-.001 1.1-.14 1.853-.627 2.12-1.373.269-.748-.024-1.616-.77-2.41.37-.234.634-.546.77-.926.269-.749-.017-1.611-.766-2.407.34-.229.584-.528.713-.888.361-1.007-.292-2.218-1.673-3.176.038-.066.071-.135.098-.207.131-.366.08-.76-.115-1.148l.439-.687.999-1.124c.07.189.265.424.42.47.802.24.929.83.977 1.528.182 2.667.41 5.333.55 8.002.039.764-.157 1.542-.266 2.311-.056.389-.133.758.391.833.087-.002.166.02.208-.01.522-.371.964-.174 1.434.137.112.075.485-.032.559-.16.086-.147.199-.361.209-.539.814 1.038 1.548 2.012 2.26 2.959.728.967 1.421 1.889 2.115 2.758l.001 13.005h-14.37V37.899zM25.491 10.248c.523-.188 1.006-.437 1.413-.725.451.111.813.353.905.613.246.685-.923 1.97-2.856 2.663-.948.34-1.938.479-2.713.381-.631-.08-1.073-.313-1.184-.622-.154-.427.295-1.238 1.411-1.958l.121.189c.079.125.218.2.366.2.003.0.006.0.01.0.151-.003.291-.086.366-.217.026-.046.061-.107.101-.178.055.002.109.006.166.006C24.193 10.6 24.849 10.478 25.491 10.248zM23.881 9.742c.358-.721.779-1.677.991-2.555.407-.11.808-.168 1.179-.168.656.0 1.147.188 1.252.479.082.227-.061.565-.381.905-.394.417-1.019.8-1.716 1.05C24.756 9.616 24.305 9.711 23.881 9.742zM21.885 14.282c.07.012.139.027.211.036.215.027.438.041.668.041.807.0 1.699-.164 2.578-.479.706-.253 1.333-.573 1.86-.935.247.095.469.246.555.485.246.685-.923 1.97-2.855 2.663-.949.34-1.938.479-2.714.38-.631-.08-1.073-.313-1.184-.622C20.861 15.457 21.213 14.843 21.885 14.282zM21.918 17.59c.043.006.082.016.125.021.215.027.438.041.668.041.807.0 1.699-.164 2.578-.479.689-.247 1.303-.558 1.822-.909.34.116.57.291.646.501.246.685-.923 1.97-2.855 2.663-.949.34-1.938.479-2.714.38-.631-.08-1.073-.312-1.184-.621C20.858 18.783 21.227 18.158 21.918 17.59zM23.429 20.946c.604-.067 1.235-.213 1.86-.438 1.056-.379 1.932-.908 2.563-1.499-.059.535.103 1.142.489 1.773-.412.467-.953.917-1.562 1.287-.861.524-1.803.858-2.582.917-.635.047-1.114-.091-1.285-.372C22.698 22.262 22.903 21.62 23.429 20.946z"/><path d="M69.295 20.575c5.209.0 9.435-4.224 9.435-9.434.0-2.18-.756-4.171-2-5.765h-3.051V3.945h1.674c-.586-.493-1.224-.928-1.918-1.268C72.717 1.103 71.138.0 69.297.0c-1.838.0-3.416 1.101-4.135 2.673-.697.341-1.337.777-1.927 1.272h1.916v1.432H61.86c-1.241 1.594-1.998 3.585-1.998 5.765C59.862 16.351 64.085 20.575 69.295 20.575zM69.297 1.992c1.413.0 2.563 1.149 2.563 2.563s-1.149 2.563-2.563 2.563-2.563-1.149-2.563-2.563S67.884 1.992 69.297 1.992z"/></g></g><g/><g/><g/><g/><g/><g/><g/><g/><g/><g/><g/><g/><g/><g/><g/></svg>