<svg id="Capa_1" xmlns="http://www.w3.org/2000/svg" xmlns:xlink="http://www.w3.org/1999/xlink" width="98.042" height="98.043" viewBox="0 0 98.042 98.043" style="enable-background:new 0 0 98.042 98.043"><g><g><path d="M52.069 23.964c-.009-.002-.019-.002-.027-.004l-2.512 2.637-2.59-2.607c-3.696 1.29-18.068 9.963-20.106 33.03-.304 2.208 1.238 4.243 3.447 4.549.188.026.374.039.558.039 1.984.0 3.714-1.463 3.995-3.481.589-4.239 1.982-10.024 4.051-15.015v5.223l-6.311 28.002c0 0 .696 2.287 7.146 3.484v13.731c0 2.479 2.011 4.491 4.491 4.491s4.492-2.013 4.491-4.491V80.531c.092.0.178.003.271.003.126.0.243-.003.367-.004v13.021c0 2.479 2.01 4.491 4.49 4.491.001.0.001.0.001.0 2.48.0 4.491-2.012 4.491-4.491V79.809c6.436-1.2 7.219-3.47 7.219-3.47l-4.593-24.71c0 0 .643-.024.727-.024 3.532.0 7.844-.84 9.287-4.917C73.333 39.994 60.429 25.983 52.069 23.964zM57.397 43.229c-.666-.133-1.431-.309-2.343-.551-2.157-.577-4.368.707-4.942 2.861-.574 2.155.707 4.366 2.862 4.941 1.671.444 3.109.75 4.423.938v6.805c0 .649-.527 1.177-1.177 1.177H42.838c-.649.0-1.175-.526-1.175-1.177v-19.85c0-.649.526-1.177 1.175-1.177h2.979v-.515c0-.649.526-1.177 1.176-1.177h5.073c.649.0 1.177.527 1.177 1.177v.515h2.978c.648.0 1.177.527 1.177 1.177L57.397 43.229v0zM60.174 43.447v-3.786c1.283 1.434 2.301 2.786 2.787 3.788C62.379 43.517 61.484 43.548 60.174 43.447z"/><path d="M39.914 13.758c0 5.294 4.292 9.585 9.586 9.585 5.293.0 9.584-4.292 9.584-9.585.0-2.942-1.329-5.572-3.415-7.33l1.45-4.682c-8.483-3.928-15.239.0-15.239.0l1.45 4.682C41.242 8.187 39.914 10.817 39.914 13.758z"/></g></g><g/><g/><g/><g/><g/><g/><g/><g/><g/><g/><g/><g/><g/><g/><g/></svg>