<svg id="Capa_1" xmlns="http://www.w3.org/2000/svg" xmlns:xlink="http://www.w3.org/1999/xlink" width="32" height="32.001" viewBox="0 0 32 32.001" style="enable-background:new 0 0 32 32.001"><g><g><path d="M9.097 17.875c-.291.521-.159 1.174.311 1.54l1.393 1.085c.496.387 1.206.327 1.63-.139l.818-.896 1.178.995c.244.207.56.309.878.281.319-.027.613-.183.82-.427l2.244-2.652c-.705-.52-1.271-1.212-1.628-2.02-.279-.625-.435-1.317-.435-2.045.0-2.779 2.261-5.04 5.041-5.04.567.0 1.113.095 1.623.269.715.245 1.356.645 1.889 1.16l2.83-3.348c.43-.508.365-1.269-.143-1.698l-.578-.488.297-.323c.223-.242.334-.563.313-.891-.021-.327-.174-.632-.424-.843l-2.5-2.112c-.25-.212-.576-.312-.901-.278-.326.033-.623.198-.824.455l-.273.35-.574-.485c-.508-.429-1.27-.365-1.697.143L8.734 14.25c-.395.467-.377 1.154.041 1.601l.911.975L9.097 17.875z"/><path d="M26.242 14.792c-.289 1.184-.996 2.207-1.955 2.898 1.359 1.725 2.652 4.235 2.652 7.574v3.362H10.078v-.212l5.546-2.029v-1.033c0-.666-.54-1.205-1.205-1.205H2.897c-.666.0-1.205.539-1.205 1.205v1.033l5.013 1.838v1.416c0 1.305 1.057 2.362 2.361 2.362h18.883c1.306.0 2.36-1.058 2.36-2.361v-4.375C30.311 20.441 28.209 16.979 26.242 14.792z"/><path d="M21.344 9.685c-2.16.0-3.916 1.757-3.916 3.917.0 2.16 1.756 3.917 3.916 3.917s3.918-1.757 3.918-3.917C25.262 11.44 23.504 9.685 21.344 9.685z"/></g></g><g/><g/><g/><g/><g/><g/><g/><g/><g/><g/><g/><g/><g/><g/><g/></svg>