<svg id="Capa_1" xmlns="http://www.w3.org/2000/svg" xmlns:xlink="http://www.w3.org/1999/xlink" width="31.424" height="31.423" viewBox="0 0 31.424 31.423" style="enable-background:new 0 0 31.424 31.423"><g><path d="M29.064 4.95c-2.645-3.174-10.106-5.418-16.406-3.62C5.942 3.245 2.607 7.488 2.244 15.024c-.016.342-.103.681-.253.989L.092 19.89c-.114.233-.123.507-.022.745.101.24.301.424.547.506l.817.271c.41.138.681.521.671.953-.155 6.672.148 8.367 7.145 8.367 7.414.0 6.461-5.451 15.42-6.517C31.292 23.43 33.607 10.398 29.064 4.95zM26.549 9.917c0 .32-.259.58-.58.58-1.304.0-2.359 1.03-2.359 2.301.0 1.272 1.057 2.302 2.359 2.302.321.0.58.26.58.58v2.298c0 .554-.447.999-.998.999H23.26c-.297.0-.537-.238-.537-.535.0-1.271-1.06-2.304-2.359-2.304-1.303.0-2.357 1.029-2.357 2.304.0.297-.24.535-.537.535h-2.223c-.625.0-1.131-.506-1.131-1.13v-2.953c-.249.132-.612.206-.96.206-1.304.0-2.352-1.03-2.352-2.302.0-1.271 1.044-2.301 2.346-2.301.349.0.717.074.966.206V8.128c0-.832.675-1.506 1.507-1.506h1.849c.297.0.537.24.537.535.0 1.272 1.055 2.302 2.357 2.302 1.301.0 2.357-1.03 2.357-2.302.0-.296.24-.535.537-.535h2.17c.619.0 1.121.502 1.121 1.121L26.549 9.917v0z"/></g><g/><g/><g/><g/><g/><g/><g/><g/><g/><g/><g/><g/><g/><g/><g/></svg>