<svg id="Capa_1" xmlns="http://www.w3.org/2000/svg" xmlns:xlink="http://www.w3.org/1999/xlink" viewBox="0 0 511 511" style="enable-background:new 0 0 511 511"><g><path d="M351.5.0h-192C128.897.0 104 24.897 104 55.5v189.688c0 7.007.229 14.101.68 21.085l13.887 215.255C119.633 498.054 133.441 511 150.001 511h210.997c16.561.0 30.368-12.946 31.435-29.472l13.887-215.254c.451-6.984.68-14.079.68-21.085V55.5C407 24.897 382.103.0 351.5.0zM392 245.188c0 6.686-.218 13.455-.648 20.119l-13.887 215.255c-.559 8.657-7.792 15.438-16.466 15.438H150.001c-8.674.0-15.907-6.781-16.466-15.438l-13.887-215.255c-.43-6.664-.648-13.433-.648-20.119V55.5c0-22.332 18.168-40.5 40.5-40.5h192c22.332.0 40.5 18.168 40.5 40.5V245.188z"/><path d="M351.5 464h-192c-4.142.0-7.5 3.358-7.5 7.5s3.358 7.5 7.5 7.5h192c4.142.0 7.5-3.358 7.5-7.5S355.642 464 351.5 464z"/><path d="M239.5 135c4.142.0 7.5-3.358 7.5-7.5v-16c0-4.142-3.358-7.5-7.5-7.5s-7.5 3.358-7.5 7.5v16C232 131.642 235.358 135 239.5 135z"/><path d="M207.5 135c4.142.0 7.5-3.358 7.5-7.5v-16c0-4.142-3.358-7.5-7.5-7.5s-7.5 3.358-7.5 7.5v16C2e2 131.642 203.358 135 207.5 135z"/><path d="M271.5 135c4.142.0 7.5-3.358 7.5-7.5v-16c0-4.142-3.358-7.5-7.5-7.5s-7.5 3.358-7.5 7.5v16C264 131.642 267.358 135 271.5 135z"/><path d="M303.5 135c4.142.0 7.5-3.358 7.5-7.5v-16c0-4.142-3.358-7.5-7.5-7.5s-7.5 3.358-7.5 7.5v16C296 131.642 299.358 135 303.5 135z"/><path d="M171.5 303h24c10.752.0 19.5-8.748 19.5-19.5s-8.748-19.5-19.5-19.5h-24c-10.752.0-19.5 8.748-19.5 19.5S160.748 303 171.5 303zm0-24h24c2.481.0 4.5 2.019 4.5 4.5s-2.019 4.5-4.5 4.5h-24c-2.481.0-4.5-2.019-4.5-4.5S169.019 279 171.5 279z"/><path d="M243.5 303h24c10.752.0 19.5-8.748 19.5-19.5s-8.748-19.5-19.5-19.5h-24c-10.752.0-19.5 8.748-19.5 19.5S232.748 303 243.5 303zm0-24h24c2.481.0 4.5 2.019 4.5 4.5s-2.019 4.5-4.5 4.5h-24c-2.481.0-4.5-2.019-4.5-4.5S241.019 279 243.5 279z"/><path d="M339.5 264h-24c-10.752.0-19.5 8.748-19.5 19.5s8.748 19.5 19.5 19.5h24c10.752.0 19.5-8.748 19.5-19.5S350.252 264 339.5 264zm0 24h-24c-2.481.0-4.5-2.019-4.5-4.5s2.019-4.5 4.5-4.5h24c2.481.0 4.5 2.019 4.5 4.5S341.981 288 339.5 288z"/><path d="M171.5 351h24c10.752.0 19.5-8.748 19.5-19.5s-8.748-19.5-19.5-19.5h-24c-10.752.0-19.5 8.748-19.5 19.5S160.748 351 171.5 351zm0-24h24c2.481.0 4.5 2.019 4.5 4.5s-2.019 4.5-4.5 4.5h-24c-2.481.0-4.5-2.019-4.5-4.5S169.019 327 171.5 327z"/><path d="M243.5 351h24c10.752.0 19.5-8.748 19.5-19.5s-8.748-19.5-19.5-19.5h-24c-10.752.0-19.5 8.748-19.5 19.5S232.748 351 243.5 351zm0-24h24c2.481.0 4.5 2.019 4.5 4.5s-2.019 4.5-4.5 4.5h-24c-2.481.0-4.5-2.019-4.5-4.5S241.019 327 243.5 327z"/><path d="M339.5 312h-24c-10.752.0-19.5 8.748-19.5 19.5s8.748 19.5 19.5 19.5h24c10.752.0 19.5-8.748 19.5-19.5S350.252 312 339.5 312zm0 24h-24c-2.481.0-4.5-2.019-4.5-4.5s2.019-4.5 4.5-4.5h24c2.481.0 4.5 2.019 4.5 4.5S341.981 336 339.5 336z"/><path d="M171.5 399h24c10.752.0 19.5-8.748 19.5-19.5s-8.748-19.5-19.5-19.5h-24c-10.752.0-19.5 8.748-19.5 19.5S160.748 399 171.5 399zm0-24h24c2.481.0 4.5 2.019 4.5 4.5s-2.019 4.5-4.5 4.5h-24c-2.481.0-4.5-2.019-4.5-4.5S169.019 375 171.5 375z"/><path d="M243.5 399h24c10.752.0 19.5-8.748 19.5-19.5s-8.748-19.5-19.5-19.5h-24c-10.752.0-19.5 8.748-19.5 19.5S232.748 399 243.5 399zm0-24h24c2.481.0 4.5 2.019 4.5 4.5s-2.019 4.5-4.5 4.5h-24c-2.481.0-4.5-2.019-4.5-4.5S241.019 375 243.5 375z"/><path d="M339.5 360h-24c-10.752.0-19.5 8.748-19.5 19.5s8.748 19.5 19.5 19.5h24c10.752.0 19.5-8.748 19.5-19.5S350.252 360 339.5 360zm0 24h-24c-2.481.0-4.5-2.019-4.5-4.5s2.019-4.5 4.5-4.5h24c2.481.0 4.5 2.019 4.5 4.5S341.981 384 339.5 384z"/><path d="M171.5 447h24c10.752.0 19.5-8.748 19.5-19.5s-8.748-19.5-19.5-19.5h-24c-10.752.0-19.5 8.748-19.5 19.5S160.748 447 171.5 447zm0-24h24c2.481.0 4.5 2.019 4.5 4.5s-2.019 4.5-4.5 4.5h-24c-2.481.0-4.5-2.019-4.5-4.5S169.019 423 171.5 423z"/><path d="M243.5 447h24c10.752.0 19.5-8.748 19.5-19.5s-8.748-19.5-19.5-19.5h-24c-10.752.0-19.5 8.748-19.5 19.5S232.748 447 243.5 447zm0-24h24c2.481.0 4.5 2.019 4.5 4.5s-2.019 4.5-4.5 4.5h-24c-2.481.0-4.5-2.019-4.5-4.5S241.019 423 243.5 423z"/><path d="M339.5 408h-24c-10.752.0-19.5 8.748-19.5 19.5s8.748 19.5 19.5 19.5h24c10.752.0 19.5-8.748 19.5-19.5S350.252 408 339.5 408zm0 24h-24c-2.481.0-4.5-2.019-4.5-4.5s2.019-4.5 4.5-4.5h24c2.481.0 4.5 2.019 4.5 4.5S341.981 432 339.5 432z"/><path d="M351.5 56h-192C146.542 56 136 66.542 136 79.5v144c0 12.958 10.542 23.5 23.5 23.5h192c12.958.0 23.5-10.542 23.5-23.5v-144C375 66.542 364.458 56 351.5 56zM248 215v17h-41v-17h41zm15 0h41v17h-41V215zM159.5 2e2c-2.997.0-5.862.57-8.5 1.598v-20.195c2.638 1.028 5.503 1.598 8.5 1.598h192c2.997.0 5.862-.57 8.5-1.598v20.195c-2.638-1.028-5.503-1.598-8.5-1.598h-192zM151 79.5c0-4.687 3.813-8.5 8.5-8.5h192c4.687.0 8.5 3.813 8.5 8.5v80c0 4.687-3.813 8.5-8.5 8.5h-192c-4.687.0-8.5-3.813-8.5-8.5v-80zm0 144c0-4.687 3.813-8.5 8.5-8.5H192v17h-32.5C154.813 232 151 228.187 151 223.5zM351.5 232H319v-17h32.5c4.687.0 8.5 3.813 8.5 8.5S356.187 232 351.5 232z"/></g><g/><g/><g/><g/><g/><g/><g/><g/><g/><g/><g/><g/><g/><g/><g/></svg>