<svg id="Capa_1" xmlns="http://www.w3.org/2000/svg" xmlns:xlink="http://www.w3.org/1999/xlink" viewBox="0 0 511 511" style="enable-background:new 0 0 511 511"><g><path d="M303.5 408c-4.142.0-7.5 3.358-7.5 7.5V432H39V79h257v16.5c0 4.142 3.358 7.5 7.5 7.5s7.5-3.358 7.5-7.5v-56C311 17.72 293.28.0 271.5.0h-208C41.72.0 24 17.72 24 39.5v432c0 21.78 17.72 39.5 39.5 39.5h208c21.78.0 39.5-17.72 39.5-39.5v-56C311 411.358 307.642 408 303.5 408zM63.5 15h208c13.509.0 24.5 10.991 24.5 24.5V64H39V39.5C39 25.991 49.991 15 63.5 15zm208 481h-208C49.991 496 39 485.009 39 471.5V447h257v24.5C296 485.009 285.009 496 271.5 496z"/><path d="M151.5 47h32c4.142.0 7.5-3.358 7.5-7.5s-3.358-7.5-7.5-7.5h-32c-4.142.0-7.5 3.358-7.5 7.5S147.358 47 151.5 47z"/><path d="M127.5 47c1.97.0 3.91-.8 5.3-2.2 1.4-1.39 2.2-3.33 2.2-5.3s-.8-3.91-2.2-5.3c-1.39-1.4-3.32-2.2-5.3-2.2-1.97.0-3.91.8-5.3 2.2-1.4 1.39-2.2 3.33-2.2 5.3s.8 3.91 2.2 5.3C123.59 46.2 125.53 47 127.5 47z"/><path d="M447.5 120h-328C97.72 120 80 137.72 80 159.5v192c0 21.78 17.72 39.5 39.5 39.5h328c21.78.0 39.5-17.72 39.5-39.5v-192C487 137.72 469.28 120 447.5 120zM472 351.5c0 13.509-10.991 24.5-24.5 24.5h-328c-13.509.0-24.5-10.991-24.5-24.5v-192c0-13.509 10.991-24.5 24.5-24.5h328c13.509.0 24.5 10.991 24.5 24.5v192z"/><path d="M135.5 303h56c4.142.0 7.5-3.358 7.5-7.5s-3.358-7.5-7.5-7.5h-56c-4.142.0-7.5 3.358-7.5 7.5S131.358 303 135.5 303z"/><path d="M271.5 288h-56c-4.142.0-7.5 3.358-7.5 7.5s3.358 7.5 7.5 7.5h56c4.142.0 7.5-3.358 7.5-7.5S275.642 288 271.5 288z"/><path d="M351.5 288h-56c-4.142.0-7.5 3.358-7.5 7.5s3.358 7.5 7.5 7.5h56c4.142.0 7.5-3.358 7.5-7.5S355.642 288 351.5 288z"/><path d="M351.5 328h-56c-4.142.0-7.5 3.358-7.5 7.5s3.358 7.5 7.5 7.5h56c4.142.0 7.5-3.358 7.5-7.5S355.642 328 351.5 328z"/><path d="M431.5 288h-56c-4.142.0-7.5 3.358-7.5 7.5s3.358 7.5 7.5 7.5h56c4.142.0 7.5-3.358 7.5-7.5S435.642 288 431.5 288z"/><path d="M271.5 328h-136c-4.142.0-7.5 3.358-7.5 7.5s3.358 7.5 7.5 7.5h136c4.142.0 7.5-3.358 7.5-7.5S275.642 328 271.5 328z"/><path d="M137.5 239h60c5.238.0 9.5-4.262 9.5-9.5v-44c0-5.238-4.262-9.5-9.5-9.5h-60c-5.238.0-9.5 4.262-9.5 9.5v44C128 234.738 132.262 239 137.5 239zM192 224h-17v-33h17v33zm-49-33h17v33h-17V191z"/><path d="M407.5 176h-32c-17.369.0-31.5 14.131-31.5 31.5s14.131 31.5 31.5 31.5h32c17.369.0 31.5-14.131 31.5-31.5S424.869 176 407.5 176zm0 48h-32c-9.098.0-16.5-7.402-16.5-16.5s7.402-16.5 16.5-16.5h32c9.098.0 16.5 7.402 16.5 16.5S416.598 224 407.5 224z"/><g><g><path d="M167.5 486c-7.995.0-14.5-6.505-14.5-14.5s6.505-14.5 14.5-14.5 14.5 6.505 14.5 14.5S175.495 486 167.5 486z"/></g></g></g><g/><g/><g/><g/><g/><g/><g/><g/><g/><g/><g/><g/><g/><g/><g/></svg>