<svg id="Capa_1" xmlns="http://www.w3.org/2000/svg" xmlns:xlink="http://www.w3.org/1999/xlink" viewBox="0 0 418.382 418.382" style="enable-background:new 0 0 418.382 418.382"><g><path d="M209.191 22.97c-15.092.0-29.091 7.669-39.418 21.594-9.697 13.074-15.037 30.305-15.037 48.52.0 18.214 5.34 35.446 15.037 48.52 10.328 13.925 24.327 21.594 39.418 21.594s29.091-7.669 39.419-21.594c9.696-13.074 15.037-30.305 15.037-48.52.0-18.215-5.34-35.446-15.037-48.52C238.282 30.639 224.283 22.97 209.191 22.97zM185.033 55.882c6.654-8.972 15.233-13.913 24.158-13.913 8.925.0 17.504 4.941 24.158 13.913 7.285 9.823 11.297 23.035 11.297 37.202.0 8.38-1.414 16.42-4.07 23.628-2.325-3.264-5.138-6.158-8.344-8.559 4.318-5.193 6.92-11.861 6.92-19.127.0-16.52-13.44-29.959-29.96-29.959-16.52.0-29.959 13.44-29.959 29.959.0 7.265 2.601 13.933 6.918 19.125-3.207 2.401-6.02 5.295-8.346 8.561-2.655-7.208-4.07-15.248-4.07-23.628C173.736 78.917 177.748 65.705 185.033 55.882zM209.193 99.986c-6.043.0-10.959-4.917-10.959-10.96.0-6.043 4.917-10.959 10.959-10.959 6.043.0 10.96 4.917 10.96 10.959C220.153 95.07 215.236 99.986 209.193 99.986zM189.948 135.847c1.517-9.264 9.556-16.363 19.243-16.363 9.687.0 17.725 7.099 19.243 16.362-5.734 5.423-12.384 8.352-19.243 8.352C202.333 144.198 195.682 141.27 189.948 135.847z"/><path d="M376.842.0H41.541c-5.247.0-9.5 4.253-9.5 9.5v167.167c0 5.247 4.253 9.5 9.5 9.5h335.301c5.247.0 9.5-4.253 9.5-9.5V9.5C386.342 4.253 382.088.0 376.842.0zm-9.5 39.359c-9.65-3.077-17.283-10.709-20.36-20.359h20.36V39.359zM327.416 167.167H90.963c-3.865-20.148-19.775-36.059-39.922-39.925V58.923C71.188 55.057 87.097 39.147 90.962 19h236.454c3.866 20.148 19.777 36.059 39.925 39.924v68.317C347.193 131.107 331.282 147.018 327.416 167.167zM71.397 19c-3.077 9.649-10.709 17.28-20.357 20.358V19H71.397zM51.041 146.808c9.649 3.078 17.28 10.71 20.357 20.36H51.041V146.808zM346.981 167.167c3.077-9.65 10.71-17.283 20.361-20.361v20.361H346.981z"/><path d="M218.689 267.05v-4.777c0-5.247-4.253-9.5-9.5-9.5s-9.5 4.253-9.5 9.5v4.777c-13.068 1.569-23.232 12.716-23.232 26.2v12.672c0 13.484 10.165 24.631 23.232 26.2v26.94c-2.498-1.188-4.232-3.73-4.232-6.675.0-5.247-4.253-9.5-9.5-9.5s-9.5 4.253-9.5 9.5c0 13.484 10.165 24.631 23.232 26.2v4.776c0 5.247 4.253 9.5 9.5 9.5s9.5-4.253 9.5-9.5v-4.776c13.068-1.569 23.233-12.716 23.233-26.2v-12.672c0-13.484-10.165-24.631-23.233-26.2v-26.941c2.498 1.189 4.233 3.73 4.233 6.676v7.04c0 5.247 4.253 9.5 9.5 9.5s9.5-4.253 9.5-9.5v-7.04C241.922 279.766 231.758 268.619 218.689 267.05zM195.457 305.922V293.25c0-2.945 1.735-5.487 4.232-6.675v26.023C197.192 311.409 195.457 308.868 195.457 305.922zM222.922 339.715v12.672c0 2.946-1.735 5.487-4.233 6.676V333.04C221.187 334.228 222.922 336.77 222.922 339.715z"/><path d="M209.189 227.255c-52.694.0-95.563 42.87-95.563 95.563s42.87 95.563 95.563 95.563 95.563-42.87 95.563-95.563S261.883 227.255 209.189 227.255zm0 172.127c-42.217.0-76.563-34.346-76.563-76.563s34.346-76.563 76.563-76.563 76.563 34.346 76.563 76.563S251.407 399.382 209.189 399.382z"/><path d="M86.346 232.671l7.388 6.794c3.862 3.552 9.873 3.3 13.423-.562 3.551-3.862 3.3-9.872-.562-13.423l-32.031-29.457c-2.498-2.297-6.033-3.087-9.271-2.073-3.239 1.015-5.69 3.68-6.431 6.993l-9.495 42.468c-1.145 5.12 2.078 10.199 7.198 11.344.698.156 1.395.231 2.082.231 4.35.0 8.273-3.007 9.262-7.429l1.413-6.318c6.469 15.084 15.356 29.12 26.415 41.583 1.877 2.116 4.487 3.195 7.109 3.195 2.242.0 4.493-.789 6.302-2.394 3.925-3.482 4.283-9.487.801-13.411C99.99 258.986 92.053 246.303 86.346 232.671z"/><path d="M354.177 248.458l-5.783 2.913c7.567-14.565 12.791-30.335 15.421-46.789.828-5.181-2.7-10.052-7.881-10.88-5.181-.827-10.052 2.7-10.88 7.881-2.369 14.819-7.149 28.997-14.075 42.051l.573-10.021c.299-5.238-3.705-9.727-8.942-10.026-5.239-.308-9.727 3.704-10.026 8.942l-2.482 43.446c-.194 3.389 1.435 6.623 4.273 8.485 1.575 1.034 3.39 1.557 5.212 1.557 1.46.0 2.924-.336 4.272-1.015l38.866-19.574c4.686-2.36 6.572-8.072 4.212-12.758C364.574 247.983 358.863 246.099 354.177 248.458z"/></g><g/><g/><g/><g/><g/><g/><g/><g/><g/><g/><g/><g/><g/><g/><g/></svg>