<svg id="Capa_1" xmlns="http://www.w3.org/2000/svg" xmlns:xlink="http://www.w3.org/1999/xlink" width="124.51" height="124.51" viewBox="0 0 124.51 124.51" style="enable-background:new 0 0 124.51 124.51"><g><g><path d="M49.766 37.636c0 0-52.831 69.336 15.948 70.771.0.0 67.484.0 1.681-74.055C55.149 33.25 49.766 37.636 49.766 37.636zM66.772 71.292c7.375 2.604 10.355 6.015 10.355 11.601.0 5.517-3.908 10.229-11.039 11.472v6.322h-6.081v-5.889c-4.154-.187-8.185-1.302-10.543-2.664l1.863-7.258c2.605 1.425 6.263 2.728 10.297 2.728 3.535.0 5.954-1.364 5.954-3.844.0-2.357-1.985-3.847-6.575-5.398-6.636-2.231-11.165-5.332-11.165-11.347.0-5.459 3.847-9.736 10.483-11.04v-5.895h6.075v5.459c4.154.187 6.947 1.051 8.994 2.047l-1.8 7.009c-1.609-.682-4.463-2.11-8.934-2.11-4.028.0-5.332 1.736-5.332 3.475C59.328 68.004 61.5 69.307 66.772 71.292z"/><path d="M66.313 31.057c0 0 4.584-14.156-.798-14.754-4.532-.503-11.465-.401-18.542 4.472 2.208 2.826 4.687 5.597 4.687 5.597l-6.016-4.623c-.887.687-1.773 1.448-2.655 2.3l6.977 10.128C49.965 34.176 58.064 29.859 66.313 31.057z"/><path d="M26.972 78.221h-13.96v-4.249c2.779-1.152 5.874-4.143 5.874-7.706.0-.734-.05-1.363-.157-2.096h-5.14v-5.404h4.196c-.261-1.311-.42-2.833-.42-4.246.0-6.61 4.825-10.96 11.85-10.96 2.887.0 5.034.626 6.185 1.258l-1.311 6.03c-.994-.577-2.463-.945-4.4-.945-3.723.0-4.876 2.414-4.876 4.932.0 1.362.152 2.621.469 3.932h7.187v.17c2.39-5.503 5.181-10.565 7.669-14.655-3.012-4.222-6.716-8.846-11.223-13.918-9.567-.863-13.773 2.564-13.773 2.564s-41.111 53.958 12.146 55.288C26.671 85.011 26.615 81.642 26.972 78.221z"/><path d="M25.491 67.891c-.47 1.313-1.311 2.623-2.566 3.724v.104h5.176c.605-2.537 1.385-5.07 2.281-7.547h-4.416C26.018 65.48 25.915 66.684 25.491 67.891z"/><path d="M28.069 27.786c0 0 3.582-11.062-.622-11.526-3.542-.394-8.96-.313-14.489 3.494 1.727 2.207 3.663 4.372 3.663 4.372l-4.7-3.61c-.693.536-1.386 1.13-2.076 1.795l5.452 7.912C15.297 30.222 21.625 26.852 28.069 27.786z"/><path d="M101.993 30.362C92.427 29.5 88.22 32.926 88.22 32.926s-3.566 4.682-7.237 11.32c2.25 2.943 4.286 5.795 6.131 8.563.539-.964 1.159-1.854 1.854-2.658 2.989-3.355 7.182-5.349 12.112-5.349 3.197.0 5.976.732 7.865 1.574l-1.47 5.978c-1.361-.576-3.515-1.259-5.819-1.259-2.519.0-4.824.837-6.45 2.83-.734.841-1.312 2.045-1.679 3.406h13.057v3.724H92.038c.273.409 1.183 1.979 1.431 2.464h13.115v3.722H95.253c.359.807.702 1.604 1.017 2.388.399 1.004.755 1.991 1.084 2.967 1.357.686 2.931.992 4.563.992 2.412.0 4.876-.786 5.979-1.362l1.26 5.819c-1.785.998-4.825 1.993-8.181 1.993-.604.0-1.201-.031-1.792-.09.44 2.916.483 5.661.145 8.232.446.018.896.031 1.355.041C100.683 88.223 153.408 88.223 101.993 30.362z"/><path d="M101.148 27.786c0 0 3.582-11.062-.622-11.526-3.54-.394-8.96-.313-14.487 3.494 1.727 2.207 3.662 4.372 3.662 4.372l-4.7-3.61c-.692.536-1.387 1.13-2.076 1.795l5.451 7.912C88.375 30.222 94.703 26.852 101.148 27.786z"/></g></g><g/><g/><g/><g/><g/><g/><g/><g/><g/><g/><g/><g/><g/><g/><g/></svg>