<svg id="Capa_1" xmlns="http://www.w3.org/2000/svg" xmlns:xlink="http://www.w3.org/1999/xlink" viewBox="0 0 470.684 470.684" style="enable-background:new 0 0 470.684 470.684"><g><path d="M421.391 65.33H287.51c-14.29-17.967-32.473-32.894-52.851-43.337C211.794 10.276 187.09 4.335 161.23 4.335 72.328 4.335.0 76.663.0 165.565c0 88.897 72.328 161.22 161.23 161.22 15.174.0 30.071-2.091 44.453-6.212v96.483c0 27.18 22.113 49.293 49.293 49.293H421.39c27.181.0 49.293-22.113 49.293-49.293V114.623C470.684 87.443 448.572 65.33 421.391 65.33zM161.23 307.785C82.804 307.785 19 243.986 19 165.565c0-78.426 63.804-142.23 142.23-142.23 22.817.0 44.606 5.237 64.763 15.567 13.299 6.815 25.539 15.797 36.115 26.428h-7.132c-5.008.0-9.841.756-14.398 2.15-22.407-18.145-50.362-28.075-79.349-28.075C91.666 39.405 35.07 96 35.07 165.565c0 69.564 56.595 126.16 126.16 126.16 15.188.0 30.31-2.769 44.453-8.081v17.062C191.399 305.406 176.476 307.785 161.23 307.785zM205.684 114.623v148.461c-13.952 6.395-28.878 9.641-44.453 9.641-59.088.0-107.16-48.072-107.16-107.16.0-59.088 48.072-107.16 107.16-107.16 22.028.0 43.339 6.773 61.215 19.23C212.179 86.676 205.684 99.901 205.684 114.623zM451.684 417.056c0 16.704-13.59 30.293-30.293 30.293H254.977c-16.704.0-30.293-13.589-30.293-30.293V114.623c0-16.704 13.589-30.293 30.293-30.293h166.414c16.703.0 30.293 13.589 30.293 30.293V417.056z"/><path d="M434.25 125.231H242.118c-5.247.0-9.5 4.253-9.5 9.5v249.395c0 5.247 4.253 9.5 9.5 9.5H434.25c5.247.0 9.5-4.253 9.5-9.5V134.731C443.75 129.484 439.497 125.231 434.25 125.231zM251.618 286.378c25.423-13.359 46.967-33.092 62.555-57.372 16.287-25.369 25.257-54.587 26.104-84.775h35.535c-1.851 80.028-50.784 150.986-124.193 181.357V286.378zM321.276 144.231c-.841 26.541-8.776 52.209-23.093 74.511-11.963 18.634-27.884 34.242-46.565 45.776V144.231H321.276zM424.75 374.626H251.618v-28.627c84.502-31.516 141.291-111.392 143.201-201.768h29.931V374.626z"/><path d="M338.184 397.43c-13.159.0-23.865 10.706-23.865 23.865s10.706 23.865 23.865 23.865 23.864-10.706 23.864-23.865S351.343 397.43 338.184 397.43zM338.184 426.16c-2.683.0-4.865-2.182-4.865-4.865s2.183-4.865 4.865-4.865 4.864 2.183 4.864 4.865S340.867 426.16 338.184 426.16z"/><path d="M322.647 115.753h31.073c5.247.0 9.5-4.253 9.5-9.5s-4.253-9.5-9.5-9.5h-31.073c-5.247.0-9.5 4.253-9.5 9.5S317.4 115.753 322.647 115.753z"/><path d="M170.733 99.326v-7.764c0-5.247-4.253-9.5-9.5-9.5s-9.5 4.253-9.5 9.5v7.764c-15.811.913-28.395 14.06-28.395 30.095v15.488c0 16.035 12.584 29.182 28.395 30.095v37.692c-5.315-.846-9.395-5.449-9.395-10.998.0-5.247-4.253-9.5-9.5-9.5s-9.5 4.253-9.5 9.5c0 16.035 12.584 29.182 28.395 30.095v7.764c0 5.247 4.253 9.5 9.5 9.5s9.5-4.253 9.5-9.5v-7.764c15.81-.913 28.394-14.06 28.394-30.095V186.21c0-16.035-12.584-29.182-28.394-30.095v-37.691c5.315.846 9.394 5.449 9.394 10.998v8.604c0 5.247 4.253 9.5 9.5 9.5s9.5-4.253 9.5-9.5v-8.604C199.127 113.386 186.543 100.239 170.733 99.326zM142.338 144.909v-15.488c0-5.55 4.079-10.152 9.395-10.998v37.484C146.418 155.061 142.338 150.459 142.338 144.909zM180.127 186.21v15.488c0 5.549-4.079 10.152-9.394 10.998v-37.484C176.048 176.058 180.127 180.661 180.127 186.21z"/></g><g/><g/><g/><g/><g/><g/><g/><g/><g/><g/><g/><g/><g/><g/><g/></svg>