<svg id="Capa_1" xmlns="http://www.w3.org/2000/svg" xmlns:xlink="http://www.w3.org/1999/xlink" width="31.944" height="31.944" viewBox="0 0 31.944 31.944" style="enable-background:new 0 0 31.944 31.944"><g><g><path d="M17.532 7.243c.117-.852.35-1.524.689-1.715.381-.214.758-.388 1.115-.554 1.271-.591 2.79-1.298 3.397-3.278.118-.387.053-.806-.185-1.136-.23-.331-.604-.535-1.011-.551l-.178-.008c-.589-.024-1.117.346-1.298.906-.244.768-.82 1.035-1.904 1.539-.42.195-.855.4-1.303.65-1.502.842-2.021 2.516-2.163 4.165C15.603 6.989 16.575 7.112 17.532 7.243z"/><path d="M7.862 17.83v6.021c0 4.47 3.622 8.094 8.109 8.094 4.49.0 8.111-3.625 8.111-8.094v-5.979C18.327 17.833 11.175 17.811 7.862 17.83z"/><path d="M16.32 8.678l.011 6.919c2.109.008 4.626.02 7.63.039C23.429 11.829 20.241 8.87 16.32 8.678z"/><path d="M15.214 15.593l.006-6.894c-3.776.317-6.816 3.206-7.351 6.902C9.331 15.585 11.615 15.581 15.214 15.593z"/></g></g><g/><g/><g/><g/><g/><g/><g/><g/><g/><g/><g/><g/><g/><g/><g/></svg>