<svg id="Capa_1" xmlns="http://www.w3.org/2000/svg" xmlns:xlink="http://www.w3.org/1999/xlink" width="122.999" height="122.999" viewBox="0 0 122.999 122.999" style="enable-background:new 0 0 122.999 122.999"><g><g><path d="M57.101 18.59C44.776 18.117 7.073 31.199 1.185 35.979c-1.911 1.551-1.135 4.474-.269 5.455 3.525 4.493 29.15-3.731 31.068-4.232 6.02-1.498 24.223-5.452 24.917.971-13.448.668-19.365 4.438-19.46 6.519-.128 2.809 3.107 3.342 5.703 3.585 5.618.528 13.061-.633 19.646.299 14.809 2.096 20.24 1.036 30.826-5.495 2.092-1.291 7.566-2.224 12.733-2.652v-24.59c-11.064 1.856-24.001 2.854-29.426 2.83C70.312 18.63 63.697 18.844 57.101 18.59z"
			/><path d="M108.947 9.89v33.975h14.052V9.89H108.947zM116.34 18.625c-1.715.0-3.104-1.39-3.104-3.104s1.39-3.104 3.104-3.104c1.715.0 3.105 1.39 3.105 3.104S118.056 18.625 116.34 18.625z"/><path d="M69.031 76.229l-3.633-2.979-3.271 2.979-3.198-2.905-4.143 2.905V55.959H30v57.15h63v-57.15H69.031V76.229zM80.911 88.637l7.434 7.431h-4.646v12.307h-5.572V96.066h-4.644L80.911 88.637zM66.235 96.066v12.306h-5.572V96.066H56.02l7.431-7.431 7.431 7.431H66.235z"/></g></g><g/><g/><g/><g/><g/><g/><g/><g/><g/><g/><g/><g/><g/><g/><g/></svg>