<svg id="Capa_1" xmlns="http://www.w3.org/2000/svg" xmlns:xlink="http://www.w3.org/1999/xlink" width="31.776" height="31.776" viewBox="0 0 31.776 31.776" style="enable-background:new 0 0 31.776 31.776"><g><g><path d="M29.721 11.613c-1.54-4.075-6.646-5.248-6.646-5.248-2.805-.715-3.735-3.484-4.045-5.122-.137-.715-.76-1.234-1.486-1.236L14.861.0c-.539-.002-1.057.211-1.438.592-.381.381-.596.897-.596 1.437v18.24c-.007-.002-.013-.002-.018-.006-.896-.211-1.841-.328-2.803-.328-4.603.0-8.334 2.65-8.334 5.922.0 3.269 3.731 5.919 8.334 5.919 4.449.0 8.57-2.478 8.842-5.593.012-.108.029-14.997.029-14.997 1.375.472 2.683.622 3.566.712 1.497.149 3.85-.004 4.413 2.659.425 2.002-.888 3.579-1.563 4.237-.219.213-.271.543-.131.812l.058.105c.101.189.274.33.483.387.209.058.435.021.615-.096C31.791 16.493 29.721 11.613 29.721 11.613zM12.632 23.432c-.07.834-.791 1.463-1.636 1.379-3.935-.321-4.429 1.793-4.433 1.812-.15.715-.78 1.203-1.48 1.203-.104.0-.207-.014-.312-.033C3.952 27.621 3.429 26.82 3.6 26.002c.346-1.652 2.395-4.656 7.651-4.207C12.085 21.866 12.703 22.6 12.632 23.432z"/></g></g><g/><g/><g/><g/><g/><g/><g/><g/><g/><g/><g/><g/><g/><g/><g/></svg>