<svg id="Capa_1" xmlns="http://www.w3.org/2000/svg" xmlns:xlink="http://www.w3.org/1999/xlink" width="31.963" height="31.964" viewBox="0 0 31.963 31.964" style="enable-background:new 0 0 31.963 31.964"><g><g><path d="M17.638 14.1c2.088.814 4.479.405 5.174-1.008.024-.048 2.757-7.034 2.757-7.034.56.472 1.146.782 1.545.986C27.79 7.388 28.921 7.746 28.7 9.1c-.167 1.017-1.071 1.518-1.511 1.703-.141.06-.226.205-.209.357l.028.249c.007.058.037.111.083.146s.106.05.164.04c3.408-.577 3.326-3.354 3.326-3.354.021-2.195-2.16-3.679-2.16-3.679-1.186-.848-1.117-2.319-.963-3.145.067-.36-.129-.718-.471-.852l-1.259-.494c-.252-.099-.534-.094-.782.015s-.444.313-.542.565l-3.337 8.564c-.004-.001-.007-.003-.008-.005-.382-.264-.805-.491-1.256-.667-2.16-.842-4.397-.28-4.996 1.256C14.211 11.331 15.477 13.259 17.638 14.1zM15.686 10.22c.464-.713 1.977-1.749 4.361-.577.379.187.534.644.349 1.021-.185.377-.638.542-1.02.347-1.789-.87-2.407.033-2.413.041-.201.308-.586.423-.915.294-.049-.019-.095-.042-.14-.073C15.555 11.043 15.457 10.572 15.686 10.22z"/><path d="M25.891 16.697c-.093-.629-.634-1.074-1.268-1.074H14.337l-1.868-2.247c-.396-.465-.977-.793-1.588-.793H4.198c-.477.0-.929.25-1.237.614-.307.366-.438.889-.358 1.358l.177 1.068H2.663c-.374.0-.729.143-.971.426-.246.283-.353.649-.294 1.02l2.075 13.474c.125.812.823 1.421 1.642 1.421h21.541c.373.0.728-.18.971-.461.243-.282.353-.654.298-1.022L25.891 16.697z"/><path d="M29.322 13.597H27.04l.52 4.818 1.24 8.413 1.737-11.802c.05-.352-.052-.718-.286-.987C30.016 13.77 29.678 13.597 29.322 13.597z"/></g></g><g/><g/><g/><g/><g/><g/><g/><g/><g/><g/><g/><g/><g/><g/><g/></svg>