<svg id="Capa_1" xmlns="http://www.w3.org/2000/svg" xmlns:xlink="http://www.w3.org/1999/xlink" width="31.792" height="31.792" viewBox="0 0 31.792 31.792" style="enable-background:new 0 0 31.792 31.792"><g><path d="M23.009 16.306c-.682-.917-1.551-1.609-2.516-2.105-.486-.246-.996-.449-1.575-.576-.226-.049-.44-.076-.647-.09l-.061-2.733c0-.071.0-.143.0-.213.083-.052.167-.104.249-.156.83-.529 1.619-1.078 2.396-1.736.769-.659 1.539-1.406 2.119-2.464.57-1.073.812-2.344.444-3.669-.348-1.306-1.604-2.523-3.161-2.561-.764-.031-1.531.251-2.086.699-.283.223-.515.475-.705.748-.138.205-.257.338-.41.601-.635 1.021-.929 2.054-1.072 3.092-.137 1.024-.14 2.002-.098 2.94l.021.532c-1.22.686-2.512 1.395-3.745 2.259-.807.562-1.608 1.19-2.342 1.971-.73.772-1.398 1.727-1.78 2.853-.382 1.129-.464 2.333-.235 3.483.186 1.045.605 2.129 1.216 3.068 1.228 1.926 3.274 3.161 5.348 3.637.691.148 1.392.236 2.097.252l.037 1.233c.002.042.004.089.01.132.014.104.027.299.027.448.001.161-.005.321-.021.476-.03.309-.1.59-.197.797-.101.209-.208.314-.332.39-.066.033-.148.061-.246.08-.053.005-.103.018-.166.018-.007.0-.061.002-.063.002l-.128-.007-.143-.01-.069-.018c-.042-.006-.096-.018-.164-.037-.124-.029-.246-.077-.354-.135-.22-.108-.397-.262-.498-.41-.102-.151-.14-.291-.132-.463.005-.086.015-.182.059-.287.025-.104.098-.219.149-.334l.071-.157c.233-.523.013-1.144-.506-1.397-.532-.262-1.173-.043-1.435.488-.119.241-.244.47-.322.75-.091.261-.143.564-.15.869-.025.613.181 1.269.538 1.755.354.493.82.84 1.306 1.073.244.119.496.209.753.271.208.065.645.118.789.118l.148.008c.158.004.162-.003.251-.004.135-.002.281-.023.423-.044.288-.053.587-.145.87-.293.574-.303 1.001-.824 1.237-1.327.239-.508.342-1.005.393-1.48.025-.236.035-.473.035-.702-.004-.222-.01-.406-.037-.651l-.033-1.333c.722-.146 1.433-.378 2.121-.711.504-.251.996-.562 1.439-.967.432-.375.899-.979 1.131-1.439.492-.947.87-2.05.857-3.242C24.119 18.408 23.692 17.215 23.009 16.306zM18.304 5.484c.115-.78.391-1.537.74-2.07.074-.138.262-.353.385-.526.074-.102.164-.186.246-.242.168-.118.321-.155.479-.142.312.025.664.306.771.775.118.456.014 1.133-.306 1.658-.485.821-1.419 1.607-2.453 2.311C18.177 6.631 18.214 6.037 18.304 5.484zM15.052 23.082c-1.486-.377-2.792-1.221-3.536-2.432-.375-.608-.639-1.271-.763-2.037-.112-.654-.086-1.347.123-1.956.397-1.249 1.586-2.395 2.978-3.373.689-.488 1.419-.936 2.175-1.386l.062 1.893c-.693.199-1.353.506-1.972.924-.461.325-.899.731-1.247 1.253-.175.27-.316.518-.438.909-.027.088-.061.195-.076.264l-.029.17-.041.255-.013.245c-.041.662.192 1.393.591 1.94.423.548.875.921 1.515 1.22.036.02.08.035.119.05.565.188 1.176-.119 1.363-.687.188-.566-.119-1.176-.685-1.363l-.01-.002c-1.172-.39-1.101-1.699.156-2.479.257-.161.542-.301.842-.412l.009.273.208 6.953C15.93 23.269 15.482 23.196 15.052 23.082zM21.604 19.581c-.012.655-.256 1.345-.631 2.009-.209.344-.334.459-.595.69-.239.208-.54.385-.862.529-.319.145-.662.258-1.019.341l-.169-6.836-.01-.483c.028.007.062.014.088.023.317.08.667.227.994.407C20.739 16.999 21.681 18.288 21.604 19.581z"/></g><g/><g/><g/><g/><g/><g/><g/><g/><g/><g/><g/><g/><g/><g/><g/></svg>