<svg id="Capa_1" xmlns="http://www.w3.org/2000/svg" xmlns:xlink="http://www.w3.org/1999/xlink" width="32" height="32" viewBox="0 0 32 32" style="enable-background:new 0 0 32 32"><g><g><path d="M.971 6.7C.78 6.57.534 6.557.331 6.664.127 6.772.0 6.983.0 7.213v17.451c0 .23.127.441.331.549s.45.094.64-.036l12.498-8.499c.245-.167.392-.443.392-.74.0-.295-.147-.572-.392-.738L.971 6.7z"/><path d="M3.052 25.865c-.226.152-.325.436-.244.695C2.888 26.822 3.129 27 3.401 27h25.08c.271.0.515-.178.595-.438.079-.264-.021-.543-.244-.696l-12.194-8.292c-.419-.285-.969-.285-1.388.0L3.052 25.865z"/><path d="M28.868 6.109c.221-.15.317-.426.239-.681C29.027 5.174 28.793 5 28.527 5H3.355c-.266.0-.502.174-.58.428C2.697 5.683 2.793 5.959 3.014 6.109l12.231 8.317c.419.285.971.285 1.392.0L28.868 6.109z"/><path d="M18.645 15.121c-.271.184-.434.49-.434.816.0.329.162.633.434.816l12.385 8.422c.189.132.438.146.642.036S32 24.895 32 24.664V7.213c0-.23-.127-.441-.331-.549-.204-.107-.45-.094-.64.036L18.645 15.121z"/></g></g><g/><g/><g/><g/><g/><g/><g/><g/><g/><g/><g/><g/><g/><g/><g/></svg>