<svg id="Capa_1" xmlns="http://www.w3.org/2000/svg" xmlns:xlink="http://www.w3.org/1999/xlink" viewBox="0 0 465 465" style="enable-background:new 0 0 465 465"><g><path d="M371.957 60.634h-26.884V9.5c0-2.925-1.348-5.688-3.653-7.488-2.307-1.801-5.316-2.438-8.15-1.729L90.745 60.912l.003.012c-4.136 1.028-7.205 4.755-7.205 9.209V455.5c0 5.247 4.253 9.5 9.5 9.5h278.915c5.247.0 9.5-4.253 9.5-9.5V70.134C381.457 64.887 377.205 60.634 371.957 60.634zM326.074 60.634H170.201l155.873-38.966V60.634zM362.457 446H102.542V79.634h259.915V446z"/><path d="M127.632 156.409h209.735c5.247.0 9.5-4.253 9.5-9.5v-43.245c0-5.247-4.253-9.5-9.5-9.5H127.632c-5.247.0-9.5 4.253-9.5 9.5v43.245c0 5.247000000000014 4.253 9.5 9.5 9.5zM137.132 113.164h190.735v24.245H137.132V113.164z"/><path d="M337.368 175.123H250.22c-5.247.0-9.5 4.253-9.5 9.5v135.358c0 5.247 4.253 9.5 9.5 9.5h87.147c5.247.0 9.5-4.253 9.5-9.5V184.623C346.868 179.376 342.615 175.123 337.368 175.123zm-9.5 135.358H259.72V194.123h68.147V310.481z"/><path d="M127.632 194.123h87.147c5.247.0 9.5-4.253 9.5-9.5s-4.253-9.5-9.5-9.5h-87.147c-5.247.0-9.5 4.253-9.5 9.5S122.385 194.123 127.632 194.123z"/><path d="M127.632 227.794h87.147c5.247.0 9.5-4.253 9.5-9.5s-4.253-9.5-9.5-9.5h-87.147c-5.247.0-9.5 4.253-9.5 9.5S122.385 227.794 127.632 227.794z"/><path d="M127.632 261.465h87.147c5.247.0 9.5-4.253 9.5-9.5.0-5.247-4.253-9.5-9.5-9.5h-87.147c-5.247.0-9.5 4.253-9.5 9.5C118.132 257.212 122.385 261.465 127.632 261.465z"/><path d="M127.632 295.137h87.147c5.247.0 9.5-4.253 9.5-9.5s-4.253-9.5-9.5-9.5h-87.147c-5.247.0-9.5 4.253-9.5 9.5S122.385 295.137 127.632 295.137z"/><path d="M127.632 328.808h87.147c5.247.0 9.5-4.253 9.5-9.5s-4.253-9.5-9.5-9.5h-87.147c-5.247.0-9.5 4.253-9.5 9.5S122.385 328.808 127.632 328.808z"/><path d="M127.632 362.479h209.735c5.247.0 9.5-4.253 9.5-9.5s-4.253-9.5-9.5-9.5H127.632c-5.247.0-9.5 4.253-9.5 9.5s4.253 9.5 9.5 9.5z"/><path d="M127.632 396.15h209.735c5.247.0 9.5-4.253 9.5-9.5s-4.253-9.5-9.5-9.5H127.632c-5.247.0-9.5 4.253-9.5 9.5s4.253 9.5 9.5 9.5z"/><path d="M127.632 429.822h209.735c5.247.0 9.5-4.253 9.5-9.5s-4.253-9.5-9.5-9.5H127.632c-5.247.0-9.5 4.253-9.5 9.5s4.253 9.5 9.5 9.5z"/></g><g/><g/><g/><g/><g/><g/><g/><g/><g/><g/><g/><g/><g/><g/><g/></svg>