<svg id="Capa_1" xmlns="http://www.w3.org/2000/svg" xmlns:xlink="http://www.w3.org/1999/xlink" width="426.264" height="426.265" viewBox="0 0 426.264 426.265" style="enable-background:new 0 0 426.264 426.265"><g><path d="M304.971 115.042c2.543 7.84-1.747 16.252-9.588 18.795s-16.252-1.754-18.795-9.588c-2.544-7.84 1.754-16.252 9.588-18.795C294.009 102.905 302.428 107.202 304.971 115.042zM209.329 114.308c0-9.588-7.772-17.354-17.354-17.354-9.588.0-17.354 7.772-17.354 17.354.0 9.588 7.772 17.354 17.354 17.354C201.563 131.662 209.329 123.896 209.329 114.308zM234.006 187.041c-7.378-3.019-15.81.51-18.829 7.888-3.019 7.378.51 15.81 7.888 18.829 7.378 3.02 15.811-.51 18.829-7.888C244.914 198.492 241.384 190.06 234.006 187.041zM393.337 160.854c0 67.319-41.371 124.95-100.062 148.927v89.284c0 15.021-12.179 27.199-27.199 27.199h-88.4c-15.021.0-27.2-12.179-27.2-27.199v-54.203l-29.131 4.025c-23.188 5.562-45.485-12.009-45.485-35.856v-84.449H49.883c-12.974.0-21.127-13.994-14.729-25.282l38.501-67.945C85.875 58.637 152.318.0 232.476.0 321.319.0 393.337 72.012 393.337 160.854zM185.033 166.376h13.886l3.978-17.904c1.911-.612 3.74-1.388 5.495-2.299l15.49 9.86 9.819-9.819-9.86-15.49c.904-1.754 1.687-3.584 2.299-5.495l17.904-3.978v-13.886l-17.904-3.978c-.612-1.911-1.388-3.74-2.299-5.495l9.86-15.49-9.819-9.819-15.49 9.86c-1.754-.904-3.584-1.687-5.495-2.298l-3.978-17.904h-13.886l-3.978 17.904c-1.911.612-3.74 1.387-5.494 2.298l-15.49-9.86-9.819 9.819 9.86 15.49c-.904 1.754-1.687 3.583-2.298 5.495l-17.904 3.978v13.886l17.904 3.978c.612 1.911 1.387 3.74 2.298 5.495l-9.86 15.49 9.819 9.819 15.49-9.86c1.754.905 3.583 1.687 5.494 2.299L185.033 166.376zm85.768 45.084-12.525-8.704c.129-1.659.108-3.318-.034-4.95l12.471-8.82-4.46-10.649-15.035 2.707c-1.067-1.251-2.23-2.428-3.509-3.502l2.577-15.035-10.689-4.373-8.704 12.525c-1.659-.129-3.318-.108-4.95.034l-8.819-12.471-10.649 4.461 2.707 15.035c-1.251 1.067-2.428 2.23-3.495 3.509l-15.035-2.577-4.373 10.689 12.525 8.704c-.129 1.659-.108 3.318.034 4.95l-12.471 8.82 4.461 10.648 15.035-2.706c1.068 1.251 2.23 2.428 3.509 3.495l-2.577 15.035 10.676 4.379 8.704-12.525c1.659.129 3.318.108 4.95-.034l8.819 12.472 10.648-4.461-2.706-15.035c1.251-1.067 2.428-2.23 3.495-3.509l15.035 2.577L270.801 211.46zM321.189 124.617c.279-1.673.429-3.38.422-5.1l13.587-8.003-3.687-11.356-15.694 1.496c-1.006-1.401-2.128-2.693-3.332-3.883l3.951-15.286-10.635-5.427L295.75 89.23c-1.673-.272-3.38-.429-5.1-.422l-8.004-13.586-11.356 3.686 1.496 15.695c-1.4 1.006-2.692 2.128-3.883 3.332l-15.286-3.951-5.427 10.635 12.173 10.057c-.279 1.673-.429 3.38-.422 5.1l-13.587 7.997 3.686 11.356 15.694-1.496c1.007 1.401 2.129 2.693 3.332 3.883l-3.95 15.286 10.635 5.427 10.058-12.172c1.673.272 3.38.429 5.1.422l8.004 13.586 11.355-3.686-1.495-15.695c1.4-1.006 2.692-2.128 3.882-3.332l15.28 3.951 5.426-10.635L321.189 124.617z"/></g><g/><g/><g/><g/><g/><g/><g/><g/><g/><g/><g/><g/><g/><g/><g/></svg>