<svg id="Capa_1" xmlns="http://www.w3.org/2000/svg" xmlns:xlink="http://www.w3.org/1999/xlink" width="31.79" height="31.79" viewBox="0 0 31.79 31.79" style="enable-background:new 0 0 31.79 31.79"
	><g><g><path d="M21.067 4.89c0-.701-.567-1.269-1.268-1.269h-.711c.018-.133.029-.28.029-.425C19.118 1.434 17.683.0 15.921.0c-1.763.0-3.196 1.434-3.196 3.196.0.144.01.292.028.425h-.697c-.7.0-1.269.568-1.269 1.269H6.984c-1.438.0-2.604 1.166-2.604 2.604v21.691c0 1.438 1.166 2.604 2.604 2.604h17.822c1.438.0 2.604-1.166 2.604-2.604V7.494c0-1.438-1.166-2.604-2.604-2.604H21.067zM14.643 3.196c0-.704.573-1.278 1.278-1.278.705.0 1.279.573 1.279 1.278.0.149-.026.291-.074.425h-2.409C14.671 3.488 14.643 3.346 14.643 3.196zM24.872 27.754c0 .791-.643 1.432-1.434 1.432H8.414c-.79.0-1.431-.641-1.431-1.432V8.925c0-.791.641-1.431 1.431-1.431h2.374v1.267c0 .701.568 1.269 1.269 1.269H19.8c.699.0 1.268-.568 1.268-1.269V7.494h2.375c.789.0 1.431.641 1.431 1.431L24.872 27.754v0z"/><path d="M10.192 12.833c-.707.0-1.279.563-1.279 1.269s.572 1.269 1.279 1.269h11.509c.707.0 1.278-.562 1.278-1.269.0-.706-.571-1.269-1.278-1.269H10.192z"/><path d="M21.701 17.038H10.192c-.707.0-1.279.597-1.279 1.303.0.705.572 1.304 1.279 1.304h11.509c.707.0 1.278-.599 1.278-1.304C22.979 17.633 22.408 17.038 21.701 17.038z"/><path d="M21.701 21.311H10.192c-.707.0-1.279.562-1.279 1.269.0.705.572 1.269 1.279 1.269h11.509c.707.0 1.278-.562 1.278-1.269S22.408 21.311 21.701 21.311z"/></g></g><g/><g/><g/><g/><g/><g/><g/><g/><g/><g/><g/><g/><g/><g/><g/></svg>