<svg id="Capa_1" xmlns="http://www.w3.org/2000/svg" xmlns:xlink="http://www.w3.org/1999/xlink" width="31.799" height="31.799" viewBox="0 0 31.799 31.799" style="enable-background:new 0 0 31.799 31.799"><g><path d="M28.119.0H6.914C5.278.0 3.921 1.342 3.921 2.978v.293H1.899c-.731.0-1.324.576-1.324 1.308.0.058.004.122.011.174C.667 5.404 1.223 5.92 1.899 5.92h4.064c.392.0.743-.188.986-.459L6.95 5.458C6.956 5.509 6.961 5.54 6.961 5.592c0 .731-.593 1.301-1.324 1.301H3.921v1.945H1.899c-.731.0-1.324.571-1.324 1.303.0.057.004.122.011.177.081.653.637 1.171 1.313 1.171h4.064c.392.0.743-.193.986-.464.001-.001.001-.001.001-.003.006.048.01.081.01.134.0.732-.593 1.304-1.324 1.304H3.921v1.856H1.899c-.731.0-1.324.612-1.324 1.345.0.056.004.103.011.156.081.651.637 1.149 1.313 1.149h4.064c.392.0.907-.381.986-.416.006.056.011.104.011.158.0.729-.593 1.315-1.324 1.315H3.921v1.854H1.899c-.731.0-1.324.608-1.324 1.342.0.057.004.104.011.158.081.651.637 1.148 1.313 1.148h4.064c.392.0.986-.418.986-.418.006.054.011.104.011.161.0.731-.593 1.317-1.324 1.317H3.921v1.854H1.899c-.731.0-1.324.604-1.324 1.338.0.056.004.104.011.158.081.653.637 1.153 1.313 1.153h4.064c.392.0.986-.427.986-.427.006.056.011.107.011.164.0.731-.593 1.321-1.324 1.321H3.987c.222 1.502 1.503 2.648 3.051 2.648h21.081c1.704.0 3.104-1.396 3.104-3.103v-25.6C31.224 1.396 29.823.0 28.119.0zM24.156 15.905H10.99V6.626h13.166v9.279z"/></g><g/><g/><g/><g/><g/><g/><g/><g/><g/><g/><g/><g/><g/><g/><g/></svg>