<svg id="Capa_1" xmlns="http://www.w3.org/2000/svg" xmlns:xlink="http://www.w3.org/1999/xlink" width="96.623" height="96.622" viewBox="0 0 96.623 96.622" style="enable-background:new 0 0 96.623 96.622"><g><g><path d="M31.642 22.691c5.311 1.138 10.541-2.246 11.68-7.559.254-1.183.271-2.359.105-3.49L48.828.0l-7.489 1.934-9.606-1.933-1.482 3.866.002.001c-3.033 1.139-5.44 3.743-6.17 7.143C22.946 16.324 26.33 21.553 31.642 22.691z"/><circle cx="68.822" cy="25.679" r="9.281"/><path d="M93.753 91.378l-.355-1.323-7.661 3.541c.624 2.184 2.882 3.475 5.079 2.883C93.037 95.881 94.351 93.598 93.753 91.378z"/><path d="M92.696 87.441 84.388 88.602 85.307 92.012 92.97 88.467z"/><path d="M91.451 82.814l-7.293 3.104c.012-.021.021-.043.031-.064.016-.209.023-.42.043-.627.034-.406.098-.801.186-1.188l6.607-2.812-4.27-16.293c-.147-.559-.414-1.058-.75-1.494.045.0.09.002.137.002 1.988.0 3.604-1.612 3.604-3.603.0-1.989-1.613-3.603-3.604-3.603-5.432.0-8.93-2.24-10.742-13.689-.042-.26-.111-.508-.205-.744-.447-3.334-3.511-5.569-6.376-6.271.0.0-.976-.293-2.015-.27-.996.023-2.105.253-2.105.253l-.027.006c-3.121.765-6.447 3.309-6.447 7.126l.001 18.57-2.724-19.313c-.215-1.614-1.705-2.747-3.312-2.532-1.615.214-2.749 1.697-2.531 3.312l.153 1.121c-11.314-1.577-11.554-3.209-12.983-13.285-.021-.156-.07-.301-.11-.45-.295-3.052-2.695-5.567-5.206-6.784.0.0-.949-.52-2.031-.727-1.036-.198-2.235-.205-2.235-.205l-.029-.002c-3.406.099-7.416 1.998-8.264 5.954L2.724 69.779h9.701c-.245 1.85-.467 3.205-.637 3.757-.428 1.382-3.744 6.526-7.097 11.011-1.649 2.208-1.698 5.086.509 6.737 2.36 1.464 4.757.553 5.737-.759 1.718-2.295 7.418-10.096 8.639-14.037.383-1.236.784-3.752 1.161-6.711h6.997c.73 1.914 1.238 3.365 1.367 3.992.288 1.418-.146 7.523-.929 13.066-.388 2.73.972 5.891 4.242 5.643.238-.018-.527.051-.295.051 2.446.0 4.584-1.801 4.938-4.293.402-2.84 1.65-12.42.824-16.461-.103-.514-.298-1.196-.556-1.996h4.013c0 0-8.04-17.162-7.844-23.169l.283-1.327c2.74 3.199 7.266 5.035 15.334 6.137.176.023.352.035.521.035.422.0.83-.079 1.214-.209l2.415 17.361c-1.596 2.664-2.516 5.777-2.516 9.102.0 9.799 7.971 17.77 17.77 17.77 6.475.0 12.15-3.48 15.257-8.67l.001.006c.023-.068.055-.135.079-.203l.108.402 8.306-1.16L91.451 82.814zM73.197 57.889c1.854 1.644 3.939 3.07 6.297 4.239L73.197 62.1V57.889zM68.517 89.417c-6.455.0-11.709-5.252-11.709-11.709.0-1.468.283-2.868.779-4.163.209.031.42.053.637.053h21.242c.484 1.281.762 2.664.762 4.11C80.228 84.165 74.974 89.417 68.517 89.417z"/></g></g><g/><g/><g/><g/><g/><g/><g/><g/><g/><g/><g/><g/><g/><g/><g/></svg>