<svg id="Capa_1" xmlns="http://www.w3.org/2000/svg" xmlns:xlink="http://www.w3.org/1999/xlink" width="472.559" height="472.559" viewBox="0 0 472.559 472.559" style="enable-background:new 0 0 472.559 472.559"><g><g><path d="M316.829 127.782h27.299v27.301H316.829z"/><path d="M316.829 86.112h27.299v27.3H316.829z"/><path d="M364.423 233.545c1.547.72 2.48 1.159 3.068 1.442l.008-.017c2.043.979 4.02 2.151 5.939 3.453h16.25v-27.299h-17.303C371.101 219.66 368.413 227.254 364.423 233.545z"/><path d="M362.39 169.956c.09.089.184.171.273.261 6.51 6.576 10.037 15.497 10.527 26.536h16.5v-27.301H362.39V169.956z"/><path d="M362.39 86.112h27.301v27.3H362.39z"/><path d="M362.39 127.782h27.301v27.301H362.39z"/><path d="M302.065 27.877V0H170.494v27.877H51.796V380h46.566l-.001-20.025H71.822v-35.908c-4.249-8.629-8.076-18.181-9.159-26.236-.56-4.195-.053-8.485 1.466-12.42.062-.16 2.792-6.664 7.693-15.1V47.903h94.959v118.434c1.648 1.156 3.186 2.447 4.605 3.88 5.884 5.942 9.334 13.797 10.307 23.4 3.938-3.34 8.127-6.209 12.534-8.324l.913-4.06v-11.208c-3.667-8.78-5.64-19.082-5.765-30.434-.099-10.101 3.295-46.667 47.05-46.667s47.146 36.323 47.044 46.651c-.127 11.658-2.196 22.207-6.05 31.137v10.521l.906 4.027.002-.005c4.49 2.154 8.758 5.091 12.76 8.513.953-9.676 4.406-17.579 10.318-23.549 1.354-1.366 2.812-2.606 4.373-3.721V47.903h94.959v222.378c4.898 8.431 7.627 14.929 7.688 15.084 1.529 3.953 2.035 8.26 1.467 12.453-1.08 8.03-4.906 17.576-9.154 26.203v35.952h-26.541v20.024h46.566V27.877H302.065zM225.287 85.87H195.14V55.722h30.147V85.87zM277.42 85.87h-30.147V55.722h30.147V85.87z"
			/><path d="M82.871 127.782h27.3v27.301H82.871z"/><path d="M82.871 86.112h27.3v27.3H82.871z"/><path d="M82.871 238.424h16.293c1.904-1.288 3.865-2.45 5.89-3.422.095-.045.245-.117 3.286-1.51-3.973-6.281-6.649-13.857-7.931-22.367H82.871V238.424z"/><path d="M82.871 196.754h16.734c.491-11.045 4.018-19.962 10.526-26.536.013-.013.026-.024.039-.038v-.728h-27.3L82.871 196.754v0z"/><path d="M128.431 86.112h27.3v27.3H128.431z"/><path d="M128.431 127.782h27.3v27.301H128.431z"/><path d="M290.647 306.793c3.398-5.368 20.486-33.006 22.766-49.953.277-2.072.027-4.184-.727-6.137-2.367-6.12-19.959-41.655-40.847-51.675-.019-.01-16.269-7.544-16.269-7.544l-7.09-5.982-10.598 10.548 10.68 71.397c.036.244-.025.496-.173.697l-11.182 15.303c-.179.244-.462.39-.764.39-.302.0-.585-.146-.764-.39l-11.182-15.303c-.146-.201-.208-.453-.171-.697l10.674-71.365-10.631-10.581-7.092 5.982c0 0-16.161 7.389-16.565 7.582-20.882 10.02-38.475 45.554-40.842 51.675-.754 1.953-1.003 4.062-.728 6.138 2.278 16.946 19.366 44.586 22.767 49.954 2.369 3.732 6.392 5.773 10.507 5.773 2.165.0 4.354-.574 6.339-1.756 1 2.807 2.424 5.422 4.179 7.819l.007 138.813c.001 8.326 6.752 15.074 15.076 15.074 8.328.0 15.076-6.75 15.075-15.074l.161-122.358c1.063.09 2.124.142 3.168.142 1.008.0 2.027-.05 3.049-.135l-.002 122.352c0 8.326 6.747 15.074 15.074 15.074 8.322.0 15.074-6.748 15.074-15.072l.002-138.424c1.863-2.473 3.379-5.182 4.429-8.103 1.919 1.083 4.015 1.608 6.086 1.608C284.252 312.568 288.278 310.523 290.647 306.793zM184.428 256.576c2.608-5.438 7.405-13.586 12.674-20.75l.008 47.998C191.8 274.441 186.376 263.539 184.428 256.576zM275.747 236.188c5.156 7.064 9.824 15.009 12.381 20.349-1.912 6.824-7.169 17.455-12.387 26.722L275.747 236.188z"/><path d="M268.47 139.675c.196-19.708-9.188-31.501-32.045-31.501-22.86.0-32.244 11.793-32.051 31.501.313 28.394 13.872 45.331 32.051 45.331C254.596 185.006 268.161 168.069 268.47 139.675z"/><path d="M376.401 336.923c2.783-4.394 16.764-27.007 18.627-40.875.23-1.694.025-3.423-.592-5.021-1.939-5.008-16.332-34.086-33.424-42.283-.016-.008-13.311-6.172-13.311-6.172l-5.803-4.896-8.801 8.76 8.551 57.172c.031.195-.02.396-.135.555l-8.875 12.146c-.143.194-.367.31-.607.31s-.465-.114-.605-.31l-8.875-12.146c-.115-.159-.166-.358-.137-.555l8.553-57.179-8.793-8.753-2.963 2.499c2.033 4.067 3.143 6.668 3.184 6.771 1.385 3.584 1.846 7.483 1.332 11.285-2.436 18.113-18.352 44.692-23.861 53.457l-1.99 2.842c-4.316 5.332-10.77 8.449-17.74 8.449-.033.0-.068.0-.104.0v1.358c3.273 6.015 6.266 10.827 7.398 12.616 1.938 3.054 5.229 4.726 8.598 4.725 1.771.0 3.562-.47 5.188-1.438.818 2.297 1.984 4.438 3.418 6.398l.008 113.584c0 6.812 5.523 12.334 12.334 12.334 6.814.0 12.336-5.523 12.334-12.336l.133-100.117c.871.072 1.738.114 2.592.114.826.0 1.66-.04 2.496-.108l-.002 100.113c0 6.812 5.52 12.334 12.334 12.334 6.811.0 12.332-5.521 12.332-12.334l.002-113.264c1.525-2.023 2.766-4.239 3.625-6.631 1.57.888 3.283 1.316 4.98 1.316C371.171 341.648 374.464 339.975 376.401 336.923zM364.206 317.666l.004-38.516c4.219 5.78 8.039 12.281 10.133 16.65C372.778 301.383 368.474 310.082 364.206 317.666z"/><path d="M305.812 200.178c.256 23.234 11.35 37.092 26.225 37.092 14.867.0 25.969-13.857 26.221-37.092.16-16.125-7.518-25.775-26.221-25.775C313.329 174.403 305.653 184.053 305.812 200.178z"/><path d="M174.656 314.539l-1.724-2.43c-5.274-8.353-21.63-35.439-24.105-53.844-.506-3.811-.045-7.705 1.337-11.277.039-.105 1.18-2.778 3.268-6.944l-2.805-2.367-8.801 8.761 8.551 57.172c.03.194-.02.395-.136.553l-8.875 12.146c-.141.194-.366.309-.606.309-.24.0-.465-.113-.606-.309l-8.875-12.146c-.116-.158-.166-.357-.136-.553l8.552-57.179-8.793-8.754-5.804 4.896c0 0-13.225 6.047-13.554 6.205-17.087 8.197-31.482 37.272-33.42 42.282-.616 1.597-.82 3.324-.594 5.021 1.864 13.867 15.844 36.482 18.628 40.875 1.938 3.054 5.229 4.726 8.598 4.725 1.771.0 3.562-.47 5.187-1.438.818 2.297 1.982 4.438 3.418 6.398l.006 113.584c0 6.812 5.525 12.334 12.336 12.334 6.814.0 12.335-5.523 12.334-12.336l.133-100.117c.868.072 1.736.114 2.592.114.825.0 1.658-.04 2.494-.108l-.002 100.113c0 6.812 5.52 12.334 12.333 12.334 6.812.0 12.335-5.521 12.335-12.334l.001-113.264c1.525-2.023 2.766-4.239 3.625-6.631 1.569.888 3.283 1.316 4.98 1.316 3.366.0 6.661-1.673 8.6-4.726 1.132-1.789 4.124-6.604 7.397-12.617v-1.288c-.037.0-.071.0-.106.0C185.433 323.017 178.968 319.887 174.656 314.539zM98.215 295.834c2.135-4.452 6.06-11.118 10.371-16.979l.008 39.272C104.247 310.451 99.809 301.531 98.215 295.834z"/><path d="M114.538 200.178c.255 23.234 11.35 37.092 26.224 37.092 14.867.0 25.966-13.857 26.22-37.092.159-16.125-7.519-25.775-26.22-25.775C122.055 174.403 114.378 184.053 114.538 200.178z"/></g></g><g/><g/><g/><g/><g/><g/><g/><g/><g/><g/><g/><g/><g/><g/><g/></svg>