<svg id="Capa_1" xmlns="http://www.w3.org/2000/svg" xmlns:xlink="http://www.w3.org/1999/xlink" width="32.016" height="32.016" viewBox="0 0 32.016 32.016" style="enable-background:new 0 0 32.016 32.016"><g><g><path d="M.012 29.845c.002.397.325.72.723.72h26.677c.5.0.904-.405.904-.905v-.971H.008C.01 29.073.011 29.496.012 29.845z"/><path d="M27.605 12.611l-2.264.628V25.28c-1.164-.476-2.765-.947-4.729-.947-1.64.0-3.291.326-4.909.973V9.499c.776-.483 2.477-1.399 4.555-1.504l.521-2.27c-.045.0-.088-.001-.133-.001-3.07.0-5.499 1.422-6.394 2.029-.172.117-.176.117-.003.0-.895-.607-3.321-2.029-6.392-2.029-2.342.0-4.55.817-6.534 2.429C1.063 8.368.895 8.69.895 9.031v3.521L0 27.59h28.324l-.719-14.771V12.611zM12.795 25.304c-1.617-.646-3.269-.972-4.908-.972-1.966.0-3.564.473-4.728.949V9.586c1.487-1.063 3.039-1.6 4.69-1.6 2.253.0 4.17 1.002 4.946 1.514V25.304z"/><path d="M31.766 4.952c.344-.362.332-.935-.031-1.28l-2.072-1.979c-.166-.16-.393-.247-.623-.242s-.451.103-.609.27l-3.719 3.893-.918-.877c-.174-.166-.424-.226-.654-.157-.229.069-.406.257-.459.492l-1.359 5.94c-.081.355.029.726.294.978.264.252.641.346.989.248l5.619-1.562c.281-.079.502-.304.572-.589.072-.285-.016-.587-.229-.791L28.07 8.823 31.766 4.952z"/></g></g><g/><g/><g/><g/><g/><g/><g/><g/><g/><g/><g/><g/><g/><g/><g/></svg>