<svg id="Capa_1" xmlns="http://www.w3.org/2000/svg" xmlns:xlink="http://www.w3.org/1999/xlink" viewBox="0 0 439.383 439.383" style="enable-background:new 0 0 439.383 439.383"><path d="M429.883 43.551H96.9c-5.247.0-9.5 4.253-9.5 9.5v81.239c-34.735 4.66-61.615 34.471-61.615 70.461.0 25.368 13.361 47.662 33.406 60.251C24.439 279.74.0 314.201.0 354.264v32.068c0 5.247 4.253 9.5 9.5 9.5s9.5-4.253 9.5-9.5v-32.068c0-42.954 34.945-77.899 77.898-77.899 42.954.0 77.899 34.945 77.899 77.899v32.068c0 5.247 4.253 9.5 9.5 9.5s9.5-4.253 9.5-9.5v-32.068c0-18.223-5.06-35.284-13.843-49.86h73.934v18.272h-39.571c-5.247.0-9.5 4.253-9.5 9.5s4.253 9.5 9.5 9.5h98.143c5.247.0 9.5-4.253 9.5-9.5s-4.253-9.5-9.5-9.5H272.89v-18.272h156.993c5.247.0 9.5-4.253 9.5-9.5V53.051C439.383 47.805 435.13 43.551 429.883 43.551zm-9.5 19v184.295h-96.946v-12.001c0-23.159-12.858-43.364-31.805-53.875 10.046-8.483 16.442-21.158 16.442-35.305.0-25.479-20.729-46.208-46.209-46.208s-46.209 20.729-46.209 46.208c0 14.147 6.397 26.822 16.442 35.305-18.947 10.511-31.805 30.715-31.805 53.875v12.001H154.17c8.692-11.794 13.843-26.353 13.843-42.095.0-35.989-26.879-65.799-61.612-70.46v-71.74H420.383zM261.865 172.875c-15.003.0-27.209-12.206-27.209-27.209s12.206-27.208 27.209-27.208 27.209 12.206 27.209 27.208S276.868 172.875 261.865 172.875zM304.437 234.846v12.001h-85.143v-12.001c0-23.474 19.098-42.571 42.571-42.571S304.437 211.372 304.437 234.846zM44.785 204.751c0-28.736 23.378-52.114 52.113-52.114 28.736.0 52.114 23.378 52.114 52.114s-23.378 52.114-52.114 52.114C68.163 256.865 44.785 233.487 44.785 204.751zM165.001 285.404c-8.196-8.106-17.824-14.767-28.47-19.557h283.851v19.557H165.001z"/><g/><g/><g/><g/><g/><g/><g/><g/><g/><g/><g/><g/><g/><g/><g/></svg>