<svg id="Capa_1" xmlns="http://www.w3.org/2000/svg" xmlns:xlink="http://www.w3.org/1999/xlink" width="31.808" height="31.808" viewBox="0 0 31.808 31.808" style="enable-background:new 0 0 31.808 31.808"><g><g><path d="M14.337 18.746c0 .66.296 1.076.87 1.076.643.0 1.32-.816 1.478-1.824l.243-1.653c-.139-.034-.312-.068-.54-.068C15.241 16.276 14.337 17.406 14.337 18.746z"/><path d="M19.906 7.153l-1.955-2.578c-.537-.708-1.375-1.124-2.262-1.124H5.553c-1.299.0-2.352 1.053-2.352 2.352v1.349H2.617C1.172 7.152.0 8.323.0 9.769v15.972c0 1.444 1.171 2.616 2.617 2.616h26.575c1.444.0 2.616-1.172 2.616-2.616V9.77c0-1.445-1.171-2.617-2.616-2.617H19.906zM18.32 21.205c-.818.0-1.41-.447-1.496-1.349H16.79c-.539.899-1.322 1.349-2.243 1.349-1.13.0-1.948-.83-1.948-2.256.0-2.12 1.565-4.049 4.069-4.049.156.0.318.008.48.023.422.04.81.253 1.069.588.259.336.368.765.3 1.184l-.301 1.857c-.175 1.027-.053 1.498.434 1.516.748.017 1.688-.941 1.688-2.939.0-2.261-1.46-4.017-4.155-4.017-2.661.0-4.991 2.086-4.991 5.407.0 2.904 1.86 4.556 4.452 4.556.707.0 1.447-.12 2.071-.354.119-.045.251-.039.365.018.115.057.201.156.238.279l.09.285c.039.131-.025.27-.15.321-.953.396-1.814.53-2.962.53-2.887.0-5.425-2.069-5.425-5.479.0-3.547 2.573-6.625 6.502-6.625 3.061.0 5.252 2.1 5.252 5.021C21.624 19.611 20.197 21.205 18.32 21.205z"/></g></g><g/><g/><g/><g/><g/><g/><g/><g/><g/><g/><g/><g/><g/><g/><g/></svg>