<svg id="Capa_1" xmlns="http://www.w3.org/2000/svg" xmlns:xlink="http://www.w3.org/1999/xlink" width="31.371" height="31.372" viewBox="0 0 31.371 31.372" style="enable-background:new 0 0 31.371 31.372"><g><g><path d="M4.414 28.026c.39.195.802.292 1.23.292.695.0 1.272-.231 1.731-.7.458-.468.687-1.056.687-1.767.0-.704-.226-1.286-.68-1.748-.453-.461-1.035-.69-1.746-.69-.459.0-.876.103-1.249.306-.372.202-.66.497-.863.884-.203.385-.304.783-.304 1.193.0.539.101.998.304 1.373C3.726 27.545 4.024 27.831 4.414 28.026zM4.823 24.795c.221-.246.493-.371.816-.371.324.0.597.123.816.371.22.248.328.602.328 1.062.0.474-.108.831-.328 1.078-.22.248-.492.371-.816.371-.323.0-.596-.123-.816-.371-.222-.248-.332-.604-.332-1.069C4.491 25.399 4.601 25.042 4.823 24.795z"/><path d="M9.82 26.084c0-.522.028-.883.092-1.076.063-.194.179-.352.35-.469.171-.119.363-.179.578-.179.168.0.312.044.431.124.119.083.201.198.254.348.054.148.075.478.075.982v2.411h1.251V25.29c0-.36-.022-.64-.067-.834-.047-.193-.129-.369-.244-.521-.116-.15-.288-.277-.516-.378-.227-.101-.462-.146-.736-.146-.623.0-1.138.266-1.533.795v-.658H8.567v4.679H9.82V26.084z"/><path d="M13.641 21.706h1.252v6.522H13.641z"/><path d="M15.75 21.706h1.186v1.187H15.75z"/><path d="M15.75 23.549h1.186v4.679H15.75z"/><path d="M19.045 26.084c0-.522.016-.883.078-1.076.062-.194.174-.352.344-.469.172-.119.359-.179.574-.179.168.0.311.044.43.124.119.083.213.198.266.348.054.148.088.478.088.982v2.411h1.253V25.29c0-.36-.035-.64-.082-.834-.046-.193-.134-.369-.25-.521-.115-.15-.291-.277-.519-.378-.227-.101-.486-.146-.76-.146-.623.0-1.158.266-1.555.795v-.658h-1.121v4.679h1.254V26.084H19.045z"/><path d="M24.77 28.318c.517.0.943-.118 1.287-.354s.596-.584.754-1.035l-1.236-.208c-.067.233-.168.405-.301.513-.133.105-.297.16-.49.16-.286.0-.524-.089-.717-.294-.19-.205-.293-.517-.301-.847h3.109c.021-.987-.174-1.672-.576-2.133-.404-.461-.955-.699-1.654-.699-.621.0-1.137.219-1.541.658-.406.439-.608 1.049-.608 1.825.0.651.153 1.189.463 1.616C23.35 28.052 23.954 28.318 24.77 28.318zM24.049 24.659c.176-.197.398-.297.67-.297.256.0.471.094.646.279.177.188.271.488.277.818h-1.856C23.786 25.129 23.874 24.854 24.049 24.659z"/><path d="M26.975 15.77l-1.434-.69-.135.28c-.256.527-.771.878-1.355.919-.037.003-.074.005-.109.005-.547.0-1.057-.271-1.358-.729l-2.912-4.397c-.424.131-.996.276-1.301.333-.494.094-.851-.585-1.015-.889-.162-.303-.625-1.38-.719-1.66-.094-.282-.417.405-.371.708.047.305.488 1.187.697 1.515.211.328.305.723.305 1.03.0.303.438.515.9.654.465.142.0.445-.162.632-.162.188-.832.561-1.531.912-.697.352-1.438 1.544-1.693 2.036-.255.49-.837 1.379-1.322 1.775-.004.002-.008.006-.012.008H9.027c-.277-1.002-.322-2.433-.277-2.813.071-.583.464-1.521.417-2.058-.043-.538.182-1.428.299-1.638.121-.211.675.021.932-.001.255-.024-.257-.658-.395-.635s-.463-.191-.654-.287c-.183-.094-.391-.667-1.109-.828C7.517 9.786 7.425 8.878 7.333 8.433 7.24 7.988 7.822 6.826 7.939 6.593c.115-.235 1.575-1.511 1.575-1.511s.779-.401 1-.387c.65.04 1.279.661 1.279.661s.929.57 1.526 1.524c.499.795 1.55.94 1.55.94.58-.05.96-.498.988-.66.104-.534-.303-.984-.867-.955-.118.007-.163.234-.347.234-.188.0-.142-.234-.211-.469-.069-.233-.086-.511-.2-.792-.113-.28-.206-.625-.437-.881-.233-.259-.556-.064-.857-.134-.301-.071-.755.172-1.079.147-.328-.024-.488-.28-.466-.514.023-.234.819-.528 1.211-.575C13 3.176 13.357 3.132 13.47 2.968c.118-.164.677-.253.864-.23.185.025.481.15.662.383.243.321.254.824.818.751.217-.029.793-.356.356-.614-.246-.146-.58-.374-.345-.795.031-.057.1-.102.196-.135 2.808.161 5.306 1.493 7.013 3.514l2.495-.222c-2.153-3.277-5.864-5.442-10.083-5.442-6.656.0-12.054 5.397-12.054 12.054.0 2.179.585 4.218 1.597 5.979H1.677C.751 18.211.0 18.961.0 19.888v9.42c0 1.041.844 1.885 1.886 1.885h26.607c1.043.0 1.887-.844 1.887-1.885v-9.211c0-1.041-.844-1.886-1.887-1.886h-2.582C26.352 17.445 26.71 16.627 26.975 15.77zM15.618 17.735c.23-.049.23.198.145.477h-1.154C14.795 17.897 15.186 17.829 15.618 17.735zM27.124 20.32c.596.0 1.08.484 1.08 1.082v6.535c0 .599-.484 1.082-1.08 1.082H3.256c-.597.0-1.081-.483-1.081-1.082v-6.535c0-.598.484-1.082 1.081-1.082H27.124z"/><path d="M21.23 7.632c-.397.035-.748.277-.92.637-.176.359-.146.784.074 1.117l2.418 3.65c.219.33.598.518.992.491.396-.027.746-.264.918-.622l4.266 2.053c.232.112.504.128.748.042.242-.086.443-.265.558-.498l.991-2.061c.232-.486.029-1.07-.457-1.304l-4.264-2.052.104-.217c.178-.367.143-.801-.089-1.136-.232-.335-.627-.52-1.032-.484L21.23 7.632z"/></g></g><g/><g/><g/><g/><g/><g/><g/><g/><g/><g/><g/><g/><g/><g/><g/></svg>