<svg id="Capa_1" xmlns="http://www.w3.org/2000/svg" xmlns:xlink="http://www.w3.org/1999/xlink" width="31.845" height="31.844" viewBox="0 0 31.845 31.844" style="enable-background:new 0 0 31.845 31.844"><g><path d="M31.841 15.38c-.032-.264-.247-.467-.51-.484l-13.248-.852 3.298-12.856c.065-.257-.06-.523-.3-.637C20.84.44 20.553.513 20.399.73l-3.668 5.146c-1.606 2.252-2.604 4.881-2.896 7.63l-.026.262-4.065-.262c-.431-2.122-2.242-3.787-4.506-3.932-2.719-.17-5.054 1.909-5.228 4.596-.172 2.705 1.889 5.052 4.596 5.228.106.008.212.012.319.012 1.957.0 3.667-1.158 4.455-2.841l4.042.861-.435 4.106c-1.991.24-3.663 1.68-4.17 3.664-.327 1.271-.138 2.598.532 3.729.67 1.13 1.74 1.936 3.012 2.26.402.104.815.156 1.226.156 2.247.0 4.205-1.521 4.767-3.701.562-2.197-.457-4.436-2.346-5.504l1.014-3.943.258.053c2.707.576 5.512.443 8.152-.385l6.028-1.894C31.711 15.889 31.873 15.641 31.841 15.38zM7.629 14.66c-.094 1.483-1.364 2.644-2.882 2.532-1.491-.096-2.628-1.388-2.533-2.88.094-1.423 1.282-2.539 2.708-2.539.058.0.115.002.173.006C6.59 11.874 7.726 13.167 7.629 14.66zM16.213 27.095c-.363 1.422-1.858 2.326-3.301 1.953-.702-.18-1.292-.621-1.661-1.246-.368-.623-.474-1.354-.294-2.055.308-1.201 1.388-2.041 2.625-2.041.228.0.455.028.677.086C15.708 24.166 16.584 25.645 16.213 27.095zM15.909 16.852c-.651.0-1.18-.528-1.18-1.185.0-.652.529-1.183 1.18-1.183.654.0 1.185.53 1.185 1.183C17.094 16.324 16.563 16.852 15.909 16.852z"/></g><g/><g/><g/><g/><g/><g/><g/><g/><g/><g/><g/><g/><g/><g/><g/></svg>