<svg id="Capa_1" xmlns="http://www.w3.org/2000/svg" xmlns:xlink="http://www.w3.org/1999/xlink" width="32.006" height="32.005" viewBox="0 0 32.006 32.005" style="enable-background:new 0 0 32.006 32.005"><g><path d="M.003 29.956h32.003v-1.134c0-.6-.484-1.082-1.083-1.082H1.082c-.288.0-.563.113-.767.316C.113 28.263-.001 28.539.0 28.827.002 29.431.003 29.956.003 29.956z"/><path d="M30.872 26.612c.296-.003.578-.123.782-.339.203-.215.311-.504.296-.799L30.934 5.238c-.059-.171-.174-.365-.336-.497-2.201-1.788-4.633-2.69-7.227-2.69-3.592.0-6.387 1.753-7.239 2.354-.853-.6-3.649-2.349-7.24-2.349-2.594.0-5.029.894-7.227 2.686C1.308 5.033 1.285 5.5 1.284 5.538l-1.23 20.026c-.019.301.088.594.294.811.205.217.492.34.791.339C6.142 26.698 25.909 26.628 30.872 26.612zM14.789 24.345c-2.045-.811-3.874-1.222-5.812-1.222-2.396.0-4.415.628-5.609 1.203V6.058c1.705-1.284 3.605-1.935 5.567-1.935 2.722.0 4.832 1.258 5.854 1.827V24.345zM28.938 24.327c-1.361-.575-3.213-1.203-5.607-1.203-1.938.0-3.938.411-5.812 1.222V5.95c.854-.569 3.132-1.827 5.854-1.827 1.961.0 3.86.651 5.565 1.935V24.327v0z"/></g><g/><g/><g/><g/><g/><g/><g/><g/><g/><g/><g/><g/><g/><g/><g/></svg>