<svg id="Capa_1" xmlns="http://www.w3.org/2000/svg" xmlns:xlink="http://www.w3.org/1999/xlink" viewBox="0 0 458.695 458.695" style="enable-background:new 0 0 458.695 458.695"><path d="M425.707 151.066c-1.878-4.899-7.373-7.349-12.271-5.47l-156.045 59.817v-17.527c0-33.435-19.766-62.332-48.225-75.663 15.936-11.164 26.385-29.65 26.385-50.541C235.551 27.671 207.88.0 173.868.0s-61.683 27.671-61.683 61.683c0 20.863 10.422 39.327 26.322 50.496-8.698 4.068-16.714 9.661-23.706 16.653-15.767 15.778-24.45 36.751-24.45 59.055v81.559l-51.893 19.892c-4.899 1.878-7.348 7.372-5.47 12.271 1.449 3.781 5.052 6.102 8.873 6.102 1.13.0 2.28-.203 3.398-.632l138.512-53.096v16.824c0 33.368 19.781 62.293 48.241 75.65-15.948 11.162-26.406 29.655-26.406 50.555.0 34.012 27.671 61.683 61.683 61.683s61.683-27.671 61.683-61.683c0-20.865-10.423-39.331-26.326-50.499 8.701-4.071 16.719-9.662 23.704-16.652 15.773-15.785 24.46-36.757 24.46-59.055v-80.855l69.426-26.613C425.135 161.459 427.585 155.965 425.707 151.066zM173.868 19c23.536.0 42.683 19.147 42.683 42.683.0 23.536-19.147 42.683-42.683 42.683s-42.683-19.147-42.683-42.683C131.185 38.147 150.332 19 173.868 19zM109.351 187.886c0-17.231 6.708-33.435 18.888-45.623 12.186-12.186 28.388-18.897 45.63-18.897 35.578.008 64.522 28.952 64.522 64.52v24.811l-129.04 49.465V187.886zM267.289 439.695c-23.536.0-42.683-19.147-42.683-42.683.0-23.432 18.981-42.508 42.375-42.675h.309.306c23.394.167 42.375 19.243 42.375 42.675C309.972 420.547 290.825 439.695 267.289 439.695zM331.811 270.806c0 17.225-6.712 33.428-18.9 45.625-12.089 12.098-28.167 18.813-45.22 18.905h-.094c-.103.0-.205-.008-.308-.008s-.205.007-.308.008h-.039c-35.384-.191-64.171-29.14-64.171-64.53v-24.107l129.04-49.465V270.806z"/><g/><g/><g/><g/><g/><g/><g/><g/><g/><g/><g/><g/><g/><g/><g/></svg>