<svg id="Capa_1" xmlns="http://www.w3.org/2000/svg" xmlns:xlink="http://www.w3.org/1999/xlink" width="31.295" height="31.295" viewBox="0 0 31.295 31.295" style="enable-background:new 0 0 31.295 31.295"><g><g><path d="M29.074 11.601c0-1.712-.441-3.339-1.235-4.802l.746-3.127c.106-.449.003-.922-.283-1.284-.284-.362-.722-.573-1.183-.573H22.67c-.02-.01-.04-.019-.059-.028-2.021-1.069-4.371-1.714-6.939-1.786V0c0 0-.021.001-.031.001C15.63.001 15.612.0 15.612.0v.002c-2.51.071-4.91.716-6.93 1.786C8.667 1.797 8.655 1.806 8.637 1.816H4.189c-.461.0-.896.211-1.183.573-.285.362-.39.835-.283 1.283L3.467 6.8c-.796 1.463-1.246 3.089-1.246 4.802.0 6.318 2.5 19.322 13.392 19.69v.003c0 0 .019-.001.029-.001.01.0.031.0.031.0v-.002C26.564 30.924 29.074 17.92 29.074 11.601zM19.677 16.572l-3.233 3.719c-.196.229-.484.359-.791.359-.304.0-.592-.133-.791-.361l-3.23-3.717c-.285.037-.576.061-.873.061-3.584.0-6.49-2.908-6.49-6.493.0-3.584 2.899-6.492 6.483-6.492 1.937.0 3.697.849 4.86 2.194v.069c0-.012.019-.023.029-.035.01.012.031.023.031.035v-.07c1.225-1.345 2.934-2.194 4.87-2.194 3.585.0 6.493 2.907 6.493 6.492s-2.902 6.492-6.488 6.492C20.25 16.631 19.962 16.611 19.677 16.572z"/><path d="M15.612 14.367c0 0-1.625 1.505-2.659 1.878l1.782 2.052c.222.254.542.401.88.403.338.0.661-.146.885-.396l1.829-2.062C17.296 15.872 15.612 14.379 15.612 14.367z"/><path d="M20.549 4.827c-1.771.0-3.346.874-4.312 2.213-.229.322-.425.67-.583 1.039-.155-.369-.351-.717-.583-1.039-.965-1.339-2.537-2.213-4.311-2.213-2.929.0-5.31 2.383-5.31 5.311.0 2.929 2.381 5.311 5.31 5.311.445.0 1.363-.178 1.363-.178 1.204-.319 2.242-1.051 2.949-2.036.231-.321.428-.67.583-1.039.156.369.352.718.583 1.039.709.984 1.749 1.717 2.95 2.036.0.0.918.178 1.36.178 2.931.0 5.312-2.382 5.312-5.311C25.859 7.21 23.479 4.827 20.549 4.827zm-9.79 8.183c-1.581.0-2.87-1.289-2.87-2.872s1.289-2.871 2.87-2.871c1.584.0 2.871 1.288 2.871 2.871S12.343 13.01 10.759 13.01zm9.79.0c-1.583.0-2.872-1.289-2.872-2.872s1.289-2.871 2.872-2.871c1.582.0 2.871 1.288 2.871 2.871S22.131 13.01 20.549 13.01z"/></g></g><g/><g/><g/><g/><g/><g/><g/><g/><g/><g/><g/><g/><g/><g/><g/></svg>