<svg id="Capa_1" xmlns="http://www.w3.org/2000/svg" xmlns:xlink="http://www.w3.org/1999/xlink" width="125.087" height="125.087" viewBox="0 0 125.087 125.087" style="enable-background:new 0 0 125.087 125.087"><g><g><path d="M57.708 46.044c-2.606-2.172-5.347-.033-6.248.67-2.091 1.632-5.577 4.944-5.724 5.085-.224.213-.42.45-.585.7-.284.127-.558.287-.812.485l-5.386 4.161c-.329.265-.654.602-.89.962-.501.087-.995.269-1.445.553-.138.086-3.385 2.136-6.329 4.433-3.819 2.98-6.25 5.593-5.711 8.664.302 1.707 1.652 3.013 3.375 3.226 1.736.353 7.17 4.979 11.635 9.897.392.433.865.748 1.371.963-.422 1.566 1.786 4.193 1.786 4.193l4.691 6.012c1.932 2.477 5.518 2.918 7.994.986l4.885-3.812.272.297c.483.527.954 1.068 1.403 1.609.368.433.725.879 1.088 1.336.359.453.652.843.912 1.224.509.728.97 1.5 1.335 2.231.394.793.59 1.369.655 1.578l.031.09c.053.156.086.276.102.348.322 1.716 1.127 3.259 2.271 4.486.604.506 1.27.938 2.004 1.266 2.896 1.291 6.254.879 8.756-1.073 1.1-.858 1.982-1.991 2.551-3.269 1.914-4.299-.012-9.346-4.287-11.283-.055-.027-.141-.078-.249-.148-.028-.02-.058-.037-.084-.053-.163-.102-.608-.386-1.203-.896-.558-.476-1.128-1.047-1.677-1.672-.25-.289-.531-.631-.858-1.062-.312-.407-.627-.819-.953-1.274-.368-.502-.733-1.029-1.088-1.561l4.194-3.273c2.449-1.912 2.884-5.455.975-7.902l-6.381-8.176c-.501-.643-1.119-1.144-1.798-1.504-.103-.641-.36-1.264-.786-1.812-3.484-4.463-7.576-10.455-8.443-12.676C59.449 48.284 58.657 46.835 57.708 46.044zM64.342 64.994 42.467 82.063c0 0-9.624-10.616-14.042-11.161-.415-2.354 10.253-9.07 10.253-9.07l5.38 5.184-2.732-6.915 5.386-4.162 5.064 2.861-3.362-4.309c0 0 7.804-7.425 6.629-5.173C53.867 51.57 64.342 64.994 64.342 64.994z"/><path d="M101.676 63.053c-2.734 1.019-5.641 1.682-8.66 1.945v47.645H17.962V54.096l37.527-32.999 2.565 2.257c.805-3.005 2.02-5.843 3.584-8.45l-3.331-2.86-2.819-2.478-2.799 2.46-26.673 23.16V23.274H14.345v22.047L1.532 56.446l5.678 6.539 2.092-1.817v51.474H0v9.383h110.962v-9.383h-9.285L101.676 63.053v0z"/><path d="M105.613 29.476c.431 1.601.682 3.274.682 5.008.0 8.817-5.939 16.256-14.025 18.569l-.727.188c-1.469.359-2.996.569-4.573.569-10.657.0-19.325-8.669-19.325-19.326.0-10.656 8.668-19.326 19.325-19.326 3.04.0 5.906.725 8.468 1.979 1.771-2.003 3.692-3.916 5.75-5.63-4.139-2.569-8.998-4.08-14.218-4.08-14.919.0-27.057 12.137-27.057 27.056S72.051 61.54 86.97 61.54s27.056-12.137 27.056-27.057c0-3.988-.889-7.764-2.444-11.175C109.525 24.977 107.499 27.125 105.613 29.476z"/><path d="M124.695 3.062c-4.527.958-8.603 3.259-12.351 5.815-3.731 2.613-7.169 5.595-10.418 8.742-3.243 3.158-6.312 6.481-9.239 9.922-1.467 1.72-2.896 3.469-4.297 5.249l-.272.353-7.302-11.876-9.123 6.638 12.756 14.944 4.264 4.994 2.578-5.269.001-.001 1.539-2.783 1.642-2.799c1.113-1.861 2.268-3.701 3.455-5.521 2.375-3.639 4.9-7.18 7.602-10.573 2.707-3.387 5.603-6.619 8.793-9.52 3.209-2.844 6.722-5.454 10.765-6.861L124.695 3.062z"/></g></g><g/><g/><g/><g/><g/><g/><g/><g/><g/><g/><g/><g/><g/><g/><g/></svg>