<svg id="Capa_1" xmlns="http://www.w3.org/2000/svg" xmlns:xlink="http://www.w3.org/1999/xlink" width="31.871" height="31.871" viewBox="0 0 31.871 31.871" style="enable-background:new 0 0 31.871 31.871"><g><g><path d="M24.893 6.205c-1.95-3.218-5.202-5.542-9.127-6.088C8.672-.866 2.746 4.439 1.066 11.698c-2.123 9.183.275 12.399 4.726 12.532.817-.74 1.83-1.322 2.945-1.666L24.893 6.205zM11.796 5.603c.241-1.737 1.846-2.95 3.583-2.709s2.95 1.847 2.709 3.583-1.846 2.95-3.583 2.709C12.768 8.943 11.556 7.341 11.796 5.603zM5.237 9.045C5.415 7.759 6.605 6.858 7.892 7.04 9.181 7.216 10.079 8.404 9.9 9.693 9.722 10.98 8.531 11.881 7.244 11.7 5.957 11.523 5.059 10.335 5.237 9.045zm.665 10.562c-1.288-.178-2.188-1.365-2.008-2.655.179-1.285 1.369-2.187 2.656-2.005 1.286.177 2.187 1.365 2.007 2.653C8.378 18.89 7.189 19.788 5.902 19.607z"/><path d="M19.325 21.314l.324-.41L31.588 5.342c-.025-.255-.161-.612-.609-1.018-.885-.798-1.467-.407-1.467-.407L15.634 17.33l-.355.342L19.325 21.314z"/><path d="M14.531 26.638l.342-.383 3.733-4.156-4.071-3.623-3.707 4.133-.343.384L14.531 26.638zM12.307 22.386l1.855-2.104c.172-.194.468-.216.663-.042l.239.211c.093.082.149.195.158.32.007.127-.034.248-.117.342l-1.856 2.104c-.172.193-.468.216-.663.04l-.237-.209c-.095-.083-.15-.195-.159-.32C12.183 22.603 12.225 22.479 12.307 22.386z"/><path d="M13.44 27.736v0c0-.002.211-.336.244-.401l-3.792-3.431c-.086.016-.167.035-.253.054-.009.002-.015.005-.023.007-3.064.724-6.078 4.013-3.046 7.7.14.169.366.243.579.188s.375-.229.415-.441c.088-.486.263-1.018.671-1.403C9.167 29.125 11.779 30.549 13.44 27.736zM9.735 28.662c-.763.029-1.551.06-2.152.629C7.468 29.4 7.362 29.521 7.27 29.642c-.106.139-.281.207-.453.178S6.502 29.667 6.449 29.5c-.171-.524-.212-1.092-.047-1.673.095-.341.252-.657.452-.944.772.843 1.447 1.321 2.693 1.209.78-.067 1.497-.039 2.161.14C11.098 28.609 10.428 28.635 9.735 28.662z"/></g></g><g/><g/><g/><g/><g/><g/><g/><g/><g/><g/><g/><g/><g/><g/><g/></svg>