<svg id="Capa_1" xmlns="http://www.w3.org/2000/svg" xmlns:xlink="http://www.w3.org/1999/xlink" width="49" height="49" viewBox="0 0 49 49" style="enable-background:new 0 0 49 49"><g><path d="M38.494.0H8.155v3.277H6.232V49h29.484c1.209.0 2.267-.631 2.875-1.579 2.313-.05 4.176-1.938 4.176-4.263V4.271C42.769 1.917 40.853.0 38.494.0zM17.874 26.282h4.309v6.022C20.339 31.943 18.763 29.617 17.874 26.282zM19.666 31.975c-3.221-.817-5.929-2.897-7.569-5.691h4.719C17.437 28.766 18.426 30.749 19.666 31.975zM17.63 25.277c-.304-1.434-.485-3.017-.516-4.687h5.066v4.687H17.63zM17.118 19.585c.031-1.672.212-3.253.516-4.688h4.551v4.688H17.118zM17.874 13.893c.889-3.335 2.468-5.665 4.309-6.025v6.025H17.874zM16.814 13.893h-4.719c1.641-2.794 4.349-4.877 7.569-5.694C18.426 9.43 17.437 11.409 16.814 13.893zM16.588 14.896c-.286 1.436-.448 3.015-.477 4.687h-5.676c.066-1.672.465-3.252 1.137-4.687h5.016zM16.11 20.588c.029 1.674.19 3.252.476 4.688h-5.017c-.672-1.434-1.07-3.018-1.137-4.688H16.11zM15.697 41.659c-.131.159-.348.282-.649.37-.305.087-.621.13-.951.13h-1.855v2.05h-1.222v-6.355h2.782c.499.0.926.045 1.282.141.355.094.618.301.786.623.151.354.229.818.229 1.39C16.096 40.787 15.962 41.338 15.697 41.659zM21.162 44.209l-.404-1.198h-2.756l-.408 1.198h-1.262l1.457-4.41.662-1.949h1.788l2.169 6.359H21.162zM27.662 43.309c-.101.273-.248.48-.438.621-.298.221-.904.33-1.822.33h-.459c-.407.0-.758-.025-1.053-.066-.294-.043-.545-.156-.75-.33-.152-.135-.265-.28-.334-.451-.07-.168-.113-.34-.128-.521-.016-.18-.024-.408-.024-.699h1.214c0 .072-.005.132-.016.179.009.194.026.342.05.444.024.104.071.187.144.248.082.076.19.127.324.151.137.026.327.042.574.052.119.0.206.008.263.02.309-.016.542-.032.702-.051.155-.018.286-.061.391-.118.189-.113.283-.382.283-.796.0-.295-.06-.504-.18-.631-.043-.039-.097-.072-.167-.102-.065-.025-.133-.042-.202-.054-.066-.007-.154-.017-.258-.023-.104-.006-.225-.015-.354-.021-.229-.01-.441-.018-.642-.03-.2-.006-.392-.022-.571-.043-.18-.021-.358-.063-.538-.118-.178-.057-.326-.131-.446-.221-.333-.245-.513-.708-.535-1.391.0-.715.161-1.213.482-1.494.335-.266.967-.398 1.9-.398.567.0.967.016 1.211.036.391.051.688.161.891.331.215.174.352.381.408.628.062.247.094.554.094.931h-1.229v-.257c0-.237-.04-.399-.127-.489-.101-.115-.354-.172-.76-.172h-.501c-.484.0-.797.055-.94.172-.075.057-.129.129-.164.227-.032.094-.05.232-.05.417.011.211.029.364.056.458.025.095.088.168.19.222.083.045.185.08.309.104.122.024.266.039.432.054.167.01.323.021.473.03.505.033.921.07 1.246.119.324.051.578.138.748.271.106.084.19.187.251.306s.105.244.133.375c.025.129.043.243.049.336.006.094.013.252.021.478C27.812 42.725 27.763 43.034 27.662 43.309zM25.703 8.199c3.221.817 5.928 2.898 7.566 5.694h-4.717C27.937 11.409 26.943 9.43 25.703 8.199zM33.271 26.282c-1.64 2.794-4.347 4.877-7.567 5.69 1.241-1.229 2.233-3.207 2.852-5.69h4.715zM27.498 13.893h-4.31V7.868C25.03 8.229 26.606 10.558 27.498 13.893zM27.738 14.896c.307 1.435.487 3.017.518 4.687H23.19v-4.687H27.738zM28.252 20.588c-.03 1.672-.213 3.254-.518 4.688h-4.549v-4.688h5.067zM27.498 26.282c-.892 3.335-2.468 5.661-4.31 6.022v-6.022H27.498zM33.373 43.309c-.102.273-.248.48-.437.621-.298.221-.905.33-1.823.33h-.457c-.406.0-.758-.025-1.056-.066-.293-.043-.544-.156-.751-.33-.15-.135-.26-.28-.33-.451-.07-.168-.111-.34-.131-.521-.014-.18-.021-.408-.021-.699h1.215c0 .072-.004.132-.018.179.007.194.025.342.05.444.023.104.07.187.144.248.08.076.188.127.324.151.133.026.326.042.57.052.119.0.207.008.264.02.312-.016.541-.032.699-.051.154-.018.287-.061.393-.118.187-.113.281-.382.281-.796.0-.295-.061-.504-.178-.631-.04-.039-.1-.072-.167-.102-.069-.025-.137-.042-.202-.054-.068-.007-.158-.017-.262-.023-.104-.006-.221-.015-.354-.021-.225-.01-.438-.018-.639-.03-.199-.006-.391-.022-.57-.043-.181-.022-.36-.063-.537-.118-.18-.057-.326-.131-.444-.221-.337-.245-.515-.708-.536-1.391.0-.715.161-1.213.482-1.494.334-.266.969-.398 1.9-.398.562.0.967.016 1.211.036.391.051.688.161.891.331.212.174.349.381.408.628.062.245.094.554.094.931h-1.231v-.257c0-.237-.04-.399-.124-.489-.1-.115-.354-.172-.765-.172h-.501c-.482.0-.799.055-.941.172-.072.057-.13.129-.162.227-.035.094-.048.232-.048.417.011.211.026.364.054.458.024.095.09.168.19.222.083.045.185.08.308.104s.268.039.435.054c.166.01.321.021.471.03.505.033.919.07 1.246.119.326.051.578.138.75.271.108.084.19.187.25.306.062.119.106.244.132.375.025.129.04.243.049.336.004.094.01.252.021.478C33.523 42.725 33.475 43.034 33.373 43.309zM33.799 25.277h-5.021c.287-1.434.449-3.014.478-4.687h5.674C34.865 22.26 34.47 23.845 33.799 25.277zm-4.541-5.692c-.029-1.674-.19-3.251-.475-4.688h5.018c.674 1.435 1.068 3.018 1.136 4.688H29.258zM41.06 43.158c0 1.193-.819 2.189-1.927 2.477.0-.02.004-.037.004-.054V6.695c0-1.887-1.531-3.418-3.42-3.418H9.864V1.709h28.63c1.416.0 2.564 1.15 2.564 2.564L41.06 43.158v0zM19.374 38.777l1.095 3.312h-2.195l1.095-3.312H19.374zM14.756 39.205c.09.167.134.447.134.848-.01.284-.027.479-.049.588s-.091.211-.204.305c-.117.113-.403.174-.854.174h-1.543v-2.225h1.575c.274.0.482.026.624.07C14.581 39.012 14.688 39.095 14.756 39.205z"/></g><g/><g/><g/><g/><g/><g/><g/><g/><g/><g/><g/><g/><g/><g/><g/></svg>