<svg id="Capa_1" xmlns="http://www.w3.org/2000/svg" xmlns:xlink="http://www.w3.org/1999/xlink" width="96.911" height="96.911" viewBox="0 0 96.911 96.911" style="enable-background:new 0 0 96.911 96.911"><g><g><path d="M29.963 3.464l7.35-3.454C34.375.068 31.753 1.393 29.963 3.464z"/><path d="M42.364 1.262l-8.02 3.77 9.715-2.572C43.537 2.006 42.972 1.602 42.364 1.262z"/><path d="M75.58 23.925v-3.021h.653c1.224.0 2.214-.991 2.214-2.214V8.035c0-1.222-.99-2.213-2.214-2.213h-1.745c.019-.168.028-.344.028-.527.0-.135-.011-.263-.019-.39h.462c1.595.0 2.893-1.298 2.893-2.892h-.984c0 1.052-.856 1.907-1.907 1.907h-.654c-.225-.637-.619-1.025-1.104-1.025-.486.0-.879.388-1.105 1.025H64.71V0h-2.953v3.92H51.575c-1.054.0-1.907-.855-1.907-1.907h-.986c0 1.594 1.297 2.892 2.894 2.892h10.181v32.407c-6.297-2.289-8.725-5.428-11.274-8.739-1.763-2.29-5.019-5.784-10.482-8.034l-2.486 2.503-2.412-2.531c-.006.002-.014.003-.023.004-1.271.305-18.672 6.128-16.413 30.672.201 1.998 1.888 3.49 3.854 3.49.127.0.259-.007.391-.021 2.128-.214 3.681-2.112 3.468-4.241-.585-5.861-.163-9.963.922-13.002.0.0.0 10.863.0 13.831s.665 3.626.665 3.626l.004 37c0 2.529 2.051 4.579 4.58 4.579 2.528.0 4.578-2.052 4.578-4.58l-.002-31.842c.18.009.362.022.544.022.037.0.071-.004.107-.004v31.824c0 2.529 2.049 4.579 4.578 4.579 2.529.0 4.58-2.05 4.58-4.579V54.996c0 0 .797-.771.797-3.75V37.362c2.783 2.922 6.701 5.863 13.436 7.926.196.06.393.103.592.13v41.221h-1.836c-3.13.0-5.807 1.95-6.896 4.697C51.857 91.691 51 92.768 51 94.055c0 1.577 1.277 2.856 2.854 2.856 1.578.0 2.855-1.279 2.855-2.856.0-.757-.3-1.441-.779-1.953.728-1.479 2.234-2.511 3.994-2.511h5.598 1.054c1.76.0 3.268 1.031 3.995 2.511-.48.512-.78 1.196-.78 1.953.0 1.577 1.277 2.856 2.854 2.856s2.854-1.279 2.854-2.856c0-1.287-.858-2.363-2.028-2.719-1.09-2.748-3.767-4.697-6.896-4.697h-.927H64.81h-.101V44.605c.592-.47 1.058-1.11 1.294-1.888.173-.562.198-1.132.122-1.679 2.081.439 4.381 1.058 5.354 1.37.853.28 1.666.419 2.411.419.966.0 1.818-.233 2.5-.694 1.09-.735 1.727-2.033 1.837-3.753.17-2.399-.705-4.294-1.549-6.125-.46-.995-.934-2.024-1.234-3.123-.372-1.35-.613-3.641-.563-5.208L75.58 23.925v0zM73.248 3.87c.002.006.014.036.02.05h-.062C73.22 3.906 73.234 3.876 73.248 3.87zM72.898 4.905h.605c.012.125.028.244.028.39.0.195-.016.37-.036.527h-.59C72.884 5.665 72.87 5.49 72.87 5.295 72.871 5.149 72.887 5.029 72.898 4.905zM76.125 32.511c.851 1.843 1.654 3.584 1.496 5.828-.103 1.549-.63 2.656-1.567 3.29-1.057.712-2.611.783-4.388.201-.724-.231-3.336-.955-5.687-1.436-.231-.718-.674-1.358-1.271-1.835V4.905h7.196c-.011.127-.021.255-.021.39.0.184.011.359.028.527h-1.743c-1.223.0-2.213.991-2.213 2.213v10.654c0 1.223.99 2.214 2.213 2.214h.613v1.333h1.681v-1.333h1.434v3.021h.375c-.049 1.622.2 3.979.583 5.369C75.171 30.441 75.655 31.494 76.125 32.511zM73.264 15.778c-1.285.0-2.327-1.042-2.327-2.328s2.327-4.929 2.327-4.929 2.327 3.644 2.327 4.929C75.591 14.736 74.55 15.778 73.264 15.778z"
			/><path d="M25.101 9.332c-.097.212-.182.416-.259.603-.409.993-.547 1.328-1.919 1.58l.532 2.906c2.956-.542 3.628-2.171 4.118-3.36.01-.026.019-.042.026-.064.512 5.034 4.744 8.965 9.911 8.965 5.513.0 9.979-4.468 9.979-9.98.0-1.707-.432-3.313-1.185-4.719L28.761 9.906l-.2-2.155 5.784-2.719-5.892 1.56h-.002L28.1 6.685c-.004.011-.006.021-.01.031-.394.116-1.005.251-1.324.135-.92-.337-1.971-1.487-2.292-2.511l-2.816.885C22.183 6.891 23.571 8.519 25.101 9.332z"/></g></g><g/><g/><g/><g/><g/><g/><g/><g/><g/><g/><g/><g/><g/><g/><g/></svg>