<svg id="Capa_1" xmlns="http://www.w3.org/2000/svg" xmlns:xlink="http://www.w3.org/1999/xlink" width="96.428" height="96.428" viewBox="0 0 96.428 96.428" style="enable-background:new 0 0 96.428 96.428"><g><g><path d="M27.57 3.624l7.335-3.446C31.973.236 29.356 1.558 27.57 3.624z"/><path d="M39.947 1.428 31.943 5.19l9.695-2.567C41.116 2.169 40.553 1.767 39.947 1.428z"/><path d="M30.241 96.428c2.523.0 4.568-2.047 4.568-4.57v-1.507l-9.133 1.572C25.713 94.416 27.74 96.428 30.241 96.428z"/><path d="M34.809 76.631 25.669 80.471V81.597L34.809 80.312z"/><path d="M25.67 90.117 34.81 88.545V87.379L25.669 86.24z"/><path d="M25.669 83.402V84.436L34.81 85.572 34.809 82.117z"/><circle cx="60.687" cy="9.904" r="9.904"/><path d="M62.293 46.984c-1.554.507-3.452-.002-3.452-.002-.274-.039-.546-.098-.817-.18-2.799-.858-5.27-1.904-7.489-3.174-.843 3.649-3.638 15.858-4.934 22.789v5.815c1.033.959 3.182 1.771 5.892 2.348l.001 17.089c0 2.51 2.034 4.545 4.544 4.544 2.511.0 4.544-2.034 4.544-4.544L60.58 75.498c.217.002.432-.004.646-.004l-.001 16.175c0 2.51 2.034 4.544 4.544 4.544s4.544-2.034 4.544-4.543l.001-17.365c2.706-.824 4.765-2.104 5.522-3.956.019-4.062-2.179-14.792-3.738-21.651C72.098 48.697 64.01 47.44 62.293 46.984z"/><path d="M63.104 20.36c-.009-.002-.018-.002-.025-.004l-2.393 2.511-2.467-2.483c-1.345.329-6.041 2.482-9.817 6.629.193.249.386.498.577.746 2.521 3.276 4.692 6.097 10.584 8.238l1.066.449c.923-.6 2.008-.957 3.164-.957.509.0 1.018.066 1.511.198.68.182 4.218.914 5.52 1.178v-1.558c1.223 1.365 2.39 3.053 2.853 4.006l-8.887-1.693c-.333-.089-.667-.131-.995-.131-.258.0-.51.034-.757.084.771.649 1.347 1.488 1.656 2.445l.037.137.165.763c.112.801.055 1.582-.173 2.323-.229.748-.621 1.428-1.146 2.007 1.9.47 5.362 1.218 8.414 1.433v.001c.002.0.004.0.006-.001.029.002.06.005.087.007l-.002-.01c.058.002.112.003.171.003 3.361.0 7.467-.8 8.843-4.683C83.818 34.309 70.59 22.761 63.104 20.36z"/><path d="M22.718 9.48c-.098.212-.182.416-.259.603-.408.991-.546 1.325-1.916 1.576l.532 2.9c2.95-.541 3.621-2.167 4.109-3.354.011-.025.019-.042.026-.063.512 5.023 4.734 8.947 9.892 8.947 5.502.0 9.96-4.46 9.96-9.962.0-1.703-.431-3.307-1.182-4.709l-17.512 4.636-.2-2.151 5.773-2.713L26.06 6.747h-.002l-.35.093c-.004.011-.006.021-.01.03-.393.116-1.002.251-1.321.136-.918-.337-1.967-1.484-2.288-2.507l-2.811.884C19.804 7.045 21.19 8.67 22.718 9.48z"/><path d="M37.584 20.666l-2.481 2.498-2.407-2.525c-.006.003-.014.003-.023.005-1.27.304-4.042 1.748-4.237 1.869-.02.012-.038.025-.058.037l5.252 13.438 5.208-14.922C38.424 20.912 38.007 20.77 37.584 20.666z"/><path d="M36.494 42.051c0-1.736-1.266-3.173-2.921-3.46l-.001-.009-6.053-15.479c-.08.052-.161.103-.241.156l-2.403 15.293c-.698.012-.873-.007-.873-.007l2.175-14.527c-1.299.928-2.551 1.949-3.701 3.131-3.27 3.714-5.554 6.643-7.211 11.996-.419 1.353-.48 3.265.398 4.376.935 1.181 1.833 1.759 8.773 2.099.0-.017 8.535-.049 8.535-.049C34.915 45.571 36.494 43.992 36.494 42.051z"/><path d="M62.246 38.65 59.3 37.406c-6.285-2.284-8.708-5.417-11.252-8.722-1.76-2.285-4.308-5.412-8.231-7.188l-2.874 18.26c0 0 .5 1.188.472 2.295-.063 2.448-1.992 4.441-4.441 4.441h-8.064c0 0 0 2.247.0 4.82.0 2.574.758 3.767.758 3.767l.002 23.589 9.141-3.841-.002-14.748c.18.009.362.021.544.021.036.0.07-.004.107-.004v31.762c0 2.523 2.045 4.57 4.568 4.57s4.571-2.047 4.571-4.57V55.055c0 0 .7-1.645.7-3.743.0-1.967.0-13.856.0-13.856 2.778 2.916 6.688 5.852 13.409 7.911 2.345.583 3.538-.682 3.538-.682.592-.47 1.057-1.108 1.292-1.884C64.178 40.35 63.115 39.131 62.246 38.65z"/><path d="M38.029 26.416l-3.96 11.346c.763.196 1.451.579 1.999 1.113L38.029 26.416z"/></g></g><g/><g/><g/><g/><g/><g/><g/><g/><g/><g/><g/><g/><g/><g/><g/></svg>