<svg id="Capa_1" xmlns="http://www.w3.org/2000/svg" xmlns:xlink="http://www.w3.org/1999/xlink" width="98.592" height="98.592" viewBox="0 0 98.592 98.592" style="enable-background:new 0 0 98.592 98.592"><g><g><circle cx="67.71" cy="27.65" r="9.281"/><path d="M92.642 93.348l-.354-1.324-1.354-5.041-1.398-5.233-3.889-14.843c-.148-.56-.414-1.059-.75-1.495.045.0.09.003.137.003 1.988.0 3.602-1.613 3.602-3.604.0-1.988-1.613-3.603-3.602-3.603-5.432.0-8.93-2.24-10.742-13.689-.043-.26-.111-.508-.205-.744-.449-3.334-3.512-5.569-6.377-6.271.0.0-.975-.293-2.014-.27-.996.023-2.105.253-2.105.253l-.027.003c-3.121.765-6.447 3.309-6.447 7.126v11.207c-.344.005-.69.007-1.036.006l-1.687-11.955c-.215-1.614-1.705-2.747-3.312-2.532-1.615.214-2.748 1.697-2.531 3.312l1.189 8.562.297 2.143c-2.741-.527-5.2-1.609-6.934-3.787-1.329-1.738-1.305-3.301-1.279-4.956.033-2.139.068-4.352-3.085-6.529-.958-.657-1.799-1.157-2.542-1.599-2.641-1.571-3.846-2.289-4.497-6.564-.431-2.799-.514-5.548-.274-8.845h.331v-2.916h.631c1.18.0 2.135-.956 2.135-2.135V7.751c0-1.178-.955-2.135-2.135-2.135h-1.684c.018-.162.027-.332.027-.508.0-.13-.01-.254-.018-.376h.445c1.539.0 2.791-1.252 2.791-2.79h-.95c0 1.015-.826 1.84-1.84 1.84h-.631c-.217-.614-.598-.989-1.066-.989-.468.0-.848.375-1.066.989h-7.125V0h-2.85v3.781h-9.82c-1.016.0-1.84-.825-1.84-1.84H5.806c0 1.538 1.252 2.79 2.791 2.79h9.82v81.957L18.361 86.8h-1.893c-3.066.0-5.688 1.912-6.756 4.604-1.147.348-1.988 1.401-1.988 2.664.0 1.545 1.252 2.797 2.797 2.797 1.546.0 2.797-1.252 2.797-2.797.0-.744-.293-1.414-.763-1.914.712-1.45 2.189-2.461 3.913-2.461h5.485 1.031c1.724.0 3.201 1.011 3.914 2.461-.47.5-.764 1.17-.764 1.914.0 1.545 1.251 2.797 2.797 2.797 1.545.0 2.797-1.252 2.797-2.797.0-1.263-.841-2.316-1.988-2.664-1.067-2.692-3.69-4.604-6.756-4.604h-.907-.811V4.732h6.941c-.01.123-.02.246-.02.376.0.177.01.346.027.508h-1.682c-1.18.0-2.135.957-2.135 2.135v10.277c0 1.179.955 2.135 2.135 2.135h.592v1.286h1.621v-1.286h1.383v2.916h.289c-.239 3.342-.15 6.141.289 8.996.722 4.742 2.232 5.641 4.974 7.272.729.434 1.556.926 2.486 1.564 2.712 1.873 2.685 3.641 2.652 5.689-.026 1.67-.056 3.563 1.491 5.585 1.998 2.508 4.794 3.688 7.869 4.225l1.972 14.166c-1.597 2.664-2.517 5.777-2.517 9.102.0 9.799 7.972 17.77 17.771 17.77 6.475.0 12.149-3.48 15.256-8.67l.002.006c.023-.066.052-.131.076-.198l1.885 6.979c.625 2.186 2.881 3.476 5.08 2.883C91.925 97.852 93.239 95.568 92.642 93.348zM29.744 5.616h-.568c-.022-.151-.036-.32-.036-.508.0-.141.016-.256.027-.376h.584c.012.12.027.235.027.376C29.779 5.296 29.765 5.465 29.744 5.616zM72.085 59.859c1.852 1.644 3.939 3.07 6.297 4.239l-6.297-.028V59.859zM57.112 56.824v6.363l-.896-6.356C56.515 56.83 56.815 56.829 57.112 56.824zM67.405 91.388c-6.455.0-11.709-5.252-11.709-11.709.0-1.468.283-2.868.779-4.163.209.031.42.053.637.053h21.242c.483 1.281.762 2.664.762 4.11C79.116 86.135 73.862 91.388 67.405 91.388z"/></g></g><g/><g/><g/><g/><g/><g/><g/><g/><g/><g/><g/><g/><g/><g/><g/></svg>