<svg id="Capa_1" xmlns="http://www.w3.org/2000/svg" xmlns:xlink="http://www.w3.org/1999/xlink" width="31.734" height="31.734" viewBox="0 0 31.734 31.734" style="enable-background:new 0 0 31.734 31.734"><g><g><path d="M3.047 2.717h11.092v4.927c0 .445.165.873.48 1.188.317.313.739.473 1.185.47l4.991-.046h.029v9.55h2.571V9.198c0-1.11-.425-2.178-1.206-2.968l-4.95-4.993C16.447.437 15.376.0 14.251.0H2.76C1.503.0.477.994.477 2.252v24.424c0 1.258 1.027 2.27 2.284 2.27h6.018v-2.572h-5.73L3.047 2.717v0zM16.711 4.487l2.279 2.197h-.005l-2.274.053V4.487z"/><path d="M6.222 8.228H9.83c.718.0 1.301-.568 1.301-1.288.0-.717-.583-1.284-1.301-1.284H6.222c-.719.0-1.3.567-1.3 1.284C4.922 7.66 5.503 8.228 6.222 8.228z"/><path d="M17.717 10.651H6.222c-.719.0-1.3.566-1.3 1.285.0.719.581 1.287 1.3 1.287h11.495c.72.0 1.303-.568 1.303-1.287C19.02 11.217 18.437 10.651 17.717 10.651z"/><path d="M17.717 15.499H6.222c-.719.0-1.3.679-1.3 1.396.0.72.581 1.396 1.3 1.396h11.495c.72.0 1.303-.678 1.303-1.396C19.02 16.178 18.437 15.499 17.717 15.499z"/><path d="M4.922 21.782c0 .718.581 1.284 1.3 1.284h2.556v-2.57H6.222C5.503 20.496 4.922 21.064 4.922 21.782z"/><path d="M16.271 24.251c-.252.0-.442.024-.515.05v1.618c.147.022.238.031.418.031.658.0 1.067-.332 1.067-.896C17.241 24.553 16.889 24.251 16.271 24.251z"/><path d="M12.565 20.422c-1.037.0-1.878.842-1.878 1.879v7.555c0 1.039.841 1.879 1.878 1.879h16.813c1.037.0 1.879-.84 1.879-1.879v-7.555c0-1.037-.842-1.879-1.879-1.879H12.565zM17.965 26.325c-.422.399-1.053.577-1.784.577-.163.0-.277-.008-.425-.024v1.993h-1.249v-5.439c.44-.065.933-.113 1.689-.113.765.0 1.315.146 1.683.439.349.275.588.73.588 1.266S18.289 26.016 17.965 26.325zM23.195 28.186c-.577.479-1.445.709-2.518.709-.644.0-1.103-.041-1.396-.082v-5.381c.439-.074 1.037-.115 1.663-.115 1.041.0 1.711.188 2.24.586.567.423.923 1.098.923 2.064C24.109 27.016 23.725 27.74 23.195 28.186zM28.244 24.389h-2.058v1.248h1.983v1.028h-1.983v2.205h-1.248v-5.511h3.306V24.389z"/><path d="M21.08 24.268c-.277.0-.476.024-.549.049v3.586c.073.025.264.025.416.025 1.122.006 1.842-.611 1.842-1.92C22.797 24.871 22.145 24.268 21.08 24.268z"/></g></g><g/><g/><g/><g/><g/><g/><g/><g/><g/><g/><g/><g/><g/><g/><g/></svg>