<svg id="Capa_1" xmlns="http://www.w3.org/2000/svg" xmlns:xlink="http://www.w3.org/1999/xlink" width="31.753" height="31.753" viewBox="0 0 31.753 31.753" style="enable-background:new 0 0 31.753 31.753"><g><g><path d="M20.199 6.912h-8.647l-4.09 7.494c-.961 1.761-.976 3.885-.039 5.66l5.833 11.053c.205.391.609.634 1.05.634V20.896c-.747-.471-1.244-1.299-1.244-2.246.0-1.402 1.098-2.541 2.48-2.629h.665c1.382.088 2.479 1.227 2.479 2.629.0.947-.496 1.775-1.244 2.246V31.75c.438.0.846-.243 1.051-.634l5.834-11.057c.938-1.771.922-3.896-.039-5.66L20.199 6.912z"/><path d="M6.044.0v2.754h1.351v.001c0 1.521 1.233 2.754 2.754 2.754h11.452c1.521.0 2.754-1.233 2.754-2.754V2.754h1.354V0H6.044z"/></g></g><g/><g/><g/><g/><g/><g/><g/><g/><g/><g/><g/><g/><g/><g/><g/></svg>