<svg id="Capa_1" xmlns="http://www.w3.org/2000/svg" xmlns:xlink="http://www.w3.org/1999/xlink" width="31.614" height="31.614" viewBox="0 0 31.614 31.614" style="enable-background:new 0 0 31.614 31.614"><g><path d="M4.372 21.711l6.548 5.871 13.889-15.479L18.26 6.229 4.372 21.711zm12.247-8.296-7.798 8.693c-.098.108-.234.175-.38.183-.146.009-.29-.042-.398-.141l-.387-.348c-.226-.203-.245-.551-.042-.777l7.798-8.693c.098-.109.234-.175.38-.183.146-.008.29.043.398.14l.387.347C16.803 12.84 16.821 13.188 16.619 13.415zM18.887 9.282l.386.346c.228.203.246.552.043.778l-.678.756c-.1.109-.235.174-.381.183-.146.008-.289-.042-.398-.14l-.387-.347c-.108-.098-.174-.234-.184-.381-.008-.146.043-.29.142-.398l.678-.756C18.312 9.097 18.661 9.078 18.887 9.282zM20.501 3.732l6.547 5.873-1.608 1.793-6.546-5.873L20.501 3.732zM29.681 3.817l-3.711-3.33c-.783-.703-1.986-.637-2.688.146l-2.188 2.44 6.548 5.872 2.188-2.438c.336-.376.513-.871.482-1.375C30.284 4.627 30.057 4.154 29.681 3.817zM27.507 6.498l-3.969-3.559 1.146-1.276 3.968 3.558L27.507 6.498zM1.336 30.403c-.101.35.007.727.277.968.27.243.656.31.992.173l7.529-3.084-6.546-5.873L1.336 30.403zM7.991 28.088l-2.958 1.211-1.73-1.552.885-3.071L7.991 28.088z"/></g><g/><g/><g/><g/><g/><g/><g/><g/><g/><g/><g/><g/><g/><g/><g/></svg>