<svg id="Capa_1" xmlns="http://www.w3.org/2000/svg" xmlns:xlink="http://www.w3.org/1999/xlink" width="31.893" height="31.893" viewBox="0 0 31.893 31.893" style="enable-background:new 0 0 31.893 31.893"><g><g><path d="M0 23.487l6.772 7.521 6.579-5.927-6.773-7.519L0 23.487zM9.916 25.52l-2.349 2.114-1.188-1.316L8.727 24.2 9.916 25.52zM4.484 24.213l-1.19-1.32 2.35-2.114 1.189 1.317L4.484 24.213z"/><path d="M30.621 4.569l-1.848-2.05c-1.826-2.029-4.953-2.192-6.981-.365L6.672 15.775l8.466 9.396 15.12-13.622C32.287 9.723 32.448 6.597 30.621 4.569zM23.184 6.458l-9.642 8.569c-.241.217-.542.32-.839.32-.351.0-.697-.143-.946-.425-.464-.521-.416-1.321.104-1.784l9.642-8.57c.521-.466 1.32-.419 1.784.105C23.753 5.196 23.706 5.995 23.184 6.458z"/></g></g><g/><g/><g/><g/><g/><g/><g/><g/><g/><g/><g/><g/><g/><g/><g/></svg>