<svg id="Capa_1" xmlns="http://www.w3.org/2000/svg" xmlns:xlink="http://www.w3.org/1999/xlink" viewBox="0 0 433 433" style="enable-background:new 0 0 433 433"><path d="M423.5 179.732h-33.977v-17.073c0-18.162-9.575-34.122-23.936-43.122 7.23-7.029 11.734-16.848 11.734-27.704.0-21.318-17.344-38.662-38.662-38.662-21.317.0-38.661 17.344-38.661 38.662.0 10.855 4.504 20.674 11.734 27.704-14.36 9-23.936 24.959-23.936 43.122v17.073h-20.434v-17.073c0-18.162-9.575-34.122-23.936-43.122 7.23-7.029 11.734-16.848 11.734-27.704.0-21.318-17.344-38.662-38.661-38.662-21.318.0-38.662 17.344-38.662 38.662.0 10.855 4.504 20.674 11.734 27.704-14.361 9-23.936 24.959-23.936 43.122v17.073h-20.434v-17.073c0-18.162-9.575-34.122-23.936-43.122 7.23-7.029 11.734-16.848 11.734-27.704.0-21.318-17.344-38.662-38.662-38.662S55.677 70.516 55.677 91.834c0 10.856 4.504 20.674 11.734 27.704-14.36 9-23.935 24.959-23.935 43.122v17.073H9.5c-5.247.0-9.5 4.253-9.5 9.5v127.1c0 5.247 4.253 9.5 9.5 9.5h34.008v44.497c0 5.247 4.253 9.5 9.5 9.5s9.5-4.253 9.5-9.5v-44.497h307.983v44.497c0 5.247 4.253 9.5 9.5 9.5s9.5-4.253 9.5-9.5v-44.497H423.5c5.247.0 9.5-4.253 9.5-9.5v-127.1C433 183.985 428.748 179.732 423.5 179.732zM358.322 91.834c0 10.841-8.82 19.662-19.662 19.662-10.841.0-19.661-8.82-19.661-19.662s8.82-19.662 19.661-19.662C349.501 72.172 358.322 80.992 358.322 91.834zM306.796 162.659c0-17.57 14.294-31.864 31.863-31.864 17.57.0 31.864 14.294 31.864 31.864v38.148c0 1.374-1.118 2.491-2.492 2.491s-2.491-1.118-2.491-2.491v-26.909c0-5.247-4.253-9.5-9.5-9.5s-9.5 4.253-9.5 9.5v5.833H330.78v-5.833c0-5.247-4.253-9.5-9.5-9.5s-9.5 4.253-9.5 9.5v26.909c0 1.374-1.118 2.491-2.492 2.491s-2.491-1.118-2.491-2.491V162.659zM236.161 91.834c0 10.841-8.82 19.662-19.661 19.662-10.841.0-19.662-8.82-19.662-19.662s8.82-19.662 19.662-19.662C227.34 72.172 236.161 80.992 236.161 91.834zM184.636 162.659c0-17.57 14.294-31.864 31.864-31.864 17.569.0 31.863 14.294 31.863 31.864v38.148c0 1.374-1.117 2.491-2.491 2.491s-2.492-1.118-2.492-2.491v-26.909c0-5.247-4.253-9.5-9.5-9.5s-9.5 4.253-9.5 9.5v5.833h-15.76v-5.833c0-5.247-4.253-9.5-9.5-9.5s-9.5 4.253-9.5 9.5v26.909c0 1.374-1.118 2.491-2.492 2.491s-2.492-1.118-2.492-2.491V162.659zM114 91.834c0 10.841-8.82 19.662-19.662 19.662s-19.662-8.82-19.662-19.662 8.82-19.662 19.662-19.662S114 80.992 114 91.834zM62.475 162.659c0-17.57 14.294-31.864 31.863-31.864 17.57.0 31.864 14.294 31.864 31.864v38.148c0 1.374-1.118 2.491-2.492 2.491-1.374.0-2.491-1.118-2.491-2.491v-26.909c0-5.247-4.253-9.5-9.5-9.5s-9.5 4.253-9.5 9.5v5.833H86.458v-5.833c0-5.247-4.253-9.5-9.5-9.5s-9.5 4.253-9.5 9.5v26.909c0 1.374-1.118 2.491-2.492 2.491-1.374.0-2.491-1.118-2.491-2.491V162.659zM414 306.831H19v-108.1h24.475v2.075c0 11.85 9.641 21.491 21.492 21.491 11.85.0 21.491-9.641 21.491-21.491v-2.075h15.761v2.075c0 11.85 9.641 21.491 21.491 21.491 11.851.0 21.492-9.641 21.492-21.491v-2.075h20.434v2.075c0 11.85 9.641 21.491 21.492 21.491s21.492-9.641 21.492-21.491v-2.075h15.76v2.075c0 11.85 9.642 21.491 21.492 21.491s21.491-9.641 21.491-21.491v-2.075h20.434v2.075c0 11.85 9.642 21.491 21.492 21.491s21.491-9.641 21.491-21.491v-2.075h15.761v2.075c0 11.85 9.641 21.491 21.491 21.491s21.492-9.641 21.492-21.491v-2.075H414V306.831z"/><g/><g/><g/><g/><g/><g/><g/><g/><g/><g/><g/><g/><g/><g/><g/></svg>