<svg id="Capa_1" xmlns="http://www.w3.org/2000/svg" xmlns:xlink="http://www.w3.org/1999/xlink" width="31.219" height="31.218" viewBox="0 0 31.219 31.218" style="enable-background:new 0 0 31.219 31.218"><g><path d="M29.2 15.224h-1.259v-3.77c0-.306-.137-.597-.377-.791-1.873-1.524-3.946-2.297-6.161-2.297-.078.0-.154.002-.229.004.031-.249.051-.502.051-.759.0-3.374-2.733-6.11-6.11-6.11-3.375.0-6.11 2.735-6.11 6.11.0.257.019.509.05.757C6.91 8.413 4.89 9.184 3.068 10.664c-.239.193-.387.484-.387.791v3.77H2.044C.919 15.225.0 16.162.0 17.287v2.037c0 1.123.919 2.012 2.044 2.012h.638v7.365c0 .387.228.738.573.91.144.071.305.106.462.106.215.0.432-.065.611-.201.02-.014 1.936-1.418 4.95-1.418 1.747.0 3.522.455 5.243 1.416.604.336 1.355.138 1.604.0 1.73-.938 3.496-1.416 5.242-1.416 2.965.0 4.916 1.394 4.953 1.421.18.133.391.198.604.198.153.0.312-.035.452-.106.347-.172.562-.523.562-.91v-7.365h1.261c1.125.0 2.021-.889 2.021-2.012v-2.037C31.219 16.162 30.325 15.224 29.2 15.224zM9.302 26.062c-1.907.0-3.49.469-4.533.93v-5.658h1.349c1.124.0 2.003-.887 2.003-2.01v-2.037c0-1.125-.878-2.062-2.003-2.062H4.769v-3.271c1.341-1.028 2.897-1.549 4.488-1.549 1.914.0 3.538.754 4.421 1.266.109.111.18.224.33.337v15.005C12.443 26.38 10.879 26.062 9.302 26.062zM25.93 26.992c-1.119-.461-2.629-.93-4.535-.93-1.578.0-3.215.317-4.706.948V11.869c.745-.486 2.562-1.465 4.741-1.465 1.59.0 3.082.521 4.498 1.549v3.271h-.803c-1.125.0-2.027.938-2.027 2.062v2.037c0 1.123.902 2.01 2.027 2.01h.803v5.658H25.93z"/></g><g/><g/><g/><g/><g/><g/><g/><g/><g/><g/><g/><g/><g/><g/><g/></svg>