<svg id="Capa_1" xmlns="http://www.w3.org/2000/svg" xmlns:xlink="http://www.w3.org/1999/xlink" width="31.662" height="31.662" viewBox="0 0 31.662 31.662" style="enable-background:new 0 0 31.662 31.662"><g><g><path d="M13.193 13.308h4.496c.23-1.27.906-2.364 1.863-3.159.004.0.009.0.015.0.797-.027 1.836-.237 2.821-.966.121-.089.238-.185.351-.284 1.412-1.252 2.187-3.332 2.292-6.192.025-.758-.564-1.396-1.32-1.425-.826-.042-1.396.562-1.425 1.322-.084 2.161-.602 3.664-1.506 4.349-.196.151-.405.254-.606.323-.006.002-.015.003-.021.005-.595-.568-1.418-.845-1.974-.845h-3.398-3.397c-1.246.0-2.237 1.251-2.259 2.624C11.201 9.567 12.811 11.246 13.193 13.308z"/><ellipse cx="14.78" cy="3.195" rx="3.261" ry="3.195"/><path d="M14.359 21.546c0-2.479-1.068-3.526-2.55-3.526h-.081H8.373c1.854-.271 3.275-1.834 3.275-3.728.0-2.08-1.72-3.768-3.847-3.768-2.123.0-3.844 1.688-3.844 3.768.0 1.894 1.421 3.456 3.276 3.728H3.877 3.795c-1.484.0-2.688 1.588-2.688 3.229v5.02h13.252V21.546z"/><path d="M19.101 14.292c0 1.894 1.422 3.456 3.274 3.728h-3.22-.219c-1.485.0-2.618 1.588-2.618 3.229v5.02h13.15v-4.72c0-2.45-1.029-3.481-2.481-3.506-.021.0-.019-.021-.037-.021h-3.438c1.855-.271 3.277-1.834 3.277-3.729.0-2.08-1.722-3.768-3.846-3.768C20.821 10.524 19.101 12.212 19.101 14.292z"/><path d="M.029 28.423h31.604v3.239H.029z"/></g></g><g/><g/><g/><g/><g/><g/><g/><g/><g/><g/><g/><g/><g/><g/><g/></svg>