<svg id="Capa_1" xmlns="http://www.w3.org/2000/svg" xmlns:xlink="http://www.w3.org/1999/xlink" width="97.27" height="97.27" viewBox="0 0 97.27 97.27" style="enable-background:new 0 0 97.27 97.27"
	><g><g><path d="M88.072 60.105H10.044c-1.825.0-3.306 1.48-3.306 3.307s1.48 3.307 3.306 3.307h9.126v3.604h12.828v18.219h-9.125v4.496h2.698c-.025.175-.054.349-.054.529.0 2.045 1.658 3.703 3.703 3.703s3.703-1.658 3.703-3.703c0-.181-.028-.354-.054-.529h32.377c-.026.175-.055.349-.055.529.0 2.045 1.658 3.703 3.703 3.703s3.702-1.658 3.702-3.703c0-.181-.026-.354-.054-.529h2.568v-4.496H64.796V70.32h12.563v-3.603h10.713c1.826.0 3.307-1.479 3.307-3.308C91.379 61.586 89.898 60.105 88.072 60.105z"/><path d="M32.297 45.336c-2.397.703-4.018 3.029-4.574 5.227.0.0-.019.062-.045.163-.531-3.827-3.793-6.79-7.772-6.819-4.369-.032-7.94 3.486-7.972 7.857-.032 4.371 3.485 7.939 7.853 7.975 3.82.026 7.024-2.651 7.798-6.24.05.343.098.58.098.58l.004.023c.632 2.665 2.78 5.52 6.037 5.542l17.472.13c2.16.014 3.857-1.197 4.93-2.889l26.386.064c.004.0.004.0.013.0 2.307.0 4.182-1.869 4.189-4.18.004-2.314-1.867-4.196-4.182-4.201l-23.107-.057c.302.436.534.934.636 1.484.407 2.117-.987 4.171-3.103 4.578-.33.062-8.096 1.535-15.682 1.535-2.451.0-4.633-.156-6.525-.459.006-.039.013-.078.018-.117.008-.237.034-.473.063-.705 2.039.341 4.292.475 6.559.475 7.483.0 15.097-1.438 15.522-1.521 1.666-.318 2.761-1.93 2.441-3.595-.318-1.667-1.929-2.759-3.594-2.44-.128.023-11.809 2.226-19.453 1.093.058-.277.108-.556.146-.838 1.378.195 2.979.293 4.785.293 6.088.0 12.602-1.106 13.988-1.357-.353-.359-.749-.673-1.184-.933 2.634-3.341 3.186-6.723 3.063-9.244-.267-5.514-3.798-12.673-12.24-16.238l-2.151 2.167-2.089-2.19c-.006.001-.013.001-.021.003-1.319.315-11.498 4.335-12.807 14.882C27.674 37.965 28.431 41.643 32.297 45.336zM45.975 43.505c2.479-1.871 3.58-3.859 3.465-6.254-.143-2.946-1.286-6.287-3.46-8.106l.276.09c2.131 1.969 4.008 4.932 4.147 7.851.127 2.612-1.145 4.887-3.885 6.955-.42.318-.723.722-.938 1.164l-.935-.007C44.942 44.538 45.382 43.952 45.975 43.505zM38.322 29.544l.196-.058c-2.209 1.735-2.762 4.211-2.868 6.397-.083 1.719 1.057 3.482 3.387 5.241 1.298.979 1.87 2.538 1.683 4.044l-1.209-.009c.328-1.269-.092-2.66-1.204-3.499-2.621-1.979-3.901-3.98-3.807-5.951C34.603 33.572 36.271 31.315 38.322 29.544z"/><path d="M35.172 14.911c0-2.909 2.357-5.268 5.269-5.268h4.058c2.91.0 5.268 2.359 5.268 5.268.0.698-.144 1.361-.388 1.97 1.232-1.494 1.977-3.409 1.977-5.499.0-4.771-3.871-8.64-8.642-8.64s-8.639 3.869-8.639 8.64c0 1.586.435 3.068 1.181 4.346C35.212 15.46 35.172 15.191 35.172 14.911z"/><path d="M44.414 10.182h-3.708c-2.662.0-4.817 2.156-4.817 4.816.0 2.661 2.155 4.816 4.817 4.816h3.708c2.66.0 4.815-2.156 4.815-4.816C49.23 12.338 47.074 10.182 44.414 10.182z"/><path d="M18.789 19.616c7.083.0 12.83-2.189 12.895-4.9.0.016.004.03.004.046v-3.93c0-3.256-5.293-4.418-11.245-4.856V0h-2.974v5.954C11.35 6.341 5.891 7.532 5.891 10.832v3.93c0-.016.003-.031.003-.046C5.959 17.427 11.706 19.616 18.789 19.616zm-8.457-6.718c2.197-.842 5.28-1.326 8.457-1.326 3.178.0 6.261.483 8.458 1.326 1.977.758 2.592 1.564 2.592 1.771.0.208-.615 1.013-2.592 1.771-2.197.843-5.28 1.327-8.458 1.327-3.177.0-6.26-.483-8.457-1.327-1.979-.758-2.592-1.563-2.592-1.771C7.74 14.462 8.354 13.656 10.332 12.898z"/><ellipse cx="18.955" cy="12.777" rx="3.144" ry=".835"/><ellipse cx="18.955" cy="16.416" rx="3.144" ry=".835"/><ellipse cx="14.133" cy="14.718" rx="3.144" ry=".835"/><ellipse cx="23.927" cy="14.717" rx="3.144" ry=".835"/></g></g><g/><g/><g/><g/><g/><g/><g/><g/><g/><g/><g/><g/><g/><g/><g/></svg>