<svg id="Capa_1" xmlns="http://www.w3.org/2000/svg" xmlns:xlink="http://www.w3.org/1999/xlink" width="508.164" height="508.164" viewBox="0 0 508.164 508.164" style="enable-background:new 0 0 508.164 508.164"><g><path d="M168.708 94.282c-4.488 24.276-20.672 44.404-42.5 54.4h27.404c23.46.0 45.152 13.668 55.284 34.816l38.76 94.86c7.48 16.116 5.848 38.012-15.572 48.348-4.964 2.448-10.336 3.604-15.912 3.604-14.144.0-27.812-8.024-33.252-19.448l-19.72-37.808v79.628h113.765v63.036l-92.005 37.399c-6.936 2.856-10.268 10.812-7.412 17.748 2.108 5.305 7.208 8.5 12.58 8.5 1.7.0 3.4-.34 5.1-1.02l81.737-33.252v29.987c0 7.48 6.119 13.601 13.6 13.601s13.6-6.12 13.6-13.601v-30.124l81.805 32.708c7.004 2.788 14.891-.611 17.68-7.548 2.787-7.004-.613-14.892-7.549-17.68l-91.936-36.788v-62.968h149.6c18.768.0 34-15.232 34-34v-224.4H168.708zM435.199 291.482H278.801v-20.4h156.398V291.482zM435.199 230.282H258.4v-20.4h176.799V230.282zM435.199 169.082H231.2v-20.4h203.999V169.082zM508.164 53.21v.544c0 14.872-12.057 26.928-26.928 26.928H170c0-21.44-9.119-40.746-23.623-54.4h334.859C496.107 26.282 508.164 38.338 508.164 53.21zM34 80.682c0-33.803 27.397-61.2 61.2-61.2s61.2 27.397 61.2 61.2-27.397 61.2-61.2 61.2S34 114.485 34 80.682zM226.188 314.473c-12.036 5.813-26.669-.401-31.008-9.493l-45.56-87.489L149.6 453.526c0 14.212-10.397 26.895-24.541 28.233-16.225 1.53-29.859-11.172-29.859-27.077.0 15.905-13.634 28.614-29.859 27.07C51.197 480.414 40.8 467.731 40.8 453.526V311.882c0 11.642-9.69 20.964-21.461 20.372C8.303 331.697.0 321.817.0 310.76v-53.278-47.6c0-26.289 21.312-47.6 47.6-47.6h106.046c18.347.0 35.061 10.54 42.956 27.098l38.577 94.458C239.523 292.937 240.951 307.346 226.188 314.473zM34 80.682c0-33.803 27.397-61.2 61.2-61.2s61.2 27.397 61.2 61.2-27.397 61.2-61.2 61.2S34 114.485 34 80.682zM226.188 314.473c-12.036 5.813-26.669-.401-31.008-9.493l-45.56-87.489L149.6 453.526c0 14.212-10.397 26.895-24.541 28.233-16.225 1.53-29.859-11.172-29.859-27.077.0 15.905-13.634 28.614-29.859 27.07C51.197 480.414 40.8 467.731 40.8 453.526V311.882c0 11.642-9.69 20.964-21.461 20.372C8.303 331.697.0 321.817.0 310.76v-53.278-47.6c0-26.289 21.312-47.6 47.6-47.6h106.046c18.347.0 35.061 10.54 42.956 27.098l38.577 94.458C239.523 292.937 240.951 307.346 226.188 314.473z"/></g><g/><g/><g/><g/><g/><g/><g/><g/><g/><g/><g/><g/><g/><g/><g/></svg>