<svg id="Capa_1" xmlns="http://www.w3.org/2000/svg" xmlns:xlink="http://www.w3.org/1999/xlink" width="420.001" height="420.001" viewBox="0 0 420.001 420.001" style="enable-background:new 0 0 420.001 420.001"><g><g><path d="M378.521 41.481c-55.31-55.308-145.294-55.308-200.597-.002-48.738 48.741-54.51 124.425-17.34 179.556L7.951 373.672c-10.604 10.603-10.596 27.786.0 38.381 10.592 10.594 27.777 10.601 38.379.0l152.637-152.638c55.13 37.167 130.81 31.398 179.551-17.343C433.824 186.766 433.828 96.789 378.521 41.481zM355.855 209.585c-3.015-8.054-5.388-13.708-5.388-13.708-1.711-4.091-5.84-6.344-9.758-8.324l-26.562-12.229-12.763-10.762-20.506 20.396 8.857 59.206c-6.689.745-13.437.838-20.14.28l8.896-59.486-20.504-20.396-12.762 10.762-26.564 12.23c-3.959 1.745-7.648 3.698-9.756 8.324.0.0-2.834 6.75-6.242 16.012-37.496-40.373-36.613-103.721 2.666-143C245.524 28.698 310.923 28.7 351.108 68.89 389.645 107.424 391.227 169.14 355.855 209.585z"/><path d="M278.939 162.501c26.26.0 45.854-24.467 46.299-65.494.283-28.467-13.277-45.506-46.299-45.506-33.023.0-46.587 17.039-46.302 45.506C233.086 138.034 252.679 162.501 278.939 162.501z"/></g></g><g/><g/><g/><g/><g/><g/><g/><g/><g/><g/><g/><g/><g/><g/><g/></svg>