<svg id="Capa_1" xmlns="http://www.w3.org/2000/svg" xmlns:xlink="http://www.w3.org/1999/xlink" width="422.93" height="422.93" viewBox="0 0 422.93 422.93" style="enable-background:new 0 0 422.93 422.93"><g><g><path d="M382.93 100.232h-94.965v-.833c0-13.808-11.193-25-25-25h-17.775c-.524-13.343-11.504-24-24.975-24h-17.5c-13.471.0-24.449 10.657-24.975 24h-17.775c-13.807.0-25 11.192-25 25v.833H40c-22.056.0-40 17.944-40 40V332.53c0 22.057 17.944 40 40 40h342.93c22.055.0 40-17.943 40-40V140.232C422.93 118.176 404.984 100.232 382.93 100.232zM211.465 74.714c8.422.0 15.25 6.827 15.25 15.25s-6.828 15.25-15.25 15.25-15.25-6.827-15.25-15.25S203.043 74.714 211.465 74.714zM392.93 332.529c0 5.515-4.486 10-10 10H40c-5.514.0-10-4.485-10-10V140.232c0-5.514 4.486-10 10-10h95.518v.065c0 13.808 11.193 25 25 25h101.895c13.807.0 25-11.192 25-25v-.065h95.518c5.515.0 10 4.486 10 10L392.93 332.529v0z"/><path d="M353.165 184.131H215.099c-5.522.0-10 4.477-10 10s4.478 10 10 10h138.066c5.521.0 10-4.477 10-10S358.688 184.131 353.165 184.131z"/><path d="M353.165 234.132H215.099c-5.522.0-10 4.477-10 10 0 5.522 4.478 10 10 10h138.066c5.521.0 10-4.478 10-10C363.165 238.608 358.688 234.132 353.165 234.132z"/><path d="M353.165 284.132H215.099c-5.522.0-10 4.477-10 10 0 5.522 4.478 10 10 10h138.066c5.521.0 10-4.478 10-10C363.165 288.608 358.688 284.132 353.165 284.132z"/><path d="M154.844 264.318l-17.537-8.074-8.424-7.104-13.059 12.988 6.01 40.172c.021.146-.016.297-.104.418l-6.716 9.189c-.106.146-.276.232-.458.232-.182.0-.352-.086-.459-.232l-6.715-9.189c-.088-.121-.125-.271-.104-.418l6.01-40.174-13.057-12.986-8.424 7.104-17.538 8.074c-2.595 1.063-5.655 3.222-6.441 5.496.0.0-19.063 45.383-8.724 45.383h110.903c10.339.0-8.723-45.383-8.723-45.383C160.156 267.113 157.439 265.384 154.844 264.318z"/><path d="M114.557 248.884c17.937.0 31.32-16.711 31.625-44.734.195-19.447-9.066-31.084-31.625-31.084-22.559.0-31.822 11.637-31.625 31.084C83.236 232.173 96.621 248.884 114.557 248.884z"/></g></g><g/><g/><g/><g/><g/><g/><g/><g/><g/><g/><g/><g/><g/><g/><g/></svg>