<svg id="Capa_1" xmlns="http://www.w3.org/2000/svg" xmlns:xlink="http://www.w3.org/1999/xlink" width="98.248" height="98.247" viewBox="0 0 98.248 98.247" style="enable-background:new 0 0 98.248 98.247"><g><g><path d="M12.619 57.199h.263v7.398h6.543l19.442 7.658-.001-2.1-14.111-5.559h14.111l-.002-2.102H14.983v-5.299h24.362v-4.624c-.46.166-1.696.278-2.204.327-.216.022-.415.033-.612.033-5.24.0-5.739-2.358-6.05-5.481-.024-.235-.04-.461-.06-.691h-17.8c-1.74.0-3.151 1.41-3.151 3.151v4.136C9.468 55.789 10.879 57.199 12.619 57.199z"/><path d="M85.626 46.761H69.214c-.012.129-.014.246-.026.377-.317 3.186-1.573 5.93-6.397 5.45-.437-.044-1.727-.132-2.135-.263l-.011 4.874h22.619v5.299h-22.21L61.053 64.6h12.438l-12.438 4.899-.001 2.099 17.77-6.998h6.543V57.2h.264c1.74.0 3.15-1.41 3.15-3.151v-4.136C88.778 48.171 87.369 46.761 85.626 46.761z"/><path d="M85.889 91.818v-1.146h1.644v-2.1h-1.912L60.3 78.598c-.313.604-.711 1.153-1.184 1.635l21.174 8.341H17.957l22.41-8.827c-.414-.514-.754-1.086-1.006-1.704L12.625 88.573h-1.911v2.101h.593v1.146c-1.088.57-1.839 1.699-1.839 3.013.0 1.885 1.528 3.414 3.414 3.414 1.886.0 3.414-1.529 3.414-3.414.0-1.313-.751-2.44-1.839-3.013v-1.146h68.281v1.146c-1.088.57-1.838 1.699-1.838 3.013.0 1.885 1.527 3.414 3.414 3.414 1.885.0 3.414-1.529 3.414-3.414C87.728 93.518 86.977 92.391 85.889 91.818z"/><path d="M54.426 47.257c-2.366.0-4.286 1.918-4.286 4.286l-.001 24.52c0 2.367 1.92 4.285 4.287 4.285 2.366.0 4.286-1.918 4.286-4.285l.002-24.52C58.714 49.175 56.796 47.257 54.426 47.257z"/><path d="M45.241 47.257c-2.367.0-4.286 1.918-4.286 4.287l.002 24.519c0 2.367 1.92 4.287 4.288 4.285 2.366.0 4.285-1.918 4.285-4.287l-.001-24.518C49.529 49.175 47.608 47.256 45.241 47.257z"/><circle cx="49.789" cy="9.343" r="9.343"/><path d="M35.753 51.426c.119.0.242-.007.366-.019 1.993-.2 3.445-1.979 3.245-3.972-.546-5.472-.146-9.292.862-12.135v12.91c0 .223.021.438.039.653.898-1.9 2.817-3.226 5.054-3.226 1.499.0 2.905.583 3.963 1.64.238.239.441.498.631.767 1.015-1.451 2.692-2.406 4.592-2.406 2.07.0 3.861 1.141 4.832 2.814.002-.081.015-.159.015-.242V35.076c1.067 2.833 1.503 6.625.963 12.03-.2 1.993 1.255 3.771 3.248 3.971.122.012.244.019.364.019 1.841.0 3.418-1.396 3.605-3.268 1.633-16.317-6.24-26.176-15.418-28.36l-2.326 2.344-2.257-2.369c-.008.002-.017.002-.023.004-3.124 1.002-17.704 6.102-15.36 28.713C32.334 50.029 33.911 51.426 35.753 51.426z"/></g></g><g/><g/><g/><g/><g/><g/><g/><g/><g/><g/><g/><g/><g/><g/><g/></svg>