<svg id="Capa_1" xmlns="http://www.w3.org/2000/svg" xmlns:xlink="http://www.w3.org/1999/xlink" width="98.786" height="98.786" viewBox="0 0 98.786 98.786" style="enable-background:new 0 0 98.786 98.786"><g><g><path d="M96.673 12.766c1.164.0 2.113-.947 2.113-2.111h-.722c0 .768-.623 1.393-1.393 1.393h-7.431V9.186h-2.156v2.861H81.69c-.166-.466-.451-.748-.807-.748-.354.0-.643.282-.807.748h-.479c-.767.0-1.392-.625-1.392-1.393h-.72c0 1.164.947 2.111 2.11 2.111h.338c-.006.093-.015.187-.015.285.0.134.009.262.021.384h-1.274c-.893.0-1.614.726-1.614 1.617v7.776c0 .893.723 1.616 1.614 1.616h.479v2.206h.171c-.279 6.772-3.076 9.689-10.258 10.716-1.083.161-2.466.137-3.931.115-2.767-.044-5.906-.094-7.877 1.139-1.679 1.048-2.186 2.602-2.673 4.104-.402 1.232-.781 2.397-1.789 3.306-.545.507-1.159.847-1.824 1.085-12.313-1.354-12.32-1.354-12.32-1.354v.877c-8.062 1.543-12.11-2.202-12.323-2.408-1.068-1.064-2.798-1.075-3.874-.017-1.088 1.065-1.103 2.811-.038 3.896.211.216 4.449 4.422 12.491 4.422 1.166.0 2.418-.095 3.744-.297v1.245c-1.273.19-2.532.296-3.758.296-8.139.0-12.466-4.156-12.933-4.631-.421-.43-.713-.946-.892-1.503-.019-.052-.031-.105-.047-.16-.044-.157-.08-.315-.102-.479-.006-.041-.022-.079-.026-.121-.009-.07.0-.141-.003-.21-.004-.078-.022-.152-.021-.231.0-.046.013-.091.016-.137.006-.125.021-.246.039-.368.019-.131.038-.259.07-.386.019-.07.043-.14.065-.21.186-.591.497-1.137.951-1.582.717-.702 1.663-1.09 2.668-1.09 1.015.0 1.971.396 2.689 1.113.088.084 2.523 2.379 7.505 2.379.122.0.248-.008.372-.012-4.335-1.47-8.893-3.931-8.893-3.931-2.07-1.336-4.631-.414-6.135 1.009.0.0-.502.429-.855 1.003-.336.549-.601 1.235-.601 1.235l-.008.016c-.5 1.445-.512 3.287.34 4.695.0.0.576.85 1.275 1.319.0.0 9.863 6.797 16.078 7.004.755.025 1.485.035 2.203.037v1.236h-5.333L13.641 49.301c.275-.104.519-.295.664-.575.312-.603.078-1.344-.522-1.656l-6.768-3.516c-.603-.313-1.343-.078-1.656.524-.126.244-.144.508-.103.76l-.874-.466c-1.493-.749-3.311-.146-4.06 1.347-.749 1.493-.146 3.31 1.347 4.059L28.668 64.21H8.979c-1.002.0-1.815.813-1.815 1.814v1.008c0 1.002.813 1.814 1.815 1.814h6.38c-.015.133-.024.268-.024.402v15.5c-.625.5-1.033 1.261-1.033 2.123.0 1.506 1.222 2.729 2.729 2.729 1.508.0 2.729-1.223 2.729-2.729.0-.752-.305-1.432-.795-1.924v-3.402h54.833v3.18c-.641.499-1.062 1.271-1.062 2.146.0 1.506 1.221 2.729 2.729 2.729 1.507.0 2.729-1.223 2.729-2.729.0-.734-.294-1.398-.766-1.89V69.249c0-1.928-1.511-3.504-3.411-3.617 1.162-.422 1.999-1.525 1.999-2.833.0-1.616-1.271-2.925-2.865-3.009.691-3.799-.308-10.27-14.334-11.812-2.294-.252-4.312-.475-6.113-.673.253-.17.499-.357.731-.576 1.191-1.072 1.628-2.413 2.05-3.711.458-1.403.891-2.729 2.273-3.595 1.734-1.084 4.727-1.033 7.36-.994 1.505.023 2.925.047 4.081-.124 7.665-1.096 10.74-4.373 11.03-11.655h.148v-2.206h1.046v.974h1.227v-.974h.448c.894.0 1.616-.724 1.616-1.616v-7.776c0-.892-.724-1.617-1.616-1.617h-1.271c.014-.122.021-.25.021-.384.0-.099-.009-.192-.017-.285h5.254l-.01 69.314h-1.291c-2.291.0-4.249 1.43-5.049 3.438-.855.261-1.483 1.048-1.483 1.99.0 1.153.936 2.09 2.088 2.09 1.155.0 2.091-.937 2.091-2.09.0-.556-.22-1.056-.569-1.429.531-1.084 1.636-1.838 2.924-1.838h4.865c1.287.0 2.393.754 2.924 1.838-.352.373-.569.873-.569 1.429.0 1.153.935 2.09 2.089 2.09s2.089-.937 2.089-2.09c0-.942-.627-1.729-1.483-1.99-.799-2.01-2.758-3.438-5.048-3.438H89.24l.004-69.314H96.673zM73.797 69.249v9.877H18.964v-9.877H73.797zM80.665 12.766h.441c.008.091.021.178.021.285.0.142-.011.27-.027.384h-.43c-.016-.114-.027-.242-.027-.384C80.643 12.944 80.657 12.857 80.665 12.766zM82.561 19.242c0 .938-.761 1.7-1.699 1.7-.938.0-1.698-.762-1.698-1.7s1.698-3.598 1.698-3.598S82.561 18.304 82.561 19.242z"/><circle cx="14.335" cy="40.03" r="6.014"/></g></g><g/><g/><g/><g/><g/><g/><g/><g/><g/><g/><g/><g/><g/><g/><g/></svg>