<svg id="Capa_1" xmlns="http://www.w3.org/2000/svg" xmlns:xlink="http://www.w3.org/1999/xlink" width="414.937" height="414.937" viewBox="0 0 414.937 414.937" style="enable-background:new 0 0 414.937 414.937"><g><path d="M159.138 256.452c37.217 36.944 80.295 72.236 97.207 55.195 24.215-24.392 39.12-45.614 92.854-2.761 53.734 42.874 12.696 71.727-10.757 95.363-27.064 27.269-128.432 1.911-228.909-97.804C9.062 206.71-17.07 105.54 10.014 78.258c23.46-23.637 52.006-64.879 95.254-11.458 43.269 53.394 22.161 68.462-2.054 92.861C86.31 176.695 121.915 219.501 159.138 256.452zM213.104 80.203c0 0-11.227-1.754-19.088 6.113-8.092 8.092-8.445 22.032.082 30.552 5.039 5.039 12.145 6.113 12.145 6.113 13.852 2.598 34.728 6.997 56.944 29.206 22.209 22.208 26.608 43.084 29.206 56.943.0.0 1.074 7.106 6.113 12.145 8.521 8.521 22.46 8.174 30.552.082 7.861-7.86 6.113-19.087 6.113-19.087-4.399-28.057-17.999-57.365-41.351-80.716C270.462 98.203 241.153 84.609 213.104 80.203zM318.415 96.958c40.719 40.719 58.079 86.932 52.428 124.379.0.0-1.972 11.859 5.773 19.604 8.718 8.718 22.535 8.215 30.695.062 5.243-5.243 6.385-13.777 6.385-13.777 4.672-32.361-1.203-97.464-64.647-160.901C285.605 2.887 220.509-2.988 188.147 1.677c0 0-8.527 1.136-13.777 6.385-8.16 8.16-8.656 21.978.061 30.695 7.746 7.746 19.604 5.773 19.604 5.773C231.484 38.879 277.696 56.24 318.415 96.958z"/></g><g/><g/><g/><g/><g/><g/><g/><g/><g/><g/><g/><g/><g/><g/><g/></svg>