<svg id="Capa_1" xmlns="http://www.w3.org/2000/svg" xmlns:xlink="http://www.w3.org/1999/xlink" viewBox="0 0 476.281 476.281" style="enable-background:new 0 0 476.281 476.281"><g><path d="M249.581 429.674l-38.652 13.084c-8.449 2.858-17.626-1.67-20.484-10.117l-2.066-6.089 5.015-1.692v-.008l30.624-10.351c10.747-3.634 9.193-36.928-3.464-74.362-5.388-15.972-24.085-61.086-40.485-61.521-.62-.016-1.242.07-1.816.272l-.094.03c-.014.0-.014.016-.014.016l-19.6 6.623c-6.071 2.058-12.656-1.204-14.706-7.275l-32.052-94.761c-2.05-6.072 1.212-12.657 7.283-14.714l19.614-6.631h.016v-.006c.016.0.016.0.016.0 10.745-3.673 9.177-36.945-3.479-74.371-5.435-16.112-26.633-66.566-42.379-61.209.0.0.0.008-.016.008L42.155 43.736v.008l-33.9 11.461c-18.714 6.32-4.535 98.286 31.679 205.416 36.216 107.114 80.754 188.814 99.466 182.487l18.854-6.367 1.972 5.839c5.575 16.522 19.722 28.775 36.868 31.913 1.258.232 2.516.412 3.758.544 6.987.76 13.93-.016 20.592-2.268l38.342-12.975c8.325-2.811 12.782-11.819 9.987-20.134-2.811-8.317-11.818-12.797-20.142-10.001L249.581 429.674zM120.174 92.895c5.979 17.712 8.697 32.386 9.537 42.643-5.575-8.657-12.331-21.966-18.31-39.677-5.995-17.71-8.713-32.386-9.535-42.643C107.425 61.866 114.18 75.175 120.174 92.895zM205.494 345.233c5.993 17.71 8.697 32.394 9.519 42.651-5.559-8.657-12.315-21.966-18.31-39.685-5.993-17.72-8.695-32.41-9.519-42.667C192.743 314.189 199.499 327.498 205.494 345.233z"/><path d="M327.664.961c-82.073.0-148.617 50.066-148.617 111.803.0 37.869 25.095 71.288 63.375 91.507-5.062 13.704-13.339 31.44-25.451 43.987-2.827 2.928-3.572 7.283-1.895 10.987 1.678 3.705 5.451 6.011 9.521 5.809 29.087-1.422 70.176-9.637 101.717-40.533.452.008.886.056 1.352.056 82.073.0 148.617-50.06 148.617-111.813C476.281 51.028 409.736.961 327.664.961zM321.747 167.972c-8.695.0-15.746-7.051-15.746-15.738.0-20.787 31.478-20.833 31.478.0C337.479 160.921 330.427 167.972 321.747 167.972zM343.208 103.3c-7.795 8.673-9.487 15.35-9.487 24.109-7.875-3.82-16.602-3.93-24.925.52-.388-11.615.822-20.002 10.917-32.091 5.963-7.097 10.825-13.068 10.825-19.412.0-6.531-4.302-10.825-13.636-11.197-2.81.0-5.885.466-8.867 1.296-5.605 1.554-11.445-1.622-13.184-7.183-1.692-5.442 1.274-11.235 6.677-13.045 6.057-2.026 13.496-3.462 21.727-3.462 24.629.0 35.826 13.619 35.826 29.109C359.08 86.132 350.305 95.465 343.208 103.3z"/></g><g/><g/><g/><g/><g/><g/><g/><g/><g/><g/><g/><g/><g/><g/><g/></svg>