<svg id="Capa_1" xmlns="http://www.w3.org/2000/svg" xmlns:xlink="http://www.w3.org/1999/xlink" width="31.758" height="31.758" viewBox="0 0 31.758 31.758" style="enable-background:new 0 0 31.758 31.758"><g><g><path d="M29.51 5.015V4.991 3.922c0-.675-.547-1.222-1.223-1.222h-3.921c-.675.0-1.224.547-1.224 1.222v1.069.024H2.226C.997 5.015.0 6.011.0 7.241v18.868c0 1.629 1.321 2.949 2.95 2.949h25.858c1.629.0 2.949-1.32 2.949-2.949V7.265C31.76 6.023 30.751 5.015 29.51 5.015zM15.899 27.161c-5.602.0-10.157-4.544-10.157-10.13.0-5.583 4.556-10.125 10.157-10.125 5.601.0 10.157 4.542 10.157 10.125C26.057 22.617 21.5 27.161 15.899 27.161z"/><path d="M15.899 10.717c-.218.0-.433.011-.646.032.518.511.838 1.219.838 2.003.0 1.554-1.259 2.812-2.812 2.812-1.266.0-2.337-.837-2.69-1.988-.655.993-1.037 2.18-1.037 3.456.0 3.482 2.847 6.316 6.346 6.316 3.5.0 6.346-2.834 6.346-6.316C22.245 13.55 19.399 10.717 15.899 10.717z"/></g></g><g/><g/><g/><g/><g/><g/><g/><g/><g/><g/><g/><g/><g/><g/><g/></svg>