<svg id="Capa_1" xmlns="http://www.w3.org/2000/svg" xmlns:xlink="http://www.w3.org/1999/xlink" width="49" height="49" viewBox="0 0 49 49" style="enable-background:new 0 0 49 49"><g><path d="M24.946 18.602c-4.926.0-8.936 4.009-8.936 8.936.0 4.928 4.009 8.937 8.936 8.937 4.926.0 8.936-4.009 8.936-8.937C33.882 22.607 29.874 18.602 24.946 18.602zM26.02 22.086c-3.504.0-6.345 2.841-6.345 6.345.0 1.712.685 3.259 1.789 4.4-1.721-1.133-2.861-3.08-2.861-5.295.0-3.505 2.841-6.345 6.345-6.345 1.788.0 3.399.748 4.556 1.941C28.502 22.475 27.307 22.086 26.02 22.086zM6.451 36.92H0V15.475h6.451V36.92zM46.141 9.574H33.257V9.041c0-1.578-1.282-2.859-2.858-2.859H18.603c-1.578.0-2.859 1.281-2.859 2.859v.533h-2.961c-.32-1.229-1.428-2.142-2.758-2.142H5.736c-1.33.0-2.438.913-2.758 2.142H2.859C1.281 9.574.0 10.854.0 12.433v.896h7.523c.592.0 1.072.48 1.072 1.072v23.592c0 .592-.48 1.071-1.072 1.071H0v.896c0 1.578 1.281 2.859 2.859 2.859h2.877 4.289 8.578 11.795H46.14c1.58.0 2.859-1.281 2.859-2.859V12.434C49 10.854 47.721 9.574 46.141 9.574zM24.946 39.33c-6.503.0-11.795-5.291-11.795-11.795.0-6.502 5.292-11.795 11.795-11.795 6.504.0 11.795 5.292 11.795 11.795C36.741 34.039 31.45 39.33 24.946 39.33z"/></g><g/><g/><g/><g/><g/><g/><g/><g/><g/><g/><g/><g/><g/><g/><g/></svg>