<svg id="Capa_1" xmlns="http://www.w3.org/2000/svg" xmlns:xlink="http://www.w3.org/1999/xlink" width="31.633" height="31.633" viewBox="0 0 31.633 31.633" style="enable-background:new 0 0 31.633 31.633"><g><g><path d="M8.201 18.251H5.318V16.628H7.84V15.276H5.318V13.834H8.021V12.572H3.784V19.513H8.201z"/><path d="M8.742 17.349h3.335v.992H8.742z"/><path d="M8.742 15.187h3.335v.99H8.742z"/><path d="M13.069 19.423h1.53V16.46c0-.123.017-.266.067-.391.093-.256.338-.564.738-.564.493.0.728.432.728 1.068v2.848h1.532v-2.973c0-.123.008-.289.048-.398.103-.297.373-.545.731-.545.505.0.752.421.752 1.149v2.768h1.443v-2.994c0-1.498-.711-2.174-1.677-2.174-.368.0-.667.078-.942.242-.235.144-.453.33-.64.6h-.021c-.217-.541-.729-.865-1.375-.865-.861.0-1.303.504-1.519.775h-.03l-.069-.631h-1.314c.02.451.017.968.017 1.594V19.423H13.069z"/><path d="M23.964 19.489c.595.0 1.118-.104 1.396-.229l-.185-1.146c-.235.092-.522.15-.896.15-.76.0-1.373-.48-1.373-1.404-.014-.82.523-1.406 1.345-1.406.409.0.688.072.873.154l.245-1.159c-.329-.123-.78-.195-1.191-.195-1.867.0-2.873 1.2-2.873 2.668C21.305 18.505 22.342 19.489 23.964 19.489z"/><path d="M27.938 12.932h-1.354V12.88l.328-.279c.523-.468.962-.953.962-1.561.0-.658-.453-1.137-1.272-1.137-.49.0-.914.167-1.188.373l.236.608c.19-.145.465-.301.774-.301.421.0.597.234.597.53-.01.424-.418.83-1.211 1.538l-.488.424v.488h2.613v-.631H27.938z"/><path d="M30.604 1.938H1.082C.505 1.938.0 2.36.0 2.938v25.711c0 .578.505 1.045 1.082 1.045h29.521c.578.0 1.029-.467 1.029-1.045V2.938C31.634 2.36 31.182 1.938 30.604 1.938zM29.562 27.624H20.91v-1.623h-6.218v1.623h-2.073v-2.705H3.155v2.705H2.163V4.01H29.56v23.614H29.562z"/></g></g><g/><g/><g/><g/><g/><g/><g/><g/><g/><g/><g/><g/><g/><g/><g/></svg>