<svg id="Capa_1" xmlns="http://www.w3.org/2000/svg" xmlns:xlink="http://www.w3.org/1999/xlink" width="31.923" height="31.923" viewBox="0 0 31.923 31.923" style="enable-background:new 0 0 31.923 31.923"><g><path d="M30.841 4.939H1.082C.472 4.939.0 5.387.0 5.997v19.838c0 .609.472 1.148 1.082 1.148h29.76c.608.0 1.081-.537 1.081-1.148V5.997C31.922 5.387 31.45 4.939 30.841 4.939zM6.447 18.113c.682.0 1.235-.554 1.235-1.236V7.135H8.78v9.741c0 .682.553 1.236 1.235 1.236h.412v6.584h-4.39v-6.584H6.447zm5.078.0h.411c.683.0 1.236-.554 1.236-1.236V7.131h2.195v17.567h-3.842V18.113zM16.557 7.135h2.196v9.741c0 .682.554 1.236 1.235 1.236h.41v6.584h-3.842V7.135H16.557zM21.495 18.113h.409c.683.0 1.236-.554 1.236-1.236V7.135h1.098v9.741c0 .682.554 1.236 1.236 1.236h.407v6.584h-4.39L21.495 18.113v0zM2.195 8.022c0-.49.397-.887.887-.887h.21v9.741c0 .684.553 1.236 1.235 1.236h.411v6.584H3.083c-.49.0-.887-.396-.887-.888L2.195 8.022v0zM29.727 23.809c0 .49-.396.888-.887.888h-1.857v-6.584h.412c.685.0 1.235-.554 1.235-1.236V7.135h.21c.49.0.887.397.887.887V23.809v0z"/></g><g/><g/><g/><g/><g/><g/><g/><g/><g/><g/><g/><g/><g/><g/><g/></svg>