<svg id="Capa_1" xmlns="http://www.w3.org/2000/svg" xmlns:xlink="http://www.w3.org/1999/xlink" width="401.079" height="401.08" viewBox="0 0 401.079 401.08" style="enable-background:new 0 0 401.079 401.08"><g><path d="M367.025 200.538c3.822.0 6.984 3.162 6.848 6.984-3.678 99.994-85.984 180.017-186.87 180.017-110.684.0-198.879-96.193-185.694-209.427C11.386 91.541 82.038 22.589 168.806 14.402c41.344-3.903 80.125 5.651 112.696 24.807 3.291 1.938 4.244 6.29 2.189 9.506l-83.374 130.921c-5.767 9.051.734 20.903 11.471 20.903H367.025zM310.893 35.128l-90.033 141.358c-2.883 4.529.367 10.452 5.732 10.452h167.662c3.814.0 6.963-3.142 6.82-6.957-2.23-60.928-33.641-114.383-80.627-146.88C317.305 30.933 312.945 31.905 310.893 35.128z"/></g><g/><g/><g/><g/><g/><g/><g/><g/><g/><g/><g/><g/><g/><g/><g/></svg>