<svg id="Capa_1" xmlns="http://www.w3.org/2000/svg" xmlns:xlink="http://www.w3.org/1999/xlink" width="123.377" height="123.377" viewBox="0 0 123.377 123.377" style="enable-background:new 0 0 123.377 123.377"><g><g><path d="M39.102 33.542c1.943.0 3.522-1.58 3.522-3.522s-1.579-3.522-3.522-3.522c-1.942.0-3.522 1.58-3.522 3.522S37.16 33.542 39.102 33.542z"/><path d="M17.067 45.735c.55 2.73 3.161 4.869 5.946 4.869h.989c2.098 4.948 5.617 9.44 10.281 13.113v17.984l3.964.002c7.117.0 15.976.0 15.976-8.699v-.57c6.931 1.238 14.105 1.008 20.89-.671V73c0 8.703 8.859 8.703 15.979 8.703l3.965-.002V60.972c6.082-6.002 9.42-13.529 9.42-21.297.0-3.74-.761-7.366-2.248-10.862 1.596-.696 3.809-.882 4.877-.525.424.14.812.328 1.162.561-1.4 1.051-2.412 2.463-2.658 3.781-.17.92-.217 3.177 3.066 4.225.413.132.809.199 1.174.199 1.187.0 2.098-.668 2.494-1.888.521-1.597.016-4.085-1.461-5.995.74-.286 1.528-.436 2.299-.391 1.571.093 2.584 1.17 3.01 2.145.474 1.097.356 2.244-.321 3.063-.274.333-.229.827.106 1.102.328.277.826.229 1.101-.105 1.046-1.269 1.257-3.062.551-4.687-.782-1.784-2.444-2.968-4.351-3.08-1.231-.088-2.469.222-3.566.75-.605-.493-1.316-.902-2.115-1.164-1.394-.462-3.99-.287-6.002.597-.574-1.176-1.226-2.338-1.972-3.482l-.968-1.364c-4.043-5.517-10.004-9.973-17.289-12.909-.381-.142-9.402-3.481-18.581-3.481-.777.0-1.547.025-2.282.073-6.289.414-8.55.915-11.853 1.982C45.104 5.034 38.12 2.776 33.381 2.776c-2.566.0-4.445.632-5.586 1.88-.838.916-1.219 2.091-1.102 3.402.292 3.282 1.921 4.987 3.11 6.231 1.154 1.207 1.789 1.872 1.578 3.874-3.508 3.403-6.168 7.379-7.781 11.626l-3.766-.554c-1.732-.256-3.197.306-4.156 1.475-.837 1.02-1.141 2.368-.855 3.8L17.067 45.735zm92.475-15.613c3.373 5.719.0 5.217.0 5.217C104.182 34.357 109.542 30.122 109.542 30.122zM26.706 34.785l.563-1.851c1.339-4.413 4.02-8.574 7.751-12.034l.556-.516.13-.748c.83-4.801-1.184-6.91-2.654-8.45-.993-1.039-2.295-2.827-1.881-3.548.201-.349 1.096-.374 2.211-.374 4.4.0 11.006 2.52 12.848 4.904l.976 1.261 1.512-.505c3.616-1.208 5.268-1.759 12.079-2.208.64-.042 1.309-.063 1.988-.063 8.347.0 16.923 3.165 16.953 3.176 6.457 2.602 11.746 6.537 15.275 11.351l.896 1.263c2.707 4.147 4.078 8.599 4.078 13.231.0 6.81-3.094 13.451-8.711 18.702l-.711.665v18.172c-8.795-.031-10.963-.892-10.963-4.211v-7.254l-2.916.914c-7.771 2.435-16.218 2.721-24.189.83l-2.763-.656v6.168c0 3.318-2.168 4.178-10.961 4.209V61.478l-.907-.673c-4.879-3.62-8.413-8.187-10.221-13.207l-.535-1.484h-4.097c-.651.0-1.415-.626-1.543-1.262l-2.233-11.167L26.706 34.785z"/><path d="M56.646 24.017c.637-.269 15.723-6.476 25.93 4.519.531.571 1.251.86 1.975.86.656.0 1.314-.238 1.833-.72 1.091-1.012 1.153-2.716.142-3.807-12.817-13.803-31.219-6.138-31.995-5.806-1.365.585-1.997 2.164-1.415 3.53C53.696 23.96 55.278 24.596 56.646 24.017z"/><path d="M120.055 89.106h.857 2.464v-5.2h-3.321H70.791h-60.39C4.666 83.906.0 88.573.0 94.308v15.891c0 5.735 4.666 10.402 10.401 10.402h60.39 49.266 3.32v-5.2h-2.494-.826c-2.869.0-5.203-2.333-5.203-5.202V94.308C114.852 91.439 117.186 89.106 120.055 89.106zM11.23 115.401h-.829c-2.867.0-5.201-2.333-5.201-5.202V94.308c0-2.869 2.334-5.202 5.201-5.202h.859c-.905 1.541-1.434 3.328-1.434 5.24v15.867C9.827 112.103 10.343 113.872 11.23 115.401zm39.946.0H20.128c-2.823-.045-5.107-2.354-5.107-5.188V94.346c0-2.436 1.834-5.24 4.446-5.24 2.094.0 31.74.0 31.74.0-.906 1.541-1.435 3.328-1.435 5.24v15.867C49.773 112.103 50.29 113.872 51.176 115.401zm10.607.0h-1.708c-2.823-.045-5.11-2.354-5.11-5.188V94.346c0-2.436 1.396-5.24 3.951-5.24h2.867c-.887 1.531-1.396 3.309-1.396 5.202v15.891C60.387 112.093 60.896 113.87 61.783 115.401zM109.652 98.353v7.368H82.781v4.334h26.871v.144c0 1.896.519 3.669 1.406 5.202H70.791c-2.869.0-5.203-2.333-5.203-5.202v-5.077V99.92v-5.612c0-2.869 2.334-5.202 5.203-5.202h40.27c-.845 1.453-1.338 3.127-1.388 4.913H82.782v4.334H109.652z"/><path d="M17.842 98.499H47.53v7.15H17.842z"/></g></g><g/><g/><g/><g/><g/><g/><g/><g/><g/><g/><g/><g/><g/><g/><g/></svg>