<svg id="Capa_1" xmlns="http://www.w3.org/2000/svg" xmlns:xlink="http://www.w3.org/1999/xlink" viewBox="0 0 393.817 393.817" style="enable-background:new 0 0 393.817 393.817"><g><path d="M378.91 186.167h-29.634c-1.893-6.073-4.19-12.052-6.866-17.86v-62.64c0-5.247-4.253-9.5-9.5-9.5h-7.4c-12.195.0-23.768 4.716-32.436 12.944-3.352-2.359-6.811-4.561-10.341-6.631 2.422-7.621 3.693-15.676 3.693-23.951.0-43.301-35.224-78.53-78.52-78.53s-78.521 35.229-78.521 78.53c0 8.272 1.271 16.324 3.691 23.943-38.146 22.319-63.894 59.939-71.117 102.878h-5.553v-7.972c0-5.247-4.253-9.5-9.5-9.5s-9.5 4.253-9.5 9.5v7.972h-6.5c-14.061.0-25.5 11.439-25.5 25.5s11.439 25.5 25.5 25.5 25.5-11.439 25.5-25.5v-6.5h3.595c-.075 1.942-.123 3.89-.123 5.847.0 31.147 9.509 60.81 27.53 85.994v42.836c0 19.183 15.606 34.79 34.79 34.79h9.42c9.289.0 18.024-3.62 24.59-10.185 3.481-3.474 6.135-7.557 7.861-12.01 14.134 4.386 28.833 6.604 43.839 6.604 9.45.0 18.916-.898 28.146-2.673 5.306-1.027 10.559-2.346 15.709-3.942 5.054 12.982 17.688 22.206 32.436 22.206h9.42c19.184.0 34.79-15.607 34.79-34.79v-42.838c7.743-10.831 13.948-22.573 18.512-35.022h31.988c5.247.0 9.5-4.253 9.5-9.5v-76C388.41 190.421 384.157 186.167 378.91 186.167zM37.407 230.851c0 3.584-2.916 6.5-6.5 6.5s-6.5-2.916-6.5-6.5 2.916-6.5 6.5-6.5h6.5v6.5zM207.907 19c32.819.0 59.52 26.705 59.52 59.53.0 16.948-7.022 32.676-19.403 43.942-3.219-.867-6.467-1.629-9.739-2.287 12.844-9.392 21.208-24.563 21.208-41.657.0-28.444-23.142-51.586-51.586-51.586-28.445.0-51.587 23.142-51.587 51.586.0 17.094 8.365 32.265 21.209 41.657-3.272.657-6.52 1.419-9.738 2.287-12.382-11.267-19.404-26.995-19.404-43.942C148.387 45.705 175.088 19 207.907 19zm0 92.115c-17.969.0-32.587-14.618-32.587-32.586.0-17.968 14.618-32.586 32.587-32.586 17.968.0 32.586 14.618 32.586 32.586C240.493 96.497 225.875 111.115 207.907 111.115zM369.41 262.167h-29.29c-4.151.0-7.822 2.696-9.064 6.657-4.358 13.895-11.004 26.873-19.754 38.574-1.228 1.642-1.892 3.638-1.892 5.689v45.94c0 8.707-7.083 15.79-15.79 15.79h-9.42c-8.707.0-15.79-7.083-15.79-15.79.0-3.147-1.559-6.091-4.163-7.859-2.604-1.769-5.913-2.133-8.84-.972-7.375 2.926-15.101 5.181-22.951 6.701-8.038 1.545-16.296 2.329-24.546 2.329-16.411.0-32.392-3.038-47.497-9.03-2.927-1.161-6.237-.797-8.84.972-2.604 1.768-4.163 4.711-4.163 7.859.0 4.221-1.641 8.182-4.628 11.163-2.984 2.984-6.948 4.627-11.162 4.627h-9.42c-8.707.0-15.79-7.083-15.79-15.79v-45.94c0-2.052-.664-4.048-1.894-5.691-16.771-22.418-25.637-49.113-25.637-77.199.0-45.575 23.599-87.056 62.176-110.381 2.056 3.318 4.37 6.488 6.925 9.487-5.912 2.5-11.676 5.364-17.244 8.603-4.535 2.639-6.072 8.454-3.434 12.989s8.453 6.072 12.988 3.434c20.429-11.885 43.81-18.167 67.616-18.167 23.806.0 47.187 6.282 67.616 18.167 1.503.875 3.146 1.29 4.769 1.29 3.271.0 6.456-1.692 8.221-4.724 2.638-4.535 1.101-10.351-3.435-12.989-5.569-3.24-11.333-6.103-17.245-8.603 2.554-2.997 4.865-6.164 6.92-9.479 4.788 2.903 9.401 6.121 13.777 9.627 2.063 1.652 4.722 2.374 7.334 1.982 2.614-.388 4.948-1.847 6.442-4.027 4.854-7.083 12.63-11.528 21.104-12.162v55.182c0 1.42.318 2.822.932 4.103 3.619 7.56 6.498 15.465 8.557 23.496 1.076 4.203 4.863 7.142 9.202 7.142h27.31V262.167z"/><circle cx="300.907" cy="205.668" r="11.858"/></g><g/><g/><g/><g/><g/><g/><g/><g/><g/><g/><g/><g/><g/><g/><g/></svg>