<svg id="Capa_1" xmlns="http://www.w3.org/2000/svg" xmlns:xlink="http://www.w3.org/1999/xlink" width="31.789" height="31.789" viewBox="0 0 31.789 31.789" style="enable-background:new 0 0 31.789 31.789"><g><path d="M18.896 19.365h5.959c-.061-2.719-1.271-5.101-3.242-6.705V4.145h.019.866c.677.0 1.224-.547 1.224-1.222V1.222C23.722.547 23.175.0 22.498.0H9.736C8.829.0 8.093.735 8.093 1.643v1.28c0 .675.547 1.222 1.222 1.222h.816v8.509c-1.902 1.605-3.138 3.993-3.197 6.711h5.915V19.35l1.069 10.66c.089.918.823 1.676 1.774 1.77 1.086.107 2.046-.686 2.152-1.77l1.051-10.66L18.896 19.365v0zM12.467 16.102c0 .752-.611 1.356-1.363 1.356-.753.0-1.38-.612-1.38-1.364.0-.389.203-.74.407-.988.273-.233.592-.366.956-.366.582.0 1.095.345 1.289.888C12.435 15.762 12.467 15.93 12.467 16.102zM13.421 13.264c-.003.004-.006.007-.009.011-.042.004-.09.001-.134.001-.722.0-1.312-.59-1.312-1.312V5.837c0-.723.602-1.308 1.324-1.308.723.0 1.324.586 1.324 1.308v6.126c0 .186-.052.363-.122.525-.006.001-.011.004-.016.006C14.291 12.912 13.895 13.215 13.421 13.264z"/></g><g/><g/><g/><g/><g/><g/><g/><g/><g/><g/><g/><g/><g/><g/><g/></svg>