<svg id="Capa_1" xmlns="http://www.w3.org/2000/svg" xmlns:xlink="http://www.w3.org/1999/xlink" width="49.001" height="49" viewBox="0 0 49.001 49" style="enable-background:new 0 0 49.001 49"><g><path d="M35.962 27.332l.304-.305-2.748-3.97c-5.42 5.079-11.416 10.086-16.231 13.514l3.658 9.812L18.325 49l-4.678-10.012c-2.748 1.662-4.728 2.406-5.382 1.747-.659-.656.086-2.639 1.747-5.383L0 30.673l2.618-2.618 9.809 3.66c3.427-4.819 8.435-10.815 13.514-16.232l-3.971-2.75-.303.303c-.529.529-1.82.096-2.884-.97-.801-.8-1.245-1.73-1.19-2.366L9.269 3.934l7.154-2.617 6.944 2.315 2.105-2.107c.526-.529 1.819-.094 2.879.972 1.066 1.063 1.502 2.354.973 2.883l-.182.18 5.11 1.705c8.006-7.183 12.173-8.313 13.985-6.5 1.811 1.81.681 5.978-6.502 13.984l1.705 5.112.183-.181c.528-.529 1.817-.095 2.883.97 1.062 1.063 1.498 2.354.972 2.883L45.37 25.64l2.315 6.94-2.617 7.155-5.768-8.324c-.636.056-1.562-.387-2.367-1.188C35.868 29.15 35.434 27.86 35.962 27.332z"/></g><g/><g/><g/><g/><g/><g/><g/><g/><g/><g/><g/><g/><g/><g/><g/></svg>