<svg id="Capa_1" xmlns="http://www.w3.org/2000/svg" xmlns:xlink="http://www.w3.org/1999/xlink" width="49" height="49" viewBox="0 0 49 49" style="enable-background:new 0 0 49 49"><g><path d="M45.194 20.694C45.194 9.264 35.93.0 24.5.0S3.806 9.264 3.806 20.694c0 8.621 5.272 16.005 12.764 19.115-1.882 2.244-3.762 4.486-5.645 6.73-.429.5-.458 1.602.243 2.145.7.551 1.757.252 2.139-.289 1.878-2.592 3.753-5.188 5.63-7.783 1.774.494 3.633.777 5.561.777 1.85.0 3.64-.266 5.349-.723 1.617 2.562 3.238 5.121 4.861 7.684.34.556 1.365.91 2.088.414.729-.492.76-1.58.369-2.096-1.664-2.252-3.332-4.508-4.996-6.76C39.8 36.854 45.194 29.41 45.194 20.694zM24.5 37.324c-1.018.0-2.01-.105-2.977-.281 1.07-1.48 2.146-2.965 3.215-4.447.939 1.48 1.874 2.959 2.811 4.437C26.558 37.217 25.541 37.324 24.5 37.324zM29.655 36.5c-1.305-1.764-2.608-3.527-3.909-5.295.724-1 1.445-1.998 2.17-3 1.644.746 3.646.0 4.826-1.787 1.239-1.872.006.0.006.002.01-.014 5.821-8.824 5.629-8.97-.186-.15-3.803 4.771-6.387 8.081l-.548-.43c2.362-3.481 5.94-8.427 5.757-8.576-.189-.146-3.959 4.655-6.652 7.878l-.545-.428c2.463-3.398 6.203-8.228 6.015-8.374-.188-.15-4.115 4.528-6.917 7.67l-.547-.43c2.574-3.314 6.463-8.02 6.277-8.169-.19-.15-5.808 6.021-7.318 7.651-1.325 1.424-1.664 3.68-.562 5.119-.703.841-1.41 1.679-2.113 2.519-.78-1.057-1.562-2.11-2.342-3.17 1.975-1.888 1.984-5.234-.054-7.626-2.14-2.565-6.331-5.22-8.51-3.818-2.093 1.526-1.14 6.396.479 9.316 1.498 2.764 4.617 3.965 7.094 2.805.778 1.227 1.554 2.455 2.333 3.684-1.492 1.783-2.984 3.562-4.478 5.343C12.697 34.326 7.88 28.074 7.88 20.691c0-9.183 7.444-16.631 16.632-16.631 9.188.0 16.625 7.447 16.625 16.631C41.13 28.076 36.316 34.328 29.655 36.5z"/></g><g/><g/><g/><g/><g/><g/><g/><g/><g/><g/><g/><g/><g/><g/><g/></svg>