<svg id="Capa_1" xmlns="http://www.w3.org/2000/svg" xmlns:xlink="http://www.w3.org/1999/xlink" width="31.87" height="31.87" viewBox="0 0 31.87 31.87" style="enable-background:new 0 0 31.87 31.87"
	><g><g><path d="M25.407.535c.004-.196-.103-.377-.272-.471C24.962-.03 24.752-.02 24.59.089c-1.031.695-2.909 2.034-4.928 3.825l.336 4.23-1.981-2.689c-1.892 1.873-3.74 4.093-4.979 6.504l.24 3.016-.987-1.338c-.988 2.639-1.148 5.456.188 8.269l-.971 1.771-.017.019h-1.54c-.544.0-.972.463-.972 1.007v1.438h.25l-2.31 4.024c-.261.0-.456.209-.456.47v.806c0 .25.171.43.421.43h9.227c.25.0.482-.18.482-.43v-.823c0-.25-.218-.45-.467-.45l-2.456-4.025h.337v-1.438c0-.544-.418-1.007-.962-1.007h-.016V23.69l.616-1.153c1.57-.204 2.925-.733 4.104-1.503l-1.939-.622 3.83-.956c1.324-1.381 2.344-3.107 3.132-4.961l-2.401-.15 3.088-1.66C25.081 7.858 25.364 2.653 25.407.535zM10.706 26.962l-1.55 2.913c-.101.19-.295.298-.496.298-.089.0-.18-.021-.264-.063-.273-.146-.377-.486-.232-.763l1.55-2.914c.146-.271.486-.377.76-.229C10.748 26.35 10.852 26.688 10.706 26.962zM10.402 25.582c-.319.0-.578-.258-.578-.577.0-.32.259-.578.578-.578.32.0.579.258.579.578C10.981 25.324 10.722 25.582 10.402 25.582z"/></g></g><g/><g/><g/><g/><g/><g/><g/><g/><g/><g/><g/><g/><g/><g/><g/></svg>