<svg id="Capa_1" xmlns="http://www.w3.org/2000/svg" xmlns:xlink="http://www.w3.org/1999/xlink" width="426.265" height="426.265" viewBox="0 0 426.265 426.265" style="enable-background:new 0 0 426.265 426.265"><g><path d="M232.477.0C152.318.0 85.875 58.637 73.656 135.354L35.154 203.3c-6.398 11.288 1.754 25.282 14.729 25.282h25.976v84.449c0 23.848 22.297 41.426 45.485 35.856l29.131-4.025v54.202c0 15.021 12.179 27.2 27.2 27.2h88.4c15.021.0 27.2-12.179 27.2-27.2v-89.283c58.691-23.984 100.062-81.614 100.062-148.927C393.331 72.012 321.312.0 232.477.0zM290.889 144.935l-87.693 92.195c-4.57 4.808-12.614.891-11.655-5.672l9.234-63.124h-40.093c-5.978.0-9.044-7.153-4.93-11.485l87.7-92.194c4.569-4.808 12.614-.891 11.655 5.671l-9.234 63.125h40.093C291.937 133.45 295.01 140.604 290.889 144.935z"/></g><g/><g/><g/><g/><g/><g/><g/><g/><g/><g/><g/><g/><g/><g/><g/></svg>