<svg id="Capa_1" xmlns="http://www.w3.org/2000/svg" xmlns:xlink="http://www.w3.org/1999/xlink" width="97.084" height="97.083" viewBox="0 0 97.084 97.083" style="enable-background:new 0 0 97.084 97.083"><g><g><path d="M51.471 49.091c1.76.0 3.696-.19 5.801-.652 1.566-.342 2.558-1.891 2.215-3.456-.342-1.565-1.889-2.556-3.455-2.215-8.914 1.949-13.371-2.202-13.6-2.424-1.125-1.123-2.947-1.134-4.083-.018-1.145 1.122-1.162 2.961-.04 4.105C38.532 44.659 42.997 49.091 51.471 49.091z"/><circle cx="30.339" cy="35.638" r="6.337"/><path d="M96.276 83.284V66.707c0-2.031-1.593-3.691-3.595-3.812 1.227-.443 2.106-1.607 2.106-2.985.0-1.76-1.426-3.187-3.187-3.187H49.796L19.309 40.494c-1.573-.789-3.488-.153-4.276 1.419-.79 1.572-.154 3.487 1.418 4.276l28.448 15.207H24.153c-1.055.0-1.911.855-1.911 1.911v1.063c0 1.055.856 1.91 1.911 1.91h6.724c-.015.141-.025.282-.025.426v16.332c-.658.527-1.088 1.328-1.088 2.236.0 1.588 1.287 2.875 2.875 2.875s2.875-1.287 2.875-2.875c0-.792-.32-1.508-.838-2.027v-3.584h57.778v3.35c-.677.525-1.12 1.339-1.12 2.262.0 1.588 1.287 2.875 2.875 2.875s2.875-1.287 2.875-2.875C97.083 84.501 96.774 83.8 96.276 83.284zM92.453 77.114H34.675V66.707h57.778V77.114z"/><path d="M85.676 49.117c0 0-15.518-1.719-15.838-1.718l-4.396.021c-1.296-12.418-13.306-8.331-13.306-8.331-4.685 1.744-7.96.243-7.96.243l.001.001-1.72-1.109c-2.181-1.408-4.88-.437-6.464 1.063.0.0-.53.452-.901 1.058-.355.578-.633 1.301-.633 1.301l-.008.017c-.527 1.523-.539 3.464.357 4.947-2.313.341-2.873-.278-4.797-2.448-1.121-1.293-2.789-2.29-4.403-3.255-2.197-1.313-4.468-2.672-5.35-4.766-.655-1.519-.389-3.169-.106-4.916.215-1.333.426-2.709.219-4.058h.319v-2.324h.503c.94.0 1.702-.763 1.702-1.703v-8.194c0-.939-.761-1.703-1.702-1.703h-1.342c.014-.129.022-.264.022-.404.0-.104-.008-.203-.014-.301h.354c1.228.0 2.226-.998 2.226-2.225h-.758c0 .809-.659 1.467-1.467 1.467h-.503c-.172-.49-.476-.788-.85-.788s-.675.298-.85.788h-5.683V8.765h-2.271v3.015H2.225c-.81.0-1.466-.658-1.466-1.467H0c0 1.227.999 2.225 2.226 2.225h7.831l-.004 67.858H8.564c-2.414.0-4.478 1.505-5.318 3.624-.903.274-1.564 1.104-1.564 2.097.0 1.217.985 2.202 2.201 2.202 1.217.0 2.202-.985 2.202-2.202.0-.584-.231-1.111-.601-1.505.561-1.142 1.723-1.937 3.08-1.937h4.317.812c1.356.0 2.52.795 3.08 1.937-.37.394-.601.921-.601 1.505.0 1.217.985 2.202 2.202 2.202 1.216.0 2.201-.985 2.201-2.202.0-.992-.662-1.822-1.564-2.097-.84-2.119-2.904-3.624-5.317-3.624H12.98h-.647v-4.553l-.002.002V12.537h5.536c-.008.098-.016.196-.016.301.0.141.008.275.022.404h-1.34c-.94.0-1.703.764-1.703 1.703v8.194c0 .94.762 1.703 1.703 1.703h.472v1.025h1.292v-1.025H19.4v2.324h.175c.223 1.26.005 2.617-.206 3.931-.288 1.784-.585 3.627.159 5.354.981 2.332 3.368 3.758 5.675 5.137 1.631.977 3.173 1.897 4.212 3.097 1.739 1.962 2.569 2.802 4.352 2.802.453.0.979-.06 1.587-.163.233.247.497.476.804.675.0.0 10.392 7.161 16.939 7.38l31.701-.021c1.476.0 2.827-.632 3.233-2.123C88.518 51.45 87.463 49.604 85.676 49.117zM18.628 12.537h.466c.009.096.022.188.022.301.0.149-.011.284-.028.404h-.453c-.018-.12-.028-.255-.028-.404C18.607 12.724 18.62 12.632 18.628 12.537zM18.887 21.151c-.989.0-1.791-.802-1.791-1.791.0-.988 1.791-3.791 1.791-3.791s1.791 2.803 1.791 3.791C20.677 20.349 19.875 21.151 18.887 21.151zM59.862 47.987c-.578.903-1.474 1.526-2.521 1.755-2 .438-3.979.66-5.887.66-8.576.0-13.134-4.38-13.626-4.879-.444-.453-.751-.997-.939-1.584-.02-.055-.034-.111-.05-.169-.046-.165-.084-.332-.107-.504-.006-.043-.022-.084-.027-.128-.009-.074.001-.147-.004-.222-.004-.082-.022-.16-.021-.243.0-.049.013-.096.015-.145.006-.131.023-.259.042-.388.019-.138.041-.272.074-.406.02-.074.045-.147.069-.222.195-.622.523-1.197 1.002-1.667.754-.739 1.752-1.148 2.811-1.148 1.069.0 2.077.417 2.835 1.173.092.089 2.657 2.507 7.906 2.507 1.336.0 2.746-.16 4.191-.477.283-.062.572-.092.859-.092 1.871.0 3.52 1.327 3.918 3.155C60.633 46.011 60.439 47.085 59.862 47.987z"/></g></g><g/><g/><g/><g/><g/><g/><g/><g/><g/><g/><g/><g/><g/><g/><g/></svg>