<svg id="Capa_1" xmlns="http://www.w3.org/2000/svg" xmlns:xlink="http://www.w3.org/1999/xlink" width="31.2" height="31.201" viewBox="0 0 31.2 31.201" style="enable-background:new 0 0 31.2 31.201"
	><g><g><path d="M31.2 3.836c0-.978-.792-1.77-1.771-1.77H1.771C.792 2.066.0 2.858.0 3.836v23.527c0 .979.792 1.771 1.771 1.771H29.43c.979.0 1.771-.793 1.771-1.771V3.836zM29.159 27.094H2.041V4.156h27.117L29.159 27.094v0z"/><path d="M4.814 24.71h11.698c.563.0 1.02-.432 1.02-.996.0-.561-.455-.995-1.02-.995H4.814c-.563.0-1.019.436-1.019.995C3.795 24.28 4.251 24.71 4.814 24.71z"/><path d="M26.165 22.719h-5.272c-.562.0-1.02.436-1.02.995.0.564.456.996 1.02.996h5.272c.563.0 1.019-.432 1.019-.996C27.184 23.155 26.73 22.719 26.165 22.719z"/><path d="M4.814 21.311h11.698c.563.0 1.02-.435 1.02-.996s-.455-.996-1.02-.996H4.814c-.563.0-1.019.435-1.019.996S4.251 21.311 4.814 21.311z"/><path d="M26.165 19.319h-5.272c-.562.0-1.02.435-1.02.996s.456.996 1.02.996h5.272c.563.0 1.019-.435 1.019-.996S26.73 19.319 26.165 19.319z"/><path d="M21.969 6.906c-.137-.248-.39-.411-.672-.434-.283-.021-.558.101-.732.324l-4.239 5.479-3.69-3.576c-.161-.156-.377-.241-.602-.237-.224.004-.438.098-.593.26l-7.542 7.874h23.405L21.969 6.906z"/></g></g><g/><g/><g/><g/><g/><g/><g/><g/><g/><g/><g/><g/><g/><g/><g/></svg>