<svg id="Capa_1" xmlns="http://www.w3.org/2000/svg" xmlns:xlink="http://www.w3.org/1999/xlink" width="125.2" height="125.2" viewBox="0 0 125.2 125.2" style="enable-background:new 0 0 125.2 125.2"
	><g><g><path d="M46.704 53.814h8.065V68.6H46.704z"/><path d="M97.305 9.683C97.283 3.496 93.715.0 87.512.0L51.317.056c-6.974.0-12.647 5.673-12.647 12.647v27.284h3.036V12.704c0-5.3 4.312-9.611 9.611-9.611h27.998c-1.691 2.354-1.691 5.621-1.691 9.611v27.284h3.034V18.267l13.123-.005c.577.0 1.483-.124 2.262-.775.576-.481 1.265-1.417 1.261-3.044C97.46 11.942 97.334 10.058 97.305 9.683zM94.424 14.352c0 .452-.084.796-.226.92-.127.112-.406.124-.479.11l-13.062.005v-2.684c0-2.343.025-4.085.234-5.422.725-2.973 2.892-4.452 6.619-4.452 4.651.0 6.914 2.262 6.914 6.913l.006.124C94.432 9.885 94.586 11.749 94.424 14.352z"/><path d="M59.1 28.638h14.222c.839.0 1.52-.68 1.52-1.517.0-.839-.681-1.518-1.52-1.518H59.1v3.035z"/><path d="M51.433 25.604H57.1v3.034H51.433z"/><path d="M45.499 28.638h3.934v-3.034h-3.934c-.838.0-1.518.679-1.518 1.518C43.982 27.958 44.662 28.638 45.499 28.638z"/><path d="M72.247 53.814h8.065V68.6H72.247z"/><path d="M43.982 15.233c0 .838.68 1.518 1.518 1.518h7.268v-3.035H45.5C44.662 13.715 43.982 14.396 43.982 15.233z"/><path d="M84.668 25.658v18.948H35.434V25.658c-4.32.727-7.614 4.474-7.614 8.999v81.405c0 5.047 4.09 9.138 9.137 9.138h46.188c5.047.0 9.138-4.091 9.138-9.138V34.657C92.282 30.131 88.987 26.384 84.668 25.658zM49.791 116.245h-8.692v-8.69h8.692V116.245zM49.791 100.506h-8.692v-8.688h8.692V100.506zM49.791 85.465h-8.692v-8.689h8.692V85.465zm14.482 30.78h-8.689v-8.69h8.689V116.245zM64.273 100.506h-8.689v-8.688h8.689V100.506zM64.273 85.465h-8.689v-8.689h8.689V85.465zM79 116.245h-8.691v-8.69H79V116.245zM79 100.506h-8.691v-8.688H79V100.506zM79 85.465h-8.691v-8.689H79V85.465zM84.076 71.299H35.01V51.674h49.065L84.076 71.299v0z"/><path d="M54.767 13.715h10.667v3.035H54.767z"/><path d="M74.84 15.233c0-.837-.68-1.518-1.519-1.518h-5.89v3.035h5.89C74.161 16.75 74.84 16.071 74.84 15.233z"/><path d="M59.378 53.814h8.065V68.6H59.378z"/></g></g><g/><g/><g/><g/><g/><g/><g/><g/><g/><g/><g/><g/><g/><g/><g/></svg>