<svg id="Capa_1" xmlns="http://www.w3.org/2000/svg" xmlns:xlink="http://www.w3.org/1999/xlink" width="31.969" height="31.97" viewBox="0 0 31.969 31.97" style="enable-background:new 0 0 31.969 31.97"><g><g><path d="M.875 21.789v7.955c0 1.229.997 2.226 2.226 2.226h25.766c1.229.0 2.227-.997 2.227-2.226v-7.971c-.158.01-.193.016-.256.016H.875zm4.421 8.354c-.727.0-1.315-.589-1.315-1.314s.589-1.314 1.315-1.314c.725.0 1.314.589 1.314 1.314S6.021 30.143 5.296 30.143zM26.762 29.902H9.907c-.591.0-1.072-.441-1.072-1.033s.48-1.034 1.072-1.034h16.855c.592.0 1.072.44 1.072 1.034C27.834 29.46 27.356 29.902 26.762 29.902z"/><path d="M28.868 16.383v-.046V6.825c0-.655-.26-1.283-.725-1.746l-4.38-4.361C23.302.258 22.677.0 22.026.0H4.564C3.756.0 3.102.655 3.102 1.463v14.873.046c-1.229.0-2.226.997-2.226 2.226v1.114h29.963c.062.0.098.006.256.017v-1.131C31.094 17.38 30.097 16.383 28.868 16.383zm-5.567-13.1 2.443 2.444h-2.443V3.283zM5.169 2.068h16.063v.068 4.492c0 .731.594 1.325 1.325 1.325h4.083v8.112H5.169V2.068z"/><path d="M23.333 11.135H8.319c-.592.0-1.072.442-1.072 1.034.0.591.48 1.034 1.072 1.034h15.013c.592.0 1.072-.442 1.072-1.034C24.403 11.576 23.923 11.135 23.333 11.135z"/><path d="M8.319 7.953h8.58c.592.0 1.071-.521 1.071-1.114.0-.592-.479-1.112-1.071-1.112h-8.58c-.592.0-1.072.521-1.072 1.112C7.248 7.432 7.728 7.953 8.319 7.953z"/></g></g><g/><g/><g/><g/><g/><g/><g/><g/><g/><g/><g/><g/><g/><g/><g/></svg>