<svg id="Capa_1" xmlns="http://www.w3.org/2000/svg" xmlns:xlink="http://www.w3.org/1999/xlink" width="395.409" height="395.409" viewBox="0 0 395.409 395.409" style="enable-background:new 0 0 395.409 395.409"><g><g><path d="M60.977 208.518c-.768-1.881-2.598-3.108-4.629-3.108-2.031.0-3.859 1.229-4.628 3.108L7.012 317.959c-.81 1.98-.269 4.258 1.346 5.662 1.614 1.404 3.943 1.626 5.794.552l18.697-10.86v77.097c0 2.762 2.239 5 5 5h37c2.762.0 5-2.238 5-5v-77.101l18.709 10.865c1.85 1.072 4.18.852 5.795-.553 1.613-1.404 2.154-3.682 1.345-5.663L60.977 208.518z"/><path d="M166.265 124.275c-.768-1.88-2.598-3.108-4.629-3.108-2.031.0-3.859 1.229-4.629 3.109l-44.709 109.44c-.809 1.98-.268 4.258 1.347 5.662 1.614 1.404 3.943 1.626 5.794.553l18.697-10.86v161.337c0 2.762 2.239 5 5 5h37c2.762.0 5-2.238 5-5V229.066l18.709 10.865c1.85 1.072 4.18.853 5.795-.553 1.612-1.404 2.153-3.682 1.345-5.662l-44.72-109.441z"/><path d="M307.642 84.254c19.932.0 34.805-18.571 35.143-49.712C343.001 12.932 332.71.0 307.642.0c-25.07.0-35.363 12.932-35.144 34.542C272.834 65.683 287.709 84.254 307.642 84.254z"/></g><g><path d="M388.623 222.992c-1.279-8.721-2.381-17.486-3.447-25.963-5.662-45.016-10.551-83.895-38.696-97.398-.023-.012-17.841-8.271-17.841-8.271l-7.776-6.559-11.838 11.773 12.076 80.733c.04.273-.028.552-.191.775l-12.422 17c-.197.271-.514.432-.849.432-.336.0-.65-.16-.85-.432l-12.42-17c-.163-.224-.232-.502-.191-.775l12.076-80.735-11.835-11.771-7.779 6.559c0 0-17.977 8.33-18.721 8.785-27.354 13.895-32.215 52.402-37.815 96.937-1.064 8.479-2.168 17.243-3.447 25.964-1.092 7.445 4.059 14.365 11.504 15.457.67.101 1.336.146 1.994.146 6.65.0 12.471-4.875 13.463-11.647 1.32-8.998 2.438-17.905 3.522-26.519 2.052-16.305 4.14-32.866 7.38-46.479l.016 57.87c0 7.411 2.604 14.014 6.801 19.527l.01 147.597c0 9.064 7.351 16.412 16.414 16.412 9.064.0 16.414-7.351 16.412-16.414l-.008-130.117c1.166.101 2.326.154 3.477.154 1.148.0 2.312-.056 3.479-.154l-.004 130.117c0 9.063 7.348 16.414 16.414 16.414 9.063.0 16.412-7.351 16.412-16.414l.004-147.597c4.196-5.514 6.801-12.116 6.801-19.525l.016-57.921c3.24 13.613 5.328 30.174 7.379 46.479 1.082 8.612 2.203 17.52 3.521 26.518.994 6.773 6.813 11.648 13.465 11.648.656.0 1.324-.048 1.994-.146C384.564 237.357 389.715 230.438 388.623 222.992z"/></g></g><g/><g/><g/><g/><g/><g/><g/><g/><g/><g/><g/><g/><g/><g/><g/></svg>