<svg id="Capa_1" xmlns="http://www.w3.org/2000/svg" xmlns:xlink="http://www.w3.org/1999/xlink" width="476" height="476" viewBox="0 0 476 476" style="enable-background:new 0 0 476 476"><g><path d="M304.64 238c0 19.04 9.521 57.12 47.601 57.12s47.6-28.561 57.12-28.561c3.332.0 6.664 1.143 9.52 3.428v91.772c0 0-47.6-9.52-66.64-9.52s-28.561 9.52-28.561 19.04c0 9.52 28.561 19.04 28.561 57.12S314.16 476 295.12 476 238 466.48 238 428.4s28.56-47.601 28.56-57.12c0-9.521-9.52-19.04-28.56-19.04s-66.64 9.52-66.64 9.52 9.52-47.6 9.52-66.64-9.52-28.561-19.04-28.561-19.04 28.561-57.12 28.561c-38.08.0-47.6-38.08-47.6-57.12s9.52-57.12 47.6-57.12c38.08.0 47.6 28.56 57.12 28.56s19.04-9.52 19.04-28.56-9.52-66.64-9.52-66.64 47.6 9.52 66.64 9.52 28.56-9.52 28.56-19.04c0-9.52-28.56-19.04-28.56-57.12S276.08.0 295.12.0s57.12 9.52 57.12 47.6-28.561 47.6-28.561 57.12c0 9.521 9.521 19.04 28.561 19.04s66.64-9.52 66.64-9.52v91.772c-2.855 2.285-6.188 3.427-9.52 3.427-9.521.0-19.04-28.56-57.12-28.56S304.64 218.96 304.64 238z"/></g><g/><g/><g/><g/><g/><g/><g/><g/><g/><g/><g/><g/><g/><g/><g/></svg>