<svg id="Capa_1" xmlns="http://www.w3.org/2000/svg" xmlns:xlink="http://www.w3.org/1999/xlink" width="31.669" height="31.668" viewBox="0 0 31.669 31.668" style="enable-background:new 0 0 31.669 31.668"><g><path d="M30.438 11.208c.422.0.805.054 1.231.156v-5.62c0-1.347-1.092-2.439-2.438-2.439h-5.468c.099.429.15.78.15 1.178.0 2.552-2.121 4.633-4.737 4.633-2.615.0-4.736-2.087-4.736-4.637.0-.4.052-.745.149-1.174H9.18c-.642.0-1.258.256-1.711.71C7.016 4.47 6.762 5.087 6.765 5.728c.008 2.468.006 5.928-.067 5.896-.598-.267-1.262-.416-1.962-.416C2.12 11.208.0 13.276.0 15.828s2.121 4.622 4.736 4.622c.7.0 1.364-.148 1.962-.416.067-.031.07 3.418.064 5.885-.001.648.255 1.271.712 1.729s1.079.716 1.727.716h5.387c-.097-.429-.149-.787-.149-1.185.0-2.552 2.122-4.636 4.736-4.636 2.617.0 4.737 2.091 4.737 4.644.0.399-.053.748-.15 1.177h5.469c1.348.0 2.438-1.093 2.438-2.438v-5.635c-.428.103-.811.156-1.232.156-2.615.0-4.744-2.066-4.744-4.621C25.689 13.277 27.82 11.208 30.438 11.208z"/></g><g/><g/><g/><g/><g/><g/><g/><g/><g/><g/><g/><g/><g/><g/><g/></svg>