<svg id="Capa_1" xmlns="http://www.w3.org/2000/svg" xmlns:xlink="http://www.w3.org/1999/xlink" width="31.524" height="31.525" viewBox="0 0 31.524 31.525" style="enable-background:new 0 0 31.524 31.525"><g><path d="M26.13 2.726H5.676C2.648 2.691.035 5.075.0 8.102v11.054c-.036 3.026 2.391 5.512 5.42 5.545l13.663.16 7.405 3.786c.47.24 1.037.192 1.461-.12.423-.312.632-.828.537-1.348l-.396-2.185h.002c1.789.0 3.407-2.518 3.432-4.304V8.519C31.557 5.49 29.156 2.761 26.13 2.726zM15.354 20.31c-.999.0-1.676-.73-1.676-1.711.0-.998.698-1.715 1.676-1.715 1.014.0 1.674.717 1.695 1.715C17.052 19.577 16.368 20.31 15.354 20.31zM17.618 13.308c-.695.772-.974 1.507-.974 2.356v.353h-2.479l-.018-.498c-.058-.962.263-1.942 1.109-2.958.603-.716 1.09-1.32 1.09-1.963.0-.658-.433-1.09-1.374-1.128-.621.0-1.373.224-1.863.563l-.641-2.053c.678-.393 1.808-.772 3.145-.772 2.484.0 3.607 1.375 3.607 2.936C19.225 11.577 18.334 12.519 17.618 13.308z"/></g><g/><g/><g/><g/><g/><g/><g/><g/><g/><g/><g/><g/><g/><g/><g/></svg>