<svg id="Capa_1" xmlns="http://www.w3.org/2000/svg" xmlns:xlink="http://www.w3.org/1999/xlink" width="31.719" height="31.718" viewBox="0 0 31.719 31.718" style="enable-background:new 0 0 31.719 31.718"><g><g><path d="M31.719 4.354c0-.948-.77-1.716-1.717-1.716H1.716C.77 2.638.0 3.406.0 4.354v23.01c0 .947.77 1.716 1.716 1.716h28.286c.947.0 1.717-.769 1.717-1.716V4.354zM29.566 26.929H2.083V4.72h27.481v22.209H29.566z"/><path d="M25.124 20.519c0-.522-.424-.947-.944-.947h-.65v-1.78c0-.274-.213-.495-.486-.495s-.486.221-.486.495v1.78h-3.676v-1.78c0-.274-.215-.495-.488-.495-.272.0-.485.221-.485.495v1.78h-3.678v-1.666h1.137c.521.0.944-.422.944-.944V15.59c0-.522-.423-.945-.944-.945H14.26c0 0-.032-.024-.032-.026v-3.173c0-.274-.212-.496-.485-.496-.274.0-.486.222-.486.496v3.172c0 .002.012.026.012.026H9.616c0 0 .032-.024.032-.026V12.84h1.762c.521.0.945-.423.945-.945v-1.371c0-.522-.424-.945-.945-.945H3.957v1.867 1.382 1.791c0 .002.023.026.023.026H3.957v3.146.104 1.687 1.382 1.871H24.18c.521.0.944-.423.944-.945V20.519zM13.256 19.572H9.648v-1.666h3.608V19.572zM4.997 14.619V12.84h3.609v1.778c0 .002.018.026.018.026H4.973C4.973 14.646 4.997 14.621 4.997 14.619zM4.997 17.906h3.609v1.666H4.997V17.906z"/><path d="M4.478 8.77c.273.0.52-.221.52-.495V6.787c0-.274-.246-.496-.52-.496S3.957 6.511 3.957 6.787v1.487C3.957 8.547 4.203 8.77 4.478 8.77z"/><path d="M4.478 26.119c.273.0.52-.223.52-.496v-1.487c0-.272-.246-.496-.52-.496s-.521.222-.521.496v1.487C3.957 25.898 4.203 26.119 4.478 26.119z"/><path d="M9.127 8.77c.273.0.521-.221.521-.495V6.787c0-.274-.247-.496-.521-.496-.274.0-.52.222-.52.496v1.487C8.607 8.547 8.854 8.77 9.127 8.77z"/><path d="M9.127 23.64c-.273.0-.521.223-.521.496v1.487c0 .274.247.496.521.496.274.0.521-.222.521-.496v-1.487C9.648 23.863 9.401 23.64 9.127 23.64z"/><path d="M13.743 8.77c.273.0.485-.221.485-.495V6.787c0-.274-.212-.496-.485-.496-.274.0-.486.221-.486.496v1.487C13.256 8.547 13.468 8.77 13.743 8.77z"/><path d="M13.743 23.64c-.274.0-.486.223-.486.496v1.487c0 .274.212.496.486.496.273.0.485-.222.485-.496v-1.487C14.228 23.863 14.016 23.64 13.743 23.64z"/><path d="M18.393 8.77c.272.0.486-.221.486-.495V6.787c0-.274-.214-.496-.486-.496-.273.0-.486.221-.486.496v1.487C17.906 8.547 18.119 8.77 18.393 8.77z"/><path d="M18.393 15.114c.272.0.486-.222.486-.496v-3.172c0-.274-.214-.496-.486-.496-.273.0-.486.222-.486.496v3.172C17.906 14.894 18.119 15.114 18.393 15.114z"/><path d="M18.393 23.64c-.273.0-.486.223-.486.496v1.487c0 .274.213.496.486.496.272.0.486-.222.486-.496v-1.487C18.879 23.863 18.665 23.64 18.393 23.64z"/><path d="M23.042 8.77c.274.0.486-.221.486-.495V6.787c0-.274-.212-.496-.486-.496-.272.0-.485.221-.485.496v1.487C22.557 8.547 22.77 8.77 23.042 8.77z"/><path d="M23.042 15.114c.274.0.486-.222.486-.496v-3.172c0-.274-.212-.496-.486-.496-.272.0-.485.222-.485.496v3.172C22.557 14.894 22.77 15.114 23.042 15.114z"/><path d="M23.042 23.64c-.272.0-.485.223-.485.496v1.487c0 .274.213.496.485.496.274.0.486-.222.486-.496v-1.487C23.529 23.863 23.316 23.64 23.042 23.64z"/><path d="M27.693 8.77c.273.0.484-.221.484-.495V6.787c0-.274-.211-.496-.484-.496-.274.0-.486.221-.486.496v1.487C27.206 8.547 27.418 8.77 27.693 8.77z"/><path d="M27.693 15.114c.273.0.484-.222.484-.496v-3.172c0-.274-.211-.496-.484-.496-.274.0-.486.222-.486.496v3.172C27.206 14.894 27.418 15.114 27.693 15.114z"/><path d="M27.693 21.459c.273.0.484-.222.484-.496V17.79c0-.274-.211-.495-.484-.495-.274.0-.486.221-.486.495v3.173C27.206 21.238 27.418 21.459 27.693 21.459z"/><path d="M27.693 26.119c.273.0.484-.223.484-.496v-1.487c0-.272-.211-.496-.484-.496-.274.0-.486.222-.486.496v1.487C27.206 25.898 27.418 26.119 27.693 26.119z"/></g></g><g/><g/><g/><g/><g/><g/><g/><g/><g/><g/><g/><g/><g/><g/><g/></svg>