<svg id="Capa_1" xmlns="http://www.w3.org/2000/svg" xmlns:xlink="http://www.w3.org/1999/xlink" width="31.891" height="31.891" viewBox="0 0 31.891 31.891" style="enable-background:new 0 0 31.891 31.891"><g><path d="M28.096 7.828c-2.101.0-3.804 1.702-3.804 3.801.0.252.025.499.074.738l-4.806 4.328c-.407-.149-.85-.231-1.312-.231-.176.0-.35.012-.52.032l-2.726-3.641c.131-.385.201-.798.201-1.227.0-2.1-1.702-3.801-3.8-3.801-2.098.0-3.8 1.702-3.8 3.801.0.485.089.948.256 1.375l-3.128 3.572c-.299-.074-.609-.113-.93-.113C1.703 16.462.0 18.163.0 20.263c0 2.101 1.703 3.801 3.801 3.801 2.1.0 3.802-1.7 3.802-3.801.0-.319-.04-.629-.114-.926l3.446-3.936c.153.019.31.029.468.029.213.0.421-.018.623-.051l2.66 3.551c-.156.414-.24.863-.24 1.332.0 2.101 1.702 3.801 3.799 3.801 2.101.0 3.802-1.7 3.802-3.801.0-.184-.013-.362-.037-.539l4.955-4.462c.354.11.731.169 1.125.169 2.098.0 3.801-1.702 3.801-3.801C31.895 9.53 30.193 7.828 28.096 7.828z"/></g><g/><g/><g/><g/><g/><g/><g/><g/><g/><g/><g/><g/><g/><g/><g/></svg>