<svg id="Capa_1" xmlns="http://www.w3.org/2000/svg" xmlns:xlink="http://www.w3.org/1999/xlink" width="465.65" height="465.65" viewBox="0 0 465.65 465.65" style="enable-background:new 0 0 465.65 465.65"><g><path d="M230.459 232.825c-32.695.0-59.194-26.5-59.194-59.194s26.5-59.194 59.194-59.194c32.694.0 59.193 26.5 59.193 59.194C289.652 206.319 263.153 232.825 230.459 232.825zM138.38 318.328v26.309h184.164v-26.309c0-36.326-29.443-65.77-65.77-65.77h-52.618C167.824 252.553 138.38 282.002 138.38 318.328zM434.316 124.27C394.407 49.457 315.976 1.85 230.459 1.85c-90.508.0-173.128 53.285-210.494 135.755-3.876 8.547-.082 18.618 8.473 22.501 8.541 3.856 18.619.088 22.501-8.473C82.804 81.301 153.265 35.856 230.459 35.856c72.202.0 138.502 39.773 172.855 102.469l-30.308 13.729 82.661 59.242 9.982-101.211L434.316 124.27zM429.617 313.059c-8.398-4.209-18.611-.775-22.808 7.615-33.599 67.307-101.177 109.127-176.357 109.127-70.204.0-133.75-36.482-169.218-96.117l29.777-14.859L6.195 262.711.0 364.229l30.756-15.342c41.324 71.23 116.518 114.914 199.696 114.914 88.148.0 167.382-49.027 206.774-127.941C441.429 327.453 438.016 317.248 429.617 313.059z"/></g><g/><g/><g/><g/><g/><g/><g/><g/><g/><g/><g/><g/><g/><g/><g/></svg>