<svg id="Capa_1" xmlns="http://www.w3.org/2000/svg" xmlns:xlink="http://www.w3.org/1999/xlink" width="31.53" height="31.529" viewBox="0 0 31.53 31.529" style="enable-background:new 0 0 31.53 31.529"><g><g><path d="M6.188 29.909c.156.42.54.713.986.752.446.04.876-.18 1.105-.566.676-1.144 1.726-2.43 3.231-3.029-1.354-2.993-2.159-5.658-2.635-7.826C7.083 20.553 3.939 23.87 6.188 29.909z"/><path d="M22.678 19.256c-.478 2.164-1.281 4.826-2.636 7.814 1.494.604 2.537 1.885 3.211 3.022.228.388.658.605 1.104.566.446-.041.829-.334.985-.754C27.58 23.897 24.47 20.585 22.678 19.256z"/><path d="M22.148 13.369c.067-6.654-3.565-11.104-5.422-12.941C16.446.151 16.065-.003 15.669.0c-.394.004-.771.165-1.047.448-1.799 1.847-5.284 6.291-5.218 12.92.0.0-.332 6.124 3.832 14.534h2.497.086 2.497C22.479 19.492 22.148 13.369 22.148 13.369zM14.115 8.009c-.061.1-1.148 1.951-.695 4.878.101.658-.351 1.273-1.009 1.375-.061.009-.122.014-.184.014-.584.0-1.097-.425-1.189-1.02-.6-3.88.969-6.42 1.035-6.526.356-.562 1.101-.73 1.663-.375C14.293 6.708 14.465 7.448 14.115 8.009zM15.173 2.329c.74.0 1.341.6 1.341 1.342s-.602 1.343-1.341 1.343c-.743.0-1.344-.601-1.344-1.343S14.43 2.329 15.173 2.329z"/><path d="M12.195 29.331h7.254v2.198H12.195z"/></g></g><g/><g/><g/><g/><g/><g/><g/><g/><g/><g/><g/><g/><g/><g/><g/></svg>