<svg id="Capa_1" xmlns="http://www.w3.org/2000/svg" xmlns:xlink="http://www.w3.org/1999/xlink" width="31.883" height="31.883" viewBox="0 0 31.883 31.883" style="enable-background:new 0 0 31.883 31.883"><g><g><path d="M31.603 8.288l-7.449-7.725c-.375-.388-1.002-.409-1.391-.035L.292 22.202c-.387.375-.387 1.004-.014 1.393l7.451 7.723c.374.392 1.002.413 1.39.037L31.59 9.679C31.978 9.304 31.979 8.676 31.603 8.288zM9.336 28.419c-.23.223-.539.345-.859.339-.32-.007-.624-.14-.846-.369l-4.432-4.595c-.462-.479-.449-1.243.03-1.705l2.039 2.113c.28.291.741.299 1.032.021.291-.281.297-.741.016-1.034l-2.037-2.11.543-.523 2.037 2.111c.28.291.742.302 1.033.021.291-.278.296-.737.016-1.03l-2.037-2.111.542-.523 2.038 2.112c.28.29.742.3 1.032.021.291-.281.297-.74.016-1.033l-2.037-2.11.542-.521 2.038 2.111c.281.291.742.301 1.033.021.29-.281.297-.742.016-1.033l-2.037-2.111.543-.522 3.393 3.516c.28.292.741.301 1.033.022.291-.281.297-.742.016-1.033l-3.392-3.519.542-.523 2.038 2.112c.281.291.741.302 1.032.021s.297-.742.017-1.032l-2.038-2.111.543-.523 2.038 2.112c.281.29.742.301 1.033.021.291-.279.296-.742.016-1.033l-2.037-2.112.542-.523 2.037 2.112c.279.291.742.301 1.033.021s.295-.741.016-1.032l-2.037-2.112.542-.523L18 11.921c.281.29.741.301 1.032.02.291-.279.297-.74.018-1.032l-2.037-2.112.543-.523 3.391 3.518c.281.291.761.284 1.053.004.291-.282.314-.76.035-1.05L18.64 7.227l3.906-3.769c.229-.222.539-.344.858-.338.32.006.625.138.847.369l4.434 4.594c.221.229.344.539.338.858-.006.32-.14.624-.369.847L9.336 28.419z"/><path d="M22.351 9.433c.938.973 2.49 1 3.463.062.975-.938 1-2.492.062-3.464-.938-.973-2.491-1-3.463-.062C21.439 6.908 21.412 8.462 22.351 9.433zM23.429 7.023c.391-.377 1.018-.364 1.396.025.376.392.364 1.017-.026 1.395-.394.378-1.019.366-1.396-.024C23.025 8.026 23.037 7.4 23.429 7.023z"/></g></g><g/><g/><g/><g/><g/><g/><g/><g/><g/><g/><g/><g/><g/><g/><g/></svg>