<svg id="Capa_1" xmlns="http://www.w3.org/2000/svg" xmlns:xlink="http://www.w3.org/1999/xlink" width="31.907" height="31.907" viewBox="0 0 31.907 31.907" style="enable-background:new 0 0 31.907 31.907"><g><g><path d="M25.765 19.269l-11.309 7.681c-.46.332-1.003.508-1.567.508-.67.0-1.363-.256-1.862-.688l-10.88-9.547c-.188.316-.156.688-.116 1.318.024.396.176.715.431.939l11.197 9.822c.483.428 1.778.389 2.283.024l11.394-7.74c.654.199 1.805.459 2.812.313 1.271-.18 2.922-.938 3.402-2.485.069-.226.248-.75.25-1.453-.992.843-2.242 1.312-3.302 1.461C27.56 19.562 26.523 19.433 25.765 19.269z"/><path d="M.566 15.284l10.941 9.52c.457.459 1.976 1.072 3.109-.059l10.821-7.352c.656.197 1.805.457 2.812.312 1.271-.181 2.921-.938 3.402-2.486.17-.543 1.005-2.854-1.692-5.208-.947-.812-9.161-7.715-13.865-7.715-1.022.0-3.322.373-3.58 3.661L.617 12.633c-.602.442-.536.812-.48 1.715C.16 14.744.312 15.061.566 15.284zM4.623 13.696c.03-.296.203-.558.462-.702l9.117-5.105c.309-.172.499-.495.499-.849.0-2.049.886-2.049 1.415-2.049 3.107.0 9.453 4.84 11.637 6.704.775.712 1.15 1.396 1.011 1.85-.138.443-.82.858-1.588.968-.93.131-2.128-.343-2.139-.346-.115-.047-.236-.068-.355-.068-.193.0-.385.056-.548.166l-10.046 6.828c-.54.365-1.258.32-1.748-.109l-7.41-6.504C4.706 14.282 4.59 13.991 4.623 13.696z"/><ellipse cx="9.252" cy="13.481" rx="1.041" ry=".758"/><ellipse cx="15.031" cy="16.947" rx="1.042" ry=".758"/><ellipse cx="17.342" cy="8.858" rx="1.041" ry=".759"/><ellipse cx="21.965" cy="11.17" rx=".939" ry=".685"/><ellipse cx="16.186" cy="12.325" rx=".942" ry=".687"/></g></g><g/><g/><g/><g/><g/><g/><g/><g/><g/><g/><g/><g/><g/><g/><g/></svg>