<svg id="Capa_1" xmlns="http://www.w3.org/2000/svg" xmlns:xlink="http://www.w3.org/1999/xlink" width="31.867" height="31.867" viewBox="0 0 31.867 31.867" style="enable-background:new 0 0 31.867 31.867"><g><g><path d="M8.046 22.46c1.878 2.264 4.715 3.709 7.887 3.709s6.008-1.445 7.885-3.709c-2.324.498-5.019.781-7.885.781C13.063 23.241 10.372 22.958 8.046 22.46z"/><path d="M26.26 11.575c.176.413.328.837.453 1.273 1.077.419 1.706.904 1.706 1.424.0.604-.833 1.161-2.252 1.619C26.145 10.258 21.57 5.698 15.933 5.698c-5.639.0-10.212 4.56-10.234 10.194-1.42-.459-2.253-1.017-2.253-1.62.0-.519.63-1.006 1.706-1.424.126-.436.279-.86.454-1.274C2.178 12.625.0 14.188.0 15.934c0 .227.036.45.107.669.921 2.85 7.656 5.06 15.826 5.06 8.168.0 14.905-2.21 15.828-5.06.069-.221.106-.442.106-.669C31.865 14.188 29.688 12.626 26.26 11.575z"/></g></g><g/><g/><g/><g/><g/><g/><g/><g/><g/><g/><g/><g/><g/><g/><g/></svg>