<svg id="Capa_1" xmlns="http://www.w3.org/2000/svg" xmlns:xlink="http://www.w3.org/1999/xlink" width="124.065" height="124.065" viewBox="0 0 124.065 124.065" style="enable-background:new 0 0 124.065 124.065"><g><path d="M46.824 56.664c0 1.989-1.617 3.608-3.607 3.608-1.99.0-3.608-1.619-3.608-3.608.0-1.989 1.618-3.608 3.608-3.608C45.206 53.056 46.824 54.675 46.824 56.664zM123.078 61.748c-.281.343-.792.392-1.126.107-.346-.281-.392-.787-.11-1.128.695-.839.814-2.014.33-3.137-.437-.998-1.473-2.101-3.082-2.197-.791-.045-1.598.108-2.354.401 1.512 1.956 2.028 4.504 1.496 6.14-.406 1.25-1.341 1.935-2.556 1.935-.375.0-.779-.069-1.201-.205-3.363-1.073-3.315-3.384-3.142-4.327.251-1.349 1.287-2.795 2.722-3.872-.356-.238-.754-.431-1.189-.574-1.094-.366-3.361-.175-4.994.538 1.523 3.581 2.303 7.295 2.303 11.125.0 7.957-3.418 15.666-9.648 21.813V109.6l-4.061.001c-7.291.0-16.365.0-16.365-8.913V99.42c-6.949 1.719-14.297 1.957-21.396.688v.582c0 8.91-9.073 8.91-16.363 8.91l-4.06-.001v-18.42c-4.777-3.763-8.382-8.362-10.53-13.431h-1.014c-2.853.0-5.527-2.19-6.09-4.986l-2.298-11.497c-.292-1.467.019-2.848.876-3.892.982-1.197 2.482-1.773 4.257-1.511l3.857.567c.269-.708.576-1.404.9-2.096l-3.446-6.968L2.814 49.257l1.796 3.626-.793 1.749L4.61 72.299l-2.305 4.609L0 72.299l.793-17.667-.792-1.749 1.751-3.534L.89 49.423l1.363-1.086.053-.106.023.046 37.088-29.562 51.884-4.25-16.553 13.39 1.074 5.115c5.904 1.014 10.406 2.723 10.679 2.825 7.462 3.008 13.567 7.572 17.708 13.222l.991 1.396c.765 1.171 1.431 2.362 2.019 3.566 2.062-.905 4.722-1.084 6.147-.611.819.269 1.547.688 2.167 1.192 1.125-.541 2.393-.859 3.652-.769 1.953.115 3.654 1.328 4.457 3.155C124.366 58.612 124.15 60.449 123.078 61.748zm-17.503 4.805c0-4.745-1.403-9.304-4.177-13.552l-.92-1.293c-3.613-4.93-9.03-8.96-15.645-11.625-.021-.008-3.947-1.451-9.092-2.413-21.209-1.98-40.49 11.613-44.693 22.131l-.53 1.744-7.65-1.126 2.288 11.439c.131.65.913 1.291 1.58 1.291h4.196l.548 1.521c1.852 5.142 5.471 9.818 10.468 13.525l.929.689V105c9.006-.031 11.227-.911 11.227-4.311v-6.318l2.83.672c8.165 1.939 16.819 1.645 24.775-.848l2.987-.937v7.429c0 3.401 2.221 4.282 11.229 4.312V86.388l.729-.681C102.408 80.33 105.575 73.527 105.575 66.553zM115.363 56.769c0 0-5.49 4.338.0 5.343C115.363 62.111 118.817 62.625 115.363 56.769zM59.017 45.442c-1.398.599-2.045 2.216-1.449 3.616.595 1.399 2.215 2.051 3.617 1.458.652-.275 16.104-6.633 26.558 4.628.544.585 1.281.881 2.022.881.672.0 1.346-.244 1.877-.738 1.117-1.036 1.181-2.782.144-3.899C78.658 37.251 59.811 45.102 59.017 45.442z"/></g><g/><g/><g/><g/><g/><g/><g/><g/><g/><g/><g/><g/><g/><g/><g/></svg>