<svg id="Capa_1" xmlns="http://www.w3.org/2000/svg" xmlns:xlink="http://www.w3.org/1999/xlink" width="31.969" height="31.969" viewBox="0 0 31.969 31.969" style="enable-background:new 0 0 31.969 31.969"><g><path d="M21.971 8.936c0 2.736 2.238 4.882 4.998 4.882 2.762.0 5-2.11 5-4.847.0-.127-.027-.264-.037-.264l-.328.017-3.972-4.688c-.389-.46-1.021-.632-1.589-.435l-6.852 2.377c-.646-.864-1.68-1.423-2.84-1.423-1.954.0-3.541 1.584-3.541 3.538.0.031.002.062.003.094l-6.932 2.401c-.579.2-1.092.554-1.486 1.023L.4 16.372H.038C.028 16.371.0 16.452.0 16.578c0 2.736 2.238 4.873 4.999 4.873 2.76.0 4.998-2.096 4.998-4.832.0-.128-.027-.249-.038-.249H9.623l-3.141-3.735 7.008-2.426c.2.264.441.502.723.702V25.72H7.506c-1.173.0-2.125.951-2.125 2.125v.604h21.947v-.604c0-1.172-.951-2.125-2.125-2.125h-6.706V10.912c.778-.646 1.396-1.668 1.396-2.82.0-.033-.002-.065-.002-.098l4.396-1.522-1.924 2.253-.354-.017C21.999 8.708 21.971 8.809 21.971 8.936zM3.179 16.371l1.833-2.173 1.834 2.173H3.179zM26.982 6.536l1.834 2.172H25.15L26.982 6.536z"/></g><g/><g/><g/><g/><g/><g/><g/><g/><g/><g/><g/><g/><g/><g/><g/></svg>