<svg id="Capa_1" xmlns="http://www.w3.org/2000/svg" xmlns:xlink="http://www.w3.org/1999/xlink" width="31.775" height="31.775" viewBox="0 0 31.775 31.775" style="enable-background:new 0 0 31.775 31.775"><g><g><path d="M30.815 7.654h-3.111c-1.067.0-1.937.867-1.937 1.936v1.246c0 1.069.867 1.937 1.937 1.937h.588v6.163l-6.312 7.139v-4.473c-2.506 2.36-5.877 3.812-9.582 3.812-3.661.0-6.995-1.414-9.49-3.725v8.307c0 .982.796 1.779 1.778 1.779h15.518c.981.0 1.777-.797 1.777-1.779v-.088l8.836-10.01V7.654H30.815z"/><path d="M12.396 22.875c6.307.0 11.439-5.131 11.439-11.438C23.835 5.131 18.703.0 12.396.0 6.089.0.958 5.131.958 11.437c0 6.307 5.131 11.438 11.438 11.438zM11.453 2.103c.688.0 1.245.557 1.245 1.244S12.14 4.59 11.453 4.59c-.686.0-1.243-.557-1.243-1.243C10.21 2.66 10.767 2.103 11.453 2.103zM12.396 8.538c1.517.0 2.747 1.229 2.747 2.748.0 1.517-1.23 2.746-2.747 2.746-1.517.0-2.749-1.229-2.749-2.746C9.648 9.767 10.88 8.538 12.396 8.538zM3.031 11.173c-.398-5.032 3.887-7.37 4.07-7.467C7.72 3.375 8.487 3.611 8.818 4.233c.329.617.096 1.383-.52 1.713-.136.075-2.999 1.687-2.735 5.026.055.7-.466 1.311-1.165 1.366-.034.002-.069.003-.102.003C3.639 12.342 3.083 11.838 3.031 11.173z"/><circle cx="12.396" cy="11.285" r="1.773"/></g></g><g/><g/><g/><g/><g/><g/><g/><g/><g/><g/><g/><g/><g/><g/><g/></svg>