<svg id="Capa_1" xmlns="http://www.w3.org/2000/svg" xmlns:xlink="http://www.w3.org/1999/xlink" width="31.817" height="31.818" viewBox="0 0 31.817 31.818" style="enable-background:new 0 0 31.817 31.818"><g><path d="M30.672 27.234V14.335L17.459 8.786V6.269h1.28v1.147h4.519V3.439h-2.293V2.293h-3.506v-.01c0-.629-.521-1.137-1.146-1.137-.626.0-1.146.508-1.146 1.137v6.383l-14.02 5.669v12.899H0v3.438h13.482v-8.494h5.66v8.494h12.675v-3.438H30.672zM7.685 22.177h3.101v3.035H7.685V22.177zm-4.92.0h3.167v3.035H2.765V22.177zM15.907 17.626c-1.228.0-2.226-.996-2.226-2.228.0-1.229.997-2.225 2.226-2.225 1.229.0 2.228.995 2.228 2.225C18.135 16.628 17.139 17.626 15.907 17.626zM26.155 22.177h3.168v3.035h-3.168V22.177zM21.234 22.177h3.169v3.035h-3.169V22.177z"/></g><g/><g/><g/><g/><g/><g/><g/><g/><g/><g/><g/><g/><g/><g/><g/></svg>