<svg id="Capa_1" xmlns="http://www.w3.org/2000/svg" xmlns:xlink="http://www.w3.org/1999/xlink" width="31.67" height="31.669" viewBox="0 0 31.67 31.669" style="enable-background:new 0 0 31.67 31.669"><g><g><path d="M29.553 8.271c1.164.0 2.113-1.079 2.117-2.247.004-1.169-.94-2.255-2.111-2.259L14.542 4.003c-.003.0-.004.0-.007.0-.977.0-1.828.385-2.058 1.335L8.735 20.486l-4.846-7.428c-.639-.979-1.952-1.255-2.929-.617-.979.639-1.255 1.951-.616 2.93l7.521 11.53c.394.606 1.065.961 1.773.961.119.0.238.06.358.039.833-.144 1.499-.698 1.7-1.519L16.09 8.398l13.456-.127C29.55 8.271 29.55 8.271 29.553 8.271z"/><path d="M28.948 9.416H24.89l-8.438 10.042v3.803h8.435v3.123h4.061v-3.123h2.082v-3.592h-2.082V9.416v0zM24.887 19.669h-4.453l4.453-5.237v5.237z"/></g></g><g/><g/><g/><g/><g/><g/><g/><g/><g/><g/><g/><g/><g/><g/><g/></svg>