<svg id="Capa_1" xmlns="http://www.w3.org/2000/svg" xmlns:xlink="http://www.w3.org/1999/xlink" width="32" height="32.001" viewBox="0 0 32 32.001" style="enable-background:new 0 0 32 32.001"><g><g><path d="M11.695 17.555C8.37 16.952 7.536 13.74 7.5 13.592c-.164-.686-.846-1.105-1.538-.949-.688.161-1.116.851-.956 1.539.048.203 1.223 4.986 6.232 5.895.079.014.155.02.23.02.608.0 1.148-.434 1.26-1.053C12.854 18.35 12.392 17.684 11.695 17.555z"/><path d="M26.509 21.075c-.36-.36-.849-.562-1.358-.562-.508.0-.998.202-1.355.563l-1.33-1.33c3.547-4.856 3.129-11.724-1.254-16.106C18.864 1.292 15.745.0 12.426.0 9.107.0 5.987 1.292 3.642 3.64 1.292 5.986.0 9.106.0 12.425.0 15.743 1.292 18.863 3.64 21.21c2.346 2.349 5.466 3.642 8.785 3.642 2.67.0 5.209-.839 7.322-2.387l1.329 1.328c-.361.359-.563.85-.563 1.357.0.51.202.998.563 1.358l4.89 4.892c.801.801 2.098.801 2.898.0l2.537-2.537c.8-.801.8-2.098.0-2.897L26.509 21.075zM12.424 21.006c-2.291.0-4.448-.895-6.067-2.514-1.62-1.62-2.513-3.775-2.513-6.067s.893-4.448 2.513-6.069c1.619-1.619 3.776-2.513 6.067-2.513s4.447.894 6.067 2.513c3.345 3.347 3.345 8.79.0 12.136C16.872 20.111 14.716 21.006 12.424 21.006z"/><circle cx="6.52" cy="10.051" r="1.255"/></g></g><g/><g/><g/><g/><g/><g/><g/><g/><g/><g/><g/><g/><g/><g/><g/></svg>