<svg id="Capa_1" xmlns="http://www.w3.org/2000/svg" xmlns:xlink="http://www.w3.org/1999/xlink" width="462.4" height="462.4" viewBox="0 0 462.4 462.4" style="enable-background:new 0 0 462.4 462.4"
	><g><path d="M156.23 140.896c-1.258 12.131 6.821 27.057 33.246 32.6 39.746 8.323 51.422 34.646 49.348 54.658-2.237 21.611-19.251 38.583-41.235 42.65v18.074c0 5.63-4.57 10.2-10.2 10.2s-10.2-4.57-10.2-10.2v-17.81c-26.534-3.461-41.453-20.135-46.322-34.666-1.789-5.338 1.095-11.118 6.439-12.907 5.352-1.788 11.125 1.102 12.907 6.44 3.305 9.88 15.021 21.42 37.168 21.42 18.734.0 29.852-12.723 31.151-25.296 1.258-12.131-6.82-27.057-33.245-32.599-39.746-8.323-51.421-34.646-49.348-54.659 2.237-21.61 19.251-38.583 41.235-42.649V78.078c0-5.63 4.569-10.2 10.2-10.2s10.2 4.569 10.2 10.2v17.81c26.527 3.461 41.453 20.135 46.321 34.66 1.789 5.345-1.095 11.125-6.433 12.913-5.372 1.795-11.125-1.102-12.913-6.433-3.312-9.887-15.028-21.427-37.169-21.427C168.647 115.6 157.529 128.323 156.23 140.896zM450.446 450.446c-7.963 7.969-18.408 11.954-28.846 11.954-10.438.0-20.883-3.985-28.846-11.954.0.0-103.918-104.027-104.74-105.047-29.077 18.558-63.587 29.355-100.641 29.355C83.892 374.755.0 290.863.0 187.381S83.892.0 187.381.0s187.381 83.892 187.381 187.381c0 37.053-10.798 71.563-29.355 100.64 1.02.816 105.046 104.741 105.046 104.741C466.385 408.687 466.385 434.514 450.446 450.446zM187.381 335.716c81.927.0 148.342-66.415 148.342-148.342.0-81.926-66.415-148.342-148.342-148.342-81.926.0-148.342 66.416-148.342 148.342C39.039 269.301 105.455 335.716 187.381 335.716z"/></g><g/><g/><g/><g/><g/><g/><g/><g/><g/><g/><g/><g/><g/><g/><g/></svg>