<svg id="Capa_1" xmlns="http://www.w3.org/2000/svg" xmlns:xlink="http://www.w3.org/1999/xlink" width="31.957" height="31.957" viewBox="0 0 31.957 31.957" style="enable-background:new 0 0 31.957 31.957"><g><g><path d="M13.908 12.165c1.702-1.7 3.962-2.636 6.363-2.636 2.404.0 4.653.936 6.354 2.636.362.363.75.753.964 1.163v-5.49c0-1.536-1.244-2.78-2.779-2.78h-8.296l-.026-.053-1.072-2.123c-.354-.699-1.07-1.14-1.854-1.14H4.318c-.85.0-1.538.688-1.538 1.538v1.725.052C1.245 5.057.0 6.302.0 7.837v12.726c0 1.535 1.245 2.779 2.78 2.779h9.914c-.924-1.39-1.42-3.085-1.42-4.834C11.274 16.103 12.208 13.864 13.908 12.165z"/><path d="M19.838 21.592c-1.986-.359-2.484-2.277-2.505-2.365-.099-.41-.506-.66-.918-.566-.412.096-.667.508-.57.919.028.121.728 2.976 3.719 3.519.045.008.092.012.139.012.361.0.684-.26.75-.629C20.529 22.064 20.252 21.666 19.838 21.592z"/><path d="M31.6 26.609l-2.92-2.918c-.447-.446-1.175-.446-1.621.0l-.793-.793c2.115-2.897 1.865-6.999-.75-9.613-1.399-1.4-3.262-2.172-5.244-2.172-1.979.0-3.841.771-5.242 2.172-1.401 1.401-2.173 3.263-2.173 5.244.0 1.979.771 3.844 2.173 5.244 1.4 1.399 3.262 2.173 5.242 2.173 1.597.0 3.109-.5 4.371-1.423l.795.791-.002.002c-.446.447-.446 1.173.0 1.621l2.92 2.918c.477.479 1.25.479 1.729.0l1.516-1.515c.229-.229.357-.541.357-.864C31.957 27.152 31.829 26.841 31.6 26.609zM23.895 22.148c-.967.969-2.254 1.502-3.623 1.502-1.364.0-2.652-.533-3.62-1.502-.968-.965-1.501-2.252-1.501-3.619s.533-2.655 1.501-3.622c.549-.55 1.204-.959 1.917-1.21.541-.19 1.115-.29 1.703-.29 1.369.0 2.656.534 3.623 1.5.68.679 1.127 1.503 1.342 2.373C25.659 18.971 25.211 20.832 23.895 22.148z"/><circle cx="16.749" cy="17.112" r=".75"/></g></g><g/><g/><g/><g/><g/><g/><g/><g/><g/><g/><g/><g/><g/><g/><g/></svg>