<svg id="Capa_1" xmlns="http://www.w3.org/2000/svg" xmlns:xlink="http://www.w3.org/1999/xlink" viewBox="0 0 296.333 296.333" style="enable-background:new 0 0 296.333 296.333"><g><path d="M282.415 167.247c-4.814-28.692-26.1-31.246-33.61-31.246-1.626.0-2.538.12-2.538.12-6.473-12.948-16.164-16.186-24.285-16.186-8.123-.001-14.56 3.238-14.56 3.238-6.475-12.95-16.392-16.188-24.639-16.188-8.247-.001-14.81 3.236-14.81 3.236V75.964c0-13.004-9.747-19.505-19.501-19.505-9.752.0-19.499 6.501-19.499 19.505.0 26.011.0 86.059.0 86.059-45 10.979-4 78.539 9 98.864v24.946c0 5.5 5.473 10.5 10.973 10.5h103c5.5.0 9.027-5 9.027-10.5v-23.666C284.973 224.689 286.548 191.865 282.415 167.247z"/><circle cx="148.195" cy="19.604" r="19.604"/><circle cx="89.384" cy="76.063" r="19.604"/><circle cx="89.384" cy="19.604" r="19.604"/><circle cx="31.749" cy="76.063" r="19.604"/><circle cx="31.749" cy="19.604" r="19.604"/><circle cx="89.384" cy="132.521" r="19.604"/><circle cx="31.749" cy="132.521" r="19.604"/></g><g/><g/><g/><g/><g/><g/><g/><g/><g/><g/><g/><g/><g/><g/><g/></svg>