<svg id="Capa_1" xmlns="http://www.w3.org/2000/svg" xmlns:xlink="http://www.w3.org/1999/xlink" viewBox="0 0 297 297" style="enable-background:new 0 0 297 297"><g><path d="M166 126v-8.586c0-9.28-7.279-16.414-16.561-16.414h-.213c-9.281.0-17.227 7.134-17.227 16.414V126H166z"/><path d="M233 24.667C233 11.044 222.031.0 208.5.0h-120C74.969.0 64 11.044 64 24.667v247.666C64 285.956 74.969 297 88.5 297h120c13.531.0 24.5-11.044 24.5-24.667V24.667zM131.833 201C120.805 201 111 191.89 111 180.861v-35c0-5.487 2-10.428 6-14.011v-14.437C117 99.863 131.674 86 149.227 86h.213C166.992 86 181 99.863 181 117.414v15.006c3 3.53 5 8.233 5 13.441v35C186 191.89 177.861 201 166.833 201h-35zM164.333 263.667c0 8.284-6.716 15-15 15-8.284.0-15-6.716-15-15 0-8.284 6.716-15 15-15C157.617 248.667 164.333 255.383 164.333 263.667zM167 24.721c0 4.02-3.259 7.279-7.279 7.279H137.28c-4.02.0-7.279-3.259-7.279-7.279v-.441c0-4.02 3.259-7.279 7.279-7.279h22.441c4.02.0 7.279 3.259 7.279 7.279V24.721z"/><path d="M134.755 155.219c0 4.997 2.245 9.399 6.245 11.984v11.566c0 3.949 3.553 7.146 7.502 7.146 3.947.0 7.498-3.197 7.498-7.146V167.81c5-2.462 7.578-7.177 7.578-12.592.0-7.959-6.453-14.412-14.412-14.412C141.208 140.807 134.755 147.26 134.755 155.219z"/></g><g/><g/><g/><g/><g/><g/><g/><g/><g/><g/><g/><g/><g/><g/><g/></svg>