<svg id="Capa_1" xmlns="http://www.w3.org/2000/svg" xmlns:xlink="http://www.w3.org/1999/xlink" width="121.666" height="121.666" viewBox="0 0 121.666 121.666" style="enable-background:new 0 0 121.666 121.666"><g><g><path d="M61.448.0h-1.23c-9.051 16.663-49.193 15.29-49.193 23.995v38.3c0 52.734 48.98 59.264 49.789 59.365v.006c0 0 .018-.002.02-.002l.018.002v-.006c.811-.104 49.789-6.631 49.789-59.365v-38.3C110.64 15.29 70.498 16.663 61.448.0zm41.1 62.295c0 18.91-6.975 33.215-20.729 42.514-8.875 6-18.008 8.099-20.986 8.654-2.988-.561-12.115-2.658-20.986-8.654C26.093 95.51 19.118 81.205 19.118 62.295V26.903c2.563-.992 7.258-2.142 10.889-3.032 9.482-2.322 20.494-5.022 28.613-10.616l2.213-1.518 2.211 1.518c8.119 5.594 19.133 8.294 28.613 10.616 3.633.891 8.325 2.04 10.891 3.032V62.295z"/><path d="M98.026 29.91c-2.063-.574-4.383-1.151-6.633-1.706-9.526-2.354-20.323-5.022-28.909-10.651l-1.531-1.004-.004 13.016h-7.881v7.972c-7.111 2.528-11.331 8.256-11.331 15.45.0 8.015 5.078 13.687 15.092 16.856 3.474 1.101 4.693 2.401 4.696 2.404l.165.151c.003.002.215.188.24.471.012.131-.164.305-.215.343l-.088.068c-.01.007-.964.774-3.215.786-2.833.0-5.998-.916-8.685-2.515l-4.854-2.89-4.34 15.23 2.658 1.782c2.351 1.583 5.759 2.817 9.453 3.437v7.312h8.286l-.003 12.414 1.201-.264c3.723-.818 11.021-2.909 18.086-7.728 12.301-8.389 18.537-21.406 18.537-38.69V30.112L98.026 29.91zM47.714 74.998c3.279 1.95 7.206 3.068 10.775 3.068 1.611.0 2.624-.211 4.167-.871 1.762-.752 2.481-2.422 2.504-2.475.26-.587.391-1.213.391-1.861.0-.699-.127-1.329-.398-1.945-.707-1.512-2.183-2.484-2.32-2.571-1.154-.794-2.688-1.538-4.692-2.274-6.148-2.244-12.434-5.555-12.434-13.082.0-6.084 3.95-10.658 10.566-12.233l.764-.183v-7.006l6.224.025v6.574l.918.069c3.197.241 5.921.977 8.572 2.315l.299.151-2.123 7.295-.811-.375c-1.361-.643-3.89-1.835-7.52-2.111l-.512-.06c-.21-.011-.42-.021-.643-.021-4.632.0-6.283 2.358-6.283 4.565.0 2.614 2.541 4.263 6.383 5.943l.119.048c.447.191.914.386 1.441.599 8.261 3.126 11.63 7.035 11.63 13.495.0 6.194-4.106 11.063-10.728 12.713-.012.003-1.108.288-1.893.415l-.834.135-.003 7.083h-4.662v-6.886L55.7 85.463c-3.982-.32-7.933-1.516-10.311-3.117l-.243-.162 2.124-7.449L47.714 74.998z"/></g></g><g/><g/><g/><g/><g/><g/><g/><g/><g/><g/><g/><g/><g/><g/><g/></svg>