<svg id="Capa_1" xmlns="http://www.w3.org/2000/svg" xmlns:xlink="http://www.w3.org/1999/xlink" width="31.425" height="31.424" viewBox="0 0 31.425 31.424" style="enable-background:new 0 0 31.425 31.424"><g><g><path d="M15.935 11.745c-2.904.0-5.37 2.182-5.737 5.074-.036.289.053.574.244.791.192.221.469.341.758.341h9.468c.289.0.564-.12.758-.341.193-.217.281-.506.244-.791C21.305 13.924 18.836 11.745 15.935 11.745zM12.534 15.897c.608-1.296 1.917-2.169 3.401-2.169 1.483.0 2.792.874 3.399 2.169H12.534z"/><path d="M30.37 15.897h-2.423c-.793-5.939-5.896-10.52-12.012-10.52-6.118.0-11.221 4.581-12.014 10.52H1.053C.494 15.897.0 16.389.0 16.948v8.087c0 .559.494 1.013 1.053 1.013h3.915v0h1.188v0h3.132v0h.864v0h3.131v0h.864v0h3.132v0h.863v0h3.131v0h.865v0h3.131v0h1.188v0h3.914c.562.0 1.053-.454 1.053-1.013v-8.087C31.422 16.389 30.928 15.897 30.37 15.897zM29.37 23.996l-3.119.009-.002-1.953H25.27v1.944h-3.133v-1.944h-.863v1.944h-3.131v-1.944h-.865v1.944h-3.131v-1.944h-.864v1.944h-3.131v-1.944H9.287v1.944H6.155v-1.944H5.178l-.027 1.944H2.052v-6.047h2.789c.537.0.981-.415 1.01-.952.014-.266.039-.527.074-.788l1.87.247c.007-.05.052-.329.161-.748l-1.851-.486c.234-.995.614-1.932 1.116-2.788l1.67.915c.128-.234.271-.472.429-.708l-1.552-1.042c.584-.802 1.283-1.514 2.072-2.112l1.098 1.38c.201-.158.414-.311.641-.453l-.93-1.482c.828-.509 1.734-.902 2.695-1.156l.427 1.72c.259-.065.529-.119.81-.162l-.272-1.764c.53-.086 1.071-.131 1.624-.131.45.0.892.031 1.327.088l-.209 1.745c.27.033.529.078.777.135l.395-1.706c.971.226 1.889.592 2.73 1.075l-.992 1.534c.223.145.436.3.637.464l1.191-1.462c.82.587 1.553 1.295 2.168 2.098l-1.697 1.186c.168.24.322.483.465.721l1.81-1.07c.526.856.93 1.798 1.184 2.801l-1.896.655c.128.371.207.657.25.819l1.849-.479c.047.315.08.63.099.953.026.537.472.952 1.008.952h2.344L29.37 23.996v0z"/></g></g><g/><g/><g/><g/><g/><g/><g/><g/><g/><g/><g/><g/><g/><g/><g/></svg>