<svg id="Capa_1" xmlns="http://www.w3.org/2000/svg" xmlns:xlink="http://www.w3.org/1999/xlink" width="31.806" height="31.806" viewBox="0 0 31.806 31.806" style="enable-background:new 0 0 31.806 31.806"><g><g><path d="M1.286 12.465c-.685.263-1.171.879-1.268 1.606-.096.728.213 1.449.806 1.88l6.492 4.724L30.374 2.534 9.985 22.621l8.875 6.458c.564.41 1.293.533 1.964.33.67-.204 1.204-.713 1.444-1.368l9.494-25.986c.096-.264.028-.559-.172-.756-.199-.197-.494-.259-.758-.158L1.286 12.465z"/><path d="M5.774 22.246l.055.301 1.26 6.889c.094.512.436.941.912 1.148.476.206 1.025.162 1.461-.119 1.755-1.132 4.047-2.634 3.985-2.722L5.774 22.246z"/></g></g><g/><g/><g/><g/><g/><g/><g/><g/><g/><g/><g/><g/><g/><g/><g/></svg>