<svg id="Capa_1" xmlns="http://www.w3.org/2000/svg" xmlns:xlink="http://www.w3.org/1999/xlink" viewBox="0 0 297.891 297.891" style="enable-background:new 0 0 297.891 297.891"><g><path d="M264.148 40.644 153.978.89C152.334.297 150.64.0 148.917.0c-1.731.0-3.449.3-5.101.899L34.041 40.653c-5.933 2.152-10.096 7.789-10.096 14.101v94.191c0 21.029 6.778 42.061 19.713 62.51 9.915 15.673 23.715 31.043 40.802 45.686 28.57 24.482 56.918 38.604 58.109 39.193 2.096 1.037 4.402 1.557 6.681 1.557 2.245.0 4.505-.504 6.577-1.512 1.191-.58 29.526-14.482 58.123-38.867 17.104-14.584 30.697-29.954 40.619-45.682 12.93-20.493 19.375-41.65 19.375-62.885V54.754C273.945 48.432 270.095 42.788 264.148 40.644zM47.945 148.875V65.969c0-3.156 1.934-5.975 4.901-7.051l93.312-33.947c.832-.301 1.787-.523 2.787-.523v124.498h101.711c.006.0.013.135.013.221-.02 27.129-13.684 54.016-40.607 80.195-21.025 20.445-44.912 35.036-57.199 41.919-1.139.639-2.917.94-3.917.94.0-2.333.0-121.982.0-123.314L47.945 148.875z"/></g><g/><g/><g/><g/><g/><g/><g/><g/><g/><g/><g/><g/><g/><g/><g/></svg>