<svg id="Capa_1" xmlns="http://www.w3.org/2000/svg" xmlns:xlink="http://www.w3.org/1999/xlink" width="412.879" height="412.879" viewBox="0 0 412.879 412.879" style="enable-background:new 0 0 412.879 412.879"><g><g><path d="M199.982 176.808c-2.065-4.935-7.03-8.097-11.772-10.043l-32.049-14.755-15.397-12.985-24.678 24.546 10.333 69.083c.037.24-.024.486-.167.682l-10.92 14.943c-.174.238-.451.381-.746.381s-.572-.143-.746-.381l-10.919-14.943c-.144-.195-.203-.441-.168-.682l10.333-69.083-24.677-24.547L73.012 152.01l-32.048 14.755c-4.743 1.946-10.426 6.39-11.773 10.043.0.0-34.834 82.937-15.94 82.937h202.673C234.816 259.745 199.982 176.808 199.982 176.808z"/><path d="M114.585 138.558c32.776.0 57.236-30.539 57.794-81.752C172.734 21.268 155.809.0 114.585.0 73.359.0 56.431 21.268 56.793 56.806 57.348 108.019 81.807 138.558 114.585 138.558z"/><path d="M383.687 329.941c-2.064-4.936-7.03-8.098-11.771-10.043l-32.05-14.756-15.396-12.984-24.692 24.562 10.348 69.186c.036.238-.023.484-.167.682l-10.92 14.943c-.174.238-.45.379-.746.379-.295.0-.571-.141-.745-.379l-10.918-14.943c-.145-.195-.204-.441-.168-.682l10.348-69.186-24.692-24.562-15.397 12.984-32.048 14.756c-4.743 1.945-10.207 6.34-11.772 10.043.0.0-34.834 82.938-15.94 82.938h202.674C418.521 412.877 383.687 329.941 383.687 329.941z"/><path d="M240.498 209.939c.557 51.213 25.015 81.752 57.792 81.752s57.236-30.539 57.795-81.752c.355-35.539-16.57-56.807-57.795-56.807C257.064 153.133 240.135 174.401 240.498 209.939z"/><path d="M162.375 383.572c-41.489.0-78.795-23.887-96.431-60.586l9.228-1.771c2.342-.45 4.265-2.112 5.047-4.366.781-2.252.302-4.748-1.259-6.554l-27.263-31.512c-1.28-1.479-3.129-2.308-5.045-2.308-.418.0-.839.039-1.259.119-2.34.449-4.265 2.114-5.047 4.366l-13.663 39.367c-.781 2.254-.302 4.751 1.259 6.554 1.56 1.805 3.966 2.639 6.303 2.188l11.476-2.202c19.917 46.272 65.62 76.724 116.654 76.724 5.528.0 10.01-4.48 10.01-10.01C172.384 388.053 167.903 383.572 162.375 383.572z"/><path d="M201.348 31.93c41.489.0 78.794 23.886 96.431 60.586l-9.229 1.771c-2.341.449-4.266 2.112-5.046 4.365-.781 2.252-.303 4.75 1.258 6.554l27.264 31.512c1.279 1.48 3.129 2.307 5.045 2.307.418.0.839-.038 1.258-.119 2.342-.449 4.266-2.114 5.049-4.366l13.662-39.366c.781-2.253.302-4.751-1.259-6.554-1.56-1.804-3.966-2.639-6.304-2.188l-11.475 2.203c-19.918-46.272-65.622-76.724-116.655-76.724-5.529.0-10.011 4.48-10.011 10.01C191.337 27.449 195.819 31.93 201.348 31.93z"/></g></g><g/><g/><g/><g/><g/><g/><g/><g/><g/><g/><g/><g/><g/><g/><g/></svg>