<svg id="Capa_1" xmlns="http://www.w3.org/2000/svg" xmlns:xlink="http://www.w3.org/1999/xlink" width="445.393" height="445.393" viewBox="0 0 445.393 445.393" style="enable-background:new 0 0 445.393 445.393"><g><path d="M435.9 95.801c-7.085-7.949-17.258-12.505-27.907-12.505H116.246c-7.833.0-15.388 2.448-21.651 6.909-1.082-7.161-2.135-14.008-2.931-18.789-8.228-49.32-54.073-49.32-81.464-49.32-5.637.0-10.2 4.569-10.2 10.2.0 5.63 4.563 10.2 10.2 10.2 32.763.0 56.345 2.319 61.343 32.28 2.339 14.028 7.161 47.573 7.657 51.034.007.062.014.123.021.17.007.041.007.082.014.115l26.214 169.885c1.761 12.335 9.622 22.501 20.176 27.907-4.168 6.031-6.63 13.335-6.63 21.209.0 14.695 8.493 27.458 21.005 33.544-.462 2.347-.721 4.774-.721 7.256.0 20.618 16.775 37.4 37.4 37.4 17.082.0 31.498-11.526 35.952-27.2h118.503c4.454 15.674 18.87 27.2 35.952 27.2 20.624.0 37.399-16.782 37.399-37.4.0-20.617-16.775-37.399-37.399-37.399-17.082.0-31.498 11.525-35.952 27.199H212.629c-4.454-15.674-18.87-27.199-35.952-27.199-10.812.0-20.536 4.637-27.37 12.002-5.882-2.673-9.914-8.568-9.914-15.402.0-9.377 7.629-17 17-17h230.615c19.026.0 35-14.253 37.148-33.062l20.991-170.088C446.366 114.365 442.993 103.744 435.9 95.801zM367.085 368.896c9.37.0 17 7.623 17 17s-7.63 17-17 17c-9.371.0-17-7.623-17-17s7.622000000000014-17 17-17zM176.685 368.896c9.371.0 17 7.623 17 17s-7.629 17-17 17c-9.37.0-17-7.623-17-17s7.6229999999999905-17 17-17z"/></g><g/><g/><g/><g/><g/><g/><g/><g/><g/><g/><g/><g/><g/><g/><g/></svg>