<svg id="Capa_1" xmlns="http://www.w3.org/2000/svg" xmlns:xlink="http://www.w3.org/1999/xlink" viewBox="0 0 511 511" style="enable-background:new 0 0 511 511"><g><path d="M407.5 260c-4.142.0-7.5 3.358-7.5 7.5v128c0 9.098-7.402 16.5-16.5 16.5h-352c-9.098.0-16.5-7.402-16.5-16.5V243h264.5c4.142.0 7.5-3.358 7.5-7.5s-3.358-7.5-7.5-7.5H15v-33h312.5c4.142.0 7.5-3.358 7.5-7.5s-3.358-7.5-7.5-7.5H15v-.5c0-9.098 7.402-16.5 16.5-16.5h328c4.142.0 7.5-3.358 7.5-7.5s-3.358-7.5-7.5-7.5h-328C14.131 148 0 162.131.0 179.5v216C0 412.869 14.131 427 31.5 427h352c17.369.0 31.5-14.131 31.5-31.5v-128C415 263.358 411.642 260 407.5 260z"/><path d="M367.5 339c4.142.0 7.5-3.358 7.5-7.5s-3.358-7.5-7.5-7.5h-24c-4.142.0-7.5 3.358-7.5 7.5s3.358 7.5 7.5 7.5h24z"/><path d="M191.5 324h-56c-4.142.0-7.5 3.358-7.5 7.5s3.358 7.5 7.5 7.5h56c4.142.0 7.5-3.358 7.5-7.5S195.642 324 191.5 324z"/><path d="M191.5 364h-56c-4.142.0-7.5 3.358-7.5 7.5s3.358 7.5 7.5 7.5h56c4.142.0 7.5-3.358 7.5-7.5S195.642 364 191.5 364z"/><path d="M296 371.5c0 4.142 3.358 7.5 7.5 7.5h64c4.142.0 7.5-3.358 7.5-7.5s-3.358-7.5-7.5-7.5h-64C299.358 364 296 367.358 296 371.5z"/><path d="M47.5 324c-4.142.0-7.5 3.358-7.5 7.5s3.358 7.5 7.5 7.5h56c4.142.0 7.5-3.358 7.5-7.5s-3.358-7.5-7.5-7.5h-56z"/><path d="M504.117 109.664l-18.781-18.781C480.898 86.445 474.997 84 468.719 84s-12.179 2.444-16.617 6.883L245.058 297.927c-2.411 2.411-4.233 5.254-5.417 8.449l-23.173 62.517c-1.019 2.748-.343 5.838 1.729 7.91 1.432 1.432 3.349 2.197 5.305 2.197.874.0 1.756-.153 2.605-.468l62.517-23.173v0c3.196-1.185 6.039-3.008 8.449-5.418l207.043-207.044c4.438-4.438 6.883-10.34 6.883-16.617C511 120.004 508.555 114.102 504.117 109.664zM266.259 347.652l-18.911-18.911 5.081-13.707 27.537 27.537L266.259 347.652zM261.402 302.796l181.394-181.394 10.098 10.098L271.5 312.894 261.402 302.796zM241.611 344.218l9.171 9.171-14.573 5.402L241.611 344.218zM292.204 333.598 282.106 323.5 463.5 142.106l10.098 10.098L292.204 333.598zM493.51 132.291l-9.306 9.306-30.802-30.802 9.306-9.306c1.605-1.605 3.74-2.49 6.011-2.49s4.405.884 6.01 2.49l18.781 18.781c1.605 1.605 2.49 3.74 2.49 6.01C496 128.551 495.116 130.686 493.51 132.291z"/><path d="M55.5 275h184c4.142.0 7.5-3.358 7.5-7.5s-3.358-7.5-7.5-7.5h-184c-8.547.0-15.5 6.953-15.5 15.5v16c0 8.547 6.953 15.5 15.5 15.5h160c4.142.0 7.5-3.358 7.5-7.5s-3.358-7.5-7.5-7.5h-160c-.276.0-.5-.224-.5-.5v-16C55 275.224 55.224 275 55.5 275z"/></g><g/><g/><g/><g/><g/><g/><g/><g/><g/><g/><g/><g/><g/><g/><g/></svg>