<svg id="Capa_1" xmlns="http://www.w3.org/2000/svg" xmlns:xlink="http://www.w3.org/1999/xlink" width="90.402" height="90.402" viewBox="0 0 90.402 90.402" style="enable-background:new 0 0 90.402 90.402"><g><g><path d="M21.534 69.762c-.873-6.03-1.543-12.093-2.318-18.139-.203-1.582-.181-2.959 1.506-3.852.435-.229.876-1.232.709-1.614-.221-.499-1.017-.938-1.614-1.015-.489-.062-1.051.449-1.579.707-.604.291-1.185.75-1.817.843-1.76.259-2.042.969-1.22 2.582.689 1.351 1.293 2.823 1.533 4.307.606 3.749 1.146 7.522 1.412 11.308.264 3.761 1.977 13.982-.274 17.938-.365.469.264 1.205.643 1.635.223.254 1.104.327 1.32.111.914-.904 1.813-1.54 3.146-.941.107.047.273-.037.47-.07 1.138-.398.801-1.189.506-2.034C23.372 79.855 21.785 71.489 21.534 69.762z"/><path d="M73.982 46.693c-.633-.092-1.213-.551-1.817-.844-.528-.256-1.091-.768-1.579-.705-.598.074-1.395.515-1.613 1.014-.168.381.273 1.386.709 1.615 1.687.892 1.709 2.269 1.506 3.851-.776 6.046-1.445 12.108-2.319 18.14-.25 1.727-2.041 10.093-2.626 11.764-.296.845-.633 1.636.505 2.033.197.033.363.119.472.07 1.334-.598 2.231.038 3.146.942.218.216 1.099.142 1.321-.111.379-.43 1.008-1.167.643-1.635-2.251-3.955-.335-14.177-.07-17.938.266-3.785.807-7.558 1.412-11.307.24-1.482.844-2.957 1.532-4.307C76.021 47.661 75.741 46.951 73.982 46.693z"/><path d="M86.402.0H4C1.794.0.0 1.794.0 4v82.402c0 2.206 1.794 4 4 4h82.402c2.206.0 4-1.794 4-4V4C90.402 1.794 88.608.0 86.402.0zM48.831 43.339c1.438 1.348 3.438 2.553 5.845 3.417 1.426.512 2.865.846 4.24.997 1.198 1.537 1.666 3.001 1.176 3.808-.39.64-1.482.955-2.93.847-1.777-.136-3.922-.897-5.887-2.092-1.389-.845-2.621-1.87-3.561-2.935C48.596 45.941 48.965 44.559 48.831 43.339zM50.992 21.709c.93.657 2.027 1.224 3.223 1.652 1.109.398 2.234.652 3.309.752.1.179.186.331.251.443.172.299.487.487.835.495.008.001.015.001.023.001.336.0.65-.172.834-.456l.342-.535c.293-.047.576-.105.842-.181 2.881 1.707 4.045 3.718 3.676 4.747-.253.705-1.262 1.235-2.7 1.417-1.768.225-4.022-.092-6.187-.868-4.405-1.58-7.07-4.508-6.512-6.071C49.141 22.514 49.965 21.962 50.992 21.709zM50.083 17.095c.238-.664 1.359-1.093 2.856-1.093.402.0.826.04 1.258.099.436 1.989 1.383 4.194 2.215 5.89-.513-.112-1.031-.252-1.549-.438-1.588-.569-3.014-1.442-3.911-2.394C50.223 18.385 49.896 17.613 50.083 17.095zM64.445 36.138c-.253.705-1.262 1.235-2.7 1.417-1.769.225-4.022-.092-6.187-.868-4.405-1.58-7.07-4.509-6.512-6.071.196-.546.701-.89 1.266-1.106 1.201.824 2.633 1.554 4.242 2.131 2.004.719 4.039 1.094 5.877 1.094.524.0 1.035-.031 1.521-.093.167-.021.321-.055.48-.083C63.969 33.839 64.768 35.239 64.445 36.138zM64.445 43.743c-.252.705-1.262 1.235-2.7 1.417-1.769.225-4.022-.092-6.187-.868-4.405-1.58-7.07-4.508-6.512-6.071.174-.48.697-.879 1.473-1.143 1.186.799 2.584 1.509 4.156 2.072 2.004.719 4.037 1.094 5.877 1.094.523.0 1.033-.031 1.521-.093.101-.013.188-.034.286-.049C63.936 41.396 64.776 42.821 64.445 43.743zM50.789 83.348c.708-.646 1.209-1.735 2.162-1.871.952-.137.918.482 2.003 1.104-1.313.805-2.065 1.406-2.923 1.71C51.764 84.385 51.211 83.684 50.789 83.348zM52.656 78.794c-3.359 4.05-11.707 2.128-13.529-.466-1.398-1.716-1.255-3.759.269-4.886 1.101-.815 2.059-1 2.968.458.775 1.242 1.808 2.363 2.893 3.355.351.32 1.465.329 1.824.016 1.054-.915 1.851-2.117 2.849-3.104.543-.535 1.504-1.351 1.905-1.179.847.364 2.019 1.288 2.028 1.996C53.881 76.284 53.545 78.076 52.656 78.794zM39.225 81.487c.768-.005 1.676.929 2.892 1.666-.816.625-1.358 1.243-1.548 1.149-.86-.424-1.622-1.05-2.418-1.604C38.518 82.271 38.457 81.493 39.225 81.487zM43.021 85.503c2.142-1.375 4.094-1.396 6.241-.034.701.445 1.361.75 1.984.934H41.119C41.724 86.225 42.36 85.928 43.021 85.503zM53.646 86.402c1.272-.458 2.25-1.717 2.871-3.729.359-1.174.484-4.253 2.326-4.974 2.736-2.36 6.814-5.694 5.908-9.022-.417-1.045-.799-2.728-1.682-4.082-2.596-3.982-7.031-4.588-10.53-1.555-1.272 1.104-2.473 2.305-3.601 3.557-2.014 2.236-3.506 2.248-5.514.031-1.131-1.248-2.322-2.457-3.597-3.554-3.643-3.136-8.28-2.319-10.845 1.847-2.052 3.334-1.71 5.92.969 8.859.834.915 1.342 2.125 2 3.201 2.87 1.958 3.427 3.931 3.865 5.623.53 2.049 1.533 3.332 2.848 3.797H4V4h39.452c-.337.212-.574.571-.574 1 0 .479.282.889.688 1.082.221.266 3.973.078 3.973.078.076.0.139.062.139.138V7.04c0 .076-.062.138-.139.138h-3.052c-.663.0-1.2.538-1.2 1.201.0.663.537 1.201 1.2 1.201h2.247c0 .008-.002.016-.002.024v.792h-1.741c-.522.0-.963.336-1.128.802-1.029.382-1.765 1.371-1.765 2.533v.895c-.771-.351-1.733-.545-2.862-.545-.763.0-1.567.096-2.385.266.022-.709-.063-1.351-.305-1.873-1.482-3.21-7.731-4.735-8.439-4.899-.04-.009-.085-.016-.126-.021.0.0-.217-.021-.559-.021-1.081.0-3.048.218-4.064 1.678-.733 1.054-.783 2.463-.146 4.188.026.07.063.136.104.199-.153-.096-.312-.174-.461-.224-.469-.155-1.118.236-1.688.385-.649.169-1.308.506-1.946.474-1.775-.089-2.189.554-1.697 2.295.414 1.458.72 3.021.666 4.523-.134 3.795-.337 7.601-.813 11.365-.473 3.741-.264 7.36-3.24 10.802-.45.389.023 1.233.313 1.729.168.291 1.018.535 1.273.366 1.072-.709 2.076-1.158 3.269-.312.096.068.275.018.475.023 1.193-.169 1.017-1.012.892-1.897-.249-1.753-.695-3.527-.605-5.27.316-6.086.838-12.163 1.253-18.244.107-1.592.398-2.938 2.226-3.485.471-.14 1.1-1.04 1.01-1.446-.003-.013-.011-.027-.015-.041l2.646 2.976 1.951 3.046c-.021.386.023.768.155 1.136.059.164.134.321.223.471-3.15 2.186-4.639 4.947-3.815 7.242.294.821.852 1.5 1.626 2.024-1.707 1.813-2.358 3.779-1.746 5.486.311.866.912 1.577 1.756 2.111-1.701 1.811-2.367 3.79-1.756 5.494.609 1.7 2.327 2.812 4.835 3.13.011.002.021.002.032.004-1.015 1.916-1.141 3.754-.286 5.158.842 1.385 2.462 2.126 4.604 2.126.247.0.5-.01.76-.03 2.206-.166 4.709-1.043 7.048-2.465.56-.34 1.086-.709 1.593-1.09.016.001.03.006.047.006h4.379c.021.0.04.004.062.006.199.149.396.301.605.444.033.083.054.175.054.271v.547c0 .396-.323.72-.721.72h-4.379c-.664.0-1.201.538-1.201 1.201.0.342.144.647.373.866.192.408.603.691 1.083.691h3.868c.272.0.495.223.495.497v.483c0 .273-.223.496-.495.496h-3.868c-.663.0-1.2.537-1.2 1.201.0.479.282.89.688 1.082.221.267.549.438.921.438h3.052c.076.0.139.062.139.138v.381c0 .076-.062.139-.139.139h-3.056c-.663.0-1.2.537-1.2 1.201s.537 1.201 1.2 1.201h2.248c0 .008-.002.016-.002.023v.792h-1.742c-.663.0-1.201.538-1.201 1.201s.538 1.2 1.201 1.2h2.045c1.155.0 2.098-.941 2.098-2.099v-1.096c0-.183-.044-.353-.116-.508.642-.462 1.062-1.208 1.062-2.058v-.381c0-.408-.105-.789-.277-1.131.637-.531 1.045-1.331 1.045-2.225v-.483c0-.625-.201-1.202-.539-1.676.483-.442.828-1.033.959-1.7 1.907.956 3.859 1.549 5.623 1.684.26.02.514.029.76.029 2.145.0 3.764-.742 4.604-2.126.854-1.405.729-3.241-.286-5.159.012.0.021-.002.032-.002 2.508-.318 4.226-1.431 4.835-3.131.611-1.704-.055-3.684-1.755-5.494.843-.534 1.444-1.245 1.755-2.111.611-1.707-.039-3.673-1.746-5.486.773-.523 1.332-1.203 1.626-2.024.823-2.295-.666-5.056-3.815-7.242.09-.15.164-.307.224-.471.299-.834.183-1.733-.263-2.617l1.002-1.565 2.279-2.561c.158.432.603.966.955 1.072 1.828.547 2.118 1.893 2.227 3.485.414 6.082.938 12.158 1.254 18.244.09 1.742-.357 3.517-.605 5.27-.125.886-.303 1.728.891 1.896.199-.006.38.046.476-.022 1.192-.846 2.197-.397 3.271.312.254.17 1.104-.074 1.272-.365.289-.496.763-1.34.313-1.729-2.978-3.442-2.769-7.062-3.24-10.802-.477-3.764-.68-7.57-.812-11.365-.055-1.502.252-3.065.664-4.523.493-1.741.079-2.384-1.695-2.295-.641.032-1.299-.305-1.947-.474-.545-.143-1.162-.503-1.625-.396.623-1.708.57-3.105-.158-4.151-1.016-1.46-2.982-1.678-4.062-1.678-.344.0-.56.021-.56.021-.042.004-.087.012-.126.021-.709.164-6.957 1.689-8.439 4.899-.217.469-.308 1.034-.308 1.658-.346-.032-.687-.05-1.017-.05-1.195.0-2.213.211-3.004.604v-.954c0-.857-.399-1.62-1.021-2.115.137-.278.219-.586.219-.916V9.604c0-.182-.043-.353-.115-.507.641-.462 1.062-1.209 1.062-2.057V6.659c0-.349.108-2.059-1.284-2.658h37.608l.003 82.402L53.646 86.402v0zM37.96 23.362c1.194-.428 2.294-.995 3.224-1.652 1.027.252 1.851.805 2.063 1.397.56 1.562-2.105 4.491-6.512 6.071-2.163.776-4.418 1.093-6.186.868-1.438-.182-2.447-.712-2.7-1.417-.35-.973.674-2.821 3.218-4.462l.276.432c.182.284.496.456.834.456.008.0.016.0.023-.001.346-.008.662-.196.835-.495.061-.105.139-.244.229-.406.125.005.249.013.377.013C35.003 24.164 36.496 23.887 37.96 23.362zM34.29 22.21c.816-1.643 1.777-3.824 2.259-5.825.928-.25 1.843-.383 2.687-.383 1.497.0 2.618.429 2.856 1.093.186.518-.14 1.29-.869 2.064-.897.952-2.322 1.824-3.911 2.394C36.285 21.921 35.255 22.139 34.29 22.21zM29.739 32.559c.16.028.314.062.481.083.487.062.997.093 1.521.093 1.839.0 3.873-.375 5.877-1.094 1.61-.577 3.041-1.307 4.243-2.131.563.217 1.068.56 1.265 1.106.56 1.563-2.105 4.491-6.512 6.071-2.163.775-4.418 1.093-6.186.868-1.438-.182-2.447-.712-2.7-1.417C27.406 35.239 28.207 33.839 29.739 32.559zM29.814 40.102c.097.015.187.037.286.049.487.062.997.093 1.521.093 1.839.0 3.873-.375 5.878-1.094 1.571-.563 2.97-1.272 4.154-2.072.775.264 1.301.663 1.473 1.143.56 1.563-2.105 4.491-6.512 6.071-2.163.775-4.418 1.093-6.186.868-1.438-.182-2.448-.712-2.7-1.417C27.398 42.821 28.239 41.396 29.814 40.102zM33.259 47.753c1.375-.151 2.815-.485 4.241-.997 2.406-.863 4.404-2.069 5.844-3.417-.134 1.22.235 2.602 1.115 4.042-.938 1.064-2.171 2.09-3.56 2.935-1.964 1.194-4.109 1.956-5.887 2.092-1.446.108-2.54-.207-2.93-.847C31.593 50.754 32.06 49.29 33.259 47.753z"/></g></g><g/><g/><g/><g/><g/><g/><g/><g/><g/><g/><g/><g/><g/><g/><g/></svg>