<svg id="Capa_1" xmlns="http://www.w3.org/2000/svg" xmlns:xlink="http://www.w3.org/1999/xlink" width="31.654" height="31.654" viewBox="0 0 31.654 31.654" style="enable-background:new 0 0 31.654 31.654"><g><path d="M15.827.001C7.098.001.0 7.1.0 15.829c0 8.727 7.099 15.824 15.827 15.824s15.828-7.099 15.828-15.824C31.652 7.099 24.555.001 15.827.001zM28.812 16.226l-.851-1.092.396-2.733c.299 1.094.459 2.239.459 3.428C28.818 15.962 28.816 16.093 28.812 16.226zM27.309 9.755l-.744 5.139-2.299 1.849-7.039-2.053-1.052-4.926 4.271-4.039 5.821 2.383C26.652 8.629 27.002 9.178 27.309 9.755zM18.054 27.046l-4.807-1.209-.486-6.871 3.834-2.979 6.574 1.916.594 4.858L18.054 27.046zM18.701 3.159l.688 1.608-4.524 4.279H9.84L7.204 6.12c2.295-2.042 5.315-3.283 8.623-3.283C16.816 2.837 17.777 2.949 18.701 3.159zM6.194 7.121l2.674 2.968-1.8 4.4L2.841 16.19c-.004-.121-.005-.242-.005-.361C2.836 12.482 4.109 9.425 6.194 7.121zM2.967 17.669l4.393-1.768 3.986 3.158.46 6.518-2.794 1.306C5.804 24.897 3.521 21.557 2.967 17.669zM18.854 28.462V28.22l6.28-4.711h1.163C24.504 25.944 21.882 27.735 18.854 28.462z"/></g><g/><g/><g/><g/><g/><g/><g/><g/><g/><g/><g/><g/><g/><g/><g/></svg>