<svg id="Capa_1" xmlns="http://www.w3.org/2000/svg" xmlns:xlink="http://www.w3.org/1999/xlink" width="32.074" height="32.074" viewBox="0 0 32.074 32.074" style="enable-background:new 0 0 32.074 32.074"><g><g><path d="M16.265 12.053c-1.962.0-3.576 1.551-3.742 3.431h7.482C19.839 13.604 18.226 12.053 16.265 12.053z"/><path d="M11.061.0h10.948v1.99H11.061z"/><path d="M16.265 20.672c-2.394.0-4.379-1.869-4.708-4.082H3.317v14.07c0 .781.633 1.414 1.414 1.414h5.333v-2.52c0-.277.189-.467.466-.467h12.016c.275.0.459.188.459.467v2.52h4.531c.674.0 1.221-.547 1.221-1.223V16.59h-7.782C20.643 18.803 18.657 20.672 16.265 20.672z"/><path d="M23.005.0v2.52c0 .277-.187.466-.461.466H10.53c-.277.0-.466-.189-.466-.466V0H4.748c-.79.0-1.43.64-1.43 1.43v14.054h8.201c.168-2.433 2.231-4.432 4.746-4.432 2.514.0 4.576 1.999 4.744 4.432h7.748V1.222C28.757.547 28.21.0 27.534.0H23.005z"/><path d="M16.265 19.67c1.84.0 3.373-1.421 3.693-3.08h-7.391C12.89 18.249 14.424 19.67 16.265 19.67z"/><path d="M11.061 30.084h10.948v1.99H11.061z"/></g></g><g/><g/><g/><g/><g/><g/><g/><g/><g/><g/><g/><g/><g/><g/><g/></svg>