<svg id="Capa_1" xmlns="http://www.w3.org/2000/svg" xmlns:xlink="http://www.w3.org/1999/xlink" width="560.979" height="560.979" viewBox="0 0 560.979 560.979" style="enable-background:new 0 0 560.979 560.979"><g><path d="M373.795 91.455v172.339 172.34c0 12.539-16.436 17.558-23.201 7.004-38.713-60.337-76.948-91.978-211.228-98.682l42.391 137.802h-63.355L75.527 342.892C33.524 340.968.0 306.273.0 263.794.0 220.077 35.476 184.5 79.193 184.5c184.144.0 227.432-31.525 271.395-100.056C357.359 73.897 373.795 78.916 373.795 91.455zM482.854 280.495c0 33.027-11.111 63.362-27.832 86.312.0.0-6.697 9.173-17.816 9.173-11.443.0-21.549-9.608-21.549-21.665.0-7.119 4.264-12.906 4.264-12.906 7.957-11.635 19.611-29.505 19.611-60.914s-11.654-49.286-19.611-60.921c0 0-4.264-5.787-4.264-12.906.0-12.057 10.105-21.665 21.549-21.665 11.119.0 17.816 9.173 17.816 9.173C471.75 217.133 482.854 247.468 482.854 280.495zM466.771 155.471c0 0-9.777-6.991-9.777-17.945.0-12.329 10.125-21.747 21.664-21.747 7.42.0 14.254 5.229 14.254 5.229 26.186 19.584 68.066 69.769 68.066 159.487s-41.887 139.903-68.074 159.487c0 0-6.834 5.229-14.252 5.229-11.533.0-21.666-9.418-21.666-21.746.0-10.955 9.779-17.945 9.779-17.945 30.477-22.487 50.877-67.436 50.877-125.024S497.242 177.958 466.771 155.471z"/></g><g/><g/><g/><g/><g/><g/><g/><g/><g/><g/><g/><g/><g/><g/><g/></svg>