<svg id="Capa_1" xmlns="http://www.w3.org/2000/svg" xmlns:xlink="http://www.w3.org/1999/xlink" viewBox="0 0 287.525 287.525" style="enable-background:new 0 0 287.525 287.525"><g><path d="M262.43 226.638v-121.75c0-13.785-10.382-24.25-24.167-24.25h-189c-13.785.0-25.833 10.465-25.833 24.25v121.739c0-.002.587.011.715.011H262.43zM207.447 156.922c-.78 1.46-19.609 35.762-63.684 35.762-44.075.0-62.905-34.302-63.686-35.762-1.182-2.213-1.18-4.869.006-7.079.783-1.46 19.681-35.751 63.68-35.751 43.998.0 62.894 34.291 63.678 35.751C208.627 152.053 208.629 154.709 207.447 156.922z"/><path d="M287.525 265.638c-2.375-12-12.317-24-24.066-24H24.144c-11.751.0-21.754 12-24.144 24H287.525z"/><path d="M168.917 153.387c0-13.889-11.299-25.188-25.188-25.188s-25.188 11.299-25.188 25.188c0 13.889 11.3 25.188 25.188 25.188S168.917 167.275 168.917 153.387zM143.729 143.199c5.617.0 10.188 4.57 10.188 10.188.0 5.617-4.57 10.188-10.188 10.188-5.618.0-10.188-4.57-10.188-10.188C133.541 147.77 138.111 143.199 143.729 143.199z"/><path d="M142.93 53.888c4.143.0 7.5-3.357 7.5-7.5v-17c0-4.143-3.357-7.5-7.5-7.5-4.143.0-7.5 3.357-7.5 7.5v17C135.43 50.53 138.787 53.888 142.93 53.888z"/><path d="M167.068 66.007c1.919.0 3.84-.732 5.304-2.197l12.02-12.021c2.929-2.929 2.929-7.678-.001-10.607-2.93-2.93-7.679-2.929-10.606.001l-12.019 12.021c-2.929 2.929-2.929 7.678.001 10.606C163.23 65.275 165.149 66.007 167.068 66.007z"/><path d="M113.987 63.81c1.465 1.465 3.384 2.197 5.304 2.197 1.919.0 3.839-.732 5.303-2.196 2.93-2.929 2.93-7.678.001-10.606l-12.02-12.021c-2.929-2.93-7.678-2.929-10.606-.001-2.93 2.929-2.93 7.678-.001 10.607L113.987 63.81z"/></g><g/><g/><g/><g/><g/><g/><g/><g/><g/><g/><g/><g/><g/><g/><g/></svg>