<svg id="Capa_1" xmlns="http://www.w3.org/2000/svg" xmlns:xlink="http://www.w3.org/1999/xlink" viewBox="0 0 433 433" style="enable-background:new 0 0 433 433"><path d="M423.5 225.28h-24.102v-49.625c7.218-3.529 12.202-10.949 12.202-19.51v-37.938c0-18.162-9.575-34.122-23.936-43.122 7.23-7.029 11.734-16.848 11.734-27.703.0-21.318-17.344-38.662-38.662-38.662s-38.662 17.344-38.662 38.662c0 10.855 4.504 20.674 11.734 27.704-14.36 9-23.935 24.959-23.935 43.122v37.938c0 8.562 4.983 15.981 12.202 19.51v49.625H285.5c-5.247.0-9.5 4.253-9.5 9.5v50.5h-19.702v-49.625c7.218-3.529 12.202-10.949 12.202-19.51v-37.938c0-18.162-9.575-34.122-23.936-43.122 7.23-7.029 11.734-16.848 11.734-27.704.0-21.318-17.344-38.662-38.662-38.662-21.318.0-38.662 17.344-38.662 38.662.0 10.855 4.504 20.674 11.734 27.704-14.36 9-23.935 24.959-23.935 43.122v37.938c0 8.562 4.983 15.981 12.202 19.51v49.625H147.5c-5.247.0-9.5 4.253-9.5 9.5v50.5h-24.802v-49.625c7.218-3.529 12.202-10.948 12.202-19.51v-37.938c0-18.162-9.575-34.122-23.936-43.122 7.23-7.029 11.734-16.848 11.734-27.704.0-21.318-17.344-38.662-38.662-38.662-21.318.0-38.662 17.344-38.662 38.662.0 10.855 4.504 20.674 11.734 27.704-14.36 9-23.935 24.959-23.935 43.122v37.938c0 8.562 4.984 15.981 12.202 19.51v49.625H9.5c-5.247.0-9.5 4.253-9.5 9.5v60c0 5.247 4.253 9.5 9.5 9.5s9.5-4.253 9.5-9.5v-50.5h128.5c5.247.0 9.5-4.253 9.5-9.5v-50.5h128.5c5.247.0 9.5-4.253 9.5-9.5v-50.5h128.5c5.247.0 9.5-4.253 9.5-9.5S428.747 225.28 423.5 225.28zM94.198 167.382c0 10.841-8.82 19.662-19.662 19.662-10.841.0-19.662-8.82-19.662-19.662s8.82-19.662 19.662-19.662C85.378 147.72 94.198 156.541 94.198 167.382zM84.036 345.28v-48.74c0-5.247-4.253-9.5-9.5-9.5s-9.5 4.253-9.5 9.5v48.74H54.875v-56.934c0-5.247-4.253-9.5-9.5-9.5-1.49.0-2.702-1.212-2.702-2.702v-37.938c0-17.57 14.294-31.864 31.863-31.864 17.57.0 31.864 14.294 31.864 31.864v37.938c0 1.49-1.212 2.702-2.702 2.702-5.247.0-9.5 4.253-9.5 9.5v56.934H84.036zM237.298 107.382c0 10.841-8.82 19.662-19.662 19.662-10.841.0-19.662-8.82-19.662-19.662s8.82-19.662 19.662-19.662C228.478 87.72 237.298 96.541 237.298 107.382zM227.136 285.28v-48.74c0-5.247-4.253-9.5-9.5-9.5s-9.5 4.253-9.5 9.5v48.74h-10.162v-56.934c0-5.247-4.253-9.5-9.5-9.5-1.49.0-2.702-1.212-2.702-2.702v-37.938c0-17.57 14.294-31.864 31.863-31.864 17.57.0 31.864 14.294 31.864 31.864v37.938c0 1.49-1.212 2.702-2.702 2.702-5.247.0-9.5 4.253-9.5 9.5v56.934H227.136zM380.398 47.382c0 10.841-8.82 19.662-19.662 19.662s-19.662-8.82-19.662-19.662 8.82-19.662 19.662-19.662S380.398 36.541 380.398 47.382zM370.236 225.28v-48.74c0-5.247-4.253-9.5-9.5-9.5s-9.5 4.253-9.5 9.5v48.74h-10.162v-56.934c0-5.247-4.253-9.5-9.5-9.5-1.49.0-2.702-1.212-2.702-2.702v-37.938c0-17.57 14.294-31.864 31.863-31.864 17.57.0 31.864 14.294 31.864 31.864v37.938c0 1.49-1.212 2.702-2.702 2.702-5.247.0-9.5 4.253-9.5 9.5v56.934H370.236z"/><g/><g/><g/><g/><g/><g/><g/><g/><g/><g/><g/><g/><g/><g/><g/></svg>