<svg id="Capa_1" xmlns="http://www.w3.org/2000/svg" xmlns:xlink="http://www.w3.org/1999/xlink" width="96.766" height="96.767" viewBox="0 0 96.766 96.767" style="enable-background:new 0 0 96.766 96.767"><g><g><path d="M30.237 3.464l7.35-3.454C34.649.069 32.026 1.393 30.237 3.464z"/><path d="M42.637 1.262l-8.02 3.77 9.715-2.572C43.809 2.006 43.244 1.602 42.637 1.262z"/><path d="M25.375 9.332c-.098.212-.184.416-.26.603-.408.993-.547 1.328-1.92 1.58l.533 2.906c2.955-.542 3.629-2.171 4.117-3.36.012-.026.02-.042.027-.064.512 5.034 4.744 8.965 9.91 8.965 5.514.0 9.98-4.468 9.98-9.98.0-1.707-.432-3.313-1.184-4.719L29.033 9.906l-.201-2.155 5.785-2.719-5.893 1.56h-.001l-.35.093c-.004.011-.006.021-.01.031-.393.116-1.004.251-1.324.135-.92-.337-1.971-1.487-2.293-2.511L21.93 5.225C22.455 6.891 23.844 8.519 25.375 9.332z"/><path d="M32.869 96.451c2.529.0 4.578-2.051 4.578-4.58v-1.51l-9.15 1.575C28.333 94.436 30.363 96.451 32.869 96.451z"/><path d="M37.447 76.615 28.289 80.464V81.591L37.447 80.304z"/><path d="M75.854 23.925v-3.022h.652c1.225.0 2.213-.991 2.213-2.214V8.035c0-1.222-.988-2.213-2.213-2.213h-1.744c.018-.168.027-.344.027-.527.0-.135-.01-.263-.018-.39h.461c1.596.0 2.895-1.298 2.895-2.892h-.986c0 1.052-.857 1.907-1.908 1.907h-.654c-.225-.637-.618-1.025-1.104-1.025-.483.0-.877.388-1.104 1.025h-7.387V0h-2.955v3.92h-10.18c-1.053.0-1.908-.855-1.908-1.907h-.984c0 1.594 1.297 2.892 2.893 2.892H62.03v32.407c-6.297-2.289-8.726-5.428-11.273-8.739-1.764-2.29-5.115-5.945-10.484-8.034l-2.489 2.504-2.41-2.531c-.006.002-.016.003-.025.004-1.271.305-18.973 6.689-16.412 30.672.021.211.066.411.119.608l-1.008.043.598 1.983 2.113.276c.555.341 1.199.536 1.879.563v36.037h-.346v1.896c-.572.433-.947 1.114-.947 1.888v1.861h4.748v-1.861c0-.772-.377-1.453-.949-1.888v-1.896h-.432V54.164c1.285-.736 2.094-2.176 1.938-3.747-.586-5.861-.164-9.963.92-13.002.0.0.0 10.788.0 13.831s.717 3.522.717 3.522l.002 23.886 9.16-3.849-.002-14.776c.182.008.363.022.545.022.037.0.07-.004.107-.004V91.87c0 2.529 2.049 4.58 4.578 4.58s4.58-2.051 4.58-4.58V54.996c0 0 .744-.621.744-3.75V37.362c2.785 2.922 6.703 5.863 13.438 7.926.195.06.394.103.59.13v41.076h-1.68c-3.131.0-5.807 1.951-6.896 4.697-1.17.356-2.028 1.433-2.028 2.719.0 1.578 1.276 2.856 2.854 2.856 1.576.0 2.855-1.278 2.855-2.856.0-.756-.301-1.44-.779-1.952.728-1.48 2.234-2.513 3.994-2.513h5.598H67c1.76.0 3.268 1.032 3.993 2.513-.479.511-.778 1.196-.778 1.952.0 1.578 1.276 2.856 2.854 2.856 1.576.0 2.854-1.278 2.854-2.856.0-1.287-.856-2.362-2.026-2.719-1.091-2.748-3.769-4.697-6.896-4.697h-.926-.84-.252V44.606c.59-.47 1.058-1.11 1.293-1.888.172-.562.199-1.132.121-1.679 2.082.438 4.383 1.058 5.355 1.37.854.28 1.666.419 2.412.419.965.0 1.818-.233 2.5-.694 1.09-.735 1.725-2.033 1.836-3.753.172-2.399-.703-4.294-1.549-6.125-.459-.995-.932-2.024-1.234-3.123-.373-1.35-.613-3.641-.562-5.208H75.854zM73.52 3.87c.002.006.016.036.021.05h-.062C73.493 3.906 73.508 3.877 73.52 3.87zM73.172 4.905h.605c.012.125.026.244.026.39.0.195-.014.37-.034.527h-.591c-.021-.157-.037-.332-.037-.527C73.143 5.149 73.161 5.03 73.172 4.905zM76.397 32.511c.853 1.843 1.654 3.584 1.496 5.828-.1 1.549-.629 2.656-1.566 3.29-1.057.712-2.61.783-4.387.201-.723-.231-3.338-.955-5.686-1.436-.232-.718-.674-1.358-1.271-1.835V4.905h7.195c-.01.127-.02.255-.02.39.0.184.01.359.026.527h-1.741c-1.226.0-2.213.991-2.213 2.213v10.654c0 1.223.987 2.214 2.213 2.214h.612v1.333h1.681v-1.333h1.434v3.022h.375c-.049 1.622.199 3.978.582 5.369C75.444 30.441 75.928 31.494 76.397 32.511zM73.569 15.779c-1.287.0-2.328-1.042-2.328-2.328.0-1.286 2.328-4.929 2.328-4.929s2.326 3.644 2.326 4.929C75.895 14.736 74.854 15.779 73.569 15.779z"/><path d="M28.289 90.129 37.447 88.553V87.384L28.289 86.244z"/><path d="M28.289 83.4V84.436L37.447 85.574V82.113z"/></g></g><g/><g/><g/><g/><g/><g/><g/><g/><g/><g/><g/><g/><g/><g/><g/></svg>