<svg id="Capa_1" xmlns="http://www.w3.org/2000/svg" xmlns:xlink="http://www.w3.org/1999/xlink" width="97.592" height="97.593" viewBox="0 0 97.592 97.593" style="enable-background:new 0 0 97.592 97.593"><g><g><circle cx="48.743" cy="10.099" r="10.099"/><path d="M51.257 20.784l-2.515 2.532-2.439-2.561c-.008.002-.017.003-.025.005-6.917 2.688-19.183 13.338-17.854 18.78 1.061 4.349 6.08 6.253 9.398 7.078.057.022.106.055.165.075.14.047.279.089.419.133v5.025c0 2.939.667 3.814.667 3.814l.002 37.292c.001 2.56 2.075 4.633 4.634 4.633 2.56.0 4.634-2.075 4.634-4.633L48.34 60.74c.184.009.367.023.552.023.036.0.071-.005.107-.005V92.96c0 2.56 2.075 4.633 4.634 4.633 2.56.0 4.635-2.073 4.635-4.633l.001-37.312c.606-1.125.812-2.398.812-3.795v-4.446c.226-.068.449-.138.673-.214.031-.011.058-.029.088-.04 3.351-.756 8.209-2.623 9.321-7.187C70.465 34.618 59.572 23.402 51.257 20.784zM59.079 34.987c1.87 1.756 2.319 2.772 2.421 3.11-.353.367-1.284.803-2.421 1.151V34.987zM38.299 39.149c-1.137-.348-2.068-.785-2.421-1.151.102-.337.551-1.354 2.421-3.11V39.149zM55.809 50.434c0 .584-.475 1.057-1.058 1.057h-12.02c-.583.0-1.057-.473-1.057-1.057v-2.833c.641.104 1.221.172 1.692.207.097.007.191.011.286.011 2.037.0 3.758-1.575 3.906-3.639.156-2.16-1.469-4.037-3.628-4.192-.444-.032-1.301-.147-2.257-.381v-7.004c0-.583.474-1.056 1.057-1.056h2.675v-.462c0-.583.473-1.057 1.056-1.057h4.56c.583.0 1.056.473 1.056 1.057v.462h2.675c.583.0 1.058.473 1.058 1.056v7.063c-.853.194-1.599.292-2.002.321-2.159.156-3.785 2.033-3.628 4.192.148 2.063 1.869 3.639 3.906 3.639.096.0.19-.003.286-.011.407-.029.9-.086 1.438-.168V50.434z"/></g></g><g/><g/><g/><g/><g/><g/><g/><g/><g/><g/><g/><g/><g/><g/><g/></svg>