<svg id="Capa_1" xmlns="http://www.w3.org/2000/svg" xmlns:xlink="http://www.w3.org/1999/xlink" width="31.992" height="31.993" viewBox="0 0 31.992 31.993" style="enable-background:new 0 0 31.992 31.993"><g><g><path d="M1.815 2.116C.813 2.116.0 2.928.0 3.931v24.13c0 1.002.813 1.815 1.815 1.815h28.362c1.003.0 1.815-.813 1.815-1.815V3.931c0-1.002-.812-1.815-1.815-1.815H1.815zM29.877 27.76H2.116V4.231h27.761V27.76z"/><path d="M20.238 9.788c-3.428.0-6.36 2.169-7.495 5.207-.325.87-.503 1.811-.503 2.793.0 4.411 3.588 8 8 8s8-3.588 8-8c0-4.322-3.446-7.854-7.734-7.995C20.417 9.789 20.328 9.788 20.238 9.788zM20.081 17.833l-5.979-2.529c0-.001.0-.002.001-.004.862-2.351 3.334-4.033 5.981-4.033L20.081 17.833z"/><path d="M4.914 8.712h18.807c.576.0 1.043-.481 1.043-1.058.0-.577-.467-1.058-1.043-1.058H4.914c-.577.0-1.045.481-1.045 1.058C3.869 8.231 4.336 8.712 4.914 8.712z"/><path d="M10.344 11.453H4.937c-.577.0-1.045.48-1.045 1.058.0.578.468 1.058 1.045 1.058h5.408c.066.0.13-.012.193-.023.197-.037.373-.135.514-.265.207-.191.338-.471.338-.775C11.389 11.929 10.921 11.453 10.344 11.453z"/><path d="M4.915 18.423h4.331c.577.0 1.044-.45 1.044-1.026.0-.577-.468-1.027-1.044-1.027H4.915c-.577.0-1.044.45-1.044 1.027C3.871 17.973 4.338 18.423 4.915 18.423z"/><path d="M10.344 21.225H4.937c-.577.0-1.045.449-1.045 1.026s.468 1.027 1.045 1.027h5.408c.577.0 1.045-.45 1.045-1.027C11.389 21.674 10.921 21.225 10.344 21.225z"/></g></g><g/><g/><g/><g/><g/><g/><g/><g/><g/><g/><g/><g/><g/><g/><g/></svg>