<svg id="Capa_1" xmlns="http://www.w3.org/2000/svg" xmlns:xlink="http://www.w3.org/1999/xlink" width="31.557" height="31.557" viewBox="0 0 31.557 31.557" style="enable-background:new 0 0 31.557 31.557"><g><g><path d="M9.008 1.803H22.31l.002 4.658c.002.002 1.765 1.91 1.765 1.91V1.283C24.076.576 23.522.0 22.815.0H8.489C7.782.0 7.208.576 7.208 1.283v2.102h1.801L9.008 1.803v0z"/><path d="M9.173 6.879h8.341l-.012 3.279c-.002.361.141.703.396.959.255.256.595.398.955.398h3.365v7.976h1.967v-7.742c0-.869-.351-1.705-.967-2.32l-3.539-3.549c-.617-.617-1.455-.965-2.328-.965h-8.75c-.771.0-1.395.629-1.395 1.398V19.49h1.966V6.879zM19.437 8.348l1.254 1.24-1.254-.002V8.348z"/><path d="M11.458 10.975h2.674c.532.0.964-.451.964-.984.0-.533-.432-.983-.964-.983h-2.674c-.532.0-.964.449-.964.982C10.494 10.523 10.926 10.975 11.458 10.975z"/><path d="M19.981 12.721h-8.522c-.532.0-.964.424-.964.955.0.533.432.955.964.955h8.522c.531.0.964-.422.964-.955C20.945 13.145 20.513 12.721 19.981 12.721z"/><path d="M19.981 16.379h-8.522c-.532.0-.964.451-.964.98.0.532.432.983.964.983h8.522c.531.0.964-.451.964-.983C20.945 16.83 20.513 16.379 19.981 16.379z"/><path d="M25.44 14.84v3.738l.625 1.021c.137.222.142.499.015.726-.127.228-.366.367-.626.367H6.068c-.26.0-.499-.141-.626-.365C5.315 20.099 5.32 19.822 5.456 19.6l.496-.812V15.05l-2.891 4.68c-.394.637-.603 1.372-.603 2.121v7.156c0 1.408 1.143 2.551 2.552 2.551h21.538c1.407.0 2.551-1.143 2.551-2.551V21.85c0-.757-.213-1.498-.615-2.141L25.44 14.84z"/></g></g><g/><g/><g/><g/><g/><g/><g/><g/><g/><g/><g/><g/><g/><g/><g/></svg>