<svg id="Capa_1" xmlns="http://www.w3.org/2000/svg" xmlns:xlink="http://www.w3.org/1999/xlink" width="31.881" height="31.882" viewBox="0 0 31.881 31.882" style="enable-background:new 0 0 31.881 31.882"><g><g><path d="M30.747 14.482c0-.534-.432-.967-.967-.967H16.767v17.33c0 .572.464 1.036 1.035 1.036h10.565c.572.0 1.037-.464 1.037-1.036V15.786h1.34L30.747 14.482v0z"/><path d="M13.929 9.756c0-1.543-.968-2.173-1.794-2.173h-4.47c-.827.0-1.886.63-1.886 2.173v10.672h9.337v-4.642h-1.187V9.756z"/><ellipse cx="11.654" cy="3.238" rx="3.276" ry="3.238"/><path d="M4.592 8.888c0-.643-1.146-1.163-1.79-1.163-.642.0-1.667.52-1.667 1.163v14.997h13.981v-2.318H4.592V8.888z"/><path d="M14.108 28.939c-.097-3.332-3.421-4.244-5.19-4.244-1.717.0-3.06.435-3.988 1.389-1.209 1.243-1.206 2.684-1.201 2.857-.331.312-.538.75-.538 1.24.0.938.761 1.699 1.701 1.699.939.0 1.7-.762 1.7-1.699.0-.49-.207-.931-.537-1.24.001-.021.001-.041.0-.062.0-.009.014-.527.543-1.072.474-.488 1.254-.736 2.32-.736.114.0 2.716.021 2.86 1.881-.327.309-.531.746-.531 1.23.0.938.761 1.7 1.701 1.7.939.0 1.699-.762 1.699-1.7C14.647 29.689 14.44 29.25 14.108 28.939z"/></g></g><g/><g/><g/><g/><g/><g/><g/><g/><g/><g/><g/><g/><g/><g/><g/></svg>