<svg id="Capa_1" xmlns="http://www.w3.org/2000/svg" xmlns:xlink="http://www.w3.org/1999/xlink" width="31.666" height="31.666" viewBox="0 0 31.666 31.666" style="enable-background:new 0 0 31.666 31.666"><g><g><path d="M30.073 17.717c0-.881-.715-1.595-1.596-1.595H3.188c-.881.0-1.595.714-1.595 1.595v1.014h1.968V29.3c0 1.308 1.06 2.366 2.365 2.366h19.862c1.308.0 2.365-1.061 2.365-2.366V18.73h1.92V17.717v0z"/><path d="M21.858 11.793h1.436c1.054.0 1.91-.866 1.91-1.919V1.54c0-.85-.697-1.54-1.549-1.54s-1.551.69-1.551 1.54v7.154h-1.357c-.373-.246-.817-.393-1.297-.393h-7.216c-1.335.0-2.428 1.102-2.428 2.437v3.81h12.052V11.793z"/><circle cx="15.844" cy="3.463" r="3.462"/></g></g><g/><g/><g/><g/><g/><g/><g/><g/><g/><g/><g/><g/><g/><g/><g/></svg>