<svg id="Capa_1" xmlns="http://www.w3.org/2000/svg" xmlns:xlink="http://www.w3.org/1999/xlink" width="31.641" height="31.64" viewBox="0 0 31.641 31.64" style="enable-background:new 0 0 31.641 31.64"><g><g><ellipse cx="13.828" cy="7.241" rx="5.559" ry="5.447"/><path d="M29.068 3.646c-1.471-.064-2.721 1.096-2.775 2.573-.135 3.576-.973 6.051-2.424 7.158-.37.283-.762.45-1.134.555-.985-.821-2.24-1.26-3.112-1.26h-5.794H8.035c-2.144.0-3.883 2.254-3.883 4.621v7.204h19.146v-4.634c.141-.219.27-.436.375-.645 1.053-.229 2.209-.68 3.32-1.502 2.876-2.121 4.438-5.923 4.645-11.299C31.695 4.943 30.544 3.702 29.068 3.646z"/><path d="M0 26.679h31.04v3.167H0z"/></g></g><g/><g/><g/><g/><g/><g/><g/><g/><g/><g/><g/><g/><g/><g/><g/></svg>