<svg id="Capa_1" xmlns="http://www.w3.org/2000/svg" xmlns:xlink="http://www.w3.org/1999/xlink" width="32.014" height="32.014" viewBox="0 0 32.014 32.014" style="enable-background:new 0 0 32.014 32.014"><g><g><path d="M23.981 18.383H8.07c-2.943.0-5.346 2.354-5.346 5.297v8.334h10.484l1.575-8.578c.059-.321.34-.558.668-.558l-1.46-2.485c-.064-.109-.065-.246-.002-.355.064-.109.181-.178.308-.178h4.012c.129.0.247.068.312.181.062.112.061.249-.007.356l-1.512 2.484h.006c.323.0.604.229.666.547l1.713 8.586h9.802v-8.332C29.283 20.734 26.924 18.383 23.981 18.383z"/><circle cx="16.025" cy="7.635" r="7.635"/></g></g><g/><g/><g/><g/><g/><g/><g/><g/><g/><g/><g/><g/><g/><g/><g/></svg>