<svg id="Capa_1" xmlns="http://www.w3.org/2000/svg" xmlns:xlink="http://www.w3.org/1999/xlink" width="49" height="49" viewBox="0 0 49 49" style="enable-background:new 0 0 49 49"><g><path d="M39.532 18.11c-3.527-8.303-13.118-12.174-21.42-8.647C9.81 12.994 5.938 22.583 9.467 30.887c3.526 8.302 13.117 12.174 21.418 8.646C39.188 36.002 43.06 26.413 39.532 18.11zM21.877 12.615c-7.417 3.152-11.212 11.225-9.237 18.793-.286-.493-.552-.999-.782-1.538-2.969-6.982.286-15.047 7.27-18.014 3.08-1.309 6.37-1.403 9.341-.505C26.271 11.307 24.03 11.7 21.877 12.615zM48.999 24.881c.002-.096-.003-.191-.006-.289-1.146-.576-2.452-1.985-3.651-3.923.433-2.237 1.153-4.019 2.02-4.967-.033-.09-.062-.18-.1-.27-1.319-.108-3.133-.981-5.034-2.408-.521-2.316-.577-4.324-.138-5.574-.068-.067-.129-.14-.196-.208-1.221.404-3.144.333-5.364-.189-1.273-1.891-2.026-3.663-2.083-4.945-.088-.041-.176-.073-.266-.112-1.011.856-2.906 1.517-5.259 1.853-2.01-1.272-3.471-2.653-4.042-3.848-.096-.003-.19.001-.289.001-.576 1.147-1.987 2.453-3.922 3.653-2.236-.432-4.018-1.153-4.966-2.021-.089.034-.182.064-.27.101-.106 1.321-.981 3.131-2.41 5.035C10.708 7.292 8.703 7.35 7.453 6.91 7.383 6.974 7.311 7.039 7.245 7.107c.405 1.219.331 3.141-.19 5.362-1.891 1.277-3.661 2.028-4.945 2.083-.039.089-.072.179-.114.266.856 1.011 1.519 2.908 1.855 5.259-1.273 2.01-2.653 3.47-3.85 4.04-.002.097.003.192.001.289 1.147.578 2.454 1.986 3.655 3.922-.433 2.236-1.153 4.019-2.022 4.965.039.093.068.184.102.271 1.321.107 3.133.979 5.034 2.407.522 2.316.579 4.325.136 5.574.072.07.133.144.2.209 1.222-.404 3.146-.335 5.362.188 1.277 1.892 2.031 3.664 2.084 4.946.086.041.176.072.264.11 1.011-.854 2.907-1.515 5.26-1.851 2.009 1.271 3.471 2.651 4.041 3.848.096.003.191-.002.288-.002.577-1.146 1.989-2.453 3.922-3.653 2.236.434 4.02 1.153 4.969 2.021.089-.034.18-.062.267-.1.11-1.32.984-3.132 2.411-5.034 2.317-.521 4.325-.578 5.574-.14.067-.064.137-.126.207-.196-.408-1.22-.334-3.141.188-5.36 1.893-1.276 3.664-2.03 4.947-2.084.039-.087.072-.175.11-.267-.855-1.01-1.517-2.906-1.852-5.259C46.419 26.909 47.801 25.449 48.999 24.881zM42.103 27.119c-.06.401-.119.8-.206 1.193-.067.312-.158.612-.243.921-.067.243-.125.489-.201.728-.112.343-.244.676-.374 1.012-.078.197-.147.401-.232.597-.136.315-.295.624-.45.933-.105.21-.204.423-.315.628-.146.264-.31.515-.467.769-.15.241-.298.488-.455.721-.138.198-.288.385-.434.579-.207.274-.408.552-.633.813-.12.145-.253.276-.377.413-.264.293-.528.584-.811.856-.112.112-.234.214-.354.32-.307.279-.61.558-.935.813-.146.116-.302.22-.448.331-.308.229-.612.458-.936.671-.259.168-.53.316-.8.474-.225.131-.445.271-.676.395-.517.269-1.048.519-1.598.739-1.132.456-2.282.787-3.437.999-1.156.213-2.351.312-3.573.288-.598-.012-1.188-.058-1.771-.124-.203-.024-.403-.068-.603-.101-.363-.057-.73-.108-1.083-.188-.334-.073-.662-.17-.991-.265-.219-.062-.441-.112-.656-.183-.361-.115-.709-.255-1.061-.394-.183-.072-.37-.136-.55-.213-.33-.145-.649-.31-.971-.472-.198-.099-.398-.19-.59-.297-.273-.153-.536-.322-.8-.487-.231-.145-.466-.282-.691-.438-.209-.144-.406-.302-.606-.455-.264-.2-.532-.396-.785-.609-.153-.129-.297-.271-.446-.405-.279-.257-.56-.51-.824-.78-.124-.127-.239-.264-.361-.398-.264-.29-.532-.582-.777-.888-.133-.168-.253-.345-.378-.516-.213-.285-.426-.567-.622-.865-.196-.302-.372-.62-.552-.938-.104-.181-.217-.354-.313-.539-.271-.52-.522-1.057-.745-1.608-.457-1.133-.789-2.285-1.001-3.441-.21-1.152-.313-2.346-.287-3.562.012-.597.057-1.185.124-1.765.026-.224.074-.442.109-.664.054-.344.104-.689.176-1.027.077-.348.176-.688.272-1.029.059-.207.106-.417.17-.619.12-.372.264-.734.408-1.097.068-.17.125-.344.198-.512.149-.341.317-.673.486-1.006.095-.185.18-.373.279-.554.161-.286.335-.561.51-.839.136-.217.264-.438.41-.649.155-.224.324-.436.489-.652.189-.248.373-.5.575-.739.143-.169.3-.329.449-.494.241-.264.48-.528.737-.777.144-.141.301-.27.451-.407.272-.249.548-.499.838-.73.185-.149.387-.286.581-.428.264-.193.524-.393.797-.573.327-.213.67-.408 1.014-.601.157-.088.306-.187.464-.27.521-.272 1.059-.523 1.615-.748 1.132-.457 2.284-.787 3.439-1 1.154-.211 2.345-.311 3.563-.287.598.012 1.19.055 1.773.125.191.023.38.065.569.094.376.057.753.113 1.123.193.322.072.642.166.961.255.234.063.466.118.69.191.355.114.696.25 1.043.385.188.074.381.14.565.22.326.142.644.305.96.464.2.101.403.194.601.302.271.151.535.322.8.486.229.145.463.282.686.435.217.147.417.311.626.467.259.194.517.385.763.593.168.141.319.293.48.439.269.243.534.484.787.742.145.146.271.304.409.456.247.271.495.542.725.828.158.198.306.412.456.619.185.25.373.499.544.759.237.363.457.745.669 1.129.065.116.139.225.199.343.273.525.527 1.066.752 1.627.456 1.135.789 2.289 1.002 3.447.21 1.153.31 2.341.283 3.556-.012.602-.055 1.196-.123 1.78C42.163 26.79 42.127 26.953 42.103 27.119z"/></g><g/><g/><g/><g/><g/><g/><g/><g/><g/><g/><g/><g/><g/><g/><g/></svg>