<svg id="Capa_1" xmlns="http://www.w3.org/2000/svg" xmlns:xlink="http://www.w3.org/1999/xlink" width="31.569" height="31.569" viewBox="0 0 31.569 31.569" style="enable-background:new 0 0 31.569 31.569"><g><g><path d="M9.635 12.041c3.595-1.193 6.812-.585 6.812-.585l.011.937c.016 1.514.43 1.652.43 1.652.979.765 1.867-.053 1.867-.053s6.262-4.61 6.426-4.731c.164-.122 1.133-.723 1.136-2.299.001-1.578-1.33-2.33-1.33-2.33s-5.17-3.52-6.212-4.229c-1.044-.71-1.629-.267-1.629-.267-.768.502-.698 1.16-.698 1.16v1.84c-5.81 1.193-9.875 4.722-9.875 4.722-5.587 4.751-4.049 11.353-4.049 11.353s.014.296.58.296c.643.0.65-.396.65-.396C4.02 16.863 6.04 13.234 9.635 12.041z"/><path d="M29.046 12.355c0 0-.015-.294-.578-.294-.646.0-.65.396-.65.396-.268 2.247-2.286 5.875-5.882 7.07-3.597 1.192-6.812.584-6.812.584l-.011-.937c-.015-1.518-.428-1.652-.428-1.652-.979-.766-1.869.053-1.869.053s-6.261 4.611-6.425 4.732c-.165.121-1.13.722-1.134 2.3-.004 1.575 1.327 2.329 1.327 2.329s5.168 3.519 6.211 4.229c1.043.711 1.63.269 1.63.269.767-.504.698-1.157.698-1.157v-1.843c5.811-1.191 9.875-4.724 9.875-4.724C30.585 18.958 29.046 12.355 29.046 12.355z"/></g></g><g/><g/><g/><g/><g/><g/><g/><g/><g/><g/><g/><g/><g/><g/><g/></svg>