<svg id="Capa_1" xmlns="http://www.w3.org/2000/svg" xmlns:xlink="http://www.w3.org/1999/xlink" width="31.956" height="31.957" viewBox="0 0 31.956 31.957" style="enable-background:new 0 0 31.956 31.957"><g><path d="M31.296 19.625c-.562-.516-1.435-.479-1.949.084l-2.453 2.675-3.134-2.875 3.171-3.455c.516-.563.479-1.436-.084-1.951l-.311-.283c-.562-.516-1.435-.479-1.95.083l-.401.437L12.894 3.981c-.309-.281-.74-.388-1.142-.273l-4.679 1.31L3.035 1.312C2.298.639 1.153.684.476 1.423-.2 2.159-.15 3.305.587 3.982l4.087 3.749c.018.017.04.022.06.036l-1.006 4.665c-.091.419.049.854.364 1.144l11.289 10.356-.4.438c-.516.562-.478 1.438.084 1.951l.31.283c.27.248.627.378.993.362.364-.018.71-.178.958-.446l3.169-3.454 3.133 2.875-2.451 2.673c-.246.271-.378.627-.361.992.018.365.179.71.447.958l.209.192c.562.516 1.438.479 1.95-.084l8.17-8.903c.248-.271.38-.627.362-.993-.017-.365-.177-.71-.446-.957L31.296 19.625zM7.236 7.612c.044-.048.06-.108.096-.159l4.425-1.238 10.688 9.805-5.538 6.036-2.741-2.516 1.953-2.129c.225-.244.21-.627-.037-.853-.243-.225-.626-.209-.853.037l-1.952 2.128-.89-.814 1.951-2.128c.227-.245.209-.627-.035-.852-.243-.224-.625-.209-.852.037l-1.953 2.127-.89-.815 1.952-2.128c.226-.245.21-.627-.037-.852-.243-.224-.625-.208-.853.037l-1.951 2.128-.891-.817 1.953-2.127c.225-.246.208-.628-.037-.854-.243-.224-.626-.208-.852.037L7.939 13.83l-1.704-1.564L7.236 7.612z"/></g><g/><g/><g/><g/><g/><g/><g/><g/><g/><g/><g/><g/><g/><g/><g/></svg>