<svg id="Capa_1" xmlns="http://www.w3.org/2000/svg" xmlns:xlink="http://www.w3.org/1999/xlink" width="414.8" height="414.8" viewBox="0 0 414.8 414.8" style="enable-background:new 0 0 414.8 414.8"
	><g><path d="M200.804 292.569c-24.249.0-47.417-10.396-63.56-28.532-16.368-18.381-23.8-42.099-20.93-66.79 4.59-39.413 36.631-70.72 76.187-74.453 2.802-.259 5.576-.395 8.31-.395 13.919.0 27.607 3.414 39.814 9.901l-39.012 61.261c-2.645 4.148-2.815 9.411-.448 13.729 2.373 4.318 6.902 6.997 11.818 6.997h72.645C282.171 258.468 245.582 292.569 200.804 292.569zM226.562 194.004l38.896-61.057c19.311 14.613 31.6 36.999 33.537 61.057H226.562zM340 0h-265.2C52.264.0 34 18.265 34 40.8V374c0 22.535 18.265 40.8 40.8 40.8H340c22.535.0 40.801-18.265 40.801-40.8V40.8C380.8 18.265 362.535.0 340 0zM207.399 402.899c-6.568.0-11.9-5.331-11.9-11.899.0-6.576 5.332-11.9 11.9-11.9 6.569.0 11.901 5.324 11.901 11.9C219.3 397.568 213.968 402.899 207.399 402.899zM333.199 367.2H81.6V47.6h251.599V367.2z"/></g><g/><g/><g/><g/><g/><g/><g/><g/><g/><g/><g/><g/><g/><g/><g/></svg>