<svg id="Capa_1" xmlns="http://www.w3.org/2000/svg" xmlns:xlink="http://www.w3.org/1999/xlink" viewBox="0 0 457.1 457.1" style="enable-background:new 0 0 457.1 457.1"><g><path d="M380.205 379.284l-87.681-50.912c-3.726-2.164-8.44-1.549-11.488 1.498l-30.476 30.476c-45.073-31.461-83.797-70.185-115.258-115.258l30.476-30.476c3.046-3.046 3.661-7.762 1.498-11.488l-50.912-87.681c-2.352-4.047-7.298-5.78-11.659-4.083l-25.456 9.899c-2.018.785-3.706 2.234-4.787 4.11l-34.645 60.109c-1.474 2.557-1.676 5.653-.547 8.379 24.501 59.151 59.879 112.098 105.151 157.37 45.271 45.272 98.219 80.65 157.369 105.151 1.168.484 2.403.723 3.636.723 1.645.0 3.282-.427 4.744-1.269l60.108-34.645c1.875-1.081 3.325-2.77 4.11-4.788l9.899-25.456C385.984 386.581 384.252 381.633 380.205 379.284zM89.253 137.753l14.762-5.741 43.161 74.331-28.264 28.263-38.076 1.529c-8.177-14.611-15.586-29.704-22.206-45.252L89.253 137.753zM91.809 254.71l26.353-1.058c33.555 48.659 75.174 90.278 123.833 123.834l-1.059 26.352c-30-18.679-57.787-40.754-83.08-66.047C132.564 312.498 110.488 284.711 91.809 254.71zM357.894 406.394l-53.131 30.623c-15.548-6.62-30.641-14.029-45.252-22.206l1.53-38.075 28.263-28.263 74.33 43.16L357.894 406.394z"/><path d="M384.314.0H183.301c-18.878.0-34.236 15.358-34.236 34.237v60.754c0 18.878 15.358 34.237 34.236 34.237h3.845l-10.668 34.914c-1.174 3.839.193 8.002 3.414 10.398 1.68 1.25 3.674 1.878 5.672 1.878 1.833.0 3.67-.53 5.269-1.596l68.392-45.594h125.091c18.879.0 34.237-15.359 34.237-34.237V34.237C418.552 15.358 403.193.0 384.314.0zm15.238 94.991c0 8.402-6.835 15.237-15.237 15.237H256.348c-1.876.0-3.709.555-5.27 1.596l-48.659 32.439 6.648-21.758c.881-2.88.343-6.007-1.449-8.428-1.791-2.421-4.624-3.849-7.636-3.849H183.3c-8.401.0-15.236-6.835-15.236-15.237V34.237c0-8.401 6.835-15.237 15.236-15.237h201.014c8.402.0 15.237 6.835 15.237 15.237V94.991z"/><path d="M371.808 37.728h-176c-5.247.0-9.5 4.253-9.5 9.5s4.253 9.5 9.5 9.5h176c5.247.0 9.5-4.253 9.5-9.5S377.055 37.728 371.808 37.728z"/><path d="M371.808 69.728h-176c-5.247.0-9.5 4.253-9.5 9.5s4.253 9.5 9.5 9.5h176c5.247.0 9.5-4.253 9.5-9.5S377.055 69.728 371.808 69.728z"/></g><g/><g/><g/><g/><g/><g/><g/><g/><g/><g/><g/><g/><g/><g/><g/></svg>