<svg id="Capa_1" xmlns="http://www.w3.org/2000/svg" xmlns:xlink="http://www.w3.org/1999/xlink" width="31.894" height="31.894" viewBox="0 0 31.894 31.894" style="enable-background:new 0 0 31.894 31.894"><g><g><path d="M25.933 1.931H12.945c-3.26.0-5.927 2.692-5.927 5.952v.145l2.397.028V7.883c0-1.926 1.604-3.555 3.53-3.555h12.987c1.928.0 3.413 1.629 3.413 3.555v7c0 1.86-1.419 3.377-3.253 3.479l.016 2.428c3.182-.09 5.785-2.703 5.785-5.908v-7C31.894 4.623 29.194 1.931 25.933 1.931z"/><path d="M20.169 9.999 4.384 9.817c-2.34-.028-4.259 1.847-4.286 4.187L0 22.512c-.028 2.338 1.848 4.259 4.187 4.283l10.559.122 5.723 2.929c.363.187.8.147 1.128-.094.328-.244.489-.675.417-1.074l-.309-1.724v0c1.383.0 2.516-1.069 2.531-2.452l.119-10.219C24.384 11.944 22.509 10.025 20.169 9.999zM18.226 22.01H6.095c-.669.0-1.213-.528-1.213-1.198.0-.671.543-1.199 1.213-1.199h12.13c.672.0 1.215.528 1.215 1.199C19.44 21.481 18.897 22.01 18.226 22.01zM18.226 17.216H6.095c-.669.0-1.213-.527-1.213-1.199.0-.671.543-1.199 1.213-1.199h12.13c.672.0 1.215.528 1.215 1.199C19.44 16.688 18.897 17.216 18.226 17.216z"/></g></g><g/><g/><g/><g/><g/><g/><g/><g/><g/><g/><g/><g/><g/><g/><g/></svg>