<svg id="Capa_1" xmlns="http://www.w3.org/2000/svg" xmlns:xlink="http://www.w3.org/1999/xlink" width="32.045" height="32.046" viewBox="0 0 32.045 32.046" style="enable-background:new 0 0 32.045 32.046"><g><g><path d="M25.302 6.499h-2.308v-.6c0-1.181-.957-2.138-2.137-2.138h-1.021C19.807 1.675 18.108.0 16.022.0c-2.086.0-3.785 1.675-3.815 3.761h-1.021c-1.18.0-2.137.957-2.137 2.138v.6H6.742c-.765.0-1.408.618-1.408 1.383v22.78c0 .765.643 1.384 1.408 1.384h18.561c.766.0 1.408-.619 1.408-1.384V7.881C26.71 7.117 26.067 6.499 25.302 6.499zM16.022 1.999c.984.0 1.788.785 1.817 1.762h-3.634C14.235 2.784 15.038 1.999 16.022 1.999zM24.95 30.35H7.094V8.192h1.955v1.564h13.945V8.192h1.955V30.35z"/><path d="M22.476 12.69h-4.495c-.707.0-1.283.527-1.283 1.236s.576 1.238 1.283 1.238h4.495c.708.0 1.282-.529 1.282-1.238S23.184 12.69 22.476 12.69z"/><path d="M11.481 13.864l-.965-.752c-.238-.187-.58-.156-.782.068l-.556.616c-.106.118-.159.275-.146.435.014.159.092.305.217.403l1.683 1.328c.406.321.988.287 1.354-.079l2.949-2.949c.143-.143.223-.336.223-.538s-.08-.396-.223-.538l-.337-.337c-.297-.297-.778-.297-1.075.0L11.481 13.864z"/><path d="M22.476 18.424h-4.495c-.707.0-1.283.529-1.283 1.238.0.707.576 1.238 1.283 1.238h4.495c.708.0 1.282-.531 1.282-1.238C23.758 18.954 23.184 18.424 22.476 18.424z"/><path d="M11.481 19.598l-.965-.752c-.238-.186-.58-.154-.782.069l-.556.616c-.106.117-.159.275-.146.435.014.158.092.306.217.403l1.683 1.328c.407.32.989.285 1.355-.08l2.95-2.949c.143-.143.223-.336.223-.538.0-.2-.08-.396-.223-.538L14.9 17.255c-.297-.297-.778-.297-1.075.0L11.481 19.598z"/><path d="M22.476 23.963h-4.495c-.707.0-1.283.529-1.283 1.238s.576 1.238 1.283 1.238h4.495c.708.0 1.282-.529 1.282-1.238S23.184 23.963 22.476 23.963z"/><path d="M11.481 25.137l-.965-.752c-.238-.188-.58-.156-.782.068l-.556.615c-.106.119-.16.275-.146.436.013.159.092.305.217.402l1.683 1.33c.407.32.989.285 1.355-.08l2.95-2.95c.297-.298.297-.776.0-1.075L14.9 22.794c-.143-.144-.336-.224-.538-.224s-.395.08-.538.224l-2.343 2.343z"/></g></g><g/><g/><g/><g/><g/><g/><g/><g/><g/><g/><g/><g/><g/><g/><g/></svg>