<svg id="Capa_1" xmlns="http://www.w3.org/2000/svg" xmlns:xlink="http://www.w3.org/1999/xlink" width="31.602" height="31.602" viewBox="0 0 31.602 31.602" style="enable-background:new 0 0 31.602 31.602"><g><g><path d="M27.534 19.739h-5.578-5.578c-.016.0-.029.0-.045.0-1.764.026-3.435-.818-4.454-2.261-.803-1.135-1.12-2.542-.884-3.912.086-.501.067-1.031-.077-1.556-.189-.69-.567-1.279-1.058-1.718l.024-.008L8.78 6.257C8.637 5.736 8.099 5.43 7.578 5.572L6.897 5.759c-.25.068-.463.234-.591.459C6.177 6.443 6.143 6.71 6.212 6.961l.696 2.54c-.05.011-.1.023-.15.037-1.789.491-2.828 2.391-2.319 4.245.183.668.543 1.239 1.01 1.673.643 2.659 2.26 5.946 5.531 8.255 1.13.798 2.105 1.819 2.844 2.989.002.004.005.009.007.013l.185 4.331h17.175v-6.906C31.191 21.858 29.598 19.739 27.534 19.739z"/><ellipse cx="21.956" cy="14.458" rx="5.354" ry="5.244"/><path d="M10.599 6.12c0 .33.267.596.596.596h19.8c.33.0.596-.267.596-.596V5.698c0-.33-.268-.596-.596-.596H11.196c-.33.0-.596.267-.596.596L10.599 6.12v0z"/><path d="M.656.559C.293.559.0.853.0 1.215v.362c0 .329.267.596.596.596h30.408c.33.0.598-.267.598-.596V1.155c0-.329-.268-.597-.598-.597L.656.559v0z"/></g></g><g/><g/><g/><g/><g/><g/><g/><g/><g/><g/><g/><g/><g/><g/><g/></svg>