<svg id="Capa_1" xmlns="http://www.w3.org/2000/svg" xmlns:xlink="http://www.w3.org/1999/xlink" width="31.95" height="31.951" viewBox="0 0 31.95 31.951" style="enable-background:new 0 0 31.95 31.951"><g><g><path d="M21.009 22.119h-9.782c-1.809.0-3.3 1.502-3.3 3.312v5.1h16.339v-5.1C24.268 23.621 22.816 22.119 21.009 22.119z"/><circle cx="16.117" cy="15.565" r="4.696"/><path d="M8.997 9.43c0-.997-.803-1.803-1.798-1.803h-5.38C.824 7.627.0 8.434.0 9.43v2.817h8.997V9.43z"/><circle cx="4.509" cy="4.002" r="2.583"/><path d="M30.177 7.627h-5.38c-.995.0-1.795.806-1.795 1.803v2.817h8.948V9.431C31.95 8.434 31.172 7.627 30.177 7.627z"/><circle cx="27.486" cy="4.002" r="2.583"/><path d="M12.138 7.822h8.266c.57.0 1.033-.45 1.033-1.021.0-.571-.463-1.022-1.033-1.022h-8.266c-.571.0-1.033.451-1.033 1.022C11.105 7.371 11.567 7.822 12.138 7.822z"/><path d="M8.838 20.958c.21.0.422-.062.606-.195.462-.336.564-.981.23-1.442l-3.77-5.205c-.336-.464-.981-.566-1.443-.231-.463.335-.565.981-.23 1.443L8 20.534C8.203 20.812 8.519 20.958 8.838 20.958z"/><path d="M26.945 13.982c-.48-.31-1.118-.168-1.426.312l-3.252 5.075c-.31.479-.168 1.119.312 1.429.172.108.364.161.558.161.34.0.674-.166.87-.476l3.251-5.073C27.566 14.931 27.426 14.291 26.945 13.982z"/></g></g><g/><g/><g/><g/><g/><g/><g/><g/><g/><g/><g/><g/><g/><g/><g/></svg>