<svg id="Capa_1" xmlns="http://www.w3.org/2000/svg" xmlns:xlink="http://www.w3.org/1999/xlink" viewBox="0 0 467.126 467.126" style="enable-background:new 0 0 467.126 467.126"><g><path d="M124.655 365.093c-25.251.0-45.789 20.538-45.789 45.789.0 25.251 20.538 45.789 45.789 45.789s45.789-20.538 45.789-45.789C170.444 385.63 149.906 365.093 124.655 365.093zM124.655 432.817c-12.098.0-21.935-9.837-21.935-21.935.0-12.097 9.837-21.935 21.935-21.935 12.097.0 21.935 9.839 21.935 21.935C146.591 422.98 136.752 432.817 124.655 432.817z"/><path d="M340.56 365.093c-25.251.0-45.789 20.538-45.789 45.789.0 25.251 20.538 45.789 45.789 45.789 25.251.0 45.789-20.538 45.789-45.789C386.349 385.63 365.811 365.093 340.56 365.093zM340.56 432.817c-12.097.0-21.935-9.837-21.935-21.935.0-12.097 9.839-21.935 21.935-21.935 12.098.0 21.935 9.839 21.935 21.935C362.496 422.98 352.659 432.817 340.56 432.817z"/><path d="M206.814 116.909c0-22.253-18.108-40.353-40.361-40.353-22.245.0-40.345 18.1-40.345 40.353.0 18.434 12.493 33.854 29.397 38.66l46.091-19.21C204.818 130.568 206.814 123.999 206.814 116.909z"/><path d="M68.726 141.454h17.92c1.569 5.054 3.603 9.899 6.041 14.496l-12.703 12.703c-3.402 3.402-3.402 8.937.0 12.347l7.509 7.507c4.34-4.69 9.635-8.611 15.909-11.219l32.2-13.426c-15.264-10.071-25.397-27.331-25.397-46.953.0-31.02 25.235-56.255 56.248-56.255 31.02.0 56.263 25.235 56.263 56.255.0 3.805-.396 7.517-1.126 11.119l51.332-21.399v-5.544c0-4.822-3.914-8.735-8.727-8.735h-17.938c-1.552-5.055-3.602-9.901-6.04-14.498l12.703-12.703c1.646-1.638 2.562-3.859 2.562-6.173.0-2.314-.916-4.534-2.562-6.18l-22.363-22.363c-1.708-1.708-3.944-2.554-6.179-2.554-2.237.0-4.457.846-6.165 2.554l-12.718 12.711c-4.597-2.438-9.427-4.48-14.504-6.025V19.183c0-4.822-3.899-8.727-8.713-8.727h-31.634c-4.814.0-8.727 3.906-8.727 8.727v17.936c-5.062 1.546-9.907 3.587-14.504 6.025l-12.687-12.695c-1.71-1.708-3.945-2.556-6.181-2.556-2.236.0-4.473.848-6.181 2.548l-22.377 22.37c-1.632 1.639-2.548 3.86-2.548 6.173.0 2.322.916 4.543 2.548 6.181L92.687 77.86c-2.438 4.597-4.472 9.435-6.025 14.49H68.726c-4.815.0-8.729 3.914-8.729 8.735v31.641C59.997 137.541 63.911 141.454 68.726 141.454z"/><path d="M93.355 231.244c4.814 11.539 15.98 18.496 27.735 18.496 3.851.0 7.765-.746 11.555-2.322l188.31-78.469 28.683 10.047c5.622 1.972 11.461 2.943 17.27 2.943 9.783.0 19.488-2.749 27.953-8.115l14.193-8.999c12.238-7.765 17.098-23.201 11.524-36.58-1.01-2.446-3.371-3.922-5.855-3.922-.824.0-1.662.164-2.47.498l-32.984 13.735c-1.428.598-2.904.878-4.364.878-4.441.0-8.665-2.632-10.483-7.003l-10.063-24.125c-1.15-2.788-1.18-5.909-.016-8.697 1.134-2.796 3.339-5.008 6.119-6.165l32.984-13.743c3.262-1.36 4.783-5.079 3.432-8.317-4.69-11.267-15.654-18.318-27.455-18.318-2.19.0-4.427.242-6.647.754l-16.368 3.735c-15.576 3.556-28.653 14.046-35.516 28.457l-13.076 27.473-188.294 78.477C94.209 198.346 86.972 215.918 93.355 231.244z"/><path d="M456.557 373.922h-8.719V343.05c0-19.226-14.031-35.074-32.386-38.132l-14.1-47.582c-8.519-28.746-34.926-48.46-64.906-48.46h-16.158v-9.435c0-4.262-1.258-8.207-3.332-11.601l-178.191 74.263c-5.653 2.344-11.585 3.54-17.674 3.54-18.588.0-35.236-11.095-42.409-28.287-4.877-11.709-4.527-24.311-.032-35.198l-9.923-9.931c-4.209-4.216-6.235-9.635-6.747-15.156H36.556c-12.353.0-22.37 10.017-22.37 22.369v174.482h-3.626C4.729 373.922.0 378.651.0 384.49v28.495c0 5.839 4.729 10.569 10.561 10.569H37.62c5.839.0 10.569-4.729 10.569-10.569v-.348h18.93c-.016-.598-.178-1.158-.178-1.756.0-31.827 25.887-57.715 57.715-57.715 31.827.0 57.715 25.889 57.715 57.715.0.598-.164 1.158-.18 1.756h100.834c-.016-.598-.18-1.158-.18-1.756.0-16.484 7.035-31.284 18.154-41.805 10.351-9.799 24.219-15.91 39.561-15.91 31.828.0 57.715 25.889 57.715 57.715.0.598-.162 1.158-.178 1.756h20.84v.348c0 5.839 4.729 10.569 10.569 10.569h27.051c5.839.0 10.569-4.729 10.569-10.569V384.49C467.126 378.651 462.396 373.922 456.557 373.922zM344.14 233.42c16.042 2.904 29.607 14.714 34.344 30.693l11.903 40.159H344.14V233.42z"/></g><g/><g/><g/><g/><g/><g/><g/><g/><g/><g/><g/><g/><g/><g/><g/></svg>