<svg id="Capa_1" xmlns="http://www.w3.org/2000/svg" xmlns:xlink="http://www.w3.org/1999/xlink" width="31.77" height="31.77" viewBox="0 0 31.77 31.77" style="enable-background:new 0 0 31.77 31.77"
	><g><g><path d="M30.901 13.257c-.043-.016-2.787-1.014-2.787-1.014.057-1.386-.443-2.539-1.379-2.924L8.634 2.616C8.282 1.463 7.557.575 6.521.192 6.178.066 5.812.0 5.44.0 3.524.0 1.625 1.66.714 4.129c-1.105 3.001-.286 5.972 1.862 6.766.346.126.708.191 1.082.191.721.0 1.439-.235 2.104-.661l6.876 2.536c-.103.441-.153.899-.153 1.368.0 1.896.858 3.59 2.207 4.72l-5.093 10.02c-.298.584-.065 1.301.521 1.598.175.086.356.131.537.131.435.0.852-.238 1.062-.65l5.061-9.953c.215.068.438.125.662.168.0.001.0.001.002.001v10.219c0 .658.534 1.188 1.191 1.188s1.19-.53 1.19-1.188v-10.22c-.047.009-.051.009-.008.0.226-.043.441-.1.654-.166l5.061 9.951c.209.412.627.65 1.062.65.182.0.365-.045.537-.131.586-.297.817-1.014.522-1.598L22.56 19.047c.634-.527 1.157-1.179 1.537-1.918.907.17 1.933-.381 2.726-1.386l2.826 1.003c.61.197 1.381-.395 1.728-1.337C31.731 14.448 31.517 13.484 30.901 13.257zM6.152 6.135c-.665 1.808-2.005 2.807-2.753 2.53C2.642 8.384 2.287 6.737 2.944 4.951c.593-1.609 1.734-2.574 2.495-2.574.093.0.177.017.259.046C6.457 2.702 6.81 4.35 6.152 6.135zM10.23 7.32c-.617-.226-.935-.908-.71-1.524.226-.619.908-.935 1.525-.709L21.154 8.78c.619.225.938.907.711 1.523-.176.483-.633.782-1.119.782C20.612 11.086 10.23 7.32 10.23 7.32zm12.227 8.432c-.193 1.473-1.219 2.551-2.286 2.407-1.069-.142-1.777-1.447-1.585-2.918.191-1.469 1.216-2.546 2.285-2.405C21.942 12.974 22.651 14.283 22.457 15.752z"/></g></g><g/><g/><g/><g/><g/><g/><g/><g/><g/><g/><g/><g/><g/><g/><g/></svg>