<svg id="Capa_1" xmlns="http://www.w3.org/2000/svg" xmlns:xlink="http://www.w3.org/1999/xlink" width="489.6" height="489.599" viewBox="0 0 489.6 489.599" style="enable-background:new 0 0 489.6 489.599"><g><path d="M482.8 72.808c3.74.0 6.8-3.06 6.8-6.8v-20.4c0-3.74-3.06-6.8-6.8-6.8H265.2V26.364c0-11.084-8.297-20.944-19.312-21.556-11.764-.612-21.488 8.772-21.488 20.4v13.6H6.8c-3.74.0-6.8 3.06-6.8 6.8v20.4c0 3.74 3.06 6.8 6.8 6.8h13.6v265.2H6.8c-3.74.0-6.8 3.06-6.8 6.8v20.399c0 3.74 3.06 6.801 6.8 6.801h144.772l-50.32 80.716c-5.848 9.384-4.012 22.032 4.964 28.355 3.604 2.584 7.684 3.74 11.764 3.74 6.8.0 13.464-3.399 17.34-9.588l64.328-103.224h97.104l64.328 103.224c3.876 6.188 10.54 9.588 17.34 9.588 4.08.0 8.16-1.156 11.764-3.74 8.977-6.323 10.812-18.972 4.964-28.355l-50.319-80.716H482.8c3.74.0 6.8-3.061 6.8-6.801v-20.399c0-3.74-3.06-6.8-6.8-6.8h-13.6v-265.2H482.8zM224.4 290.408H68v-170h156.4v170zM421.6 276.808H272v-20.4h149.6V276.808zM421.6 215.608H272v-20.4h149.6V215.608zM421.6 154.408H272v-20.4h149.6V154.408z"/></g><g/><g/><g/><g/><g/><g/><g/><g/><g/><g/><g/><g/><g/><g/><g/></svg>