<svg id="Capa_1" xmlns="http://www.w3.org/2000/svg" xmlns:xlink="http://www.w3.org/1999/xlink" width="31.838" height="31.838" viewBox="0 0 31.838 31.838" style="enable-background:new 0 0 31.838 31.838"><g><path d="M29.447 5.013c-2.682-3.219-10.241-5.491-16.627-3.67C5.861 3.329 2.487 7.779 2.246 15.734l-2.15 4.391c-.12.244-.127.528-.022.779.105.25.314.442.572.528l1.498.496c-.188 7.369-.118 9.215 7.221 9.215 7.517.0 6.552-5.524 15.63-6.604C31.705 23.742 34.051 10.536 29.447 5.013zM25.611 18.46c-1.582 1.111-2.729 1.15-3.655 1.181-.991.035-1.773.062-3.12 1.479-.134.144-.315.213-.497.213-.17.0-.34-.062-.474-.188-.274-.264-.285-.694-.023-.973 1.73-1.818 2.919-1.861 4.064-1.9.834-.025 1.621-.057 2.809-.855-.955.129-2.01-.131-3.051-.896-3.266-2.395-8.016-.122-8.016-4.173.0-4.048 3.281-7.329 7.332-7.329 4.049.0 7.33 3.281 7.33 7.329.0.006.0.013.0.016C28.412 13.001 28.747 16.26 25.611 18.46z"/></g><g/><g/><g/><g/><g/><g/><g/><g/><g/><g/><g/><g/><g/><g/><g/></svg>