<svg id="Capa_1" xmlns="http://www.w3.org/2000/svg" xmlns:xlink="http://www.w3.org/1999/xlink" width="31.659" height="31.659" viewBox="0 0 31.659 31.659" style="enable-background:new 0 0 31.659 31.659"><g><g><path d="M26.48 2.624H5.179C2.319 2.624.0 4.935.0 7.794v10.188c0 2.861 2.318 5.138 5.179 5.138h13.043l7.916 5.644c.238.168.521.271.805.271.219.0.451-.045.652-.148.463-.24.77-.709.77-1.229V23.01c1.83-.533 3.294-2.297 3.294-4.385V7.794C31.659 4.935 29.342 2.624 26.48 2.624zM28.914 18.621c0 .978-.818 1.754-1.796 1.754h-.175c-.768.0-1.323.642-1.323 1.406v3.187l-6.117-4.326c-.235-.166-.55-.267-.837-.267H5.179c-1.328.0-2.434-1.062-2.434-2.392V7.794c0-1.328 1.105-2.425 2.434-2.425H26.48c1.328.0 2.434 1.097 2.434 2.425V18.621z"/><path d="M24.018 12.827c-.109-.439-.283-.874-.51-1.251l.838-.85-1.605-1.61-.838.837c-.375-.226-.785-.373-1.219-.483-.004-.002-.012-1.171-.012-1.171H18.4l.009 1.156c-.444.096-.873.275-1.258.507l-.84-.844-1.605 1.602.838.837c-.225.377-.399.834-.51 1.272-.003.002-.003.045-.003.045h-1.126v2.197h1.125c-.004.0-.008-.049-.014-.072.006.022.01.041.014.062.11.444.287.86.517 1.245l-.84.837 1.605 1.604.84-.838c.385.229.812.431 1.258.541l-.009 1.194h2.271c0 0 .008-1.205.012-1.207.435-.11.845-.293 1.218-.52l.84.834 1.604-1.607-.838-.84c.229-.384.405-.798.518-1.241.005-.021.005.007.0.007h1.23v-2.197h-1.234C24.02 12.872 24.02 12.829 24.018 12.827zM19.528 15.509c-.872.0-1.581-.709-1.581-1.584.0-.872.709-1.58 1.581-1.58.875.0 1.581.708 1.581 1.58C21.109 14.8 20.403 15.509 19.528 15.509z"/><path d="M12.95 10.575c.002-.325-.045-.644-.133-.952l.737-.431-.828-1.411L11.99 8.213c-.221-.225-.476-.42-.757-.577-.003-.001.21-.835.21-.835L9.859 6.389 9.65 7.215C9.322 7.199 8.99 7.256 8.681 7.348L8.247 6.612 6.836 7.438 7.27 8.175c-.228.223-.425.48-.582.767-.002.0-.002.0-.002.001L5.868 8.729 5.43 10.312l.794.214v-.002c0 .329.064.652.156.963l-.727.432.834 1.411.74-.431c.228.227.493.431.785.589l-.219.818 1.582.413c0 0 .223-.823.224-.824.323.002.64-.044.94-.132l.432.737 1.413-.828-.432-.737c.228-.225.429-.485.586-.773.007-.015.007-.014.0.001l.831.215.412-1.582L12.95 10.58C12.951 10.576 12.951 10.576 12.95 10.575zM10.713 10.842c-.159.61-.781.975-1.391.816-.606-.158-.972-.783-.813-1.39C8.666 9.659 9.29 9.292 9.9 9.451 10.508 9.61 10.873 10.233 10.713 10.842z"/></g></g><g/><g/><g/><g/><g/><g/><g/><g/><g/><g/><g/><g/><g/><g/><g/></svg>