<svg id="Capa_1" xmlns="http://www.w3.org/2000/svg" xmlns:xlink="http://www.w3.org/1999/xlink" width="466.561" height="466.561" viewBox="0 0 466.561 466.561" style="enable-background:new 0 0 466.561 466.561"><g><path d="M442.38 283.861l-82.354-47.547c-4.536-2.617-10.2.654-10.2 5.891v23.752H336.98c-29.553.0-56.706 10.309-78.2 27.432V95.957h23.752c5.236.0 8.507-5.665 5.889-10.2L240.862 3.402c-2.618-4.536-9.16-4.536-11.778.0l-47.545 82.354c-2.618 4.536.653 10.2 5.889 10.2h23.752v102.231c-21.495-17.123-48.647-27.432-78.2-27.432h-16.245v-23.752c0-5.236-5.665-8.507-10.2-5.889L24.18 188.674c-4.536 2.618-4.536 9.16.0 11.778l82.354 47.546c4.536 2.617 10.2-.652 10.2-5.889v-23.753h16.245c43.187.0 78.2 35.013 78.2 78.2V442.13c0 11.355 7.704 21.672 18.836 23.93 15.314 3.086 28.764-8.541 28.764-23.305v-51c0-43.186 35.013-78.199 78.2-78.199h12.845v23.752c0 5.236 5.664 8.508 10.2 5.889l82.354-47.559C446.916 293.021 446.916 286.479 442.38 283.861z"/></g><g/><g/><g/><g/><g/><g/><g/><g/><g/><g/><g/><g/><g/><g/><g/></svg>