<svg id="Capa_1" xmlns="http://www.w3.org/2000/svg" xmlns:xlink="http://www.w3.org/1999/xlink" width="31.852" height="31.851" viewBox="0 0 31.852 31.851" style="enable-background:new 0 0 31.852 31.851"><g><g><path d="M0 26.356h6.662V6.592c0-.656-.532-1.188-1.189-1.188H1.189C.532 5.404.0 5.936.0 6.592V26.356zM3.765 24.423H2.896v-2.799h.869V24.423zM1.063 9.611c0-.51.414-.924.924-.924h2.592c.51.0.924.414.924.924v1.53c0 .51-.414.924-.924.924H1.987c-.51.0-.924-.414-.924-.924V9.611z"/><path d="M8.979 26.356h6.662V6.592c0-.656-.532-1.188-1.189-1.188h-4.285c-.657.0-1.189.532-1.189 1.188L8.979 26.356v0zM11.585 24.423h-.772v-2.799h.772V24.423zM13.903 24.423h-.87v-2.799h.87V24.423zM10.137 9.611c0-.51.414-.924.925-.924h2.592c.511.0.925.414.925.924v1.53c0 .51-.414.924-.925.924h-2.592c-.511.0-.925-.414-.925-.924V9.611z"/><path d="M24.086 6.387c-.27-.596-.967-.863-1.564-.599l-4.256 1.881c-.289.128-.516.367-.629.662-.113.296-.104.625.027.913l7.757 17.204 6.431-2.84L24.086 6.387zm-4.128 4.886c-.208-.466.002-1.014.468-1.221l2.371-1.056c.467-.208 1.014.002 1.221.468l.59 1.324c.103.224.107.479.021.707-.088.23-.266.414-.484.514l-2.371 1.055c-.467.208-1.016-.002-1.224-.467L19.958 11.273zM25.848 24.72l-1.451-3.061.746-.354 1.451 3.059L25.848 24.72zM27.512 23.957l-1.451-3.061.746-.354 1.45 3.06L27.512 23.957zM27.812 20.041l.746-.354 1.447 3.061-.742.354L27.812 20.041z"/></g></g><g/><g/><g/><g/><g/><g/><g/><g/><g/><g/><g/><g/><g/><g/><g/></svg>