<svg id="Capa_1" xmlns="http://www.w3.org/2000/svg" xmlns:xlink="http://www.w3.org/1999/xlink" width="31.559" height="31.56" viewBox="0 0 31.559 31.56" style="enable-background:new 0 0 31.559 31.56"><g><path d="M31.559 17.587V4.134c0-.813-.318-1.592-.895-2.167-.576-.575-1.353-.896-2.165-.894L6.888 1.049c-2.771.0-4.955 2.325-5.683 4.616-.346 1.087-.706 2.971-.99 5.158-.237 1.85-.276 3.309-.128 4.877.275 2.91 2.604 4.789 5.933 4.789l4.415.008c.062.055.265.473.239 1.537-.057 2.455.222 4.306 1.818 6.487.913 1.245 2.379 1.99 3.924 1.99 1.035.0 2.025-.323 2.863-.938 2.621-1.92 1.717-4.851 1.23-6.425-.271-.889-.223-1.79.146-2.649h7.852C30.201 20.498 31.559 19.279 31.559 17.587zm-11.117-5.9c-.477 4.812-2.865 7.192-2.252 12.173.312 2.508.469 3.157-.345 3.754-1.054.771-2.625.522-3.395-.523-1.21-1.653-1.399-2.93-1.35-4.996.035-1.534-.271-2.611-.938-3.294-.471-.481-1.093-.729-1.802-.729-.021.0-.134.015-.154.015H6.02c-.615.0-2.364-.132-3.146-1.421l.006-.006v0c0-.002-.005-.002-.005-.002H2.87c-.022-.062-.483-1.437 1.879-1.599.306-.021.546-.274.546-.579v-.083c0-.305-.24-.557-.544-.579-.752-.052-2.054-.298-2.277-1.356-.124-.433.005-.498.081-.749.203-.335.741-.717 2.117-.758h.101c.283.0.523-.229.523-.513v-.173c0-.291-.197-.546-.476-.628-.571-.169-1.5-.519-1.763-1.064C2.95 7.458 3.869 7.2 5.687 7.138c.101-.004.197-.05.266-.125C6.022 6.938 6.056 6.837 6.05 6.736L6.045 6.646c-.014-.204-.16-.381-.362-.425-.689-.15-2.082-.596-.824-1.908.0.0.0.0-.001.0.583-.491 1.289-.82 2.03-.82H17.19c.817.0 1.78 1.087 2.164 2.101C19.878 6.995 20.673 9.341 20.442 11.687zM30.261 17.303c0 .723-.583 1.312-1.305 1.312h-5.215c-.721.0-1.303-.59-1.303-1.312s.582-1.312 1.303-1.312h5.215C29.678 15.992 30.261 16.58 30.261 17.303z"/></g><g/><g/><g/><g/><g/><g/><g/><g/><g/><g/><g/><g/><g/><g/><g/></svg>