<svg id="Capa_1" xmlns="http://www.w3.org/2000/svg" xmlns:xlink="http://www.w3.org/1999/xlink" viewBox="0 0 417.218 417.218" style="enable-background:new 0 0 417.218 417.218"><path d="M407.718 342.554h-12.476V197.735c0-102.908-83.722-186.63-186.63-186.63s-186.63 83.722-186.63 186.63v144.818H9.5c-5.247.0-9.5 4.253-9.5 9.5v44.56c0 5.247 4.253 9.5 9.5 9.5h398.218c5.247.0 9.5-4.253 9.5-9.5v-44.56C417.218 346.807 412.965 342.554 407.718 342.554zM40.983 197.735c0-92.432 75.198-167.63 167.63-167.63s167.63 75.199 167.63 167.63v144.818h-20.004V197.733c0-81.403-66.226-147.629-147.629-147.629h0c-81.403.0-147.629 66.226-147.629 147.629v144.821H40.983V197.735zM252.364 361.554v25.56h-87.509v-25.56H252.364zM232.205 342.554h-47.183v-.735c0-13.008 10.583-23.591 23.591-23.591 13.009.0 23.592 10.583 23.592 23.591V342.554zm19 0v-.735c0-23.485-19.106-42.591-42.592-42.591-23.485.0-42.591 19.106-42.591 42.591v.735h-22.721v-19.616c0-36.014 29.299-65.313 65.312-65.313s65.313 29.299 65.313 65.313v19.616H251.205zM208.613 151.544c23.843.0 43.241 19.398 43.241 43.241s-19.398 43.241-43.241 43.241-43.24-19.398-43.24-43.241S184.771 151.544 208.613 151.544zm34.964 94.703c16.451-11.213 27.277-30.095 27.277-51.462.0-34.32-27.921-62.241-62.241-62.241-34.319.0-62.24 27.921-62.24 62.241.0 21.367 10.825 40.25 27.276 51.462-29.083 13.313-49.348 42.67-49.348 76.69v19.616H79.979V197.733c0-70.926 57.703-128.629 128.63-128.629 70.926.0 128.629 57.703 128.629 128.629v144.821h-44.313v-19.616C292.926 288.917 272.66 259.56 243.577 246.247zM19 361.554h51.479 75.375v25.56H19V361.554zM398.218 387.113H271.364v-25.56h75.375 51.479V387.113z"/><g/><g/><g/><g/><g/><g/><g/><g/><g/><g/><g/><g/><g/><g/><g/></svg>