<svg id="Capa_1" xmlns="http://www.w3.org/2000/svg" xmlns:xlink="http://www.w3.org/1999/xlink" width="482.801" height="482.801" viewBox="0 0 482.801 482.801" style="enable-background:new 0 0 482.801 482.801"><g><path d="M309.4 27.2c-.081 20.4-16.904 47.6-27.104 57.8-10.2 10.2-27.295 10.2-40.896 10.2-13.6.0-30.695.0-40.896-10.2-10.2-10.2-27.03-37.4-27.104-57.8C173.305 3.4 214.908.0 241.4.0 267.894.0 309.496 3.4 309.4 27.2zM206.856 111.602l-23.807 270.789c-1.815 20.672 5.032 41.168 18.918 56.59l39.44 43.82 41.024-43.188c14.974-15.756 22.345-37.25 20.21-58.881L276.02 111.527c-.354-3.475-3.284-6.127-6.779-6.127H213.63C210.107 105.4 207.162 108.093 206.856 111.602z"/></g><g/><g/><g/><g/><g/><g/><g/><g/><g/><g/><g/><g/><g/><g/><g/></svg>