<svg id="Capa_1" xmlns="http://www.w3.org/2000/svg" xmlns:xlink="http://www.w3.org/1999/xlink" width="31.866" height="31.866" viewBox="0 0 31.866 31.866" style="enable-background:new 0 0 31.866 31.866"><g><g><path d="M26.948 3.704h1.865c.738.0 1.336-.598 1.336-1.336V1.336C30.149.598 29.551.0 28.813.0H3.053C2.315.0 1.717.598 1.717 1.336v1.032c0 .738.598 1.336 1.336 1.336h1.864c.141 4.957 2.119 9.485 5.176 12.073-3.13 2.65-5.126 7.316-5.177 12.439H3.053c-.738.0-1.336.598-1.336 1.336v.978c0 .737.598 1.336 1.336 1.336h25.76c.738.0 1.336-.599 1.336-1.336v-.978c0-.738-.598-1.336-1.336-1.336h-1.861c-.051-5.121-2.049-9.787-5.178-12.439C24.829 13.19 26.807 8.661 26.948 3.704zM18.264 16.895l.5.256c3.391 1.658 5.676 6.054 5.734 11.066H7.366c.06-5.014 2.348-9.408 5.737-11.066l.498-.252c.434-.211.708-.653.708-1.137.0-.481-.274-.925-.708-1.138l-.498-.237C9.795 12.77 7.534 8.497 7.369 3.704h17.129c-.166 4.793-2.428 9.064-5.733 10.682l-.5.241c-.433.212-.705.65-.705 1.133C17.559 16.243 17.833 16.682 18.264 16.895z"/><path d="M10.497 26.961h11.592c-.396-2.832-2.826-5.068-5.795-5.068C13.323 21.893 10.895 24.129 10.497 26.961z"/><path d="M20.268 11.712h-8.69c1.068 1.197 2.606 1.97 4.345 1.97S19.198 12.91 20.268 11.712z"/></g></g><g/><g/><g/><g/><g/><g/><g/><g/><g/><g/><g/><g/><g/><g/><g/></svg>