<svg id="Capa_1" xmlns="http://www.w3.org/2000/svg" xmlns:xlink="http://www.w3.org/1999/xlink" viewBox="0 0 418.275 418.275" style="enable-background:new 0 0 418.275 418.275"><g><path d="M417.876 250.595c-.974-3.251-3.608-5.736-6.911-6.518l-10.342-2.449c8.022-48.764-2.011-98.257-28.632-140.321-28.331-44.766-72.329-76.145-123.889-88.356C195.699.54 141.598 9.279 95.768 37.557 49.937 65.836 17.862 110.269 5.451 162.673-20.17 270.85 46.995 379.703 155.173 405.324c15.554 3.684 31.25 5.505 46.843 5.504 36.94-.001 73.264-10.224 105.491-30.109 4.466-2.755 5.852-8.608 3.097-13.073-2.756-4.466-8.609-5.851-13.073-3.097-41.512 25.614-90.513 33.528-137.979 22.287C61.569 363.629.733 265.035 23.939 167.052c11.242-47.465 40.294-87.711 81.806-113.325 41.512-25.614 90.516-33.529 137.978-22.287 46.701 11.061 86.553 39.482 112.213 80.028 25.618 40.479 34.278 88.548 24.384 135.351-1.066 5.045 2.087 10.021 7.105 11.209l3.148.746-30.047 31.858-12.566-41.95 3.013.713c2.499.592 5.133.147 7.299-1.235 2.166-1.382 3.68-3.582 4.196-6.099 8.607-41.937.665-84.949-22.362-121.115-23.076-36.243-58.814-61.657-100.633-71.561-42.672-10.106-86.724-2.991-124.044 20.036C78.11 92.448 51.99 128.63 41.884 171.302c-10.106 42.671-2.991 86.725 20.037 124.044 23.027 37.319 59.209 63.438 101.88 73.544 42.673 10.108 86.725 2.991 124.045-20.036 4.466-2.755 5.852-8.608 3.097-13.073-2.756-4.466-8.609-5.851-13.073-3.097-33.002 20.362-71.958 26.654-109.689 17.718-37.733-8.937-69.728-32.033-90.09-65.033s-26.654-71.956-17.718-109.688c8.937-37.733 32.033-69.728 65.033-90.09 33-20.362 71.955-26.655 109.688-17.718 36.979 8.758 68.58 31.23 88.985 63.277 18.597 29.208 26.068 63.46 21.428 97.424l-9.18-2.174c-3.302-.783-6.771.257-9.101 2.726-2.329 2.469-3.163 5.993-2.189 9.244l22.01 73.475c.974 3.251 3.608 5.736 6.911 6.518 3.306.784 6.772-.256 9.101-2.726l52.627-55.798C418.015 257.37 418.849 253.847 417.876 250.595z"/><path d="M253.383 278.818c1.855 1.855 4.286 2.783 6.718 2.783 2.431.0 4.862-.928 6.718-2.782 3.71-3.71 3.71-9.725.0-13.435l-41.304-41.305c3.261-7.158 3.261-15.447.0-22.605l30.252-30.252c3.71-3.71 3.71-9.725.0-13.435-3.711-3.71-9.725-3.71-13.436.0l-30.251 30.251c-10.033-4.571-22.294-2.739-30.536 5.505-10.605 10.605-10.605 27.861.0 38.466 5.303 5.303 12.267 7.954 19.232 7.954 3.862.0 7.724-.819 11.303-2.449L253.383 278.818zM194.978 218.575c-3.197-3.197-3.197-8.399.0-11.597 1.599-1.598 3.698-2.397 5.798-2.397 2.1.0 4.2.799 5.798 2.397 3.197 3.197 3.197 8.399.0 11.596S198.175 221.771 194.978 218.575z"/><path d="M191.276 307.476v24.707c0 5.247 4.253 9.5 9.5 9.5s9.5-4.253 9.5-9.5v-24.707c0-5.247-4.253-9.5-9.5-9.5S191.276 302.23 191.276 307.476z"/><path d="M210.276 110.598V85.891c0-5.247-4.253-9.5-9.5-9.5s-9.5 4.253-9.5 9.5v24.707c0 5.247 4.253 9.5 9.5 9.5S210.276 115.844 210.276 110.598z"/><path d="M254.123 320.435c1.759 3.047 4.952 4.751 8.235 4.751 1.612.0 3.245-.411 4.741-1.274 4.544-2.624 6.101-8.434 3.477-12.978l-2.99-5.179c-2.622-4.543-8.434-6.099-12.977-3.477-4.544 2.624-6.101 8.434-3.477 12.978L254.123 320.435z"/><path d="M150.42 102.818l-2.99-5.179c-2.623-4.544-8.436-6.1-12.977-3.477-4.544 2.623-6.101 8.434-3.477 12.977l2.99 5.179c1.76 3.048 4.953 4.751 8.236 4.751 1.612.0 3.246-.411 4.741-1.274C151.487 113.172 153.044 107.362 150.42 102.818z"/><path d="M312.174 262.383l-5.179-2.99c-4.542-2.624-10.354-1.067-12.977 3.477-2.624 4.544-1.067 10.354 3.477 12.978l5.179 2.99c1.496.864 3.129 1.274 4.741 1.274 3.282.0 6.477-1.704 8.235-4.751C318.274 270.817 316.717 265.007 312.174 262.383z"/><path d="M94.557 158.681c1.496.864 3.129 1.274 4.741 1.274 3.283.0 6.477-1.704 8.236-4.751 2.624-4.544 1.067-10.354-3.477-12.977l-5.179-2.99c-4.544-2.624-10.354-1.066-12.977 3.477-2.624 4.544-1.067 10.354 3.477 12.977L94.557 158.681z"/><path d="M333.422 209.037c0-5.247-4.253-9.5-9.5-9.5h-24.706c-5.247.0-9.5 4.253-9.5 9.5s4.253 9.5 9.5 9.5h24.706C329.169 218.537 333.422 214.284 333.422 209.037z"/><path d="M111.836 209.037c0-5.247-4.253-9.5-9.5-9.5H77.63c-5.247.0-9.5 4.253-9.5 9.5s4.253 9.5 9.5 9.5h24.707C107.583 218.537 111.836 214.284 111.836 209.037z"/><path d="M302.254 159.955c1.612.0 3.245-.411 4.741-1.274l5.179-2.99c4.544-2.624 6.101-8.434 3.477-12.978-2.622-4.544-8.434-6.099-12.977-3.477l-5.179 2.99c-4.544 2.624-6.101 8.434-3.477 12.978C295.777 158.252 298.97 159.955 302.254 159.955z"/><path d="M94.557 259.393l-5.179 2.99c-4.544 2.623-6.101 8.433-3.477 12.977 1.759 3.048 4.953 4.751 8.236 4.751 1.612.0 3.245-.411 4.741-1.274l5.179-2.99c4.544-2.623 6.101-8.433 3.477-12.977C104.911 258.326 99.102 256.769 94.557 259.393z"/><path d="M267.099 94.162c-4.543-2.624-10.354-1.068-12.978 3.477l-2.99 5.179c-2.623 4.544-1.066 10.354 3.478 12.977 1.496.864 3.129 1.274 4.741 1.274 3.283.0 6.477-1.704 8.236-4.751l2.99-5.179C273.2 102.596 271.643 96.785 267.099 94.162z"
		/><path d="M133.966 305.755l-2.99 5.179c-2.624 4.544-1.067 10.354 3.477 12.978 1.497.864 3.129 1.274 4.742 1.274 3.283.0 6.476-1.704 8.236-4.751l2.99-5.179c2.624-4.544 1.067-10.354-3.477-12.978C142.4 299.655 136.59 301.212 133.966 305.755z"/></g><g/><g/><g/><g/><g/><g/><g/><g/><g/><g/><g/><g/><g/><g/><g/></svg>