<svg id="Capa_1" xmlns="http://www.w3.org/2000/svg" xmlns:xlink="http://www.w3.org/1999/xlink" viewBox="0 0 476.968 476.968" style="enable-background:new 0 0 476.968 476.968"><g><path d="M398.912 186.565 345.204 240.669H399.542V186.525z"/><path d="M94.963 240.669h26.059l-10.794-25.949c-.256-.622-.364-1.258-.566-1.88-3.922-12.074 1.934-25.359 13.844-30.321l.054-.024-.078-.032c-6.063-2.516-10.793-7.235-13.331-13.331-2.509-6.049-2.524-12.727-.024-18.83l12.082-29.288c3.836-9.233 12.773-15.196 22.773-15.196 3.23.0 6.39.63 9.387 1.864l.062.024-.03-.07c-.986-2.384-1.452-4.829-1.67-7.275-5.451-2.959-11.601-4.799-18.24-4.799H38.443C17.214 95.561.0 112.775.0 134.005v19.202 59.633 163.641l48.576-106.042C56.861 252.355 75.069 240.669 94.963 240.669z"/><path d="M148.307 122.38c-1.088-.45-2.214-.66-3.324-.66-3.432.0-6.693 2.034-8.091 5.397l-12.067 29.249c-.878 2.144-.87 4.543.016 6.679.892 2.142 2.594 3.844 4.728 4.728l16.61 6.841c-.49 5.187-.512 10.435.0 15.692l-16.562 6.895c-4.441 1.848-6.553 6.965-4.705 11.415l12.159 29.219c.498 1.204 1.452 2.004 2.354 2.834h13.549l12.051-5.016c1.538 1.84 3.378 3.324 5.055 5.016h45.641l3.13-3.152c-18.41-3.464-34.11-15.81-41.503-33.576-5.768-13.875-5.792-29.164-.062-43.055 5.723-13.891 16.516-24.715 30.392-30.484 6.903-2.88 14.178-4.34 21.602-4.34 22.797.0 43.187 13.611 51.946 34.668 1.452 3.479 2.532 7.051 3.26 10.669l39.151-39.452-2.128-5.117c-1.398-3.354-4.659-5.381-8.075-5.381-1.12.0-2.245.218-3.339.668l-16.562 6.887c-3.378-4.068-7.127-7.757-11.143-11.065l6.849-16.608c.884-2.144.878-4.543-.008-6.677-.894-2.136-2.586-3.836-4.745-4.729L255.25 77.873c-1.088-.45-2.221-.66-3.331-.66-3.432.0-6.685 2.034-8.067 5.396l-6.857 16.626c-2.624-.242-5.264-.374-7.911-.374-2.586.0-5.187.124-7.797.38l-6.887-16.562c-1.398-3.354-4.643-5.38-8.051-5.38-1.118.0-2.252.216-3.347.674L173.79 90.118c-4.441 1.856-6.553 6.965-4.705 11.415l6.895 16.562c-4.084 3.37-7.773 7.113-11.081 11.135L148.307 122.38z"/><path d="M229.277 141.964c-5.319.0-10.529 1.048-15.498 3.114-9.947 4.138-17.688 11.911-21.796 21.873-4.107 9.961-4.093 20.934.046 30.887 6.895 16.578 24.675 26.199 42.077 24.305l35.12-35.376c.752-6.709-.016-13.526-2.68-19.933C260.258 151.731 245.629 141.964 229.277 141.964z"/><path d="M459.26 95.227l-25.173 25.351c-4.427 4.457-11.609 4.473-16.066.048-30.818-30.57-30.291-22.719 6.545-59.835 9.459-9.521-18.426-26.261-38.256-12.113-37.862 26.943-34.624 31.283-37.062 80.039L238.128 240.669h84.666l69.122-69.634 30.344-1.74c15.934-.908 30.592-9.061 39.763-22.145l9.651-13.758C485.544 113.591 468.858 85.569 459.26 95.227z"/><path d="M434.739 264.522H94.963c-10.631.0-20.274 6.195-24.699 15.856L10.257 411.361c-2.244 4.892-1.84 10.591 1.064 15.118 2.912 4.526 7.921 7.267 13.309 7.267h364.764c6.189.0 11.803-3.603 14.372-9.225l55.673-121.518c3.852-8.409 3.16-18.2-1.84-25.989C452.605 269.227 443.987 264.522 434.739 264.522z"/></g><g/><g/><g/><g/><g/><g/><g/><g/><g/><g/><g/><g/><g/><g/><g/></svg>