<svg id="Capa_1" xmlns="http://www.w3.org/2000/svg" xmlns:xlink="http://www.w3.org/1999/xlink" viewBox="0 0 477.065 477.065" style="enable-background:new 0 0 477.065 477.065"><g><path d="M454.693 97.579H321.047V62.125c0-21.104-17.168-38.272-38.272-38.272h-88.488c-21.104.0-38.272 17.168-38.272 38.272v35.454H22.369C10.015 97.579.0 107.596.0 119.95V409.62c0 12.353 10.015 22.37 22.369 22.37h11.749v2.672c0 10.241 8.307 18.55 18.558 18.55 10.241.0 18.55-8.309 18.55-18.55v-2.672h334.605v2.672c0 10.241 8.307 18.55 18.558 18.55 10.241.0 18.55-8.309 18.55-18.55v-2.672h11.755c12.354.0 22.371-10.017 22.371-22.37V119.95C477.065 107.596 467.048 97.579 454.693 97.579zM187.82 62.125c0-3.564 2.904-6.467 6.467-6.467h88.488c3.564.0 6.467 2.904 6.467 6.467v35.454H187.82V62.125zM355.965 298.235c-4.604 4.62-10.995 7.275-17.524 7.275h-.536l.38.38c4.674 4.675 7.253 10.887 7.253 17.494.0 6.609-2.579 12.82-7.253 17.494l-22.627 22.635c-4.674 4.658-10.885 7.229-17.486 7.229-6.607.0-12.819-2.571-17.486-7.237l-.388-.396v.55c0 13.636-11.095 24.731-24.737 24.731h-32c-13.634.0-24.729-11.095-24.729-24.731v-.55l-.382.38c-4.666 4.675-10.885 7.245-17.494 7.245-6.529.0-12.913-2.648-17.486-7.245l-22.649-22.642c-9.621-9.653-9.621-25.337.016-34.966l.372-.372h-.52c-13.634.0-24.731-11.095-24.731-24.739v-32.005c0-13.644 11.096-24.739 24.731-24.739h.52l-.356-.358c-4.675-4.674-7.253-10.885-7.253-17.494.0-6.507 2.64-12.889 7.253-17.494l22.633-22.642c4.675-4.659 10.887-7.229 17.486-7.229 6.609.0 12.828 2.578 17.486 7.253l.374.372v-.528c0-6.491 2.562-12.354 6.669-16.772 4.519-4.86 10.917-7.959 18.06-7.959h32c7.151.0 13.549 3.099 18.068 7.959 4.108 4.418 6.669 10.281 6.669 16.772v.512l.374-.372c4.666-4.675 10.877-7.245 17.494-7.245 6.607.0 12.819 2.57 17.486 7.245l22.625 22.626c4.675 4.675 7.253 10.887 7.253 17.494.0 6.531-2.656 12.914-7.245 17.486l-.38.374h.536c13.634.0 24.729 11.095 24.729 24.739l.008 32.005C363.178 287.279 360.538 293.654 355.965 298.235z"/><path d="M338.441 239.93h-18.146c-1.578-5.117-3.643-10.017-6.111-14.66l12.85-12.858c1.662-1.654 2.594-3.906 2.594-6.243.0-2.344-.932-4.588-2.594-6.249l-22.627-22.627c-1.724-1.724-3.983-2.586-6.242-2.586-2.268.0-4.527.862-6.251 2.586l-12.859 12.858c-4.651-2.47-9.543-4.527-14.66-6.095v-18.146c0-4.876-3.96-8.829-8.835-8.829h-32c-4.876.0-8.827 3.953-8.827 8.829v18.146c-5.117 1.568-10.017 3.626-14.676 6.095l-12.843-12.843c-1.724-1.732-3.984-2.594-6.251-2.594-2.26.0-4.518.862-6.242 2.586l-22.627 22.627c-1.662 1.662-2.594 3.914-2.594 6.25.0 2.346.932 4.589 2.594 6.251l12.843 12.843c-2.47 4.651-4.526 9.543-6.103 14.66h-18.146c-4.876.0-8.829 3.96-8.829 8.837v32.005c0 4.877 3.953 8.837 8.829 8.837h18.138c1.577 5.117 3.635 10.017 6.103 14.668l-12.85 12.85c-3.44 3.44-3.44 9.037.0 12.485l22.635 22.635c1.654 1.662 3.906 2.586 6.242 2.586 2.346.0 4.589-.924 6.251-2.586l12.842-12.843c4.659 2.468 9.559 4.534 14.684 6.102v18.154c0 4.877 3.952 8.829 8.827 8.829h32c4.876.0 8.835-3.952 8.835-8.829v-18.154c5.117-1.568 10.025-3.634 14.676-6.102l12.859 12.851c1.724 1.724 3.983 2.586 6.242 2.586 2.26.0 4.527-.862 6.251-2.586l22.619-22.619c1.662-1.662 2.594-3.906 2.594-6.251.0-2.344-.932-4.588-2.594-6.25l-12.851-12.851c2.468-4.651 4.534-9.559 6.103-14.676h18.146c2.336.0 4.596-.932 6.25-2.594 1.654-1.654 2.586-3.906 2.586-6.243l-.008-32.005C347.268 243.89 343.316 239.93 338.441 239.93zM239.556 321.599c-31.33.0-56.822-25.491-56.822-56.822s25.491-56.823 56.822-56.823c31.338.0 56.829 25.493 56.829 56.823S270.895 321.599 239.556 321.599z"/><path d="M239.556 223.856c-22.564.0-40.919 18.356-40.919 40.921.0 22.564 18.356 40.919 40.919 40.919 22.565.0 40.927-18.356 40.927-40.919C280.484 242.212 262.121 223.856 239.556 223.856z"/></g><g/><g/><g/><g/><g/><g/><g/><g/><g/><g/><g/><g/><g/><g/><g/></svg>