<svg id="Capa_1" xmlns="http://www.w3.org/2000/svg" xmlns:xlink="http://www.w3.org/1999/xlink" width="425.129" height="425.129" viewBox="0 0 425.129 425.129" style="enable-background:new 0 0 425.129 425.129"><g><path d="M294.569 1.28c-72.106.0-130.553 46.26-130.553 103.326.0 33.993 20.835 64.063 52.856 82.892-3.128 17.17-13.104 37.394-27.044 51.34 34.041-2.543 64.009-12.301 83.627-32.381 6.888.891 13.912 1.469 21.12 1.469 72.107.0 130.554-46.26 130.554-103.326C425.129 47.534 366.676 1.28 294.569 1.28zM324.394 84.002c-4.162 1.387-8.636-.856-10.023-4.991-1.734-5.182-7.997-11.227-19.931-11.227-9.826.0-15.64 6.576-16.32 13.076-.843 8.112 5.862 14.464 17.938 16.993 24.541 5.141 31.735 21.59 30.438 34.116-1.34 12.995-11.228 23.208-24.147 26.255v9.119c0 4.373-3.543 7.916-7.915 7.916s-7.915-3.543-7.915-7.916v-8.786c-15.354-2.618-24.1-12.586-27.03-21.332-1.387-4.148.851-8.636 4.991-10.023 4.169-1.38 8.636.857 10.023 4.991 1.733 5.182 7.997 11.227 19.931 11.227 9.826.0 15.64-6.576 16.32-13.076.843-8.112-5.869-14.464-17.938-16.993-24.541-5.141-31.735-21.59-30.438-34.116 1.347-12.995 11.228-23.208 24.147-26.255v-9.119c0-4.373 3.543-7.916 7.915-7.916s7.915 3.543 7.915 7.916v8.786c15.354 2.611 24.1 12.587 27.03 21.332C330.772 78.127 328.542 82.608 324.394 84.002zM260.644 416.025c-20.992 20.992-99.239 1.102-176.583-76.234C6.725 262.447-13.172 184.2 7.827 163.202c18.197-18.197 40.372-49.98 73.63-8.582 33.272 41.385 16.925 52.965-1.856 71.74-13.11 13.117 14.273 46.287 42.929 74.949 28.648 28.655 61.832 56.046 74.943 42.929 18.781-18.775 30.354-35.129 71.746-1.863C310.624 375.654 278.833 397.829 260.644 416.025z"/></g><g/><g/><g/><g/><g/><g/><g/><g/><g/><g/><g/><g/><g/><g/><g/></svg>