<svg id="Capa_1" xmlns="http://www.w3.org/2000/svg" xmlns:xlink="http://www.w3.org/1999/xlink" viewBox="0 0 456.951 456.951" style="enable-background:new 0 0 456.951 456.951"><g><path d="M270.238 353.719c0-23.028-18.734-41.762-41.762-41.762-23.028.0-41.763 18.734-41.763 41.762.0 12.981 5.955 24.596 15.274 32.262-9.32 7.666-15.274 19.281-15.274 32.262v29.208c0 5.247 4.253 9.5 9.5 9.5h64.524c5.247.0 9.5-4.253 9.5-9.5v-29.208c0-12.981-5.955-24.596-15.274-32.262C264.283 378.316 270.238 366.7 270.238 353.719zm-19 64.524v19.708h-45.524v-19.708c0-12.551 10.211-22.762 22.763-22.762C241.027 395.481 251.238 405.692 251.238 418.243zM205.713 353.719c0-12.551 10.211-22.762 22.763-22.762 12.551.0 22.762 10.211 22.762 22.762s-10.211 22.762-22.762 22.762C215.924 376.481 205.713 366.27 205.713 353.719z"/><path d="M270.238 41.762C270.238 18.734 251.503.0 228.476.0c-23.028.0-41.763 18.734-41.763 41.762.0 12.981 5.955 24.597 15.274 32.262-9.32 7.665-15.274 19.281-15.274 32.262v29.208c0 5.247 4.253 9.5 9.5 9.5h64.524c5.247.0 9.5-4.253 9.5-9.5v-29.208c0-12.981-5.955-24.596-15.274-32.262C264.283 66.359 270.238 54.743 270.238 41.762zm-19 64.524v19.708h-45.524v-19.708c0-12.551 10.211-22.762 22.763-22.762C241.027 83.524 251.238 93.735 251.238 106.286zM205.713 41.762c0-12.551 10.211-22.762 22.763-22.762 12.551.0 22.762 10.211 22.762 22.762s-10.211 22.762-22.762 22.762C215.924 64.524 205.713 54.313 205.713 41.762z"/><path d="M108.745 302.915v-29.208c0-12.981-5.955-24.596-15.274-32.262 9.32-7.666 15.274-19.281 15.274-32.262.0-23.028-18.734-41.762-41.762-41.762-23.028.0-41.763 18.734-41.763 41.762.0 12.981 5.955 24.596 15.274 32.262-9.32 7.666-15.274 19.281-15.274 32.262v29.208c0 5.247 4.253 9.5 9.5 9.5h64.524C104.492 312.415 108.745 308.161 108.745 302.915zM66.983 186.421c12.551.0 22.762 10.211 22.762 22.762s-10.211 22.762-22.762 22.762c-12.552.0-22.763-10.211-22.763-22.762S54.431 186.421 66.983 186.421zM89.745 293.415H44.22v-19.708c0-12.551 10.211-22.762 22.763-22.762 12.551.0 22.762 10.211 22.762 22.762V293.415z"/><path d="M416.457 241.445c9.32-7.666 15.274-19.281 15.274-32.262.0-23.028-18.734-41.762-41.762-41.762s-41.762 18.734-41.762 41.762c0 12.981 5.955 24.596 15.274 32.262-9.32 7.666-15.274 19.281-15.274 32.262v29.208c0 5.247 4.253 9.5 9.5 9.5h64.523c5.247.0 9.5-4.253 9.5-9.5v-29.208C431.731 260.726 425.776 249.111 416.457 241.445zm-49.25-32.262c0-12.551 10.211-22.762 22.762-22.762s22.762 10.211 22.762 22.762-10.211 22.762-22.762 22.762S367.207 221.734 367.207 209.183zM412.731 293.415h-45.523v-19.708c0-12.551 10.211-22.762 22.762-22.762s22.762 10.211 22.762 22.762V293.415z"/><path d="M372.612 324.439c-4.201-3.144-10.154-2.287-13.298 1.913-11.944 15.958-26.573 29.471-43.152 40.031l1.467-2.329c2.797-4.439 1.465-10.305-2.974-13.102-4.439-2.796-10.304-1.466-13.103 2.974l-19.622 31.144c-1.809 2.872-1.948 6.49-.366 9.493 1.582 3.003 4.646 4.933 8.037 5.064l36.783 1.422c.125.005.25.007.374.007 5.077.0 9.288-4.016 9.486-9.133.202-5.243-3.884-9.657-9.126-9.86l-.189-.007c18.273-11.732 34.401-26.692 47.594-44.319C377.669 333.536 376.812 327.583 372.612 324.439z"/><path d="M170.359 381.256c-16.411-6.248-31.598-15.064-45.074-26.061 3.348-.39 6.38-2.553 7.722-5.9 1.954-4.869-.408-10.401-5.277-12.355l-34.162-13.712c-3.15-1.264-6.735-.752-9.405 1.344-2.669 2.095-4.019 5.456-3.538 8.816l5.206 36.441c.677 4.739 4.741 8.158 9.393 8.158.447.0.899-.032 1.355-.097 5.193-.742 8.803-5.554 8.061-10.748l-.779-5.453c17.241 16.159 37.483 28.851 59.738 37.324 1.113.424 2.255.625 3.379.625 3.828.0 7.437-2.332 8.88-6.122C177.724 388.612 175.262 383.123 170.359 381.256z"/><path d="M77.565 143.5c1.584 1.012 3.354 1.496 5.105 1.496 3.134.0 6.202-1.55 8.015-4.387 12.834-20.088 30.073-37.191 50.062-49.972l-1.429 2.268c-2.797 4.439-1.465 10.305 2.974 13.102 1.573.991 3.324 1.464 5.056 1.464 3.154.0 6.24-1.571 8.047-4.437l19.623-31.144c1.809-2.872 1.948-6.49.366-9.493s-4.646-4.933-8.037-5.064l-36.783-1.422c-5.255-.205-9.657 3.884-9.86 9.126-.202 5.243 3.884 9.657 9.126 9.86l.267.01c-22.119 14.232-41.198 33.21-55.422 55.474C71.849 134.801 73.143 140.675 77.565 143.5z"/><path d="M286.589 75.703c21.596 8.221 41.313 21.135 57.638 37.497l-.581-.233c-4.87-1.954-10.401.409-12.355 5.278-1.954 4.869.408 10.401 5.277 12.355l34.161 13.712c1.144.459 2.345.684 3.538.684 2.094.0 4.166-.692 5.867-2.027 2.669-2.095 4.019-5.456 3.538-8.816l-5.206-36.44c-.741-5.194-5.546-8.801-10.748-8.061-5.193.742-8.803 5.554-8.061 10.748l.235 1.645c-18.637-19.326-41.456-34.546-66.544-44.096-4.904-1.868-10.392.596-12.259 5.499C279.224 68.348 281.686 73.836 286.589 75.703z"/></g><g/><g/><g/><g/><g/><g/><g/><g/><g/><g/><g/><g/><g/><g/><g/></svg>