<svg id="Capa_1" xmlns="http://www.w3.org/2000/svg" xmlns:xlink="http://www.w3.org/1999/xlink" width="31.785" height="31.785" viewBox="0 0 31.785 31.785" style="enable-background:new 0 0 31.785 31.785"><g><path d="M25.361 10.809c.188-.706.299-1.445.299-2.212C25.66 3.849 21.811.0 17.062.0c-4.435.0-8.084 3.36-8.545 7.672-2.677.474-4.713 2.799-4.713 5.609.0 2.581 1.713 4.764 4.064 5.471l4.217 7.539c0 0-.771 4.4-.764 4.388.266.623 2.273 1.106 4.71 1.106 2.436.0 4.443-.483 4.708-1.106.004.009-2.051-9.88-2.051-9.88 1.489.297 2.795.512 3.581.512 3.153.0 5.71-2.557 5.71-5.712C27.982 13.586 26.935 11.826 25.361 10.809zM11.046 6.902c1.433-4.506 5.428-4.733 5.598-4.74.6-.05 1.182.466 1.209 1.105.027.637-.462 1.176-1.099 1.21-.125.009-2.571.211-3.5 3.128-.156.493-.613.808-1.105.808-.117.0-.235-.017-.352-.055C11.19 8.165 10.854 7.512 11.046 6.902zM9.368 11.427C9.333 11.438 8.519 11.781 8.21 12.5c-.191.447-.159.979.1 1.622.239.595-.049 1.269-.644 1.508-.142.057-.287.085-.432.085-.46.0-.895-.275-1.077-.727-.498-1.242-.52-2.397-.065-3.435C6.795 9.956 8.364 9.325 8.54 9.258c.599-.226 1.269.077 1.495.677C10.259 10.532 9.959 11.196 9.368 11.427zM9.833 19.01c.736.062 1.98.307 3.421.618l-.553 3.127v.003L9.833 19.01z"/></g><g/><g/><g/><g/><g/><g/><g/><g/><g/><g/><g/><g/><g/><g/><g/></svg>