<svg id="Capa_1" xmlns="http://www.w3.org/2000/svg" xmlns:xlink="http://www.w3.org/1999/xlink" width="469.2" height="469.2" viewBox="0 0 469.2 469.2" style="enable-background:new 0 0 469.2 469.2"
	><g><path d="M68 6.8c-24.14.0-43.717 19.571-43.717 43.717.0 24.147 19.577 43.71 43.717 43.71 24.14.0 43.717-19.57 43.717-43.717C111.717 26.364 92.14 6.8 68 6.8zM136 157.373c0-26.826-21.746-48.573-48.572-48.573H48.573C21.747 108.8.0 130.546.0 157.373V176.8h136V157.373zM68 6.8c-24.14.0-43.717 19.571-43.717 43.717.0 24.147 19.577 43.71 43.717 43.71 24.14.0 43.717-19.57 43.717-43.717C111.717 26.364 92.14 6.8 68 6.8zM136 157.373c0-26.826-21.746-48.573-48.572-48.573H48.573C21.747 108.8.0 130.546.0 157.373V176.8h136V157.373zM231.2 292.4c-24.14.0-43.717 19.57-43.717 43.717.0 24.14 19.57 43.717 43.717 43.717 24.146.0 43.717-19.57 43.717-43.717S255.34 292.4 231.2 292.4zM299.2 442.973c0-26.826-21.746-48.572-48.572-48.572h-38.855c-26.826.0-48.572 21.746-48.572 48.572V462.4h136V442.973zM231.2 292.4c-24.14.0-43.717 19.57-43.717 43.717.0 24.14 19.57 43.717 43.717 43.717 24.146.0 43.717-19.57 43.717-43.717S255.34 292.4 231.2 292.4zM299.2 442.973c0-26.826-21.746-48.572-48.572-48.572h-38.855c-26.826.0-48.572 21.746-48.572 48.572V462.4h136V442.973zM401.2 6.8c-24.14.0-43.717 19.571-43.717 43.717.0 24.147 19.577 43.71 43.717 43.71s43.717-19.57 43.717-43.717C444.917 26.364 425.34 6.8 401.2 6.8zM469.2 157.373c0-26.826-21.746-48.573-48.572-48.573h-38.855c-26.826.0-48.572 21.747-48.572 48.573V176.8h136V157.373zM401.2 6.8c-24.14.0-43.717 19.571-43.717 43.717.0 24.147 19.577 43.71 43.717 43.71s43.717-19.57 43.717-43.717C444.917 26.364 425.34 6.8 401.2 6.8zM469.2 157.373c0-26.826-21.746-48.573-48.572-48.573h-38.855c-26.826.0-48.572 21.747-48.572 48.573V176.8h136V157.373zM343.802 410.088c-4.339.0-8.603-2.067-11.234-5.916-4.243-6.195-2.658-14.661 3.543-18.904l1.055-.721c6.181-4.257 14.653-2.713 18.917 3.461 4.271 6.175 2.72 14.647-3.461 18.918l-1.149.789C349.126 409.312 346.446 410.088 343.802 410.088zM117.803 409.537c-2.645.0-5.317-.769-7.67-2.38l-1.414-.993c-6.079-4.413-7.419-12.92-2.999-18.999s12.934-7.419 18.999-2.992l.789.544c6.202 4.243 7.786 12.709 3.543 18.904C126.398 407.47 122.135 409.537 117.803 409.537zM380.032 378.352c-3.196.0-6.406-1.121-8.99-3.399-5.63-4.971-6.167-13.566-1.196-19.196l.632-.707c4.998-5.59 13.75-6.25 19.354-1.272 5.603 4.998 6.256 13.41 1.271 19.021-.007.006-.334.367-.341.373l-.517.585C387.546 376.795 383.799 378.352 380.032 378.352zM81.716 377.617c-3.747.0-7.473-1.543-10.166-4.556l-.973-1.108c-4.943-5.657-4.352-14.253 1.306-19.183 5.665-4.95 14.246-4.358 19.19 1.306l.802.897c4.991 5.61 4.495 14.212-1.122 19.203C88.162 376.482 84.932 377.617 81.716 377.617zM407.688 338.885c-2.162.0-4.353-.51-6.392-1.598-6.631-3.543-9.133-11.778-5.59-18.408l.578-1.102c3.495-6.657 11.716-9.207 18.366-5.719s9.207 11.717 5.719 18.36l-.673 1.278C417.248 336.273 412.543 338.885 407.688 338.885zM54.271 338.042c-4.862.0-9.561-2.611-12.009-7.194l-.707-1.347c-3.448-6.671-.836-14.879 5.841-18.319 6.678-3.461 14.878-.836 18.326 5.834l.537 1.014c3.543 6.63 1.034 14.871-5.589 18.407C58.623 337.531 56.427 338.042 54.271 338.042zM425.096 293.937c-1.062.0-2.136-.122-3.217-.388-7.296-1.768-11.784-9.118-10.017-16.422l.218-.863c1.815-7.276 9.275-11.947 16.531-10.173 7.282 1.809 11.791 8.908 10.003 16.197.0.007-.137.537-.137.551l-.17.708C436.791 289.762 431.229 293.937 425.096 293.937zM37.081 293.025c-6.113.0-11.669-4.147-13.192-10.343l-.333-1.347c-1.768-7.303 2.713-14.653 10.017-16.422 7.31-1.795 14.654 2.714 16.422 10.01l.306 1.258c1.795 7.297-2.659 14.661-9.955 16.463C39.243 292.896 38.155 293.025 37.081 293.025zM431.168 246.14c-.034.0-.068.0-.103.0-7.507-.055-13.559-6.188-13.498-13.702v-2.054c0-7.507 6.093-13.6 13.601-13.6 7.507.0 13.6 6.093 13.6 13.6v2.251C444.707 240.122 438.627 246.14 431.168 246.14zM31.232 244.997c-7.507.0-13.6-5.882-13.6-13.396v-1.489c.082-7.459 6.154-13.457 13.6-13.457.048.0.102.0.15.0 7.507.082 13.532 6.236 13.457 13.743v.789C44.833 238.707 38.747 244.997 31.232 244.997zM302.771 58.038c-1.612.0-3.244-.292-4.835-.897l-1.224-.463c-7.025-2.659-10.567-10.506-7.916-17.53 2.652-7.024 10.5-10.567 17.53-7.915l1.292.49c7.018 2.679 10.54 10.533 7.868 17.551C313.419 54.699 308.258 58.038 302.771 58.038zM159.746 57.99c-5.48.0-10.642-3.339-12.716-8.765-2.672-7.018.85-14.878 7.868-17.551l1.428-.537c7.059-2.563 14.865 1.054 17.442 8.112 2.57 7.052-1.054 14.865-8.113 17.435l-1.081.408C162.989 57.698 161.351 57.99 159.746 57.99zM256.021 46.355c-.544.0-1.088-.034-1.639-.102l-1.319-.149c-7.46-.897-12.777-7.664-11.894-15.123.891-7.453 7.671-12.703 15.116-11.894l1.34.164c7.46.897 12.777 7.67 11.88 15.13C268.675 41.29 262.807 46.355 256.021 46.355zM206.476 46.349c-6.793.0-12.662-5.073-13.484-11.988-.891-7.459 4.434-14.226 11.893-15.123l1.319-.15c7.48-.918 14.232 4.42 15.13 11.873.897 7.459-4.42 14.232-11.88 15.13l-1.339.163C207.557 46.322 207.013 46.349 206.476 46.349z"/></g><g/><g/><g/><g/><g/><g/><g/><g/><g/><g/><g/><g/><g/><g/><g/></svg>