<svg id="Capa_1" xmlns="http://www.w3.org/2000/svg" xmlns:xlink="http://www.w3.org/1999/xlink" viewBox="0 0 296.499 296.499" style="enable-background:new 0 0 296.499 296.499"><g><path d="M280.58 147.051l-169.601-89V7.499c0-2.73-1.458-5.246-3.848-6.565-2.387-1.318-5.293-1.237-7.605.219C-.407 64.071 10.701 252.458 13.94 289.568c.338 3.875 3.59 6.932 7.478 6.932h166.551c.008.0.016.0.02.0 4.143.0 7.5-3.441 7.5-7.584.0-.525-.053-1.081-.156-1.576-3.436-24.85-29.949-60.91-45.109-79.695l114.383-.145c0 0 .002.0.004.0 3.392.0 6.365-2.093 7.244-5.371l12.5-46.588C285.261 152.152 283.685 148.681 280.58 147.051zM134.254 148.438c-8.283.0-15-6.716-15-15s6.717-15 15-15c8.285.0 15 6.716 15 15s-6.715000000000003 15-15 15z"/></g><g/><g/><g/><g/><g/><g/><g/><g/><g/><g/><g/><g/><g/><g/><g/></svg>