<svg id="Capa_1" xmlns="http://www.w3.org/2000/svg" xmlns:xlink="http://www.w3.org/1999/xlink" width="31.54" height="31.54" viewBox="0 0 31.54 31.54" style="enable-background:new 0 0 31.54 31.54"
	><g><g><path d="M11.847 9.185c0-.449-.364-.812-.812-.812H9.542c-.448.0-.812.364-.812.812v1.245h3.116V9.185z"/><path d="M16.08 9.185c0-.449-.363-.812-.812-.812h-1.491c-.449.0-.812.364-.812.812v1.245h3.115V9.185v0z"/><path d="M20.254 9.185c0-.449-.363-.812-.812-.812h-1.491c-.448.0-.812.364-.812.812v1.245h3.117V9.185H20.254z"/><path d="M31.537 13.193c0 0-.016-4.565-.956-6.496.0.0-.531-1.007-1.43-.441-.897.566-6.983 4.401-6.983 4.401s-1.128.466-2.756.5c-1.629.035-8.896.26-8.896.26s-2.191-.029-3.575 1.186c-1.383 1.216-2.881 3.177-2.642 6.665.238 3.487 2.111 5.829 5.584 6.188l14.212-.152c0 0 1.336-.028 2.129-.762.0.0 1.308-.785 2.009-3.078l-3.775-2.17c0 0 .067 1.836-1.128 1.836-1.194.0-12.325-.138-12.325-.138s-1.979.138-1.979-1.782v-.998c0 0 .137-1.727 2.372-1.727 2.273.0 8.525.298 8.525.298s1.342.034 3.047.879c1.703.847 5.646 2.8 5.646 2.8s1.462.737 2.136-.774C30.749 19.684 31.592 17.151 31.537 13.193z"/><path d="M5.873 12.168l-2.726.084c-.688-.043-1.699-.457-1.699-.457-1.023-.443-1.272.608-1.272.608-.283 1.167-.206 2.013.104 2.791.3.751.727.524 1.478.278.752-.248 1.318-.362 1.318-.362l1.033-.011C4.504 13.405 5.873 12.168 5.873 12.168z"/></g></g><g/><g/><g/><g/><g/><g/><g/><g/><g/><g/><g/><g/><g/><g/><g/></svg>