<svg id="Capa_1" xmlns="http://www.w3.org/2000/svg" xmlns:xlink="http://www.w3.org/1999/xlink" width="125.463" height="125.463" viewBox="0 0 125.463 125.463" style="enable-background:new 0 0 125.463 125.463"><g><g><path d="M124.464 82.123l-23.211-22.899c-.502-.495-1.147-.813-1.838-.934v-.011c-.166-.023-.333-.048-.504-.048-.013.0-.027.004-.039.004-.017.0-.026-.004-.041-.004-.172.0-.338.024-.505.048v.011c-.689.12-1.336.438-1.838.934L73.279 82.123c-1.336 1.317-1.33 3.448.009 4.763.668.656 1.548.983 2.425.982.876-.002 1.754-.334 2.42-.989l2.329-2.297.033 19.696 18.378-.03 18.375.03.033-19.696 2.328 2.297c.668.655 1.545.987 2.422.989.875.001 1.756-.326 2.424-.982C125.796 85.571 125.8 83.44 124.464 82.123zM112.689 100.226l-8.146-.013.021-11.521-5.148-.008v-.002h-.543-.546v.002l-5.103.008-.025 11.521-8.146.013L85.02 80.082l13.854-13.665 13.852 13.665L112.689 100.226z"/><path d="M110.564 50.679c-3.484-13.254-17.543-25.218-33.424-28.446-15.521-3.154-30.504.841-43.33 11.549C19.804 45.477 10.297 63.696 6.689 79.208c-1.077.232-2.052.553-2.877.99-1.051.519-1.859 1.148-2.423 1.744-.58.572-.898 1.143-1.104 1.504-.198.371-.248.593-.248.593s.817-.401 2.186-.543c.673-.082 1.469-.104 2.342.005.393.033.807.104 1.231.197.0.0 3.401.785 6.625 2.752.0.0.909.529 1.368.81 1.311.752 2.553 1.53 4.326 2.31 1.696.711 3.41 1.379 5.597 1.677.536.073 1.133.094 1.696.128.597.002 1.221-.042 1.839-.111 1.266-.193 2.587-.598 3.687-1.23 1.094-.605 1.996-1.348 2.644-2 .695-.67 1.209-1.235 1.673-1.777.0.0 1.082-1.238 1.771-1.622.966-.552 1.831-.592 2.873-.681 2.112-.186 4.162-.02 5.6.101 1.493.14 2.345.218 2.345.218s-.125-.184-.386-.502c-.267-.311-.648-.795-1.208-1.318-.549-.545-1.27-1.143-2.161-1.774-.9-.614-1.987-1.237-3.321-1.757-1.333-.5-2.93-.798-4.895-.82-1.687-.021-3.742.611-7.602 3.631-.504.396-1.264.949-2.67.854-.237-.035-.453-.032-.713-.071-1.025-.109-2.381-.521-3.656-.908-.645-.229-1.233-.369-2.012-.672-.366-.136-.73-.269-1.093-.4l-1.109-.363c-.814-.26-1.586-.557-2.423-.707-.253-.057-.501-.109-.751-.163 3.551-13.774 12.173-29.931 24.435-40.167 11.305-9.438 23.914-12.826 37.48-10.071 12.071 2.456 21.136 9.905 25.578 17.518-18.761-3.735-32.56.365-41.062 12.249-4.812 6.72-6.511 13.542-5.056 20.276.7 3.244 2.083 6.114 3.732 8.605-.725-.204-1.48-.385-2.315-.497-.538-.073-1.133-.095-1.696-.128-.597-.003-1.221.042-1.838.111-1.268.193-2.59.598-3.689 1.229-1.093.606-1.994 1.349-2.643 1.999-.694.672-1.208 1.236-1.672 1.779.0.0-.968 1.611-4.644 2.303-2.085.393-4.163.02-5.6-.102-1.493-.137-2.347-.217-2.347-.217s.127.184.388.502c.267.311.648.795 1.207 1.317.55.546 1.271 1.144 2.162 1.774.899.615 1.987 1.238 3.32 1.759 1.334.499 2.933.921 4.896.819.496-.039.993-.065 1.521-.211l.791-.196c.279-.081.621-.234.929-.369l.474-.22.394-.196.483-.276.246-.138.298-.229.063-.045.128-.093.514-.368c.662-.465 1.264-.959 1.761-1.289.526-.367.918-.551 1.231-.674.301-.133.554-.121.869-.179.181.003.364.004.569-.002.24.034.454.032.714.071 1.025.109 2.382.521 3.657.908.646.229 1.234.369 2.012.67l1.59.564.613.202c.813.259 1.583.556 2.422.706.813.18 1.601.374 2.419.438 1.582.227 3.176.166 4.594-.014 1.435-.238 2.717-.609 3.766-1.165 1.05-.519 1.857-1.149 2.422-1.745.581-.57.898-1.143 1.104-1.502.2-.373.25-.595.25-.595s-.816.401-2.186.544c-.672.082-1.471.104-2.342-.005-.187-.015-.375-.042-.567-.073-.59-.973-1.97-2.583-5.206-5.037-2.176-1.65-6.857-6.918-7.993-12.246-.582-2.724-.385-5.525.574-8.375.517-1.746 3.036-7.689 8.013-8.618 3.077-.574 6.535.925 9.486 4.122.688.746 1.82.865 2.648.276.826-.588 1.088-1.699.611-2.593-1.732-3.252-3.902-5.981-6.475-8.185 7.469-2.961 17.201-2.72 29.389.693 1.203.341 2.491.005 3.381-.871C110.531 53.172 110.883 51.885 110.564 50.679z"/><path d="M14.996 94.563c-.267-.309-.648-.795-1.209-1.317-.549-.544-1.27-1.142-2.161-1.772-.9-.617-1.987-1.24-3.32-1.759-1.334-.5-2.933-.922-4.896-.821-.497.041-.992.065-1.521.211l-.791.196c-.279.082-.621.235-.931.369L0 89.748v10.071c.429-.334.805-.672 1.12-.988.0.0 3.959-4.002 6.316-4.082 1.295-.062 4.161-.02 5.599.102 1.493.139 2.345.217 2.345.217S15.255 94.884 14.996 94.563z"/></g></g><g/><g/><g/><g/><g/><g/><g/><g/><g/><g/><g/><g/><g/><g/><g/></svg>