<svg id="Capa_1" xmlns="http://www.w3.org/2000/svg" xmlns:xlink="http://www.w3.org/1999/xlink" width="537.201" height="537.2" viewBox="0 0 537.201 537.2" style="enable-background:new 0 0 537.201 537.2"><g><path d="M185.3 360.4c0 33.803-27.397 61.2-61.2 61.2-33.803.0-61.2-27.397-61.2-61.2s27.397-61.2 61.2-61.2C157.903 299.2 185.3 326.598 185.3 360.4zM219.3 510c0-37.557-30.443-68-68-68H96.9c-37.557.0-68 30.443-68 68v27.2h190.4V510zM413.1 299.2c-33.803.0-61.2 27.397-61.2 61.2s27.397 61.2 61.2 61.2 61.2-27.397 61.2-61.2S446.903 299.2 413.1 299.2zM508.3 510c0-37.557-30.444-68-68-68h-54.4c-37.557.0-68 30.443-68 68v27.2h190.4V510zM443.7 40.8V204c0 22.535-18.265 40.8-40.8 40.8h-15.3l8.5 34c0 0-38.529-7.323-56.794-34H221.693c-18.265 26.676-56.793 34-56.793 34l8.5-34h-28.9c-22.535.0-40.8-18.265-40.8-40.8V40.8c0-22.535 18.265-40.8 40.8-40.8h258.4C425.435.0 443.7 18.265 443.7 40.8zM318.73 79.043c-3.781-11.268-15.049-24.12-34.83-27.486V40.236c0-5.63-4.569-10.2-10.2-10.2-5.63.0-10.2 4.57-10.2 10.2V51.98c-16.646 3.93-29.383 17.088-31.11 33.83-1.673 16.136 7.595 37.332 39.223 43.955 15.558 3.257 24.201 11.444 23.112 21.896-.87 8.371-8.363 16.851-21.025 16.851-15.381.0-23.446-7.793-25.677-14.464-1.795-5.331-7.541-8.214-12.913-6.433-5.338 1.795-8.221 7.568-6.433 12.913 3.781 11.268 15.048 24.12 34.83 27.486v11.322c0 5.63 4.57 10.2 10.2 10.2 5.631.0 10.2-4.569 10.2-10.2v-11.744c16.646-3.93 29.383-17.088 31.11-33.83 1.673-16.136-7.596-37.332-39.223-43.955-15.559-3.257-24.201-11.444-23.113-21.896.87-8.371 8.364-16.851 21.025-16.851 15.382.0 23.446 7.793 25.677 14.464 1.796 5.331 7.555 8.221 12.913 6.433C317.634 90.161 320.518 84.388 318.73 79.043zM413.1 299.2c-33.803.0-61.2 27.397-61.2 61.2s27.397 61.2 61.2 61.2 61.2-27.397 61.2-61.2S446.903 299.2 413.1 299.2zM508.3 510c0-37.557-30.444-68-68-68h-54.4c-37.557.0-68 30.443-68 68v27.2h190.4V510z"/></g><g/><g/><g/><g/><g/><g/><g/><g/><g/><g/><g/><g/><g/><g/><g/></svg>