<svg id="Capa_1" xmlns="http://www.w3.org/2000/svg" xmlns:xlink="http://www.w3.org/1999/xlink" viewBox="0 0 478.415 478.415" style="enable-background:new 0 0 478.415 478.415"><g><path d="M178.826 255.638c-40.719-3.929-72.662-37.853-72.662-79.589.0-44.375 35.966-80.381 80.365-80.381 41.633.0 75.473 31.812 79.541 72.384 1.274-.07 2.516-.258 3.789-.258h102.478c-1.024-6.762-3.246-13.393-6.77-19.504L300.064 34.855c-9.923-17.176-28.247-27.751-48.063-27.751H121.01c-19.816.0-38.141 10.575-48.064 27.751L7.443 148.29c-9.925 17.176-9.925 38.342.0 55.517l65.503 113.419c9.923 17.176 28.249 27.751 48.064 27.751h26.321c-3.214-16.344-.682-33.598 7.859-48.413L178.826 255.638z"/><path d="M472.254 308.508l-54.198-93.883c-8.199-14.218-23.372-22.977-39.786-22.977H269.859c-16.414.0-31.586 8.751-39.786 22.969l-54.23 93.883c-8.199 14.216-8.199 31.734.0 45.951l54.23 93.891c8.199 14.21 23.371 22.969 39.786 22.969H378.27c16.414.0 31.586-8.759 39.786-22.977l54.198-93.889C480.469 340.234 480.469 322.716 472.254 308.508zM324.057 398.003c-36.742.0-66.512-29.793-66.512-66.52.0-36.736 29.771-66.536 66.512-66.536 36.758.0 66.512 29.801 66.512 66.536C390.569 368.211 360.815 398.003 324.057 398.003z"/></g><g/><g/><g/><g/><g/><g/><g/><g/><g/><g/><g/><g/><g/><g/><g/></svg>