<svg id="Capa_1" xmlns="http://www.w3.org/2000/svg" xmlns:xlink="http://www.w3.org/1999/xlink" width="97.042" height="97.043" viewBox="0 0 97.042 97.043" style="enable-background:new 0 0 97.042 97.043"><g><g><path d="M4.04 30.251c.83.435 1.872.607 2.88.775 1.223.203 2.488.414 3.264 1.065.597.552.923 1.31 1.237 2.043.06.14.121.271.182.406-.576 3.079.707 6.34 3.503 8.145 3.688 2.377 8.607 1.316 10.985-2.373 2.38-3.688 1.317-8.606-2.371-10.986-3.688-2.379-8.608-1.316-10.987 2.371-.282.438-.513.895-.699 1.36-.282-.596-.634-1.203-1.188-1.715-1.002-.845-2.404-1.077-3.761-1.303-.974-.162-1.892-.314-2.569-.67-1.306-.722-1.922-1.552-1.692-2.276.207-.652 1.133-1.24 2.463-1.376v1.267h30.45c.87 1.428 2.217 3.225 3.43 3.099.675-.077 1.154-.669 1.424-1.759.607-2.452 1.088-2.535 1.093-2.536.74-.036 2.147 4.456 2.828 6.609.042.131.082.258.124.388-.865.573-1.465 1.355-1.465 2.489.0.983.429 1.86 1.101 2.476.028.385.087.781.203 1.186.229.792.603 1.471 1.044 1.988l3.633-1.047c.079-.53.063-1.124-.057-1.739 3.534-1.365 6.012-5.031 5.85-4.889v5.456c-.038.162-.081.35-.127.551 3.724.55 8.371 2.783 9.625 10.273.0.0 5.496-.848 10.854 1.562.0.0-2.133-10.422-2.601-12.362v-6.485c1.288 2.681 2.091 6.522 2.009 12.41-.025 1.858 1.461 3.387 3.319 3.414.017.0.032.0.048.0 1.838.0 3.34-1.477 3.364-3.32.224-16.004-5.666-22.101-15.5-26.364-.008-.002-.017-.002-.021-.004l-2.097 2.199-2.159-2.175c-1.203.295-2.379.833-3.404 1.565-.029.016-2.859 2.053-5.059 5.071-1.738 2.388-3.499 5.816-6.663 6.867-.347.115-.683.249-1.006.396-.022-.069-.043-.137-.065-.206-1.43-4.523-2.382-7.308-3.779-7.308-.011.0-.022.001-.034.001-.859.027-1.467 1.013-2.032 3.295-.177.714-.409.987-.567 1.006-.482.052-1.325-.887-2.128-2.105h1.216v-4.269h-2.203V4.142H7.287v18.574H5.285v2.005c-1.697.148-3.052.922-3.416 2.071C1.686 27.37 1.53 28.863 4.04 30.251zM9.685 6.539H33.54v15.379H9.685V6.539z"/><path d="M92.902 68.555l-14.884-6.013c-.516-.207-1.066-.313-1.621-.313h-3.793v-.824c0-.422-.109-.813-.291-1.166l14.032 3.83c.37.102.743.149 1.11.149 1.851.0 3.545-1.229 4.057-3.101.611-2.242-.709-4.557-2.951-5.168l-18.484-5.045c-.367-.102-.728-.149-1.13-.148l-5.702.028c-1.816-14.507-16.083-9.661-16.083-9.661-4.023 1.498-7.182 1.022-8.689.617l-3.862-2.49c-.208-.134-.42-.245-.634-.346l-1.585-.462c-2.175-.279-4.415.747-5.888 2.14.0.0-.664.567-1.13 1.326-.446.726-.794 1.631-.794 1.631l-.011.021c-.899 2.603-.61 6.176 2.136 7.947l14.744 9.509c.175.112.354.213.532.305.0.027-.008.055-.008.082v.824h-4.192L18.168 48.615c.097-.107.19-.221.27-.348.72-1.149.371-2.667-.78-3.389l-6.677-4.182c-1.121-.702-2.584-.384-3.327.698-1.888-.924-4.214-.372-5.449 1.406-1.363 1.965-.876 4.662 1.089 6.025l30.665 21.285c.724.504 1.586.771 2.468.771h5.717c.364.98 1.302 1.684 2.407 1.684h5.439v20.326h-2.649c-1.146.0-2.074.93-2.074 2.074.0 1.146.929 2.076 2.074 2.076h20.027c1.146.0 2.075-.93 2.075-2.076s-.93-2.074-2.075-2.074h-2.779V72.568h5.439c1.105.0 2.043-.701 2.408-1.684h3.119l14.105 5.697c.53.214 1.08.316 1.618.316 1.716.0 3.337-1.024 4.017-2.709C96.19 71.973 95.12 69.449 92.902 68.555zM55.568 52.564c-.63.644-1.668.871-2.612 1.078-2.08.455-4.194.688-6.292.688-10.229.0-17.198-5.471-17.489-5.702-1.002-.799-1.634-1.941-1.777-3.216-.145-1.275.216-2.529 1.017-3.533.916-1.15 2.286-1.809 3.757-1.809 1.074.0 2.131.366 2.976 1.033 1.187.916 4.263 4.009 11.166 4.009 1.622.0 3.332-.194 5.084-.578.344-.075.693-.111 1.042-.111 2.271.0 4.271 1.61 4.754 3.828C57.625 50.764 55.641 52.439 55.568 52.564z"/><path d="M63.947 17.723c4.488.0 8.128-3.638 8.128-8.127.0-1.877-.65-3.592-1.724-4.965h-2.628V3.398h1.443c-.506-.425-1.055-.799-1.653-1.092C66.897.95 65.534.0 63.95.0c-1.582.0-2.941.947-3.562 2.303-.601.293-1.152.669-1.659 1.095h1.65v1.233h-2.836c-1.067 1.373-1.722 3.088-1.722 4.965C55.823 14.085 59.459 17.723 63.947 17.723zM63.95 1.715c1.219.0 2.207.99 2.207 2.208.0 1.217-.988 2.207-2.207 2.207-1.217.0-2.207-.99-2.207-2.207C61.743 2.706 62.733 1.715 63.95 1.715z"/><path d="M54.379 46.061c-.004-.002-.006-.004-.01-.006-.758-.484-1.701-.681-2.648-.475-10.815 2.364-16.723-2.847-17.001-3.116-1.366-1.362-3.577-1.375-4.954-.021-1.389 1.361-1.411 3.592-.049 4.98.271.274 6.188 5.828 16.47 5.828 2.136.0 4.483-.229 7.039-.792 1.899-.414 3.103-2.294 2.687-4.191C55.706 47.321 55.135 46.547 54.379 46.061z"/><path d="M16.932 13.264c.833-1.405.367-3.227-1.038-4.058-.457-.271-.978-.415-1.507-.415-1.043.0-2.02.557-2.55 1.453-.403.68-.518 1.477-.322 2.243.196.766.68 1.411 1.361 1.814.457.27.977.413 1.505.413v0C15.423 14.715 16.4 14.16 16.932 13.264z"/><path d="M30.669 17.408c-.258-.198-2.584-1.928-4.949-1.928-.331.0-.653.033-.957.101-.158.033-.31.079-.458.132l-.106.057-.263.199c-2.339-.903-2.194-2.676-2.115-3.639l.014-.168c.005-.592-.135-1.298-.469-2.386-.219-.715-1.008-1.136-1.727-.918-.728.222-1.141.996-.919 1.727.39 1.274.365 1.327.205 1.671l-.048.105c-.063.141-.181.289-.359.457-1.62 1.002-2.574 2.283-2.56 3.471.007.612.289 1.142.755 1.418l4.9 2.902c.335.198.702.3 1.09.3.914.0 1.841-1.069 2.363-1.949.038-.063.065-.119.082-.175.153-.244.279-.272.365-.291.064-.014.139-.021.222-.021.871.0 2.197.386 2.81.71 1.045.554 2.077.726 2.45.176C31.542 18.549 31.421 17.984 30.669 17.408z"/></g></g><g/><g/><g/><g/><g/><g/><g/><g/><g/><g/><g/><g/><g/><g/><g/></svg>