<svg id="Capa_1" xmlns="http://www.w3.org/2000/svg" xmlns:xlink="http://www.w3.org/1999/xlink" width="555.166" height="555.166" viewBox="0 0 555.166 555.166" style="enable-background:new 0 0 555.166 555.166"><g><path d="M294.202 61.183V48.759c0-9.18-7.439-16.619-16.619-16.619-9.18.0-16.619 7.439-16.619 16.619v12.424C122.217 68.187 10.839 162.279.0 280.646c13.491-9.683 33.959-15.864 56.882-15.864 35.673.0 65.396 14.96 72.121 34.81h2.958c6.896-19.721 36.53-34.551 72.046-34.551 22.991.0 43.466 6.236 56.957 15.966v166.668c0 23.216-18.891 42.105-42.105 42.105-23.215.0-42.106-18.89-42.106-42.105.0-9.18-7.439-16.619-16.619-16.619-9.18.0-16.619 7.439-16.619 16.619.0 41.548 33.803 75.352 75.351 75.352 41.548.0 75.337-33.804 75.337-75.352V280.735c13.484-9.724 33.952-15.953 56.93-15.953 35.673.0 65.396 14.96 72.121 34.81h2.958c6.895-19.721 36.529-34.551 72.046-34.551 22.937.0 43.418 6.188 56.909 15.885C544.477 162.428 433.045 68.201 294.202 61.183z"/></g><g/><g/><g/><g/><g/><g/><g/><g/><g/><g/><g/><g/><g/><g/><g/></svg>