<svg id="Capa_1" xmlns="http://www.w3.org/2000/svg" xmlns:xlink="http://www.w3.org/1999/xlink" width="31.891" height="31.891" viewBox="0 0 31.891 31.891" style="enable-background:new 0 0 31.891 31.891"><g><g><path d="M29.671 27.487H27.584V25.739H4.508V27.487H2.488V29.168H.942v1.75h30.21v-1.75H29.671z"/><path d="M9.487 24.325v-8.748h1.009v-1.149c0-.703-.569-1.273-1.273-1.273H4.77c-.703.0-1.272.57-1.272 1.273v1.149h1.077v8.748H9.487z"/><path d="M27.584 24.325v-8.748h1.076V14.43c0-.703-.569-1.273-1.271-1.273h-4.451c-.703.0-1.271.57-1.271 1.273v1.148h1.076v8.747H27.584v0z"/><path d="M18.501 24.325v-8.748h1.077v-1.149c0-.703-.569-1.273-1.271-1.273h-4.453c-.703.0-1.272.57-1.272 1.273v1.149h1.008v8.748H18.501z"/><path d="M17.109 1.273c-.728-.401-1.604-.401-2.329.0L1.398 8.678C.535 9.154.0 10.062.0 11.049v.83h31.891v-.83c0-.986-.535-1.896-1.396-2.372L17.109 1.273zM10.87 8.245c-.133.0-.248-.089-.281-.218C10.556 7.899 10.613 7.765 10.73 7.7l4.044-2.241c.726-.4 1.606-.4 2.332.0L21.148 7.7c.117.064.177.198.144.327s-.147.218-.28.218H10.87z"/></g></g><g/><g/><g/><g/><g/><g/><g/><g/><g/><g/><g/><g/><g/><g/><g/></svg>