<svg id="Capa_1" xmlns="http://www.w3.org/2000/svg" xmlns:xlink="http://www.w3.org/1999/xlink" width="401.608" height="401.608" viewBox="0 0 401.608 401.608" style="enable-background:new 0 0 401.608 401.608"><g><path d="M300.984 109.452 18.499 1.155C7.51-3.061-3.282 7.73.935 18.719l108.297 282.486c3.522 9.193 15.354 11.71 22.317 4.746l37.55-37.549c5.311-5.312 13.919-5.312 19.23.0l129.003 129.002c5.311 5.312 13.919 5.312 19.23.0l61.063-61.063c5.311-5.311 5.311-13.92.0-19.23l-129.01-128.989c-5.311-5.311-5.311-13.919.0-19.23l37.121-37.121C312.701 124.806 310.185 112.981 300.984 109.452z"/></g><g/><g/><g/><g/><g/><g/><g/><g/><g/><g/><g/><g/><g/><g/><g/></svg>