<svg id="Capa_1" xmlns="http://www.w3.org/2000/svg" xmlns:xlink="http://www.w3.org/1999/xlink" width="31.54" height="31.54" viewBox="0 0 31.54 31.54" style="enable-background:new 0 0 31.54 31.54"
	><g><g><path d="M24.547 27.678h-2.033l-1.125-2.979c.613-.112 1.076-.635 1.076-1.279.0-.729-.59-1.3-1.319-1.3H20.41l-.921-2.458h1.882c.154.0.311-.021.428-.072v-2.51c-.117-.05-.272-.051-.428-.051h-2.865l-.92-2.458h3.785c.154.0.311-.041.428-.087v-2.359c-.176.0-.39-.069-.57-.128H16.6l-.92-2.459h5.153l1.709-1.926c-.221-.427-.66-.707-1.17-.707h-6.68l-1.185-3.102h11.041v1.659c.703-.502 1.756-.524 2.517-.064V3.425c0-1.275-.97-2.313-2.245-2.313H12.522l-.037-.095C12.25.404 11.66.0 11.003.0H3.725C2.345.0 1.199 1.094 1.199 2.473V29.08c0 1.379 1.146 2.46 2.525 2.46h18.932c.297.0.573-.149.742-.394.168-.243.206-.543.1-.836h1.32c1.275.0 2.245-1.008 2.245-2.282v-5.792h-2.517V27.678H24.547z"/><path d="M30.227 10.355 26.82 6.479c-.245-.279-.6-.44-.97-.44-.373.0-.728.16-.972.439l-3.406 3.876c-.119.136-.147.329-.073.493.073.163.237.27.418.27h1.033v8.637c0 .803.62 1.43 1.423 1.43h3.152c.802.0 1.451-.627 1.451-1.43v-8.637h1.006c.18.0.343-.106.416-.27C30.375 10.684 30.346 10.49 30.227 10.355z"/></g></g><g/><g/><g/><g/><g/><g/><g/><g/><g/><g/><g/><g/><g/><g/><g/></svg>