<svg id="Capa_1" xmlns="http://www.w3.org/2000/svg" xmlns:xlink="http://www.w3.org/1999/xlink" width="31.668" height="31.668" viewBox="0 0 31.668 31.668" style="enable-background:new 0 0 31.668 31.668"><g><g><path d="M4.609.0C3.323.0 2.28 1.043 2.28 2.329v27.01c0 1.286 1.043 2.329 2.329 2.329h22.449c1.286.0 2.329-1.043 2.329-2.329V2.329C29.388 1.043 28.345.0 27.059.0H4.609zM26.654 28.818H5.014V2.849h21.641V28.818z"/><path d="M11.145 10.749c.603.001 2.48.014 2.677.014-3.902 3.27-4.792 12.242-4.896 13.467-.049.582.383 1.09.965 1.14.581.049 1.095-.407 1.145-.988.247-2.896 1.578-10.527 4.55-12.334h.497c2.973 1.807 4.303 9.438 4.549 12.334.051.582.563 1.035 1.146.987.582-.049 1.015-.559.966-1.141-.104-1.224-.996-10.194-4.896-13.464.197.0 2.074-.013 2.677-.014v.782h4.217V7.314h-4.217v1.317c-.774.0-1.722.0-2.667.0v-.8h-1.119H14.93h-1.119v.801c-.946.0-1.894.0-2.667.0V7.314H6.927v4.216h4.217V10.749z"/></g></g><g/><g/><g/><g/><g/><g/><g/><g/><g/><g/><g/><g/><g/><g/><g/></svg>