<svg id="Capa_1" xmlns="http://www.w3.org/2000/svg" xmlns:xlink="http://www.w3.org/1999/xlink" width="31.709" height="31.709" viewBox="0 0 31.709 31.709" style="enable-background:new 0 0 31.709 31.709"><g><g><path d="M10.595 25.719H4.696c-1.127.0-2.06-.886-2.06-2.013V5.42c0-1.127.933-2.006 2.06-2.006h14.277c1.127.0 2.047.879 2.047 2.006v15.323l2.637-3.135V3.462c0-1.482-1.172-2.684-2.652-2.684H2.559C1.136.778.0 1.932.0 3.354v22.382c0 1.482 1.185 2.688 2.669 2.688h10.358l-1.224-1.063C11.267 26.896 10.864 26.327 10.595 25.719z"/><path d="M17.875 6.794H6.034c-.728.0-1.314.591-1.314 1.318.0.726.587 1.317 1.314 1.317h11.84c.728.0 1.312-.591 1.312-1.317C19.188 7.386 18.602 6.794 17.875 6.794z"/><path d="M17.875 11.187H6.034c-.728.0-1.314.59-1.314 1.318.0.724.587 1.318 1.314 1.318h11.84c.728.0 1.312-.594 1.312-1.318C19.188 11.777 18.602 11.187 17.875 11.187z"/><path d="M17.875 15.581H6.034c-.728.0-1.314.558-1.314 1.286.0.725.587 1.282 1.314 1.282h11.84c.728.0 1.312-.56 1.312-1.282C19.188 16.139 18.602 15.581 17.875 15.581z"/><path d="M4.719 21.056c0 .727.587 1.283 1.314 1.283h4.418c.185-.473.469-1.022.857-1.479.408-.473.889-.82 1.412-1.092H6.034C5.306 19.771 4.719 20.331 4.719 21.056z"/><path d="M17.875 19.771h-.988c.324.137.633.366.916.611l1.312 1.123c.05-.135.076-.28.076-.437C19.188 20.346 18.602 19.771 17.875 19.771z"/><path d="M30.898 16.249c-.965-.828-2.42-.71-3.246.26l-7.564 8.867-3.781-3.248c-.968-.826-2.421-.717-3.248.248-.829.967-.717 2.418.248 3.246l5.533 4.752c.422.358.951.557 1.5.557.062.0.119-.002.182-.008.607-.047 1.176-.336 1.572-.801l9.066-10.627C31.982 18.528 31.869 17.077 30.898 16.249z"/></g></g><g/><g/><g/><g/><g/><g/><g/><g/><g/><g/><g/><g/><g/><g/><g/></svg>