<svg id="Capa_1" xmlns="http://www.w3.org/2000/svg" xmlns:xlink="http://www.w3.org/1999/xlink" width="32.049" height="32.049" viewBox="0 0 32.049 32.049" style="enable-background:new 0 0 32.049 32.049"><g><g><path d="M23.007 27.728h-1.956l-6.75-17.855h5.62c.72.0 1.304-.599 1.304-1.317.0-.718-.584-1.315-1.304-1.315h-6.594l-1.169-3.09h10.848v4.863h2.575V3.812c0-1.26-.994-2.297-2.253-2.297H11.186L11.15 1.427c-.233-.605-.815-.999-1.464-.999H2.498C1.135.429.0 1.51.0 2.873v26.276c0 1.362 1.135 2.472 2.498 2.472h18.695c.293.0.568-.171.733-.412.166-.24.204-.562.099-.847h1.304c1.259.0 2.253-.991 2.253-2.251v-2.559h-2.575V27.728z"/><path d="M16.684 10.729c1.694 4.064 4.955 12.648 5.068 12.992h8.193c1.162.0 2.104-.942 2.104-2.104v-8.783c0-1.162-.941-2.104-2.104-2.104L16.684 10.729v0zM24.854 19.212c-.162.106-.369.115-.541.022-.17-.092-.276-.271-.276-.464v-3.793c0-.193.106-.372.276-.464.172-.093.379-.084.541.022l2.896 1.896c.148.097.238.264.238.44.0.178-.09.346-.238.441L24.854 19.212z"/></g></g><g/><g/><g/><g/><g/><g/><g/><g/><g/><g/><g/><g/><g/><g/><g/></svg>