<svg id="Capa_1" xmlns="http://www.w3.org/2000/svg" xmlns:xlink="http://www.w3.org/1999/xlink" width="414.8" height="414.8" viewBox="0 0 414.8 414.8" style="enable-background:new 0 0 414.8 414.8"
	><g><path d="M315.86 150.551c-15.301.0-27.812 12.444-27.812 27.812v18.496c0 15.369 12.512 27.88 27.812 27.88H380.8v-74.188H315.86zM334.424 201.551c-7.684.0-13.872-6.256-13.872-13.94s6.188-13.872 13.872-13.872c7.685.0 13.94 6.188 13.94 13.872S342.108 201.551 334.424 201.551zM360.4 51H47.6C21.311 51 0 72.311.0 98.6V329.8c0 18.773 15.225 34 34 34h312.8c18.775.0 34-15.227 34-34v-91.461H315.86c-22.78.0-41.412-18.639-41.412-41.412v-18.564c0-22.773 18.632-41.412 41.412-41.412H380.8v-24.752c0-15.021-12.179-27.2-27.2-27.2H40.8c-3.74.0-6.8-3.06-6.8-6.8.0-3.74 3.06-6.8 6.8-6.8h312.8c22.535.0 40.801 18.265 40.801 40.8V321.3c12.308-8.637 20.399-22.916 20.399-39.102V105.399C414.8 75.357 390.442 51 360.4 51zM315.86 150.551c-15.301.0-27.812 12.444-27.812 27.812v18.496c0 15.369 12.512 27.88 27.812 27.88H380.8v-74.188H315.86zM334.424 201.551c-7.684.0-13.872-6.256-13.872-13.94s6.188-13.872 13.872-13.872c7.685.0 13.94 6.188 13.94 13.872S342.108 201.551 334.424 201.551zM315.86 150.551c-15.301.0-27.812 12.444-27.812 27.812v18.496c0 15.369 12.512 27.88 27.812 27.88H380.8v-74.188H315.86zM334.424 201.551c-7.684.0-13.872-6.256-13.872-13.94s6.188-13.872 13.872-13.872c7.685.0 13.94 6.188 13.94 13.872S342.108 201.551 334.424 201.551z"/></g><g/><g/><g/><g/><g/><g/><g/><g/><g/><g/><g/><g/><g/><g/><g/></svg>