<svg id="Capa_1" xmlns="http://www.w3.org/2000/svg" xmlns:xlink="http://www.w3.org/1999/xlink" width="49" height="49" viewBox="0 0 49 49" style="enable-background:new 0 0 49 49"><g><path d="M44.408 37.751c0 .338-.274.613-.614.613-.338.0-.612-.275-.612-.613v-2.99H38.86c-3.223.0-5.846-2.753-5.846-6.139.0-.967.231-1.869.613-2.686.951-2.038 2.93-3.454 5.23-3.454h3.166 1.152v-2.989c0-.339.277-.614.614-.614s.612.275.612.614v2.989h3.07v-8.479c0-2.034-1.648-3.684-3.684-3.684H42.66V3.916c0-.559-.253-1.085-.688-1.435-.435-.351-1.004-.482-1.55-.363l-37.996 8.36c-.426.093-.795.34-1.058.682C.54 11.834.0 12.85.0 14.003v29.239c0 2.033 1.649 3.683 3.683 3.683h40.106c2.035.0 3.684-1.648 3.684-3.683v-8.481h-3.068v2.99H44.408zM41.953 13.39h.711 1.13c.34.0.614.274.614.614v1.842c0 .339-.274.613-.614.613-.338.0-.612-.274-.612-.613v-1.228h-.518-.711c-.34.0-.614-.275-.614-.614C41.339 13.664 41.611 13.39 41.953 13.39zM30.425 14.004c0 .339-.274.614-.612.614h-4.047c-.34.0-.613-.275-.613-.614.0-.34.273-.614.613-.614h4.047C30.15 13.39 30.425 13.664 30.425 14.004zM37.904 14.619h-4.047c-.338.0-.613-.275-.613-.614.0-.34.275-.614.613-.614h4.047c.339.0.613.274.613.614C38.52 14.343 38.246 14.619 37.904 14.619zM9.576 13.39h4.047c.339.0.614.274.614.614.0.339-.275.614-.614.614H9.576c-.338.0-.614-.275-.614-.614C8.962 13.664 9.236 13.39 9.576 13.39zM3.073 19.496c0-.261.164-.481.394-.569.068-.026.142-.045.22-.045.339.0.614.275.614.614v1.549 2.102c0 .339-.275.614-.614.614-.338.0-.614-.275-.614-.614V19.496zM3.073 26.797c0-.338.275-.612.614-.612s.614.274.614.612v3.652c0 .338-.275.614-.614.614-.338.0-.614-.276-.614-.614V26.797zM3.073 34.1c0-.34.275-.613.614-.613S4.301 33.76 4.301 34.1v3.649c0 .34-.275.614-.614.614-.338.0-.614-.274-.614-.614V34.1zM5.528 43.858H3.687c-.338.0-.614-.276-.614-.614v-1.842c0-.338.275-.613.614-.613s.614.275.614.613v1.228h1.228c.338.0.614.276.614.614S5.869 43.858 5.528 43.858zM5.712 14.58c-.059.02-.119.037-.184.037H4.301v1.228c0 .339-.275.614-.614.614-.338.0-.614-.275-.614-.614v-1.841c0-.34.275-.614.614-.614h1.842c.123.0.23.045.327.106.169.109.287.29.287.508C6.142 14.277 5.96 14.5 5.712 14.58zM13.624 43.858H9.576c-.338.0-.614-.276-.614-.614s.275-.614.614-.614h4.048c.339.0.614.276.614.614S13.963 43.858 13.624 43.858zM21.717 43.858H17.67c-.339.0-.614-.276-.614-.614s.275-.614.614-.614h4.046c.338.0.614.276.614.614S22.057 43.858 21.717 43.858zM21.717 14.619h-4.048c-.338.0-.614-.275-.614-.614.0-.34.275-.614.614-.614h4.048c.338.0.614.274.614.614C22.331 14.343 22.057 14.619 21.717 14.619zM29.812 43.858h-4.047c-.34.0-.613-.276-.613-.614s.273-.614.613-.614h4.047c.338.0.614.276.614.614S30.15 43.858 29.812 43.858zM37.904 43.858h-4.047c-.338.0-.612-.276-.612-.614s.274-.614.612-.614h4.047c.339.0.613.276.613.614S38.246 43.858 37.904 43.858zM44.408 43.244c0 .338-.274.614-.614.614h-1.841c-.34.0-.614-.276-.614-.614s.274-.614.614-.614h1.229v-1.228c0-.338.274-.613.612-.613.34.0.614.275.614.613V43.244zM47.479 23.712h-3.443-.479H39.24h-.381c-1.276.0-2.434.556-3.271 1.447-.833.889-1.348 2.113-1.348 3.463.0 2.71 2.07 4.911 4.617 4.911h4.697.478 3.444H49v-9.821H47.479zM39.223 30.08c-.763.0-1.381-.652-1.381-1.458.0-.807.617-1.459 1.381-1.459s1.381.653 1.381 1.459S39.984 30.08 39.223 30.08z"/></g><g/><g/><g/><g/><g/><g/><g/><g/><g/><g/><g/><g/><g/><g/><g/></svg>