<svg id="Capa_1" xmlns="http://www.w3.org/2000/svg" xmlns:xlink="http://www.w3.org/1999/xlink" width="97.485" height="97.485" viewBox="0 0 97.485 97.485" style="enable-background:new 0 0 97.485 97.485"><g><g><path d="M50.355 43.82c-.201-.013-.377.015-.535.064V22.314c1.17-.438 2.005-1.562 2.005-2.885.0-1.704-1.38-3.084-3.083-3.084-1.703.0-3.083 1.38-3.083 3.084.0 1.323.835 2.447 2.005 2.885v21.6c-.182-.074-.393-.112-.639-.096-3.274.208-7.687 1.494-7.972 5.451-.224 3.104 1.904 5.266 4.444 6.639-3.184 2.881-2.86 7.976.776 10.734-1.309 1.338-2.245 2.975-1.95 4.979.376 2.57 2.285 4.363 4.549 5.433.275.129.542.165.792.142v.989.535 1.341c0 .596.483 1.079 1.078 1.079s1.078-.483 1.078-1.079V78.72v-.535-.981c.221.004.452-.039.688-.149 2.264-1.069 4.173-2.862 4.549-5.433.294-2.004-.642-3.641-1.951-4.979 3.634-2.758 3.959-7.848.782-10.73 2.387-1.287 4.313-3.262 4.471-6.191C58.584 45.515 53.622 44.028 50.355 43.82zM42.007 50.25c-.797-2.672 3.342-3.392 5.019-3.499.245-.016.457-.082.639-.18v7.985c-.144-.115-.312-.211-.512-.273C45.038 53.623 42.692 52.548 42.007 50.25zM47.152 57.111c.201-.063.369-.162.512-.279v8.391c-.051-.031-.103-.061-.162-.085C43.756 63.498 42.599 58.574 47.152 57.111zM47.502 67.668c.057-.041.11-.09.162-.141v6.627C44.876 72.508 44.5 69.912 47.502 67.668zM49.82 74.088v-6.469c.021.018.038.035.059.049C52.841 69.884 52.51 72.438 49.82 74.088zM49.878 65.137c-.021.008-.038.021-.059.031V56.91c.12.082.255.151.408.201C54.781 58.574 53.624 63.498 49.878 65.137zM50.228 54.283c-.154.049-.288.117-.408.197v-7.862c.159.07.334.121.535.134 1.862.118 4.9.583 5.072 2.97C55.609 52.254 52.096 53.701 50.228 54.283z"/><path d="M96.429 42.406c-7.492-.697-13.818-4.218-19.663-8.761-4.913-3.819-9.968-9.556-16.322-10.781-4.137-.797-10.812 1.552-10.619 6.589.075 1.958 1.051 3.83 1.638 5.667.84 2.636.558 4.939-1.128 7.169-.855 1.134 1.058 2.229 1.901 1.112 2.811-3.718 1.875-7.449.433-11.49-.646-1.812-1.113-3.536.438-4.999 2.683-2.527 6.84-2.355 9.928-.871 2.892 1.389 5.479 3.666 7.928 5.706 2.496 2.08 5.018 4.128 7.668 6.01 4.399 3.123 9.202 5.337 14.418 6.359-10.113 3.668-20.98-6.366-31.192-6.335-1.42.004-1.42 2.206.0 2.202 6.17-.02 12.103 3.411 17.828 5.329 2.455.823 5.008 1.442 7.544 1.612-4.202 1.139-8.605 1.083-13.249-.001-5.292-1.233-10.469-3.694-15.986-3.667-1.42.007-1.42 2.209.0 2.202 6.062-.03 11.863 2.972 17.757 4.087 7.348 1.39 14.333-.127 20.457-4.404.036-.025.938-.681 1.021-.81C97.747 43.76 97.477 42.503 96.429 42.406z"/><path d="M39.492 43.257c-5.518-.027-10.695 2.434-15.986 3.667-4.644 1.083-9.046 1.14-13.249.001 2.537-.17 5.089-.789 7.544-1.612 5.725-1.918 11.657-5.348 17.828-5.329 1.42.004 1.42-2.198.0-2.202-10.213-.031-21.08 10.003-31.192 6.335 5.215-1.022 10.018-3.236 14.418-6.359 2.65-1.881 5.171-3.93 7.668-6.01 2.45-2.04 5.036-4.317 7.927-5.706 3.088-1.484 7.245-1.656 9.928.871 1.552 1.463 1.085 3.187.438 4.999-1.442 4.041-2.377 7.771.433 11.49.845 1.118 2.758.022 1.901-1.112-1.685-2.23-1.968-4.533-1.127-7.169.586-1.837 1.562-3.709 1.637-5.667.193-5.038-6.482-7.386-10.619-6.589-6.354 1.226-11.409 6.962-16.322 10.781-5.845 4.543-12.171 8.064-19.664 8.761-1.048.098-1.319 1.354-.798 1.926.083.129.985.785 1.021.81 6.123 4.277 13.109 5.794 20.456 4.404 5.894-1.115 11.695-4.118 17.757-4.087C40.912 45.466 40.912 43.264 39.492 43.257z"/></g></g><g/><g/><g/><g/><g/><g/><g/><g/><g/><g/><g/><g/><g/><g/><g/></svg>