<svg id="Capa_1" xmlns="http://www.w3.org/2000/svg" xmlns:xlink="http://www.w3.org/1999/xlink" width="463.983" height="463.983" viewBox="0 0 463.983 463.983" style="enable-background:new 0 0 463.983 463.983"><g><g><path d="M284.959 311.297l-50.575-23.285-24.296-20.49-38.858 38.652 16.755 112.015c.059.39-.04.788-.272 1.105l-17.725 24.259c-.282.388-.732.615-1.211.615s-.929-.229-1.211-.615l-17.725-24.259c-.232-.317-.33-.716-.271-1.105l16.755-112.017-38.858-38.649-24.295 20.491-50.575 23.283c-7.484 3.07-14.754 7.694-18.578 15.85.0.0-54.972 130.881-25.156 130.881h319.831c29.816.0-25.155-130.881-25.155-130.881C300.28 319.357 292.443 314.367 284.959 311.297z"/><path d="M168.777 266.783c51.724.0 90.324-48.193 91.204-129.012.562-56.081-26.147-89.645-91.204-89.645-65.058.0-91.771 33.563-91.203 89.645C78.452 218.59 117.051 266.783 168.777 266.783z"/><path d="M344.912 5.956c-38.256.0-72.351 18.14-94.149 46.264 2.255 1.847 4.412 3.796 6.457 5.861 4.042 4.083 7.615 8.586 10.772 13.454 16.952-24.302 45.108-40.236 76.92-40.236 51.683.0 93.729 42.048 93.729 93.731.0 51.682-42.047 93.729-93.729 93.729-25.895.0-49.369-10.557-66.349-27.59-2.261 9.307-5.128 18.104-8.587 26.321 20.479 16.629 46.562 26.61 74.936 26.61 65.656.0 119.071-53.416 119.071-119.071C463.984 59.372 410.569 5.956 344.912 5.956z"
			/><path d="M344.912 49.128c-5.249.0-9.504 4.254-9.504 9.504v69.692c0 5.248 4.255 9.503 9.504 9.503h55.247c5.249.0 9.504-4.255 9.504-9.503.0-5.249-4.255-9.504-9.504-9.504h-45.744V58.632C354.415 53.382 350.16 49.128 344.912 49.128z"
			/></g></g><g/><g/><g/><g/><g/><g/><g/><g/><g/><g/><g/><g/><g/><g/><g/></svg>