<svg id="Capa_1" xmlns="http://www.w3.org/2000/svg" xmlns:xlink="http://www.w3.org/1999/xlink" width="32" height="32" viewBox="0 0 32 32" style="enable-background:new 0 0 32 32"><g><g><path d="M13.263 16.596l-.719-.562c-.102.163-.163.354-.163.559.0.289.117.551.306.744L13.263 16.596z"/><path d="M12.882 17.49c.164.104.355.165.563.165.299.0.567-.125.761-.323l-.745-.582L12.882 17.49z"/><path d="M13.979 15.678c-.157-.092-.339-.149-.534-.149-.291.0-.555.118-.746.308l.719.562L13.979 15.678z"/><path d="M14.354 17.131c.095-.158.152-.34.152-.539.0-.299-.126-.57-.327-.764l-.565.725L14.354 17.131z"/><path d="M29.713 24.617c-.02-.472-.201-5.134-.123-5.668.083-.562.188-2.709-.042-3.73s-.416-2.594-.271-2.625c.145-.031 1.125.688 1.354.938.151.166-.039 1.163-.188 1.817-.096.115-.156.261-.156.423.0.054.008.105.021.156v0c.069.287.326.5.635.5.31.0.565-.212.637-.5h.021c0 0 .635-2.313.303-2.98-.334-.667-3.396-2.98-3.752-2.98-.354.0-1.293.063-1.541.125-.178.044-1.756 1.354-2.668 2.122v-2.8h-6.241l.021 7.315h-1.085v-.573l-1.333-.003v-.667h-.375v-.958h.333v-.73h-.333v-.687h-3.063V13.8h-.334v.729h.334v.958h-.37v.667l-1.421.003v.573h-1.03L9.028 9.418H1.933l.016 7.921h.01v7.277H0v2h32v-2H29.713zM18.598 13.125h1.219v.615h-1.219V13.125zM18.605 14.7v-.614h1.219v.615L18.605 14.7v0zM19.82 15.043v.615h-1.219v-.615H19.82zM13.444 15.279c.724.0 1.313.589 1.313 1.312.0.725-.589 1.313-1.313 1.313-.725.0-1.313-.589-1.313-1.313C12.131 15.868 12.72 15.279 13.444 15.279zM7.46 10.402h.667v5.379H7.46V10.402zM19.088 24.825H6.876v-1.792h12.212V24.825zM22.357 20.178H3.568v-.707h18.79V20.178zM20.229 14.715V14.1h1.22v.615H20.229zM21.443 15.057v.615h-1.219v-.615H21.443zM21.439 13.754H20.22v-.615h1.219V13.754zM22.24 13.75h-.43v-.615h.729c-.184.116-.307.32-.307.553C22.234 13.708 22.238 13.728 22.24 13.75zM23.033 15.667h-1.219v-.615h1.219V15.667zM23.037 14.71h-1.219v-.615h.562c.12.15.304.249.511.249.051.0.101-.007.146-.018V14.71zM23.078 12.718h-4.471v-2.344h4.471V12.718zM26.109 16.156c-.219.562-1.459 2.417-1.375 3.271.063.664.078 4.305.1 4.623-.354.0-.538.322-.555.565l-.348.021.004-10.781c.69-.477 1.978-1.325 2.069-1.262C26.141 12.688 26.327 15.594 26.109 16.156zM28.018 24.033c-.26.0-.47.21-.47.469.0.041.007.078.017.115h-.955c-.012-.591-.082-4.238-.082-4.812.0-.625 1.396-2.084 1.396-2.084s-.104 2.041-.104 2.416c0 .299.146 2.857.205 3.896H28.018z"/><path d="M25.174 8.04c.016-.001.086-.016.198-.042.015.148.044.298.096.445.337.954 1.37 1.462 2.304 1.133.932-.329 1.416-1.373 1.08-2.327-.009-.022-.019-.043-.026-.065.116-.028.188-.045.188-.045s-.062-.654-.505-1.164c-.553-.214-1.235-.235-1.764-.029-.16.063-.345.162-.505.316-.172.102-.322.23-.447.379.148-.387.454-.68.891-.849.459-.176 1.028-.195 1.543-.074-.297-.217-.707-.362-1.27-.33-1.883.107-1.712 2.129-1.712 2.129s-.126.013-.226.048c-.099.035-.193.038-.153.193.009.026-.003-.001.041.178C24.949 8.067 25.048 8.053 25.174 8.04zM28.498 7.262c.014.032.027.064.04.097.274.782-.118 1.636-.879 1.904-.759.268-1.603-.149-1.878-.931-.049-.135-.074-.273-.083-.41C26.438 7.752 27.768 7.436 28.498 7.262z"/></g></g><g/><g/><g/><g/><g/><g/><g/><g/><g/><g/><g/><g/><g/><g/><g/></svg>