<svg id="Capa_1" xmlns="http://www.w3.org/2000/svg" xmlns:xlink="http://www.w3.org/1999/xlink" width="32" height="32" viewBox="0 0 32 32" style="enable-background:new 0 0 32 32"><g><g><path d="M3.117 22.453c-.068.289-3.065 8.024-3.065 8.024l.004.013C.022 30.588.0 30.69.0 30.798c0 .534.434.968.968.968h2.839c.533.0.967-.434.967-.968s-.434-.967-.967-.967H3.248c.953-2.089 2.642-5.979 2.681-6.255.054-.383.136-1.453.136-1.453l-2.742-2.921C3.323 19.203 3.186 22.165 3.117 22.453z"/><path d="M5.192 4.245C5.184 4.289 5.174 4.331 5.167 4.376 4.89 6.265 6.169 8.022 8.015 8.294c1.848.271 3.577-1.046 3.854-2.937.042-.292.044-.58.015-.859.218.005.354.008.383.004.238-.021.427-.03.456-.291.017-.347.004-.292.011-.344.019-.302-.159-.273-.355-.301-.195-.029-.434-.007-.434-.007S11.526-.249 8 .237C6.944.382 6.238.798 5.766 1.31 6.675.898 7.74.726 8.653.885c.869.154 1.541.587 1.958 1.249-.286-.229-.612-.414-.967-.54C9.291 1.368 8.914 1.25 8.596 1.195 7.543 1.006 6.285 1.292 5.339 1.889 4.703 2.996 4.828 4.23 4.828 4.23S4.965 4.235 5.192 4.245zM5.786 4.465c.01-.065.025-.13.039-.194 1.416.056 3.998.158 5.428.205.033.257.035.521-.005.789C11.022 6.814 9.61 7.894 8.107 7.673 6.601 7.453 5.561 6.014 5.786 4.465z"/><path d="M19.977 25.583h11.438v1.357H19.977z"/><path d="M19.966 23.28h11.438v1.356H19.966z"/><path d="M19.966 21.078h11.438v1.358H19.966z"/><path d="M19.971 19.009h11.438v1.358H19.971z"/><path d="M32 27.692H19.163V16.789c0-.363-.295-.658-.658-.658h-2.453c-.045-.094-.103-.179-.171-.255l.005-.006c0 0-6.762-6.617-7.27-6.747-.507-.13-2.283-.57-2.527-.621C5.845 8.449 5.448 8.409 5.298 8.944c-.151.534-2.41 7.934-1.976 8.899.494 1.099 4.663 4.938 4.883 5.377.199.398.127 6.446.112 7.561-.001.02-.006.038-.006.059.0.017.004.03.004.046.0.045-.001.071-.001.071h.009c.059.479.461.85.955.85h2.839c.534.0.967-.433.967-.967.0-.533-.433-.967-.967-.967h-1.174c.099-2.187.296-6.968.17-7.475-.165-.658-3.142-4.21-3.142-4.21l1.331-4.842 5.02 4.088.004-.006c.196.181.454.292.739.292.276.0.525-.104.718-.272h2.062v10.244.78.7H19.1c-.166.267-.267.575-.267.911.0.95.772 1.722 1.724 1.722.949.0 1.721-.771 1.721-1.722.0-.336-.101-.646-.266-.911h5.682c-.115.231-.207.597-.207.87.0.95.771 1.724 1.722 1.724s1.724-.772 1.724-1.724c0-.273-.051-.639-.164-.87H32V27.692zM20.557 30.819c-.404.0-.734-.33-.734-.734.0-.405.33-.733.734-.733.405.0.734.328.734.733C21.291 30.489 20.962 30.819 20.557 30.819zM29.225 30.875c-.429.0-.773-.346-.773-.772.0-.194.078-.365.195-.501.068-.092.156-.162.267-.204.096-.043.2-.068.312-.068.428.0.773.347.773.773C29.997 30.53 29.65 30.875 29.225 30.875z"/></g></g><g/><g/><g/><g/><g/><g/><g/><g/><g/><g/><g/><g/><g/><g/><g/></svg>