<svg id="Capa_1" xmlns="http://www.w3.org/2000/svg" xmlns:xlink="http://www.w3.org/1999/xlink" width="32" height="32" viewBox="0 0 32 32" style="enable-background:new 0 0 32 32"><g><path d="M15.133 6.932c.292.0.528-.236.528-.528s-.236-.528-.528-.528c-.058.0-.113.012-.166.029.039.043.063.098.063.161.0.135-.109.245-.245.245-.059.0-.112-.024-.154-.06-.015.049-.025.1-.025.154C14.605 6.695 14.842 6.932 15.133 6.932z"/><path d="M17.621 6.886c.292.0.528-.236.528-.528S17.913 5.83 17.621 5.83c-.06.0-.114.012-.166.03.037.043.063.098.063.16.0.135-.109.245-.244.245-.061.0-.113-.024-.155-.06-.015.048-.024.1-.024.153C17.093 6.65 17.329 6.886 17.621 6.886z"/><path d="M16.388 8.674c.553.0.81-.617.81-.617h-1.633C15.565 8.057 15.835 8.674 16.388 8.674z"/><path d="M12.812 4.478c-.057.544-.212 2.887 1.02 4.294.612.699 1.468 1.054 2.544 1.054.01.0.019-.001.027-.001.01.0.019.001.028.001 1.075.0 1.931-.355 2.543-1.054 1.23-1.408 1.076-3.75 1.021-4.294.29-.071.479-.047.537-.097.11-.096.124-.837.015-1.001-.109-.165-.565-.089-.648-.24-.067-.125-.471-2.166-2.256-2.89v2.572h-.639V.063C16.814.028 16.615.007 16.405.0v0c-.001.0-.002.0-.003.0.0.0-.001.0-.002.0v0c-.211.006-.41.028-.597.063v2.758h-.641V.25c-1.783.724-2.188 2.765-2.256 2.89-.081.15-.536.074-.647.239-.109.164-.095.905.014 1.001C12.331 4.43 12.521 4.407 12.812 4.478zM13.239 4.635c.184.091.389.223.612.417.372.0 1.777.005 2.445.008v.001c0 0 .039.0.105.0.066.0.105.0.105.0V5.06c.668-.002 2.073-.008 2.445-.008.223-.194.428-.326.612-.417.05.653.108 2.668-.925 3.849-.523.599-1.27.903-2.211.903-.01.0-.018-.001-.025-.001v0c-.001.0-.002.0-.003.0.0.0-.001.0-.002.0v0c-.009.0-.017.001-.025.001-.943.0-1.688-.304-2.213-.903C13.129 7.304 13.188 5.288 13.239 4.635z"/><ellipse cx="18.876" cy="25.721" rx=".627" ry=".614"/><ellipse cx="17.972" cy="29.441" rx=".525" ry=".515"/><g><circle cx="13.629" cy="27.192" r=".953"/><path d="M28.427 24.223c-.08-.08-.189-.127-.306-.127l-3.345.01v-.703h-1.079V22.55h-4.594c.262-.14.479-.255.522-.274.129-.053.09-.135.062-.187-.006-.012-.045-.078-.104-.172l1.838-1.112c.254.176.578.243.896.19.194.116.422.188.667.188.707.0 1.279-.562 1.285-1.259l.725-.438c.596-.361.803-1.107.463-1.67-.195-.323-.533-.51-.896-.543.069-.905.104-2.024-.021-2.708-.539-2.95-4.416-5.168-5.459-5.06-.326.047-.781 1.367-2.809 1.367s-2.287-1.32-2.614-1.367c-1.043-.108-4.955 1.953-5.495 4.902-.14.766.041 2.143.183 2.884l-.801-.335C7.08 16.76 6.543 16.98 6.348 17.445c-.195.467.024 1.004.491 1.199l1.649.69c-.002.026-.008.05-.008.077.0.699.575 1.268 1.285 1.268.375.0.71-.16.945-.414l.285.12c.03.792.508 1.534 1.287 1.86.756.316 1.562.178 2.146-.32.076-.064.064-.208-.077-.197-.11.002-.124.019-.285.014-.162-.008-.809-.153-1.094-.359-.286-.206-.641-.872-.442-1.345.002-.006.011-.022.011-.022.002-.007.004-.014.006-.02.199-.473.922-.688 1.27-.628.347.059.905.417 1.022.528.118.11.115.133.191.211.092.108.202.019.195-.082-.057-.766-.522-1.438-1.278-1.754-.794-.332-1.675-.14-2.261.418l-1.036-.435c-.237-1.524-.394-2.713-.183-3.057.396-.648 1.609-1.917 1.609-1.917l.021 4.783c.604-.289 1.325-.324 1.961-.059.845.354 1.388 1.102 1.453 1.998.008.118-.032.232-.111.316-.157.169-.434.16-.59-.027-.027-.025-.05-.055-.073-.084-.021-.025-.042-.053-.096-.104-.093-.088-.599-.406-.874-.453-.256-.045-.823.142-.955.455l-.015.037c-.14.332.147.864.343 1.006.226.162.81.299.937.305h.048c.044.0.069-.003.095-.005.036-.005.071-.009.127-.009h.001c.192.0.335.096.392.25.015.039.022.08.023.121l1.551.004v0h.058.059v0h.335c.047-.17.156-.325.324-.436l.149-.101c.331-.224 1.104-.746 1.198-.815.173-.141.343-.17.456-.17.077.0.198.016.323.086l1.147-.695c.03-.278.126-.547.276-.785l.023-5.618c0 0 1.178 1.427 1.573 2.075.183.296.086 1.997-.065 3.062l-.615.373c-.445.271-.674.757-.617 1.22l-1.836 1.111c-.061-.1-.104-.167-.11-.178-.032-.049-.086-.12-.194-.032-.086.071-1.041.713-1.393.95-.13.082-.098.178-.061.238.019.028.142.232.273.45H8.697v.53h-1.69v.8H4.453c-.557-.002-1.007.45-1.007 1.007v6.096c0 .557.45 1.008 1.007 1.008.557.0 1.007-.451 1.007-1.008v-5.09h1.547l.016.742h1.69l-.016 5.338h15.001v-3.957h1.079v-.576h1.457l-.011 4.102c0 .238.193.432.433.432s.433-.192.433-.432l.01-4.532c0-.239-.193-.432-.432-.432h-1.89v-.66h-1.079l.01-.375h1.069v-.608l2.912.024-.017 6.608c0 .238.192.432.431.432h.001c.238.0.431-.191.432-.432l.018-7.039C28.554 24.415 28.509 24.305 28.427 24.223zM7.544 17.966c-.09.214-.336.315-.55.226-.215-.09-.315-.336-.227-.551.09-.215.337-.315.551-.226C7.533 17.505 7.634 17.751 7.544 17.966zM16.171 28.177c-.117.026-.313.056-.646.097l-.03.002-.161.227.006.028c.155.79.13.806.063.848l-.515.317c-.022.014-.055.019-.081.013-.023-.005-.096-.022-.657-.446l-.022-.018-.282.046-.015.024c-.458.66-.489.653-.563.637l-.299-.067-.299-.067C12.596 29.8 12.566 29.793 12.437 29l-.004-.027-.234-.164-.027.006c-.689.143-.761.125-.785.121-.027-.006-.054-.025-.069-.045l-.329-.51c-.042-.066-.058-.09.422-.738l.017-.021-.048-.273-.025-.015c-.284-.181-.448-.292-.542-.365l.197-.874c.118-.027.313-.062.649-.111l.028-.004.16-.227-.006-.029c-.174-.779-.147-.797-.082-.838l.517-.318c.021-.012.054-.018.081-.012.064.016.29.161.673.436l.022.016.28-.047.017-.023c.437-.668.47-.66.542-.645l.325.073.325.073c.072.017.105.023.213.814l.004.029.233.162.027-.004c.463-.084.73-.117.794-.104.026.006.054.023.068.045l.33.51c.042.065.059.092-.434.721l-.018.023.048.273.023.016c.282.189.444.305.538.381L16.171 28.177zM19.503 29.592c0 .041.0.057-.406.213l-.014.006-.057.135.007.014c.183.382.17.395.142.423l-.23.226c-.01.01-.025.016-.04.016-.035.0-.169-.049-.397-.146l-.014-.004-.14.057-.007.014c-.147.396-.164.396-.205.396h-.324c-.04.0-.057.0-.217-.396l-.004-.014-.142-.058-.014.006c-.339.153-.378.153-.392.153-.015.0-.03-.006-.041-.016l-.229-.226c-.029-.029-.04-.039.132-.43l.007-.014-.058-.135-.015-.006c-.404-.145-.404-.162-.404-.203v-.317c0-.041.0-.056.404-.212l.014-.006.057-.135-.007-.015c-.181-.382-.169-.394-.14-.423l.23-.225c.008-.01.024-.017.039-.017.034.0.17.05.398.146l.014.006.139-.057.006-.015c.147-.396.166-.396.205-.396h.326c.039.0.055.0.215.395l.006.014.14.057.015-.006c.34-.154.379-.154.392-.154.014.0.03.007.04.016l.229.225c.028.027.041.039-.132.43l-.006.014.058.137.014.004c.406.146.406.162.406.203V29.592zM20.698 25.902c0 .048.0.065-.482.254l-.017.006-.067.161.008.017c.217.456.203.471.168.504l-.274.268c-.011.013-.03.02-.048.02-.041.0-.201-.058-.475-.174l-.017-.006-.166.066-.007.018c-.177.472-.195.472-.245.472h-.387c-.048.0-.067.0-.259-.471l-.004-.017-.168-.066-.017.007c-.403.183-.45.183-.466.183-.018.0-.037-.008-.049-.019l-.273-.269c-.035-.035-.048-.047.157-.513l.008-.017-.067-.161-.018-.006c-.482-.173-.482-.193-.482-.242v-.379c0-.048.0-.065.481-.253l.017-.006.067-.161-.008-.017c-.216-.457-.201-.471-.167-.506l.273-.268c.012-.012.031-.02.049-.02.041.0.201.06.475.174l.018.007.166-.067.006-.017c.177-.472.197-.472.244-.472h.389c.047.0.066.0.256.471l.007.017.167.067.018-.008c.403-.183.451-.183.465-.183.019.0.037.009.049.019l.273.268c.033.034.049.048-.156.514l-.008.018.067.162.017.006c.483.172.483.193.483.24L20.698 25.902v0z"/></g></g><g/><g/><g/><g/><g/><g/><g/><g/><g/><g/><g/><g/><g/><g/><g/></svg>