<svg id="Capa_1" xmlns="http://www.w3.org/2000/svg" xmlns:xlink="http://www.w3.org/1999/xlink" width="428.408" height="428.407" viewBox="0 0 428.408 428.407" style="enable-background:new 0 0 428.408 428.407"><g><path d="M214.204.0c-11.75.0-23.263.986-34.503 2.802 4.93 1.856 11.084 2.856 19.476 2.455 28.873-1.374 46.763 4.127 26.119 12.39-20.645 8.262-16.803 17.034-7.167 17.721 9.636.687 32.096-9.595 39.549-.551 7.69 9.336-8.63 24.65 1.102 41.194 14.477 24.623-35.041 30.26-47.553 48.722-12.07 17.809-18.877 36.883-5.113 62.451 13.763 25.568 17 10.125 41.201 12.927 47.709 5.521 33.429 42.874 92.208 54.57 22.487 4.475 7.031 53.325-32.43 76.867-38.032 22.685-26.023 48.708-80.069 66.062-12.988 4.169-22.869 1.775-12.818-12.675 19.495-28.022 17.803-59.255.0-73.236-17.802-13.98-37.76-17.027-32.946-38.556 4.814-21.529 23.446-29.063 24.772-48.416 1.279-18.666-28.335-82.198-65.348-69.619-21.141 7.188-62.03-19.706-59.867-54.923 2.509-40.916 33.85-47.186 26.812-71.522-.021-.068.006-.156.0-.231C43.333 65.396.003 134.722.003 214.207c0 118.3 95.9 214.2 214.2 214.2s214.2-95.9 214.2-214.2S332.503.0 214.204.0z"/></g><g/><g/><g/><g/><g/><g/><g/><g/><g/><g/><g/><g/><g/><g/><g/></svg>