<svg id="Capa_1" xmlns="http://www.w3.org/2000/svg" xmlns:xlink="http://www.w3.org/1999/xlink" viewBox="0 0 477.088 477.088" style="enable-background:new 0 0 477.088 477.088"><g><path d="M202.685 111.416c18.908-11.438 28.885-33.287 25.135-55.067l-4.03-23.403c-3.27-19.024-19.762-32.922-39.065-32.922-5.792.0-10.489 4.698-10.489 10.49v48.273c0 8.766-7.105 15.871-15.872 15.871h-36.51c-8.767.0-15.87-7.105-15.87-15.871V10.513c0-5.792-4.697-10.49-10.491-10.49-19.296.0-35.796 13.899-39.064 32.922l-4.031 23.403c-3.75 21.78 6.227 43.63 25.135 55.067l20.624 12.478v229.323l-20.624 12.478c-18.908 11.438-28.885 33.288-25.135 55.068l4.031 23.403c3.268 19.024 19.76 32.922 39.064 32.922 5.793.0 10.491-4.698 10.491-10.491v-48.273c0-8.767 7.104-15.872 15.87-15.872h36.51c8.767.0 15.872 7.105 15.872 15.872v48.273c0 5.793 4.697 10.491 10.489 10.491 19.304.0 35.796-13.898 39.065-32.922l4.03-23.403c3.75-21.78-6.227-43.629-25.135-55.068l-20.624-12.478V123.894L202.685 111.416z"/><path d="M409.568 233.702h-42.185V87.408c7.337-2.811 12.593-9.815 12.593-18.138V0h-56.984v69.269c0 8.324 5.248 15.32 12.587 18.138v146.295h-42.187c-8.781.0-15.902 7.121-15.902 15.902.0 8.783 7.121 15.902 15.902 15.902h3.517v175.15c0 20.118 16.314 36.432 36.432 36.432h39.795c20.118.0 36.432-16.314 36.432-36.432v-175.15c8.781.0 15.902-7.119 15.902-15.902C425.471 240.823 418.35 233.702 409.568 233.702zM333.427 416.259c0 4.395-3.556 7.951-7.951 7.951-4.395.0-7.951-3.556-7.951-7.951V305.604c0-4.395 3.556-7.951 7.951-7.951 4.395.0 7.951 3.556 7.951 7.951V416.259zM359.432 416.259c0 4.395-3.557 7.951-7.951 7.951-4.395.0-7.951-3.556-7.951-7.951v-69.494-41.161c0-4.395 3.556-7.951 7.951-7.951 4.394.0 7.951 3.556 7.951 7.951v41.161V416.259zM385.435 416.259c0 4.395-3.556 7.951-7.951 7.951-4.395.0-7.951-3.556-7.951-7.951V305.604c0-4.395 3.556-7.951 7.951-7.951 4.395.0 7.951 3.556 7.951 7.951V416.259z"/></g><g/><g/><g/><g/><g/><g/><g/><g/><g/><g/><g/><g/><g/><g/><g/></svg>