<svg id="Capa_1" xmlns="http://www.w3.org/2000/svg" xmlns:xlink="http://www.w3.org/1999/xlink" viewBox="0 0 479.554 479.554" style="enable-background:new 0 0 479.554 479.554"><g><path d="M324.782 277.035l-65.068 65.06 84.962 84.953c17.968 17.968 47.078 17.968 65.046.0 17.974-17.974 17.982-47.077.014-65.068L324.782 277.035z"/><path d="M125.819 208.207l50.672 50.672 65.068-65.067-50.664-50.666 61.271-61.279c5.032-5.031 5.032-13.2.0-18.24L240.83 52.299c-6.227-6.227-15.07-9.099-23.767-7.701l-97.945 15.7c-5.714.916-10.987 3.61-15.078 7.693l-4.333 4.341-3.54-3.549c-5.031-5.031-13.2-5.031-18.232.0L51.45 95.27c-5.039 5.031-5.039 13.2.0 18.232l3.54 3.548L3.774 168.258c-5.031 5.031-5.031 13.2.0 18.232l62.771 62.771c5.031 5.031 13.2 5.031 18.232.0L125.819 208.207z"/><path d="M467.096 113.758c-1.78-1.778-4.107-2.672-6.429-2.672-2.322.0-4.651.894-6.429 2.672l-36.114 36.09c-3.168 3.184-7.331 4.767-11.484 4.767-4.154.0-8.315-1.584-11.485-4.767l-26.423-26.431c-3.068-3.028-4.759-7.167-4.759-11.477s1.692-8.439 4.752-11.491l36.114-36.106c3.549-3.549 3.549-9.311.0-12.852-8.237-8.229-19.132-12.461-30.103-12.461-8.535.0-17.114 2.562-24.521 7.795l-19.622 13.86c-18.652 13.161-30.228 34.148-31.454 56.946l-2.322 43.405L90.653 367.213c-16.772 16.78-16.772 43.949.0 60.721 8.393 8.387 19.38 12.587 30.368 12.587 10.987.0 21.966-4.193 30.359-12.579l206.186-206.176 43.389-2.322c22.789-1.22 43.769-12.796 56.938-31.448l13.868-19.628C483.712 151.455 481.732 128.394 467.096 113.758zM123.149 413.453c-10.056.0-18.21-8.153-18.21-18.21.0-10.055 8.153-18.208 18.21-18.208 10.055.0 18.208 8.153 18.208 18.208C141.357 405.3 133.204 413.453 123.149 413.453z"/></g><g/><g/><g/><g/><g/><g/><g/><g/><g/><g/><g/><g/><g/><g/><g/></svg>