<svg id="Capa_1" xmlns="http://www.w3.org/2000/svg" xmlns:xlink="http://www.w3.org/1999/xlink" width="31.938" height="31.937" viewBox="0 0 31.938 31.937" style="enable-background:new 0 0 31.938 31.937"><g><g><path d="M20.564 28.065H2.419V3.872h18.146v4.123l2.418-2.696V3.916c0-1.36-1.103-2.463-2.463-2.463H2.463C1.103 1.453.0 2.555.0 3.916v24.105c0 1.361 1.103 2.464 2.463 2.464h18.059c1.359.0 2.463-1.103 2.463-2.464v-7.938l-2.42 2.697v5.285H20.564z"/><path d="M18.512 8.308c0-.668-.541-1.209-1.209-1.209H5.667C5 7.098 4.458 7.64 4.458 8.308c0 .667.542 1.209 1.209 1.209h11.635C17.971 9.517 18.512 8.975 18.512 8.308z"/><path d="M16.846 12.167H5.667c-.668.0-1.209.542-1.209 1.209.0.668.542 1.21 1.209 1.21h9.008L16.846 12.167z"/><path d="M12.324 17.177H5.667c-.668.0-1.209.543-1.209 1.211.0.666.542 1.209 1.209 1.209h5.287L12.324 17.177z"/><path d="M4.458 23.457c0 .668.542 1.209 1.209 1.209h3.872c.015-.173.04-.268.078-.398l.582-2.021H5.667C5 22.248 4.458 22.789 4.458 23.457z"/><path d="M22.615 8.424l-8.447 9.416-.653.729 4.651 4.171.652-.729 8.447-9.416.762-.85-4.649-4.171L22.615 8.424zM22.213 12.677l-5.539 6.174c-.068.078-.167.125-.271.13-.104.006-.205-.03-.282-.099l-.274-.246c-.161-.146-.174-.393-.03-.553l5.54-6.176c.069-.078.166-.125.271-.13.103-.005.205.03.282.1l.273.247C22.346 12.268 22.357 12.516 22.213 12.677zM23.823 9.743l.274.246c.16.144.174.392.029.553l-.07.079-.396.441-.017.018c-.068.078-.166.124-.271.129-.104.006-.205-.029-.282-.1l-.275-.246c-.078-.069-.123-.167-.129-.27-.006-.104.03-.206.101-.283l.481-.537C23.414 9.612 23.662 9.598 23.823 9.743z"
			/><path d="M24.177 6.684 23.827 7.074 28.477 11.245 28.828 10.853 29.618 9.972 24.969 5.802z"/><path d="M31.936 6.795c-.02-.358-.181-.694-.447-.934l-2.635-2.364c-.268-.24-.619-.363-.977-.344-.357.02-.695.18-.934.448l-1.555 1.732 4.65 4.169 1.553-1.732C31.831 7.505 31.955 7.154 31.936 6.795zM29.943 7.766l-2.817-2.527.813-.906 2.815 2.526L29.943 7.766z"/><path d="M11.557 25.429c.192.172.466.219.705.121l5.345-2.189-4.648-4.17-1.599 5.551C11.288 24.99 11.365 25.257 11.557 25.429zM13.385 20.673l2.7 2.424-2.1.861-1.229-1.103L13.385 20.673z"/></g></g><g/><g/><g/><g/><g/><g/><g/><g/><g/><g/><g/><g/><g/><g/><g/></svg>