<svg id="Capa_1" xmlns="http://www.w3.org/2000/svg" xmlns:xlink="http://www.w3.org/1999/xlink" width="31.739" height="31.74" viewBox="0 0 31.739 31.74" style="enable-background:new 0 0 31.739 31.74"><g><path d="M21.91 13.422l4.586-8.144-5.676-3.18-4.895 8.697 4.697 2.627H21.91zM18.893 9.806c-.104.029-.215.015-.311-.037l-.301-.17c-.197-.11-.268-.358-.153-.553l2.602-4.63c.054-.094.142-.163.244-.192.104-.029.216-.016.31.037l.307.17c.191.11.264.358.152.553l-2.603 4.63C19.087 9.707 18.996 9.777 18.893 9.806zM18.77 13.422h-4.327l1.039-1.848L18.77 13.422zM29.107 6.376l-3.971 7.046H22.85l5.139-9.129.633.375C29.232 5.011 29.451 5.766 29.107 6.376zM26.148 4.06l-4.754-2.67c.738-1.312 2.4-1.778 3.713-1.04C26.421 1.087 26.886 2.747 26.148 4.06zM5.447 13.422h1.314l-.409-1.539C6.328 11.791 6.34 11.702 6.39 11.62c.047-.083.127-.137.219-.161l.327-.083c.19-.05.386.047.438.238l.479 1.809h3.512L9.593 6.698 4.056 8.142 5.447 13.422zM5.941 8.922l.327-.085c.192-.05.388.064.439.256l.167.639c.024.092.012.19-.036.272-.049.082-.127.142-.22.166l-.326.086C6.2 10.28 6.103 10.266 6.02 10.218 5.936 10.17 5.875 10.091 5.854 10L5.686 9.36C5.635 9.168 5.75 8.973 5.941 8.922zM3.504 6.057l5.535-1.453L9.437 6.12 3.902 7.573 3.504 6.057zM3.357 5.502l5.535-1.456L8.35 1.985C8.176 1.323 7.498.928 6.837 1.101L3.699 1.925c-.318.084-.59.29-.755.574C2.778 2.783 2.733 3.121 2.815 3.438L3.357 5.502zM7.229 2.164l.284 1.079L4.162 4.124l-.284-1.08L7.229 2.164zM3.098 14.937H2.469L6.159 30.5c0 .007-.001.016-.001.021.0.672 3.581 1.218 7.995 1.218 4.166.0 7.587-.484 7.962-1.104h.01.033l3.658-15.698h-.062L3.098 14.937v0zM8.588 29.225c-.093.021-.184.035-.277.035-.501.0-.958-.34-1.087-.848l-2.453-9.676c-.153-.601.21-1.21.811-1.363.6-.15 1.211.209 1.365.812L9.4 27.864C9.551 28.46 9.188 29.072 8.588 29.225z"/></g><g/><g/><g/><g/><g/><g/><g/><g/><g/><g/><g/><g/><g/><g/><g/></svg>