<svg id="Capa_1" xmlns="http://www.w3.org/2000/svg" xmlns:xlink="http://www.w3.org/1999/xlink" width="31.592" height="31.592" viewBox="0 0 31.592 31.592" style="enable-background:new 0 0 31.592 31.592"><g><g><path d="M19.812 20.062c-.037.069-.111.137-.111.2v6.392c0 1.056-.889 1.875-1.94 1.875H4.394c-1.055.0-1.931-.82-1.931-1.875V9.537c0-1.054.876-1.938 1.931-1.938h13.364c.385.0.741.128 1.04.323l2.146-2.377c-.377-.224-.814-.34-1.287-.34H2.393C1.063 5.205.0 6.271.0 7.603v20.949c0 1.389 1.107 2.51 2.495 2.51h17.159c1.39.0 2.508-1.121 2.508-2.51V17.484l-2.07 2.319C20.003 19.904 19.916 19.99 19.812 20.062z"/><path d="M5.646 10.881c-.681.0-1.232.516-1.232 1.198.0.679.552 1.196 1.232 1.196h8.35l2.186-2.394H5.646z"/><path d="M12.619 15.055c.012-.042.026-.069.042-.138H5.646c-.681.0-1.232.55-1.232 1.231.0.676.552 1.229 1.232 1.229h6.308L12.619 15.055z"/><path d="M9.901 19.022H6.213 5.646c-.681.0-1.23.551-1.23 1.229.0.678.55 1.23 1.23 1.23H7.82h.681 1.401c.545.0 1.005-.36 1.168-.848.009-.131.03-.271.064-.396-.003-.617-.458-1.121-1.053-1.205C10.022 19.025 9.962 19.022 9.901 19.022z"/><path d="M23.08 5.309l-7.905 8.811-.535.597 4.278 3.836.535-.596 7.902-8.81.639-.709-4.279-3.838L23.08 5.309zM22.645 9.294l-5.098 5.681c-.064.071-.152.114-.249.12-.097.005-.188-.028-.261-.092l-.254-.227c-.146-.133-.158-.36-.025-.509l5.098-5.682c.062-.071.152-.114.25-.119.094-.005.188.028.26.091l.25.228C22.766 8.918 22.775 9.146 22.645 9.294zM24.124 6.595l.252.226c.146.132.16.358.028.506.0.0-.002.001-.002.002l-.44.494c-.019.02-.038.037-.06.052-.057.04-.121.064-.189.068-.096.005-.188-.028-.26-.092l-.254-.226c-.07-.063-.113-.153-.118-.249-.007-.095.026-.189.092-.26l.442-.494C23.748 6.476 23.979 6.462 24.124 6.595z"/><path d="M24.518 3.707 24.128 4.139 28.404 7.978 28.795 7.543 29.458 6.805 25.18 2.967z"/><path d="M31.178 3.023l-2.426-2.175c-.245-.22-.566-.334-.896-.316s-.641.166-.858.411l-1.431 1.594 4.276 3.837 1.431-1.594C31.732 4.27 31.691 3.482 31.178 3.023zM29.757 4.775l-2.592-2.325.749-.834 2.591 2.325L29.757 4.775z"/><path d="M13.487 21.139l4.917-2.015-4.274-3.835-1.473 5.107c-.065.229.005.476.182.633C13.016 21.187 13.267 21.231 13.487 21.139zM14.519 16.652l2.485 2.229-1.932.792-1.131-1.014L14.519 16.652z"/></g></g><g/><g/><g/><g/><g/><g/><g/><g/><g/><g/><g/><g/><g/><g/><g/></svg>