<svg id="Capa_1" xmlns="http://www.w3.org/2000/svg" xmlns:xlink="http://www.w3.org/1999/xlink" width="97.986" height="97.986" viewBox="0 0 97.986 97.986" style="enable-background:new 0 0 97.986 97.986"><g><path d="M37.743 56.576c.139.398.298.771-.238.958-.092.017-.171.056-.222.033-.628-.282-1.052.019-1.482.444-.102.102-.518.067-.622-.054-.179-.202-.474-.548-.302-.769 1.061-1.863.624-6.228.499-7.998-.123-1.783-.38-3.56-.665-5.327-.113-.698-.397-1.392-.723-2.028-.386-.759-.254-1.094.576-1.216.297-.044.569-.26.855-.398.249-.12.512-.361.742-.333.282.036.657.243.76.479.082.178-.127.652-.332.76-.796.421-.807 1.068-.709 1.814.365 2.848.681 5.704 1.091 8.545C37.091 52.303 37.469 55.789 37.743 56.576zM62.756 38.982c.213.184-.012.582-.147.815-.077.136-.479.251-.599.171-.504-.333-.979-.545-1.541-.146-.047.031-.131.007-.225.011-.561-.08-.479-.477-.418-.895.116-.826.327-1.661.284-2.482-.149-2.867-.396-5.729-.591-8.594-.051-.75-.188-1.385-1.047-1.643-.168-.049-.375-.302-.451-.503l-1.072 1.206-.475.738c.211.415.265.839.125 1.232-.028.077-.063.151-.104.222 1.483 1.029 2.185 2.33 1.797 3.411-.139.387-.401.707-.767.953.805.854 1.111 1.781.822 2.585-.146.407-.431.742-.826.995.801.852 1.115 1.785.826 2.587-.287.801-1.098 1.325-2.276 1.475-.005.0-.011.0-.017.001.479.904.537 1.769.135 2.43-.396.652-1.159 1.002-2.168 1.002-.117.0-.236-.004-.358-.014-.831-.064-1.751-.342-2.647-.792-.062.314-.227.592-.451.801.158.223.253.495.253.79v.228c0 .421-.193.797-.492 1.049.08.16.13.34.13.532v.179c0 .4-.197.752-.5.97.034.072.055.153.055.238v.518c0 .545-.44.988-.987.988H48.06c-.313.0-.566-.253-.566-.564.0-.313.253-.566.566-.566h.819v-.374c0-.003.002-.006.002-.011h-1.06c-.313.0-.564-.254-.564-.566.0-.313.252-.565.564-.565h1.438c.036.0.064-.029.064-.066v-.179c0-.036-.028-.066-.064-.066h-1.438c-.176.0-.33-.081-.434-.205-.19-.092-.323-.285-.323-.51.0-.313.252-.566.563-.566h1.823c.129.0.232-.105.232-.234v-.227c0-.129-.104-.234-.232-.234h-1.823c-.227.0-.418-.134-.509-.326-.108-.103-.176-.247-.176-.408.0-.313.253-.566.565-.566h2.063c.188.0.339-.151.339-.339v-.258c0-.044-.01-.087-.024-.126-.099-.068-.191-.139-.287-.21-.009.0-.018-.002-.027-.002h-2.063c-.007.0-.016-.002-.023-.003-.237.18-.485.354-.748.513-1.104.67-2.281 1.083-3.321 1.162-.122.01-.24.014-.358.014-1.009.0-1.773-.35-2.168-1.002-.402-.662-.345-1.526.134-2.43-.004-.001-.01-.001-.015-.001-1.182-.15-1.99-.674-2.278-1.475-.288-.802.025-1.736.828-2.587-.397-.253-.681-.587-.828-.995-.288-.805.019-1.731.823-2.585-.364-.246-.628-.566-.765-.953-.389-1.081.313-2.382 1.795-3.411-.039-.071-.077-.146-.104-.222-.061-.174-.082-.354-.072-.535l-.92-1.435-1.246-1.402c.002.006.006.012.007.019.042.191-.255.615-.476.681-.862.258-.996.893-1.049 1.643-.196 2.865-.441 5.727-.59 8.594-.042.821.167 1.657.284 2.482.061.418.144.814-.419.895-.094-.003-.178.021-.225-.011-.561-.399-1.034-.187-1.538.146-.12.08-.522-.035-.601-.171-.137-.233-.36-.632-.147-.815 1.401-1.621 1.305-3.326 1.526-5.089.225-1.773.319-3.566.383-5.353.026-.708-.118-1.445-.314-2.131-.231-.82-.036-1.124.801-1.081.301.015.61-.144.917-.224.269-.07.573-.254.794-.181.07.024.146.06.218.106-.019-.031-.036-.062-.048-.094-.301-.813-.277-1.477.066-1.973.479-.688 1.407-.791 1.917-.791.159.0.263.01.263.01.018.002.039.006.06.01.333.078 3.276.796 3.976 2.308.113.247.154.549.143.883.385-.08.763-.125 1.123-.125.532.0.985.09 1.35.256v-.424c0-.549.347-1.014.83-1.193.078-.219.286-.378.531-.378h.819v-.374c0-.003.002-.007.002-.011h-1.059c-.312.0-.564-.253-.564-.566s.253-.566.564-.566h1.438c.036.0.065-.028.065-.064v-.35c0-.035-.029-.064-.065-.064.0.0-1.766.089-1.87-.037-.191-.091-.324-.285-.324-.51.0-.313.253-.566.564-.566.0.0 1.049.0 1.823.0 1.077.081 1.003 1.154 1.003 1.348v.179c0 .399-.195.751-.498.97.034.072.055.153.055.238v.517c0 .155-.039.3-.104.432.292.233.482.592.482.997v.449c.371-.186.851-.284 1.412-.284.156.0.315.008.479.022.0-.293.043-.559.146-.781.699-1.512 3.644-2.229 3.976-2.308.021-.004.04-.007.06-.01.0.0.104-.01.266-.01.509.0 1.436.103 1.914.791.342.493.367 1.151.074 1.955.219-.05.508.12.767.187.308.08.614.239.916.224.837-.042 1.032.261.799 1.081-.194.686-.337 1.422-.313 2.131.063 1.787.158 3.58.385 5.353C61.452 35.656 61.354 37.362 62.756 38.982zM42.981 29.086c.454-.034.94-.135 1.424-.309.747-.269 1.418-.68 1.842-1.128.344-.365.496-.729.409-.972-.112-.313-.64-.514-1.346-.514-.397.0-.827.062-1.264.18C43.818 27.285 43.368 28.313 42.981 29.086zM39.947 32.11c.119.333.594.583 1.272.667.833.106 1.895-.043 2.914-.408 2.075-.745 3.33-2.125 3.066-2.86-.1-.28-.487-.54-.972-.659-.438.31-.955.577-1.519.779-.69.247-1.393.378-2.034.378-.061.0-.118-.004-.178-.006-.042.077-.079.142-.108.191-.08.141-.229.229-.393.233-.002.0-.006.0-.01.0-.159.0-.309-.081-.392-.215l-.134-.203C40.264 30.781 39.783 31.652 39.947 32.11zM39.889 35.648c.12.331.595.582 1.272.668.835.106 1.897-.043 2.916-.409 2.074-.746 3.33-2.125 3.066-2.861-.092-.257-.33-.419-.596-.521-.566.39-1.241.732-1.999 1.004-.944.339-1.903.515-2.768.515-.248.0-.488-.015-.72-.043-.076-.011-.148-.025-.225-.039C40.115 34.566 39.739 35.224 39.889 35.648zM44.078 39.49c2.074-.745 3.33-2.124 3.066-2.86-.081-.226-.328-.415-.692-.539-.558.377-1.218.711-1.958.977-.945.338-1.902.515-2.771.515-.244.0-.485-.014-.715-.043-.047-.006-.089-.017-.134-.023-.743.609-1.138 1.28-.984 1.715.12.333.595.582 1.272.667C41.997 40.004 43.059 39.855 44.078 39.49zM47.771 40.944c-.414-.678-.588-1.329-.526-1.904-.677.635-1.619 1.204-2.751 1.609-.673.241-1.352.398-1.999.47-.563.725-.784 1.414-.555 1.793.185.301.699.45 1.383.399.836-.063 1.846-.422 2.771-.984C46.749 41.929 47.33 41.446 47.771 40.944zM50.831 27.649c.425.448 1.095.859 1.843 1.128.243.087.487.153.729.207-.394-.799-.839-1.838-1.043-2.775-.204-.027-.404-.045-.595-.045-.705.0-1.231.202-1.344.514C50.335 26.92 50.488 27.285 50.831 27.649zM54.583 41.119c-.646-.072-1.325-.229-1.997-.47-1.135-.406-2.076-.975-2.754-1.609.062.575-.109 1.226-.526 1.904.442.501 1.024.984 1.678 1.383.927.562 1.935.921 2.773.984.68.051 1.194-.098 1.379-.399C55.366 42.534 55.148 41.844 54.583 41.119zM56.205 37.516c-.046.006-.088.017-.134.023-.229.029-.47.043-.718.043-.865.0-1.825-.177-2.769-.515-.743-.266-1.399-.599-1.957-.977-.366.125-.612.313-.696.539-.262.736.992 2.115 3.069 2.86 1.019.366 2.081.514 2.914.409.677-.085 1.153-.334 1.272-.667C57.344 38.796 56.946 38.125 56.205 37.516zM56.242 33.962c-.077.014-.148.028-.229.039-.229.029-.471.043-.717.043-.867.0-1.824-.176-2.771-.515-.759-.272-1.433-.615-1.997-1.004-.266.103-.504.265-.598.521-.263.736.992 2.115 3.068 2.861 1.02.365 2.081.515 2.914.409.678-.086 1.153-.337 1.271-.668C57.34 35.224 56.963 34.566 56.242 33.962zM55.4 29.875c-.125.034-.26.063-.396.085l-.162.251c-.086.135-.233.215-.394.215-.004.0-.009.0-.011.0-.164-.004-.313-.092-.394-.233-.03-.053-.071-.125-.118-.209-.507-.047-1.035-.167-1.559-.354-.562-.202-1.081-.47-1.52-.779-.483.119-.871.379-.972.659-.265.735.992 2.115 3.066 2.86 1.021.364 2.081.514 2.913.408.68-.085 1.152-.335 1.272-.667C57.305 31.625 56.756 30.678 55.4 29.875zM61.68 40.62c-.297-.044-.569-.26-.854-.398-.25-.12-.515-.361-.743-.333-.283.036-.656.243-.762.479-.077.178.129.652.334.76.794.421.806 1.068.711 1.814-.367 2.848-.673 8.413-1.087 11.254-.117.813-.486 1.592-.763 2.38-.139.398-.297.771.238.958.094.017.172.056.223.033.629-.282 1.051.019 1.481.444.103.102.517.067.622-.054.18-.202.475-.548.303-.769-1.061-1.863-.642-6.228-.516-7.998.126-1.783.379-3.56.665-5.327.11-.698.396-1.392.721-2.028C62.641 41.077 62.51 40.742 61.68 40.62zM70.287 19.661V58.48c0 1.037-.846 1.884-1.884 1.884H57.602L57.6 93.704c0 2.364-1.918 4.282-4.285 4.282-2.363.0-4.28-1.918-4.28-4.282v-33.34h-.609l.001 33.34c0 2.364-1.918 4.282-4.282 4.282-2.366.001-4.284-1.917-4.284-4.282l-.002-33.34H29.584c-1.04.0-1.885-.847-1.885-1.884V19.661c0-1.039.845-1.885 1.885-1.885h15.031c-3.17-1.492-5.368-4.706-5.368-8.442C39.247 4.178 43.424.0 48.58.0c5.157.0 9.336 4.178 9.336 9.334.0 3.736-2.199 6.95-5.369 8.442h15.856C69.441 17.776 70.287 18.622 70.287 19.661zM52.717 57.526c-.512-.292-.496-.583-.945-.521-.447.065-.684.578-1.018.883.198.158.459.487.586.444C51.744 58.188 52.098 57.906 52.717 57.526zM52.201 53.949c-.004-.334-.555-.77-.955-.939-.189-.082-.641.303-.896.556-.472.465-.848 1.03-1.344 1.462-.168.146-.692.143-.858-.008-.512-.469-.996-.994-1.362-1.582-.429-.688-.878-.601-1.398-.215-.716.53-.784 1.494-.126 2.302.858 1.223 4.792 2.127 6.375.219C52.053 55.404 52.209 54.561 52.201 53.949zM44.801 57.583c.373.261.734.556 1.139.755.089.045.345-.248.73-.542-.574-.348-1.001-.788-1.363-.784C44.944 57.014 44.972 57.381 44.801 57.583zM68.404 58.48l-.001-38.819H29.584V58.48H44.08c-.154-.262-.284-.576-.379-.942-.207-.796-.467-1.728-1.82-2.649-.311-.504-.55-1.076-.941-1.508-1.262-1.384-1.423-2.603-.457-4.173 1.208-1.963 3.393-2.348 5.108-.871.601.519 1.162 1.087 1.695 1.675.945 1.043 1.649 1.039 2.599-.015.529-.589 1.096-1.155 1.695-1.675 1.648-1.429 3.739-1.144 4.96.732.416.638.597 1.431.793 1.922.427 1.567-1.495 3.14-2.784 4.25-.865.34-.927 1.791-1.098 2.343-.107.353-.238.655-.395.911H68.404z"/></g><g/><g/><g/><g/><g/><g/><g/><g/><g/><g/><g/><g/><g/><g/><g/></svg>