<svg id="Capa_1" xmlns="http://www.w3.org/2000/svg" xmlns:xlink="http://www.w3.org/1999/xlink" width="394.4" height="394.4" viewBox="0 0 394.4 394.4" style="enable-background:new 0 0 394.4 394.4"
	><g><path d="M282.88 116.96 232.9 183.6h25.5c7.507.0 13.6 6.093 13.6 13.6.0 7.507-6.093 13.6-13.6 13.6h-45.9l-1.7 2.265V231.2H258.4c7.507.0 13.6 6.093 13.6 13.6.0 7.508-6.093 13.601-13.6 13.601H210.8V306c0 7.508-6.093 13.601-13.6 13.601-7.507.0-13.6-6.093-13.6-13.601v-47.6H136c-7.507.0-13.6-6.093-13.6-13.601.0-7.507 6.093-13.6 13.6-13.6h47.6v-18.136l-1.7-2.265H136c-7.507.0-13.6-6.093-13.6-13.6.0-7.507 6.093-13.6 13.6-13.6h25.5l-49.98-66.64c-4.508-6.011-3.291-14.538 2.713-19.04 6.039-4.522 14.545-3.278 19.04 2.713L195.5 183.6h3.407l62.22-82.96c4.502-5.998 13.016-7.235 19.04-2.713C286.172 102.422 287.389 110.949 282.88 116.96zM394.4 197.2c0 108.909-88.291 197.2-197.2 197.2C88.292 394.4.0 306.109.0 197.2.0 88.292 88.292.0 197.2.0 306.109.0 394.4 88.292 394.4 197.2zM362.005 197.2c0-91.018-73.787-164.805-164.805-164.805-91.018.0-164.805 73.787-164.805 164.805.0 91.018 73.787 164.805 164.805 164.805C288.218 362.005 362.005 288.218 362.005 197.2z"/></g><g/><g/><g/><g/><g/><g/><g/><g/><g/><g/><g/><g/><g/><g/><g/></svg>