<svg id="Capa_1" xmlns="http://www.w3.org/2000/svg" xmlns:xlink="http://www.w3.org/1999/xlink" width="480.032" height="480.032" viewBox="0 0 480.032 480.032" style="enable-background:new 0 0 480.032 480.032"><g><path d="M444.016 54.4h-183.6v-34c0-11.268-9.133-20.4-20.401-20.4-11.268.0-20.4 9.132-20.4 20.4v34h-183.6c-11.268.0-20.4 9.132-20.4 20.4v272c0 11.268 9.132 20.4 20.4 20.4h110.765l-50.877 81.641c-5.957 9.561-3.04 22.147 6.521 28.104 3.359 2.095 7.086 3.087 10.771 3.087 6.807.0 13.464-3.406 17.333-9.608L194.85 367.2h97.125l64.328 103.224c3.861 6.202 10.52 9.608 17.332 9.608 3.686.0 7.412-.992 10.771-3.087 9.561-5.957 12.479-18.544 6.521-28.104L340.051 367.2h103.965c11.268.0 20.4-9.133 20.4-20.4v-272C464.417 63.532 455.284 54.4 444.016 54.4zM353.95 223.407l-18.91-26.445-101.926 72.89-22.182-64.111-109.916 83.124-16.401-21.699L224.41 161.459l22.515 65.076 72.305-51.7-18.91-26.445 91.779-8.935L353.95 223.407z"/></g><g/><g/><g/><g/><g/><g/><g/><g/><g/><g/><g/><g/><g/><g/><g/></svg>